%TF.GenerationSoftware,KiCad,Pcbnew,(6.0.4-0)*%
%TF.CreationDate,2022-08-01T10:55:25-06:00*%
%TF.ProjectId,lm334-source,6c6d3333-342d-4736-9f75-7263652e6b69,rev?*%
%TF.SameCoordinates,Original*%
%TF.FileFunction,Copper,L1,Top*%
%TF.FilePolarity,Positive*%
%FSLAX46Y46*%
G04 Gerber Fmt 4.6, Leading zero omitted, Abs format (unit mm)*
G04 Created by KiCad (PCBNEW (6.0.4-0)) date 2022-08-01 10:55:25*
%MOMM*%
%LPD*%
G01*
G04 APERTURE LIST*
G04 Aperture macros list*
%AMRoundRect*
0 Rectangle with rounded corners*
0 $1 Rounding radius*
0 $2 $3 $4 $5 $6 $7 $8 $9 X,Y pos of 4 corners*
0 Add a 4 corners polygon primitive as box body*
4,1,4,$2,$3,$4,$5,$6,$7,$8,$9,$2,$3,0*
0 Add four circle primitives for the rounded corners*
1,1,$1+$1,$2,$3*
1,1,$1+$1,$4,$5*
1,1,$1+$1,$6,$7*
1,1,$1+$1,$8,$9*
0 Add four rect primitives between the rounded corners*
20,1,$1+$1,$2,$3,$4,$5,0*
20,1,$1+$1,$4,$5,$6,$7,0*
20,1,$1+$1,$6,$7,$8,$9,0*
20,1,$1+$1,$8,$9,$2,$3,0*%
%AMFreePoly0*
4,1,22,0.500000,-0.750000,0.000000,-0.750000,0.000000,-0.745033,-0.079941,-0.743568,-0.215256,-0.701293,-0.333266,-0.622738,-0.424486,-0.514219,-0.481581,-0.384460,-0.499164,-0.250000,-0.500000,-0.250000,-0.500000,0.250000,-0.499164,0.250000,-0.499963,0.256109,-0.478152,0.396186,-0.417904,0.524511,-0.324060,0.630769,-0.204165,0.706417,-0.067858,0.745374,0.000000,0.744959,0.000000,0.750000,
0.500000,0.750000,0.500000,-0.750000,0.500000,-0.750000,$1*%
%AMFreePoly1*
4,1,20,0.000000,0.744959,0.073905,0.744508,0.209726,0.703889,0.328688,0.626782,0.421226,0.519385,0.479903,0.390333,0.500000,0.250000,0.500000,-0.250000,0.499851,-0.262216,0.476331,-0.402017,0.414519,-0.529596,0.319384,-0.634700,0.198574,-0.708877,0.061801,-0.746166,0.000000,-0.745033,0.000000,-0.750000,-0.500000,-0.750000,-0.500000,0.750000,0.000000,0.750000,0.000000,0.744959,
0.000000,0.744959,$1*%
G04 Aperture macros list end*
%TA.AperFunction,SMDPad,CuDef*%
%ADD10RoundRect,0.237500X-0.300000X-0.237500X0.300000X-0.237500X0.300000X0.237500X-0.300000X0.237500X0*%
%TD*%
%TA.AperFunction,SMDPad,CuDef*%
%ADD11R,0.650000X1.560000*%
%TD*%
%TA.AperFunction,SMDPad,CuDef*%
%ADD12RoundRect,0.237500X0.250000X0.237500X-0.250000X0.237500X-0.250000X-0.237500X0.250000X-0.237500X0*%
%TD*%
%TA.AperFunction,SMDPad,CuDef*%
%ADD13RoundRect,0.150000X-0.150000X0.825000X-0.150000X-0.825000X0.150000X-0.825000X0.150000X0.825000X0*%
%TD*%
%TA.AperFunction,SMDPad,CuDef*%
%ADD14RoundRect,0.150000X-0.825000X-0.150000X0.825000X-0.150000X0.825000X0.150000X-0.825000X0.150000X0*%
%TD*%
%TA.AperFunction,SMDPad,CuDef*%
%ADD15RoundRect,0.135000X-0.185000X0.135000X-0.185000X-0.135000X0.185000X-0.135000X0.185000X0.135000X0*%
%TD*%
%TA.AperFunction,SMDPad,CuDef*%
%ADD16RoundRect,0.150000X0.587500X0.150000X-0.587500X0.150000X-0.587500X-0.150000X0.587500X-0.150000X0*%
%TD*%
%TA.AperFunction,SMDPad,CuDef*%
%ADD17R,1.000000X1.000000*%
%TD*%
%TA.AperFunction,SMDPad,CuDef*%
%ADD18C,1.000000*%
%TD*%
%TA.AperFunction,SMDPad,CuDef*%
%ADD19RoundRect,0.237500X0.300000X0.237500X-0.300000X0.237500X-0.300000X-0.237500X0.300000X-0.237500X0*%
%TD*%
%TA.AperFunction,ComponentPad*%
%ADD20C,0.700000*%
%TD*%
%TA.AperFunction,ComponentPad*%
%ADD21C,4.400000*%
%TD*%
%TA.AperFunction,SMDPad,CuDef*%
%ADD22RoundRect,0.147500X0.147500X0.172500X-0.147500X0.172500X-0.147500X-0.172500X0.147500X-0.172500X0*%
%TD*%
%TA.AperFunction,SMDPad,CuDef*%
%ADD23RoundRect,0.250000X0.325000X0.450000X-0.325000X0.450000X-0.325000X-0.450000X0.325000X-0.450000X0*%
%TD*%
%TA.AperFunction,SMDPad,CuDef*%
%ADD24RoundRect,0.147500X-0.172500X0.147500X-0.172500X-0.147500X0.172500X-0.147500X0.172500X0.147500X0*%
%TD*%
%TA.AperFunction,SMDPad,CuDef*%
%ADD25RoundRect,0.147500X-0.147500X-0.172500X0.147500X-0.172500X0.147500X0.172500X-0.147500X0.172500X0*%
%TD*%
%TA.AperFunction,SMDPad,CuDef*%
%ADD26RoundRect,0.150000X-0.625000X0.150000X-0.625000X-0.150000X0.625000X-0.150000X0.625000X0.150000X0*%
%TD*%
%TA.AperFunction,SMDPad,CuDef*%
%ADD27RoundRect,0.250000X-0.650000X0.350000X-0.650000X-0.350000X0.650000X-0.350000X0.650000X0.350000X0*%
%TD*%
%TA.AperFunction,SMDPad,CuDef*%
%ADD28FreePoly0,270.000000*%
%TD*%
%TA.AperFunction,SMDPad,CuDef*%
%ADD29FreePoly1,270.000000*%
%TD*%
%TA.AperFunction,SMDPad,CuDef*%
%ADD30RoundRect,0.237500X0.237500X-0.287500X0.237500X0.287500X-0.237500X0.287500X-0.237500X-0.287500X0*%
%TD*%
%TA.AperFunction,SMDPad,CuDef*%
%ADD31RoundRect,0.150000X0.625000X-0.150000X0.625000X0.150000X-0.625000X0.150000X-0.625000X-0.150000X0*%
%TD*%
%TA.AperFunction,SMDPad,CuDef*%
%ADD32RoundRect,0.250000X0.650000X-0.350000X0.650000X0.350000X-0.650000X0.350000X-0.650000X-0.350000X0*%
%TD*%
%TA.AperFunction,ViaPad*%
%ADD33C,0.600000*%
%TD*%
%TA.AperFunction,Conductor*%
%ADD34C,0.250000*%
%TD*%
%TA.AperFunction,Conductor*%
%ADD35C,0.200000*%
%TD*%
G04 APERTURE END LIST*
D10*
%TO.P,C5,1*%
%TO.N,GND*%
X116987500Y-98450000D03*
%TO.P,C5,2*%
%TO.N,+3V3*%
X118712500Y-98450000D03*
%TD*%
D11*
%TO.P,U1,1,Vin+*%
%TO.N,/Channel1/buffer/out+*%
X123200000Y-93000000D03*
%TO.P,U1,2,Vss*%
%TO.N,GND*%
X124150000Y-93000000D03*
%TO.P,U1,3,SCL*%
%TO.N,/scl-rx*%
X125100000Y-93000000D03*
%TO.P,U1,4,SDA*%
%TO.N,/sda-tx*%
X125100000Y-90300000D03*
%TO.P,U1,5,Vdd*%
%TO.N,VD*%
X124150000Y-90300000D03*
%TO.P,U1,6,Vin-*%
%TO.N,/Channel1/buffer/out-*%
X123200000Y-90300000D03*
%TD*%
D12*
%TO.P,R9,1*%
%TO.N,Net-(R8-Pad2)*%
X112862500Y-83750000D03*
%TO.P,R9,2*%
%TO.N,/Channel1/I+*%
X111037500Y-83750000D03*
%TD*%
%TO.P,R8,2*%
%TO.N,Net-(R8-Pad2)*%
X114537500Y-83750000D03*
%TO.P,R8,1*%
%TO.N,Net-(R6-Pad1)*%
X116362500Y-83750000D03*
%TD*%
%TO.P,R7,1*%
%TO.N,Net-(R6-Pad2)*%
X112862500Y-85750000D03*
%TO.P,R7,2*%
%TO.N,Net-(Q1-Pad1)*%
X111037500Y-85750000D03*
%TD*%
%TO.P,R6,2*%
%TO.N,Net-(R6-Pad2)*%
X114537500Y-85750000D03*
%TO.P,R6,1*%
%TO.N,Net-(R6-Pad1)*%
X116362500Y-85750000D03*
%TD*%
D13*
%TO.P,U3,1*%
%TO.N,/Channel1/buffer/out-*%
X120255000Y-90175000D03*
%TO.P,U3,2,-*%
X118985000Y-90175000D03*
%TO.P,U3,3,+*%
%TO.N,/Channel1/buffer/in+*%
X117715000Y-90175000D03*
%TO.P,U3,4,V-*%
%TO.N,GND*%
X116445000Y-90175000D03*
%TO.P,U3,5,+*%
%TO.N,/Channel1/buffer/in-*%
X116445000Y-95125000D03*
%TO.P,U3,6,-*%
%TO.N,/Channel1/buffer/out+*%
X117715000Y-95125000D03*
%TO.P,U3,7*%
X118985000Y-95125000D03*
%TO.P,U3,8,V+*%
%TO.N,+3V3*%
X120255000Y-95125000D03*
%TD*%
D14*
%TO.P,U2,1*%
%TO.N,Net-(R6-Pad1)*%
X118575000Y-82245000D03*
%TO.P,U2,2*%
%TO.N,Net-(Q1-Pad1)*%
X118575000Y-83515000D03*
%TO.P,U2,3*%
X118575000Y-84785000D03*
%TO.P,U2,4*%
%TO.N,+3V3*%
X118575000Y-86055000D03*
%TO.P,U2,5*%
%TO.N,N/C*%
X123525000Y-86055000D03*
%TO.P,U2,6*%
%TO.N,Net-(Q1-Pad1)*%
X123525000Y-84785000D03*
%TO.P,U2,7*%
X123525000Y-83515000D03*
%TO.P,U2,8*%
%TO.N,N/C*%
X123525000Y-82245000D03*
%TD*%
D15*
%TO.P,R5,2*%
%TO.N,GND*%
X108650000Y-98250000D03*
%TO.P,R5,1*%
%TO.N,/Channel1/I-*%
X108650000Y-97230000D03*
%TD*%
D16*
%TO.P,Q1,3,C*%
%TO.N,Net-(Q1-Pad1)*%
X107112500Y-84450000D03*
%TO.P,Q1,2,E*%
%TO.N,/Channel1/I+*%
X108987500Y-83500000D03*
%TO.P,Q1,1,B*%
%TO.N,Net-(Q1-Pad1)*%
X108987500Y-85400000D03*
%TD*%
D17*
%TO.P,J3,2,Ext*%
%TO.N,GND*%
X110350000Y-95850000D03*
X113150000Y-95850000D03*
X113150000Y-98650000D03*
X110350000Y-98650000D03*
D18*
%TO.P,J3,1,In*%
%TO.N,/Channel1/I-*%
X111750000Y-97250000D03*
%TD*%
D19*
%TO.P,C6,2*%
%TO.N,GND*%
X117387500Y-87850000D03*
%TO.P,C6,1*%
%TO.N,+3V3*%
X119112500Y-87850000D03*
%TD*%
D20*
%TO.P,MH1,1,Pin_1*%
%TO.N,GNDPWR*%
X101350000Y-84000000D03*
X103000000Y-82350000D03*
X104166726Y-85166726D03*
X104166726Y-82833274D03*
D21*
X103000000Y-84000000D03*
D20*
X104650000Y-84000000D03*
X101833274Y-82833274D03*
X101833274Y-85166726D03*
X103000000Y-85650000D03*
%TD*%
D21*
%TO.P,MH2,1,Pin_1*%
%TO.N,GNDPWR*%
X136000000Y-84000000D03*
D20*
X137166726Y-82833274D03*
X134350000Y-84000000D03*
X137650000Y-84000000D03*
X137166726Y-85166726D03*
X136000000Y-82350000D03*
X136000000Y-85650000D03*
X134833274Y-85166726D03*
X134833274Y-82833274D03*
%TD*%
%TO.P,MH3,1,Pin_1*%
%TO.N,GNDPWR*%
X101833274Y-98166726D03*
D21*
X103000000Y-97000000D03*
D20*
X104166726Y-98166726D03*
X101833274Y-95833274D03*
X104166726Y-95833274D03*
X103000000Y-95350000D03*
X104650000Y-97000000D03*
X101350000Y-97000000D03*
X103000000Y-98650000D03*
%TD*%
D21*
%TO.P,MH4,1,Pin_1*%
%TO.N,GNDPWR*%
X136000000Y-97000000D03*
D20*
X134833274Y-95833274D03*
X134350000Y-97000000D03*
X137650000Y-97000000D03*
X136000000Y-95350000D03*
X137166726Y-98166726D03*
X137166726Y-95833274D03*
X134833274Y-98166726D03*
X136000000Y-98650000D03*
%TD*%
D22*
%TO.P,R3,1*%
%TO.N,/Channel1/buffer/in+*%
X111250000Y-90550000D03*
%TO.P,R3,2*%
%TO.N,/Channel1/V+*%
X110280000Y-90550000D03*
%TD*%
%TO.P,R4,1*%
%TO.N,/Channel1/buffer/in-*%
X111235000Y-91650000D03*
%TO.P,R4,2*%
%TO.N,/Channel1/V-*%
X110265000Y-91650000D03*
%TD*%
D23*
%TO.P,L1,1*%
%TO.N,VD*%
X122660000Y-98450000D03*
%TO.P,L1,2*%
%TO.N,+3V3*%
X120610000Y-98450000D03*
%TD*%
D24*
%TO.P,C1,1*%
%TO.N,GND*%
X112650000Y-89565000D03*
%TO.P,C1,2*%
%TO.N,/Channel1/buffer/in+*%
X112650000Y-90535000D03*
%TD*%
%TO.P,C2,1*%
%TO.N,/Channel1/buffer/in-*%
X112650000Y-91650000D03*
%TO.P,C2,2*%
%TO.N,GND*%
X112650000Y-92620000D03*
%TD*%
%TO.P,C3,1*%
%TO.N,/Channel1/buffer/in+*%
X114050000Y-90590000D03*
%TO.P,C3,2*%
%TO.N,/Channel1/buffer/in-*%
X114050000Y-91560000D03*
%TD*%
D25*
%TO.P,C4,2*%
%TO.N,GND*%
X125135000Y-88350000D03*
%TO.P,C4,1*%
%TO.N,VD*%
X124165000Y-88350000D03*
%TD*%
D26*
%TO.P,J1,1,Pin_1*%
%TO.N,/Channel1/I+*%
X105250000Y-89050000D03*
%TO.P,J1,2,Pin_2*%
%TO.N,/Channel1/V+*%
X105250000Y-90050000D03*
%TO.P,J1,3,Pin_3*%
%TO.N,/Channel1/V-*%
X105250000Y-91050000D03*
%TO.P,J1,4,Pin_4*%
%TO.N,/Channel1/I-*%
X105250000Y-92050000D03*
D27*
%TO.P,J1,MP*%
%TO.N,N/C*%
X101375000Y-93350000D03*
X101375000Y-87750000D03*
%TD*%
D28*
%TO.P,JP1,1,1*%
%TO.N,/Channel1/I+*%
X107950000Y-88100000D03*
D29*
%TO.P,JP1,2,2*%
%TO.N,/Channel1/V+*%
X107950000Y-89400000D03*
%TD*%
D28*
%TO.P,JP2,1,1*%
%TO.N,/Channel1/V-*%
X107950000Y-91600000D03*
D29*
%TO.P,JP2,2,2*%
%TO.N,/Channel1/I-*%
X107950000Y-92900000D03*
%TD*%
D30*
%TO.P,R1,1*%
%TO.N,VD*%
X132050000Y-97375000D03*
%TO.P,R1,2*%
%TO.N,/sda-tx*%
X132050000Y-95625000D03*
%TD*%
%TO.P,R2,1*%
%TO.N,VD*%
X130400000Y-97375000D03*
%TO.P,R2,2*%
%TO.N,/scl-rx*%
X130400000Y-95625000D03*
%TD*%
D31*
%TO.P,J2,1,gnd*%
%TO.N,GND*%
X133750000Y-92000000D03*
%TO.P,J2,2,VCC*%
%TO.N,VD*%
X133750000Y-91000000D03*
%TO.P,J2,3,SDA*%
%TO.N,/sda-tx*%
X133750000Y-90000000D03*
%TO.P,J2,4,SCL*%
%TO.N,/scl-rx*%
X133750000Y-89000000D03*
D32*
%TO.P,J2,MP*%
%TO.N,N/C*%
X137625000Y-87700000D03*
X137625000Y-93300000D03*
%TD*%
D33*
%TO.N,GND*%
X127550000Y-91850000D03*
X127450000Y-94350000D03*
%TO.N,/Channel1/I+*%
X107950000Y-88100000D03*
X106750000Y-83450000D03*
%TO.N,GND*%
X112650000Y-88750000D03*
%TO.N,VD*%
X122950000Y-88450000D03*
X122465000Y-96965000D03*
%TO.N,+3V3*%
X121250000Y-96950000D03*
X121250000Y-87850000D03*
%TO.N,/sda-tx*%
X126350000Y-89950000D03*
X135450000Y-89950000D03*
%TO.N,GND*%
X132050000Y-92200000D03*
X124150000Y-94650000D03*
X112650000Y-93650000D03*
%TO.N,VD*%
X132000000Y-91200000D03*
X135450000Y-91250000D03*
%TD*%
D34*
%TO.N,GND*%
X127150000Y-94650000D02*
X127450000Y-94350000D01*
X124150000Y-94650000D02*
X127150000Y-94650000D01*
D35*
%TO.N,/Channel1/I+*%
X106800000Y-83500000D02*
X106750000Y-83450000D01*
X108987500Y-83500000D02*
X106800000Y-83500000D01*
D34*
%TO.N,GND*%
X112650000Y-89565000D02*
X112650000Y-88750000D01*
X112650000Y-89565000D02*
X114365000Y-87850000D01*
X114365000Y-87850000D02*
X117387500Y-87850000D01*
%TO.N,+3V3*%
X118712500Y-98450000D02*
X118760000Y-98450000D01*
X118760000Y-98450000D02*
X120255000Y-96955000D01*
X120610000Y-98450000D02*
X118712500Y-98450000D01*
%TO.N,GND*%
X124150000Y-93000000D02*
X124150000Y-94650000D01*
X110350000Y-98650000D02*
X109050000Y-98650000D01*
X109050000Y-98650000D02*
X108650000Y-98250000D01*
%TO.N,VD*%
X132050000Y-97375000D02*
X130400000Y-97375000D01*
X122660000Y-98450000D02*
X128950000Y-98450000D01*
X130400000Y-97375000D02*
X130025000Y-97375000D01*
X130025000Y-97375000D02*
X128950000Y-98450000D01*
X122950000Y-88450000D02*
X124065000Y-88450000D01*
X122660000Y-98450000D02*
X122660000Y-97160000D01*
X122660000Y-97160000D02*
X122465000Y-96965000D01*
X124150000Y-90300000D02*
X124150000Y-88365000D01*
D35*
%TO.N,/Channel1/I-*%
X111750000Y-97250000D02*
X108670000Y-97250000D01*
D34*
X107950000Y-92900000D02*
X107950000Y-96530000D01*
X107950000Y-96530000D02*
X108650000Y-97230000D01*
%TO.N,+3V3*%
X119112500Y-87850000D02*
X121250000Y-87850000D01*
X121250000Y-96950000D02*
X121250000Y-97810000D01*
X121250000Y-97810000D02*
X120610000Y-98450000D01*
X119112500Y-87850000D02*
X119112500Y-86592500D01*
X119112500Y-86592500D02*
X118575000Y-86055000D01*
%TO.N,Net-(Q1-Pad1)*%
X108987500Y-85400000D02*
X108062500Y-85400000D01*
X108062500Y-85400000D02*
X107112500Y-84450000D01*
D35*
%TO.N,/Channel1/I+*%
X111037500Y-83750000D02*
X109237500Y-83750000D01*
X109237500Y-83750000D02*
X108987500Y-83500000D01*
D34*
%TO.N,Net-(Q1-Pad1)*%
X111037500Y-85750000D02*
X109337500Y-85750000D01*
X109337500Y-85750000D02*
X108987500Y-85400000D01*
X117174520Y-86225480D02*
X116550000Y-86850000D01*
X118198928Y-84785000D02*
X117174520Y-85809408D01*
X116550000Y-86850000D02*
X111450000Y-86850000D01*
X117174520Y-85809408D02*
X117174520Y-86225480D01*
X111450000Y-86850000D02*
X111037500Y-86437500D01*
X111037500Y-86437500D02*
X111037500Y-85750000D01*
%TO.N,Net-(R8-Pad2)*%
X114537500Y-83750000D02*
X112862500Y-83750000D01*
%TO.N,Net-(R6-Pad2)*%
X114537500Y-85750000D02*
X112862500Y-85750000D01*
%TO.N,Net-(R6-Pad1)*%
X116362500Y-85750000D02*
X116362500Y-83750000D01*
X117867500Y-82245000D02*
X116362500Y-83750000D01*
%TO.N,Net-(Q1-Pad1)*%
X118575000Y-83515000D02*
X121615000Y-83515000D01*
X121615000Y-83515000D02*
X121850000Y-83750000D01*
X118575000Y-84785000D02*
X121815000Y-84785000D01*
X121815000Y-84785000D02*
X121850000Y-84750000D01*
X123525000Y-83515000D02*
X122085000Y-83515000D01*
X122085000Y-83515000D02*
X121850000Y-83750000D01*
X121850000Y-83750000D02*
X121850000Y-84750000D01*
X121850000Y-84750000D02*
X121885000Y-84785000D01*
X121885000Y-84785000D02*
X123525000Y-84785000D01*
%TO.N,/sda-tx*%
X126350000Y-89950000D02*
X125450000Y-89950000D01*
X125450000Y-89950000D02*
X125100000Y-90300000D01*
X133800000Y-89950000D02*
X135450000Y-89950000D01*
%TO.N,/scl-rx*%
X130225010Y-90774990D02*
X130225010Y-93225010D01*
X130000000Y-93000000D02*
X130225010Y-93225010D01*
X130225010Y-93225010D02*
X130225010Y-94224990D01*
X125100000Y-93000000D02*
X130000000Y-93000000D01*
%TO.N,VD*%
X132050000Y-97375000D02*
X135400000Y-94025000D01*
%TO.N,+3V3*%
X120255000Y-96955000D02*
X120255000Y-95125000D01*
D35*
%TO.N,/Channel1/buffer/out-*%
X120380000Y-90300000D02*
X123200000Y-90300000D01*
%TO.N,/Channel1/buffer/out+*%
X118985000Y-95125000D02*
X118985000Y-93815000D01*
X119800000Y-93000000D02*
X123200000Y-93000000D01*
X118985000Y-93815000D02*
X119800000Y-93000000D01*
%TO.N,/Channel1/buffer/out-*%
X118985000Y-90175000D02*
X120255000Y-90175000D01*
%TO.N,/Channel1/buffer/out+*%
X117715000Y-95125000D02*
X118985000Y-95125000D01*
%TO.N,/Channel1/buffer/in-*%
X114050000Y-91560000D02*
X116445000Y-93955000D01*
X116445000Y-93955000D02*
X116445000Y-95125000D01*
%TO.N,/Channel1/buffer/in+*%
X114050000Y-90590000D02*
X114690000Y-90590000D01*
X114690000Y-90590000D02*
X115950000Y-91850000D01*
X115950000Y-91850000D02*
X117150000Y-91850000D01*
X117150000Y-91850000D02*
X117715000Y-91285000D01*
X117715000Y-91285000D02*
X117715000Y-90175000D01*
D34*
%TO.N,/Channel1/V+*%
X107950000Y-89400000D02*
X109130000Y-89400000D01*
X109130000Y-89400000D02*
X110280000Y-90550000D01*
%TO.N,/Channel1/V-*%
X107950000Y-91600000D02*
X110215000Y-91600000D01*
%TO.N,GND*%
X133750000Y-92000000D02*
X132250000Y-92000000D01*
X112650000Y-92620000D02*
X112650000Y-93650000D01*
X132250000Y-92000000D02*
X132050000Y-92200000D01*
X132100000Y-92250000D02*
X132050000Y-92200000D01*
%TO.N,/Channel1/V+*%
X107300000Y-90050000D02*
X107950000Y-89400000D01*
X105250000Y-90050000D02*
X107300000Y-90050000D01*
%TO.N,/Channel1/I-*%
X105250000Y-92050000D02*
X106100000Y-92900000D01*
X106100000Y-92900000D02*
X107950000Y-92900000D01*
%TO.N,/Channel1/I+*%
X107202408Y-88100000D02*
X107950000Y-88100000D01*
X106975000Y-88100000D02*
X107202408Y-88100000D01*
X106025000Y-89050000D02*
X106975000Y-88100000D01*
X105250000Y-89050000D02*
X106025000Y-89050000D01*
%TO.N,/Channel1/V-*%
X107400000Y-91050000D02*
X107950000Y-91600000D01*
X105250000Y-91050000D02*
X107400000Y-91050000D01*
%TO.N,VD*%
X133750000Y-91000000D02*
X132200000Y-91000000D01*
X135400000Y-94025000D02*
X135400000Y-91300000D01*
X132200000Y-91000000D02*
X132000000Y-91200000D01*
X132000000Y-91200000D02*
X133700000Y-91200000D01*
X135400000Y-91300000D02*
X135450000Y-91250000D01*
%TO.N,/Channel1/buffer/in+*%
X111250000Y-90550000D02*
X114010000Y-90550000D01*
%TO.N,/Channel1/buffer/in-*%
X111235000Y-91650000D02*
X113960000Y-91650000D01*
%TO.N,/scl-rx*%
X133750000Y-89000000D02*
X132000000Y-89000000D01*
X130400000Y-94399980D02*
X130400000Y-95625000D01*
X130225010Y-94224990D02*
X130400000Y-94399980D01*
X132000000Y-89000000D02*
X130225010Y-90774990D01*
%TO.N,/sda-tx*%
X133750000Y-90000000D02*
X131725020Y-90000000D01*
X130850010Y-90875010D02*
X131725020Y-90000000D01*
X132050000Y-94249990D02*
X132050000Y-95625000D01*
X130850010Y-90875010D02*
X130850010Y-93050000D01*
X130850010Y-93050000D02*
X132050000Y-94249990D01*
%TD*%
%TA.AperFunction,Conductor*%
%TO.N,GND*%
G36*
X105787985Y-84603991D02*
G01*
X105845353Y-84645816D01*
X105869076Y-84699231D01*
X105869438Y-84703831D01*
X105871232Y-84710007D01*
X105871233Y-84710011D01*
X105913643Y-84855988D01*
X105915855Y-84863601D01*
X105932893Y-84892411D01*
X105996509Y-84999980D01*
X105996511Y-84999983D01*
X106000547Y-85006807D01*
X106118193Y-85124453D01*
X106125017Y-85128489D01*
X106125020Y-85128491D01*
X106187518Y-85165452D01*
X106261399Y-85209145D01*
X106269010Y-85211356D01*
X106269012Y-85211357D01*
X106321231Y-85226528D01*
X106421169Y-85255562D01*
X106427574Y-85256066D01*
X106427579Y-85256067D01*
X106456042Y-85258307D01*
X106456050Y-85258307D01*
X106458498Y-85258500D01*
X106972905Y-85258500D01*
X107041026Y-85278502D01*
X107062001Y-85295405D01*
X107329027Y-85562432D01*
X107558853Y-85792258D01*
X107566387Y-85800537D01*
X107570500Y-85807018D01*
X107620151Y-85853643D01*
X107622993Y-85856398D01*
X107642730Y-85876135D01*
X107645927Y-85878615D01*
X107654947Y-85886318D01*
X107687179Y-85916586D01*
X107694125Y-85920405D01*
X107694128Y-85920407D01*
X107704934Y-85926348D01*
X107721453Y-85937199D01*
X107737459Y-85949614D01*
X107744728Y-85952759D01*
X107744732Y-85952762D01*
X107778037Y-85967174D01*
X107788687Y-85972391D01*
X107827440Y-85993695D01*
X107835115Y-85995666D01*
X107835116Y-85995666D01*
X107847062Y-85998733D01*
X107865767Y-86005137D01*
X107884355Y-86013181D01*
X107892184Y-86014421D01*
X107892187Y-86014422D01*
X107900442Y-86015730D01*
X107969823Y-86051083D01*
X107993193Y-86074453D01*
X108000017Y-86078489D01*
X108000020Y-86078491D01*
X108107589Y-86142107D01*
X108136399Y-86159145D01*
X108144010Y-86161356D01*
X108144012Y-86161357D01*
X108196231Y-86176528D01*
X108296169Y-86205562D01*
X108302574Y-86206066D01*
X108302579Y-86206067D01*
X108331042Y-86208307D01*
X108331050Y-86208307D01*
X108333498Y-86208500D01*
X108850437Y-86208500D01*
X108918558Y-86228502D01*
X108936688Y-86242648D01*
X108962179Y-86266586D01*
X108969125Y-86270405D01*
X108969128Y-86270407D01*
X108979934Y-86276348D01*
X108996453Y-86287199D01*
X109012459Y-86299614D01*
X109019728Y-86302759D01*
X109019732Y-86302762D01*
X109053037Y-86317174D01*
X109063687Y-86322391D01*
X109102440Y-86343695D01*
X109110115Y-86345666D01*
X109110116Y-86345666D01*
X109122062Y-86348733D01*
X109140767Y-86355137D01*
X109159355Y-86363181D01*
X109167178Y-86364420D01*
X109167188Y-86364423D01*
X109203024Y-86370099D01*
X109214644Y-86372505D01*
X109249789Y-86381528D01*
X109257470Y-86383500D01*
X109277724Y-86383500D01*
X109297434Y-86385051D01*
X109317443Y-86388220D01*
X109325335Y-86387474D01*
X109336763Y-86386394D01*
X109361462Y-86384059D01*
X109373319Y-86383500D01*
X110085036Y-86383500D01*
X110153157Y-86403502D01*
X110192179Y-86443196D01*
X110198884Y-86454031D01*
X110204066Y-86459204D01*
X110316816Y-86571758D01*
X110316821Y-86571762D01*
X110321997Y-86576929D01*
X110328227Y-86580769D01*
X110328228Y-86580770D01*
X110350166Y-86594293D01*
X110378580Y-86611807D01*
X110398920Y-86624345D01*
X110448441Y-86681563D01*
X110449270Y-86683478D01*
X110451482Y-86691093D01*
X110455518Y-86697917D01*
X110455520Y-86697922D01*
X110461793Y-86708528D01*
X110470488Y-86726276D01*
X110477948Y-86745117D01*
X110482610Y-86751533D01*
X110482610Y-86751534D01*
X110503936Y-86780887D01*
X110510452Y-86790807D01*
X110532958Y-86828862D01*
X110538564Y-86834469D01*
X110547280Y-86843185D01*
X110560120Y-86858218D01*
X110572028Y-86874607D01*
X110578135Y-86879659D01*
X110606093Y-86902788D01*
X110614874Y-86910778D01*
X110946353Y-87242258D01*
X110953887Y-87250537D01*
X110958000Y-87257018D01*
X110998532Y-87295080D01*
X111007652Y-87303644D01*
X111010494Y-87306399D01*
X111030230Y-87326135D01*
X111033427Y-87328615D01*
X111042447Y-87336318D01*
X111074679Y-87366586D01*
X111081625Y-87370405D01*
X111081628Y-87370407D01*
X111092434Y-87376348D01*
X111108953Y-87387199D01*
X111124959Y-87399614D01*
X111132228Y-87402759D01*
X111132232Y-87402762D01*
X111165537Y-87417174D01*
X111176187Y-87422391D01*
X111214940Y-87443695D01*
X111222615Y-87445666D01*
X111222616Y-87445666D01*
X111234562Y-87448733D01*
X111253267Y-87455137D01*
X111271855Y-87463181D01*
X111279678Y-87464420D01*
X111279688Y-87464423D01*
X111315524Y-87470099D01*
X111327144Y-87472505D01*
X111358959Y-87480673D01*
X111369970Y-87483500D01*
X111390224Y-87483500D01*
X111409934Y-87485051D01*
X111429943Y-87488220D01*
X111437835Y-87487474D01*
X111463467Y-87485051D01*
X111473962Y-87484059D01*
X111485819Y-87483500D01*
X116219964Y-87483500D01*
X116288085Y-87503502D01*
X116334578Y-87557158D01*
X116340860Y-87574002D01*
X116346475Y-87593124D01*
X116347865Y-87594329D01*
X116355548Y-87596000D01*
X117515500Y-87596000D01*
X117583621Y-87616002D01*
X117630114Y-87669658D01*
X117641500Y-87722000D01*
X117641500Y-87978000D01*
X117621498Y-88046121D01*
X117567842Y-88092614D01*
X117515500Y-88104000D01*
X116360115Y-88104000D01*
X116344876Y-88108475D01*
X116343671Y-88109865D01*
X116342000Y-88117548D01*
X116342000Y-88133766D01*
X116342337Y-88140282D01*
X116352075Y-88234132D01*
X116354968Y-88247528D01*
X116405488Y-88398953D01*
X116411653Y-88412115D01*
X116495426Y-88547492D01*
X116504460Y-88558890D01*
X116584911Y-88639202D01*
X116631345Y-88664504D01*
X116629499Y-88667892D01*
X116652011Y-88677203D01*
X116692532Y-88735500D01*
X116699000Y-88775352D01*
X116699000Y-90303000D01*
X116678998Y-90371121D01*
X116625342Y-90417614D01*
X116573000Y-90429000D01*
X115655116Y-90429000D01*
X115639877Y-90433475D01*
X115617612Y-90459170D01*
X115617171Y-90458788D01*
X115610232Y-90471496D01*
X115547919Y-90505520D01*
X115477103Y-90500454D01*
X115432043Y-90471494D01*
X115154315Y-90193766D01*
X115143448Y-90181375D01*
X115129013Y-90162563D01*
X115123987Y-90156013D01*
X115092075Y-90131526D01*
X115092072Y-90131523D01*
X114996876Y-90058476D01*
X114848851Y-89997162D01*
X114840664Y-89996084D01*
X114840663Y-89996084D01*
X114822515Y-89993695D01*
X114729900Y-89981502D01*
X114729902Y-89981502D01*
X114729885Y-89981500D01*
X114729883Y-89981500D01*
X114725475Y-89980920D01*
X114660545Y-89952202D01*
X114652817Y-89945092D01*
X114627763Y-89920038D01*
X114619473Y-89915135D01*
X114598759Y-89902885D01*
X115637000Y-89902885D01*
X115641475Y-89918124D01*
X115642865Y-89919329D01*
X115650548Y-89921000D01*
X116172885Y-89921000D01*
X116188124Y-89916525D01*
X116189329Y-89915135D01*
X116191000Y-89907452D01*
X116191000Y-88713122D01*
X116187027Y-88699591D01*
X116179129Y-88698456D01*
X116039210Y-88739107D01*
X116024779Y-88745352D01*
X115895322Y-88821911D01*
X115882896Y-88831551D01*
X115776551Y-88937896D01*
X115766911Y-88950322D01*
X115690352Y-89079779D01*
X115684107Y-89094210D01*
X115641731Y-89240065D01*
X115639430Y-89252667D01*
X115637193Y-89281084D01*
X115637000Y-89286014D01*
X115637000Y-89902885D01*
X114598759Y-89902885D01*
X114491923Y-89839703D01*
X114485100Y-89835668D01*
X114477489Y-89833457D01*
X114477487Y-89833456D01*
X114413833Y-89814963D01*
X114325937Y-89789427D01*
X114319532Y-89788923D01*
X114319527Y-89788922D01*
X114291203Y-89786693D01*
X114291195Y-89786693D01*
X114288747Y-89786500D01*
X114050145Y-89786500D01*
X113811254Y-89786501D01*
X113774063Y-89789427D01*
X113699209Y-89811174D01*
X113622516Y-89833455D01*
X113622514Y-89833456D01*
X113614900Y-89835668D01*
X113608074Y-89839705D01*
X113607066Y-89840141D01*
X113536604Y-89848837D01*
X113506236Y-89834227D01*
X113504389Y-89838303D01*
X113461799Y-89819000D01*
X113184386Y-89819000D01*
X113120247Y-89801453D01*
X113091929Y-89784706D01*
X113091925Y-89784704D01*
X113085100Y-89780668D01*
X113077489Y-89778457D01*
X113077487Y-89778456D01*
X113024599Y-89763091D01*
X112925937Y-89734427D01*
X112919532Y-89733923D01*
X112919527Y-89733922D01*
X112891203Y-89731693D01*
X112891195Y-89731693D01*
X112888747Y-89731500D01*
X112650145Y-89731500D01*
X112411254Y-89731501D01*
X112374063Y-89734427D01*
X112275983Y-89762922D01*
X112222513Y-89778456D01*
X112222511Y-89778457D01*
X112214900Y-89780668D01*
X112208075Y-89784704D01*
X112208071Y-89784706D01*
X112179753Y-89801453D01*
X112115614Y-89819000D01*
X111843954Y-89819000D01*
X111828229Y-89823617D01*
X111757232Y-89823616D01*
X111728594Y-89811174D01*
X111666927Y-89774705D01*
X111666924Y-89774704D01*
X111660100Y-89770668D01*
X111652489Y-89768457D01*
X111652487Y-89768456D01*
X111601804Y-89753732D01*
X111500937Y-89724427D01*
X111494532Y-89723923D01*
X111494527Y-89723922D01*
X111466203Y-89721693D01*
X111466195Y-89721693D01*
X111463747Y-89721500D01*
X111250130Y-89721500D01*
X111036254Y-89721501D01*
X110999063Y-89724427D01*
X110900983Y-89752922D01*
X110847513Y-89768456D01*
X110847511Y-89768457D01*
X110839900Y-89770668D01*
X110829140Y-89777032D01*
X110760326Y-89794492D01*
X110700861Y-89777032D01*
X110690100Y-89770668D01*
X110682489Y-89768457D01*
X110682487Y-89768456D01*
X110631804Y-89753732D01*
X110530937Y-89724427D01*
X110524532Y-89723923D01*
X110524527Y-89723922D01*
X110496203Y-89721693D01*
X110496195Y-89721693D01*
X110493747Y-89721500D01*
X110399595Y-89721500D01*
X110331474Y-89701498D01*
X110310500Y-89684595D01*
X109919510Y-89293605D01*
X111830891Y-89293605D01*
X111830931Y-89307705D01*
X111838201Y-89311000D01*
X112377885Y-89311000D01*
X112393124Y-89306525D01*
X112394329Y-89305135D01*
X112396000Y-89297452D01*
X112396000Y-89292885D01*
X112904000Y-89292885D01*
X112908475Y-89308124D01*
X112909865Y-89309329D01*
X112917548Y-89311000D01*
X113456048Y-89311000D01*
X113469579Y-89307027D01*
X113470714Y-89299129D01*
X113431082Y-89162713D01*
X113424834Y-89148276D01*
X113348601Y-89019373D01*
X113338952Y-89006935D01*
X113233065Y-88901048D01*
X113220627Y-88891399D01*
X113091724Y-88815166D01*
X113077287Y-88808918D01*
X112932043Y-88766721D01*
X112921365Y-88764771D01*
X112906969Y-88767795D01*
X112904000Y-88779258D01*
X112904000Y-89292885D01*
X112396000Y-89292885D01*
X112396000Y-88781319D01*
X112391656Y-88766524D01*
X112380160Y-88764492D01*
X112367957Y-88766721D01*
X112222713Y-88808918D01*
X112208276Y-88815166D01*
X112079373Y-88891399D01*
X112066935Y-88901048D01*
X111961048Y-89006935D01*
X111951399Y-89019373D01*
X111875166Y-89148276D01*
X111868918Y-89162713D01*
X111830891Y-89293605D01*
X109919510Y-89293605D01*
X109633652Y-89007747D01*
X109626112Y-88999461D01*
X109622000Y-88992982D01*
X109572348Y-88946356D01*
X109569507Y-88943602D01*
X109549770Y-88923865D01*
X109546573Y-88921385D01*
X109537551Y-88913680D01*
X109505321Y-88883414D01*
X109498375Y-88879595D01*
X109498372Y-88879593D01*
X109487566Y-88873652D01*
X109471047Y-88862801D01*
X109461901Y-88855707D01*
X109455041Y-88850386D01*
X109447772Y-88847241D01*
X109447768Y-88847238D01*
X109414463Y-88832826D01*
X109403813Y-88827609D01*
X109365060Y-88806305D01*
X109345437Y-88801267D01*
X109326734Y-88794863D01*
X109315422Y-88789968D01*
X109308145Y-88786819D01*
X109300318Y-88785579D01*
X109296731Y-88784537D01*
X109236897Y-88746322D01*
X109207222Y-88681824D01*
X109207171Y-88645608D01*
X109207285Y-88644820D01*
X109213729Y-88600000D01*
X109213729Y-88109865D01*
X109213731Y-88109222D01*
X109214160Y-88039069D01*
X109214160Y-88039063D01*
X109214187Y-88034583D01*
X109199977Y-87930843D01*
X109195030Y-87894724D01*
X109195029Y-87894720D01*
X109194420Y-87890273D01*
X109155063Y-87752564D01*
X109095586Y-87619602D01*
X109093200Y-87615820D01*
X109093196Y-87615813D01*
X109035535Y-87524427D01*
X109019160Y-87498474D01*
X108924754Y-87387548D01*
X108817403Y-87292740D01*
X108791204Y-87275530D01*
X108699414Y-87215236D01*
X108695666Y-87212774D01*
X108691609Y-87210869D01*
X108691605Y-87210867D01*
X108570076Y-87153809D01*
X108566021Y-87151905D01*
X108561738Y-87150596D01*
X108561734Y-87150594D01*
X108431011Y-87110628D01*
X108426723Y-87109317D01*
X108422300Y-87108628D01*
X108422294Y-87108627D01*
X108362432Y-87099307D01*
X108285205Y-87087283D01*
X108280738Y-87087228D01*
X108280733Y-87087228D01*
X108207169Y-87086329D01*
X108139562Y-87085503D01*
X108135277Y-87086063D01*
X108128240Y-87086271D01*
X107738953Y-87086271D01*
X107738953Y-87086273D01*
X107735986Y-87086682D01*
X107639562Y-87085504D01*
X107635120Y-87086085D01*
X107635117Y-87086085D01*
X107501998Y-87103492D01*
X107501996Y-87103492D01*
X107497548Y-87104074D01*
X107357252Y-87143245D01*
X107226159Y-87200928D01*
X107194049Y-87220915D01*
X107106306Y-87275530D01*
X107106302Y-87275533D01*
X107102504Y-87277897D01*
X107099076Y-87280779D01*
X107099074Y-87280780D01*
X107017202Y-87349600D01*
X106992869Y-87370054D01*
X106983911Y-87380073D01*
X106937749Y-87431701D01*
X106877433Y-87469151D01*
X106876883Y-87469270D01*
X106875111Y-87469326D01*
X106870651Y-87470622D01*
X106870641Y-87470624D01*
X106855659Y-87474977D01*
X106836296Y-87478988D01*
X106816203Y-87481526D01*
X106808836Y-87484443D01*
X106808831Y-87484444D01*
X106775092Y-87497802D01*
X106763865Y-87501646D01*
X106721407Y-87513982D01*
X106714581Y-87518019D01*
X106703972Y-87524293D01*
X106686224Y-87532988D01*
X106667383Y-87540448D01*
X106660967Y-87545110D01*
X106660966Y-87545110D01*
X106631613Y-87566436D01*
X106621693Y-87572952D01*
X106590465Y-87591420D01*
X106590462Y-87591422D01*
X106583638Y-87595458D01*
X106569317Y-87609779D01*
X106554284Y-87622619D01*
X106537893Y-87634528D01*
X106532842Y-87640633D01*
X106532837Y-87640638D01*
X106509701Y-87668604D01*
X106501713Y-87677382D01*
X105974500Y-88204595D01*
X105912188Y-88238621D01*
X105885405Y-88241500D01*
X104558498Y-88241500D01*
X104556050Y-88241693D01*
X104556042Y-88241693D01*
X104527579Y-88243933D01*
X104527574Y-88243934D01*
X104521169Y-88244438D01*
X104462823Y-88261389D01*
X104369012Y-88288643D01*
X104369010Y-88288644D01*
X104361399Y-88290855D01*
X104354572Y-88294892D01*
X104354573Y-88294892D01*
X104225020Y-88371509D01*
X104225017Y-88371511D01*
X104218193Y-88375547D01*
X104100547Y-88493193D01*
X104096511Y-88500017D01*
X104096509Y-88500020D01*
X104049990Y-88578680D01*
X104015855Y-88636399D01*
X104013644Y-88644010D01*
X104013643Y-88644012D01*
X104004316Y-88676116D01*
X103969438Y-88796169D01*
X103968934Y-88802574D01*
X103968933Y-88802579D01*
X103966693Y-88831042D01*
X103966500Y-88833498D01*
X103966500Y-89266502D01*
X103966693Y-89268950D01*
X103966693Y-89268958D01*
X103968266Y-89288935D01*
X103969438Y-89303831D01*
X104015855Y-89463601D01*
X104019890Y-89470424D01*
X104019891Y-89470426D01*
X104029020Y-89485863D01*
X104046478Y-89554679D01*
X104029020Y-89614137D01*
X104019891Y-89629574D01*
X104015855Y-89636399D01*
X103969438Y-89796169D01*
X103968934Y-89802574D01*
X103968933Y-89802579D01*
X103966693Y-89831042D01*
X103966500Y-89833498D01*
X103966500Y-90266502D01*
X103966693Y-90268950D01*
X103966693Y-90268958D01*
X103968749Y-90295073D01*
X103969438Y-90303831D01*
X103991243Y-90378886D01*
X104005803Y-90429000D01*
X104015855Y-90463601D01*
X104019890Y-90470424D01*
X104019891Y-90470426D01*
X104029020Y-90485863D01*
X104046478Y-90554679D01*
X104029020Y-90614137D01*
X104019891Y-90629574D01*
X104015855Y-90636399D01*
X104013644Y-90644010D01*
X104013643Y-90644012D01*
X103999375Y-90693124D01*
X103969438Y-90796169D01*
X103968934Y-90802574D01*
X103968933Y-90802579D01*
X103966693Y-90831042D01*
X103966500Y-90833498D01*
X103966500Y-91266502D01*
X103966693Y-91268950D01*
X103966693Y-91268958D01*
X103967298Y-91276639D01*
X103969438Y-91303831D01*
X103978171Y-91333891D01*
X104000985Y-91412416D01*
X104015855Y-91463601D01*
X104019890Y-91470424D01*
X104019891Y-91470426D01*
X104029020Y-91485863D01*
X104046478Y-91554679D01*
X104029020Y-91614137D01*
X104024428Y-91621902D01*
X104015855Y-91636399D01*
X103969438Y-91796169D01*
X103968934Y-91802574D01*
X103968933Y-91802579D01*
X103966693Y-91831042D01*
X103966500Y-91833498D01*
X103966500Y-92266502D01*
X103966693Y-92268950D01*
X103966693Y-92268958D01*
X103968272Y-92289015D01*
X103969438Y-92303831D01*
X103986717Y-92363307D01*
X104011549Y-92448778D01*
X104015855Y-92463601D01*
X104021874Y-92473778D01*
X104096509Y-92599980D01*
X104096511Y-92599983D01*
X104100547Y-92606807D01*
X104218193Y-92724453D01*
X104225017Y-92728489D01*
X104225020Y-92728491D01*
X104332589Y-92792107D01*
X104361399Y-92809145D01*
X104369010Y-92811356D01*
X104369012Y-92811357D01*
X104414252Y-92824500D01*
X104521169Y-92855562D01*
X104527574Y-92856066D01*
X104527579Y-92856067D01*
X104556042Y-92858307D01*
X104556050Y-92858307D01*
X104558498Y-92858500D01*
X105110406Y-92858500D01*
X105178527Y-92878502D01*
X105199501Y-92895405D01*
X105596343Y-93292247D01*
X105603887Y-93300537D01*
X105608000Y-93307018D01*
X105613777Y-93312443D01*
X105657667Y-93353658D01*
X105660509Y-93356413D01*
X105680231Y-93376135D01*
X105683355Y-93378558D01*
X105683359Y-93378562D01*
X105683424Y-93378612D01*
X105692445Y-93386317D01*
X105724679Y-93416586D01*
X105731627Y-93420405D01*
X105731629Y-93420407D01*
X105742432Y-93426346D01*
X105758959Y-93437202D01*
X105768698Y-93444757D01*
X105768700Y-93444758D01*
X105774960Y-93449614D01*
X105815540Y-93467174D01*
X105826188Y-93472391D01*
X105864940Y-93493695D01*
X105872616Y-93495666D01*
X105872619Y-93495667D01*
X105884562Y-93498733D01*
X105903267Y-93505137D01*
X105921855Y-93513181D01*
X105929678Y-93514420D01*
X105929688Y-93514423D01*
X105965524Y-93520099D01*
X105977144Y-93522505D01*
X106012289Y-93531528D01*
X106019970Y-93533500D01*
X106040224Y-93533500D01*
X106059934Y-93535051D01*
X106079943Y-93538220D01*
X106087835Y-93537474D01*
X106123961Y-93534059D01*
X106135819Y-93533500D01*
X106849287Y-93533500D01*
X106917408Y-93553502D01*
X106946232Y-93579016D01*
X106966592Y-93603540D01*
X107072776Y-93699654D01*
X107076492Y-93702161D01*
X107076494Y-93702162D01*
X107189817Y-93778599D01*
X107189822Y-93778602D01*
X107193536Y-93781107D01*
X107245441Y-93806254D01*
X107298021Y-93853955D01*
X107316500Y-93919645D01*
X107316500Y-96451233D01*
X107315973Y-96462416D01*
X107314298Y-96469909D01*
X107314547Y-96477835D01*
X107314547Y-96477836D01*
X107316438Y-96537986D01*
X107316500Y-96541945D01*
X107316500Y-96569856D01*
X107316997Y-96573790D01*
X107316997Y-96573791D01*
X107317005Y-96573856D01*
X107317938Y-96585693D01*
X107319327Y-96629889D01*
X107324978Y-96649339D01*
X107328987Y-96668700D01*
X107331526Y-96688797D01*
X107334445Y-96696168D01*
X107334445Y-96696170D01*
X107347804Y-96729912D01*
X107351649Y-96741142D01*
X107363982Y-96783593D01*
X107368015Y-96790412D01*
X107368017Y-96790417D01*
X107374293Y-96801028D01*
X107382988Y-96818776D01*
X107390448Y-96837617D01*
X107395110Y-96844033D01*
X107395110Y-96844034D01*
X107416436Y-96873387D01*
X107422952Y-96883307D01*
X107445458Y-96921362D01*
X107459779Y-96935683D01*
X107472619Y-96950716D01*
X107484528Y-96967107D01*
X107518605Y-96995298D01*
X107527384Y-97003288D01*
X107784596Y-97260500D01*
X107818622Y-97322812D01*
X107821501Y-97349595D01*
X107821501Y-97429988D01*
X107824371Y-97466466D01*
X107869731Y-97622596D01*
X107901523Y-97676353D01*
X107918982Y-97745166D01*
X107901522Y-97804630D01*
X107874229Y-97850780D01*
X107867981Y-97865217D01*
X107835039Y-97978605D01*
X107835079Y-97992705D01*
X107842349Y-97996000D01*
X108312458Y-97996000D01*
X108347610Y-98001003D01*
X108357353Y-98003834D01*
X108357360Y-98003835D01*
X108363534Y-98005629D01*
X108369941Y-98006133D01*
X108369945Y-98006134D01*
X108397556Y-98008307D01*
X108397562Y-98008307D01*
X108400011Y-98008500D01*
X108409930Y-98008500D01*
X108778001Y-98008499D01*
X108846120Y-98028501D01*
X108892613Y-98082156D01*
X108904000Y-98134499D01*
X108904000Y-99009566D01*
X108908344Y-99024361D01*
X108920003Y-99026421D01*
X108929977Y-99025637D01*
X108942564Y-99023338D01*
X109084783Y-98982019D01*
X109099215Y-98975773D01*
X109151862Y-98944638D01*
X109220678Y-98927179D01*
X109288009Y-98949696D01*
X109332479Y-99005040D01*
X109342001Y-99053092D01*
X109342001Y-99194669D01*
X109342371Y-99201490D01*
X109347895Y-99252352D01*
X109351521Y-99267603D01*
X109371640Y-99321270D01*
X109376823Y-99392077D01*
X109342903Y-99454446D01*
X109280648Y-99488575D01*
X109253658Y-99491500D01*
X104570222Y-99491500D01*
X104502101Y-99471498D01*
X104455608Y-99417842D01*
X104445504Y-99347568D01*
X104474998Y-99282988D01*
X104499890Y-99261085D01*
X104501601Y-99260091D01*
X104504623Y-99257810D01*
X104504627Y-99257807D01*
X104759221Y-99065607D01*
X104759222Y-99065606D01*
X104762245Y-99063324D01*
X104950968Y-98881395D01*
X104994632Y-98839303D01*
X104994635Y-98839300D01*
X104997363Y-98836670D01*
X105094344Y-98717548D01*
X105201155Y-98586351D01*
X105201158Y-98586347D01*
X105203549Y-98583410D01*
X105205570Y-98580207D01*
X105246163Y-98515871D01*
X107833434Y-98515871D01*
X107867981Y-98634783D01*
X107874230Y-98649222D01*
X107948854Y-98775405D01*
X107958501Y-98787841D01*
X108062159Y-98891499D01*
X108074595Y-98901146D01*
X108200778Y-98975770D01*
X108215217Y-98982019D01*
X108357436Y-99023338D01*
X108370023Y-99025637D01*
X108377943Y-99026260D01*
X108393030Y-99023090D01*
X108396000Y-99011626D01*
X108396000Y-98522115D01*
X108391525Y-98506876D01*
X108390135Y-98505671D01*
X108382452Y-98504000D01*
X107848100Y-98504000D01*
X107834569Y-98507973D01*
X107833434Y-98515871D01*
X105246163Y-98515871D01*
X105375788Y-98310428D01*
X105375790Y-98310425D01*
X105377815Y-98307215D01*
X105394296Y-98272429D01*
X105461754Y-98130040D01*
X105517638Y-98012084D01*
X105519792Y-98005629D01*
X105619790Y-97705897D01*
X105619792Y-97705891D01*
X105620992Y-97702293D01*
X105686381Y-97382329D01*
X105689044Y-97349595D01*
X105708026Y-97116211D01*
X105712856Y-97056826D01*
X105713451Y-97000000D01*
X105712711Y-96987717D01*
X105694026Y-96677793D01*
X105694026Y-96677789D01*
X105693798Y-96674015D01*
X105692828Y-96668700D01*
X105635805Y-96356473D01*
X105635804Y-96356469D01*
X105635125Y-96352751D01*
X105629898Y-96335915D01*
X105562093Y-96117548D01*
X105538282Y-96040863D01*
X105404670Y-95742869D01*
X105236226Y-95463084D01*
X105233899Y-95460100D01*
X105233894Y-95460093D01*
X105037726Y-95208558D01*
X105037724Y-95208556D01*
X105035390Y-95205563D01*
X104805070Y-94974034D01*
X104548603Y-94771852D01*
X104269705Y-94601945D01*
X104266261Y-94600379D01*
X104266257Y-94600377D01*
X104131317Y-94539024D01*
X103972414Y-94466775D01*
X103661037Y-94368300D01*
X103403830Y-94319932D01*
X103343809Y-94308645D01*
X103343807Y-94308645D01*
X103340086Y-94307945D01*
X103014208Y-94286586D01*
X103010428Y-94286794D01*
X103010427Y-94286794D01*
X102778986Y-94299531D01*
X102709869Y-94283302D01*
X102660498Y-94232282D01*
X102646548Y-94162670D01*
X102664802Y-94107605D01*
X102713275Y-94028968D01*
X102713276Y-94028966D01*
X102717115Y-94022738D01*
X102772797Y-93854861D01*
X102773879Y-93844307D01*
X102780374Y-93780913D01*
X102783500Y-93750400D01*
X102783500Y-92949600D01*
X102776888Y-92885871D01*
X102773238Y-92850692D01*
X102773237Y-92850688D01*
X102772526Y-92843834D01*
X102760571Y-92807999D01*
X102718868Y-92683002D01*
X102716550Y-92676054D01*
X102623478Y-92525652D01*
X102571512Y-92473776D01*
X102503483Y-92405866D01*
X102498303Y-92400695D01*
X102483386Y-92391500D01*
X102353968Y-92311725D01*
X102353966Y-92311724D01*
X102347738Y-92307885D01*
X102255925Y-92277432D01*
X102186389Y-92254368D01*
X102186387Y-92254368D01*
X102179861Y-92252203D01*
X102173025Y-92251503D01*
X102173022Y-92251502D01*
X102129969Y-92247091D01*
X102075400Y-92241500D01*
X100674600Y-92241500D01*
X100671359Y-92241836D01*
X100671345Y-92241837D01*
X100647502Y-92244311D01*
X100577681Y-92231445D01*
X100525899Y-92182874D01*
X100508500Y-92118984D01*
X100508500Y-88981051D01*
X100528502Y-88912930D01*
X100582158Y-88866437D01*
X100647343Y-88855707D01*
X100674600Y-88858500D01*
X102075400Y-88858500D01*
X102078646Y-88858163D01*
X102078650Y-88858163D01*
X102174308Y-88848238D01*
X102174312Y-88848237D01*
X102181166Y-88847526D01*
X102187702Y-88845345D01*
X102187704Y-88845345D01*
X102328120Y-88798498D01*
X102348946Y-88791550D01*
X102499348Y-88698478D01*
X102624305Y-88573303D01*
X102634055Y-88557486D01*
X102713275Y-88428968D01*
X102713276Y-88428966D01*
X102717115Y-88422738D01*
X102752564Y-88315862D01*
X102770632Y-88261389D01*
X102770632Y-88261387D01*
X102772797Y-88254861D01*
X102773549Y-88247528D01*
X102783172Y-88153598D01*
X102783500Y-88150400D01*
X102783500Y-87349600D01*
X102781799Y-87333207D01*
X102773238Y-87250692D01*
X102773237Y-87250688D01*
X102772526Y-87243834D01*
X102763213Y-87215918D01*
X102718868Y-87083002D01*
X102716550Y-87076054D01*
X102623478Y-86925652D01*
X102618297Y-86920480D01*
X102618293Y-86920475D01*
X102606535Y-86908738D01*
X102572454Y-86846456D01*
X102577456Y-86775636D01*
X102619953Y-86718763D01*
X102686451Y-86693893D01*
X102705108Y-86693927D01*
X102953602Y-86712829D01*
X102953607Y-86712829D01*
X102957379Y-86713116D01*
X103283633Y-86698586D01*
X103289844Y-86697552D01*
X103602037Y-86645590D01*
X103602042Y-86645589D01*
X103605778Y-86644967D01*
X103919149Y-86553034D01*
X103922616Y-86551544D01*
X103922620Y-86551543D01*
X104215721Y-86425616D01*
X104215723Y-86425615D01*
X104219205Y-86424119D01*
X104501601Y-86260091D01*
X104762245Y-86063324D01*
X104959333Y-85873331D01*
X104994632Y-85839303D01*
X104994635Y-85839300D01*
X104997363Y-85836670D01*
X105161896Y-85634573D01*
X105201155Y-85586351D01*
X105201158Y-85586347D01*
X105203549Y-85583410D01*
X105257928Y-85497225D01*
X105375788Y-85310428D01*
X105375790Y-85310425D01*
X105377815Y-85307215D01*
X105402287Y-85255562D01*
X105508704Y-85030941D01*
X105517638Y-85012084D01*
X105520349Y-85003958D01*
X105619790Y-84705897D01*
X105619792Y-84705891D01*
X105620992Y-84702293D01*
X105621999Y-84697365D01*
X105622153Y-84697074D01*
X105622731Y-84694917D01*
X105623226Y-84695050D01*
X105655233Y-84634630D01*
X105717111Y-84599821D01*
X105787985Y-84603991D01*
G37*
%TD.AperFunction*%
%TA.AperFunction,Conductor*%
G36*
X109616706Y-92253502D02*
G01*
X109637680Y-92270405D01*
X109712237Y-92344962D01*
X109719057Y-92348996D01*
X109719058Y-92348996D01*
X109839494Y-92420221D01*
X109854900Y-92429332D01*
X109862511Y-92431543D01*
X109862513Y-92431544D01*
X109910176Y-92445391D01*
X110014063Y-92475573D01*
X110020468Y-92476077D01*
X110020473Y-92476078D01*
X110048797Y-92478307D01*
X110048805Y-92478307D01*
X110051253Y-92478500D01*
X110264870Y-92478500D01*
X110478746Y-92478499D01*
X110515937Y-92475573D01*
X110619824Y-92445391D01*
X110667487Y-92431544D01*
X110667489Y-92431543D01*
X110675100Y-92429332D01*
X110685860Y-92422968D01*
X110754674Y-92405508D01*
X110814139Y-92422968D01*
X110824900Y-92429332D01*
X110832511Y-92431543D01*
X110832513Y-92431544D01*
X110880176Y-92445391D01*
X110984063Y-92475573D01*
X110990468Y-92476077D01*
X110990473Y-92476078D01*
X111018797Y-92478307D01*
X111018805Y-92478307D01*
X111021253Y-92478500D01*
X111234870Y-92478500D01*
X111448746Y-92478499D01*
X111485937Y-92475573D01*
X111589824Y-92445391D01*
X111637487Y-92431544D01*
X111637489Y-92431543D01*
X111645100Y-92429332D01*
X111651924Y-92425296D01*
X111651927Y-92425295D01*
X111733074Y-92377306D01*
X111801890Y-92359847D01*
X111827063Y-92365776D01*
X111830254Y-92366000D01*
X112115614Y-92366000D01*
X112179753Y-92383547D01*
X112208071Y-92400294D01*
X112208075Y-92400296D01*
X112214900Y-92404332D01*
X112222511Y-92406543D01*
X112222513Y-92406544D01*
X112269590Y-92420221D01*
X112374063Y-92450573D01*
X112380468Y-92451077D01*
X112380473Y-92451078D01*
X112408797Y-92453307D01*
X112408805Y-92453307D01*
X112411253Y-92453500D01*
X112649855Y-92453500D01*
X112888746Y-92453499D01*
X112925937Y-92450573D01*
X113030410Y-92420221D01*
X113077487Y-92406544D01*
X113077489Y-92406543D01*
X113085100Y-92404332D01*
X113091925Y-92400296D01*
X113091929Y-92400294D01*
X113120247Y-92383547D01*
X113184386Y-92366000D01*
X113456048Y-92366000D01*
X113471287Y-92361525D01*
X113480384Y-92351027D01*
X113540109Y-92312642D01*
X113611106Y-92312641D01*
X113613512Y-92313511D01*
X113614900Y-92314332D01*
X113774063Y-92360573D01*
X113780468Y-92361077D01*
X113780473Y-92361078D01*
X113808797Y-92363307D01*
X113808805Y-92363307D01*
X113811253Y-92363500D01*
X113940761Y-92363500D01*
X114008882Y-92383502D01*
X114029856Y-92400405D01*
X115628660Y-93999209D01*
X115662686Y-94061521D01*
X115660562Y-94123455D01*
X115646081Y-94173303D01*
X115639438Y-94196169D01*
X115638933Y-94202579D01*
X115638933Y-94202582D01*
X115636710Y-94230833D01*
X115636500Y-94233498D01*
X115636500Y-96016502D01*
X115636693Y-96018950D01*
X115636693Y-96018958D01*
X115638702Y-96044477D01*
X115639438Y-96053831D01*
X115663641Y-96137140D01*
X115673790Y-96172071D01*
X115685855Y-96213601D01*
X115694854Y-96228818D01*
X115766509Y-96349980D01*
X115766511Y-96349983D01*
X115770547Y-96356807D01*
X115888193Y-96474453D01*
X115895017Y-96478489D01*
X115895020Y-96478491D01*
X115992687Y-96536251D01*
X116031399Y-96559145D01*
X116039010Y-96561356D01*
X116039012Y-96561357D01*
X116068267Y-96569856D01*
X116191169Y-96605562D01*
X116197574Y-96606066D01*
X116197579Y-96606067D01*
X116226042Y-96608307D01*
X116226050Y-96608307D01*
X116228498Y-96608500D01*
X116661502Y-96608500D01*
X116663950Y-96608307D01*
X116663958Y-96608307D01*
X116692421Y-96606067D01*
X116692426Y-96606066D01*
X116698831Y-96605562D01*
X116821733Y-96569856D01*
X116850988Y-96561357D01*
X116850990Y-96561356D01*
X116858601Y-96559145D01*
X117001807Y-96474453D01*
X117004489Y-96471771D01*
X117068861Y-96446498D01*
X117138484Y-96460400D01*
X117154312Y-96470572D01*
X117158193Y-96474453D01*
X117301399Y-96559145D01*
X117309010Y-96561356D01*
X117309012Y-96561357D01*
X117338267Y-96569856D01*
X117461169Y-96605562D01*
X117467574Y-96606066D01*
X117467579Y-96606067D01*
X117496042Y-96608307D01*
X117496050Y-96608307D01*
X117498498Y-96608500D01*
X117931502Y-96608500D01*
X117933950Y-96608307D01*
X117933958Y-96608307D01*
X117962421Y-96606067D01*
X117962426Y-96606066D01*
X117968831Y-96605562D01*
X118091733Y-96569856D01*
X118120988Y-96561357D01*
X118120990Y-96561356D01*
X118128601Y-96559145D01*
X118271807Y-96474453D01*
X118274489Y-96471771D01*
X118338861Y-96446498D01*
X118408484Y-96460400D01*
X118424312Y-96470572D01*
X118428193Y-96474453D01*
X118571399Y-96559145D01*
X118579010Y-96561356D01*
X118579012Y-96561357D01*
X118608267Y-96569856D01*
X118731169Y-96605562D01*
X118737574Y-96606066D01*
X118737579Y-96606067D01*
X118766042Y-96608307D01*
X118766050Y-96608307D01*
X118768498Y-96608500D01*
X119201502Y-96608500D01*
X119203950Y-96608307D01*
X119203958Y-96608307D01*
X119232421Y-96606067D01*
X119232426Y-96606066D01*
X119238831Y-96605562D01*
X119361733Y-96569856D01*
X119390988Y-96561357D01*
X119390990Y-96561356D01*
X119398601Y-96559145D01*
X119412227Y-96551086D01*
X119481041Y-96533627D01*
X119548372Y-96556143D01*
X119592842Y-96611487D01*
X119600331Y-96682087D01*
X119565460Y-96748635D01*
X118884500Y-97429595D01*
X118822188Y-97463621D01*
X118795405Y-97466500D01*
X118362928Y-97466500D01*
X118359682Y-97466837D01*
X118359678Y-97466837D01*
X118265765Y-97476581D01*
X118265761Y-97476582D01*
X118258907Y-97477293D01*
X118252371Y-97479474D01*
X118252369Y-97479474D01*
X118129463Y-97520479D01*
X118093893Y-97532346D01*
X117945969Y-97623884D01*
X117940797Y-97629065D01*
X117938727Y-97631139D01*
X117936962Y-97632105D01*
X117935059Y-97633613D01*
X117934801Y-97633287D01*
X117876446Y-97665219D01*
X117805625Y-97660218D01*
X117760530Y-97631292D01*
X117757869Y-97628636D01*
X117746460Y-97619625D01*
X117610937Y-97536088D01*
X117597759Y-97529944D01*
X117446234Y-97479685D01*
X117432868Y-97476819D01*
X117340230Y-97467328D01*
X117333815Y-97467000D01*
X117259615Y-97467000D01*
X117244376Y-97471475D01*
X117243171Y-97472865D01*
X117241500Y-97480548D01*
X117241500Y-98578000D01*
X117221498Y-98646121D01*
X117167842Y-98692614D01*
X117115500Y-98704000D01*
X115960115Y-98704000D01*
X115944876Y-98708475D01*
X115943671Y-98709865D01*
X115942000Y-98717548D01*
X115942000Y-98733766D01*
X115942337Y-98740282D01*
X115952075Y-98834132D01*
X115954968Y-98847528D01*
X116005488Y-98998953D01*
X116011653Y-99012115D01*
X116095426Y-99147492D01*
X116104460Y-99158890D01*
X116222102Y-99276327D01*
X116256181Y-99338609D01*
X116251178Y-99409430D01*
X116208681Y-99466302D01*
X116142182Y-99491171D01*
X116133084Y-99491500D01*
X114246342Y-99491500D01*
X114178221Y-99471498D01*
X114131728Y-99417842D01*
X114121624Y-99347568D01*
X114128360Y-99321270D01*
X114148478Y-99267605D01*
X114152105Y-99252351D01*
X114157631Y-99201486D01*
X114158000Y-99194672D01*
X114158000Y-98922115D01*
X114153525Y-98906876D01*
X114152135Y-98905671D01*
X114144452Y-98904000D01*
X112160116Y-98904000D01*
X112144877Y-98908475D01*
X112143672Y-98909865D01*
X112142001Y-98917548D01*
X112142001Y-99194669D01*
X112142371Y-99201490D01*
X112147895Y-99252352D01*
X112151521Y-99267603D01*
X112171640Y-99321270D01*
X112176823Y-99392077D01*
X112142903Y-99454446D01*
X112080648Y-99488575D01*
X112053658Y-99491500D01*
X111446342Y-99491500D01*
X111378221Y-99471498D01*
X111331728Y-99417842D01*
X111321624Y-99347568D01*
X111328360Y-99321270D01*
X111348478Y-99267605D01*
X111352105Y-99252351D01*
X111357631Y-99201486D01*
X111358000Y-99194672D01*
X111358000Y-98922115D01*
X111353525Y-98906876D01*
X111352135Y-98905671D01*
X111344452Y-98904000D01*
X110222000Y-98904000D01*
X110153879Y-98883998D01*
X110107386Y-98830342D01*
X110096000Y-98778000D01*
X110096000Y-98522000D01*
X110116002Y-98453879D01*
X110169658Y-98407386D01*
X110222000Y-98396000D01*
X111339884Y-98396000D01*
X111355123Y-98391525D01*
X111356328Y-98390135D01*
X111357999Y-98382452D01*
X111357999Y-98356500D01*
X111378001Y-98288379D01*
X111431657Y-98241886D01*
X111501931Y-98231782D01*
X111522935Y-98236667D01*
X111532392Y-98239740D01*
X111728777Y-98263158D01*
X111734912Y-98262686D01*
X111734914Y-98262686D01*
X111919830Y-98248457D01*
X111919834Y-98248456D01*
X111925972Y-98247984D01*
X111933315Y-98245934D01*
X111937796Y-98244683D01*
X111982117Y-98232308D01*
X112053106Y-98233254D01*
X112112315Y-98272429D01*
X112140945Y-98337397D01*
X112142000Y-98353666D01*
X112142000Y-98377885D01*
X112146475Y-98393124D01*
X112147865Y-98394329D01*
X112155548Y-98396000D01*
X112877885Y-98396000D01*
X112893124Y-98391525D01*
X112894329Y-98390135D01*
X112896000Y-98382452D01*
X112896000Y-98377885D01*
X113404000Y-98377885D01*
X113408475Y-98393124D01*
X113409865Y-98394329D01*
X113417548Y-98396000D01*
X114139884Y-98396000D01*
X114155123Y-98391525D01*
X114156328Y-98390135D01*
X114157999Y-98382452D01*
X114157999Y-98177885D01*
X115942000Y-98177885D01*
X115946475Y-98193124D01*
X115947865Y-98194329D01*
X115955548Y-98196000D01*
X116715385Y-98196000D01*
X116730624Y-98191525D01*
X116731829Y-98190135D01*
X116733500Y-98182452D01*
X116733500Y-97485115D01*
X116729025Y-97469876D01*
X116727635Y-97468671D01*
X116719952Y-97467000D01*
X116641234Y-97467000D01*
X116634718Y-97467337D01*
X116540868Y-97477075D01*
X116527472Y-97479968D01*
X116376047Y-97530488D01*
X116362885Y-97536653D01*
X116227508Y-97620426D01*
X116216110Y-97629460D01*
X116103637Y-97742129D01*
X116094625Y-97753540D01*
X116011088Y-97889063D01*
X116004944Y-97902241D01*
X115954685Y-98053766D01*
X115951819Y-98067132D01*
X115942328Y-98159770D01*
X115942000Y-98166185D01*
X115942000Y-98177885D01*
X114157999Y-98177885D01*
X114157999Y-98105331D01*
X114157629Y-98098510D01*
X114152105Y-98047648D01*
X114148479Y-98032396D01*
X114103324Y-97911946D01*
X114094786Y-97896351D01*
X114018285Y-97794276D01*
X114005724Y-97781715D01*
X113903649Y-97705214D01*
X113888054Y-97696676D01*
X113767606Y-97651522D01*
X113752351Y-97647895D01*
X113701486Y-97642369D01*
X113694672Y-97642000D01*
X113422115Y-97642000D01*
X113406876Y-97646475D01*
X113405671Y-97647865D01*
X113404000Y-97655548D01*
X113404000Y-98377885D01*
X112896000Y-98377885D01*
X112896000Y-97660116D01*
X112891525Y-97644877D01*
X112890135Y-97643672D01*
X112882452Y-97642001D01*
X112857184Y-97642001D01*
X112789063Y-97621999D01*
X112742570Y-97568343D01*
X112732466Y-97498069D01*
X112735213Y-97486444D01*
X112734886Y-97486370D01*
X112736250Y-97480366D01*
X112738197Y-97474513D01*
X112762985Y-97278295D01*
X112763380Y-97250000D01*
X112744080Y-97053167D01*
X112734192Y-97020416D01*
X112733651Y-96949425D01*
X112771577Y-96889408D01*
X112835931Y-96859423D01*
X112854814Y-96858000D01*
X112877885Y-96858000D01*
X112893124Y-96853525D01*
X112894329Y-96852135D01*
X112896000Y-96844452D01*
X112896000Y-96839884D01*
X113404000Y-96839884D01*
X113408475Y-96855123D01*
X113409865Y-96856328D01*
X113417548Y-96857999D01*
X113694669Y-96857999D01*
X113701490Y-96857629D01*
X113752352Y-96852105D01*
X113767604Y-96848479D01*
X113888054Y-96803324D01*
X113903649Y-96794786D01*
X114005724Y-96718285D01*
X114018285Y-96705724D01*
X114094786Y-96603649D01*
X114103324Y-96588054D01*
X114148478Y-96467606D01*
X114152105Y-96452351D01*
X114157631Y-96401486D01*
X114158000Y-96394672D01*
X114158000Y-96122115D01*
X114153525Y-96106876D01*
X114152135Y-96105671D01*
X114144452Y-96104000D01*
X113422115Y-96104000D01*
X113406876Y-96108475D01*
X113405671Y-96109865D01*
X113404000Y-96117548D01*
X113404000Y-96839884D01*
X112896000Y-96839884D01*
X112896000Y-96122115D01*
X112891525Y-96106876D01*
X112890135Y-96105671D01*
X112882452Y-96104000D01*
X112160116Y-96104000D01*
X112144877Y-96108475D01*
X112143672Y-96109865D01*
X112142001Y-96117548D01*
X112142001Y-96144684D01*
X112121999Y-96212805D01*
X112068343Y-96259298D01*
X111998069Y-96269402D01*
X111978749Y-96265051D01*
X111953768Y-96257318D01*
X111947643Y-96256674D01*
X111947642Y-96256674D01*
X111763204Y-96237289D01*
X111763202Y-96237289D01*
X111757075Y-96236645D01*
X111696168Y-96242188D01*
X111566251Y-96254011D01*
X111566248Y-96254012D01*
X111560112Y-96254570D01*
X111554197Y-96256311D01*
X111554196Y-96256311D01*
X111519576Y-96266500D01*
X111448579Y-96266546D01*
X111388829Y-96228201D01*
X111359294Y-96163639D01*
X111358000Y-96145627D01*
X111358000Y-96122115D01*
X111353525Y-96106876D01*
X111352135Y-96105671D01*
X111344452Y-96104000D01*
X109360116Y-96104000D01*
X109344877Y-96108475D01*
X109343672Y-96109865D01*
X109342001Y-96117548D01*
X109342001Y-96394669D01*
X109342371Y-96401493D01*
X109343750Y-96414193D01*
X109331220Y-96484075D01*
X109282898Y-96536089D01*
X109214126Y-96553722D01*
X109154348Y-96536251D01*
X109099419Y-96503766D01*
X109099418Y-96503766D01*
X109092596Y-96499731D01*
X109084985Y-96497520D01*
X109084983Y-96497519D01*
X108982021Y-96467606D01*
X108936466Y-96454371D01*
X108930059Y-96453867D01*
X108930055Y-96453866D01*
X108902444Y-96451693D01*
X108902438Y-96451693D01*
X108899989Y-96451500D01*
X108819595Y-96451500D01*
X108751474Y-96431498D01*
X108730500Y-96414595D01*
X108620405Y-96304500D01*
X108586379Y-96242188D01*
X108583500Y-96215405D01*
X108583500Y-95577885D01*
X109342000Y-95577885D01*
X109346475Y-95593124D01*
X109347865Y-95594329D01*
X109355548Y-95596000D01*
X110077885Y-95596000D01*
X110093124Y-95591525D01*
X110094329Y-95590135D01*
X110096000Y-95582452D01*
X110096000Y-95577885D01*
X110604000Y-95577885D01*
X110608475Y-95593124D01*
X110609865Y-95594329D01*
X110617548Y-95596000D01*
X111339884Y-95596000D01*
X111355123Y-95591525D01*
X111356328Y-95590135D01*
X111357999Y-95582452D01*
X111357999Y-95577885D01*
X112142000Y-95577885D01*
X112146475Y-95593124D01*
X112147865Y-95594329D01*
X112155548Y-95596000D01*
X112877885Y-95596000D01*
X112893124Y-95591525D01*
X112894329Y-95590135D01*
X112896000Y-95582452D01*
X112896000Y-95577885D01*
X113404000Y-95577885D01*
X113408475Y-95593124D01*
X113409865Y-95594329D01*
X113417548Y-95596000D01*
X114139884Y-95596000D01*
X114155123Y-95591525D01*
X114156328Y-95590135D01*
X114157999Y-95582452D01*
X114157999Y-95305331D01*
X114157629Y-95298510D01*
X114152105Y-95247648D01*
X114148479Y-95232396D01*
X114103324Y-95111946D01*
X114094786Y-95096351D01*
X114018285Y-94994276D01*
X114005724Y-94981715D01*
X113903649Y-94905214D01*
X113888054Y-94896676D01*
X113767606Y-94851522D01*
X113752351Y-94847895D01*
X113701486Y-94842369D01*
X113694672Y-94842000D01*
X113422115Y-94842000D01*
X113406876Y-94846475D01*
X113405671Y-94847865D01*
X113404000Y-94855548D01*
X113404000Y-95577885D01*
X112896000Y-95577885D01*
X112896000Y-94860116D01*
X112891525Y-94844877D01*
X112890135Y-94843672D01*
X112882452Y-94842001D01*
X112605331Y-94842001D01*
X112598510Y-94842371D01*
X112547648Y-94847895D01*
X112532396Y-94851521D01*
X112411946Y-94896676D01*
X112396351Y-94905214D01*
X112294276Y-94981715D01*
X112281715Y-94994276D01*
X112205214Y-95096351D01*
X112196676Y-95111946D01*
X112151522Y-95232394D01*
X112147895Y-95247649D01*
X112142369Y-95298514D01*
X112142000Y-95305328D01*
X112142000Y-95577885D01*
X111357999Y-95577885D01*
X111357999Y-95305331D01*
X111357629Y-95298510D01*
X111352105Y-95247648D01*
X111348479Y-95232396D01*
X111303324Y-95111946D01*
X111294786Y-95096351D01*
X111218285Y-94994276D01*
X111205724Y-94981715D01*
X111103649Y-94905214D01*
X111088054Y-94896676D01*
X110967606Y-94851522D01*
X110952351Y-94847895D01*
X110901486Y-94842369D01*
X110894672Y-94842000D01*
X110622115Y-94842000D01*
X110606876Y-94846475D01*
X110605671Y-94847865D01*
X110604000Y-94855548D01*
X110604000Y-95577885D01*
X110096000Y-95577885D01*
X110096000Y-94860116D01*
X110091525Y-94844877D01*
X110090135Y-94843672D01*
X110082452Y-94842001D01*
X109805331Y-94842001D01*
X109798510Y-94842371D01*
X109747648Y-94847895D01*
X109732396Y-94851521D01*
X109611946Y-94896676D01*
X109596351Y-94905214D01*
X109494276Y-94981715D01*
X109481715Y-94994276D01*
X109405214Y-95096351D01*
X109396676Y-95111946D01*
X109351522Y-95232394D01*
X109347895Y-95247649D01*
X109342369Y-95298514D01*
X109342000Y-95305328D01*
X109342000Y-95577885D01*
X108583500Y-95577885D01*
X108583500Y-93920394D01*
X108603502Y-93852273D01*
X108657348Y-93805694D01*
X108680710Y-93795072D01*
X108680714Y-93795070D01*
X108684789Y-93793217D01*
X108807497Y-93714742D01*
X108915998Y-93621252D01*
X109011750Y-93511489D01*
X109018194Y-93501548D01*
X109075636Y-93412925D01*
X109089650Y-93391304D01*
X109096684Y-93376082D01*
X109148868Y-93263145D01*
X109148869Y-93263143D01*
X109150748Y-93259076D01*
X109191784Y-93121858D01*
X109213312Y-92977804D01*
X109213874Y-92885871D01*
X111829286Y-92885871D01*
X111868918Y-93022287D01*
X111875166Y-93036724D01*
X111951399Y-93165627D01*
X111961048Y-93178065D01*
X112066935Y-93283952D01*
X112079373Y-93293601D01*
X112208276Y-93369834D01*
X112222713Y-93376082D01*
X112367957Y-93418279D01*
X112378635Y-93420229D01*
X112393031Y-93417205D01*
X112396000Y-93405742D01*
X112396000Y-93403681D01*
X112904000Y-93403681D01*
X112908344Y-93418476D01*
X112919840Y-93420508D01*
X112932043Y-93418279D01*
X113077287Y-93376082D01*
X113091724Y-93369834D01*
X113220627Y-93293601D01*
X113233065Y-93283952D01*
X113338952Y-93178065D01*
X113348601Y-93165627D01*
X113424834Y-93036724D01*
X113431082Y-93022287D01*
X113469109Y-92891395D01*
X113469069Y-92877295D01*
X113461799Y-92874000D01*
X112922115Y-92874000D01*
X112906876Y-92878475D01*
X112905671Y-92879865D01*
X112904000Y-92887548D01*
X112904000Y-93403681D01*
X112396000Y-93403681D01*
X112396000Y-92892115D01*
X112391525Y-92876876D01*
X112390135Y-92875671D01*
X112382452Y-92874000D01*
X111843952Y-92874000D01*
X111830421Y-92877973D01*
X111829286Y-92885871D01*
X109213874Y-92885871D01*
X109214089Y-92850692D01*
X109214160Y-92839055D01*
X109214160Y-92839050D01*
X109214187Y-92834583D01*
X109213852Y-92832139D01*
X109213729Y-92828344D01*
X109213729Y-92400000D01*
X109211475Y-92368489D01*
X109226566Y-92299116D01*
X109276768Y-92248913D01*
X109337154Y-92233500D01*
X109548585Y-92233500D01*
X109616706Y-92253502D01*
G37*
%TD.AperFunction*%
%TA.AperFunction,Conductor*%
G36*
X122308621Y-93628502D02*
G01*
X122355114Y-93682158D01*
X122366500Y-93734500D01*
X122366500Y-93828134D01*
X122373255Y-93890316D01*
X122424385Y-94026705D01*
X122511739Y-94143261D01*
X122628295Y-94230615D01*
X122764684Y-94281745D01*
X122826866Y-94288500D01*
X123573134Y-94288500D01*
X123635316Y-94281745D01*
X123642716Y-94278971D01*
X123646942Y-94277966D01*
X123705239Y-94277966D01*
X123722646Y-94282105D01*
X123773514Y-94287631D01*
X123780328Y-94288000D01*
X123877885Y-94288000D01*
X123893124Y-94283525D01*
X123894329Y-94282135D01*
X123896000Y-94274452D01*
X123896000Y-94174910D01*
X123916002Y-94106789D01*
X123921174Y-94099345D01*
X123932808Y-94083822D01*
X123975615Y-94026705D01*
X124026745Y-93890316D01*
X124027539Y-93883010D01*
X124062635Y-93821576D01*
X124125590Y-93788756D01*
X124196295Y-93795182D01*
X124252302Y-93838814D01*
X124272454Y-93882940D01*
X124273255Y-93890316D01*
X124324385Y-94026705D01*
X124367192Y-94083822D01*
X124378826Y-94099345D01*
X124403674Y-94165851D01*
X124404000Y-94174910D01*
X124404000Y-94269884D01*
X124408475Y-94285123D01*
X124409865Y-94286328D01*
X124417548Y-94287999D01*
X124519669Y-94287999D01*
X124526490Y-94287629D01*
X124577349Y-94282105D01*
X124594764Y-94277965D01*
X124653058Y-94277966D01*
X124657284Y-94278971D01*
X124664684Y-94281745D01*
X124726866Y-94288500D01*
X125473134Y-94288500D01*
X125535316Y-94281745D01*
X125671705Y-94230615D01*
X125788261Y-94143261D01*
X125875615Y-94026705D01*
X125926745Y-93890316D01*
X125933500Y-93828134D01*
X125933500Y-93759500D01*
X125953502Y-93691379D01*
X126007158Y-93644886D01*
X126059500Y-93633500D01*
X129465510Y-93633500D01*
X129533631Y-93653502D01*
X129580124Y-93707158D01*
X129591510Y-93759500D01*
X129591510Y-94146223D01*
X129590983Y-94157406D01*
X129589308Y-94164899D01*
X129589557Y-94172825D01*
X129589557Y-94172826D01*
X129591448Y-94232976D01*
X129591510Y-94236935D01*
X129591510Y-94264846D01*
X129592007Y-94268780D01*
X129592007Y-94268781D01*
X129592015Y-94268846D01*
X129592948Y-94280683D01*
X129594337Y-94324879D01*
X129599988Y-94344329D01*
X129603997Y-94363690D01*
X129606536Y-94383787D01*
X129609455Y-94391158D01*
X129609455Y-94391160D01*
X129622814Y-94424902D01*
X129626659Y-94436132D01*
X129636018Y-94468345D01*
X129638992Y-94478583D01*
X129643025Y-94485402D01*
X129643027Y-94485407D01*
X129649303Y-94496018D01*
X129657998Y-94513766D01*
X129665458Y-94532607D01*
X129670120Y-94539023D01*
X129670120Y-94539024D01*
X129691446Y-94568377D01*
X129697962Y-94578297D01*
X129710866Y-94600116D01*
X129728326Y-94668932D01*
X129705810Y-94736263D01*
X129691587Y-94753273D01*
X129600144Y-94844877D01*
X129573071Y-94871997D01*
X129569231Y-94878227D01*
X129569230Y-94878228D01*
X129486364Y-95012662D01*
X129481791Y-95020080D01*
X129427026Y-95185191D01*
X129416500Y-95287928D01*
X129416500Y-95962072D01*
X129416837Y-95965318D01*
X129416837Y-95965322D01*
X129426021Y-96053831D01*
X129427293Y-96066093D01*
X129429474Y-96072629D01*
X129429474Y-96072631D01*
X129462920Y-96172881D01*
X129482346Y-96231107D01*
X129496865Y-96254570D01*
X129566555Y-96367187D01*
X129573884Y-96379031D01*
X129605787Y-96410879D01*
X129639866Y-96473159D01*
X129634863Y-96543979D01*
X129605943Y-96589067D01*
X129586737Y-96608307D01*
X129573071Y-96621997D01*
X129569231Y-96628227D01*
X129569230Y-96628228D01*
X129499629Y-96741142D01*
X129481791Y-96770080D01*
X129427026Y-96935191D01*
X129426326Y-96942027D01*
X129426325Y-96942030D01*
X129421879Y-96985426D01*
X129416500Y-97037928D01*
X129416500Y-97041147D01*
X129416472Y-97041695D01*
X129393022Y-97108707D01*
X129379731Y-97124365D01*
X128724499Y-97779596D01*
X128662187Y-97813621D01*
X128635404Y-97816500D01*
X123814197Y-97816500D01*
X123746076Y-97796498D01*
X123699583Y-97742842D01*
X123694674Y-97730377D01*
X123678867Y-97682998D01*
X123678866Y-97682996D01*
X123676550Y-97676054D01*
X123663861Y-97655548D01*
X123587332Y-97531880D01*
X123583478Y-97525652D01*
X123458303Y-97400695D01*
X123354278Y-97336573D01*
X123306785Y-97283801D01*
X123295547Y-97220785D01*
X123295702Y-97220092D01*
X123293562Y-97152001D01*
X123293500Y-97148044D01*
X123293500Y-97120144D01*
X123292996Y-97116153D01*
X123292063Y-97104311D01*
X123290923Y-97068036D01*
X123290674Y-97060111D01*
X123288461Y-97052493D01*
X123285021Y-97040652D01*
X123281012Y-97021292D01*
X123279170Y-97006711D01*
X123278705Y-96987723D01*
X123278299Y-96987717D01*
X123278561Y-96968962D01*
X123278561Y-96968957D01*
X123278616Y-96965000D01*
X123258397Y-96784745D01*
X123225126Y-96689204D01*
X123201064Y-96620106D01*
X123201062Y-96620103D01*
X123198745Y-96613448D01*
X123162292Y-96555110D01*
X123106359Y-96465598D01*
X123102626Y-96459624D01*
X123094750Y-96451693D01*
X122979778Y-96335915D01*
X122979774Y-96335912D01*
X122974815Y-96330918D01*
X122963697Y-96323862D01*
X122877881Y-96269402D01*
X122821666Y-96233727D01*
X122770212Y-96215405D01*
X122657425Y-96175243D01*
X122657420Y-96175242D01*
X122650790Y-96172881D01*
X122643802Y-96172048D01*
X122643799Y-96172047D01*
X122503889Y-96155364D01*
X122470680Y-96151404D01*
X122463677Y-96152140D01*
X122463676Y-96152140D01*
X122297288Y-96169628D01*
X122297286Y-96169629D01*
X122290288Y-96170364D01*
X122118579Y-96228818D01*
X122077629Y-96254011D01*
X121970090Y-96320169D01*
X121970087Y-96320171D01*
X121964088Y-96323862D01*
X121953925Y-96333815D01*
X121891262Y-96367187D01*
X121820503Y-96361384D01*
X121776359Y-96332578D01*
X121774711Y-96330918D01*
X121759815Y-96315918D01*
X121606666Y-96218727D01*
X121570891Y-96205988D01*
X121442425Y-96160243D01*
X121442420Y-96160242D01*
X121435790Y-96157881D01*
X121428802Y-96157048D01*
X121428799Y-96157047D01*
X121302408Y-96141976D01*
X121255680Y-96136404D01*
X121248677Y-96137140D01*
X121248675Y-96137140D01*
X121202664Y-96141976D01*
X121132826Y-96129204D01*
X121080979Y-96080702D01*
X121064704Y-96016502D01*
X121063500Y-96016502D01*
X121063500Y-94233498D01*
X121063307Y-94231042D01*
X121061067Y-94202579D01*
X121061066Y-94202574D01*
X121060562Y-94196169D01*
X121018935Y-94052885D01*
X121016357Y-94044012D01*
X121016356Y-94044010D01*
X121014145Y-94036399D01*
X120986452Y-93989572D01*
X120933491Y-93900020D01*
X120933489Y-93900017D01*
X120929453Y-93893193D01*
X120859855Y-93823595D01*
X120825829Y-93761283D01*
X120830894Y-93690468D01*
X120873441Y-93633632D01*
X120939961Y-93608821D01*
X120948950Y-93608500D01*
X122240500Y-93608500D01*
X122308621Y-93628502D01*
G37*
%TD.AperFunction*%
%TA.AperFunction,Conductor*%
G36*
X133859115Y-91820990D02*
G01*
X133917613Y-91822993D01*
X133975991Y-91863397D01*
X134003258Y-91928949D01*
X134004000Y-91942604D01*
X134004000Y-92789884D01*
X134008475Y-92805123D01*
X134009865Y-92806328D01*
X134017548Y-92807999D01*
X134438984Y-92807999D01*
X134443920Y-92807805D01*
X134472336Y-92805570D01*
X134484931Y-92803270D01*
X134605346Y-92768285D01*
X134676343Y-92768487D01*
X134735959Y-92807041D01*
X134765268Y-92871706D01*
X134766500Y-92889282D01*
X134766500Y-93710405D01*
X134746498Y-93778526D01*
X134729595Y-93799500D01*
X133240134Y-95288961D01*
X133177822Y-95322987D01*
X133107007Y-95317922D01*
X133050171Y-95275375D01*
X133025712Y-95212869D01*
X133023419Y-95190766D01*
X133023418Y-95190763D01*
X133022707Y-95183907D01*
X132967654Y-95018893D01*
X132876116Y-94870969D01*
X132851579Y-94846475D01*
X132758184Y-94753242D01*
X132758179Y-94753238D01*
X132753003Y-94748071D01*
X132743386Y-94742143D01*
X132741559Y-94740114D01*
X132741027Y-94739693D01*
X132741099Y-94739602D01*
X132695892Y-94689372D01*
X132683500Y-94634882D01*
X132683500Y-94328757D01*
X132684027Y-94317574D01*
X132685702Y-94310081D01*
X132685371Y-94299531D01*
X132683562Y-94242004D01*
X132683500Y-94238045D01*
X132683500Y-94210134D01*
X132682995Y-94206134D01*
X132682062Y-94194291D01*
X132680922Y-94158019D01*
X132680673Y-94150100D01*
X132675022Y-94130648D01*
X132671014Y-94111296D01*
X132669467Y-94099053D01*
X132668474Y-94091193D01*
X132665556Y-94083822D01*
X132652200Y-94050087D01*
X132648355Y-94038860D01*
X132645481Y-94028968D01*
X132636018Y-93996397D01*
X132630626Y-93987279D01*
X132625707Y-93978962D01*
X132617012Y-93961214D01*
X132609552Y-93942373D01*
X132583564Y-93906603D01*
X132577048Y-93896683D01*
X132558580Y-93865455D01*
X132558578Y-93865452D01*
X132554542Y-93858628D01*
X132540221Y-93844307D01*
X132527380Y-93829273D01*
X132515472Y-93812883D01*
X132481395Y-93784692D01*
X132472626Y-93776712D01*
X131520413Y-92824498D01*
X131486389Y-92762188D01*
X131483510Y-92735405D01*
X131483510Y-92265871D01*
X132473456Y-92265871D01*
X132514107Y-92405790D01*
X132520352Y-92420221D01*
X132596911Y-92549678D01*
X132606551Y-92562104D01*
X132712896Y-92668449D01*
X132725322Y-92678089D01*
X132854779Y-92754648D01*
X132869210Y-92760893D01*
X133015065Y-92803269D01*
X133027667Y-92805570D01*
X133056084Y-92807807D01*
X133061014Y-92808000D01*
X133477885Y-92808000D01*
X133493124Y-92803525D01*
X133494329Y-92802135D01*
X133496000Y-92794452D01*
X133496000Y-92272115D01*
X133491525Y-92256876D01*
X133490135Y-92255671D01*
X133482452Y-92254000D01*
X132488122Y-92254000D01*
X132474591Y-92257973D01*
X132473456Y-92265871D01*
X131483510Y-92265871D01*
X131483510Y-92051858D01*
X131503512Y-91983737D01*
X131557168Y-91937244D01*
X131627442Y-91927140D01*
X131653424Y-91933758D01*
X131803168Y-91989448D01*
X131886995Y-92000633D01*
X131975980Y-92012507D01*
X131975984Y-92012507D01*
X131982961Y-92013438D01*
X131989972Y-92012800D01*
X131989976Y-92012800D01*
X132132459Y-91999832D01*
X132163600Y-91996998D01*
X132170302Y-91994820D01*
X132170304Y-91994820D01*
X132329409Y-91943124D01*
X132329412Y-91943123D01*
X132336108Y-91940947D01*
X132463755Y-91864854D01*
X132486541Y-91851271D01*
X132551058Y-91833500D01*
X133739856Y-91833500D01*
X133858797Y-91818474D01*
X133859115Y-91820990D01*
G37*
%TD.AperFunction*%
%TA.AperFunction,Conductor*%
G36*
X134500316Y-81528502D02*
G01*
X134546809Y-81582158D01*
X134556913Y-81652432D01*
X134527419Y-81717012D01*
X134496618Y-81742785D01*
X134478074Y-81753817D01*
X134478068Y-81753821D01*
X134474814Y-81755757D01*
X134216244Y-81955243D01*
X133983513Y-82184347D01*
X133981149Y-82187314D01*
X133981146Y-82187317D01*
X133964220Y-82208558D01*
X133779991Y-82439751D01*
X133608626Y-82717757D01*
X133598551Y-82739611D01*
X133503921Y-82944882D01*
X133471902Y-83014336D01*
X133470741Y-83017940D01*
X133470741Y-83017941D01*
X133462196Y-83044477D01*
X133371797Y-83325192D01*
X133371079Y-83328903D01*
X133371078Y-83328907D01*
X133310482Y-83642105D01*
X133310481Y-83642114D01*
X133309763Y-83645824D01*
X133309496Y-83649600D01*
X133309495Y-83649605D01*
X133289258Y-83935427D01*
X133286698Y-83971585D01*
X133286887Y-83975377D01*
X133299425Y-84227225D01*
X133302936Y-84297759D01*
X133303577Y-84301490D01*
X133303578Y-84301498D01*
X133355556Y-84603991D01*
X133358241Y-84619619D01*
X133359329Y-84623258D01*
X133359330Y-84623261D01*
X133450541Y-84928246D01*
X133451814Y-84932504D01*
X133453327Y-84935975D01*
X133453329Y-84935981D01*
X133507323Y-85059862D01*
X133582297Y-85231881D01*
X133584220Y-85235152D01*
X133584222Y-85235156D01*
X133626584Y-85307215D01*
X133747802Y-85513414D01*
X133750103Y-85516429D01*
X133943631Y-85770012D01*
X133943636Y-85770017D01*
X133945931Y-85773025D01*
X134007320Y-85836042D01*
X134168209Y-86001199D01*
X134173814Y-86006953D01*
X134262631Y-86078491D01*
X134425196Y-86209431D01*
X134425201Y-86209435D01*
X134428149Y-86211809D01*
X134705253Y-86384627D01*
X135001112Y-86522903D01*
X135004721Y-86524086D01*
X135305382Y-86622648D01*
X135311440Y-86624634D01*
X135631742Y-86688346D01*
X135635514Y-86688633D01*
X135635522Y-86688634D01*
X135953602Y-86712829D01*
X135953607Y-86712829D01*
X135957379Y-86713116D01*
X136253446Y-86699930D01*
X136322387Y-86716881D01*
X136371221Y-86768415D01*
X136384442Y-86838170D01*
X136366310Y-86891921D01*
X136312871Y-86978616D01*
X136282885Y-87027262D01*
X136227203Y-87195139D01*
X136226503Y-87201975D01*
X136226502Y-87201978D01*
X136225461Y-87212143D01*
X136216500Y-87299600D01*
X136216500Y-88100400D01*
X136216837Y-88103646D01*
X136216837Y-88103650D01*
X136226205Y-88193933D01*
X136227474Y-88206166D01*
X136229655Y-88212702D01*
X136229655Y-88212704D01*
X136255988Y-88291634D01*
X136283450Y-88373946D01*
X136376522Y-88524348D01*
X136501697Y-88649305D01*
X136507927Y-88653145D01*
X136507928Y-88653146D01*
X136641531Y-88735500D01*
X136652262Y-88742115D01*
X136694483Y-88756119D01*
X136813611Y-88795632D01*
X136813613Y-88795632D01*
X136820139Y-88797797D01*
X136826975Y-88798497D01*
X136826978Y-88798498D01*
X136866811Y-88802579D01*
X136924600Y-88808500D01*
X138325400Y-88808500D01*
X138328641Y-88808164D01*
X138328655Y-88808163D01*
X138352498Y-88805689D01*
X138422319Y-88818555D01*
X138474101Y-88867126D01*
X138491500Y-88931016D01*
X138491500Y-92068949D01*
X138471498Y-92137070D01*
X138417842Y-92183563D01*
X138352657Y-92194293D01*
X138325400Y-92191500D01*
X136924600Y-92191500D01*
X136921354Y-92191837D01*
X136921350Y-92191837D01*
X136825692Y-92201762D01*
X136825688Y-92201763D01*
X136818834Y-92202474D01*
X136812298Y-92204655D01*
X136812296Y-92204655D01*
X136701859Y-92241500D01*
X136651054Y-92258450D01*
X136500652Y-92351522D01*
X136375695Y-92476697D01*
X136371855Y-92482927D01*
X136371854Y-92482928D01*
X136292735Y-92611283D01*
X136282885Y-92627262D01*
X136279092Y-92638696D01*
X136238664Y-92697054D01*
X136173100Y-92724292D01*
X136103218Y-92711759D01*
X136051205Y-92663435D01*
X136033500Y-92599028D01*
X136033500Y-91864854D01*
X136053502Y-91796733D01*
X136064236Y-91783737D01*
X136063637Y-91783235D01*
X136068161Y-91777843D01*
X136073266Y-91772982D01*
X136173643Y-91621902D01*
X136238055Y-91452338D01*
X136244454Y-91406807D01*
X136262748Y-91276639D01*
X136262748Y-91276636D01*
X136263299Y-91272717D01*
X136263452Y-91261738D01*
X136263561Y-91253962D01*
X136263561Y-91253957D01*
X136263616Y-91250000D01*
X136243397Y-91069745D01*
X136241080Y-91063091D01*
X136186064Y-90905106D01*
X136186062Y-90905103D01*
X136183745Y-90898448D01*
X136143160Y-90833498D01*
X136091359Y-90750598D01*
X136087626Y-90744624D01*
X136077995Y-90734925D01*
X136032667Y-90689280D01*
X135998860Y-90626849D01*
X136004172Y-90556052D01*
X136035181Y-90509251D01*
X136068159Y-90477846D01*
X136068162Y-90477843D01*
X136073266Y-90472982D01*
X136173643Y-90321902D01*
X136224537Y-90187925D01*
X136235555Y-90158920D01*
X136235556Y-90158918D01*
X136238055Y-90152338D01*
X136240980Y-90131526D01*
X136262748Y-89976639D01*
X136262748Y-89976636D01*
X136263299Y-89972717D01*
X136263616Y-89950000D01*
X136243397Y-89769745D01*
X136230079Y-89731500D01*
X136186064Y-89605106D01*
X136186062Y-89605103D01*
X136183745Y-89598448D01*
X136087626Y-89444624D01*
X136082664Y-89439627D01*
X135964778Y-89320915D01*
X135964774Y-89320912D01*
X135959815Y-89315918D01*
X135952066Y-89311000D01*
X135885818Y-89268958D01*
X135806666Y-89218727D01*
X135709074Y-89183976D01*
X135642425Y-89160243D01*
X135642420Y-89160242D01*
X135635790Y-89157881D01*
X135628802Y-89157048D01*
X135628799Y-89157047D01*
X135504202Y-89142190D01*
X135455680Y-89136404D01*
X135448677Y-89137140D01*
X135448676Y-89137140D01*
X135282288Y-89154628D01*
X135282286Y-89154629D01*
X135275288Y-89155364D01*
X135250155Y-89163920D01*
X135200105Y-89180958D01*
X135129172Y-89183976D01*
X135067869Y-89148165D01*
X135035657Y-89084897D01*
X135033500Y-89061680D01*
X135033500Y-88783498D01*
X135033307Y-88781042D01*
X135031067Y-88752579D01*
X135031066Y-88752574D01*
X135030562Y-88746169D01*
X134996688Y-88629573D01*
X134986357Y-88594012D01*
X134986356Y-88594010D01*
X134984145Y-88586399D01*
X134938832Y-88509779D01*
X134903491Y-88450020D01*
X134903489Y-88450017D01*
X134899453Y-88443193D01*
X134781807Y-88325547D01*
X134774983Y-88321511D01*
X134774980Y-88321509D01*
X134645427Y-88244892D01*
X134645428Y-88244892D01*
X134638601Y-88240855D01*
X134630990Y-88238644D01*
X134630988Y-88238643D01*
X134573364Y-88221902D01*
X134478831Y-88194438D01*
X134472426Y-88193934D01*
X134472421Y-88193933D01*
X134443958Y-88191693D01*
X134443950Y-88191693D01*
X134441502Y-88191500D01*
X133058498Y-88191500D01*
X133056050Y-88191693D01*
X133056042Y-88191693D01*
X133027579Y-88193933D01*
X133027574Y-88193934D01*
X133021169Y-88194438D01*
X132926636Y-88221902D01*
X132869012Y-88238643D01*
X132869010Y-88238644D01*
X132861399Y-88240855D01*
X132854572Y-88244892D01*
X132854573Y-88244892D01*
X132725020Y-88321509D01*
X132725017Y-88321511D01*
X132718193Y-88325547D01*
X132712585Y-88331155D01*
X132706325Y-88336011D01*
X132705156Y-88334504D01*
X132651833Y-88363621D01*
X132625050Y-88366500D01*
X132078767Y-88366500D01*
X132067584Y-88365973D01*
X132060091Y-88364298D01*
X132052165Y-88364547D01*
X132052164Y-88364547D01*
X131992001Y-88366438D01*
X131988043Y-88366500D01*
X131960144Y-88366500D01*
X131956154Y-88367004D01*
X131944320Y-88367936D01*
X131900111Y-88369326D01*
X131892497Y-88371538D01*
X131892492Y-88371539D01*
X131880659Y-88374977D01*
X131861296Y-88378988D01*
X131841203Y-88381526D01*
X131833836Y-88384443D01*
X131833831Y-88384444D01*
X131800092Y-88397802D01*
X131788865Y-88401646D01*
X131746407Y-88413982D01*
X131739581Y-88418019D01*
X131728972Y-88424293D01*
X131711224Y-88432988D01*
X131692383Y-88440448D01*
X131685967Y-88445110D01*
X131685966Y-88445110D01*
X131656613Y-88466436D01*
X131646693Y-88472952D01*
X131615465Y-88491420D01*
X131615462Y-88491422D01*
X131608638Y-88495458D01*
X131594317Y-88509779D01*
X131579284Y-88522619D01*
X131562893Y-88534528D01*
X131542739Y-88558890D01*
X131534702Y-88568605D01*
X131526712Y-88577384D01*
X129832757Y-90271338D01*
X129824471Y-90278878D01*
X129817992Y-90282990D01*
X129812567Y-90288767D01*
X129771367Y-90332641D01*
X129768612Y-90335483D01*
X129748875Y-90355220D01*
X129746395Y-90358417D01*
X129738692Y-90367437D01*
X129708424Y-90399669D01*
X129704605Y-90406615D01*
X129704603Y-90406618D01*
X129698662Y-90417424D01*
X129687811Y-90433943D01*
X129675396Y-90449949D01*
X129672251Y-90457218D01*
X129672248Y-90457222D01*
X129657836Y-90490527D01*
X129652619Y-90501177D01*
X129631315Y-90539930D01*
X129629344Y-90547605D01*
X129629344Y-90547606D01*
X129626277Y-90559552D01*
X129619873Y-90578256D01*
X129611829Y-90596845D01*
X129610590Y-90604668D01*
X129610587Y-90604678D01*
X129604911Y-90640514D01*
X129602505Y-90652134D01*
X129591510Y-90694960D01*
X129591510Y-90715214D01*
X129589959Y-90734924D01*
X129586790Y-90754933D01*
X129587536Y-90762825D01*
X129590951Y-90798951D01*
X129591510Y-90810809D01*
X129591510Y-92240500D01*
X129571508Y-92308621D01*
X129517852Y-92355114D01*
X129465510Y-92366500D01*
X126059500Y-92366500D01*
X125991379Y-92346498D01*
X125944886Y-92292842D01*
X125933500Y-92240500D01*
X125933500Y-92171866D01*
X125926745Y-92109684D01*
X125875615Y-91973295D01*
X125788261Y-91856739D01*
X125671705Y-91769385D01*
X125663297Y-91766233D01*
X125655425Y-91761923D01*
X125656728Y-91759543D01*
X125611196Y-91725336D01*
X125586499Y-91658773D01*
X125601709Y-91589425D01*
X125651997Y-91539309D01*
X125659097Y-91536067D01*
X125663299Y-91533766D01*
X125671705Y-91530615D01*
X125788261Y-91443261D01*
X125875615Y-91326705D01*
X125926745Y-91190316D01*
X125933500Y-91128134D01*
X125933500Y-90839044D01*
X125953502Y-90770923D01*
X126007158Y-90724430D01*
X126077432Y-90714326D01*
X126103413Y-90720944D01*
X126153168Y-90739448D01*
X126236732Y-90750598D01*
X126325980Y-90762507D01*
X126325984Y-90762507D01*
X126332961Y-90763438D01*
X126339972Y-90762800D01*
X126339976Y-90762800D01*
X126482459Y-90749832D01*
X126513600Y-90746998D01*
X126520302Y-90744820D01*
X126520304Y-90744820D01*
X126679409Y-90693124D01*
X126679412Y-90693123D01*
X126686108Y-90690947D01*
X126814958Y-90614137D01*
X126835860Y-90601677D01*
X126835862Y-90601676D01*
X126841912Y-90598069D01*
X126973266Y-90472982D01*
X127073643Y-90321902D01*
X127124537Y-90187925D01*
X127135555Y-90158920D01*
X127135556Y-90158918D01*
X127138055Y-90152338D01*
X127140980Y-90131526D01*
X127162748Y-89976639D01*
X127162748Y-89976636D01*
X127163299Y-89972717D01*
X127163616Y-89950000D01*
X127143397Y-89769745D01*
X127130079Y-89731500D01*
X127086064Y-89605106D01*
X127086062Y-89605103D01*
X127083745Y-89598448D01*
X126987626Y-89444624D01*
X126982664Y-89439627D01*
X126864778Y-89320915D01*
X126864774Y-89320912D01*
X126859815Y-89315918D01*
X126852066Y-89311000D01*
X126785818Y-89268958D01*
X126706666Y-89218727D01*
X126609074Y-89183976D01*
X126542425Y-89160243D01*
X126542420Y-89160242D01*
X126535790Y-89157881D01*
X126528802Y-89157048D01*
X126528799Y-89157047D01*
X126404202Y-89142190D01*
X126355680Y-89136404D01*
X126348677Y-89137140D01*
X126348676Y-89137140D01*
X126182288Y-89154628D01*
X126182286Y-89154629D01*
X126175288Y-89155364D01*
X126091240Y-89183976D01*
X126010249Y-89211547D01*
X126010246Y-89211548D01*
X126003579Y-89213818D01*
X125983396Y-89226234D01*
X125914897Y-89244893D01*
X125847182Y-89223555D01*
X125816548Y-89194482D01*
X125793643Y-89163920D01*
X125793642Y-89163919D01*
X125788261Y-89156739D01*
X125781081Y-89151358D01*
X125774731Y-89145008D01*
X125776084Y-89143655D01*
X125740301Y-89095808D01*
X125735269Y-89024990D01*
X125769282Y-88962735D01*
X125798952Y-88933065D01*
X125808601Y-88920627D01*
X125884834Y-88791724D01*
X125891082Y-88777287D01*
X125933279Y-88632043D01*
X125935229Y-88621365D01*
X125932205Y-88606969D01*
X125920742Y-88604000D01*
X125094500Y-88604000D01*
X125026379Y-88583998D01*
X124979886Y-88530342D01*
X124968500Y-88478000D01*
X124968499Y-88113726D01*
X124968499Y-88111254D01*
X124965874Y-88077885D01*
X125389000Y-88077885D01*
X125393475Y-88093124D01*
X125394865Y-88094329D01*
X125402548Y-88096000D01*
X125918681Y-88096000D01*
X125933476Y-88091656D01*
X125935508Y-88080160D01*
X125933279Y-88067957D01*
X125891082Y-87922713D01*
X125884834Y-87908276D01*
X125808601Y-87779373D01*
X125798952Y-87766935D01*
X125693065Y-87661048D01*
X125680627Y-87651399D01*
X125551724Y-87575166D01*
X125537287Y-87568918D01*
X125406395Y-87530891D01*
X125392295Y-87530931D01*
X125389000Y-87538201D01*
X125389000Y-88077885D01*
X124965874Y-88077885D01*
X124965573Y-88074063D01*
X124919332Y-87914900D01*
X124915296Y-87908075D01*
X124915294Y-87908071D01*
X124898547Y-87879753D01*
X124881000Y-87815614D01*
X124881000Y-87543952D01*
X124877027Y-87530421D01*
X124869129Y-87529286D01*
X124732713Y-87568918D01*
X124718276Y-87575166D01*
X124714628Y-87577323D01*
X124711397Y-87578143D01*
X124711001Y-87578314D01*
X124710973Y-87578250D01*
X124645811Y-87594781D01*
X124586355Y-87577323D01*
X124581929Y-87574706D01*
X124581925Y-87574704D01*
X124575100Y-87570668D01*
X124567489Y-87568457D01*
X124567487Y-87568456D01*
X124516804Y-87553732D01*
X124415937Y-87524427D01*
X124409532Y-87523923D01*
X124409527Y-87523922D01*
X124381203Y-87521693D01*
X124381195Y-87521693D01*
X124378747Y-87521500D01*
X124165130Y-87521500D01*
X123951254Y-87521501D01*
X123914063Y-87524427D01*
X123815983Y-87552922D01*
X123762513Y-87568456D01*
X123762511Y-87568457D01*
X123754900Y-87570668D01*
X123748077Y-87574703D01*
X123643746Y-87636404D01*
X123612237Y-87655038D01*
X123526019Y-87741256D01*
X123463707Y-87775282D01*
X123392892Y-87770217D01*
X123369418Y-87758550D01*
X123306666Y-87718727D01*
X123277463Y-87708328D01*
X123142425Y-87660243D01*
X123142420Y-87660242D01*
X123135790Y-87657881D01*
X123128802Y-87657048D01*
X123128799Y-87657047D01*
X122991187Y-87640638D01*
X122955680Y-87636404D01*
X122948677Y-87637140D01*
X122948676Y-87637140D01*
X122782288Y-87654628D01*
X122782286Y-87654629D01*
X122775288Y-87655364D01*
X122603579Y-87713818D01*
X122547258Y-87748467D01*
X122455095Y-87805166D01*
X122455092Y-87805168D01*
X122449088Y-87808862D01*
X122444053Y-87813793D01*
X122444050Y-87813795D01*
X122332827Y-87922713D01*
X122319493Y-87935771D01*
X122315680Y-87941688D01*
X122315679Y-87941689D01*
X122290956Y-87980052D01*
X122237241Y-88026476D01*
X122166954Y-88036490D01*
X122102411Y-88006915D01*
X122064104Y-87947140D01*
X122060271Y-87894261D01*
X122063299Y-87872717D01*
X122063616Y-87850000D01*
X122043397Y-87669745D01*
X122041080Y-87663091D01*
X121986064Y-87505106D01*
X121986062Y-87505103D01*
X121983745Y-87498448D01*
X121976579Y-87486980D01*
X121891359Y-87350598D01*
X121887626Y-87344624D01*
X121879380Y-87336320D01*
X121764778Y-87220915D01*
X121764774Y-87220912D01*
X121759815Y-87215918D01*
X121748697Y-87208862D01*
X121666661Y-87156801D01*
X121606666Y-87118727D01*
X121568900Y-87105279D01*
X121442425Y-87060243D01*
X121442420Y-87060242D01*
X121435790Y-87057881D01*
X121428802Y-87057048D01*
X121428799Y-87057047D01*
X121305698Y-87042368D01*
X121255680Y-87036404D01*
X121248677Y-87037140D01*
X121248676Y-87037140D01*
X121082288Y-87054628D01*
X121082286Y-87054629D01*
X121075288Y-87055364D01*
X120903579Y-87113818D01*
X120767039Y-87197819D01*
X120701019Y-87216500D01*
X120114964Y-87216500D01*
X120046843Y-87196498D01*
X120007821Y-87156804D01*
X120001116Y-87145969D01*
X119977612Y-87122506D01*
X119883184Y-87028242D01*
X119883179Y-87028238D01*
X119878003Y-87023071D01*
X119805884Y-86978616D01*
X119758391Y-86925844D01*
X119746000Y-86871356D01*
X119746000Y-86837089D01*
X119766002Y-86768968D01*
X119794772Y-86737531D01*
X119799984Y-86733488D01*
X119806807Y-86729453D01*
X119924453Y-86611807D01*
X119928489Y-86604983D01*
X119928491Y-86604980D01*
X120005108Y-86475427D01*
X120009145Y-86468601D01*
X120055562Y-86308831D01*
X120056288Y-86299614D01*
X120058307Y-86273958D01*
X120058307Y-86273950D01*
X120058500Y-86271502D01*
X120058500Y-85838498D01*
X120055562Y-85801169D01*
X120009145Y-85641399D01*
X119989769Y-85608637D01*
X119972311Y-85539822D01*
X119994828Y-85472491D01*
X120050173Y-85428022D01*
X120098224Y-85418500D01*
X121736233Y-85418500D01*
X121747416Y-85419027D01*
X121754909Y-85420702D01*
X121762835Y-85420453D01*
X121762836Y-85420453D01*
X121821556Y-85418607D01*
X121845224Y-85420096D01*
X121864943Y-85423219D01*
X121872835Y-85422473D01*
X121878062Y-85421979D01*
X121908954Y-85419059D01*
X121920811Y-85418500D01*
X122001776Y-85418500D01*
X122069897Y-85438502D01*
X122116390Y-85492158D01*
X122126494Y-85562432D01*
X122110231Y-85608636D01*
X122090855Y-85641399D01*
X122044438Y-85801169D01*
X122041500Y-85838498D01*
X122041500Y-86271502D01*
X122041693Y-86273950D01*
X122041693Y-86273958D01*
X122043713Y-86299614D01*
X122044438Y-86308831D01*
X122090855Y-86468601D01*
X122094892Y-86475427D01*
X122171509Y-86604980D01*
X122171511Y-86604983D01*
X122175547Y-86611807D01*
X122293193Y-86729453D01*
X122300017Y-86733489D01*
X122300020Y-86733491D01*
X122359074Y-86768415D01*
X122436399Y-86814145D01*
X122444010Y-86816356D01*
X122444012Y-86816357D01*
X122487056Y-86828862D01*
X122596169Y-86860562D01*
X122602574Y-86861066D01*
X122602579Y-86861067D01*
X122631042Y-86863307D01*
X122631050Y-86863307D01*
X122633498Y-86863500D01*
X124416502Y-86863500D01*
X124418950Y-86863307D01*
X124418958Y-86863307D01*
X124447421Y-86861067D01*
X124447426Y-86861066D01*
X124453831Y-86860562D01*
X124562944Y-86828862D01*
X124605988Y-86816357D01*
X124605990Y-86816356D01*
X124613601Y-86814145D01*
X124690926Y-86768415D01*
X124749980Y-86733491D01*
X124749983Y-86733489D01*
X124756807Y-86729453D01*
X124874453Y-86611807D01*
X124878489Y-86604983D01*
X124878491Y-86604980D01*
X124955108Y-86475427D01*
X124959145Y-86468601D01*
X125005562Y-86308831D01*
X125006288Y-86299614D01*
X125008307Y-86273958D01*
X125008307Y-86273950D01*
X125008500Y-86271502D01*
X125008500Y-85838498D01*
X125005562Y-85801169D01*
X124959145Y-85641399D01*
X124874453Y-85498193D01*
X124871771Y-85495511D01*
X124846498Y-85431139D01*
X124860400Y-85361516D01*
X124870572Y-85345688D01*
X124874453Y-85341807D01*
X124959145Y-85198601D01*
X125005562Y-85038831D01*
X125006196Y-85030786D01*
X125008307Y-85003958D01*
X125008307Y-85003950D01*
X125008500Y-85001502D01*
X125008500Y-84568498D01*
X125006589Y-84544214D01*
X125006067Y-84537579D01*
X125006066Y-84537574D01*
X125005562Y-84531169D01*
X124972741Y-84418197D01*
X124961357Y-84379012D01*
X124961356Y-84379010D01*
X124959145Y-84371399D01*
X124874453Y-84228193D01*
X124871771Y-84225511D01*
X124846498Y-84161139D01*
X124860400Y-84091516D01*
X124870572Y-84075688D01*
X124874453Y-84071807D01*
X124959145Y-83928601D01*
X125005562Y-83768831D01*
X125008500Y-83731502D01*
X125008500Y-83298498D01*
X125005562Y-83261169D01*
X124959145Y-83101399D01*
X124874453Y-82958193D01*
X124871771Y-82955511D01*
X124846498Y-82891139D01*
X124860400Y-82821516D01*
X124870572Y-82805688D01*
X124874453Y-82801807D01*
X124959145Y-82658601D01*
X124965352Y-82637238D01*
X124987590Y-82560690D01*
X125005562Y-82498831D01*
X125008120Y-82466337D01*
X125008307Y-82463958D01*
X125008307Y-82463950D01*
X125008500Y-82461502D01*
X125008500Y-82028498D01*
X125005562Y-81991169D01*
X124959145Y-81831399D01*
X124880629Y-81698637D01*
X124863171Y-81629823D01*
X124885688Y-81562492D01*
X124941032Y-81518022D01*
X124989084Y-81508500D01*
X134432195Y-81508500D01*
X134500316Y-81528502D01*
G37*
%TD.AperFunction*%
%TD*%
%TA.AperFunction,Conductor*%
%TO.N,GND*%
G36*
X105787985Y-84603991D02*
G01*
X105845353Y-84645816D01*
X105869076Y-84699231D01*
X105869438Y-84703831D01*
X105871232Y-84710007D01*
X105871233Y-84710011D01*
X105913643Y-84855988D01*
X105915855Y-84863601D01*
X105932893Y-84892411D01*
X105996509Y-84999980D01*
X105996511Y-84999983D01*
X106000547Y-85006807D01*
X106118193Y-85124453D01*
X106125017Y-85128489D01*
X106125020Y-85128491D01*
X106187518Y-85165452D01*
X106261399Y-85209145D01*
X106269010Y-85211356D01*
X106269012Y-85211357D01*
X106321231Y-85226528D01*
X106421169Y-85255562D01*
X106427574Y-85256066D01*
X106427579Y-85256067D01*
X106456042Y-85258307D01*
X106456050Y-85258307D01*
X106458498Y-85258500D01*
X106972905Y-85258500D01*
X107041026Y-85278502D01*
X107062001Y-85295405D01*
X107329027Y-85562432D01*
X107558853Y-85792258D01*
X107566387Y-85800537D01*
X107570500Y-85807018D01*
X107620151Y-85853643D01*
X107622993Y-85856398D01*
X107642730Y-85876135D01*
X107645927Y-85878615D01*
X107654947Y-85886318D01*
X107687179Y-85916586D01*
X107694125Y-85920405D01*
X107694128Y-85920407D01*
X107704934Y-85926348D01*
X107721453Y-85937199D01*
X107737459Y-85949614D01*
X107744728Y-85952759D01*
X107744732Y-85952762D01*
X107778037Y-85967174D01*
X107788687Y-85972391D01*
X107827440Y-85993695D01*
X107835115Y-85995666D01*
X107835116Y-85995666D01*
X107847062Y-85998733D01*
X107865767Y-86005137D01*
X107884355Y-86013181D01*
X107892184Y-86014421D01*
X107892187Y-86014422D01*
X107900442Y-86015730D01*
X107969823Y-86051083D01*
X107993193Y-86074453D01*
X108000017Y-86078489D01*
X108000020Y-86078491D01*
X108107589Y-86142107D01*
X108136399Y-86159145D01*
X108144010Y-86161356D01*
X108144012Y-86161357D01*
X108196231Y-86176528D01*
X108296169Y-86205562D01*
X108302574Y-86206066D01*
X108302579Y-86206067D01*
X108331042Y-86208307D01*
X108331050Y-86208307D01*
X108333498Y-86208500D01*
X108850437Y-86208500D01*
X108918558Y-86228502D01*
X108936688Y-86242648D01*
X108962179Y-86266586D01*
X108969125Y-86270405D01*
X108969128Y-86270407D01*
X108979934Y-86276348D01*
X108996453Y-86287199D01*
X109012459Y-86299614D01*
X109019728Y-86302759D01*
X109019732Y-86302762D01*
X109053037Y-86317174D01*
X109063687Y-86322391D01*
X109102440Y-86343695D01*
X109110115Y-86345666D01*
X109110116Y-86345666D01*
X109122062Y-86348733D01*
X109140767Y-86355137D01*
X109159355Y-86363181D01*
X109167178Y-86364420D01*
X109167188Y-86364423D01*
X109203024Y-86370099D01*
X109214644Y-86372505D01*
X109249789Y-86381528D01*
X109257470Y-86383500D01*
X109277724Y-86383500D01*
X109297434Y-86385051D01*
X109317443Y-86388220D01*
X109325335Y-86387474D01*
X109336763Y-86386394D01*
X109361462Y-86384059D01*
X109373319Y-86383500D01*
X110085036Y-86383500D01*
X110153157Y-86403502D01*
X110192179Y-86443196D01*
X110198884Y-86454031D01*
X110204066Y-86459204D01*
X110316816Y-86571758D01*
X110316821Y-86571762D01*
X110321997Y-86576929D01*
X110328227Y-86580769D01*
X110328228Y-86580770D01*
X110350166Y-86594293D01*
X110378580Y-86611807D01*
X110398920Y-86624345D01*
X110448441Y-86681563D01*
X110449270Y-86683478D01*
X110451482Y-86691093D01*
X110455518Y-86697917D01*
X110455520Y-86697922D01*
X110461793Y-86708528D01*
X110470488Y-86726276D01*
X110477948Y-86745117D01*
X110482610Y-86751533D01*
X110482610Y-86751534D01*
X110503936Y-86780887D01*
X110510452Y-86790807D01*
X110532958Y-86828862D01*
X110538564Y-86834469D01*
X110547280Y-86843185D01*
X110560120Y-86858218D01*
X110572028Y-86874607D01*
X110578135Y-86879659D01*
X110606093Y-86902788D01*
X110614874Y-86910778D01*
X110946353Y-87242258D01*
X110953887Y-87250537D01*
X110958000Y-87257018D01*
X110998532Y-87295080D01*
X111007652Y-87303644D01*
X111010494Y-87306399D01*
X111030230Y-87326135D01*
X111033427Y-87328615D01*
X111042447Y-87336318D01*
X111074679Y-87366586D01*
X111081625Y-87370405D01*
X111081628Y-87370407D01*
X111092434Y-87376348D01*
X111108953Y-87387199D01*
X111124959Y-87399614D01*
X111132228Y-87402759D01*
X111132232Y-87402762D01*
X111165537Y-87417174D01*
X111176187Y-87422391D01*
X111214940Y-87443695D01*
X111222615Y-87445666D01*
X111222616Y-87445666D01*
X111234562Y-87448733D01*
X111253267Y-87455137D01*
X111271855Y-87463181D01*
X111279678Y-87464420D01*
X111279688Y-87464423D01*
X111315524Y-87470099D01*
X111327144Y-87472505D01*
X111358959Y-87480673D01*
X111369970Y-87483500D01*
X111390224Y-87483500D01*
X111409934Y-87485051D01*
X111429943Y-87488220D01*
X111437835Y-87487474D01*
X111463467Y-87485051D01*
X111473962Y-87484059D01*
X111485819Y-87483500D01*
X116219964Y-87483500D01*
X116288085Y-87503502D01*
X116334578Y-87557158D01*
X116340860Y-87574002D01*
X116346475Y-87593124D01*
X116347865Y-87594329D01*
X116355548Y-87596000D01*
X117515500Y-87596000D01*
X117583621Y-87616002D01*
X117630114Y-87669658D01*
X117641500Y-87722000D01*
X117641500Y-87978000D01*
X117621498Y-88046121D01*
X117567842Y-88092614D01*
X117515500Y-88104000D01*
X116360115Y-88104000D01*
X116344876Y-88108475D01*
X116343671Y-88109865D01*
X116342000Y-88117548D01*
X116342000Y-88133766D01*
X116342337Y-88140282D01*
X116352075Y-88234132D01*
X116354968Y-88247528D01*
X116405488Y-88398953D01*
X116411653Y-88412115D01*
X116495426Y-88547492D01*
X116504460Y-88558890D01*
X116584911Y-88639202D01*
X116631345Y-88664504D01*
X116629499Y-88667892D01*
X116652011Y-88677203D01*
X116692532Y-88735500D01*
X116699000Y-88775352D01*
X116699000Y-90303000D01*
X116678998Y-90371121D01*
X116625342Y-90417614D01*
X116573000Y-90429000D01*
X115655116Y-90429000D01*
X115639877Y-90433475D01*
X115617612Y-90459170D01*
X115617171Y-90458788D01*
X115610232Y-90471496D01*
X115547919Y-90505520D01*
X115477103Y-90500454D01*
X115432043Y-90471494D01*
X115154315Y-90193766D01*
X115143448Y-90181375D01*
X115129013Y-90162563D01*
X115123987Y-90156013D01*
X115092075Y-90131526D01*
X115092072Y-90131523D01*
X114996876Y-90058476D01*
X114848851Y-89997162D01*
X114840664Y-89996084D01*
X114840663Y-89996084D01*
X114822515Y-89993695D01*
X114729900Y-89981502D01*
X114729902Y-89981502D01*
X114729885Y-89981500D01*
X114729883Y-89981500D01*
X114725475Y-89980920D01*
X114660545Y-89952202D01*
X114652817Y-89945092D01*
X114627763Y-89920038D01*
X114619473Y-89915135D01*
X114598759Y-89902885D01*
X115637000Y-89902885D01*
X115641475Y-89918124D01*
X115642865Y-89919329D01*
X115650548Y-89921000D01*
X116172885Y-89921000D01*
X116188124Y-89916525D01*
X116189329Y-89915135D01*
X116191000Y-89907452D01*
X116191000Y-88713122D01*
X116187027Y-88699591D01*
X116179129Y-88698456D01*
X116039210Y-88739107D01*
X116024779Y-88745352D01*
X115895322Y-88821911D01*
X115882896Y-88831551D01*
X115776551Y-88937896D01*
X115766911Y-88950322D01*
X115690352Y-89079779D01*
X115684107Y-89094210D01*
X115641731Y-89240065D01*
X115639430Y-89252667D01*
X115637193Y-89281084D01*
X115637000Y-89286014D01*
X115637000Y-89902885D01*
X114598759Y-89902885D01*
X114491923Y-89839703D01*
X114485100Y-89835668D01*
X114477489Y-89833457D01*
X114477487Y-89833456D01*
X114413833Y-89814963D01*
X114325937Y-89789427D01*
X114319532Y-89788923D01*
X114319527Y-89788922D01*
X114291203Y-89786693D01*
X114291195Y-89786693D01*
X114288747Y-89786500D01*
X114050145Y-89786500D01*
X113811254Y-89786501D01*
X113774063Y-89789427D01*
X113699209Y-89811174D01*
X113622516Y-89833455D01*
X113622514Y-89833456D01*
X113614900Y-89835668D01*
X113608074Y-89839705D01*
X113607066Y-89840141D01*
X113536604Y-89848837D01*
X113506236Y-89834227D01*
X113504389Y-89838303D01*
X113461799Y-89819000D01*
X113184386Y-89819000D01*
X113120247Y-89801453D01*
X113091929Y-89784706D01*
X113091925Y-89784704D01*
X113085100Y-89780668D01*
X113077489Y-89778457D01*
X113077487Y-89778456D01*
X113024599Y-89763091D01*
X112925937Y-89734427D01*
X112919532Y-89733923D01*
X112919527Y-89733922D01*
X112891203Y-89731693D01*
X112891195Y-89731693D01*
X112888747Y-89731500D01*
X112650145Y-89731500D01*
X112411254Y-89731501D01*
X112374063Y-89734427D01*
X112275983Y-89762922D01*
X112222513Y-89778456D01*
X112222511Y-89778457D01*
X112214900Y-89780668D01*
X112208075Y-89784704D01*
X112208071Y-89784706D01*
X112179753Y-89801453D01*
X112115614Y-89819000D01*
X111843954Y-89819000D01*
X111828229Y-89823617D01*
X111757232Y-89823616D01*
X111728594Y-89811174D01*
X111666927Y-89774705D01*
X111666924Y-89774704D01*
X111660100Y-89770668D01*
X111652489Y-89768457D01*
X111652487Y-89768456D01*
X111601804Y-89753732D01*
X111500937Y-89724427D01*
X111494532Y-89723923D01*
X111494527Y-89723922D01*
X111466203Y-89721693D01*
X111466195Y-89721693D01*
X111463747Y-89721500D01*
X111250130Y-89721500D01*
X111036254Y-89721501D01*
X110999063Y-89724427D01*
X110900983Y-89752922D01*
X110847513Y-89768456D01*
X110847511Y-89768457D01*
X110839900Y-89770668D01*
X110829140Y-89777032D01*
X110760326Y-89794492D01*
X110700861Y-89777032D01*
X110690100Y-89770668D01*
X110682489Y-89768457D01*
X110682487Y-89768456D01*
X110631804Y-89753732D01*
X110530937Y-89724427D01*
X110524532Y-89723923D01*
X110524527Y-89723922D01*
X110496203Y-89721693D01*
X110496195Y-89721693D01*
X110493747Y-89721500D01*
X110399595Y-89721500D01*
X110331474Y-89701498D01*
X110310500Y-89684595D01*
X109919510Y-89293605D01*
X111830891Y-89293605D01*
X111830931Y-89307705D01*
X111838201Y-89311000D01*
X112377885Y-89311000D01*
X112393124Y-89306525D01*
X112394329Y-89305135D01*
X112396000Y-89297452D01*
X112396000Y-89292885D01*
X112904000Y-89292885D01*
X112908475Y-89308124D01*
X112909865Y-89309329D01*
X112917548Y-89311000D01*
X113456048Y-89311000D01*
X113469579Y-89307027D01*
X113470714Y-89299129D01*
X113431082Y-89162713D01*
X113424834Y-89148276D01*
X113348601Y-89019373D01*
X113338952Y-89006935D01*
X113233065Y-88901048D01*
X113220627Y-88891399D01*
X113091724Y-88815166D01*
X113077287Y-88808918D01*
X112932043Y-88766721D01*
X112921365Y-88764771D01*
X112906969Y-88767795D01*
X112904000Y-88779258D01*
X112904000Y-89292885D01*
X112396000Y-89292885D01*
X112396000Y-88781319D01*
X112391656Y-88766524D01*
X112380160Y-88764492D01*
X112367957Y-88766721D01*
X112222713Y-88808918D01*
X112208276Y-88815166D01*
X112079373Y-88891399D01*
X112066935Y-88901048D01*
X111961048Y-89006935D01*
X111951399Y-89019373D01*
X111875166Y-89148276D01*
X111868918Y-89162713D01*
X111830891Y-89293605D01*
X109919510Y-89293605D01*
X109633652Y-89007747D01*
X109626112Y-88999461D01*
X109622000Y-88992982D01*
X109572348Y-88946356D01*
X109569507Y-88943602D01*
X109549770Y-88923865D01*
X109546573Y-88921385D01*
X109537551Y-88913680D01*
X109505321Y-88883414D01*
X109498375Y-88879595D01*
X109498372Y-88879593D01*
X109487566Y-88873652D01*
X109471047Y-88862801D01*
X109461901Y-88855707D01*
X109455041Y-88850386D01*
X109447772Y-88847241D01*
X109447768Y-88847238D01*
X109414463Y-88832826D01*
X109403813Y-88827609D01*
X109365060Y-88806305D01*
X109345437Y-88801267D01*
X109326734Y-88794863D01*
X109315422Y-88789968D01*
X109308145Y-88786819D01*
X109300318Y-88785579D01*
X109296731Y-88784537D01*
X109236897Y-88746322D01*
X109207222Y-88681824D01*
X109207171Y-88645608D01*
X109207285Y-88644820D01*
X109213729Y-88600000D01*
X109213729Y-88109865D01*
X109213731Y-88109222D01*
X109214160Y-88039069D01*
X109214160Y-88039063D01*
X109214187Y-88034583D01*
X109199977Y-87930843D01*
X109195030Y-87894724D01*
X109195029Y-87894720D01*
X109194420Y-87890273D01*
X109155063Y-87752564D01*
X109095586Y-87619602D01*
X109093200Y-87615820D01*
X109093196Y-87615813D01*
X109035535Y-87524427D01*
X109019160Y-87498474D01*
X108924754Y-87387548D01*
X108817403Y-87292740D01*
X108791204Y-87275530D01*
X108699414Y-87215236D01*
X108695666Y-87212774D01*
X108691609Y-87210869D01*
X108691605Y-87210867D01*
X108570076Y-87153809D01*
X108566021Y-87151905D01*
X108561738Y-87150596D01*
X108561734Y-87150594D01*
X108431011Y-87110628D01*
X108426723Y-87109317D01*
X108422300Y-87108628D01*
X108422294Y-87108627D01*
X108362432Y-87099307D01*
X108285205Y-87087283D01*
X108280738Y-87087228D01*
X108280733Y-87087228D01*
X108207169Y-87086329D01*
X108139562Y-87085503D01*
X108135277Y-87086063D01*
X108128240Y-87086271D01*
X107738953Y-87086271D01*
X107738953Y-87086273D01*
X107735986Y-87086682D01*
X107639562Y-87085504D01*
X107635120Y-87086085D01*
X107635117Y-87086085D01*
X107501998Y-87103492D01*
X107501996Y-87103492D01*
X107497548Y-87104074D01*
X107357252Y-87143245D01*
X107226159Y-87200928D01*
X107194049Y-87220915D01*
X107106306Y-87275530D01*
X107106302Y-87275533D01*
X107102504Y-87277897D01*
X107099076Y-87280779D01*
X107099074Y-87280780D01*
X107017202Y-87349600D01*
X106992869Y-87370054D01*
X106983911Y-87380073D01*
X106937749Y-87431701D01*
X106877433Y-87469151D01*
X106876883Y-87469270D01*
X106875111Y-87469326D01*
X106870651Y-87470622D01*
X106870641Y-87470624D01*
X106855659Y-87474977D01*
X106836296Y-87478988D01*
X106816203Y-87481526D01*
X106808836Y-87484443D01*
X106808831Y-87484444D01*
X106775092Y-87497802D01*
X106763865Y-87501646D01*
X106721407Y-87513982D01*
X106714581Y-87518019D01*
X106703972Y-87524293D01*
X106686224Y-87532988D01*
X106667383Y-87540448D01*
X106660967Y-87545110D01*
X106660966Y-87545110D01*
X106631613Y-87566436D01*
X106621693Y-87572952D01*
X106590465Y-87591420D01*
X106590462Y-87591422D01*
X106583638Y-87595458D01*
X106569317Y-87609779D01*
X106554284Y-87622619D01*
X106537893Y-87634528D01*
X106532842Y-87640633D01*
X106532837Y-87640638D01*
X106509701Y-87668604D01*
X106501713Y-87677382D01*
X105974500Y-88204595D01*
X105912188Y-88238621D01*
X105885405Y-88241500D01*
X104558498Y-88241500D01*
X104556050Y-88241693D01*
X104556042Y-88241693D01*
X104527579Y-88243933D01*
X104527574Y-88243934D01*
X104521169Y-88244438D01*
X104462823Y-88261389D01*
X104369012Y-88288643D01*
X104369010Y-88288644D01*
X104361399Y-88290855D01*
X104354572Y-88294892D01*
X104354573Y-88294892D01*
X104225020Y-88371509D01*
X104225017Y-88371511D01*
X104218193Y-88375547D01*
X104100547Y-88493193D01*
X104096511Y-88500017D01*
X104096509Y-88500020D01*
X104049990Y-88578680D01*
X104015855Y-88636399D01*
X104013644Y-88644010D01*
X104013643Y-88644012D01*
X104004316Y-88676116D01*
X103969438Y-88796169D01*
X103968934Y-88802574D01*
X103968933Y-88802579D01*
X103966693Y-88831042D01*
X103966500Y-88833498D01*
X103966500Y-89266502D01*
X103966693Y-89268950D01*
X103966693Y-89268958D01*
X103968266Y-89288935D01*
X103969438Y-89303831D01*
X104015855Y-89463601D01*
X104019890Y-89470424D01*
X104019891Y-89470426D01*
X104029020Y-89485863D01*
X104046478Y-89554679D01*
X104029020Y-89614137D01*
X104019891Y-89629574D01*
X104015855Y-89636399D01*
X103969438Y-89796169D01*
X103968934Y-89802574D01*
X103968933Y-89802579D01*
X103966693Y-89831042D01*
X103966500Y-89833498D01*
X103966500Y-90266502D01*
X103966693Y-90268950D01*
X103966693Y-90268958D01*
X103968749Y-90295073D01*
X103969438Y-90303831D01*
X103991243Y-90378886D01*
X104005803Y-90429000D01*
X104015855Y-90463601D01*
X104019890Y-90470424D01*
X104019891Y-90470426D01*
X104029020Y-90485863D01*
X104046478Y-90554679D01*
X104029020Y-90614137D01*
X104019891Y-90629574D01*
X104015855Y-90636399D01*
X104013644Y-90644010D01*
X104013643Y-90644012D01*
X103999375Y-90693124D01*
X103969438Y-90796169D01*
X103968934Y-90802574D01*
X103968933Y-90802579D01*
X103966693Y-90831042D01*
X103966500Y-90833498D01*
X103966500Y-91266502D01*
X103966693Y-91268950D01*
X103966693Y-91268958D01*
X103967298Y-91276639D01*
X103969438Y-91303831D01*
X103978171Y-91333891D01*
X104000985Y-91412416D01*
X104015855Y-91463601D01*
X104019890Y-91470424D01*
X104019891Y-91470426D01*
X104029020Y-91485863D01*
X104046478Y-91554679D01*
X104029020Y-91614137D01*
X104024428Y-91621902D01*
X104015855Y-91636399D01*
X103969438Y-91796169D01*
X103968934Y-91802574D01*
X103968933Y-91802579D01*
X103966693Y-91831042D01*
X103966500Y-91833498D01*
X103966500Y-92266502D01*
X103966693Y-92268950D01*
X103966693Y-92268958D01*
X103968272Y-92289015D01*
X103969438Y-92303831D01*
X103986717Y-92363307D01*
X104011549Y-92448778D01*
X104015855Y-92463601D01*
X104021874Y-92473778D01*
X104096509Y-92599980D01*
X104096511Y-92599983D01*
X104100547Y-92606807D01*
X104218193Y-92724453D01*
X104225017Y-92728489D01*
X104225020Y-92728491D01*
X104332589Y-92792107D01*
X104361399Y-92809145D01*
X104369010Y-92811356D01*
X104369012Y-92811357D01*
X104414252Y-92824500D01*
X104521169Y-92855562D01*
X104527574Y-92856066D01*
X104527579Y-92856067D01*
X104556042Y-92858307D01*
X104556050Y-92858307D01*
X104558498Y-92858500D01*
X105110406Y-92858500D01*
X105178527Y-92878502D01*
X105199501Y-92895405D01*
X105596343Y-93292247D01*
X105603887Y-93300537D01*
X105608000Y-93307018D01*
X105613777Y-93312443D01*
X105657667Y-93353658D01*
X105660509Y-93356413D01*
X105680231Y-93376135D01*
X105683355Y-93378558D01*
X105683359Y-93378562D01*
X105683424Y-93378612D01*
X105692445Y-93386317D01*
X105724679Y-93416586D01*
X105731627Y-93420405D01*
X105731629Y-93420407D01*
X105742432Y-93426346D01*
X105758959Y-93437202D01*
X105768698Y-93444757D01*
X105768700Y-93444758D01*
X105774960Y-93449614D01*
X105815540Y-93467174D01*
X105826188Y-93472391D01*
X105864940Y-93493695D01*
X105872616Y-93495666D01*
X105872619Y-93495667D01*
X105884562Y-93498733D01*
X105903267Y-93505137D01*
X105921855Y-93513181D01*
X105929678Y-93514420D01*
X105929688Y-93514423D01*
X105965524Y-93520099D01*
X105977144Y-93522505D01*
X106012289Y-93531528D01*
X106019970Y-93533500D01*
X106040224Y-93533500D01*
X106059934Y-93535051D01*
X106079943Y-93538220D01*
X106087835Y-93537474D01*
X106123961Y-93534059D01*
X106135819Y-93533500D01*
X106849287Y-93533500D01*
X106917408Y-93553502D01*
X106946232Y-93579016D01*
X106966592Y-93603540D01*
X107072776Y-93699654D01*
X107076492Y-93702161D01*
X107076494Y-93702162D01*
X107189817Y-93778599D01*
X107189822Y-93778602D01*
X107193536Y-93781107D01*
X107245441Y-93806254D01*
X107298021Y-93853955D01*
X107316500Y-93919645D01*
X107316500Y-96451233D01*
X107315973Y-96462416D01*
X107314298Y-96469909D01*
X107314547Y-96477835D01*
X107314547Y-96477836D01*
X107316438Y-96537986D01*
X107316500Y-96541945D01*
X107316500Y-96569856D01*
X107316997Y-96573790D01*
X107316997Y-96573791D01*
X107317005Y-96573856D01*
X107317938Y-96585693D01*
X107319327Y-96629889D01*
X107324978Y-96649339D01*
X107328987Y-96668700D01*
X107331526Y-96688797D01*
X107334445Y-96696168D01*
X107334445Y-96696170D01*
X107347804Y-96729912D01*
X107351649Y-96741142D01*
X107363982Y-96783593D01*
X107368015Y-96790412D01*
X107368017Y-96790417D01*
X107374293Y-96801028D01*
X107382988Y-96818776D01*
X107390448Y-96837617D01*
X107395110Y-96844033D01*
X107395110Y-96844034D01*
X107416436Y-96873387D01*
X107422952Y-96883307D01*
X107445458Y-96921362D01*
X107459779Y-96935683D01*
X107472619Y-96950716D01*
X107484528Y-96967107D01*
X107518605Y-96995298D01*
X107527384Y-97003288D01*
X107784596Y-97260500D01*
X107818622Y-97322812D01*
X107821501Y-97349595D01*
X107821501Y-97429988D01*
X107824371Y-97466466D01*
X107869731Y-97622596D01*
X107901523Y-97676353D01*
X107918982Y-97745166D01*
X107901522Y-97804630D01*
X107874229Y-97850780D01*
X107867981Y-97865217D01*
X107835039Y-97978605D01*
X107835079Y-97992705D01*
X107842349Y-97996000D01*
X108312458Y-97996000D01*
X108347610Y-98001003D01*
X108357353Y-98003834D01*
X108357360Y-98003835D01*
X108363534Y-98005629D01*
X108369941Y-98006133D01*
X108369945Y-98006134D01*
X108397556Y-98008307D01*
X108397562Y-98008307D01*
X108400011Y-98008500D01*
X108409930Y-98008500D01*
X108778001Y-98008499D01*
X108846120Y-98028501D01*
X108892613Y-98082156D01*
X108904000Y-98134499D01*
X108904000Y-99009566D01*
X108908344Y-99024361D01*
X108920003Y-99026421D01*
X108929977Y-99025637D01*
X108942564Y-99023338D01*
X109084783Y-98982019D01*
X109099215Y-98975773D01*
X109151862Y-98944638D01*
X109220678Y-98927179D01*
X109288009Y-98949696D01*
X109332479Y-99005040D01*
X109342001Y-99053092D01*
X109342001Y-99194669D01*
X109342371Y-99201490D01*
X109347895Y-99252352D01*
X109351521Y-99267603D01*
X109371640Y-99321270D01*
X109376823Y-99392077D01*
X109342903Y-99454446D01*
X109280648Y-99488575D01*
X109253658Y-99491500D01*
X104570222Y-99491500D01*
X104502101Y-99471498D01*
X104455608Y-99417842D01*
X104445504Y-99347568D01*
X104474998Y-99282988D01*
X104499890Y-99261085D01*
X104501601Y-99260091D01*
X104504623Y-99257810D01*
X104504627Y-99257807D01*
X104759221Y-99065607D01*
X104759222Y-99065606D01*
X104762245Y-99063324D01*
X104950968Y-98881395D01*
X104994632Y-98839303D01*
X104994635Y-98839300D01*
X104997363Y-98836670D01*
X105094344Y-98717548D01*
X105201155Y-98586351D01*
X105201158Y-98586347D01*
X105203549Y-98583410D01*
X105205570Y-98580207D01*
X105246163Y-98515871D01*
X107833434Y-98515871D01*
X107867981Y-98634783D01*
X107874230Y-98649222D01*
X107948854Y-98775405D01*
X107958501Y-98787841D01*
X108062159Y-98891499D01*
X108074595Y-98901146D01*
X108200778Y-98975770D01*
X108215217Y-98982019D01*
X108357436Y-99023338D01*
X108370023Y-99025637D01*
X108377943Y-99026260D01*
X108393030Y-99023090D01*
X108396000Y-99011626D01*
X108396000Y-98522115D01*
X108391525Y-98506876D01*
X108390135Y-98505671D01*
X108382452Y-98504000D01*
X107848100Y-98504000D01*
X107834569Y-98507973D01*
X107833434Y-98515871D01*
X105246163Y-98515871D01*
X105375788Y-98310428D01*
X105375790Y-98310425D01*
X105377815Y-98307215D01*
X105394296Y-98272429D01*
X105461754Y-98130040D01*
X105517638Y-98012084D01*
X105519792Y-98005629D01*
X105619790Y-97705897D01*
X105619792Y-97705891D01*
X105620992Y-97702293D01*
X105686381Y-97382329D01*
X105689044Y-97349595D01*
X105708026Y-97116211D01*
X105712856Y-97056826D01*
X105713451Y-97000000D01*
X105712711Y-96987717D01*
X105694026Y-96677793D01*
X105694026Y-96677789D01*
X105693798Y-96674015D01*
X105692828Y-96668700D01*
X105635805Y-96356473D01*
X105635804Y-96356469D01*
X105635125Y-96352751D01*
X105629898Y-96335915D01*
X105562093Y-96117548D01*
X105538282Y-96040863D01*
X105404670Y-95742869D01*
X105236226Y-95463084D01*
X105233899Y-95460100D01*
X105233894Y-95460093D01*
X105037726Y-95208558D01*
X105037724Y-95208556D01*
X105035390Y-95205563D01*
X104805070Y-94974034D01*
X104548603Y-94771852D01*
X104269705Y-94601945D01*
X104266261Y-94600379D01*
X104266257Y-94600377D01*
X104131317Y-94539024D01*
X103972414Y-94466775D01*
X103661037Y-94368300D01*
X103403830Y-94319932D01*
X103343809Y-94308645D01*
X103343807Y-94308645D01*
X103340086Y-94307945D01*
X103014208Y-94286586D01*
X103010428Y-94286794D01*
X103010427Y-94286794D01*
X102778986Y-94299531D01*
X102709869Y-94283302D01*
X102660498Y-94232282D01*
X102646548Y-94162670D01*
X102664802Y-94107605D01*
X102713275Y-94028968D01*
X102713276Y-94028966D01*
X102717115Y-94022738D01*
X102772797Y-93854861D01*
X102773879Y-93844307D01*
X102780374Y-93780913D01*
X102783500Y-93750400D01*
X102783500Y-92949600D01*
X102776888Y-92885871D01*
X102773238Y-92850692D01*
X102773237Y-92850688D01*
X102772526Y-92843834D01*
X102760571Y-92807999D01*
X102718868Y-92683002D01*
X102716550Y-92676054D01*
X102623478Y-92525652D01*
X102571512Y-92473776D01*
X102503483Y-92405866D01*
X102498303Y-92400695D01*
X102483386Y-92391500D01*
X102353968Y-92311725D01*
X102353966Y-92311724D01*
X102347738Y-92307885D01*
X102255925Y-92277432D01*
X102186389Y-92254368D01*
X102186387Y-92254368D01*
X102179861Y-92252203D01*
X102173025Y-92251503D01*
X102173022Y-92251502D01*
X102129969Y-92247091D01*
X102075400Y-92241500D01*
X100674600Y-92241500D01*
X100671359Y-92241836D01*
X100671345Y-92241837D01*
X100647502Y-92244311D01*
X100577681Y-92231445D01*
X100525899Y-92182874D01*
X100508500Y-92118984D01*
X100508500Y-88981051D01*
X100528502Y-88912930D01*
X100582158Y-88866437D01*
X100647343Y-88855707D01*
X100674600Y-88858500D01*
X102075400Y-88858500D01*
X102078646Y-88858163D01*
X102078650Y-88858163D01*
X102174308Y-88848238D01*
X102174312Y-88848237D01*
X102181166Y-88847526D01*
X102187702Y-88845345D01*
X102187704Y-88845345D01*
X102328120Y-88798498D01*
X102348946Y-88791550D01*
X102499348Y-88698478D01*
X102624305Y-88573303D01*
X102634055Y-88557486D01*
X102713275Y-88428968D01*
X102713276Y-88428966D01*
X102717115Y-88422738D01*
X102752564Y-88315862D01*
X102770632Y-88261389D01*
X102770632Y-88261387D01*
X102772797Y-88254861D01*
X102773549Y-88247528D01*
X102783172Y-88153598D01*
X102783500Y-88150400D01*
X102783500Y-87349600D01*
X102781799Y-87333207D01*
X102773238Y-87250692D01*
X102773237Y-87250688D01*
X102772526Y-87243834D01*
X102763213Y-87215918D01*
X102718868Y-87083002D01*
X102716550Y-87076054D01*
X102623478Y-86925652D01*
X102618297Y-86920480D01*
X102618293Y-86920475D01*
X102606535Y-86908738D01*
X102572454Y-86846456D01*
X102577456Y-86775636D01*
X102619953Y-86718763D01*
X102686451Y-86693893D01*
X102705108Y-86693927D01*
X102953602Y-86712829D01*
X102953607Y-86712829D01*
X102957379Y-86713116D01*
X103283633Y-86698586D01*
X103289844Y-86697552D01*
X103602037Y-86645590D01*
X103602042Y-86645589D01*
X103605778Y-86644967D01*
X103919149Y-86553034D01*
X103922616Y-86551544D01*
X103922620Y-86551543D01*
X104215721Y-86425616D01*
X104215723Y-86425615D01*
X104219205Y-86424119D01*
X104501601Y-86260091D01*
X104762245Y-86063324D01*
X104959333Y-85873331D01*
X104994632Y-85839303D01*
X104994635Y-85839300D01*
X104997363Y-85836670D01*
X105161896Y-85634573D01*
X105201155Y-85586351D01*
X105201158Y-85586347D01*
X105203549Y-85583410D01*
X105257928Y-85497225D01*
X105375788Y-85310428D01*
X105375790Y-85310425D01*
X105377815Y-85307215D01*
X105402287Y-85255562D01*
X105508704Y-85030941D01*
X105517638Y-85012084D01*
X105520349Y-85003958D01*
X105619790Y-84705897D01*
X105619792Y-84705891D01*
X105620992Y-84702293D01*
X105621999Y-84697365D01*
X105622153Y-84697074D01*
X105622731Y-84694917D01*
X105623226Y-84695050D01*
X105655233Y-84634630D01*
X105717111Y-84599821D01*
X105787985Y-84603991D01*
G37*
%TD.AperFunction*%
%TA.AperFunction,Conductor*%
G36*
X109616706Y-92253502D02*
G01*
X109637680Y-92270405D01*
X109712237Y-92344962D01*
X109719057Y-92348996D01*
X109719058Y-92348996D01*
X109839494Y-92420221D01*
X109854900Y-92429332D01*
X109862511Y-92431543D01*
X109862513Y-92431544D01*
X109910176Y-92445391D01*
X110014063Y-92475573D01*
X110020468Y-92476077D01*
X110020473Y-92476078D01*
X110048797Y-92478307D01*
X110048805Y-92478307D01*
X110051253Y-92478500D01*
X110264870Y-92478500D01*
X110478746Y-92478499D01*
X110515937Y-92475573D01*
X110619824Y-92445391D01*
X110667487Y-92431544D01*
X110667489Y-92431543D01*
X110675100Y-92429332D01*
X110685860Y-92422968D01*
X110754674Y-92405508D01*
X110814139Y-92422968D01*
X110824900Y-92429332D01*
X110832511Y-92431543D01*
X110832513Y-92431544D01*
X110880176Y-92445391D01*
X110984063Y-92475573D01*
X110990468Y-92476077D01*
X110990473Y-92476078D01*
X111018797Y-92478307D01*
X111018805Y-92478307D01*
X111021253Y-92478500D01*
X111234870Y-92478500D01*
X111448746Y-92478499D01*
X111485937Y-92475573D01*
X111589824Y-92445391D01*
X111637487Y-92431544D01*
X111637489Y-92431543D01*
X111645100Y-92429332D01*
X111651924Y-92425296D01*
X111651927Y-92425295D01*
X111733074Y-92377306D01*
X111801890Y-92359847D01*
X111827063Y-92365776D01*
X111830254Y-92366000D01*
X112115614Y-92366000D01*
X112179753Y-92383547D01*
X112208071Y-92400294D01*
X112208075Y-92400296D01*
X112214900Y-92404332D01*
X112222511Y-92406543D01*
X112222513Y-92406544D01*
X112269590Y-92420221D01*
X112374063Y-92450573D01*
X112380468Y-92451077D01*
X112380473Y-92451078D01*
X112408797Y-92453307D01*
X112408805Y-92453307D01*
X112411253Y-92453500D01*
X112649855Y-92453500D01*
X112888746Y-92453499D01*
X112925937Y-92450573D01*
X113030410Y-92420221D01*
X113077487Y-92406544D01*
X113077489Y-92406543D01*
X113085100Y-92404332D01*
X113091925Y-92400296D01*
X113091929Y-92400294D01*
X113120247Y-92383547D01*
X113184386Y-92366000D01*
X113456048Y-92366000D01*
X113471287Y-92361525D01*
X113480384Y-92351027D01*
X113540109Y-92312642D01*
X113611106Y-92312641D01*
X113613512Y-92313511D01*
X113614900Y-92314332D01*
X113774063Y-92360573D01*
X113780468Y-92361077D01*
X113780473Y-92361078D01*
X113808797Y-92363307D01*
X113808805Y-92363307D01*
X113811253Y-92363500D01*
X113940761Y-92363500D01*
X114008882Y-92383502D01*
X114029856Y-92400405D01*
X115628660Y-93999209D01*
X115662686Y-94061521D01*
X115660562Y-94123455D01*
X115646081Y-94173303D01*
X115639438Y-94196169D01*
X115638933Y-94202579D01*
X115638933Y-94202582D01*
X115636710Y-94230833D01*
X115636500Y-94233498D01*
X115636500Y-96016502D01*
X115636693Y-96018950D01*
X115636693Y-96018958D01*
X115638702Y-96044477D01*
X115639438Y-96053831D01*
X115663641Y-96137140D01*
X115673790Y-96172071D01*
X115685855Y-96213601D01*
X115694854Y-96228818D01*
X115766509Y-96349980D01*
X115766511Y-96349983D01*
X115770547Y-96356807D01*
X115888193Y-96474453D01*
X115895017Y-96478489D01*
X115895020Y-96478491D01*
X115992687Y-96536251D01*
X116031399Y-96559145D01*
X116039010Y-96561356D01*
X116039012Y-96561357D01*
X116068267Y-96569856D01*
X116191169Y-96605562D01*
X116197574Y-96606066D01*
X116197579Y-96606067D01*
X116226042Y-96608307D01*
X116226050Y-96608307D01*
X116228498Y-96608500D01*
X116661502Y-96608500D01*
X116663950Y-96608307D01*
X116663958Y-96608307D01*
X116692421Y-96606067D01*
X116692426Y-96606066D01*
X116698831Y-96605562D01*
X116821733Y-96569856D01*
X116850988Y-96561357D01*
X116850990Y-96561356D01*
X116858601Y-96559145D01*
X117001807Y-96474453D01*
X117004489Y-96471771D01*
X117068861Y-96446498D01*
X117138484Y-96460400D01*
X117154312Y-96470572D01*
X117158193Y-96474453D01*
X117301399Y-96559145D01*
X117309010Y-96561356D01*
X117309012Y-96561357D01*
X117338267Y-96569856D01*
X117461169Y-96605562D01*
X117467574Y-96606066D01*
X117467579Y-96606067D01*
X117496042Y-96608307D01*
X117496050Y-96608307D01*
X117498498Y-96608500D01*
X117931502Y-96608500D01*
X117933950Y-96608307D01*
X117933958Y-96608307D01*
X117962421Y-96606067D01*
X117962426Y-96606066D01*
X117968831Y-96605562D01*
X118091733Y-96569856D01*
X118120988Y-96561357D01*
X118120990Y-96561356D01*
X118128601Y-96559145D01*
X118271807Y-96474453D01*
X118274489Y-96471771D01*
X118338861Y-96446498D01*
X118408484Y-96460400D01*
X118424312Y-96470572D01*
X118428193Y-96474453D01*
X118571399Y-96559145D01*
X118579010Y-96561356D01*
X118579012Y-96561357D01*
X118608267Y-96569856D01*
X118731169Y-96605562D01*
X118737574Y-96606066D01*
X118737579Y-96606067D01*
X118766042Y-96608307D01*
X118766050Y-96608307D01*
X118768498Y-96608500D01*
X119201502Y-96608500D01*
X119203950Y-96608307D01*
X119203958Y-96608307D01*
X119232421Y-96606067D01*
X119232426Y-96606066D01*
X119238831Y-96605562D01*
X119361733Y-96569856D01*
X119390988Y-96561357D01*
X119390990Y-96561356D01*
X119398601Y-96559145D01*
X119412227Y-96551086D01*
X119481041Y-96533627D01*
X119548372Y-96556143D01*
X119592842Y-96611487D01*
X119600331Y-96682087D01*
X119565460Y-96748635D01*
X118884500Y-97429595D01*
X118822188Y-97463621D01*
X118795405Y-97466500D01*
X118362928Y-97466500D01*
X118359682Y-97466837D01*
X118359678Y-97466837D01*
X118265765Y-97476581D01*
X118265761Y-97476582D01*
X118258907Y-97477293D01*
X118252371Y-97479474D01*
X118252369Y-97479474D01*
X118129463Y-97520479D01*
X118093893Y-97532346D01*
X117945969Y-97623884D01*
X117940797Y-97629065D01*
X117938727Y-97631139D01*
X117936962Y-97632105D01*
X117935059Y-97633613D01*
X117934801Y-97633287D01*
X117876446Y-97665219D01*
X117805625Y-97660218D01*
X117760530Y-97631292D01*
X117757869Y-97628636D01*
X117746460Y-97619625D01*
X117610937Y-97536088D01*
X117597759Y-97529944D01*
X117446234Y-97479685D01*
X117432868Y-97476819D01*
X117340230Y-97467328D01*
X117333815Y-97467000D01*
X117259615Y-97467000D01*
X117244376Y-97471475D01*
X117243171Y-97472865D01*
X117241500Y-97480548D01*
X117241500Y-98578000D01*
X117221498Y-98646121D01*
X117167842Y-98692614D01*
X117115500Y-98704000D01*
X115960115Y-98704000D01*
X115944876Y-98708475D01*
X115943671Y-98709865D01*
X115942000Y-98717548D01*
X115942000Y-98733766D01*
X115942337Y-98740282D01*
X115952075Y-98834132D01*
X115954968Y-98847528D01*
X116005488Y-98998953D01*
X116011653Y-99012115D01*
X116095426Y-99147492D01*
X116104460Y-99158890D01*
X116222102Y-99276327D01*
X116256181Y-99338609D01*
X116251178Y-99409430D01*
X116208681Y-99466302D01*
X116142182Y-99491171D01*
X116133084Y-99491500D01*
X114246342Y-99491500D01*
X114178221Y-99471498D01*
X114131728Y-99417842D01*
X114121624Y-99347568D01*
X114128360Y-99321270D01*
X114148478Y-99267605D01*
X114152105Y-99252351D01*
X114157631Y-99201486D01*
X114158000Y-99194672D01*
X114158000Y-98922115D01*
X114153525Y-98906876D01*
X114152135Y-98905671D01*
X114144452Y-98904000D01*
X112160116Y-98904000D01*
X112144877Y-98908475D01*
X112143672Y-98909865D01*
X112142001Y-98917548D01*
X112142001Y-99194669D01*
X112142371Y-99201490D01*
X112147895Y-99252352D01*
X112151521Y-99267603D01*
X112171640Y-99321270D01*
X112176823Y-99392077D01*
X112142903Y-99454446D01*
X112080648Y-99488575D01*
X112053658Y-99491500D01*
X111446342Y-99491500D01*
X111378221Y-99471498D01*
X111331728Y-99417842D01*
X111321624Y-99347568D01*
X111328360Y-99321270D01*
X111348478Y-99267605D01*
X111352105Y-99252351D01*
X111357631Y-99201486D01*
X111358000Y-99194672D01*
X111358000Y-98922115D01*
X111353525Y-98906876D01*
X111352135Y-98905671D01*
X111344452Y-98904000D01*
X110222000Y-98904000D01*
X110153879Y-98883998D01*
X110107386Y-98830342D01*
X110096000Y-98778000D01*
X110096000Y-98522000D01*
X110116002Y-98453879D01*
X110169658Y-98407386D01*
X110222000Y-98396000D01*
X111339884Y-98396000D01*
X111355123Y-98391525D01*
X111356328Y-98390135D01*
X111357999Y-98382452D01*
X111357999Y-98356500D01*
X111378001Y-98288379D01*
X111431657Y-98241886D01*
X111501931Y-98231782D01*
X111522935Y-98236667D01*
X111532392Y-98239740D01*
X111728777Y-98263158D01*
X111734912Y-98262686D01*
X111734914Y-98262686D01*
X111919830Y-98248457D01*
X111919834Y-98248456D01*
X111925972Y-98247984D01*
X111933315Y-98245934D01*
X111937796Y-98244683D01*
X111982117Y-98232308D01*
X112053106Y-98233254D01*
X112112315Y-98272429D01*
X112140945Y-98337397D01*
X112142000Y-98353666D01*
X112142000Y-98377885D01*
X112146475Y-98393124D01*
X112147865Y-98394329D01*
X112155548Y-98396000D01*
X112877885Y-98396000D01*
X112893124Y-98391525D01*
X112894329Y-98390135D01*
X112896000Y-98382452D01*
X112896000Y-98377885D01*
X113404000Y-98377885D01*
X113408475Y-98393124D01*
X113409865Y-98394329D01*
X113417548Y-98396000D01*
X114139884Y-98396000D01*
X114155123Y-98391525D01*
X114156328Y-98390135D01*
X114157999Y-98382452D01*
X114157999Y-98177885D01*
X115942000Y-98177885D01*
X115946475Y-98193124D01*
X115947865Y-98194329D01*
X115955548Y-98196000D01*
X116715385Y-98196000D01*
X116730624Y-98191525D01*
X116731829Y-98190135D01*
X116733500Y-98182452D01*
X116733500Y-97485115D01*
X116729025Y-97469876D01*
X116727635Y-97468671D01*
X116719952Y-97467000D01*
X116641234Y-97467000D01*
X116634718Y-97467337D01*
X116540868Y-97477075D01*
X116527472Y-97479968D01*
X116376047Y-97530488D01*
X116362885Y-97536653D01*
X116227508Y-97620426D01*
X116216110Y-97629460D01*
X116103637Y-97742129D01*
X116094625Y-97753540D01*
X116011088Y-97889063D01*
X116004944Y-97902241D01*
X115954685Y-98053766D01*
X115951819Y-98067132D01*
X115942328Y-98159770D01*
X115942000Y-98166185D01*
X115942000Y-98177885D01*
X114157999Y-98177885D01*
X114157999Y-98105331D01*
X114157629Y-98098510D01*
X114152105Y-98047648D01*
X114148479Y-98032396D01*
X114103324Y-97911946D01*
X114094786Y-97896351D01*
X114018285Y-97794276D01*
X114005724Y-97781715D01*
X113903649Y-97705214D01*
X113888054Y-97696676D01*
X113767606Y-97651522D01*
X113752351Y-97647895D01*
X113701486Y-97642369D01*
X113694672Y-97642000D01*
X113422115Y-97642000D01*
X113406876Y-97646475D01*
X113405671Y-97647865D01*
X113404000Y-97655548D01*
X113404000Y-98377885D01*
X112896000Y-98377885D01*
X112896000Y-97660116D01*
X112891525Y-97644877D01*
X112890135Y-97643672D01*
X112882452Y-97642001D01*
X112857184Y-97642001D01*
X112789063Y-97621999D01*
X112742570Y-97568343D01*
X112732466Y-97498069D01*
X112735213Y-97486444D01*
X112734886Y-97486370D01*
X112736250Y-97480366D01*
X112738197Y-97474513D01*
X112762985Y-97278295D01*
X112763380Y-97250000D01*
X112744080Y-97053167D01*
X112734192Y-97020416D01*
X112733651Y-96949425D01*
X112771577Y-96889408D01*
X112835931Y-96859423D01*
X112854814Y-96858000D01*
X112877885Y-96858000D01*
X112893124Y-96853525D01*
X112894329Y-96852135D01*
X112896000Y-96844452D01*
X112896000Y-96839884D01*
X113404000Y-96839884D01*
X113408475Y-96855123D01*
X113409865Y-96856328D01*
X113417548Y-96857999D01*
X113694669Y-96857999D01*
X113701490Y-96857629D01*
X113752352Y-96852105D01*
X113767604Y-96848479D01*
X113888054Y-96803324D01*
X113903649Y-96794786D01*
X114005724Y-96718285D01*
X114018285Y-96705724D01*
X114094786Y-96603649D01*
X114103324Y-96588054D01*
X114148478Y-96467606D01*
X114152105Y-96452351D01*
X114157631Y-96401486D01*
X114158000Y-96394672D01*
X114158000Y-96122115D01*
X114153525Y-96106876D01*
X114152135Y-96105671D01*
X114144452Y-96104000D01*
X113422115Y-96104000D01*
X113406876Y-96108475D01*
X113405671Y-96109865D01*
X113404000Y-96117548D01*
X113404000Y-96839884D01*
X112896000Y-96839884D01*
X112896000Y-96122115D01*
X112891525Y-96106876D01*
X112890135Y-96105671D01*
X112882452Y-96104000D01*
X112160116Y-96104000D01*
X112144877Y-96108475D01*
X112143672Y-96109865D01*
X112142001Y-96117548D01*
X112142001Y-96144684D01*
X112121999Y-96212805D01*
X112068343Y-96259298D01*
X111998069Y-96269402D01*
X111978749Y-96265051D01*
X111953768Y-96257318D01*
X111947643Y-96256674D01*
X111947642Y-96256674D01*
X111763204Y-96237289D01*
X111763202Y-96237289D01*
X111757075Y-96236645D01*
X111696168Y-96242188D01*
X111566251Y-96254011D01*
X111566248Y-96254012D01*
X111560112Y-96254570D01*
X111554197Y-96256311D01*
X111554196Y-96256311D01*
X111519576Y-96266500D01*
X111448579Y-96266546D01*
X111388829Y-96228201D01*
X111359294Y-96163639D01*
X111358000Y-96145627D01*
X111358000Y-96122115D01*
X111353525Y-96106876D01*
X111352135Y-96105671D01*
X111344452Y-96104000D01*
X109360116Y-96104000D01*
X109344877Y-96108475D01*
X109343672Y-96109865D01*
X109342001Y-96117548D01*
X109342001Y-96394669D01*
X109342371Y-96401493D01*
X109343750Y-96414193D01*
X109331220Y-96484075D01*
X109282898Y-96536089D01*
X109214126Y-96553722D01*
X109154348Y-96536251D01*
X109099419Y-96503766D01*
X109099418Y-96503766D01*
X109092596Y-96499731D01*
X109084985Y-96497520D01*
X109084983Y-96497519D01*
X108982021Y-96467606D01*
X108936466Y-96454371D01*
X108930059Y-96453867D01*
X108930055Y-96453866D01*
X108902444Y-96451693D01*
X108902438Y-96451693D01*
X108899989Y-96451500D01*
X108819595Y-96451500D01*
X108751474Y-96431498D01*
X108730500Y-96414595D01*
X108620405Y-96304500D01*
X108586379Y-96242188D01*
X108583500Y-96215405D01*
X108583500Y-95577885D01*
X109342000Y-95577885D01*
X109346475Y-95593124D01*
X109347865Y-95594329D01*
X109355548Y-95596000D01*
X110077885Y-95596000D01*
X110093124Y-95591525D01*
X110094329Y-95590135D01*
X110096000Y-95582452D01*
X110096000Y-95577885D01*
X110604000Y-95577885D01*
X110608475Y-95593124D01*
X110609865Y-95594329D01*
X110617548Y-95596000D01*
X111339884Y-95596000D01*
X111355123Y-95591525D01*
X111356328Y-95590135D01*
X111357999Y-95582452D01*
X111357999Y-95577885D01*
X112142000Y-95577885D01*
X112146475Y-95593124D01*
X112147865Y-95594329D01*
X112155548Y-95596000D01*
X112877885Y-95596000D01*
X112893124Y-95591525D01*
X112894329Y-95590135D01*
X112896000Y-95582452D01*
X112896000Y-95577885D01*
X113404000Y-95577885D01*
X113408475Y-95593124D01*
X113409865Y-95594329D01*
X113417548Y-95596000D01*
X114139884Y-95596000D01*
X114155123Y-95591525D01*
X114156328Y-95590135D01*
X114157999Y-95582452D01*
X114157999Y-95305331D01*
X114157629Y-95298510D01*
X114152105Y-95247648D01*
X114148479Y-95232396D01*
X114103324Y-95111946D01*
X114094786Y-95096351D01*
X114018285Y-94994276D01*
X114005724Y-94981715D01*
X113903649Y-94905214D01*
X113888054Y-94896676D01*
X113767606Y-94851522D01*
X113752351Y-94847895D01*
X113701486Y-94842369D01*
X113694672Y-94842000D01*
X113422115Y-94842000D01*
X113406876Y-94846475D01*
X113405671Y-94847865D01*
X113404000Y-94855548D01*
X113404000Y-95577885D01*
X112896000Y-95577885D01*
X112896000Y-94860116D01*
X112891525Y-94844877D01*
X112890135Y-94843672D01*
X112882452Y-94842001D01*
X112605331Y-94842001D01*
X112598510Y-94842371D01*
X112547648Y-94847895D01*
X112532396Y-94851521D01*
X112411946Y-94896676D01*
X112396351Y-94905214D01*
X112294276Y-94981715D01*
X112281715Y-94994276D01*
X112205214Y-95096351D01*
X112196676Y-95111946D01*
X112151522Y-95232394D01*
X112147895Y-95247649D01*
X112142369Y-95298514D01*
X112142000Y-95305328D01*
X112142000Y-95577885D01*
X111357999Y-95577885D01*
X111357999Y-95305331D01*
X111357629Y-95298510D01*
X111352105Y-95247648D01*
X111348479Y-95232396D01*
X111303324Y-95111946D01*
X111294786Y-95096351D01*
X111218285Y-94994276D01*
X111205724Y-94981715D01*
X111103649Y-94905214D01*
X111088054Y-94896676D01*
X110967606Y-94851522D01*
X110952351Y-94847895D01*
X110901486Y-94842369D01*
X110894672Y-94842000D01*
X110622115Y-94842000D01*
X110606876Y-94846475D01*
X110605671Y-94847865D01*
X110604000Y-94855548D01*
X110604000Y-95577885D01*
X110096000Y-95577885D01*
X110096000Y-94860116D01*
X110091525Y-94844877D01*
X110090135Y-94843672D01*
X110082452Y-94842001D01*
X109805331Y-94842001D01*
X109798510Y-94842371D01*
X109747648Y-94847895D01*
X109732396Y-94851521D01*
X109611946Y-94896676D01*
X109596351Y-94905214D01*
X109494276Y-94981715D01*
X109481715Y-94994276D01*
X109405214Y-95096351D01*
X109396676Y-95111946D01*
X109351522Y-95232394D01*
X109347895Y-95247649D01*
X109342369Y-95298514D01*
X109342000Y-95305328D01*
X109342000Y-95577885D01*
X108583500Y-95577885D01*
X108583500Y-93920394D01*
X108603502Y-93852273D01*
X108657348Y-93805694D01*
X108680710Y-93795072D01*
X108680714Y-93795070D01*
X108684789Y-93793217D01*
X108807497Y-93714742D01*
X108915998Y-93621252D01*
X109011750Y-93511489D01*
X109018194Y-93501548D01*
X109075636Y-93412925D01*
X109089650Y-93391304D01*
X109096684Y-93376082D01*
X109148868Y-93263145D01*
X109148869Y-93263143D01*
X109150748Y-93259076D01*
X109191784Y-93121858D01*
X109213312Y-92977804D01*
X109213874Y-92885871D01*
X111829286Y-92885871D01*
X111868918Y-93022287D01*
X111875166Y-93036724D01*
X111951399Y-93165627D01*
X111961048Y-93178065D01*
X112066935Y-93283952D01*
X112079373Y-93293601D01*
X112208276Y-93369834D01*
X112222713Y-93376082D01*
X112367957Y-93418279D01*
X112378635Y-93420229D01*
X112393031Y-93417205D01*
X112396000Y-93405742D01*
X112396000Y-93403681D01*
X112904000Y-93403681D01*
X112908344Y-93418476D01*
X112919840Y-93420508D01*
X112932043Y-93418279D01*
X113077287Y-93376082D01*
X113091724Y-93369834D01*
X113220627Y-93293601D01*
X113233065Y-93283952D01*
X113338952Y-93178065D01*
X113348601Y-93165627D01*
X113424834Y-93036724D01*
X113431082Y-93022287D01*
X113469109Y-92891395D01*
X113469069Y-92877295D01*
X113461799Y-92874000D01*
X112922115Y-92874000D01*
X112906876Y-92878475D01*
X112905671Y-92879865D01*
X112904000Y-92887548D01*
X112904000Y-93403681D01*
X112396000Y-93403681D01*
X112396000Y-92892115D01*
X112391525Y-92876876D01*
X112390135Y-92875671D01*
X112382452Y-92874000D01*
X111843952Y-92874000D01*
X111830421Y-92877973D01*
X111829286Y-92885871D01*
X109213874Y-92885871D01*
X109214089Y-92850692D01*
X109214160Y-92839055D01*
X109214160Y-92839050D01*
X109214187Y-92834583D01*
X109213852Y-92832139D01*
X109213729Y-92828344D01*
X109213729Y-92400000D01*
X109211475Y-92368489D01*
X109226566Y-92299116D01*
X109276768Y-92248913D01*
X109337154Y-92233500D01*
X109548585Y-92233500D01*
X109616706Y-92253502D01*
G37*
%TD.AperFunction*%
%TA.AperFunction,Conductor*%
G36*
X122308621Y-93628502D02*
G01*
X122355114Y-93682158D01*
X122366500Y-93734500D01*
X122366500Y-93828134D01*
X122373255Y-93890316D01*
X122424385Y-94026705D01*
X122511739Y-94143261D01*
X122628295Y-94230615D01*
X122764684Y-94281745D01*
X122826866Y-94288500D01*
X123573134Y-94288500D01*
X123635316Y-94281745D01*
X123642716Y-94278971D01*
X123646942Y-94277966D01*
X123705239Y-94277966D01*
X123722646Y-94282105D01*
X123773514Y-94287631D01*
X123780328Y-94288000D01*
X123877885Y-94288000D01*
X123893124Y-94283525D01*
X123894329Y-94282135D01*
X123896000Y-94274452D01*
X123896000Y-94174910D01*
X123916002Y-94106789D01*
X123921174Y-94099345D01*
X123932808Y-94083822D01*
X123975615Y-94026705D01*
X124026745Y-93890316D01*
X124027539Y-93883010D01*
X124062635Y-93821576D01*
X124125590Y-93788756D01*
X124196295Y-93795182D01*
X124252302Y-93838814D01*
X124272454Y-93882940D01*
X124273255Y-93890316D01*
X124324385Y-94026705D01*
X124367192Y-94083822D01*
X124378826Y-94099345D01*
X124403674Y-94165851D01*
X124404000Y-94174910D01*
X124404000Y-94269884D01*
X124408475Y-94285123D01*
X124409865Y-94286328D01*
X124417548Y-94287999D01*
X124519669Y-94287999D01*
X124526490Y-94287629D01*
X124577349Y-94282105D01*
X124594764Y-94277965D01*
X124653058Y-94277966D01*
X124657284Y-94278971D01*
X124664684Y-94281745D01*
X124726866Y-94288500D01*
X125473134Y-94288500D01*
X125535316Y-94281745D01*
X125671705Y-94230615D01*
X125788261Y-94143261D01*
X125875615Y-94026705D01*
X125926745Y-93890316D01*
X125933500Y-93828134D01*
X125933500Y-93759500D01*
X125953502Y-93691379D01*
X126007158Y-93644886D01*
X126059500Y-93633500D01*
X129465510Y-93633500D01*
X129533631Y-93653502D01*
X129580124Y-93707158D01*
X129591510Y-93759500D01*
X129591510Y-94146223D01*
X129590983Y-94157406D01*
X129589308Y-94164899D01*
X129589557Y-94172825D01*
X129589557Y-94172826D01*
X129591448Y-94232976D01*
X129591510Y-94236935D01*
X129591510Y-94264846D01*
X129592007Y-94268780D01*
X129592007Y-94268781D01*
X129592015Y-94268846D01*
X129592948Y-94280683D01*
X129594337Y-94324879D01*
X129599988Y-94344329D01*
X129603997Y-94363690D01*
X129606536Y-94383787D01*
X129609455Y-94391158D01*
X129609455Y-94391160D01*
X129622814Y-94424902D01*
X129626659Y-94436132D01*
X129636018Y-94468345D01*
X129638992Y-94478583D01*
X129643025Y-94485402D01*
X129643027Y-94485407D01*
X129649303Y-94496018D01*
X129657998Y-94513766D01*
X129665458Y-94532607D01*
X129670120Y-94539023D01*
X129670120Y-94539024D01*
X129691446Y-94568377D01*
X129697962Y-94578297D01*
X129710866Y-94600116D01*
X129728326Y-94668932D01*
X129705810Y-94736263D01*
X129691587Y-94753273D01*
X129600144Y-94844877D01*
X129573071Y-94871997D01*
X129569231Y-94878227D01*
X129569230Y-94878228D01*
X129486364Y-95012662D01*
X129481791Y-95020080D01*
X129427026Y-95185191D01*
X129416500Y-95287928D01*
X129416500Y-95962072D01*
X129416837Y-95965318D01*
X129416837Y-95965322D01*
X129426021Y-96053831D01*
X129427293Y-96066093D01*
X129429474Y-96072629D01*
X129429474Y-96072631D01*
X129462920Y-96172881D01*
X129482346Y-96231107D01*
X129496865Y-96254570D01*
X129566555Y-96367187D01*
X129573884Y-96379031D01*
X129605787Y-96410879D01*
X129639866Y-96473159D01*
X129634863Y-96543979D01*
X129605943Y-96589067D01*
X129586737Y-96608307D01*
X129573071Y-96621997D01*
X129569231Y-96628227D01*
X129569230Y-96628228D01*
X129499629Y-96741142D01*
X129481791Y-96770080D01*
X129427026Y-96935191D01*
X129426326Y-96942027D01*
X129426325Y-96942030D01*
X129421879Y-96985426D01*
X129416500Y-97037928D01*
X129416500Y-97041147D01*
X129416472Y-97041695D01*
X129393022Y-97108707D01*
X129379731Y-97124365D01*
X128724499Y-97779596D01*
X128662187Y-97813621D01*
X128635404Y-97816500D01*
X123814197Y-97816500D01*
X123746076Y-97796498D01*
X123699583Y-97742842D01*
X123694674Y-97730377D01*
X123678867Y-97682998D01*
X123678866Y-97682996D01*
X123676550Y-97676054D01*
X123663861Y-97655548D01*
X123587332Y-97531880D01*
X123583478Y-97525652D01*
X123458303Y-97400695D01*
X123354278Y-97336573D01*
X123306785Y-97283801D01*
X123295547Y-97220785D01*
X123295702Y-97220092D01*
X123293562Y-97152001D01*
X123293500Y-97148044D01*
X123293500Y-97120144D01*
X123292996Y-97116153D01*
X123292063Y-97104311D01*
X123290923Y-97068036D01*
X123290674Y-97060111D01*
X123288461Y-97052493D01*
X123285021Y-97040652D01*
X123281012Y-97021292D01*
X123279170Y-97006711D01*
X123278705Y-96987723D01*
X123278299Y-96987717D01*
X123278561Y-96968962D01*
X123278561Y-96968957D01*
X123278616Y-96965000D01*
X123258397Y-96784745D01*
X123225126Y-96689204D01*
X123201064Y-96620106D01*
X123201062Y-96620103D01*
X123198745Y-96613448D01*
X123162292Y-96555110D01*
X123106359Y-96465598D01*
X123102626Y-96459624D01*
X123094750Y-96451693D01*
X122979778Y-96335915D01*
X122979774Y-96335912D01*
X122974815Y-96330918D01*
X122963697Y-96323862D01*
X122877881Y-96269402D01*
X122821666Y-96233727D01*
X122770212Y-96215405D01*
X122657425Y-96175243D01*
X122657420Y-96175242D01*
X122650790Y-96172881D01*
X122643802Y-96172048D01*
X122643799Y-96172047D01*
X122503889Y-96155364D01*
X122470680Y-96151404D01*
X122463677Y-96152140D01*
X122463676Y-96152140D01*
X122297288Y-96169628D01*
X122297286Y-96169629D01*
X122290288Y-96170364D01*
X122118579Y-96228818D01*
X122077629Y-96254011D01*
X121970090Y-96320169D01*
X121970087Y-96320171D01*
X121964088Y-96323862D01*
X121953925Y-96333815D01*
X121891262Y-96367187D01*
X121820503Y-96361384D01*
X121776359Y-96332578D01*
X121774711Y-96330918D01*
X121759815Y-96315918D01*
X121606666Y-96218727D01*
X121570891Y-96205988D01*
X121442425Y-96160243D01*
X121442420Y-96160242D01*
X121435790Y-96157881D01*
X121428802Y-96157048D01*
X121428799Y-96157047D01*
X121302408Y-96141976D01*
X121255680Y-96136404D01*
X121248677Y-96137140D01*
X121248675Y-96137140D01*
X121202664Y-96141976D01*
X121132826Y-96129204D01*
X121080979Y-96080702D01*
X121064704Y-96016502D01*
X121063500Y-96016502D01*
X121063500Y-94233498D01*
X121063307Y-94231042D01*
X121061067Y-94202579D01*
X121061066Y-94202574D01*
X121060562Y-94196169D01*
X121018935Y-94052885D01*
X121016357Y-94044012D01*
X121016356Y-94044010D01*
X121014145Y-94036399D01*
X120986452Y-93989572D01*
X120933491Y-93900020D01*
X120933489Y-93900017D01*
X120929453Y-93893193D01*
X120859855Y-93823595D01*
X120825829Y-93761283D01*
X120830894Y-93690468D01*
X120873441Y-93633632D01*
X120939961Y-93608821D01*
X120948950Y-93608500D01*
X122240500Y-93608500D01*
X122308621Y-93628502D01*
G37*
%TD.AperFunction*%
%TA.AperFunction,Conductor*%
G36*
X133859115Y-91820990D02*
G01*
X133917613Y-91822993D01*
X133975991Y-91863397D01*
X134003258Y-91928949D01*
X134004000Y-91942604D01*
X134004000Y-92789884D01*
X134008475Y-92805123D01*
X134009865Y-92806328D01*
X134017548Y-92807999D01*
X134438984Y-92807999D01*
X134443920Y-92807805D01*
X134472336Y-92805570D01*
X134484931Y-92803270D01*
X134605346Y-92768285D01*
X134676343Y-92768487D01*
X134735959Y-92807041D01*
X134765268Y-92871706D01*
X134766500Y-92889282D01*
X134766500Y-93710405D01*
X134746498Y-93778526D01*
X134729595Y-93799500D01*
X133240134Y-95288961D01*
X133177822Y-95322987D01*
X133107007Y-95317922D01*
X133050171Y-95275375D01*
X133025712Y-95212869D01*
X133023419Y-95190766D01*
X133023418Y-95190763D01*
X133022707Y-95183907D01*
X132967654Y-95018893D01*
X132876116Y-94870969D01*
X132851579Y-94846475D01*
X132758184Y-94753242D01*
X132758179Y-94753238D01*
X132753003Y-94748071D01*
X132743386Y-94742143D01*
X132741559Y-94740114D01*
X132741027Y-94739693D01*
X132741099Y-94739602D01*
X132695892Y-94689372D01*
X132683500Y-94634882D01*
X132683500Y-94328757D01*
X132684027Y-94317574D01*
X132685702Y-94310081D01*
X132685371Y-94299531D01*
X132683562Y-94242004D01*
X132683500Y-94238045D01*
X132683500Y-94210134D01*
X132682995Y-94206134D01*
X132682062Y-94194291D01*
X132680922Y-94158019D01*
X132680673Y-94150100D01*
X132675022Y-94130648D01*
X132671014Y-94111296D01*
X132669467Y-94099053D01*
X132668474Y-94091193D01*
X132665556Y-94083822D01*
X132652200Y-94050087D01*
X132648355Y-94038860D01*
X132645481Y-94028968D01*
X132636018Y-93996397D01*
X132630626Y-93987279D01*
X132625707Y-93978962D01*
X132617012Y-93961214D01*
X132609552Y-93942373D01*
X132583564Y-93906603D01*
X132577048Y-93896683D01*
X132558580Y-93865455D01*
X132558578Y-93865452D01*
X132554542Y-93858628D01*
X132540221Y-93844307D01*
X132527380Y-93829273D01*
X132515472Y-93812883D01*
X132481395Y-93784692D01*
X132472626Y-93776712D01*
X131520413Y-92824498D01*
X131486389Y-92762188D01*
X131483510Y-92735405D01*
X131483510Y-92265871D01*
X132473456Y-92265871D01*
X132514107Y-92405790D01*
X132520352Y-92420221D01*
X132596911Y-92549678D01*
X132606551Y-92562104D01*
X132712896Y-92668449D01*
X132725322Y-92678089D01*
X132854779Y-92754648D01*
X132869210Y-92760893D01*
X133015065Y-92803269D01*
X133027667Y-92805570D01*
X133056084Y-92807807D01*
X133061014Y-92808000D01*
X133477885Y-92808000D01*
X133493124Y-92803525D01*
X133494329Y-92802135D01*
X133496000Y-92794452D01*
X133496000Y-92272115D01*
X133491525Y-92256876D01*
X133490135Y-92255671D01*
X133482452Y-92254000D01*
X132488122Y-92254000D01*
X132474591Y-92257973D01*
X132473456Y-92265871D01*
X131483510Y-92265871D01*
X131483510Y-92051858D01*
X131503512Y-91983737D01*
X131557168Y-91937244D01*
X131627442Y-91927140D01*
X131653424Y-91933758D01*
X131803168Y-91989448D01*
X131886995Y-92000633D01*
X131975980Y-92012507D01*
X131975984Y-92012507D01*
X131982961Y-92013438D01*
X131989972Y-92012800D01*
X131989976Y-92012800D01*
X132132459Y-91999832D01*
X132163600Y-91996998D01*
X132170302Y-91994820D01*
X132170304Y-91994820D01*
X132329409Y-91943124D01*
X132329412Y-91943123D01*
X132336108Y-91940947D01*
X132463755Y-91864854D01*
X132486541Y-91851271D01*
X132551058Y-91833500D01*
X133739856Y-91833500D01*
X133858797Y-91818474D01*
X133859115Y-91820990D01*
G37*
%TD.AperFunction*%
%TA.AperFunction,Conductor*%
G36*
X134500316Y-81528502D02*
G01*
X134546809Y-81582158D01*
X134556913Y-81652432D01*
X134527419Y-81717012D01*
X134496618Y-81742785D01*
X134478074Y-81753817D01*
X134478068Y-81753821D01*
X134474814Y-81755757D01*
X134216244Y-81955243D01*
X133983513Y-82184347D01*
X133981149Y-82187314D01*
X133981146Y-82187317D01*
X133964220Y-82208558D01*
X133779991Y-82439751D01*
X133608626Y-82717757D01*
X133598551Y-82739611D01*
X133503921Y-82944882D01*
X133471902Y-83014336D01*
X133470741Y-83017940D01*
X133470741Y-83017941D01*
X133462196Y-83044477D01*
X133371797Y-83325192D01*
X133371079Y-83328903D01*
X133371078Y-83328907D01*
X133310482Y-83642105D01*
X133310481Y-83642114D01*
X133309763Y-83645824D01*
X133309496Y-83649600D01*
X133309495Y-83649605D01*
X133289258Y-83935427D01*
X133286698Y-83971585D01*
X133286887Y-83975377D01*
X133299425Y-84227225D01*
X133302936Y-84297759D01*
X133303577Y-84301490D01*
X133303578Y-84301498D01*
X133355556Y-84603991D01*
X133358241Y-84619619D01*
X133359329Y-84623258D01*
X133359330Y-84623261D01*
X133450541Y-84928246D01*
X133451814Y-84932504D01*
X133453327Y-84935975D01*
X133453329Y-84935981D01*
X133507323Y-85059862D01*
X133582297Y-85231881D01*
X133584220Y-85235152D01*
X133584222Y-85235156D01*
X133626584Y-85307215D01*
X133747802Y-85513414D01*
X133750103Y-85516429D01*
X133943631Y-85770012D01*
X133943636Y-85770017D01*
X133945931Y-85773025D01*
X134007320Y-85836042D01*
X134168209Y-86001199D01*
X134173814Y-86006953D01*
X134262631Y-86078491D01*
X134425196Y-86209431D01*
X134425201Y-86209435D01*
X134428149Y-86211809D01*
X134705253Y-86384627D01*
X135001112Y-86522903D01*
X135004721Y-86524086D01*
X135305382Y-86622648D01*
X135311440Y-86624634D01*
X135631742Y-86688346D01*
X135635514Y-86688633D01*
X135635522Y-86688634D01*
X135953602Y-86712829D01*
X135953607Y-86712829D01*
X135957379Y-86713116D01*
X136253446Y-86699930D01*
X136322387Y-86716881D01*
X136371221Y-86768415D01*
X136384442Y-86838170D01*
X136366310Y-86891921D01*
X136312871Y-86978616D01*
X136282885Y-87027262D01*
X136227203Y-87195139D01*
X136226503Y-87201975D01*
X136226502Y-87201978D01*
X136225461Y-87212143D01*
X136216500Y-87299600D01*
X136216500Y-88100400D01*
X136216837Y-88103646D01*
X136216837Y-88103650D01*
X136226205Y-88193933D01*
X136227474Y-88206166D01*
X136229655Y-88212702D01*
X136229655Y-88212704D01*
X136255988Y-88291634D01*
X136283450Y-88373946D01*
X136376522Y-88524348D01*
X136501697Y-88649305D01*
X136507927Y-88653145D01*
X136507928Y-88653146D01*
X136641531Y-88735500D01*
X136652262Y-88742115D01*
X136694483Y-88756119D01*
X136813611Y-88795632D01*
X136813613Y-88795632D01*
X136820139Y-88797797D01*
X136826975Y-88798497D01*
X136826978Y-88798498D01*
X136866811Y-88802579D01*
X136924600Y-88808500D01*
X138325400Y-88808500D01*
X138328641Y-88808164D01*
X138328655Y-88808163D01*
X138352498Y-88805689D01*
X138422319Y-88818555D01*
X138474101Y-88867126D01*
X138491500Y-88931016D01*
X138491500Y-92068949D01*
X138471498Y-92137070D01*
X138417842Y-92183563D01*
X138352657Y-92194293D01*
X138325400Y-92191500D01*
X136924600Y-92191500D01*
X136921354Y-92191837D01*
X136921350Y-92191837D01*
X136825692Y-92201762D01*
X136825688Y-92201763D01*
X136818834Y-92202474D01*
X136812298Y-92204655D01*
X136812296Y-92204655D01*
X136701859Y-92241500D01*
X136651054Y-92258450D01*
X136500652Y-92351522D01*
X136375695Y-92476697D01*
X136371855Y-92482927D01*
X136371854Y-92482928D01*
X136292735Y-92611283D01*
X136282885Y-92627262D01*
X136279092Y-92638696D01*
X136238664Y-92697054D01*
X136173100Y-92724292D01*
X136103218Y-92711759D01*
X136051205Y-92663435D01*
X136033500Y-92599028D01*
X136033500Y-91864854D01*
X136053502Y-91796733D01*
X136064236Y-91783737D01*
X136063637Y-91783235D01*
X136068161Y-91777843D01*
X136073266Y-91772982D01*
X136173643Y-91621902D01*
X136238055Y-91452338D01*
X136244454Y-91406807D01*
X136262748Y-91276639D01*
X136262748Y-91276636D01*
X136263299Y-91272717D01*
X136263452Y-91261738D01*
X136263561Y-91253962D01*
X136263561Y-91253957D01*
X136263616Y-91250000D01*
X136243397Y-91069745D01*
X136241080Y-91063091D01*
X136186064Y-90905106D01*
X136186062Y-90905103D01*
X136183745Y-90898448D01*
X136143160Y-90833498D01*
X136091359Y-90750598D01*
X136087626Y-90744624D01*
X136077995Y-90734925D01*
X136032667Y-90689280D01*
X135998860Y-90626849D01*
X136004172Y-90556052D01*
X136035181Y-90509251D01*
X136068159Y-90477846D01*
X136068162Y-90477843D01*
X136073266Y-90472982D01*
X136173643Y-90321902D01*
X136224537Y-90187925D01*
X136235555Y-90158920D01*
X136235556Y-90158918D01*
X136238055Y-90152338D01*
X136240980Y-90131526D01*
X136262748Y-89976639D01*
X136262748Y-89976636D01*
X136263299Y-89972717D01*
X136263616Y-89950000D01*
X136243397Y-89769745D01*
X136230079Y-89731500D01*
X136186064Y-89605106D01*
X136186062Y-89605103D01*
X136183745Y-89598448D01*
X136087626Y-89444624D01*
X136082664Y-89439627D01*
X135964778Y-89320915D01*
X135964774Y-89320912D01*
X135959815Y-89315918D01*
X135952066Y-89311000D01*
X135885818Y-89268958D01*
X135806666Y-89218727D01*
X135709074Y-89183976D01*
X135642425Y-89160243D01*
X135642420Y-89160242D01*
X135635790Y-89157881D01*
X135628802Y-89157048D01*
X135628799Y-89157047D01*
X135504202Y-89142190D01*
X135455680Y-89136404D01*
X135448677Y-89137140D01*
X135448676Y-89137140D01*
X135282288Y-89154628D01*
X135282286Y-89154629D01*
X135275288Y-89155364D01*
X135250155Y-89163920D01*
X135200105Y-89180958D01*
X135129172Y-89183976D01*
X135067869Y-89148165D01*
X135035657Y-89084897D01*
X135033500Y-89061680D01*
X135033500Y-88783498D01*
X135033307Y-88781042D01*
X135031067Y-88752579D01*
X135031066Y-88752574D01*
X135030562Y-88746169D01*
X134996688Y-88629573D01*
X134986357Y-88594012D01*
X134986356Y-88594010D01*
X134984145Y-88586399D01*
X134938832Y-88509779D01*
X134903491Y-88450020D01*
X134903489Y-88450017D01*
X134899453Y-88443193D01*
X134781807Y-88325547D01*
X134774983Y-88321511D01*
X134774980Y-88321509D01*
X134645427Y-88244892D01*
X134645428Y-88244892D01*
X134638601Y-88240855D01*
X134630990Y-88238644D01*
X134630988Y-88238643D01*
X134573364Y-88221902D01*
X134478831Y-88194438D01*
X134472426Y-88193934D01*
X134472421Y-88193933D01*
X134443958Y-88191693D01*
X134443950Y-88191693D01*
X134441502Y-88191500D01*
X133058498Y-88191500D01*
X133056050Y-88191693D01*
X133056042Y-88191693D01*
X133027579Y-88193933D01*
X133027574Y-88193934D01*
X133021169Y-88194438D01*
X132926636Y-88221902D01*
X132869012Y-88238643D01*
X132869010Y-88238644D01*
X132861399Y-88240855D01*
X132854572Y-88244892D01*
X132854573Y-88244892D01*
X132725020Y-88321509D01*
X132725017Y-88321511D01*
X132718193Y-88325547D01*
X132712585Y-88331155D01*
X132706325Y-88336011D01*
X132705156Y-88334504D01*
X132651833Y-88363621D01*
X132625050Y-88366500D01*
X132078767Y-88366500D01*
X132067584Y-88365973D01*
X132060091Y-88364298D01*
X132052165Y-88364547D01*
X132052164Y-88364547D01*
X131992001Y-88366438D01*
X131988043Y-88366500D01*
X131960144Y-88366500D01*
X131956154Y-88367004D01*
X131944320Y-88367936D01*
X131900111Y-88369326D01*
X131892497Y-88371538D01*
X131892492Y-88371539D01*
X131880659Y-88374977D01*
X131861296Y-88378988D01*
X131841203Y-88381526D01*
X131833836Y-88384443D01*
X131833831Y-88384444D01*
X131800092Y-88397802D01*
X131788865Y-88401646D01*
X131746407Y-88413982D01*
X131739581Y-88418019D01*
X131728972Y-88424293D01*
X131711224Y-88432988D01*
X131692383Y-88440448D01*
X131685967Y-88445110D01*
X131685966Y-88445110D01*
X131656613Y-88466436D01*
X131646693Y-88472952D01*
X131615465Y-88491420D01*
X131615462Y-88491422D01*
X131608638Y-88495458D01*
X131594317Y-88509779D01*
X131579284Y-88522619D01*
X131562893Y-88534528D01*
X131542739Y-88558890D01*
X131534702Y-88568605D01*
X131526712Y-88577384D01*
X129832757Y-90271338D01*
X129824471Y-90278878D01*
X129817992Y-90282990D01*
X129812567Y-90288767D01*
X129771367Y-90332641D01*
X129768612Y-90335483D01*
X129748875Y-90355220D01*
X129746395Y-90358417D01*
X129738692Y-90367437D01*
X129708424Y-90399669D01*
X129704605Y-90406615D01*
X129704603Y-90406618D01*
X129698662Y-90417424D01*
X129687811Y-90433943D01*
X129675396Y-90449949D01*
X129672251Y-90457218D01*
X129672248Y-90457222D01*
X129657836Y-90490527D01*
X129652619Y-90501177D01*
X129631315Y-90539930D01*
X129629344Y-90547605D01*
X129629344Y-90547606D01*
X129626277Y-90559552D01*
X129619873Y-90578256D01*
X129611829Y-90596845D01*
X129610590Y-90604668D01*
X129610587Y-90604678D01*
X129604911Y-90640514D01*
X129602505Y-90652134D01*
X129591510Y-90694960D01*
X129591510Y-90715214D01*
X129589959Y-90734924D01*
X129586790Y-90754933D01*
X129587536Y-90762825D01*
X129590951Y-90798951D01*
X129591510Y-90810809D01*
X129591510Y-92240500D01*
X129571508Y-92308621D01*
X129517852Y-92355114D01*
X129465510Y-92366500D01*
X126059500Y-92366500D01*
X125991379Y-92346498D01*
X125944886Y-92292842D01*
X125933500Y-92240500D01*
X125933500Y-92171866D01*
X125926745Y-92109684D01*
X125875615Y-91973295D01*
X125788261Y-91856739D01*
X125671705Y-91769385D01*
X125663297Y-91766233D01*
X125655425Y-91761923D01*
X125656728Y-91759543D01*
X125611196Y-91725336D01*
X125586499Y-91658773D01*
X125601709Y-91589425D01*
X125651997Y-91539309D01*
X125659097Y-91536067D01*
X125663299Y-91533766D01*
X125671705Y-91530615D01*
X125788261Y-91443261D01*
X125875615Y-91326705D01*
X125926745Y-91190316D01*
X125933500Y-91128134D01*
X125933500Y-90839044D01*
X125953502Y-90770923D01*
X126007158Y-90724430D01*
X126077432Y-90714326D01*
X126103413Y-90720944D01*
X126153168Y-90739448D01*
X126236732Y-90750598D01*
X126325980Y-90762507D01*
X126325984Y-90762507D01*
X126332961Y-90763438D01*
X126339972Y-90762800D01*
X126339976Y-90762800D01*
X126482459Y-90749832D01*
X126513600Y-90746998D01*
X126520302Y-90744820D01*
X126520304Y-90744820D01*
X126679409Y-90693124D01*
X126679412Y-90693123D01*
X126686108Y-90690947D01*
X126814958Y-90614137D01*
X126835860Y-90601677D01*
X126835862Y-90601676D01*
X126841912Y-90598069D01*
X126973266Y-90472982D01*
X127073643Y-90321902D01*
X127124537Y-90187925D01*
X127135555Y-90158920D01*
X127135556Y-90158918D01*
X127138055Y-90152338D01*
X127140980Y-90131526D01*
X127162748Y-89976639D01*
X127162748Y-89976636D01*
X127163299Y-89972717D01*
X127163616Y-89950000D01*
X127143397Y-89769745D01*
X127130079Y-89731500D01*
X127086064Y-89605106D01*
X127086062Y-89605103D01*
X127083745Y-89598448D01*
X126987626Y-89444624D01*
X126982664Y-89439627D01*
X126864778Y-89320915D01*
X126864774Y-89320912D01*
X126859815Y-89315918D01*
X126852066Y-89311000D01*
X126785818Y-89268958D01*
X126706666Y-89218727D01*
X126609074Y-89183976D01*
X126542425Y-89160243D01*
X126542420Y-89160242D01*
X126535790Y-89157881D01*
X126528802Y-89157048D01*
X126528799Y-89157047D01*
X126404202Y-89142190D01*
X126355680Y-89136404D01*
X126348677Y-89137140D01*
X126348676Y-89137140D01*
X126182288Y-89154628D01*
X126182286Y-89154629D01*
X126175288Y-89155364D01*
X126091240Y-89183976D01*
X126010249Y-89211547D01*
X126010246Y-89211548D01*
X126003579Y-89213818D01*
X125983396Y-89226234D01*
X125914897Y-89244893D01*
X125847182Y-89223555D01*
X125816548Y-89194482D01*
X125793643Y-89163920D01*
X125793642Y-89163919D01*
X125788261Y-89156739D01*
X125781081Y-89151358D01*
X125774731Y-89145008D01*
X125776084Y-89143655D01*
X125740301Y-89095808D01*
X125735269Y-89024990D01*
X125769282Y-88962735D01*
X125798952Y-88933065D01*
X125808601Y-88920627D01*
X125884834Y-88791724D01*
X125891082Y-88777287D01*
X125933279Y-88632043D01*
X125935229Y-88621365D01*
X125932205Y-88606969D01*
X125920742Y-88604000D01*
X125094500Y-88604000D01*
X125026379Y-88583998D01*
X124979886Y-88530342D01*
X124968500Y-88478000D01*
X124968499Y-88113726D01*
X124968499Y-88111254D01*
X124965874Y-88077885D01*
X125389000Y-88077885D01*
X125393475Y-88093124D01*
X125394865Y-88094329D01*
X125402548Y-88096000D01*
X125918681Y-88096000D01*
X125933476Y-88091656D01*
X125935508Y-88080160D01*
X125933279Y-88067957D01*
X125891082Y-87922713D01*
X125884834Y-87908276D01*
X125808601Y-87779373D01*
X125798952Y-87766935D01*
X125693065Y-87661048D01*
X125680627Y-87651399D01*
X125551724Y-87575166D01*
X125537287Y-87568918D01*
X125406395Y-87530891D01*
X125392295Y-87530931D01*
X125389000Y-87538201D01*
X125389000Y-88077885D01*
X124965874Y-88077885D01*
X124965573Y-88074063D01*
X124919332Y-87914900D01*
X124915296Y-87908075D01*
X124915294Y-87908071D01*
X124898547Y-87879753D01*
X124881000Y-87815614D01*
X124881000Y-87543952D01*
X124877027Y-87530421D01*
X124869129Y-87529286D01*
X124732713Y-87568918D01*
X124718276Y-87575166D01*
X124714628Y-87577323D01*
X124711397Y-87578143D01*
X124711001Y-87578314D01*
X124710973Y-87578250D01*
X124645811Y-87594781D01*
X124586355Y-87577323D01*
X124581929Y-87574706D01*
X124581925Y-87574704D01*
X124575100Y-87570668D01*
X124567489Y-87568457D01*
X124567487Y-87568456D01*
X124516804Y-87553732D01*
X124415937Y-87524427D01*
X124409532Y-87523923D01*
X124409527Y-87523922D01*
X124381203Y-87521693D01*
X124381195Y-87521693D01*
X124378747Y-87521500D01*
X124165130Y-87521500D01*
X123951254Y-87521501D01*
X123914063Y-87524427D01*
X123815983Y-87552922D01*
X123762513Y-87568456D01*
X123762511Y-87568457D01*
X123754900Y-87570668D01*
X123748077Y-87574703D01*
X123643746Y-87636404D01*
X123612237Y-87655038D01*
X123526019Y-87741256D01*
X123463707Y-87775282D01*
X123392892Y-87770217D01*
X123369418Y-87758550D01*
X123306666Y-87718727D01*
X123277463Y-87708328D01*
X123142425Y-87660243D01*
X123142420Y-87660242D01*
X123135790Y-87657881D01*
X123128802Y-87657048D01*
X123128799Y-87657047D01*
X122991187Y-87640638D01*
X122955680Y-87636404D01*
X122948677Y-87637140D01*
X122948676Y-87637140D01*
X122782288Y-87654628D01*
X122782286Y-87654629D01*
X122775288Y-87655364D01*
X122603579Y-87713818D01*
X122547258Y-87748467D01*
X122455095Y-87805166D01*
X122455092Y-87805168D01*
X122449088Y-87808862D01*
X122444053Y-87813793D01*
X122444050Y-87813795D01*
X122332827Y-87922713D01*
X122319493Y-87935771D01*
X122315680Y-87941688D01*
X122315679Y-87941689D01*
X122290956Y-87980052D01*
X122237241Y-88026476D01*
X122166954Y-88036490D01*
X122102411Y-88006915D01*
X122064104Y-87947140D01*
X122060271Y-87894261D01*
X122063299Y-87872717D01*
X122063616Y-87850000D01*
X122043397Y-87669745D01*
X122041080Y-87663091D01*
X121986064Y-87505106D01*
X121986062Y-87505103D01*
X121983745Y-87498448D01*
X121976579Y-87486980D01*
X121891359Y-87350598D01*
X121887626Y-87344624D01*
X121879380Y-87336320D01*
X121764778Y-87220915D01*
X121764774Y-87220912D01*
X121759815Y-87215918D01*
X121748697Y-87208862D01*
X121666661Y-87156801D01*
X121606666Y-87118727D01*
X121568900Y-87105279D01*
X121442425Y-87060243D01*
X121442420Y-87060242D01*
X121435790Y-87057881D01*
X121428802Y-87057048D01*
X121428799Y-87057047D01*
X121305698Y-87042368D01*
X121255680Y-87036404D01*
X121248677Y-87037140D01*
X121248676Y-87037140D01*
X121082288Y-87054628D01*
X121082286Y-87054629D01*
X121075288Y-87055364D01*
X120903579Y-87113818D01*
X120767039Y-87197819D01*
X120701019Y-87216500D01*
X120114964Y-87216500D01*
X120046843Y-87196498D01*
X120007821Y-87156804D01*
X120001116Y-87145969D01*
X119977612Y-87122506D01*
X119883184Y-87028242D01*
X119883179Y-87028238D01*
X119878003Y-87023071D01*
X119805884Y-86978616D01*
X119758391Y-86925844D01*
X119746000Y-86871356D01*
X119746000Y-86837089D01*
X119766002Y-86768968D01*
X119794772Y-86737531D01*
X119799984Y-86733488D01*
X119806807Y-86729453D01*
X119924453Y-86611807D01*
X119928489Y-86604983D01*
X119928491Y-86604980D01*
X120005108Y-86475427D01*
X120009145Y-86468601D01*
X120055562Y-86308831D01*
X120056288Y-86299614D01*
X120058307Y-86273958D01*
X120058307Y-86273950D01*
X120058500Y-86271502D01*
X120058500Y-85838498D01*
X120055562Y-85801169D01*
X120009145Y-85641399D01*
X119989769Y-85608637D01*
X119972311Y-85539822D01*
X119994828Y-85472491D01*
X120050173Y-85428022D01*
X120098224Y-85418500D01*
X121736233Y-85418500D01*
X121747416Y-85419027D01*
X121754909Y-85420702D01*
X121762835Y-85420453D01*
X121762836Y-85420453D01*
X121821556Y-85418607D01*
X121845224Y-85420096D01*
X121864943Y-85423219D01*
X121872835Y-85422473D01*
X121878062Y-85421979D01*
X121908954Y-85419059D01*
X121920811Y-85418500D01*
X122001776Y-85418500D01*
X122069897Y-85438502D01*
X122116390Y-85492158D01*
X122126494Y-85562432D01*
X122110231Y-85608636D01*
X122090855Y-85641399D01*
X122044438Y-85801169D01*
X122041500Y-85838498D01*
X122041500Y-86271502D01*
X122041693Y-86273950D01*
X122041693Y-86273958D01*
X122043713Y-86299614D01*
X122044438Y-86308831D01*
X122090855Y-86468601D01*
X122094892Y-86475427D01*
X122171509Y-86604980D01*
X122171511Y-86604983D01*
X122175547Y-86611807D01*
X122293193Y-86729453D01*
X122300017Y-86733489D01*
X122300020Y-86733491D01*
X122359074Y-86768415D01*
X122436399Y-86814145D01*
X122444010Y-86816356D01*
X122444012Y-86816357D01*
X122487056Y-86828862D01*
X122596169Y-86860562D01*
X122602574Y-86861066D01*
X122602579Y-86861067D01*
X122631042Y-86863307D01*
X122631050Y-86863307D01*
X122633498Y-86863500D01*
X124416502Y-86863500D01*
X124418950Y-86863307D01*
X124418958Y-86863307D01*
X124447421Y-86861067D01*
X124447426Y-86861066D01*
X124453831Y-86860562D01*
X124562944Y-86828862D01*
X124605988Y-86816357D01*
X124605990Y-86816356D01*
X124613601Y-86814145D01*
X124690926Y-86768415D01*
X124749980Y-86733491D01*
X124749983Y-86733489D01*
X124756807Y-86729453D01*
X124874453Y-86611807D01*
X124878489Y-86604983D01*
X124878491Y-86604980D01*
X124955108Y-86475427D01*
X124959145Y-86468601D01*
X125005562Y-86308831D01*
X125006288Y-86299614D01*
X125008307Y-86273958D01*
X125008307Y-86273950D01*
X125008500Y-86271502D01*
X125008500Y-85838498D01*
X125005562Y-85801169D01*
X124959145Y-85641399D01*
X124874453Y-85498193D01*
X124871771Y-85495511D01*
X124846498Y-85431139D01*
X124860400Y-85361516D01*
X124870572Y-85345688D01*
X124874453Y-85341807D01*
X124959145Y-85198601D01*
X125005562Y-85038831D01*
X125006196Y-85030786D01*
X125008307Y-85003958D01*
X125008307Y-85003950D01*
X125008500Y-85001502D01*
X125008500Y-84568498D01*
X125006589Y-84544214D01*
X125006067Y-84537579D01*
X125006066Y-84537574D01*
X125005562Y-84531169D01*
X124972741Y-84418197D01*
X124961357Y-84379012D01*
X124961356Y-84379010D01*
X124959145Y-84371399D01*
X124874453Y-84228193D01*
X124871771Y-84225511D01*
X124846498Y-84161139D01*
X124860400Y-84091516D01*
X124870572Y-84075688D01*
X124874453Y-84071807D01*
X124959145Y-83928601D01*
X125005562Y-83768831D01*
X125008500Y-83731502D01*
X125008500Y-83298498D01*
X125005562Y-83261169D01*
X124959145Y-83101399D01*
X124874453Y-82958193D01*
X124871771Y-82955511D01*
X124846498Y-82891139D01*
X124860400Y-82821516D01*
X124870572Y-82805688D01*
X124874453Y-82801807D01*
X124959145Y-82658601D01*
X124965352Y-82637238D01*
X124987590Y-82560690D01*
X125005562Y-82498831D01*
X125008120Y-82466337D01*
X125008307Y-82463958D01*
X125008307Y-82463950D01*
X125008500Y-82461502D01*
X125008500Y-82028498D01*
X125005562Y-81991169D01*
X124959145Y-81831399D01*
X124880629Y-81698637D01*
X124863171Y-81629823D01*
X124885688Y-81562492D01*
X124941032Y-81518022D01*
X124989084Y-81508500D01*
X134432195Y-81508500D01*
X134500316Y-81528502D01*
G37*
%TD.AperFunction*%
%TD*%
M02*
