M48
; DRILL file {KiCad (6.0.4-0)} date Monday, August 01, 2022 at 10:55:25 AM
; FORMAT={-:-/ absolute / inch / decimal}
; #@! TF.CreationDate,2022-08-01T10:55:25-06:00
; #@! TF.GenerationSoftware,Kicad,Pcbnew,(6.0.4-0)
; #@! TF.FileFunction,Plated,1,4,PTH
FMAT,2
INCH
; #@! TA.AperFunction,Plated,PTH,ViaDrill
T1C0.0157
; #@! TA.AperFunction,Plated,PTH,ComponentDrill
T2C0.0157
; #@! TA.AperFunction,Plated,PTH,ComponentDrill
T3C0.0866
%
G90
G05
T1
X4.2028Y-3.2854
X4.25Y-3.4685
X4.435Y-3.4941
X4.435Y-3.687
X4.7736Y-3.4587
X4.7736Y-3.8169
X4.8215Y-3.8175
X4.8406Y-3.4823
X4.8878Y-3.7264
X4.9744Y-3.5413
X5.0177Y-3.7146
X5.0217Y-3.6161
X5.1969Y-3.5906
X5.1988Y-3.6299
X5.3327Y-3.5413
X5.3327Y-3.5925
T2
X3.9902Y-3.3071
X3.9902Y-3.8189
X4.0092Y-3.2612
X4.0092Y-3.353
X4.0092Y-3.773
X4.0092Y-3.8648
X4.0551Y-3.2421
X4.0551Y-3.372
X4.0551Y-3.7539
X4.0551Y-3.8839
X4.1011Y-3.2612
X4.1011Y-3.353
X4.1011Y-3.773
X4.1011Y-3.8648
X4.1201Y-3.3071
X4.1201Y-3.8189
X5.2894Y-3.3071
X5.2894Y-3.8189
X5.3084Y-3.2612
X5.3084Y-3.353
X5.3084Y-3.773
X5.3084Y-3.8648
X5.3543Y-3.2421
X5.3543Y-3.372
X5.3543Y-3.7539
X5.3543Y-3.8839
X5.4003Y-3.2612
X5.4003Y-3.353
X5.4003Y-3.773
X5.4003Y-3.8648
X5.4193Y-3.3071
X5.4193Y-3.8189
T3
X4.0551Y-3.3071
X4.0551Y-3.8189
X5.3543Y-3.3071
X5.3543Y-3.8189
T0
M30
