%TF.GenerationSoftware,KiCad,Pcbnew,(6.0.4-0)*%
%TF.CreationDate,2022-08-01T10:55:25-06:00*%
%TF.ProjectId,lm334-source,6c6d3333-342d-4736-9f75-7263652e6b69,rev?*%
%TF.SameCoordinates,Original*%
%TF.FileFunction,Copper,L3,Inr*%
%TF.FilePolarity,Positive*%
%FSLAX46Y46*%
G04 Gerber Fmt 4.6, Leading zero omitted, Abs format (unit mm)*
G04 Created by KiCad (PCBNEW (6.0.4-0)) date 2022-08-01 10:55:25*
%MOMM*%
%LPD*%
G01*
G04 APERTURE LIST*
%TA.AperFunction,ComponentPad*%
%ADD10C,0.700000*%
%TD*%
%TA.AperFunction,ComponentPad*%
%ADD11C,4.400000*%
%TD*%
%TA.AperFunction,ViaPad*%
%ADD12C,0.600000*%
%TD*%
G04 APERTURE END LIST*
D10*
%TO.N,GNDPWR*%
%TO.C,MH1*%
X101350000Y-84000000D03*
X103000000Y-82350000D03*
X104166726Y-85166726D03*
X104166726Y-82833274D03*
D11*
X103000000Y-84000000D03*
D10*
X104650000Y-84000000D03*
X101833274Y-82833274D03*
X101833274Y-85166726D03*
X103000000Y-85650000D03*
%TD*%
D11*
%TO.N,GNDPWR*%
%TO.C,MH2*%
X136000000Y-84000000D03*
D10*
X137166726Y-82833274D03*
X134350000Y-84000000D03*
X137650000Y-84000000D03*
X137166726Y-85166726D03*
X136000000Y-82350000D03*
X136000000Y-85650000D03*
X134833274Y-85166726D03*
X134833274Y-82833274D03*
%TD*%
%TO.N,GNDPWR*%
%TO.C,MH3*%
X101833274Y-98166726D03*
D11*
X103000000Y-97000000D03*
D10*
X104166726Y-98166726D03*
X101833274Y-95833274D03*
X104166726Y-95833274D03*
X103000000Y-95350000D03*
X104650000Y-97000000D03*
X101350000Y-97000000D03*
X103000000Y-98650000D03*
%TD*%
D11*
%TO.N,GNDPWR*%
%TO.C,MH4*%
X136000000Y-97000000D03*
D10*
X134833274Y-95833274D03*
X134350000Y-97000000D03*
X137650000Y-97000000D03*
X136000000Y-95350000D03*
X137166726Y-98166726D03*
X137166726Y-95833274D03*
X134833274Y-98166726D03*
X136000000Y-98650000D03*
%TD*%
D12*
%TO.N,GND*%
X127550000Y-91850000D03*
X127450000Y-94350000D03*
%TO.N,/Channel1/I+*%
X107950000Y-88100000D03*
X106750000Y-83450000D03*
%TO.N,GND*%
X112650000Y-88750000D03*
%TO.N,VD*%
X122950000Y-88450000D03*
X122465000Y-96965000D03*
%TO.N,+3V3*%
X121250000Y-96950000D03*
X121250000Y-87850000D03*
%TO.N,/sda-tx*%
X126350000Y-89950000D03*
X135450000Y-89950000D03*
%TO.N,GND*%
X132050000Y-92200000D03*
X124150000Y-94650000D03*
X112650000Y-93650000D03*
%TO.N,VD*%
X132000000Y-91200000D03*
X135450000Y-91250000D03*
%TD*%
%TA.AperFunction,Conductor*%
%TO.N,GND*%
G36*
X134500316Y-81528502D02*
G01*
X134546809Y-81582158D01*
X134556913Y-81652432D01*
X134527419Y-81717012D01*
X134496618Y-81742785D01*
X134478074Y-81753817D01*
X134478068Y-81753821D01*
X134474814Y-81755757D01*
X134216244Y-81955243D01*
X133983513Y-82184347D01*
X133981149Y-82187314D01*
X133981146Y-82187317D01*
X133964220Y-82208558D01*
X133779991Y-82439751D01*
X133608626Y-82717757D01*
X133607037Y-82721204D01*
X133510393Y-82930843D01*
X133471902Y-83014336D01*
X133470741Y-83017940D01*
X133470741Y-83017941D01*
X133462196Y-83044477D01*
X133371797Y-83325192D01*
X133371079Y-83328903D01*
X133371078Y-83328907D01*
X133310482Y-83642105D01*
X133310481Y-83642114D01*
X133309763Y-83645824D01*
X133309496Y-83649600D01*
X133309495Y-83649605D01*
X133297296Y-83821902D01*
X133286698Y-83971585D01*
X133288003Y-83997790D01*
X133301196Y-84262800D01*
X133302936Y-84297759D01*
X133303577Y-84301490D01*
X133303578Y-84301498D01*
X133318109Y-84386060D01*
X133358241Y-84619619D01*
X133451814Y-84932504D01*
X133582297Y-85231881D01*
X133584220Y-85235152D01*
X133584222Y-85235156D01*
X133626584Y-85307215D01*
X133747802Y-85513414D01*
X133750103Y-85516429D01*
X133943631Y-85770012D01*
X133943636Y-85770017D01*
X133945931Y-85773025D01*
X134173814Y-86006953D01*
X134246635Y-86065607D01*
X134425196Y-86209431D01*
X134425201Y-86209435D01*
X134428149Y-86211809D01*
X134705253Y-86384627D01*
X135001112Y-86522903D01*
X135311440Y-86624634D01*
X135631742Y-86688346D01*
X135635514Y-86688633D01*
X135635522Y-86688634D01*
X135953602Y-86712829D01*
X135953607Y-86712829D01*
X135957379Y-86713116D01*
X136283633Y-86698586D01*
X136343425Y-86688634D01*
X136602037Y-86645590D01*
X136602042Y-86645589D01*
X136605778Y-86644967D01*
X136919149Y-86553034D01*
X136922616Y-86551544D01*
X136922620Y-86551543D01*
X137215721Y-86425616D01*
X137215723Y-86425615D01*
X137219205Y-86424119D01*
X137501601Y-86260091D01*
X137762245Y-86063324D01*
X137997363Y-85836670D01*
X138203549Y-85583410D01*
X138258939Y-85495622D01*
X138312205Y-85448685D01*
X138382392Y-85437996D01*
X138447217Y-85466951D01*
X138486096Y-85526355D01*
X138491500Y-85562859D01*
X138491500Y-95433521D01*
X138471498Y-95501642D01*
X138417842Y-95548135D01*
X138347568Y-95558239D01*
X138282988Y-95528745D01*
X138257557Y-95498515D01*
X138236226Y-95463084D01*
X138233899Y-95460100D01*
X138233894Y-95460093D01*
X138037726Y-95208558D01*
X138037724Y-95208556D01*
X138035390Y-95205563D01*
X137805070Y-94974034D01*
X137548603Y-94771852D01*
X137269705Y-94601945D01*
X137266261Y-94600379D01*
X137266257Y-94600377D01*
X137155667Y-94550095D01*
X136972414Y-94466775D01*
X136661037Y-94368300D01*
X136443492Y-94327390D01*
X136343809Y-94308645D01*
X136343807Y-94308645D01*
X136340086Y-94307945D01*
X136014208Y-94286586D01*
X136010428Y-94286794D01*
X136010427Y-94286794D01*
X135912897Y-94292162D01*
X135688124Y-94304532D01*
X135684397Y-94305193D01*
X135684393Y-94305193D01*
X135527340Y-94333027D01*
X135366557Y-94361522D01*
X135362941Y-94362624D01*
X135362933Y-94362626D01*
X135057789Y-94455627D01*
X135054167Y-94456731D01*
X134755477Y-94588781D01*
X134730041Y-94603914D01*
X134478074Y-94753817D01*
X134478068Y-94753821D01*
X134474814Y-94755757D01*
X134216244Y-94955243D01*
X133983513Y-95184347D01*
X133981149Y-95187314D01*
X133981146Y-95187317D01*
X133964220Y-95208558D01*
X133779991Y-95439751D01*
X133608626Y-95717757D01*
X133471902Y-96014336D01*
X133470741Y-96017940D01*
X133470741Y-96017941D01*
X133462196Y-96044477D01*
X133371797Y-96325192D01*
X133371079Y-96328903D01*
X133371078Y-96328907D01*
X133310482Y-96642105D01*
X133310481Y-96642114D01*
X133309763Y-96645824D01*
X133309496Y-96649600D01*
X133309495Y-96649605D01*
X133288534Y-96945653D01*
X133286698Y-96971585D01*
X133288003Y-96997790D01*
X133294378Y-97125844D01*
X133302936Y-97297759D01*
X133303577Y-97301490D01*
X133303578Y-97301498D01*
X133357116Y-97613069D01*
X133358241Y-97619619D01*
X133359329Y-97623258D01*
X133359330Y-97623261D01*
X133401013Y-97762637D01*
X133451814Y-97932504D01*
X133582297Y-98231881D01*
X133584220Y-98235152D01*
X133584222Y-98235156D01*
X133626584Y-98307215D01*
X133747802Y-98513414D01*
X133750103Y-98516429D01*
X133943631Y-98770012D01*
X133943636Y-98770017D01*
X133945931Y-98773025D01*
X134173814Y-99006953D01*
X134246635Y-99065607D01*
X134425196Y-99209431D01*
X134425201Y-99209435D01*
X134428149Y-99211809D01*
X134431371Y-99213818D01*
X134431376Y-99213822D01*
X134503156Y-99258588D01*
X134550373Y-99311607D01*
X134561429Y-99381738D01*
X134532815Y-99446713D01*
X134473615Y-99485903D01*
X134436480Y-99491500D01*
X104570222Y-99491500D01*
X104502101Y-99471498D01*
X104455608Y-99417842D01*
X104445504Y-99347568D01*
X104474998Y-99282988D01*
X104499890Y-99261085D01*
X104501601Y-99260091D01*
X104504623Y-99257810D01*
X104504627Y-99257807D01*
X104759221Y-99065607D01*
X104759222Y-99065606D01*
X104762245Y-99063324D01*
X104997363Y-98836670D01*
X105203549Y-98583410D01*
X105255429Y-98501185D01*
X105375788Y-98310428D01*
X105375790Y-98310425D01*
X105377815Y-98307215D01*
X105517638Y-98012084D01*
X105544188Y-97932504D01*
X105619790Y-97705897D01*
X105619792Y-97705891D01*
X105620992Y-97702293D01*
X105686381Y-97382329D01*
X105689599Y-97342773D01*
X105712674Y-97059061D01*
X105712856Y-97056826D01*
X105713451Y-97000000D01*
X105712711Y-96987717D01*
X105709752Y-96938640D01*
X120436463Y-96938640D01*
X120454163Y-97119160D01*
X120511418Y-97291273D01*
X120515065Y-97297295D01*
X120515066Y-97297297D01*
X120568823Y-97386060D01*
X120605380Y-97446424D01*
X120731382Y-97576902D01*
X120883159Y-97676222D01*
X120889763Y-97678678D01*
X120889765Y-97678679D01*
X121046558Y-97736990D01*
X121046560Y-97736990D01*
X121053168Y-97739448D01*
X121136995Y-97750633D01*
X121225980Y-97762507D01*
X121225984Y-97762507D01*
X121232961Y-97763438D01*
X121239972Y-97762800D01*
X121239976Y-97762800D01*
X121382459Y-97749832D01*
X121413600Y-97746998D01*
X121420302Y-97744820D01*
X121420304Y-97744820D01*
X121579409Y-97693124D01*
X121579412Y-97693123D01*
X121586108Y-97690947D01*
X121712044Y-97615874D01*
X121735860Y-97601677D01*
X121735862Y-97601676D01*
X121741912Y-97598069D01*
X121760920Y-97579968D01*
X121824045Y-97547476D01*
X121894716Y-97554269D01*
X121938444Y-97583682D01*
X121946382Y-97591902D01*
X121961320Y-97601677D01*
X122092227Y-97687340D01*
X122098159Y-97691222D01*
X122104763Y-97693678D01*
X122104765Y-97693679D01*
X122261558Y-97751990D01*
X122261560Y-97751990D01*
X122268168Y-97754448D01*
X122335544Y-97763438D01*
X122440980Y-97777507D01*
X122440984Y-97777507D01*
X122447961Y-97778438D01*
X122454972Y-97777800D01*
X122454976Y-97777800D01*
X122597459Y-97764832D01*
X122628600Y-97761998D01*
X122635302Y-97759820D01*
X122635304Y-97759820D01*
X122794409Y-97708124D01*
X122794412Y-97708123D01*
X122801108Y-97705947D01*
X122939815Y-97623261D01*
X122950860Y-97616677D01*
X122950862Y-97616676D01*
X122956912Y-97613069D01*
X123088266Y-97487982D01*
X123188643Y-97336902D01*
X123253055Y-97167338D01*
X123268272Y-97059061D01*
X123277748Y-96991639D01*
X123277748Y-96991636D01*
X123278299Y-96987717D01*
X123278616Y-96965000D01*
X123258397Y-96784745D01*
X123247017Y-96752066D01*
X123201064Y-96620106D01*
X123201062Y-96620103D01*
X123198745Y-96613448D01*
X123102626Y-96459624D01*
X123010832Y-96367187D01*
X122979778Y-96335915D01*
X122979774Y-96335912D01*
X122974815Y-96330918D01*
X122965793Y-96325192D01*
X122915538Y-96293300D01*
X122821666Y-96233727D01*
X122765755Y-96213818D01*
X122657425Y-96175243D01*
X122657420Y-96175242D01*
X122650790Y-96172881D01*
X122643802Y-96172048D01*
X122643799Y-96172047D01*
X122503889Y-96155364D01*
X122470680Y-96151404D01*
X122463677Y-96152140D01*
X122463676Y-96152140D01*
X122297288Y-96169628D01*
X122297286Y-96169629D01*
X122290288Y-96170364D01*
X122118579Y-96228818D01*
X122112575Y-96232512D01*
X121970090Y-96320169D01*
X121970087Y-96320171D01*
X121964088Y-96323862D01*
X121953925Y-96333815D01*
X121891262Y-96367187D01*
X121820503Y-96361384D01*
X121776359Y-96332578D01*
X121774711Y-96330918D01*
X121759815Y-96315918D01*
X121748697Y-96308862D01*
X121630302Y-96233727D01*
X121606666Y-96218727D01*
X121577463Y-96208328D01*
X121442425Y-96160243D01*
X121442420Y-96160242D01*
X121435790Y-96157881D01*
X121428802Y-96157048D01*
X121428799Y-96157047D01*
X121305698Y-96142368D01*
X121255680Y-96136404D01*
X121248677Y-96137140D01*
X121248676Y-96137140D01*
X121082288Y-96154628D01*
X121082286Y-96154629D01*
X121075288Y-96155364D01*
X120903579Y-96213818D01*
X120871218Y-96233727D01*
X120755095Y-96305166D01*
X120755092Y-96305168D01*
X120749088Y-96308862D01*
X120744053Y-96313793D01*
X120744050Y-96313795D01*
X120634208Y-96421361D01*
X120619493Y-96435771D01*
X120521235Y-96588238D01*
X120518826Y-96594858D01*
X120518824Y-96594861D01*
X120488639Y-96677793D01*
X120459197Y-96758685D01*
X120436463Y-96938640D01*
X105709752Y-96938640D01*
X105694026Y-96677793D01*
X105694026Y-96677789D01*
X105693798Y-96674015D01*
X105688650Y-96645824D01*
X105635805Y-96356473D01*
X105635804Y-96356469D01*
X105635125Y-96352751D01*
X105629898Y-96335915D01*
X105539404Y-96044477D01*
X105538282Y-96040863D01*
X105404670Y-95742869D01*
X105236226Y-95463084D01*
X105233899Y-95460100D01*
X105233894Y-95460093D01*
X105037726Y-95208558D01*
X105037724Y-95208556D01*
X105035390Y-95205563D01*
X104805070Y-94974034D01*
X104548603Y-94771852D01*
X104269705Y-94601945D01*
X104266261Y-94600379D01*
X104266257Y-94600377D01*
X104155667Y-94550095D01*
X103972414Y-94466775D01*
X103661037Y-94368300D01*
X103443492Y-94327390D01*
X103343809Y-94308645D01*
X103343807Y-94308645D01*
X103340086Y-94307945D01*
X103014208Y-94286586D01*
X103010428Y-94286794D01*
X103010427Y-94286794D01*
X102912897Y-94292162D01*
X102688124Y-94304532D01*
X102684397Y-94305193D01*
X102684393Y-94305193D01*
X102527340Y-94333027D01*
X102366557Y-94361522D01*
X102362941Y-94362624D01*
X102362933Y-94362626D01*
X102057789Y-94455627D01*
X102054167Y-94456731D01*
X101755477Y-94588781D01*
X101730041Y-94603914D01*
X101478074Y-94753817D01*
X101478068Y-94753821D01*
X101474814Y-94755757D01*
X101216244Y-94955243D01*
X100983513Y-95184347D01*
X100981149Y-95187314D01*
X100981146Y-95187317D01*
X100964220Y-95208558D01*
X100779991Y-95439751D01*
X100778000Y-95442981D01*
X100741760Y-95501773D01*
X100688988Y-95549266D01*
X100618916Y-95560690D01*
X100553792Y-95532416D01*
X100514293Y-95473422D01*
X100508500Y-95435657D01*
X100508500Y-91188640D01*
X131186463Y-91188640D01*
X131204163Y-91369160D01*
X131261418Y-91541273D01*
X131265065Y-91547295D01*
X131265066Y-91547297D01*
X131275978Y-91565314D01*
X131355380Y-91696424D01*
X131481382Y-91826902D01*
X131633159Y-91926222D01*
X131639763Y-91928678D01*
X131639765Y-91928679D01*
X131796558Y-91986990D01*
X131796560Y-91986990D01*
X131803168Y-91989448D01*
X131886995Y-92000633D01*
X131975980Y-92012507D01*
X131975984Y-92012507D01*
X131982961Y-92013438D01*
X131989972Y-92012800D01*
X131989976Y-92012800D01*
X132132459Y-91999832D01*
X132163600Y-91996998D01*
X132170302Y-91994820D01*
X132170304Y-91994820D01*
X132329409Y-91943124D01*
X132329412Y-91943123D01*
X132336108Y-91940947D01*
X132491912Y-91848069D01*
X132623266Y-91722982D01*
X132723643Y-91571902D01*
X132781665Y-91419160D01*
X132785555Y-91408920D01*
X132785556Y-91408918D01*
X132788055Y-91402338D01*
X132789035Y-91395366D01*
X132811061Y-91238640D01*
X134636463Y-91238640D01*
X134654163Y-91419160D01*
X134711418Y-91591273D01*
X134715065Y-91597295D01*
X134715066Y-91597297D01*
X134794126Y-91727841D01*
X134805380Y-91746424D01*
X134931382Y-91876902D01*
X135083159Y-91976222D01*
X135089763Y-91978678D01*
X135089765Y-91978679D01*
X135246558Y-92036990D01*
X135246560Y-92036990D01*
X135253168Y-92039448D01*
X135336995Y-92050633D01*
X135425980Y-92062507D01*
X135425984Y-92062507D01*
X135432961Y-92063438D01*
X135439972Y-92062800D01*
X135439976Y-92062800D01*
X135582459Y-92049832D01*
X135613600Y-92046998D01*
X135620302Y-92044820D01*
X135620304Y-92044820D01*
X135779409Y-91993124D01*
X135779412Y-91993123D01*
X135786108Y-91990947D01*
X135941912Y-91898069D01*
X136073266Y-91772982D01*
X136173643Y-91621902D01*
X136238055Y-91452338D01*
X136239035Y-91445366D01*
X136262748Y-91276639D01*
X136262748Y-91276636D01*
X136263299Y-91272717D01*
X136263616Y-91250000D01*
X136243397Y-91069745D01*
X136241080Y-91063091D01*
X136186064Y-90905106D01*
X136186062Y-90905103D01*
X136183745Y-90898448D01*
X136152502Y-90848448D01*
X136091359Y-90750598D01*
X136087626Y-90744624D01*
X136033012Y-90689627D01*
X136032667Y-90689280D01*
X135998860Y-90626849D01*
X136004172Y-90556052D01*
X136035181Y-90509251D01*
X136068159Y-90477846D01*
X136068162Y-90477843D01*
X136073266Y-90472982D01*
X136173643Y-90321902D01*
X136238055Y-90152338D01*
X136239035Y-90145366D01*
X136262748Y-89976639D01*
X136262748Y-89976636D01*
X136263299Y-89972717D01*
X136263616Y-89950000D01*
X136243397Y-89769745D01*
X136241080Y-89763091D01*
X136186064Y-89605106D01*
X136186062Y-89605103D01*
X136183745Y-89598448D01*
X136087626Y-89444624D01*
X136073941Y-89430843D01*
X135964778Y-89320915D01*
X135964774Y-89320912D01*
X135959815Y-89315918D01*
X135948697Y-89308862D01*
X135847782Y-89244820D01*
X135806666Y-89218727D01*
X135777463Y-89208328D01*
X135642425Y-89160243D01*
X135642420Y-89160242D01*
X135635790Y-89157881D01*
X135628802Y-89157048D01*
X135628799Y-89157047D01*
X135505698Y-89142368D01*
X135455680Y-89136404D01*
X135448677Y-89137140D01*
X135448676Y-89137140D01*
X135282288Y-89154628D01*
X135282286Y-89154629D01*
X135275288Y-89155364D01*
X135103579Y-89213818D01*
X135097575Y-89217512D01*
X134955095Y-89305166D01*
X134955092Y-89305168D01*
X134949088Y-89308862D01*
X134944053Y-89313793D01*
X134944050Y-89313795D01*
X134824525Y-89430843D01*
X134819493Y-89435771D01*
X134721235Y-89588238D01*
X134718826Y-89594858D01*
X134718824Y-89594861D01*
X134661606Y-89752066D01*
X134659197Y-89758685D01*
X134636463Y-89938640D01*
X134654163Y-90119160D01*
X134711418Y-90291273D01*
X134715065Y-90297295D01*
X134715066Y-90297297D01*
X134782038Y-90407881D01*
X134805380Y-90446424D01*
X134831027Y-90472982D01*
X134868932Y-90512234D01*
X134901864Y-90575131D01*
X134895564Y-90645847D01*
X134866453Y-90689784D01*
X134861511Y-90694624D01*
X134819493Y-90735771D01*
X134721235Y-90888238D01*
X134718826Y-90894858D01*
X134718824Y-90894861D01*
X134661606Y-91052066D01*
X134659197Y-91058685D01*
X134636463Y-91238640D01*
X132811061Y-91238640D01*
X132812748Y-91226639D01*
X132812748Y-91226636D01*
X132813299Y-91222717D01*
X132813616Y-91200000D01*
X132793397Y-91019745D01*
X132791080Y-91013091D01*
X132736064Y-90855106D01*
X132736062Y-90855103D01*
X132733745Y-90848448D01*
X132637626Y-90694624D01*
X132615521Y-90672364D01*
X132514778Y-90570915D01*
X132514774Y-90570912D01*
X132509815Y-90565918D01*
X132498697Y-90558862D01*
X132371027Y-90477841D01*
X132356666Y-90468727D01*
X132294032Y-90446424D01*
X132192425Y-90410243D01*
X132192420Y-90410242D01*
X132185790Y-90407881D01*
X132178802Y-90407048D01*
X132178799Y-90407047D01*
X132055698Y-90392368D01*
X132005680Y-90386404D01*
X131998677Y-90387140D01*
X131998676Y-90387140D01*
X131832288Y-90404628D01*
X131832286Y-90404629D01*
X131825288Y-90405364D01*
X131653579Y-90463818D01*
X131630785Y-90477841D01*
X131505095Y-90555166D01*
X131505092Y-90555168D01*
X131499088Y-90558862D01*
X131494053Y-90563793D01*
X131494050Y-90563795D01*
X131379244Y-90676222D01*
X131369493Y-90685771D01*
X131271235Y-90838238D01*
X131268826Y-90844858D01*
X131268824Y-90844861D01*
X131249320Y-90898448D01*
X131209197Y-91008685D01*
X131186463Y-91188640D01*
X100508500Y-91188640D01*
X100508500Y-89938640D01*
X125536463Y-89938640D01*
X125554163Y-90119160D01*
X125611418Y-90291273D01*
X125615065Y-90297295D01*
X125615066Y-90297297D01*
X125682038Y-90407881D01*
X125705380Y-90446424D01*
X125710269Y-90451487D01*
X125710270Y-90451488D01*
X125726918Y-90468727D01*
X125831382Y-90576902D01*
X125983159Y-90676222D01*
X125989763Y-90678678D01*
X125989765Y-90678679D01*
X126146558Y-90736990D01*
X126146560Y-90736990D01*
X126153168Y-90739448D01*
X126236732Y-90750598D01*
X126325980Y-90762507D01*
X126325984Y-90762507D01*
X126332961Y-90763438D01*
X126339972Y-90762800D01*
X126339976Y-90762800D01*
X126482459Y-90749832D01*
X126513600Y-90746998D01*
X126520302Y-90744820D01*
X126520304Y-90744820D01*
X126679409Y-90693124D01*
X126679412Y-90693123D01*
X126686108Y-90690947D01*
X126841912Y-90598069D01*
X126973266Y-90472982D01*
X127073643Y-90321902D01*
X127138055Y-90152338D01*
X127139035Y-90145366D01*
X127162748Y-89976639D01*
X127162748Y-89976636D01*
X127163299Y-89972717D01*
X127163616Y-89950000D01*
X127143397Y-89769745D01*
X127141080Y-89763091D01*
X127086064Y-89605106D01*
X127086062Y-89605103D01*
X127083745Y-89598448D01*
X126987626Y-89444624D01*
X126973941Y-89430843D01*
X126864778Y-89320915D01*
X126864774Y-89320912D01*
X126859815Y-89315918D01*
X126848697Y-89308862D01*
X126747782Y-89244820D01*
X126706666Y-89218727D01*
X126677463Y-89208328D01*
X126542425Y-89160243D01*
X126542420Y-89160242D01*
X126535790Y-89157881D01*
X126528802Y-89157048D01*
X126528799Y-89157047D01*
X126405698Y-89142368D01*
X126355680Y-89136404D01*
X126348677Y-89137140D01*
X126348676Y-89137140D01*
X126182288Y-89154628D01*
X126182286Y-89154629D01*
X126175288Y-89155364D01*
X126003579Y-89213818D01*
X125997575Y-89217512D01*
X125855095Y-89305166D01*
X125855092Y-89305168D01*
X125849088Y-89308862D01*
X125844053Y-89313793D01*
X125844050Y-89313795D01*
X125724525Y-89430843D01*
X125719493Y-89435771D01*
X125621235Y-89588238D01*
X125618826Y-89594858D01*
X125618824Y-89594861D01*
X125561606Y-89752066D01*
X125559197Y-89758685D01*
X125536463Y-89938640D01*
X100508500Y-89938640D01*
X100508500Y-88088640D01*
X107136463Y-88088640D01*
X107154163Y-88269160D01*
X107211418Y-88441273D01*
X107215065Y-88447295D01*
X107215066Y-88447297D01*
X107299879Y-88587340D01*
X107305380Y-88596424D01*
X107431382Y-88726902D01*
X107583159Y-88826222D01*
X107589763Y-88828678D01*
X107589765Y-88828679D01*
X107746558Y-88886990D01*
X107746560Y-88886990D01*
X107753168Y-88889448D01*
X107836995Y-88900633D01*
X107925980Y-88912507D01*
X107925984Y-88912507D01*
X107932961Y-88913438D01*
X107939972Y-88912800D01*
X107939976Y-88912800D01*
X108082459Y-88899832D01*
X108113600Y-88896998D01*
X108120302Y-88894820D01*
X108120304Y-88894820D01*
X108279409Y-88843124D01*
X108279412Y-88843123D01*
X108286108Y-88840947D01*
X108441912Y-88748069D01*
X108573266Y-88622982D01*
X108673643Y-88471902D01*
X108719214Y-88351938D01*
X108735555Y-88308920D01*
X108735556Y-88308918D01*
X108738055Y-88302338D01*
X108741652Y-88276744D01*
X108762748Y-88126639D01*
X108762748Y-88126636D01*
X108763299Y-88122717D01*
X108763616Y-88100000D01*
X108743397Y-87919745D01*
X108741080Y-87913091D01*
X108715154Y-87838640D01*
X120436463Y-87838640D01*
X120454163Y-88019160D01*
X120511418Y-88191273D01*
X120515065Y-88197295D01*
X120515066Y-88197297D01*
X120578681Y-88302338D01*
X120605380Y-88346424D01*
X120731382Y-88476902D01*
X120883159Y-88576222D01*
X120889763Y-88578678D01*
X120889765Y-88578679D01*
X121046558Y-88636990D01*
X121046560Y-88636990D01*
X121053168Y-88639448D01*
X121136995Y-88650633D01*
X121225980Y-88662507D01*
X121225984Y-88662507D01*
X121232961Y-88663438D01*
X121239972Y-88662800D01*
X121239976Y-88662800D01*
X121382459Y-88649832D01*
X121413600Y-88646998D01*
X121420302Y-88644820D01*
X121420304Y-88644820D01*
X121579409Y-88593124D01*
X121579412Y-88593123D01*
X121586108Y-88590947D01*
X121741912Y-88498069D01*
X121873266Y-88372982D01*
X121911217Y-88315861D01*
X121965574Y-88270192D01*
X122035994Y-88261160D01*
X122100118Y-88291634D01*
X122137587Y-88351938D01*
X122141170Y-88401382D01*
X122136463Y-88438640D01*
X122154163Y-88619160D01*
X122211418Y-88791273D01*
X122215065Y-88797295D01*
X122215066Y-88797297D01*
X122285017Y-88912800D01*
X122305380Y-88946424D01*
X122431382Y-89076902D01*
X122437278Y-89080760D01*
X122558741Y-89160243D01*
X122583159Y-89176222D01*
X122589763Y-89178678D01*
X122589765Y-89178679D01*
X122746558Y-89236990D01*
X122746560Y-89236990D01*
X122753168Y-89239448D01*
X122836995Y-89250633D01*
X122925980Y-89262507D01*
X122925984Y-89262507D01*
X122932961Y-89263438D01*
X122939972Y-89262800D01*
X122939976Y-89262800D01*
X123082459Y-89249832D01*
X123113600Y-89246998D01*
X123120302Y-89244820D01*
X123120304Y-89244820D01*
X123279409Y-89193124D01*
X123279412Y-89193123D01*
X123286108Y-89190947D01*
X123441912Y-89098069D01*
X123573266Y-88972982D01*
X123673643Y-88821902D01*
X123715423Y-88711917D01*
X123735555Y-88658920D01*
X123735556Y-88658918D01*
X123738055Y-88652338D01*
X123741498Y-88627841D01*
X123762748Y-88476639D01*
X123762748Y-88476636D01*
X123763299Y-88472717D01*
X123763616Y-88450000D01*
X123743397Y-88269745D01*
X123741080Y-88263091D01*
X123686064Y-88105106D01*
X123686062Y-88105103D01*
X123683745Y-88098448D01*
X123587626Y-87944624D01*
X123573941Y-87930843D01*
X123464778Y-87820915D01*
X123464774Y-87820912D01*
X123459815Y-87815918D01*
X123448697Y-87808862D01*
X123353499Y-87748448D01*
X123306666Y-87718727D01*
X123277463Y-87708328D01*
X123142425Y-87660243D01*
X123142420Y-87660242D01*
X123135790Y-87657881D01*
X123128802Y-87657048D01*
X123128799Y-87657047D01*
X123005698Y-87642368D01*
X122955680Y-87636404D01*
X122948677Y-87637140D01*
X122948676Y-87637140D01*
X122782288Y-87654628D01*
X122782286Y-87654629D01*
X122775288Y-87655364D01*
X122603579Y-87713818D01*
X122597575Y-87717512D01*
X122455095Y-87805166D01*
X122455092Y-87805168D01*
X122449088Y-87808862D01*
X122444053Y-87813793D01*
X122444050Y-87813795D01*
X122353911Y-87902066D01*
X122319493Y-87935771D01*
X122315680Y-87941688D01*
X122315679Y-87941689D01*
X122290956Y-87980052D01*
X122237241Y-88026476D01*
X122166954Y-88036490D01*
X122102411Y-88006915D01*
X122064104Y-87947140D01*
X122060271Y-87894261D01*
X122063299Y-87872717D01*
X122063616Y-87850000D01*
X122043397Y-87669745D01*
X122040088Y-87660243D01*
X121986064Y-87505106D01*
X121986062Y-87505103D01*
X121983745Y-87498448D01*
X121956700Y-87455166D01*
X121891359Y-87350598D01*
X121887626Y-87344624D01*
X121851139Y-87307881D01*
X121764778Y-87220915D01*
X121764774Y-87220912D01*
X121759815Y-87215918D01*
X121748697Y-87208862D01*
X121700538Y-87178300D01*
X121606666Y-87118727D01*
X121577463Y-87108328D01*
X121442425Y-87060243D01*
X121442420Y-87060242D01*
X121435790Y-87057881D01*
X121428802Y-87057048D01*
X121428799Y-87057047D01*
X121305698Y-87042368D01*
X121255680Y-87036404D01*
X121248677Y-87037140D01*
X121248676Y-87037140D01*
X121082288Y-87054628D01*
X121082286Y-87054629D01*
X121075288Y-87055364D01*
X120903579Y-87113818D01*
X120897575Y-87117512D01*
X120755095Y-87205166D01*
X120755092Y-87205168D01*
X120749088Y-87208862D01*
X120744053Y-87213793D01*
X120744050Y-87213795D01*
X120647973Y-87307881D01*
X120619493Y-87335771D01*
X120521235Y-87488238D01*
X120518826Y-87494858D01*
X120518824Y-87494861D01*
X120484332Y-87589627D01*
X120459197Y-87658685D01*
X120436463Y-87838640D01*
X108715154Y-87838640D01*
X108686064Y-87755106D01*
X108686062Y-87755103D01*
X108683745Y-87748448D01*
X108587626Y-87594624D01*
X108573941Y-87580843D01*
X108464778Y-87470915D01*
X108464774Y-87470912D01*
X108459815Y-87465918D01*
X108448697Y-87458862D01*
X108400538Y-87428300D01*
X108306666Y-87368727D01*
X108238977Y-87344624D01*
X108142425Y-87310243D01*
X108142420Y-87310242D01*
X108135790Y-87307881D01*
X108128802Y-87307048D01*
X108128799Y-87307047D01*
X108005698Y-87292368D01*
X107955680Y-87286404D01*
X107948677Y-87287140D01*
X107948676Y-87287140D01*
X107782288Y-87304628D01*
X107782286Y-87304629D01*
X107775288Y-87305364D01*
X107603579Y-87363818D01*
X107597575Y-87367512D01*
X107455095Y-87455166D01*
X107455092Y-87455168D01*
X107449088Y-87458862D01*
X107444053Y-87463793D01*
X107444050Y-87463795D01*
X107412327Y-87494861D01*
X107319493Y-87585771D01*
X107221235Y-87738238D01*
X107218826Y-87744858D01*
X107218824Y-87744861D01*
X107172288Y-87872717D01*
X107159197Y-87908685D01*
X107136463Y-88088640D01*
X100508500Y-88088640D01*
X100508500Y-85569306D01*
X100528502Y-85501185D01*
X100582158Y-85454692D01*
X100652432Y-85444588D01*
X100717012Y-85474082D01*
X100743122Y-85505453D01*
X100747802Y-85513414D01*
X100750103Y-85516429D01*
X100943631Y-85770012D01*
X100943636Y-85770017D01*
X100945931Y-85773025D01*
X101173814Y-86006953D01*
X101246635Y-86065607D01*
X101425196Y-86209431D01*
X101425201Y-86209435D01*
X101428149Y-86211809D01*
X101705253Y-86384627D01*
X102001112Y-86522903D01*
X102311440Y-86624634D01*
X102631742Y-86688346D01*
X102635514Y-86688633D01*
X102635522Y-86688634D01*
X102953602Y-86712829D01*
X102953607Y-86712829D01*
X102957379Y-86713116D01*
X103283633Y-86698586D01*
X103343425Y-86688634D01*
X103602037Y-86645590D01*
X103602042Y-86645589D01*
X103605778Y-86644967D01*
X103919149Y-86553034D01*
X103922616Y-86551544D01*
X103922620Y-86551543D01*
X104215721Y-86425616D01*
X104215723Y-86425615D01*
X104219205Y-86424119D01*
X104501601Y-86260091D01*
X104762245Y-86063324D01*
X104997363Y-85836670D01*
X105203549Y-85583410D01*
X105255429Y-85501185D01*
X105375788Y-85310428D01*
X105375790Y-85310425D01*
X105377815Y-85307215D01*
X105517638Y-85012084D01*
X105544188Y-84932504D01*
X105619790Y-84705897D01*
X105619792Y-84705891D01*
X105620992Y-84702293D01*
X105686381Y-84382329D01*
X105692956Y-84301498D01*
X105709501Y-84098069D01*
X105712856Y-84056826D01*
X105713451Y-84000000D01*
X105711510Y-83967796D01*
X105694026Y-83677793D01*
X105694026Y-83677789D01*
X105693798Y-83674015D01*
X105691042Y-83658920D01*
X105650811Y-83438640D01*
X105936463Y-83438640D01*
X105954163Y-83619160D01*
X106011418Y-83791273D01*
X106015065Y-83797295D01*
X106015066Y-83797297D01*
X106025978Y-83815314D01*
X106105380Y-83946424D01*
X106231382Y-84076902D01*
X106383159Y-84176222D01*
X106389763Y-84178678D01*
X106389765Y-84178679D01*
X106546558Y-84236990D01*
X106546560Y-84236990D01*
X106553168Y-84239448D01*
X106636995Y-84250633D01*
X106725980Y-84262507D01*
X106725984Y-84262507D01*
X106732961Y-84263438D01*
X106739972Y-84262800D01*
X106739976Y-84262800D01*
X106882459Y-84249832D01*
X106913600Y-84246998D01*
X106920302Y-84244820D01*
X106920304Y-84244820D01*
X107079409Y-84193124D01*
X107079412Y-84193123D01*
X107086108Y-84190947D01*
X107241912Y-84098069D01*
X107373266Y-83972982D01*
X107473643Y-83821902D01*
X107515423Y-83711917D01*
X107535555Y-83658920D01*
X107535556Y-83658918D01*
X107538055Y-83652338D01*
X107539493Y-83642105D01*
X107562748Y-83476639D01*
X107562748Y-83476636D01*
X107563299Y-83472717D01*
X107563616Y-83450000D01*
X107543397Y-83269745D01*
X107541080Y-83263091D01*
X107486064Y-83105106D01*
X107486062Y-83105103D01*
X107483745Y-83098448D01*
X107473662Y-83082312D01*
X107391359Y-82950598D01*
X107387626Y-82944624D01*
X107382664Y-82939627D01*
X107264778Y-82820915D01*
X107264774Y-82820912D01*
X107259815Y-82815918D01*
X107248697Y-82808862D01*
X107150174Y-82746338D01*
X107106666Y-82718727D01*
X107077463Y-82708328D01*
X106942425Y-82660243D01*
X106942420Y-82660242D01*
X106935790Y-82657881D01*
X106928802Y-82657048D01*
X106928799Y-82657047D01*
X106805698Y-82642368D01*
X106755680Y-82636404D01*
X106748677Y-82637140D01*
X106748676Y-82637140D01*
X106582288Y-82654628D01*
X106582286Y-82654629D01*
X106575288Y-82655364D01*
X106403579Y-82713818D01*
X106389457Y-82722506D01*
X106255095Y-82805166D01*
X106255092Y-82805168D01*
X106249088Y-82808862D01*
X106244053Y-82813793D01*
X106244050Y-82813795D01*
X106124525Y-82930843D01*
X106119493Y-82935771D01*
X106021235Y-83088238D01*
X106018826Y-83094858D01*
X106018824Y-83094861D01*
X105961606Y-83252066D01*
X105959197Y-83258685D01*
X105936463Y-83438640D01*
X105650811Y-83438640D01*
X105635805Y-83356473D01*
X105635804Y-83356469D01*
X105635125Y-83352751D01*
X105627722Y-83328907D01*
X105539404Y-83044477D01*
X105538282Y-83040863D01*
X105404670Y-82742869D01*
X105236226Y-82463084D01*
X105233899Y-82460100D01*
X105233894Y-82460093D01*
X105037726Y-82208558D01*
X105037724Y-82208556D01*
X105035390Y-82205563D01*
X104805070Y-81974034D01*
X104548603Y-81771852D01*
X104522184Y-81755757D01*
X104499774Y-81742105D01*
X104452005Y-81689582D01*
X104440216Y-81619571D01*
X104468148Y-81554300D01*
X104526934Y-81514492D01*
X104565328Y-81508500D01*
X134432195Y-81508500D01*
X134500316Y-81528502D01*
G37*
%TD.AperFunction*%
%TD*%
M02*
