M48
; DRILL file {KiCad (6.0.4-0)} date Friday, July 08, 2022 at 02:11:35 PM
; FORMAT={-:-/ absolute / inch / decimal}
; #@! TF.CreationDate,2022-07-08T14:11:35-06:00
; #@! TF.GenerationSoftware,Kicad,Pcbnew,(6.0.4-0)
; #@! TF.FileFunction,Plated,1,2,PTH
FMAT,2
INCH
; #@! TA.AperFunction,Plated,PTH,ViaDrill
T1C0.0157
; #@! TA.AperFunction,Plated,PTH,ComponentDrill
T2C0.0197
; #@! TA.AperFunction,Plated,PTH,ComponentDrill
T3C0.0295
; #@! TA.AperFunction,Plated,PTH,ComponentDrill
T4C0.0394
%
G90
G05
T1
X4.889Y-3.3591
X4.8898Y-3.2402
X5.4331Y-2.811
X5.4449Y-2.6388
X5.4449Y-2.9724
X5.4469Y-3.1752
X5.4488Y-3.122
X5.4803Y-2.6142
X5.5079Y-2.8661
X5.5787Y-2.7008
X5.5787Y-2.815
X5.5787Y-3.0709
X5.5787Y-3.122
X5.6685Y-2.9402
X5.6693Y-2.9843
X5.6929Y-2.6929
X5.815Y-3.0551
X5.8228Y-3.2362
X5.8228Y-3.2677
X5.8228Y-3.2992
X5.8228Y-3.3307
X5.8228Y-3.437
X5.8858Y-3.4961
X6.0118Y-3.2913
T3
X4.8425Y-2.7835
X4.8425Y-2.8622
X6.1142Y-2.5394
X6.1929Y-2.5394
T4
X5.1575Y-2.3307
X5.2575Y-2.3307
X5.3575Y-2.3307
X6.1102Y-2.2819
X6.1102Y-2.3819
T2
G00X4.6799Y-3.1291
M15
G01X4.6524Y-3.1291
M16
G05
G00X4.6799Y-3.4693
M15
G01X4.6524Y-3.4693
M16
G05
G00X4.8295Y-3.1291
M15
G01X4.802Y-3.1291
M16
G05
G00X4.8295Y-3.4693
M15
G01X4.802Y-3.4693
M16
G05
T0
M30
