%TF.GenerationSoftware,KiCad,Pcbnew,(6.0.4-0)*%
%TF.CreationDate,2022-07-08T14:11:35-06:00*%
%TF.ProjectId,TPS61165-heater-v6,54505336-3131-4363-952d-686561746572,rev?*%
%TF.SameCoordinates,Original*%
%TF.FileFunction,Copper,L1,Top*%
%TF.FilePolarity,Positive*%
%FSLAX46Y46*%
G04 Gerber Fmt 4.6, Leading zero omitted, Abs format (unit mm)*
G04 Created by KiCad (PCBNEW (6.0.4-0)) date 2022-07-08 14:11:35*
%MOMM*%
%LPD*%
G01*
G04 APERTURE LIST*
G04 Aperture macros list*
%AMRoundRect*
0 Rectangle with rounded corners*
0 $1 Rounding radius*
0 $2 $3 $4 $5 $6 $7 $8 $9 X,Y pos of 4 corners*
0 Add a 4 corners polygon primitive as box body*
4,1,4,$2,$3,$4,$5,$6,$7,$8,$9,$2,$3,0*
0 Add four circle primitives for the rounded corners*
1,1,$1+$1,$2,$3*
1,1,$1+$1,$4,$5*
1,1,$1+$1,$6,$7*
1,1,$1+$1,$8,$9*
0 Add four rect primitives between the rounded corners*
20,1,$1+$1,$2,$3,$4,$5,0*
20,1,$1+$1,$4,$5,$6,$7,0*
20,1,$1+$1,$6,$7,$8,$9,0*
20,1,$1+$1,$8,$9,$2,$3,0*%
%AMFreePoly0*
4,1,20,0.000000,0.744959,0.073905,0.744508,0.209726,0.703889,0.328688,0.626782,0.421226,0.519385,0.479903,0.390333,0.500000,0.250000,0.500000,-0.250000,0.499851,-0.262216,0.476331,-0.402017,0.414519,-0.529596,0.319384,-0.634700,0.198574,-0.708877,0.061801,-0.746166,0.000000,-0.745033,0.000000,-0.750000,-0.500000,-0.750000,-0.500000,0.750000,0.000000,0.750000,0.000000,0.744959,
0.000000,0.744959,$1*%
%AMFreePoly1*
4,1,22,0.500000,-0.750000,0.000000,-0.750000,0.000000,-0.745033,-0.079941,-0.743568,-0.215256,-0.701293,-0.333266,-0.622738,-0.424486,-0.514219,-0.481581,-0.384460,-0.499164,-0.250000,-0.500000,-0.250000,-0.500000,0.250000,-0.499164,0.250000,-0.499963,0.256109,-0.478152,0.396186,-0.417904,0.524511,-0.324060,0.630769,-0.204165,0.706417,-0.067858,0.745374,0.000000,0.744959,0.000000,0.750000,
0.500000,0.750000,0.500000,-0.750000,0.500000,-0.750000,$1*%
G04 Aperture macros list end*
%TA.AperFunction,SMDPad,CuDef*%
%ADD10R,1.600000X0.800000*%
%TD*%
%TA.AperFunction,SMDPad,CuDef*%
%ADD11R,1.600000X0.900000*%
%TD*%
%TA.AperFunction,ComponentPad*%
%ADD12O,1.700000X1.000000*%
%TD*%
%TA.AperFunction,SMDPad,CuDef*%
%ADD13R,2.825000X1.400000*%
%TD*%
%TA.AperFunction,SMDPad,CuDef*%
%ADD14RoundRect,0.237500X-0.237500X0.287500X-0.237500X-0.287500X0.237500X-0.287500X0.237500X0.287500X0*%
%TD*%
%TA.AperFunction,SMDPad,CuDef*%
%ADD15RoundRect,0.150000X-0.825000X-0.150000X0.825000X-0.150000X0.825000X0.150000X-0.825000X0.150000X0*%
%TD*%
%TA.AperFunction,SMDPad,CuDef*%
%ADD16FreePoly0,0.000000*%
%TD*%
%TA.AperFunction,SMDPad,CuDef*%
%ADD17FreePoly1,0.000000*%
%TD*%
%TA.AperFunction,SMDPad,CuDef*%
%ADD18R,0.900000X1.200000*%
%TD*%
%TA.AperFunction,SMDPad,CuDef*%
%ADD19R,1.800000X1.600000*%
%TD*%
%TA.AperFunction,SMDPad,CuDef*%
%ADD20R,5.300000X2.000000*%
%TD*%
%TA.AperFunction,SMDPad,CuDef*%
%ADD21R,1.500000X1.000000*%
%TD*%
%TA.AperFunction,SMDPad,CuDef*%
%ADD22RoundRect,0.237500X0.237500X-0.287500X0.237500X0.287500X-0.237500X0.287500X-0.237500X-0.287500X0*%
%TD*%
%TA.AperFunction,SMDPad,CuDef*%
%ADD23RoundRect,0.250000X0.650000X-0.350000X0.650000X0.350000X-0.650000X0.350000X-0.650000X-0.350000X0*%
%TD*%
%TA.AperFunction,SMDPad,CuDef*%
%ADD24RoundRect,0.150000X0.625000X-0.150000X0.625000X0.150000X-0.625000X0.150000X-0.625000X-0.150000X0*%
%TD*%
%TA.AperFunction,SMDPad,CuDef*%
%ADD25RoundRect,0.237500X-0.287500X-0.237500X0.287500X-0.237500X0.287500X0.237500X-0.287500X0.237500X0*%
%TD*%
%TA.AperFunction,ComponentPad*%
%ADD26O,1.700000X1.700000*%
%TD*%
%TA.AperFunction,ComponentPad*%
%ADD27R,1.700000X1.700000*%
%TD*%
%TA.AperFunction,SMDPad,CuDef*%
%ADD28R,1.000000X1.600000*%
%TD*%
%TA.AperFunction,SMDPad,CuDef*%
%ADD29RoundRect,0.093750X0.093750X0.106250X-0.093750X0.106250X-0.093750X-0.106250X0.093750X-0.106250X0*%
%TD*%
%TA.AperFunction,ComponentPad*%
%ADD30O,1.200000X1.750000*%
%TD*%
%TA.AperFunction,ComponentPad*%
%ADD31RoundRect,0.250000X-0.350000X-0.625000X0.350000X-0.625000X0.350000X0.625000X-0.350000X0.625000X0*%
%TD*%
%TA.AperFunction,ComponentPad*%
%ADD32O,1.750000X1.200000*%
%TD*%
%TA.AperFunction,ComponentPad*%
%ADD33RoundRect,0.250000X-0.625000X0.350000X-0.625000X-0.350000X0.625000X-0.350000X0.625000X0.350000X0*%
%TD*%
%TA.AperFunction,SMDPad,CuDef*%
%ADD34RoundRect,0.250000X0.450000X-0.325000X0.450000X0.325000X-0.450000X0.325000X-0.450000X-0.325000X0*%
%TD*%
%TA.AperFunction,SMDPad,CuDef*%
%ADD35RoundRect,0.250000X-0.450000X0.325000X-0.450000X-0.325000X0.450000X-0.325000X0.450000X0.325000X0*%
%TD*%
%TA.AperFunction,ViaPad*%
%ADD36C,0.800000*%
%TD*%
%TA.AperFunction,Conductor*%
%ADD37C,0.800000*%
%TD*%
%TA.AperFunction,Conductor*%
%ADD38C,1.000000*%
%TD*%
%TA.AperFunction,Conductor*%
%ADD39C,0.250000*%
%TD*%
G04 APERTURE END LIST*
D10*
%TO.P,J1,B5,CC2*%
%TO.N,unconnected-(J1-PadB5)*%
X122800000Y-84300000D03*
%TO.P,J1,A5,CC1*%
%TO.N,unconnected-(J1-PadA5)*%
X122800000Y-83300000D03*
%TO.P,J1,B9,VBUS*%
%TO.N,Net-(FL1-Pad2)*%
X122800000Y-82280000D03*
%TO.P,J1,A9,VBUS*%
X122800000Y-85320000D03*
D11*
%TO.P,J1,B12,GND*%
%TO.N,Net-(FL1-Pad1)*%
X122800000Y-81050000D03*
%TO.P,J1,A12,GND*%
X122800000Y-86550000D03*
D12*
%TO.P,J1,0,SHIELD*%
%TO.N,unconnected-(J1-Pad0)*%
X118520000Y-88120000D03*
X118520000Y-79480000D03*
X122320000Y-79480000D03*
X122320000Y-88120000D03*
%TD*%
D13*
%TO.P,FL1,4,4*%
%TO.N,GND*%
X135237000Y-82230000D03*
%TO.P,FL1,3,3*%
%TO.N,+5VD*%
X135237000Y-84770000D03*
%TO.P,FL1,2,2*%
%TO.N,Net-(FL1-Pad2)*%
X126763000Y-84770000D03*
%TO.P,FL1,1,1*%
%TO.N,Net-(FL1-Pad1)*%
X126763000Y-82230000D03*
%TD*%
D14*
%TO.P,R3,2*%
%TO.N,Net-(C2-Pad1)*%
X153100000Y-71775000D03*
%TO.P,R3,1*%
%TO.N,Net-(J3-Pad1)*%
X153100000Y-70025000D03*
%TD*%
D15*
%TO.P,U3,8,IN+*%
%TO.N,Net-(C2-Pad1)*%
X150575000Y-71895000D03*
%TO.P,U3,7,IN-*%
%TO.N,Net-(J3-Pad1)*%
X150575000Y-73165000D03*
%TO.P,U3,6,GND*%
%TO.N,GND*%
X150575000Y-74435000D03*
%TO.P,U3,5,VS*%
%TO.N,Net-(C4-Pad1)*%
X150575000Y-75705000D03*
%TO.P,U3,4,SCL*%
%TO.N,/scl*%
X145625000Y-75705000D03*
%TO.P,U3,3,SDA*%
%TO.N,/sda*%
X145625000Y-74435000D03*
%TO.P,U3,2,A0*%
%TO.N,Net-(JP1-Pad2)*%
X145625000Y-73165000D03*
%TO.P,U3,1,A1*%
%TO.N,Net-(JP2-Pad2)*%
X145625000Y-71895000D03*
%TD*%
D16*
%TO.P,JP3,2,B*%
%TO.N,Net-(D2-Pad1)*%
X153750000Y-88700000D03*
D17*
%TO.P,JP3,1,A*%
%TO.N,Net-(D2-Pad2)*%
X152450000Y-88700000D03*
%TD*%
D18*
%TO.P,D2,2,A*%
%TO.N,Net-(D2-Pad2)*%
X151450000Y-86100000D03*
%TO.P,D2,1,K*%
%TO.N,Net-(D2-Pad1)*%
X154750000Y-86100000D03*
%TD*%
D19*
%TO.P,U2,4*%
%TO.N,Net-(D2-Pad1)*%
X151676000Y-57630000D03*
%TO.P,U2,3*%
%TO.N,Net-(J3-Pad1)*%
X151676000Y-60170000D03*
%TO.P,U2,2*%
%TO.N,GND*%
X141924000Y-60170000D03*
%TO.P,U2,1*%
%TO.N,Net-(R2-Pad2)*%
X141924000Y-57630000D03*
%TD*%
D20*
%TO.P,L1,2,2*%
%TO.N,Net-(D1-Pad2)*%
X143400000Y-81600000D03*
%TO.P,L1,1,1*%
%TO.N,+5VD*%
X143400000Y-85000000D03*
%TD*%
D21*
%TO.P,JP2,1,A*%
%TO.N,Net-(C4-Pad1)*%
X141700000Y-74100000D03*
%TO.P,JP2,2,C*%
%TO.N,Net-(JP2-Pad2)*%
X141700000Y-72800000D03*
%TO.P,JP2,3,B*%
%TO.N,GND*%
X141700000Y-71500000D03*
%TD*%
%TO.P,JP1,1,A*%
%TO.N,Net-(C4-Pad1)*%
X138000000Y-74000000D03*
%TO.P,JP1,2,C*%
%TO.N,Net-(JP1-Pad2)*%
X138000000Y-72700000D03*
%TO.P,JP1,3,B*%
%TO.N,GND*%
X138000000Y-71400000D03*
%TD*%
D22*
%TO.P,R5,2*%
%TO.N,Net-(C4-Pad1)*%
X143400000Y-66525000D03*
%TO.P,R5,1*%
%TO.N,/scl*%
X143400000Y-68275000D03*
%TD*%
%TO.P,R4,2*%
%TO.N,Net-(C4-Pad1)*%
X140400000Y-66625000D03*
%TO.P,R4,1*%
%TO.N,/sda*%
X140400000Y-68375000D03*
%TD*%
D23*
%TO.P,J7,MP*%
%TO.N,N/C*%
X134100000Y-62700000D03*
X134100000Y-68300000D03*
D24*
%TO.P,J7,4,SCL*%
%TO.N,/scl*%
X136625000Y-64000000D03*
%TO.P,J7,3,SDA*%
%TO.N,/sda*%
X136625000Y-65000000D03*
%TO.P,J7,2,VCC*%
%TO.N,Net-(C4-Pad1)*%
X136625000Y-66000000D03*
%TO.P,J7,1,gnd*%
%TO.N,GND*%
X136625000Y-67000000D03*
%TD*%
D25*
%TO.P,C4,2*%
%TO.N,GND*%
X150975000Y-77500000D03*
%TO.P,C4,1*%
%TO.N,Net-(C4-Pad1)*%
X149225000Y-77500000D03*
%TD*%
D22*
%TO.P,R2,2*%
%TO.N,Net-(R2-Pad2)*%
X139400000Y-57625000D03*
%TO.P,R2,1*%
%TO.N,Net-(J6-Pad2)*%
X139400000Y-59375000D03*
%TD*%
D26*
%TO.P,J6,3,Pin_3*%
%TO.N,GND*%
X136080000Y-59200000D03*
%TO.P,J6,2,Pin_2*%
%TO.N,Net-(J6-Pad2)*%
X133540000Y-59200000D03*
D27*
%TO.P,J6,1,Pin_1*%
%TO.N,Net-(J6-Pad1)*%
X131000000Y-59200000D03*
%TD*%
D28*
%TO.P,U1,7,EP*%
%TO.N,GND*%
X147930000Y-83430000D03*
D29*
%TO.P,U1,6,VIN*%
%TO.N,+5VD*%
X147042500Y-84080000D03*
%TO.P,U1,5,CTRL*%
%TO.N,Net-(J6-Pad1)*%
X147042500Y-83430000D03*
%TO.P,U1,4,SW*%
%TO.N,Net-(D1-Pad2)*%
X147042500Y-82780000D03*
%TO.P,U1,3,GND*%
%TO.N,GND*%
X148817500Y-82780000D03*
%TO.P,U1,2,COMP*%
%TO.N,Net-(C1-Pad1)*%
X148817500Y-83430000D03*
%TO.P,U1,1,FB*%
%TO.N,Net-(D2-Pad2)*%
X148817500Y-84080000D03*
%TD*%
D14*
%TO.P,R1,2*%
%TO.N,GND*%
X149500000Y-87275000D03*
%TO.P,R1,1*%
%TO.N,Net-(D2-Pad2)*%
X149500000Y-85525000D03*
%TD*%
D30*
%TO.P,J4,2,-*%
%TO.N,Net-(D2-Pad1)*%
X157300000Y-64500000D03*
D31*
%TO.P,J4,1,+*%
%TO.N,Net-(J3-Pad1)*%
X155300000Y-64500000D03*
%TD*%
D26*
%TO.P,J3,2,Pin_2*%
%TO.N,Net-(D2-Pad1)*%
X155200000Y-57960000D03*
D27*
%TO.P,J3,1,Pin_1*%
%TO.N,Net-(J3-Pad1)*%
X155200000Y-60500000D03*
%TD*%
D32*
%TO.P,J2,2,-*%
%TO.N,Net-(FL1-Pad1)*%
X123000000Y-72700000D03*
D33*
%TO.P,J2,1,+*%
%TO.N,Net-(FL1-Pad2)*%
X123000000Y-70700000D03*
%TD*%
D18*
%TO.P,D1,2,A*%
%TO.N,Net-(D1-Pad2)*%
X147250000Y-80000000D03*
%TO.P,D1,1,K*%
%TO.N,Net-(C2-Pad1)*%
X150550000Y-80000000D03*
%TD*%
D34*
%TO.P,C3,2*%
%TO.N,GND*%
X138600000Y-82675000D03*
%TO.P,C3,1*%
%TO.N,+5VD*%
X138600000Y-84725000D03*
%TD*%
D35*
%TO.P,C2,2*%
%TO.N,GND*%
X152700000Y-82100000D03*
%TO.P,C2,1*%
%TO.N,Net-(C2-Pad1)*%
X152700000Y-80050000D03*
%TD*%
D22*
%TO.P,C1,2*%
%TO.N,GND*%
X150600000Y-82125000D03*
%TO.P,C1,1*%
%TO.N,Net-(C1-Pad1)*%
X150600000Y-83875000D03*
%TD*%
D36*
%TO.N,Net-(FL1-Pad2)*%
X124200000Y-82300000D03*
X124180000Y-85320000D03*
%TO.N,GND*%
X147900000Y-83800000D03*
X147900000Y-83000000D03*
X147900000Y-84600000D03*
X147900000Y-82200000D03*
X147900000Y-87300000D03*
X152700000Y-83600000D03*
X149500000Y-88800000D03*
X138400000Y-79300000D03*
X141700000Y-79300000D03*
X138350000Y-80650000D03*
X141700000Y-78000000D03*
X141700000Y-71500000D03*
X138000000Y-71400000D03*
X138300000Y-67025000D03*
%TO.N,Net-(C4-Pad1)*%
X147700000Y-77600000D03*
X138300000Y-75500000D03*
X139200000Y-66400000D03*
X139900000Y-72800000D03*
%TO.N,/scl*%
X144000000Y-75800000D03*
X144600000Y-68400000D03*
%TO.N,/sda*%
X143980154Y-74680154D03*
X141700000Y-68600000D03*
%TD*%
D37*
%TO.N,Net-(FL1-Pad2)*%
X124180000Y-82280000D02*
X124200000Y-82300000D01*
X122475000Y-82280000D02*
X124180000Y-82280000D01*
X124180000Y-85320000D02*
X126213000Y-85320000D01*
X122475000Y-85320000D02*
X124180000Y-85320000D01*
X126213000Y-85320000D02*
X126763000Y-84770000D01*
D38*
%TO.N,GND*%
X152700000Y-82100000D02*
X150800000Y-82100000D01*
D39*
X150025000Y-81200000D02*
X149900000Y-81200000D01*
X149900000Y-81200000D02*
X150800000Y-82100000D01*
X150600000Y-81775000D02*
X150025000Y-81200000D01*
X150120000Y-82780000D02*
X150600000Y-82300000D01*
X148817500Y-82780000D02*
X150120000Y-82780000D01*
X138600000Y-82675000D02*
X135682000Y-82675000D01*
X138600000Y-82675000D02*
X138600000Y-80900000D01*
X138600000Y-80900000D02*
X138350000Y-80650000D01*
X138275000Y-67000000D02*
X138300000Y-67025000D01*
X136625000Y-67000000D02*
X138275000Y-67000000D01*
%TO.N,Net-(C1-Pad1)*%
X149980000Y-83430000D02*
X148817500Y-83430000D01*
X150600000Y-84050000D02*
X149980000Y-83430000D01*
D38*
%TO.N,Net-(C2-Pad1)*%
X150550000Y-80000000D02*
X152650000Y-80000000D01*
D39*
X153100000Y-71775000D02*
X150695000Y-71775000D01*
D38*
X152700000Y-72175000D02*
X153100000Y-71775000D01*
X152700000Y-80050000D02*
X152700000Y-72175000D01*
%TO.N,+5VD*%
X135237000Y-84770000D02*
X143170000Y-84770000D01*
X145500000Y-85000000D02*
X146169990Y-84330010D01*
X146169990Y-84330010D02*
X146619962Y-84330010D01*
%TO.N,Net-(D1-Pad2)*%
X143400000Y-81600000D02*
X145900000Y-81600000D01*
X147250000Y-80950000D02*
X146600000Y-81600000D01*
X147250000Y-80000000D02*
X147250000Y-80950000D01*
X146600000Y-81600000D02*
X146700000Y-82400000D01*
X145900000Y-81600000D02*
X146600000Y-81600000D01*
D39*
X146700000Y-82625000D02*
X146700000Y-82400000D01*
X146855000Y-82780000D02*
X146700000Y-82625000D01*
X147042500Y-82780000D02*
X146855000Y-82780000D01*
D38*
%TO.N,Net-(FL1-Pad1)*%
X126763000Y-82230000D02*
X125583000Y-81050000D01*
X127475500Y-82230000D02*
X128875501Y-83630001D01*
X128875501Y-86030001D02*
X128355491Y-86550011D01*
X128875501Y-83630001D02*
X128875501Y-86030001D01*
X124600000Y-86600000D02*
X122475000Y-86550011D01*
X128355491Y-86550011D02*
X124600000Y-86600000D01*
X124300000Y-75225010D02*
X124300000Y-80974990D01*
X123000000Y-74300000D02*
X123925010Y-75225010D01*
X123900000Y-81000000D02*
X122475000Y-81050000D01*
X123925010Y-80974990D02*
X123900000Y-81000000D01*
X123000000Y-72700000D02*
X123000000Y-74300000D01*
X125583000Y-81050000D02*
X123900000Y-81000000D01*
D39*
%TO.N,Net-(D2-Pad2)*%
X149500000Y-84762500D02*
X148817500Y-84080000D01*
X149500000Y-85525000D02*
X149500000Y-84762500D01*
%TO.N,Net-(J6-Pad1)*%
X147042500Y-83430000D02*
X140943190Y-83430000D01*
X140943190Y-83430000D02*
X140000000Y-82486810D01*
X140000000Y-82486810D02*
X140000000Y-76500000D01*
X140000000Y-76500000D02*
X137300000Y-76500000D01*
X137200000Y-76500000D02*
X137300000Y-76500000D01*
X131000000Y-70300000D02*
X137200000Y-76500000D01*
X131000000Y-59200000D02*
X131000000Y-70300000D01*
D38*
%TO.N,Net-(J3-Pad1)*%
X153100000Y-66700000D02*
X155300000Y-64500000D01*
X153100000Y-70025000D02*
X153100000Y-66700000D01*
X155300000Y-64500000D02*
X155300000Y-60600000D01*
X152006000Y-60500000D02*
X151676000Y-60170000D01*
X155200000Y-60500000D02*
X152006000Y-60500000D01*
D39*
X150575000Y-73165000D02*
X149435000Y-73165000D01*
X149274990Y-73004990D02*
X149274990Y-72974990D01*
X149435000Y-73165000D02*
X149274990Y-73004990D01*
X149274990Y-72974990D02*
X149000000Y-72700000D01*
X149000000Y-72700000D02*
X149000000Y-71000000D01*
X149975000Y-70025000D02*
X153100000Y-70025000D01*
X149000000Y-71000000D02*
X149975000Y-70025000D01*
%TO.N,Net-(J6-Pad2)*%
X133540000Y-57997919D02*
X134737919Y-56800000D01*
X133540000Y-59200000D02*
X133540000Y-57997919D01*
X138925000Y-59375000D02*
X139400000Y-59375000D01*
X136350000Y-56800000D02*
X138925000Y-59375000D01*
X134737919Y-56800000D02*
X136350000Y-56800000D01*
%TO.N,Net-(R2-Pad2)*%
X141924000Y-57630000D02*
X139405000Y-57630000D01*
%TO.N,Net-(C4-Pad1)*%
X140500000Y-66500000D02*
X143700000Y-66500000D01*
X147800000Y-77500000D02*
X147700000Y-77600000D01*
X149225000Y-77500000D02*
X147800000Y-77500000D01*
X138300000Y-75500000D02*
X138300000Y-74300000D01*
X140400000Y-66100000D02*
X140400000Y-66625000D01*
X140300000Y-66000000D02*
X140400000Y-66100000D01*
X138800000Y-66000000D02*
X139200000Y-66400000D01*
X138600000Y-66000000D02*
X138800000Y-66000000D01*
X136625000Y-66000000D02*
X138600000Y-66000000D01*
X138600000Y-66000000D02*
X140300000Y-66000000D01*
X139900000Y-72800000D02*
X141200000Y-74100000D01*
X149225000Y-77055000D02*
X150575000Y-75705000D01*
X149225000Y-77500000D02*
X149225000Y-77055000D01*
%TO.N,/scl*%
X144095000Y-75705000D02*
X144000000Y-75800000D01*
X145625000Y-75705000D02*
X144095000Y-75705000D01*
X144600000Y-68400000D02*
X143525000Y-68400000D01*
X144600000Y-66404490D02*
X144600000Y-68400000D01*
X142195510Y-64000000D02*
X144600000Y-66404490D01*
X136625000Y-64000000D02*
X142195510Y-64000000D01*
%TO.N,/sda*%
X135524990Y-65325010D02*
X135524990Y-67346758D01*
X135850000Y-65000000D02*
X135524990Y-65325010D01*
X136625000Y-65000000D02*
X135850000Y-65000000D01*
X136553232Y-68375000D02*
X140400000Y-68375000D01*
X144225308Y-74435000D02*
X143980154Y-74680154D01*
X145625000Y-74435000D02*
X144225308Y-74435000D01*
X141700000Y-68600000D02*
X140625000Y-68600000D01*
X135524990Y-67346758D02*
X136553232Y-68375000D01*
%TO.N,Net-(JP2-Pad2)*%
X143605000Y-71895000D02*
X144650000Y-71895000D01*
X144650000Y-71895000D02*
X145625000Y-71895000D01*
X142700000Y-72800000D02*
X143605000Y-71895000D01*
X141700000Y-72800000D02*
X142700000Y-72800000D01*
%TO.N,Net-(JP1-Pad2)*%
X140689999Y-74925001D02*
X138464998Y-72700000D01*
X142710001Y-74925001D02*
X140689999Y-74925001D01*
X144170002Y-73465000D02*
X142710001Y-74925001D01*
X145325000Y-73465000D02*
X144170002Y-73465000D01*
X145625000Y-73165000D02*
X145325000Y-73465000D01*
D38*
%TO.N,Net-(D2-Pad2)*%
X150875000Y-85525000D02*
X151450000Y-86100000D01*
X149500000Y-85525000D02*
X150875000Y-85525000D01*
X152450000Y-87100000D02*
X151450000Y-86100000D01*
X152450000Y-88700000D02*
X152450000Y-87100000D01*
%TO.N,Net-(D2-Pad1)*%
X153750000Y-87100000D02*
X154750000Y-86100000D01*
X153750000Y-88700000D02*
X153750000Y-87100000D01*
X157300000Y-85000000D02*
X157300000Y-64500000D01*
X156200000Y-86100000D02*
X157300000Y-85000000D01*
X154750000Y-86100000D02*
X156200000Y-86100000D01*
X156402081Y-57960000D02*
X155200000Y-57960000D01*
X157300000Y-58857919D02*
X156402081Y-57960000D01*
X157300000Y-64500000D02*
X157300000Y-58857919D01*
X152006000Y-57960000D02*
X151676000Y-57630000D01*
X155200000Y-57960000D02*
X152006000Y-57960000D01*
%TD*%
%TA.AperFunction,Conductor*%
%TO.N,GND*%
G36*
X159433621Y-55528502D02*
G01*
X159480114Y-55582158D01*
X159491500Y-55634500D01*
X159491500Y-89365500D01*
X159471498Y-89433621D01*
X159417842Y-89480114D01*
X159365500Y-89491500D01*
X154813710Y-89491500D01*
X154745589Y-89471498D01*
X154699096Y-89417842D01*
X154688992Y-89347568D01*
X154693675Y-89327192D01*
X154737838Y-89188812D01*
X154761600Y-89047574D01*
X154768682Y-88968627D01*
X154768833Y-88956285D01*
X154763995Y-88881964D01*
X154763729Y-88873779D01*
X154763729Y-88529481D01*
X154764233Y-88518223D01*
X154768464Y-88471053D01*
X154768682Y-88468627D01*
X154768833Y-88456285D01*
X154763683Y-88377171D01*
X154759773Y-88349869D01*
X154758500Y-88332006D01*
X154758500Y-87569926D01*
X154778502Y-87501805D01*
X154795404Y-87480831D01*
X155030829Y-87245405D01*
X155093142Y-87211380D01*
X155119925Y-87208500D01*
X155248134Y-87208500D01*
X155310316Y-87201745D01*
X155446705Y-87150615D01*
X155469311Y-87133673D01*
X155535815Y-87108826D01*
X155544874Y-87108500D01*
X156138157Y-87108500D01*
X156151764Y-87109237D01*
X156183262Y-87112659D01*
X156183267Y-87112659D01*
X156189388Y-87113324D01*
X156215638Y-87111027D01*
X156239388Y-87108950D01*
X156244214Y-87108621D01*
X156246686Y-87108500D01*
X156249769Y-87108500D01*
X156261738Y-87107326D01*
X156292506Y-87104310D01*
X156293819Y-87104188D01*
X156338084Y-87100315D01*
X156386413Y-87096087D01*
X156391532Y-87094600D01*
X156396833Y-87094080D01*
X156485834Y-87067209D01*
X156486967Y-87066874D01*
X156570414Y-87042630D01*
X156570418Y-87042628D01*
X156576336Y-87040909D01*
X156581068Y-87038456D01*
X156586169Y-87036916D01*
X156591612Y-87034022D01*
X156668260Y-86993269D01*
X156669426Y-86992657D01*
X156746453Y-86952729D01*
X156751926Y-86949892D01*
X156756089Y-86946569D01*
X156760796Y-86944066D01*
X156832918Y-86885245D01*
X156833774Y-86884554D01*
X156872973Y-86853262D01*
X156875477Y-86850758D01*
X156876195Y-86850116D01*
X156880528Y-86846415D01*
X156914062Y-86819065D01*
X156943288Y-86783737D01*
X156951277Y-86774958D01*
X157969379Y-85756855D01*
X157979522Y-85747753D01*
X158004218Y-85727897D01*
X158009025Y-85724032D01*
X158041292Y-85685578D01*
X158044472Y-85681931D01*
X158046115Y-85680119D01*
X158048309Y-85677925D01*
X158075642Y-85644651D01*
X158076348Y-85643800D01*
X158086027Y-85632266D01*
X158136154Y-85572526D01*
X158138722Y-85567856D01*
X158142103Y-85563739D01*
X158185977Y-85481914D01*
X158186606Y-85480755D01*
X158228462Y-85404619D01*
X158228465Y-85404611D01*
X158231433Y-85399213D01*
X158233045Y-85394131D01*
X158235562Y-85389437D01*
X158262747Y-85300523D01*
X158263139Y-85299265D01*
X158289372Y-85216567D01*
X158291235Y-85210694D01*
X158291829Y-85205403D01*
X158293388Y-85200302D01*
X158302790Y-85107737D01*
X158302925Y-85106470D01*
X158304605Y-85091500D01*
X158306848Y-85071498D01*
X158308108Y-85060270D01*
X158308108Y-85060265D01*
X158308500Y-85056773D01*
X158308500Y-85053248D01*
X158308555Y-85052263D01*
X158309004Y-85046559D01*
X158312752Y-85009666D01*
X158312752Y-85009661D01*
X158313374Y-85003538D01*
X158309059Y-84957891D01*
X158308500Y-84946033D01*
X158308500Y-65262557D01*
X158317634Y-65215459D01*
X158352769Y-65128276D01*
X158367686Y-65091263D01*
X158408228Y-64883663D01*
X158408500Y-64878101D01*
X158408500Y-64172154D01*
X158393452Y-64014434D01*
X158333908Y-63811466D01*
X158322484Y-63789285D01*
X158308500Y-63731593D01*
X158308500Y-58919761D01*
X158309237Y-58906154D01*
X158312659Y-58874656D01*
X158312659Y-58874651D01*
X158313324Y-58868530D01*
X158308950Y-58818528D01*
X158308621Y-58813703D01*
X158308500Y-58811232D01*
X158308500Y-58808150D01*
X158305332Y-58775841D01*
X158304309Y-58765408D01*
X158304187Y-58764093D01*
X158296623Y-58677638D01*
X158296087Y-58671506D01*
X158294600Y-58666387D01*
X158294080Y-58661086D01*
X158267218Y-58572113D01*
X158266862Y-58570913D01*
X158262483Y-58555840D01*
X158240909Y-58481582D01*
X158238455Y-58476848D01*
X158236916Y-58471750D01*
X158193316Y-58389750D01*
X158192702Y-58388582D01*
X158152726Y-58311460D01*
X158152725Y-58311459D01*
X158149892Y-58305993D01*
X158146569Y-58301830D01*
X158144066Y-58297123D01*
X158085245Y-58225001D01*
X158084554Y-58224145D01*
X158053262Y-58184946D01*
X158050758Y-58182442D01*
X158050116Y-58181724D01*
X158046415Y-58177391D01*
X158019065Y-58143857D01*
X157983733Y-58114628D01*
X157974963Y-58106647D01*
X157158932Y-57290617D01*
X157149830Y-57280473D01*
X157129978Y-57255782D01*
X157126113Y-57250975D01*
X157087659Y-57218708D01*
X157084012Y-57215528D01*
X157082200Y-57213885D01*
X157080006Y-57211691D01*
X157046732Y-57184358D01*
X157045934Y-57183696D01*
X156974607Y-57123846D01*
X156969937Y-57121278D01*
X156965820Y-57117897D01*
X156883995Y-57074023D01*
X156882836Y-57073394D01*
X156806700Y-57031538D01*
X156806692Y-57031535D01*
X156801294Y-57028567D01*
X156796212Y-57026955D01*
X156791518Y-57024438D01*
X156702550Y-56997238D01*
X156701522Y-56996918D01*
X156612775Y-56968765D01*
X156607479Y-56968171D01*
X156602383Y-56966613D01*
X156509824Y-56957210D01*
X156508688Y-56957089D01*
X156475073Y-56953319D01*
X156462351Y-56951892D01*
X156462347Y-56951892D01*
X156458854Y-56951500D01*
X156455327Y-56951500D01*
X156454342Y-56951445D01*
X156448662Y-56950998D01*
X156419256Y-56948011D01*
X156411744Y-56947248D01*
X156411742Y-56947248D01*
X156405619Y-56946626D01*
X156363340Y-56950623D01*
X156359972Y-56950941D01*
X156348114Y-56951500D01*
X156158799Y-56951500D01*
X156090678Y-56931498D01*
X156080707Y-56924382D01*
X155958414Y-56827800D01*
X155958410Y-56827798D01*
X155954359Y-56824598D01*
X155758789Y-56716638D01*
X155753920Y-56714914D01*
X155753916Y-56714912D01*
X155553087Y-56643795D01*
X155553083Y-56643794D01*
X155548212Y-56642069D01*
X155543119Y-56641162D01*
X155543116Y-56641161D01*
X155333373Y-56603800D01*
X155333367Y-56603799D01*
X155328284Y-56602894D01*
X155254452Y-56601992D01*
X155110081Y-56600228D01*
X155110079Y-56600228D01*
X155104911Y-56600165D01*
X154884091Y-56633955D01*
X154671756Y-56703357D01*
X154473607Y-56806507D01*
X154469474Y-56809610D01*
X154469471Y-56809612D01*
X154314111Y-56926260D01*
X154247626Y-56951166D01*
X154238458Y-56951500D01*
X153210500Y-56951500D01*
X153142379Y-56931498D01*
X153095886Y-56877842D01*
X153084500Y-56825500D01*
X153084500Y-56781866D01*
X153077745Y-56719684D01*
X153026615Y-56583295D01*
X152939261Y-56466739D01*
X152822705Y-56379385D01*
X152686316Y-56328255D01*
X152624134Y-56321500D01*
X150727866Y-56321500D01*
X150665684Y-56328255D01*
X150529295Y-56379385D01*
X150412739Y-56466739D01*
X150325385Y-56583295D01*
X150274255Y-56719684D01*
X150267500Y-56781866D01*
X150267500Y-58478134D01*
X150274255Y-58540316D01*
X150325385Y-58676705D01*
X150412739Y-58793261D01*
X150420628Y-58799174D01*
X150421155Y-58799878D01*
X150426269Y-58804992D01*
X150425531Y-58805730D01*
X150463143Y-58856031D01*
X150468170Y-58926849D01*
X150434112Y-58989143D01*
X150420633Y-59000823D01*
X150412739Y-59006739D01*
X150325385Y-59123295D01*
X150274255Y-59259684D01*
X150267500Y-59321866D01*
X150267500Y-61018134D01*
X150274255Y-61080316D01*
X150325385Y-61216705D01*
X150412739Y-61333261D01*
X150529295Y-61420615D01*
X150665684Y-61471745D01*
X150727866Y-61478500D01*
X151735655Y-61478500D01*
X151773752Y-61484398D01*
X151795306Y-61491235D01*
X151800602Y-61491829D01*
X151805698Y-61493387D01*
X151898222Y-61502785D01*
X151899342Y-61502905D01*
X151932664Y-61506642D01*
X151945730Y-61508108D01*
X151945734Y-61508108D01*
X151949227Y-61508500D01*
X151952754Y-61508500D01*
X151953757Y-61508556D01*
X151959441Y-61509003D01*
X151984857Y-61511585D01*
X151996336Y-61512751D01*
X151996338Y-61512751D01*
X152002462Y-61513373D01*
X152048101Y-61509059D01*
X152059957Y-61508500D01*
X153778991Y-61508500D01*
X153847112Y-61528502D01*
X153893605Y-61582158D01*
X153895903Y-61587694D01*
X153896232Y-61588296D01*
X153899385Y-61596705D01*
X153986739Y-61713261D01*
X154103295Y-61800615D01*
X154111703Y-61803767D01*
X154209730Y-61840516D01*
X154266494Y-61883158D01*
X154291194Y-61949719D01*
X154291500Y-61958498D01*
X154291500Y-63462015D01*
X154272759Y-63528132D01*
X154261726Y-63546030D01*
X154261724Y-63546033D01*
X154257885Y-63552262D01*
X154202203Y-63720139D01*
X154191500Y-63824600D01*
X154191500Y-64130075D01*
X154171498Y-64198196D01*
X154154595Y-64219170D01*
X152430621Y-65943145D01*
X152420478Y-65952247D01*
X152390975Y-65975968D01*
X152387008Y-65980696D01*
X152358709Y-66014421D01*
X152355528Y-66018069D01*
X152353885Y-66019881D01*
X152351691Y-66022075D01*
X152324358Y-66055349D01*
X152323696Y-66056147D01*
X152263846Y-66127474D01*
X152261278Y-66132144D01*
X152257897Y-66136261D01*
X152253709Y-66144072D01*
X152214023Y-66218086D01*
X152213394Y-66219245D01*
X152171538Y-66295381D01*
X152171535Y-66295389D01*
X152168567Y-66300787D01*
X152166955Y-66305869D01*
X152164438Y-66310563D01*
X152137238Y-66399531D01*
X152136918Y-66400559D01*
X152108765Y-66489306D01*
X152108171Y-66494602D01*
X152106613Y-66499698D01*
X152105990Y-66505834D01*
X152097218Y-66592187D01*
X152097089Y-66593393D01*
X152093319Y-66627008D01*
X152092019Y-66638604D01*
X152091500Y-66643227D01*
X152091500Y-66646754D01*
X152091445Y-66647739D01*
X152090998Y-66653419D01*
X152086626Y-66696462D01*
X152090623Y-66738741D01*
X152090941Y-66742109D01*
X152091500Y-66753967D01*
X152091500Y-69265500D01*
X152071498Y-69333621D01*
X152017842Y-69380114D01*
X151965500Y-69391500D01*
X150053767Y-69391500D01*
X150042584Y-69390973D01*
X150035091Y-69389298D01*
X150027165Y-69389547D01*
X150027164Y-69389547D01*
X149967014Y-69391438D01*
X149963055Y-69391500D01*
X149935144Y-69391500D01*
X149931210Y-69391997D01*
X149931209Y-69391997D01*
X149931144Y-69392005D01*
X149919307Y-69392938D01*
X149887490Y-69393938D01*
X149883029Y-69394078D01*
X149875110Y-69394327D01*
X149857454Y-69399456D01*
X149855658Y-69399978D01*
X149836306Y-69403986D01*
X149829235Y-69404880D01*
X149816203Y-69406526D01*
X149808834Y-69409443D01*
X149808832Y-69409444D01*
X149775097Y-69422800D01*
X149763869Y-69426645D01*
X149721407Y-69438982D01*
X149714585Y-69443016D01*
X149714579Y-69443019D01*
X149703968Y-69449294D01*
X149686218Y-69457990D01*
X149674756Y-69462528D01*
X149674751Y-69462531D01*
X149667383Y-69465448D01*
X149649970Y-69478099D01*
X149631625Y-69491427D01*
X149621707Y-69497943D01*
X149606177Y-69507128D01*
X149583637Y-69520458D01*
X149569313Y-69534782D01*
X149554281Y-69547621D01*
X149537893Y-69559528D01*
X149509712Y-69593593D01*
X149501722Y-69602373D01*
X148607747Y-70496348D01*
X148599461Y-70503888D01*
X148592982Y-70508000D01*
X148587557Y-70513777D01*
X148546357Y-70557651D01*
X148543602Y-70560493D01*
X148523865Y-70580230D01*
X148521385Y-70583427D01*
X148513682Y-70592447D01*
X148483414Y-70624679D01*
X148479595Y-70631625D01*
X148479593Y-70631628D01*
X148473652Y-70642434D01*
X148462801Y-70658953D01*
X148450386Y-70674959D01*
X148447241Y-70682228D01*
X148447238Y-70682232D01*
X148432826Y-70715537D01*
X148427609Y-70726187D01*
X148406305Y-70764940D01*
X148404334Y-70772615D01*
X148404334Y-70772616D01*
X148401267Y-70784562D01*
X148394863Y-70803266D01*
X148386819Y-70821855D01*
X148385580Y-70829678D01*
X148385577Y-70829688D01*
X148379901Y-70865524D01*
X148377495Y-70877144D01*
X148376147Y-70882396D01*
X148366500Y-70919970D01*
X148366500Y-70940224D01*
X148364949Y-70959934D01*
X148361780Y-70979943D01*
X148362526Y-70987835D01*
X148365941Y-71023961D01*
X148366500Y-71035819D01*
X148366500Y-72621233D01*
X148365973Y-72632416D01*
X148364298Y-72639909D01*
X148364547Y-72647835D01*
X148364547Y-72647836D01*
X148366438Y-72707986D01*
X148366500Y-72711945D01*
X148366500Y-72739856D01*
X148366997Y-72743790D01*
X148366997Y-72743791D01*
X148367005Y-72743856D01*
X148367938Y-72755693D01*
X148369327Y-72799889D01*
X148374978Y-72819339D01*
X148378987Y-72838700D01*
X148381526Y-72858797D01*
X148384445Y-72866168D01*
X148384445Y-72866170D01*
X148397804Y-72899912D01*
X148401649Y-72911142D01*
X148409435Y-72937942D01*
X148413982Y-72953593D01*
X148418015Y-72960412D01*
X148418017Y-72960417D01*
X148424293Y-72971028D01*
X148432988Y-72988776D01*
X148440448Y-73007617D01*
X148445110Y-73014033D01*
X148445110Y-73014034D01*
X148466436Y-73043387D01*
X148472952Y-73053307D01*
X148495458Y-73091362D01*
X148509779Y-73105683D01*
X148522619Y-73120716D01*
X148534528Y-73137107D01*
X148540634Y-73142158D01*
X148568605Y-73165298D01*
X148577384Y-73173288D01*
X148705061Y-73300965D01*
X148717903Y-73316000D01*
X148741426Y-73348377D01*
X148747942Y-73358297D01*
X148764041Y-73385518D01*
X148770448Y-73396352D01*
X148784769Y-73410673D01*
X148797609Y-73425706D01*
X148809518Y-73442097D01*
X148819071Y-73450000D01*
X148843595Y-73470288D01*
X148852374Y-73478278D01*
X148931343Y-73557247D01*
X148938887Y-73565537D01*
X148943000Y-73572018D01*
X148948777Y-73577443D01*
X148992667Y-73618658D01*
X148995509Y-73621413D01*
X149015230Y-73641134D01*
X149018425Y-73643612D01*
X149027447Y-73651318D01*
X149059679Y-73681586D01*
X149066628Y-73685406D01*
X149077432Y-73691346D01*
X149093956Y-73702199D01*
X149109959Y-73714613D01*
X149126583Y-73721807D01*
X149148320Y-73731214D01*
X149202894Y-73776626D01*
X149224253Y-73844333D01*
X149206732Y-73910988D01*
X149145354Y-74014775D01*
X149139107Y-74029210D01*
X149100061Y-74163605D01*
X149100101Y-74177706D01*
X149107370Y-74181000D01*
X150703000Y-74181000D01*
X150771121Y-74201002D01*
X150817614Y-74254658D01*
X150829000Y-74307000D01*
X150829000Y-74563000D01*
X150808998Y-74631121D01*
X150755342Y-74677614D01*
X150703000Y-74689000D01*
X149113122Y-74689000D01*
X149099591Y-74692973D01*
X149098456Y-74700871D01*
X149139107Y-74840790D01*
X149145352Y-74855221D01*
X149221911Y-74984677D01*
X149227871Y-74992360D01*
X149253820Y-75058444D01*
X149239922Y-75128067D01*
X149229579Y-75144161D01*
X149225547Y-75148193D01*
X149140855Y-75291399D01*
X149094438Y-75451169D01*
X149093934Y-75457574D01*
X149093933Y-75457579D01*
X149092345Y-75477760D01*
X149091500Y-75488498D01*
X149091500Y-75921502D01*
X149091693Y-75923950D01*
X149091693Y-75923958D01*
X149092584Y-75935269D01*
X149094438Y-75958831D01*
X149140855Y-76118601D01*
X149144892Y-76125426D01*
X149145248Y-76126250D01*
X149153946Y-76196712D01*
X149118707Y-76265388D01*
X148896859Y-76487236D01*
X148834547Y-76521262D01*
X148820769Y-76523468D01*
X148790765Y-76526581D01*
X148790761Y-76526582D01*
X148783907Y-76527293D01*
X148777371Y-76529474D01*
X148777369Y-76529474D01*
X148722197Y-76547881D01*
X148618893Y-76582346D01*
X148470969Y-76673884D01*
X148348071Y-76796997D01*
X148346566Y-76799438D01*
X148290142Y-76839443D01*
X148219219Y-76842675D01*
X148175117Y-76822225D01*
X148174300Y-76821632D01*
X148156752Y-76808882D01*
X148150724Y-76806198D01*
X148150722Y-76806197D01*
X147988319Y-76733891D01*
X147988318Y-76733891D01*
X147982288Y-76731206D01*
X147888887Y-76711353D01*
X147801944Y-76692872D01*
X147801939Y-76692872D01*
X147795487Y-76691500D01*
X147604513Y-76691500D01*
X147598061Y-76692872D01*
X147598056Y-76692872D01*
X147511113Y-76711353D01*
X147417712Y-76731206D01*
X147411682Y-76733891D01*
X147411681Y-76733891D01*
X147249278Y-76806197D01*
X147249276Y-76806198D01*
X147243248Y-76808882D01*
X147237907Y-76812762D01*
X147237906Y-76812763D01*
X147196736Y-76842675D01*
X147088747Y-76921134D01*
X147084326Y-76926044D01*
X147084325Y-76926045D01*
X146977436Y-77044758D01*
X146960960Y-77063056D01*
X146934488Y-77108907D01*
X146877763Y-77207158D01*
X146865473Y-77228444D01*
X146806458Y-77410072D01*
X146786496Y-77600000D01*
X146806458Y-77789928D01*
X146865473Y-77971556D01*
X146960960Y-78136944D01*
X146965378Y-78141851D01*
X146965379Y-78141852D01*
X147071562Y-78259780D01*
X147088747Y-78278866D01*
X147243248Y-78391118D01*
X147249276Y-78393802D01*
X147249278Y-78393803D01*
X147408932Y-78464885D01*
X147417712Y-78468794D01*
X147511112Y-78488647D01*
X147598056Y-78507128D01*
X147598061Y-78507128D01*
X147604513Y-78508500D01*
X147795487Y-78508500D01*
X147801939Y-78507128D01*
X147801944Y-78507128D01*
X147888888Y-78488647D01*
X147982288Y-78468794D01*
X147991068Y-78464885D01*
X148150722Y-78393803D01*
X148150724Y-78393802D01*
X148156752Y-78391118D01*
X148289436Y-78294717D01*
X148356304Y-78270859D01*
X148425455Y-78286939D01*
X148452510Y-78307477D01*
X148471997Y-78326929D01*
X148620080Y-78418209D01*
X148785191Y-78472974D01*
X148792027Y-78473674D01*
X148792030Y-78473675D01*
X148839370Y-78478525D01*
X148887928Y-78483500D01*
X149562072Y-78483500D01*
X149565318Y-78483163D01*
X149565322Y-78483163D01*
X149659235Y-78473419D01*
X149659239Y-78473418D01*
X149666093Y-78472707D01*
X149672629Y-78470526D01*
X149672631Y-78470526D01*
X149805395Y-78426232D01*
X149831107Y-78417654D01*
X149979031Y-78326116D01*
X150011231Y-78293859D01*
X150073512Y-78259780D01*
X150144332Y-78264782D01*
X150189422Y-78293704D01*
X150217129Y-78321363D01*
X150228540Y-78330375D01*
X150364063Y-78413912D01*
X150377241Y-78420056D01*
X150528766Y-78470315D01*
X150542132Y-78473181D01*
X150634770Y-78482672D01*
X150641185Y-78483000D01*
X150702885Y-78483000D01*
X150718124Y-78478525D01*
X150719329Y-78477135D01*
X150721000Y-78469452D01*
X150721000Y-77372000D01*
X150741002Y-77303879D01*
X150794658Y-77257386D01*
X150847000Y-77246000D01*
X151103000Y-77246000D01*
X151171121Y-77266002D01*
X151217614Y-77319658D01*
X151229000Y-77372000D01*
X151229000Y-78464885D01*
X151233475Y-78480124D01*
X151234865Y-78481329D01*
X151242548Y-78483000D01*
X151308766Y-78483000D01*
X151315282Y-78482663D01*
X151409132Y-78472925D01*
X151422528Y-78470032D01*
X151525624Y-78435636D01*
X151596573Y-78433052D01*
X151657657Y-78469235D01*
X151689482Y-78532699D01*
X151691500Y-78555160D01*
X151691500Y-78865500D01*
X151671498Y-78933621D01*
X151617842Y-78980114D01*
X151565500Y-78991500D01*
X151344874Y-78991500D01*
X151276753Y-78971498D01*
X151269327Y-78966339D01*
X151246705Y-78949385D01*
X151110316Y-78898255D01*
X151048134Y-78891500D01*
X150051866Y-78891500D01*
X149989684Y-78898255D01*
X149853295Y-78949385D01*
X149736739Y-79036739D01*
X149649385Y-79153295D01*
X149598255Y-79289684D01*
X149591500Y-79351866D01*
X149591500Y-79666752D01*
X149585865Y-79704011D01*
X149557318Y-79796232D01*
X149536645Y-79992925D01*
X149537204Y-79999065D01*
X149549001Y-80128690D01*
X149554570Y-80189888D01*
X149556308Y-80195794D01*
X149556309Y-80195798D01*
X149586374Y-80297950D01*
X149591500Y-80333525D01*
X149591500Y-80648134D01*
X149598255Y-80710316D01*
X149649385Y-80846705D01*
X149736739Y-80963261D01*
X149853295Y-81050615D01*
X149861696Y-81053764D01*
X149862930Y-81054440D01*
X149913076Y-81104699D01*
X149928089Y-81174090D01*
X149903203Y-81240582D01*
X149891593Y-81253977D01*
X149778637Y-81367129D01*
X149769625Y-81378540D01*
X149686088Y-81514063D01*
X149679944Y-81527241D01*
X149629685Y-81678766D01*
X149626819Y-81692132D01*
X149617328Y-81784770D01*
X149617000Y-81791185D01*
X149617000Y-81852885D01*
X149621475Y-81868124D01*
X149622865Y-81869329D01*
X149630548Y-81871000D01*
X151433885Y-81871000D01*
X151478280Y-81857965D01*
X151488957Y-81851103D01*
X151524452Y-81846000D01*
X153889884Y-81846000D01*
X153905123Y-81841525D01*
X153906328Y-81840135D01*
X153907999Y-81832452D01*
X153907999Y-81727905D01*
X153907662Y-81721386D01*
X153897743Y-81625794D01*
X153894851Y-81612400D01*
X153843412Y-81458216D01*
X153837239Y-81445038D01*
X153751937Y-81307193D01*
X153742901Y-81295792D01*
X153628172Y-81181262D01*
X153619238Y-81174206D01*
X153578177Y-81116288D01*
X153574947Y-81045365D01*
X153610574Y-80983954D01*
X153618407Y-80977154D01*
X153624348Y-80973478D01*
X153749305Y-80848303D01*
X153842115Y-80697738D01*
X153897797Y-80529861D01*
X153908500Y-80425400D01*
X153908500Y-79674600D01*
X153897526Y-79568834D01*
X153841550Y-79401054D01*
X153748478Y-79250652D01*
X153743296Y-79245479D01*
X153738751Y-79239745D01*
X153740424Y-79238419D01*
X153711402Y-79185375D01*
X153708500Y-79158489D01*
X153708500Y-72780436D01*
X153728502Y-72712315D01*
X153768197Y-72673292D01*
X153797805Y-72654970D01*
X153797812Y-72654964D01*
X153804031Y-72651116D01*
X153809200Y-72645938D01*
X153921758Y-72533184D01*
X153921762Y-72533179D01*
X153926929Y-72528003D01*
X153961748Y-72471516D01*
X154014369Y-72386150D01*
X154014370Y-72386148D01*
X154018209Y-72379920D01*
X154072974Y-72214809D01*
X154083500Y-72112072D01*
X154083500Y-72026471D01*
X154089004Y-71989637D01*
X154093387Y-71975302D01*
X154101760Y-71892872D01*
X154112752Y-71784666D01*
X154112752Y-71784661D01*
X154113374Y-71778538D01*
X154100994Y-71647579D01*
X154095341Y-71587771D01*
X154095341Y-71587769D01*
X154094761Y-71581638D01*
X154088751Y-71561476D01*
X154083500Y-71525481D01*
X154083500Y-71437928D01*
X154083163Y-71434678D01*
X154073419Y-71340765D01*
X154073418Y-71340761D01*
X154072707Y-71333907D01*
X154064392Y-71308982D01*
X154019972Y-71175841D01*
X154017654Y-71168893D01*
X153966668Y-71086500D01*
X153929969Y-71027195D01*
X153929968Y-71027194D01*
X153926116Y-71020969D01*
X153894213Y-70989121D01*
X153860134Y-70926841D01*
X153865137Y-70856021D01*
X153894057Y-70810933D01*
X153921757Y-70783184D01*
X153926929Y-70778003D01*
X153965434Y-70715537D01*
X154014369Y-70636150D01*
X154014370Y-70636148D01*
X154018209Y-70629920D01*
X154072974Y-70464809D01*
X154083500Y-70362072D01*
X154083500Y-70279583D01*
X154088441Y-70247667D01*
X154088091Y-70247593D01*
X154089372Y-70241566D01*
X154091235Y-70235694D01*
X154108500Y-70081773D01*
X154108500Y-67169925D01*
X154128502Y-67101804D01*
X154145405Y-67080830D01*
X155305829Y-65920405D01*
X155368141Y-65886380D01*
X155394924Y-65883500D01*
X155700400Y-65883500D01*
X155703646Y-65883163D01*
X155703650Y-65883163D01*
X155799308Y-65873238D01*
X155799312Y-65873237D01*
X155806166Y-65872526D01*
X155812702Y-65870345D01*
X155812704Y-65870345D01*
X155966998Y-65818868D01*
X155973946Y-65816550D01*
X156099197Y-65739042D01*
X156167649Y-65720204D01*
X156235419Y-65741365D01*
X156280990Y-65795806D01*
X156291500Y-65846186D01*
X156291500Y-84530074D01*
X156271498Y-84598195D01*
X156254596Y-84619169D01*
X155819171Y-85054595D01*
X155756858Y-85088620D01*
X155730075Y-85091500D01*
X155544874Y-85091500D01*
X155476753Y-85071498D01*
X155469327Y-85066339D01*
X155446705Y-85049385D01*
X155310316Y-84998255D01*
X155248134Y-84991500D01*
X154251866Y-84991500D01*
X154189684Y-84998255D01*
X154053295Y-85049385D01*
X153936739Y-85136739D01*
X153849385Y-85253295D01*
X153798255Y-85389684D01*
X153791500Y-85451866D01*
X153791500Y-85580076D01*
X153771498Y-85648197D01*
X153754595Y-85669171D01*
X153189095Y-86234671D01*
X153126783Y-86268697D01*
X153055968Y-86263632D01*
X153010905Y-86234671D01*
X152445405Y-85669171D01*
X152411379Y-85606859D01*
X152408500Y-85580076D01*
X152408500Y-85451866D01*
X152401745Y-85389684D01*
X152350615Y-85253295D01*
X152263261Y-85136739D01*
X152146705Y-85049385D01*
X152010316Y-84998255D01*
X151948134Y-84991500D01*
X151819924Y-84991500D01*
X151751803Y-84971498D01*
X151730829Y-84954595D01*
X151631855Y-84855621D01*
X151622753Y-84845478D01*
X151602897Y-84820782D01*
X151599032Y-84815975D01*
X151560578Y-84783708D01*
X151556931Y-84780528D01*
X151555119Y-84778885D01*
X151552925Y-84776691D01*
X151519654Y-84749361D01*
X151518799Y-84748651D01*
X151492620Y-84726684D01*
X151453294Y-84667574D01*
X151452168Y-84596587D01*
X151466352Y-84564047D01*
X151514369Y-84486150D01*
X151514370Y-84486148D01*
X151518209Y-84479920D01*
X151572974Y-84314809D01*
X151583500Y-84212072D01*
X151583500Y-83537928D01*
X151578626Y-83490954D01*
X151573419Y-83440765D01*
X151573418Y-83440761D01*
X151572707Y-83433907D01*
X151558022Y-83389889D01*
X151523269Y-83285724D01*
X151517654Y-83268893D01*
X151426116Y-83120969D01*
X151393859Y-83088769D01*
X151359780Y-83026488D01*
X151364782Y-82955668D01*
X151393704Y-82910578D01*
X151421363Y-82882871D01*
X151433597Y-82867380D01*
X151491514Y-82826317D01*
X151562437Y-82823085D01*
X151623849Y-82858710D01*
X151639622Y-82879167D01*
X151648063Y-82892807D01*
X151657099Y-82904208D01*
X151771829Y-83018739D01*
X151783240Y-83027751D01*
X151921243Y-83112816D01*
X151934424Y-83118963D01*
X152088710Y-83170138D01*
X152102086Y-83173005D01*
X152196438Y-83182672D01*
X152202854Y-83183000D01*
X152427885Y-83183000D01*
X152443124Y-83178525D01*
X152444329Y-83177135D01*
X152446000Y-83169452D01*
X152446000Y-83164884D01*
X152954000Y-83164884D01*
X152958475Y-83180123D01*
X152959865Y-83181328D01*
X152967548Y-83182999D01*
X153197095Y-83182999D01*
X153203614Y-83182662D01*
X153299206Y-83172743D01*
X153312600Y-83169851D01*
X153466784Y-83118412D01*
X153479962Y-83112239D01*
X153617807Y-83026937D01*
X153629208Y-83017901D01*
X153743739Y-82903171D01*
X153752751Y-82891760D01*
X153837816Y-82753757D01*
X153843963Y-82740576D01*
X153895138Y-82586290D01*
X153898005Y-82572914D01*
X153907672Y-82478562D01*
X153908000Y-82472146D01*
X153908000Y-82372115D01*
X153903525Y-82356876D01*
X153902135Y-82355671D01*
X153894452Y-82354000D01*
X152972115Y-82354000D01*
X152956876Y-82358475D01*
X152955671Y-82359865D01*
X152954000Y-82367548D01*
X152954000Y-83164884D01*
X152446000Y-83164884D01*
X152446000Y-82372115D01*
X152441525Y-82356876D01*
X152440135Y-82355671D01*
X152432452Y-82354000D01*
X151641115Y-82354000D01*
X151596720Y-82367035D01*
X151586043Y-82373897D01*
X151550548Y-82379000D01*
X149635115Y-82379000D01*
X149606001Y-82387549D01*
X149569622Y-82410929D01*
X149498626Y-82410930D01*
X149438899Y-82372547D01*
X149434159Y-82366737D01*
X149345446Y-82251123D01*
X149333877Y-82239554D01*
X149221272Y-82153150D01*
X149207091Y-82144963D01*
X149075969Y-82090650D01*
X149060149Y-82086411D01*
X149022960Y-82081515D01*
X149008778Y-82083726D01*
X149005000Y-82096883D01*
X149005000Y-82595500D01*
X148984998Y-82663621D01*
X148931342Y-82710114D01*
X148879000Y-82721500D01*
X148755347Y-82721500D01*
X148687226Y-82701498D01*
X148640733Y-82647842D01*
X148632776Y-82592500D01*
X148630000Y-82592500D01*
X148630000Y-82097266D01*
X148625956Y-82083495D01*
X148612417Y-82081466D01*
X148574849Y-82086411D01*
X148559034Y-82090649D01*
X148506499Y-82112409D01*
X148458281Y-82122000D01*
X148202115Y-82122000D01*
X148186876Y-82126475D01*
X148185671Y-82127865D01*
X148184000Y-82135548D01*
X148184000Y-82574385D01*
X148188475Y-82589624D01*
X148189865Y-82590829D01*
X148197548Y-82592500D01*
X148316245Y-82592500D01*
X148384366Y-82612502D01*
X148430859Y-82666158D01*
X148440963Y-82736432D01*
X148411469Y-82801012D01*
X148392949Y-82818462D01*
X148294220Y-82894220D01*
X148281668Y-82910578D01*
X148273446Y-82921293D01*
X148216108Y-82963159D01*
X148208984Y-82965483D01*
X148186876Y-82971975D01*
X148185671Y-82973365D01*
X148184000Y-82981048D01*
X148184000Y-83028002D01*
X148174409Y-83076220D01*
X148158016Y-83115797D01*
X148137001Y-83166531D01*
X148135923Y-83174719D01*
X148124752Y-83259576D01*
X148121500Y-83284274D01*
X148121500Y-83575726D01*
X148122038Y-83579812D01*
X148122038Y-83579813D01*
X148130042Y-83640612D01*
X148137001Y-83693469D01*
X148140161Y-83701097D01*
X148140162Y-83701102D01*
X148142516Y-83706785D01*
X148150103Y-83777375D01*
X148142516Y-83803215D01*
X148140162Y-83808898D01*
X148140161Y-83808903D01*
X148137001Y-83816531D01*
X148121500Y-83934274D01*
X148121500Y-84225726D01*
X148122038Y-84229812D01*
X148122038Y-84229813D01*
X148133228Y-84314809D01*
X148137001Y-84343469D01*
X148140161Y-84351098D01*
X148174409Y-84433780D01*
X148184000Y-84481998D01*
X148184000Y-84719884D01*
X148188475Y-84735123D01*
X148189865Y-84736328D01*
X148197548Y-84737999D01*
X148456970Y-84737999D01*
X148505189Y-84747591D01*
X148515985Y-84752063D01*
X148571266Y-84796612D01*
X148593686Y-84863975D01*
X148582543Y-84918860D01*
X148581791Y-84920080D01*
X148527026Y-85085191D01*
X148526326Y-85092027D01*
X148526325Y-85092030D01*
X148524711Y-85107784D01*
X148516500Y-85187928D01*
X148516500Y-85272515D01*
X148510867Y-85309767D01*
X148507318Y-85321232D01*
X148486645Y-85517925D01*
X148492301Y-85580076D01*
X148501903Y-85685579D01*
X148504570Y-85714888D01*
X148506308Y-85720794D01*
X148506309Y-85720798D01*
X148511374Y-85738006D01*
X148516500Y-85773581D01*
X148516500Y-85862072D01*
X148527293Y-85966093D01*
X148529474Y-85972629D01*
X148529474Y-85972631D01*
X148547749Y-86027408D01*
X148582346Y-86131107D01*
X148673884Y-86279031D01*
X148706141Y-86311231D01*
X148740220Y-86373512D01*
X148735218Y-86444332D01*
X148706296Y-86489422D01*
X148678637Y-86517129D01*
X148669625Y-86528540D01*
X148586088Y-86664063D01*
X148579944Y-86677241D01*
X148529685Y-86828766D01*
X148526819Y-86842132D01*
X148517328Y-86934770D01*
X148517000Y-86941185D01*
X148517000Y-87002885D01*
X148521475Y-87018124D01*
X148522865Y-87019329D01*
X148530548Y-87021000D01*
X150464883Y-87021000D01*
X150495891Y-87011895D01*
X150566887Y-87011895D01*
X150626614Y-87050278D01*
X150631022Y-87055745D01*
X150631358Y-87056081D01*
X150636739Y-87063261D01*
X150753295Y-87150615D01*
X150889684Y-87201745D01*
X150951866Y-87208500D01*
X151080074Y-87208500D01*
X151148195Y-87228502D01*
X151169169Y-87245404D01*
X151404595Y-87480829D01*
X151438620Y-87543142D01*
X151441500Y-87569925D01*
X151441500Y-88327960D01*
X151440000Y-88347344D01*
X151437283Y-88364795D01*
X151437228Y-88369262D01*
X151437228Y-88369267D01*
X151437102Y-88379588D01*
X151435503Y-88510438D01*
X151436063Y-88514723D01*
X151436271Y-88521760D01*
X151436271Y-88911047D01*
X151436273Y-88911047D01*
X151436682Y-88914014D01*
X151435504Y-89010438D01*
X151454074Y-89152452D01*
X151493245Y-89292748D01*
X151495048Y-89296846D01*
X151495050Y-89296851D01*
X151502927Y-89314751D01*
X151512056Y-89385159D01*
X151481671Y-89449324D01*
X151421418Y-89486877D01*
X151387599Y-89491500D01*
X129833078Y-89491500D01*
X129764957Y-89471498D01*
X129718464Y-89417842D01*
X129707078Y-89365185D01*
X129711464Y-87608766D01*
X148517000Y-87608766D01*
X148517337Y-87615282D01*
X148527075Y-87709132D01*
X148529968Y-87722528D01*
X148580488Y-87873953D01*
X148586653Y-87887115D01*
X148670426Y-88022492D01*
X148679460Y-88033890D01*
X148792129Y-88146363D01*
X148803540Y-88155375D01*
X148939063Y-88238912D01*
X148952241Y-88245056D01*
X149103766Y-88295315D01*
X149117132Y-88298181D01*
X149209770Y-88307672D01*
X149216185Y-88308000D01*
X149227885Y-88308000D01*
X149243124Y-88303525D01*
X149244329Y-88302135D01*
X149246000Y-88294452D01*
X149246000Y-88289885D01*
X149754000Y-88289885D01*
X149758475Y-88305124D01*
X149759865Y-88306329D01*
X149767548Y-88308000D01*
X149783766Y-88308000D01*
X149790282Y-88307663D01*
X149884132Y-88297925D01*
X149897528Y-88295032D01*
X150048953Y-88244512D01*
X150062115Y-88238347D01*
X150197492Y-88154574D01*
X150208890Y-88145540D01*
X150321363Y-88032871D01*
X150330375Y-88021460D01*
X150413912Y-87885937D01*
X150420056Y-87872759D01*
X150470315Y-87721234D01*
X150473181Y-87707868D01*
X150482672Y-87615230D01*
X150483000Y-87608815D01*
X150483000Y-87547115D01*
X150478525Y-87531876D01*
X150477135Y-87530671D01*
X150469452Y-87529000D01*
X149772115Y-87529000D01*
X149756876Y-87533475D01*
X149755671Y-87534865D01*
X149754000Y-87542548D01*
X149754000Y-88289885D01*
X149246000Y-88289885D01*
X149246000Y-87547115D01*
X149241525Y-87531876D01*
X149240135Y-87530671D01*
X149232452Y-87529000D01*
X148535115Y-87529000D01*
X148519876Y-87533475D01*
X148518671Y-87534865D01*
X148517000Y-87542548D01*
X148517000Y-87608766D01*
X129711464Y-87608766D01*
X129713903Y-86631976D01*
X129728857Y-86572752D01*
X129761533Y-86511811D01*
X129762107Y-86510756D01*
X129803963Y-86434620D01*
X129803966Y-86434612D01*
X129806934Y-86429214D01*
X129808546Y-86424132D01*
X129811063Y-86419438D01*
X129838263Y-86330470D01*
X129838609Y-86329359D01*
X129840384Y-86323766D01*
X129866736Y-86240695D01*
X129867330Y-86235399D01*
X129868888Y-86230303D01*
X129878291Y-86137744D01*
X129878412Y-86136608D01*
X129884001Y-86086774D01*
X129884001Y-86083247D01*
X129884056Y-86082262D01*
X129884503Y-86076582D01*
X129888875Y-86033539D01*
X129884560Y-85987892D01*
X129884001Y-85976034D01*
X129884001Y-83691841D01*
X129884738Y-83678233D01*
X129888160Y-83646737D01*
X129888160Y-83646733D01*
X129888825Y-83640612D01*
X129886809Y-83617568D01*
X129884451Y-83590610D01*
X129884122Y-83585785D01*
X129884001Y-83583314D01*
X129884001Y-83580232D01*
X129881329Y-83552988D01*
X129879810Y-83537490D01*
X129879688Y-83536175D01*
X129874614Y-83478176D01*
X129871588Y-83443588D01*
X129870101Y-83438469D01*
X129869581Y-83433168D01*
X129842719Y-83344195D01*
X129842363Y-83342995D01*
X129816410Y-83253664D01*
X129813956Y-83248930D01*
X129812417Y-83243832D01*
X129779898Y-83182672D01*
X129768817Y-83161832D01*
X129768204Y-83160665D01*
X129737001Y-83100469D01*
X129722866Y-83042172D01*
X129725573Y-81957885D01*
X133316500Y-81957885D01*
X133320975Y-81973124D01*
X133322365Y-81974329D01*
X133330048Y-81976000D01*
X134964885Y-81976000D01*
X134980124Y-81971525D01*
X134981329Y-81970135D01*
X134983000Y-81962452D01*
X134983000Y-81957885D01*
X135491000Y-81957885D01*
X135495475Y-81973124D01*
X135496865Y-81974329D01*
X135504548Y-81976000D01*
X137139384Y-81976000D01*
X137154623Y-81971525D01*
X137155828Y-81970135D01*
X137157499Y-81962452D01*
X137157499Y-81485331D01*
X137157129Y-81478510D01*
X137151605Y-81427648D01*
X137147979Y-81412396D01*
X137102824Y-81291946D01*
X137094286Y-81276351D01*
X137017785Y-81174276D01*
X137005224Y-81161715D01*
X136903149Y-81085214D01*
X136887554Y-81076676D01*
X136767106Y-81031522D01*
X136751851Y-81027895D01*
X136700986Y-81022369D01*
X136694172Y-81022000D01*
X135509115Y-81022000D01*
X135493876Y-81026475D01*
X135492671Y-81027865D01*
X135491000Y-81035548D01*
X135491000Y-81957885D01*
X134983000Y-81957885D01*
X134983000Y-81040116D01*
X134978525Y-81024877D01*
X134977135Y-81023672D01*
X134969452Y-81022001D01*
X133779831Y-81022001D01*
X133773010Y-81022371D01*
X133722148Y-81027895D01*
X133706896Y-81031521D01*
X133586446Y-81076676D01*
X133570851Y-81085214D01*
X133468776Y-81161715D01*
X133456215Y-81174276D01*
X133379714Y-81276351D01*
X133371176Y-81291946D01*
X133326022Y-81412394D01*
X133322395Y-81427649D01*
X133316869Y-81478514D01*
X133316500Y-81485328D01*
X133316500Y-81957885D01*
X129725573Y-81957885D01*
X129778813Y-60635432D01*
X129798985Y-60567362D01*
X129852757Y-60521003D01*
X129923056Y-60511075D01*
X129949042Y-60517765D01*
X130039684Y-60551745D01*
X130101866Y-60558500D01*
X130240500Y-60558500D01*
X130308621Y-60578502D01*
X130355114Y-60632158D01*
X130366500Y-60684500D01*
X130366500Y-70221233D01*
X130365973Y-70232416D01*
X130364298Y-70239909D01*
X130364547Y-70247835D01*
X130364547Y-70247836D01*
X130366438Y-70307986D01*
X130366500Y-70311945D01*
X130366500Y-70339856D01*
X130366997Y-70343790D01*
X130366997Y-70343791D01*
X130367005Y-70343856D01*
X130367938Y-70355693D01*
X130369327Y-70399889D01*
X130374978Y-70419339D01*
X130378987Y-70438700D01*
X130381526Y-70458797D01*
X130384445Y-70466168D01*
X130384445Y-70466170D01*
X130397804Y-70499912D01*
X130401649Y-70511142D01*
X130413982Y-70553593D01*
X130418015Y-70560412D01*
X130418017Y-70560417D01*
X130424293Y-70571028D01*
X130432988Y-70588776D01*
X130440448Y-70607617D01*
X130445110Y-70614033D01*
X130445110Y-70614034D01*
X130466436Y-70643387D01*
X130472952Y-70653307D01*
X130487853Y-70678502D01*
X130495458Y-70691362D01*
X130509779Y-70705683D01*
X130522619Y-70720716D01*
X130534528Y-70737107D01*
X130540634Y-70742158D01*
X130568605Y-70765298D01*
X130577384Y-70773288D01*
X136696348Y-76892253D01*
X136703888Y-76900539D01*
X136708000Y-76907018D01*
X136713777Y-76912443D01*
X136757651Y-76953643D01*
X136760493Y-76956398D01*
X136780230Y-76976135D01*
X136783427Y-76978615D01*
X136792447Y-76986318D01*
X136824679Y-77016586D01*
X136831625Y-77020405D01*
X136831628Y-77020407D01*
X136842434Y-77026348D01*
X136858953Y-77037199D01*
X136874959Y-77049614D01*
X136882228Y-77052759D01*
X136882232Y-77052762D01*
X136915537Y-77067174D01*
X136926187Y-77072391D01*
X136964940Y-77093695D01*
X136972615Y-77095666D01*
X136972616Y-77095666D01*
X136984562Y-77098733D01*
X137003267Y-77105137D01*
X137021855Y-77113181D01*
X137029678Y-77114420D01*
X137029688Y-77114423D01*
X137065524Y-77120099D01*
X137077144Y-77122505D01*
X137112289Y-77131528D01*
X137119970Y-77133500D01*
X137140224Y-77133500D01*
X137159934Y-77135051D01*
X137179943Y-77138220D01*
X137187835Y-77137474D01*
X137223961Y-77134059D01*
X137235819Y-77133500D01*
X139240500Y-77133500D01*
X139308621Y-77153502D01*
X139355114Y-77207158D01*
X139366500Y-77259500D01*
X139366500Y-81482261D01*
X139346498Y-81550382D01*
X139292842Y-81596875D01*
X139222568Y-81606979D01*
X139214089Y-81605462D01*
X139197916Y-81601995D01*
X139103562Y-81592328D01*
X139097145Y-81592000D01*
X138872115Y-81592000D01*
X138856876Y-81596475D01*
X138855671Y-81597865D01*
X138854000Y-81605548D01*
X138854000Y-82803000D01*
X138833998Y-82871121D01*
X138780342Y-82917614D01*
X138728000Y-82929000D01*
X138472000Y-82929000D01*
X138403879Y-82908998D01*
X138357386Y-82855342D01*
X138346000Y-82803000D01*
X138346000Y-81610116D01*
X138341525Y-81594877D01*
X138340135Y-81593672D01*
X138332452Y-81592001D01*
X138102905Y-81592001D01*
X138096386Y-81592338D01*
X138000794Y-81602257D01*
X137987400Y-81605149D01*
X137833216Y-81656588D01*
X137820038Y-81662761D01*
X137682193Y-81748063D01*
X137670792Y-81757099D01*
X137556261Y-81871829D01*
X137547249Y-81883240D01*
X137462184Y-82021243D01*
X137456037Y-82034424D01*
X137404862Y-82188710D01*
X137401995Y-82202086D01*
X137392328Y-82296438D01*
X137392000Y-82302855D01*
X137392000Y-82424401D01*
X137371998Y-82492522D01*
X137318342Y-82539015D01*
X137248068Y-82549119D01*
X137183488Y-82519625D01*
X137174275Y-82505289D01*
X137151635Y-82485671D01*
X137143952Y-82484000D01*
X133334616Y-82484000D01*
X133319377Y-82488475D01*
X133318172Y-82489865D01*
X133316501Y-82497548D01*
X133316501Y-82974669D01*
X133316871Y-82981490D01*
X133322395Y-83032352D01*
X133326021Y-83047604D01*
X133371176Y-83168054D01*
X133379714Y-83183649D01*
X133456215Y-83285724D01*
X133468776Y-83298285D01*
X133570851Y-83374786D01*
X133594318Y-83387634D01*
X133593083Y-83389889D01*
X133639014Y-83424392D01*
X133663714Y-83490954D01*
X133648507Y-83560303D01*
X133598221Y-83610421D01*
X133589766Y-83614282D01*
X133586202Y-83616233D01*
X133577795Y-83619385D01*
X133461239Y-83706739D01*
X133373885Y-83823295D01*
X133322755Y-83959684D01*
X133316000Y-84021866D01*
X133316000Y-85518134D01*
X133322755Y-85580316D01*
X133373885Y-85716705D01*
X133461239Y-85833261D01*
X133577795Y-85920615D01*
X133714184Y-85971745D01*
X133776366Y-85978500D01*
X136697634Y-85978500D01*
X136759816Y-85971745D01*
X136896205Y-85920615D01*
X137012761Y-85833261D01*
X137018142Y-85826081D01*
X137024492Y-85819731D01*
X137026127Y-85821366D01*
X137072859Y-85786421D01*
X137116829Y-85778500D01*
X137916610Y-85778500D01*
X137956276Y-85784907D01*
X137995139Y-85797797D01*
X138001975Y-85798497D01*
X138001978Y-85798498D01*
X138045031Y-85802909D01*
X138099600Y-85808500D01*
X139100400Y-85808500D01*
X139103646Y-85808163D01*
X139103650Y-85808163D01*
X139199308Y-85798238D01*
X139199312Y-85798237D01*
X139206166Y-85797526D01*
X139212702Y-85795345D01*
X139212704Y-85795345D01*
X139243783Y-85784976D01*
X139283659Y-85778500D01*
X140115500Y-85778500D01*
X140183621Y-85798502D01*
X140230114Y-85852158D01*
X140241500Y-85904500D01*
X140241500Y-86048134D01*
X140248255Y-86110316D01*
X140299385Y-86246705D01*
X140386739Y-86363261D01*
X140503295Y-86450615D01*
X140639684Y-86501745D01*
X140701866Y-86508500D01*
X146098134Y-86508500D01*
X146160316Y-86501745D01*
X146296705Y-86450615D01*
X146413261Y-86363261D01*
X146500615Y-86246705D01*
X146551745Y-86110316D01*
X146558500Y-86048134D01*
X146558500Y-85463667D01*
X146578502Y-85395546D01*
X146632158Y-85349053D01*
X146672204Y-85338268D01*
X146743618Y-85331265D01*
X146816795Y-85324090D01*
X146822696Y-85322308D01*
X146822698Y-85322308D01*
X146899019Y-85299265D01*
X147006131Y-85266926D01*
X147180758Y-85174076D01*
X147289742Y-85085191D01*
X147329249Y-85052970D01*
X147329252Y-85052967D01*
X147334024Y-85049075D01*
X147366626Y-85009666D01*
X147456163Y-84901435D01*
X147456165Y-84901431D01*
X147460092Y-84896685D01*
X147463022Y-84891265D01*
X147463026Y-84891260D01*
X147510168Y-84804072D01*
X147560163Y-84753663D01*
X147621004Y-84738000D01*
X147657885Y-84738000D01*
X147673124Y-84733525D01*
X147674329Y-84732135D01*
X147676000Y-84724452D01*
X147676000Y-84481998D01*
X147685591Y-84433780D01*
X147719839Y-84351098D01*
X147722999Y-84343469D01*
X147726772Y-84314809D01*
X147737962Y-84229813D01*
X147737962Y-84229812D01*
X147738500Y-84225726D01*
X147738500Y-83934274D01*
X147722999Y-83816531D01*
X147719839Y-83808903D01*
X147719838Y-83808898D01*
X147717484Y-83803215D01*
X147709897Y-83732625D01*
X147717484Y-83706785D01*
X147719838Y-83701102D01*
X147719839Y-83701097D01*
X147722999Y-83693469D01*
X147729958Y-83640612D01*
X147737962Y-83579813D01*
X147737962Y-83579812D01*
X147738500Y-83575726D01*
X147738500Y-83284274D01*
X147735249Y-83259576D01*
X147724077Y-83174719D01*
X147722999Y-83166531D01*
X147719839Y-83158902D01*
X147719838Y-83158898D01*
X147717484Y-83153215D01*
X147709897Y-83082625D01*
X147717484Y-83056785D01*
X147719838Y-83051102D01*
X147719839Y-83051097D01*
X147722999Y-83043469D01*
X147738500Y-82925726D01*
X147738500Y-82634274D01*
X147722999Y-82516531D01*
X147718967Y-82506797D01*
X147717955Y-82501873D01*
X147717701Y-82500925D01*
X147717757Y-82500910D01*
X147709385Y-82460173D01*
X147708962Y-82426719D01*
X147707754Y-82331246D01*
X147669534Y-82025490D01*
X147680932Y-81955416D01*
X147705466Y-81920768D01*
X147919379Y-81706855D01*
X147929522Y-81697753D01*
X147954218Y-81677897D01*
X147959025Y-81674032D01*
X147991292Y-81635578D01*
X147994472Y-81631931D01*
X147996115Y-81630119D01*
X147998309Y-81627925D01*
X148025642Y-81594651D01*
X148026348Y-81593800D01*
X148026456Y-81593672D01*
X148086154Y-81522526D01*
X148088722Y-81517856D01*
X148092103Y-81513739D01*
X148136015Y-81431842D01*
X148136624Y-81430720D01*
X148138313Y-81427649D01*
X148155631Y-81396147D01*
X148178466Y-81354611D01*
X148178468Y-81354606D01*
X148181433Y-81349213D01*
X148183044Y-81344135D01*
X148185563Y-81339437D01*
X148212753Y-81250502D01*
X148213136Y-81249272D01*
X148236986Y-81174090D01*
X148241235Y-81160694D01*
X148241828Y-81155403D01*
X148243388Y-81150302D01*
X148244011Y-81144170D01*
X148244012Y-81144164D01*
X148252785Y-81057784D01*
X148252925Y-81056470D01*
X148253226Y-81053792D01*
X148258500Y-81006773D01*
X148258500Y-81003248D01*
X148258555Y-81002263D01*
X148259004Y-80996559D01*
X148262752Y-80959666D01*
X148262752Y-80959661D01*
X148263374Y-80953538D01*
X148259059Y-80907891D01*
X148258500Y-80896033D01*
X148258500Y-79950231D01*
X148257814Y-79943227D01*
X148244681Y-79809301D01*
X148244080Y-79803167D01*
X148240210Y-79790347D01*
X148213878Y-79703134D01*
X148208500Y-79666716D01*
X148208500Y-79351866D01*
X148201745Y-79289684D01*
X148150615Y-79153295D01*
X148063261Y-79036739D01*
X147946705Y-78949385D01*
X147810316Y-78898255D01*
X147748134Y-78891500D01*
X146751866Y-78891500D01*
X146689684Y-78898255D01*
X146553295Y-78949385D01*
X146436739Y-79036739D01*
X146349385Y-79153295D01*
X146298255Y-79289684D01*
X146291500Y-79351866D01*
X146291500Y-79666607D01*
X146285602Y-79704705D01*
X146258765Y-79789306D01*
X146241500Y-79943227D01*
X146241500Y-79966645D01*
X146221498Y-80034766D01*
X146167842Y-80081259D01*
X146104963Y-80091414D01*
X146104928Y-80092053D01*
X146101993Y-80091894D01*
X146101900Y-80091909D01*
X146101533Y-80091869D01*
X146101529Y-80091869D01*
X146098134Y-80091500D01*
X140759500Y-80091500D01*
X140691379Y-80071498D01*
X140644886Y-80017842D01*
X140633500Y-79965500D01*
X140633500Y-76571793D01*
X140635732Y-76548184D01*
X140635790Y-76547881D01*
X140635790Y-76547877D01*
X140637275Y-76540094D01*
X140633749Y-76484049D01*
X140633500Y-76476138D01*
X140633500Y-76460144D01*
X140631494Y-76444270D01*
X140630751Y-76436402D01*
X140627723Y-76388263D01*
X140627723Y-76388262D01*
X140627225Y-76380350D01*
X140624679Y-76372513D01*
X140619506Y-76349369D01*
X140619468Y-76349065D01*
X140619467Y-76349060D01*
X140618474Y-76341203D01*
X140615558Y-76333838D01*
X140615557Y-76333834D01*
X140597801Y-76288989D01*
X140595129Y-76281570D01*
X140577764Y-76228125D01*
X140573514Y-76221428D01*
X140573350Y-76221169D01*
X140562585Y-76200042D01*
X140562471Y-76199754D01*
X140562468Y-76199749D01*
X140559552Y-76192383D01*
X140554896Y-76185975D01*
X140554893Y-76185969D01*
X140526542Y-76146948D01*
X140522092Y-76140401D01*
X140492000Y-76092982D01*
X140485993Y-76087341D01*
X140470312Y-76069554D01*
X140470134Y-76069309D01*
X140470132Y-76069307D01*
X140465472Y-76062893D01*
X140459362Y-76057838D01*
X140422204Y-76027097D01*
X140416270Y-76021866D01*
X140381102Y-75988842D01*
X140381099Y-75988840D01*
X140375321Y-75983414D01*
X140368097Y-75979442D01*
X140348494Y-75966119D01*
X140348254Y-75965920D01*
X140348247Y-75965916D01*
X140342144Y-75960867D01*
X140291324Y-75936953D01*
X140284292Y-75933371D01*
X140235060Y-75906305D01*
X140227385Y-75904335D01*
X140227379Y-75904332D01*
X140227081Y-75904256D01*
X140204772Y-75896224D01*
X140204497Y-75896094D01*
X140204489Y-75896091D01*
X140197318Y-75892717D01*
X140142151Y-75882194D01*
X140134442Y-75880471D01*
X140100449Y-75871743D01*
X140087707Y-75868471D01*
X140087706Y-75868471D01*
X140080030Y-75866500D01*
X140071793Y-75866500D01*
X140048184Y-75864268D01*
X140047881Y-75864210D01*
X140047877Y-75864210D01*
X140040094Y-75862725D01*
X139984049Y-75866251D01*
X139976138Y-75866500D01*
X139309594Y-75866500D01*
X139241473Y-75846498D01*
X139194980Y-75792842D01*
X139184876Y-75722568D01*
X139189762Y-75701562D01*
X139191502Y-75696208D01*
X139191503Y-75696203D01*
X139193542Y-75689928D01*
X139201753Y-75611810D01*
X139212814Y-75506565D01*
X139213504Y-75500000D01*
X139210836Y-75474615D01*
X139194232Y-75316635D01*
X139194232Y-75316633D01*
X139193542Y-75310072D01*
X139134527Y-75128444D01*
X139077124Y-75029020D01*
X139060387Y-74960027D01*
X139083607Y-74892935D01*
X139100433Y-74875694D01*
X139099731Y-74874992D01*
X139106081Y-74868642D01*
X139113261Y-74863261D01*
X139200615Y-74746705D01*
X139245126Y-74627973D01*
X139287766Y-74571209D01*
X139354327Y-74546509D01*
X139423676Y-74561716D01*
X139452202Y-74583108D01*
X140186342Y-75317248D01*
X140193886Y-75325538D01*
X140197999Y-75332019D01*
X140203776Y-75337444D01*
X140247666Y-75378659D01*
X140250508Y-75381414D01*
X140270230Y-75401136D01*
X140273354Y-75403559D01*
X140273358Y-75403563D01*
X140273423Y-75403613D01*
X140282444Y-75411318D01*
X140314678Y-75441587D01*
X140321626Y-75445406D01*
X140321628Y-75445408D01*
X140332431Y-75451347D01*
X140348958Y-75462203D01*
X140358697Y-75469758D01*
X140358699Y-75469759D01*
X140364959Y-75474615D01*
X140405539Y-75492175D01*
X140416187Y-75497392D01*
X140440975Y-75511019D01*
X140454939Y-75518696D01*
X140462615Y-75520667D01*
X140462618Y-75520668D01*
X140474561Y-75523734D01*
X140493266Y-75530138D01*
X140511854Y-75538182D01*
X140519677Y-75539421D01*
X140519687Y-75539424D01*
X140555523Y-75545100D01*
X140567143Y-75547506D01*
X140598958Y-75555674D01*
X140609969Y-75558501D01*
X140630223Y-75558501D01*
X140649933Y-75560052D01*
X140669942Y-75563221D01*
X140677834Y-75562475D01*
X140696579Y-75560703D01*
X140713961Y-75559060D01*
X140725818Y-75558501D01*
X142631234Y-75558501D01*
X142642417Y-75559028D01*
X142649910Y-75560703D01*
X142657836Y-75560454D01*
X142657837Y-75560454D01*
X142717987Y-75558563D01*
X142721946Y-75558501D01*
X142749857Y-75558501D01*
X142753792Y-75558004D01*
X142753857Y-75557996D01*
X142765694Y-75557063D01*
X142797952Y-75556049D01*
X142801971Y-75555923D01*
X142809890Y-75555674D01*
X142829344Y-75550022D01*
X142848701Y-75546014D01*
X142860931Y-75544469D01*
X142860932Y-75544469D01*
X142868798Y-75543475D01*
X142876169Y-75540556D01*
X142876171Y-75540556D01*
X142909913Y-75527197D01*
X142921144Y-75523352D01*
X142941635Y-75517399D01*
X143012631Y-75517602D01*
X143072247Y-75556157D01*
X143101555Y-75620822D01*
X143102097Y-75651565D01*
X143086496Y-75800000D01*
X143087186Y-75806565D01*
X143103956Y-75966119D01*
X143106458Y-75989928D01*
X143165473Y-76171556D01*
X143168776Y-76177278D01*
X143168777Y-76177279D01*
X143181753Y-76199754D01*
X143260960Y-76336944D01*
X143265378Y-76341851D01*
X143265379Y-76341852D01*
X143371857Y-76460108D01*
X143388747Y-76478866D01*
X143443786Y-76518854D01*
X143536482Y-76586202D01*
X143543248Y-76591118D01*
X143549276Y-76593802D01*
X143549278Y-76593803D01*
X143711681Y-76666109D01*
X143717712Y-76668794D01*
X143811112Y-76688647D01*
X143898056Y-76707128D01*
X143898061Y-76707128D01*
X143904513Y-76708500D01*
X144095487Y-76708500D01*
X144101939Y-76707128D01*
X144101944Y-76707128D01*
X144188888Y-76688647D01*
X144282288Y-76668794D01*
X144288319Y-76666109D01*
X144450722Y-76593803D01*
X144450724Y-76593802D01*
X144456752Y-76591118D01*
X144463519Y-76586202D01*
X144554407Y-76520167D01*
X144621274Y-76496309D01*
X144663620Y-76501106D01*
X144689989Y-76508767D01*
X144689993Y-76508768D01*
X144696169Y-76510562D01*
X144702579Y-76511067D01*
X144702582Y-76511067D01*
X144731042Y-76513307D01*
X144731050Y-76513307D01*
X144733498Y-76513500D01*
X146516502Y-76513500D01*
X146518950Y-76513307D01*
X146518958Y-76513307D01*
X146547421Y-76511067D01*
X146547426Y-76511066D01*
X146553831Y-76510562D01*
X146658714Y-76480091D01*
X146705988Y-76466357D01*
X146705990Y-76466356D01*
X146713601Y-76464145D01*
X146760512Y-76436402D01*
X146849980Y-76383491D01*
X146849983Y-76383489D01*
X146856807Y-76379453D01*
X146974453Y-76261807D01*
X146978489Y-76254983D01*
X146978491Y-76254980D01*
X147055108Y-76125427D01*
X147059145Y-76118601D01*
X147105562Y-75958831D01*
X147107417Y-75935269D01*
X147108307Y-75923958D01*
X147108307Y-75923950D01*
X147108500Y-75921502D01*
X147108500Y-75488498D01*
X147107655Y-75477760D01*
X147106067Y-75457579D01*
X147106066Y-75457574D01*
X147105562Y-75451169D01*
X147059145Y-75291399D01*
X146974453Y-75148193D01*
X146971771Y-75145511D01*
X146946498Y-75081139D01*
X146960400Y-75011516D01*
X146970572Y-74995688D01*
X146974453Y-74991807D01*
X147059145Y-74848601D01*
X147061415Y-74840790D01*
X147076528Y-74788769D01*
X147105562Y-74688831D01*
X147108500Y-74651502D01*
X147108500Y-74218498D01*
X147105562Y-74181169D01*
X147076528Y-74081231D01*
X147061357Y-74029012D01*
X147061356Y-74029010D01*
X147059145Y-74021399D01*
X146974453Y-73878193D01*
X146971771Y-73875511D01*
X146946498Y-73811139D01*
X146960400Y-73741516D01*
X146970572Y-73725688D01*
X146974453Y-73721807D01*
X147059145Y-73578601D01*
X147062799Y-73566026D01*
X147080462Y-73505225D01*
X147105562Y-73418831D01*
X147106205Y-73410673D01*
X147108307Y-73383958D01*
X147108307Y-73383950D01*
X147108500Y-73381502D01*
X147108500Y-72948498D01*
X147108179Y-72944416D01*
X147106067Y-72917579D01*
X147106066Y-72917574D01*
X147105562Y-72911169D01*
X147059145Y-72751399D01*
X146974453Y-72608193D01*
X146971771Y-72605511D01*
X146946498Y-72541139D01*
X146960400Y-72471516D01*
X146970572Y-72455688D01*
X146974453Y-72451807D01*
X147059145Y-72308601D01*
X147105562Y-72148831D01*
X147108204Y-72115271D01*
X147108307Y-72113958D01*
X147108307Y-72113950D01*
X147108500Y-72111502D01*
X147108500Y-71678498D01*
X147107998Y-71672115D01*
X147106067Y-71647579D01*
X147106066Y-71647574D01*
X147105562Y-71641169D01*
X147059145Y-71481399D01*
X147028469Y-71429528D01*
X146978491Y-71345020D01*
X146978489Y-71345017D01*
X146974453Y-71338193D01*
X146856807Y-71220547D01*
X146849983Y-71216511D01*
X146849980Y-71216509D01*
X146720427Y-71139892D01*
X146720428Y-71139892D01*
X146713601Y-71135855D01*
X146705990Y-71133644D01*
X146705988Y-71133643D01*
X146653769Y-71118472D01*
X146553831Y-71089438D01*
X146547426Y-71088934D01*
X146547421Y-71088933D01*
X146518958Y-71086693D01*
X146518950Y-71086693D01*
X146516502Y-71086500D01*
X144733498Y-71086500D01*
X144731050Y-71086693D01*
X144731042Y-71086693D01*
X144702579Y-71088933D01*
X144702574Y-71088934D01*
X144696169Y-71089438D01*
X144596231Y-71118472D01*
X144544012Y-71133643D01*
X144544010Y-71133644D01*
X144536399Y-71135855D01*
X144529572Y-71139892D01*
X144529573Y-71139892D01*
X144400020Y-71216509D01*
X144400017Y-71216511D01*
X144393193Y-71220547D01*
X144387585Y-71226155D01*
X144381325Y-71231011D01*
X144380156Y-71229504D01*
X144326833Y-71258621D01*
X144300050Y-71261500D01*
X143683767Y-71261500D01*
X143672584Y-71260973D01*
X143665091Y-71259298D01*
X143657165Y-71259547D01*
X143657164Y-71259547D01*
X143597014Y-71261438D01*
X143593055Y-71261500D01*
X143565144Y-71261500D01*
X143561210Y-71261997D01*
X143561209Y-71261997D01*
X143561144Y-71262005D01*
X143549307Y-71262938D01*
X143517490Y-71263938D01*
X143513029Y-71264078D01*
X143505110Y-71264327D01*
X143487454Y-71269456D01*
X143485658Y-71269978D01*
X143466306Y-71273986D01*
X143459235Y-71274880D01*
X143446203Y-71276526D01*
X143438834Y-71279443D01*
X143438832Y-71279444D01*
X143405097Y-71292800D01*
X143393869Y-71296645D01*
X143351407Y-71308982D01*
X143344585Y-71313016D01*
X143344579Y-71313019D01*
X143333968Y-71319294D01*
X143316218Y-71327990D01*
X143304756Y-71332528D01*
X143304751Y-71332531D01*
X143297383Y-71335448D01*
X143290968Y-71340109D01*
X143261625Y-71361427D01*
X143251707Y-71367943D01*
X143233019Y-71378995D01*
X143213637Y-71390458D01*
X143199313Y-71404782D01*
X143184281Y-71417621D01*
X143179335Y-71421215D01*
X143174305Y-71424869D01*
X143174303Y-71424871D01*
X143167893Y-71429528D01*
X143167408Y-71430114D01*
X143106904Y-71460726D01*
X143036282Y-71453440D01*
X142980810Y-71409129D01*
X142958000Y-71336825D01*
X142957999Y-70955332D01*
X142957629Y-70948510D01*
X142952105Y-70897648D01*
X142948479Y-70882396D01*
X142903324Y-70761946D01*
X142894786Y-70746351D01*
X142818285Y-70644276D01*
X142805724Y-70631715D01*
X142703649Y-70555214D01*
X142688054Y-70546676D01*
X142567606Y-70501522D01*
X142552351Y-70497895D01*
X142501486Y-70492369D01*
X142494672Y-70492000D01*
X141972115Y-70492000D01*
X141956876Y-70496475D01*
X141955671Y-70497865D01*
X141954000Y-70505548D01*
X141954000Y-71628000D01*
X141933998Y-71696121D01*
X141880342Y-71742614D01*
X141828000Y-71754000D01*
X140460116Y-71754000D01*
X140444877Y-71758475D01*
X140443672Y-71759865D01*
X140442001Y-71767548D01*
X140442001Y-71852814D01*
X140421999Y-71920935D01*
X140368343Y-71967428D01*
X140298069Y-71977532D01*
X140264753Y-71967921D01*
X140188323Y-71933892D01*
X140188315Y-71933889D01*
X140182288Y-71931206D01*
X140088887Y-71911353D01*
X140001944Y-71892872D01*
X140001939Y-71892872D01*
X139995487Y-71891500D01*
X139804513Y-71891500D01*
X139798061Y-71892872D01*
X139798056Y-71892872D01*
X139711113Y-71911353D01*
X139617712Y-71931206D01*
X139611682Y-71933891D01*
X139611681Y-71933891D01*
X139587473Y-71944669D01*
X139443248Y-72008882D01*
X139443064Y-72008468D01*
X139378002Y-72024250D01*
X139310911Y-72001028D01*
X139267025Y-71945220D01*
X139258000Y-71898393D01*
X139258000Y-71672115D01*
X139253525Y-71656876D01*
X139252135Y-71655671D01*
X139244452Y-71654000D01*
X136760116Y-71654000D01*
X136744877Y-71658475D01*
X136743672Y-71659865D01*
X136742001Y-71667548D01*
X136742001Y-71944669D01*
X136742371Y-71951490D01*
X136747895Y-72002349D01*
X136752035Y-72019764D01*
X136752034Y-72078058D01*
X136751029Y-72082284D01*
X136748255Y-72089684D01*
X136741500Y-72151866D01*
X136741500Y-73248134D01*
X136748255Y-73310316D01*
X136751029Y-73317715D01*
X136751775Y-73320854D01*
X136751775Y-73379146D01*
X136751029Y-73382285D01*
X136748255Y-73389684D01*
X136741500Y-73451866D01*
X136741500Y-74548134D01*
X136748255Y-74610316D01*
X136799385Y-74746705D01*
X136886739Y-74863261D01*
X137003295Y-74950615D01*
X137139684Y-75001745D01*
X137201866Y-75008500D01*
X137331021Y-75008500D01*
X137399142Y-75028502D01*
X137445635Y-75082158D01*
X137455739Y-75152432D01*
X137450854Y-75173436D01*
X137406458Y-75310072D01*
X137405768Y-75316633D01*
X137405768Y-75316635D01*
X137389164Y-75474615D01*
X137386496Y-75500000D01*
X137383489Y-75499684D01*
X137367184Y-75555213D01*
X137313528Y-75601706D01*
X137243254Y-75611810D01*
X137178674Y-75582316D01*
X137172091Y-75576187D01*
X134546873Y-72950968D01*
X132823790Y-71227885D01*
X140442000Y-71227885D01*
X140446475Y-71243124D01*
X140447865Y-71244329D01*
X140455548Y-71246000D01*
X141427885Y-71246000D01*
X141443124Y-71241525D01*
X141444329Y-71240135D01*
X141446000Y-71232452D01*
X141446000Y-70510116D01*
X141441525Y-70494877D01*
X141440135Y-70493672D01*
X141432452Y-70492001D01*
X140905331Y-70492001D01*
X140898510Y-70492371D01*
X140847648Y-70497895D01*
X140832396Y-70501521D01*
X140711946Y-70546676D01*
X140696351Y-70555214D01*
X140594276Y-70631715D01*
X140581715Y-70644276D01*
X140505214Y-70746351D01*
X140496676Y-70761946D01*
X140451522Y-70882394D01*
X140447895Y-70897649D01*
X140442369Y-70948514D01*
X140442000Y-70955328D01*
X140442000Y-71227885D01*
X132823790Y-71227885D01*
X132723790Y-71127885D01*
X136742000Y-71127885D01*
X136746475Y-71143124D01*
X136747865Y-71144329D01*
X136755548Y-71146000D01*
X137727885Y-71146000D01*
X137743124Y-71141525D01*
X137744329Y-71140135D01*
X137746000Y-71132452D01*
X137746000Y-71127885D01*
X138254000Y-71127885D01*
X138258475Y-71143124D01*
X138259865Y-71144329D01*
X138267548Y-71146000D01*
X139239884Y-71146000D01*
X139255123Y-71141525D01*
X139256328Y-71140135D01*
X139257999Y-71132452D01*
X139257999Y-70855331D01*
X139257629Y-70848510D01*
X139252105Y-70797648D01*
X139248479Y-70782396D01*
X139203324Y-70661946D01*
X139194786Y-70646351D01*
X139118285Y-70544276D01*
X139105724Y-70531715D01*
X139003649Y-70455214D01*
X138988054Y-70446676D01*
X138867606Y-70401522D01*
X138852351Y-70397895D01*
X138801486Y-70392369D01*
X138794672Y-70392000D01*
X138272115Y-70392000D01*
X138256876Y-70396475D01*
X138255671Y-70397865D01*
X138254000Y-70405548D01*
X138254000Y-71127885D01*
X137746000Y-71127885D01*
X137746000Y-70410116D01*
X137741525Y-70394877D01*
X137740135Y-70393672D01*
X137732452Y-70392001D01*
X137205331Y-70392001D01*
X137198510Y-70392371D01*
X137147648Y-70397895D01*
X137132396Y-70401521D01*
X137011946Y-70446676D01*
X136996351Y-70455214D01*
X136894276Y-70531715D01*
X136881715Y-70544276D01*
X136805214Y-70646351D01*
X136796676Y-70661946D01*
X136751522Y-70782394D01*
X136747895Y-70797649D01*
X136742369Y-70848514D01*
X136742000Y-70855328D01*
X136742000Y-71127885D01*
X132723790Y-71127885D01*
X131670405Y-70074500D01*
X131636379Y-70012188D01*
X131633500Y-69985405D01*
X131633500Y-68700400D01*
X132691500Y-68700400D01*
X132691837Y-68703646D01*
X132691837Y-68703650D01*
X132700532Y-68787446D01*
X132702474Y-68806166D01*
X132704655Y-68812702D01*
X132704655Y-68812704D01*
X132740371Y-68919758D01*
X132758450Y-68973946D01*
X132851522Y-69124348D01*
X132976697Y-69249305D01*
X132982927Y-69253145D01*
X132982928Y-69253146D01*
X133120090Y-69337694D01*
X133127262Y-69342115D01*
X133135876Y-69344972D01*
X133288611Y-69395632D01*
X133288613Y-69395632D01*
X133295139Y-69397797D01*
X133301975Y-69398497D01*
X133301978Y-69398498D01*
X133345031Y-69402909D01*
X133399600Y-69408500D01*
X134800400Y-69408500D01*
X134803646Y-69408163D01*
X134803650Y-69408163D01*
X134899308Y-69398238D01*
X134899312Y-69398237D01*
X134906166Y-69397526D01*
X134912702Y-69395345D01*
X134912704Y-69395345D01*
X135063689Y-69344972D01*
X135073946Y-69341550D01*
X135224348Y-69248478D01*
X135349305Y-69123303D01*
X135374303Y-69082749D01*
X135438275Y-68978968D01*
X135438276Y-68978966D01*
X135442115Y-68972738D01*
X135470832Y-68886159D01*
X135495632Y-68811389D01*
X135495632Y-68811387D01*
X135497797Y-68804861D01*
X135499582Y-68787446D01*
X135508172Y-68703598D01*
X135508500Y-68700400D01*
X135508500Y-68530363D01*
X135528502Y-68462242D01*
X135582158Y-68415749D01*
X135652432Y-68405645D01*
X135717012Y-68435139D01*
X135723590Y-68441263D01*
X136049585Y-68767258D01*
X136057119Y-68775537D01*
X136061232Y-68782018D01*
X136093910Y-68812704D01*
X136110883Y-68828643D01*
X136113725Y-68831398D01*
X136133462Y-68851135D01*
X136136659Y-68853615D01*
X136145679Y-68861318D01*
X136177911Y-68891586D01*
X136184857Y-68895405D01*
X136184860Y-68895407D01*
X136195666Y-68901348D01*
X136212185Y-68912199D01*
X136228191Y-68924614D01*
X136235460Y-68927759D01*
X136235464Y-68927762D01*
X136268769Y-68942174D01*
X136279419Y-68947391D01*
X136318172Y-68968695D01*
X136325847Y-68970666D01*
X136325848Y-68970666D01*
X136337794Y-68973733D01*
X136356499Y-68980137D01*
X136375087Y-68988181D01*
X136382910Y-68989420D01*
X136382920Y-68989423D01*
X136418756Y-68995099D01*
X136430376Y-68997505D01*
X136465521Y-69006528D01*
X136473202Y-69008500D01*
X136493456Y-69008500D01*
X136513166Y-69010051D01*
X136533175Y-69013220D01*
X136541067Y-69012474D01*
X136577193Y-69009059D01*
X136589051Y-69008500D01*
X139429095Y-69008500D01*
X139497216Y-69028502D01*
X139536236Y-69068193D01*
X139573884Y-69129031D01*
X139579066Y-69134204D01*
X139691816Y-69246758D01*
X139691821Y-69246762D01*
X139696997Y-69251929D01*
X139703227Y-69255769D01*
X139703228Y-69255770D01*
X139837926Y-69338799D01*
X139845080Y-69343209D01*
X140010191Y-69397974D01*
X140017027Y-69398674D01*
X140017030Y-69398675D01*
X140068526Y-69403951D01*
X140112928Y-69408500D01*
X140687072Y-69408500D01*
X140690318Y-69408163D01*
X140690322Y-69408163D01*
X140784235Y-69398419D01*
X140784239Y-69398418D01*
X140791093Y-69397707D01*
X140797629Y-69395526D01*
X140797631Y-69395526D01*
X140930395Y-69351232D01*
X140956107Y-69342654D01*
X141003221Y-69313499D01*
X141071673Y-69294662D01*
X141143584Y-69318708D01*
X141180478Y-69345513D01*
X141243248Y-69391118D01*
X141249276Y-69393802D01*
X141249278Y-69393803D01*
X141411681Y-69466109D01*
X141417712Y-69468794D01*
X141511112Y-69488647D01*
X141598056Y-69507128D01*
X141598061Y-69507128D01*
X141604513Y-69508500D01*
X141795487Y-69508500D01*
X141801939Y-69507128D01*
X141801944Y-69507128D01*
X141888888Y-69488647D01*
X141982288Y-69468794D01*
X141988319Y-69466109D01*
X142150722Y-69393803D01*
X142150724Y-69393802D01*
X142156752Y-69391118D01*
X142311253Y-69278866D01*
X142321830Y-69267119D01*
X142434621Y-69141852D01*
X142434622Y-69141851D01*
X142439040Y-69136944D01*
X142445837Y-69125171D01*
X142497218Y-69076178D01*
X142566932Y-69062741D01*
X142632843Y-69089128D01*
X142643969Y-69098993D01*
X142696997Y-69151929D01*
X142703227Y-69155769D01*
X142703228Y-69155770D01*
X142760919Y-69191331D01*
X142845080Y-69243209D01*
X143010191Y-69297974D01*
X143017027Y-69298674D01*
X143017030Y-69298675D01*
X143068526Y-69303951D01*
X143112928Y-69308500D01*
X143687072Y-69308500D01*
X143690318Y-69308163D01*
X143690322Y-69308163D01*
X143784235Y-69298419D01*
X143784239Y-69298418D01*
X143791093Y-69297707D01*
X143797629Y-69295526D01*
X143797631Y-69295526D01*
X143930395Y-69251232D01*
X143956107Y-69242654D01*
X144026178Y-69199293D01*
X144094626Y-69180456D01*
X144143726Y-69191331D01*
X144149279Y-69193803D01*
X144310314Y-69265500D01*
X144317712Y-69268794D01*
X144383365Y-69282749D01*
X144498056Y-69307128D01*
X144498061Y-69307128D01*
X144504513Y-69308500D01*
X144695487Y-69308500D01*
X144701939Y-69307128D01*
X144701944Y-69307128D01*
X144816635Y-69282749D01*
X144882288Y-69268794D01*
X144888319Y-69266109D01*
X145050722Y-69193803D01*
X145050724Y-69193802D01*
X145056752Y-69191118D01*
X145211253Y-69078866D01*
X145215675Y-69073955D01*
X145334621Y-68941852D01*
X145334622Y-68941851D01*
X145339040Y-68936944D01*
X145434527Y-68771556D01*
X145493542Y-68589928D01*
X145499803Y-68530363D01*
X145512814Y-68406565D01*
X145513504Y-68400000D01*
X145493542Y-68210072D01*
X145434527Y-68028444D01*
X145339040Y-67863056D01*
X145265863Y-67781785D01*
X145235147Y-67717779D01*
X145233500Y-67697476D01*
X145233500Y-66483253D01*
X145234027Y-66472069D01*
X145235701Y-66464581D01*
X145233562Y-66396522D01*
X145233500Y-66392565D01*
X145233500Y-66364634D01*
X145232994Y-66360628D01*
X145232061Y-66348782D01*
X145231046Y-66316456D01*
X145230673Y-66304600D01*
X145225022Y-66285148D01*
X145221014Y-66265796D01*
X145219468Y-66253558D01*
X145219467Y-66253556D01*
X145218474Y-66245693D01*
X145202194Y-66204576D01*
X145198359Y-66193375D01*
X145186018Y-66150896D01*
X145181985Y-66144077D01*
X145181983Y-66144072D01*
X145175707Y-66133461D01*
X145167010Y-66115711D01*
X145159552Y-66096873D01*
X145133571Y-66061113D01*
X145127053Y-66051191D01*
X145108578Y-66019950D01*
X145108574Y-66019945D01*
X145104542Y-66013127D01*
X145090218Y-65998803D01*
X145077376Y-65983768D01*
X145071709Y-65975968D01*
X145065472Y-65967383D01*
X145031406Y-65939201D01*
X145022627Y-65931212D01*
X142699162Y-63607747D01*
X142691622Y-63599461D01*
X142687510Y-63592982D01*
X142637858Y-63546356D01*
X142635017Y-63543602D01*
X142615280Y-63523865D01*
X142612083Y-63521385D01*
X142603061Y-63513680D01*
X142576610Y-63488841D01*
X142570831Y-63483414D01*
X142563885Y-63479595D01*
X142563882Y-63479593D01*
X142553076Y-63473652D01*
X142536557Y-63462801D01*
X142535544Y-63462015D01*
X142520551Y-63450386D01*
X142513282Y-63447241D01*
X142513278Y-63447238D01*
X142479973Y-63432826D01*
X142469323Y-63427609D01*
X142430570Y-63406305D01*
X142410947Y-63401267D01*
X142392244Y-63394863D01*
X142380930Y-63389967D01*
X142380929Y-63389967D01*
X142373655Y-63386819D01*
X142365832Y-63385580D01*
X142365822Y-63385577D01*
X142329986Y-63379901D01*
X142318366Y-63377495D01*
X142283221Y-63368472D01*
X142283220Y-63368472D01*
X142275540Y-63366500D01*
X142255286Y-63366500D01*
X142235575Y-63364949D01*
X142223396Y-63363020D01*
X142215567Y-63361780D01*
X142207675Y-63362526D01*
X142171549Y-63365941D01*
X142159691Y-63366500D01*
X137749950Y-63366500D01*
X137681829Y-63346498D01*
X137668729Y-63335941D01*
X137668675Y-63336011D01*
X137662415Y-63331155D01*
X137656807Y-63325547D01*
X137649983Y-63321511D01*
X137649980Y-63321509D01*
X137520427Y-63244892D01*
X137520425Y-63244891D01*
X137513601Y-63240855D01*
X137505990Y-63238644D01*
X137505988Y-63238643D01*
X137453769Y-63223472D01*
X137353831Y-63194438D01*
X137347426Y-63193934D01*
X137347421Y-63193933D01*
X137318958Y-63191693D01*
X137318950Y-63191693D01*
X137316502Y-63191500D01*
X135933498Y-63191500D01*
X135931050Y-63191693D01*
X135931042Y-63191693D01*
X135902579Y-63193933D01*
X135902574Y-63193934D01*
X135896169Y-63194438D01*
X135796231Y-63223472D01*
X135744012Y-63238643D01*
X135744010Y-63238644D01*
X135736399Y-63240855D01*
X135729575Y-63244891D01*
X135693414Y-63266276D01*
X135624598Y-63283735D01*
X135557266Y-63261217D01*
X135512798Y-63205872D01*
X135503932Y-63144980D01*
X135508500Y-63100400D01*
X135508500Y-62299600D01*
X135497526Y-62193834D01*
X135441550Y-62026054D01*
X135348478Y-61875652D01*
X135223303Y-61750695D01*
X135150926Y-61706081D01*
X135078968Y-61661725D01*
X135078966Y-61661724D01*
X135072738Y-61657885D01*
X134912254Y-61604655D01*
X134911389Y-61604368D01*
X134911387Y-61604368D01*
X134904861Y-61602203D01*
X134898025Y-61601503D01*
X134898022Y-61601502D01*
X134854969Y-61597091D01*
X134800400Y-61591500D01*
X133399600Y-61591500D01*
X133396354Y-61591837D01*
X133396350Y-61591837D01*
X133300692Y-61601762D01*
X133300688Y-61601763D01*
X133293834Y-61602474D01*
X133287298Y-61604655D01*
X133287296Y-61604655D01*
X133155194Y-61648728D01*
X133126054Y-61658450D01*
X132975652Y-61751522D01*
X132850695Y-61876697D01*
X132757885Y-62027262D01*
X132702203Y-62195139D01*
X132691500Y-62299600D01*
X132691500Y-63100400D01*
X132691837Y-63103646D01*
X132691837Y-63103650D01*
X132701205Y-63193933D01*
X132702474Y-63206166D01*
X132704655Y-63212702D01*
X132704655Y-63212704D01*
X132722528Y-63266276D01*
X132758450Y-63373946D01*
X132851522Y-63524348D01*
X132976697Y-63649305D01*
X132982927Y-63653145D01*
X132982928Y-63653146D01*
X133120090Y-63737694D01*
X133127262Y-63742115D01*
X133139485Y-63746169D01*
X133288611Y-63795632D01*
X133288613Y-63795632D01*
X133295139Y-63797797D01*
X133301975Y-63798497D01*
X133301978Y-63798498D01*
X133345031Y-63802909D01*
X133399600Y-63808500D01*
X134800400Y-63808500D01*
X134803646Y-63808163D01*
X134803650Y-63808163D01*
X134899308Y-63798238D01*
X134899312Y-63798237D01*
X134906166Y-63797526D01*
X134912702Y-63795345D01*
X134912704Y-63795345D01*
X135060101Y-63746169D01*
X135073946Y-63741550D01*
X135149197Y-63694983D01*
X135217649Y-63676145D01*
X135285418Y-63697306D01*
X135330990Y-63751747D01*
X135341500Y-63802127D01*
X135341500Y-64216502D01*
X135344438Y-64253831D01*
X135390855Y-64413601D01*
X135394890Y-64420424D01*
X135394891Y-64420426D01*
X135396667Y-64423429D01*
X135397343Y-64426092D01*
X135398039Y-64427701D01*
X135397779Y-64427813D01*
X135414127Y-64492245D01*
X135391611Y-64559576D01*
X135385267Y-64567922D01*
X135384680Y-64568631D01*
X135376722Y-64577374D01*
X135132732Y-64821363D01*
X135124453Y-64828897D01*
X135117972Y-64833010D01*
X135075629Y-64878101D01*
X135071346Y-64882662D01*
X135068591Y-64885504D01*
X135048855Y-64905240D01*
X135046375Y-64908437D01*
X135038672Y-64917457D01*
X135008404Y-64949689D01*
X135004585Y-64956635D01*
X135004583Y-64956638D01*
X134998642Y-64967444D01*
X134987791Y-64983963D01*
X134975376Y-64999969D01*
X134972231Y-65007238D01*
X134972228Y-65007242D01*
X134957816Y-65040547D01*
X134952599Y-65051197D01*
X134931295Y-65089950D01*
X134929324Y-65097625D01*
X134929324Y-65097626D01*
X134926257Y-65109572D01*
X134919853Y-65128276D01*
X134911809Y-65146865D01*
X134910570Y-65154688D01*
X134910567Y-65154698D01*
X134904891Y-65190534D01*
X134902485Y-65202154D01*
X134898166Y-65218976D01*
X134891490Y-65244980D01*
X134891490Y-65265234D01*
X134889939Y-65284944D01*
X134886770Y-65304953D01*
X134887516Y-65312845D01*
X134890931Y-65348971D01*
X134891490Y-65360829D01*
X134891490Y-67065500D01*
X134871488Y-67133621D01*
X134817832Y-67180114D01*
X134765490Y-67191500D01*
X133399600Y-67191500D01*
X133396354Y-67191837D01*
X133396350Y-67191837D01*
X133300692Y-67201762D01*
X133300688Y-67201763D01*
X133293834Y-67202474D01*
X133287298Y-67204655D01*
X133287296Y-67204655D01*
X133199345Y-67233998D01*
X133126054Y-67258450D01*
X132975652Y-67351522D01*
X132850695Y-67476697D01*
X132846855Y-67482927D01*
X132846854Y-67482928D01*
X132776189Y-67597568D01*
X132757885Y-67627262D01*
X132740028Y-67681100D01*
X132706632Y-67781787D01*
X132702203Y-67795139D01*
X132691500Y-67899600D01*
X132691500Y-68700400D01*
X131633500Y-68700400D01*
X131633500Y-61014669D01*
X140516001Y-61014669D01*
X140516371Y-61021490D01*
X140521895Y-61072352D01*
X140525521Y-61087604D01*
X140570676Y-61208054D01*
X140579214Y-61223649D01*
X140655715Y-61325724D01*
X140668276Y-61338285D01*
X140770351Y-61414786D01*
X140785946Y-61423324D01*
X140906394Y-61468478D01*
X140921649Y-61472105D01*
X140972514Y-61477631D01*
X140979328Y-61478000D01*
X141651885Y-61478000D01*
X141667124Y-61473525D01*
X141668329Y-61472135D01*
X141670000Y-61464452D01*
X141670000Y-61459884D01*
X142178000Y-61459884D01*
X142182475Y-61475123D01*
X142183865Y-61476328D01*
X142191548Y-61477999D01*
X142868669Y-61477999D01*
X142875490Y-61477629D01*
X142926352Y-61472105D01*
X142941604Y-61468479D01*
X143062054Y-61423324D01*
X143077649Y-61414786D01*
X143179724Y-61338285D01*
X143192285Y-61325724D01*
X143268786Y-61223649D01*
X143277324Y-61208054D01*
X143322478Y-61087606D01*
X143326105Y-61072351D01*
X143331631Y-61021486D01*
X143332000Y-61014672D01*
X143332000Y-60442115D01*
X143327525Y-60426876D01*
X143326135Y-60425671D01*
X143318452Y-60424000D01*
X142196115Y-60424000D01*
X142180876Y-60428475D01*
X142179671Y-60429865D01*
X142178000Y-60437548D01*
X142178000Y-61459884D01*
X141670000Y-61459884D01*
X141670000Y-60442115D01*
X141665525Y-60426876D01*
X141664135Y-60425671D01*
X141656452Y-60424000D01*
X140534116Y-60424000D01*
X140518877Y-60428475D01*
X140517672Y-60429865D01*
X140516001Y-60437548D01*
X140516001Y-61014669D01*
X131633500Y-61014669D01*
X131633500Y-60684500D01*
X131653502Y-60616379D01*
X131707158Y-60569886D01*
X131759500Y-60558500D01*
X131898134Y-60558500D01*
X131960316Y-60551745D01*
X132096705Y-60500615D01*
X132213261Y-60413261D01*
X132300615Y-60296705D01*
X132317706Y-60251116D01*
X132344598Y-60179382D01*
X132387240Y-60122618D01*
X132453802Y-60097918D01*
X132523150Y-60113126D01*
X132557817Y-60141114D01*
X132586250Y-60173938D01*
X132758126Y-60316632D01*
X132951000Y-60429338D01*
X132955825Y-60431180D01*
X132955826Y-60431181D01*
X133028612Y-60458975D01*
X133159692Y-60509030D01*
X133164760Y-60510061D01*
X133164763Y-60510062D01*
X133259862Y-60529410D01*
X133378597Y-60553567D01*
X133383772Y-60553757D01*
X133383774Y-60553757D01*
X133596673Y-60561564D01*
X133596677Y-60561564D01*
X133601837Y-60561753D01*
X133606957Y-60561097D01*
X133606959Y-60561097D01*
X133818288Y-60534025D01*
X133818289Y-60534025D01*
X133823416Y-60533368D01*
X133828366Y-60531883D01*
X134032429Y-60470661D01*
X134032434Y-60470659D01*
X134037384Y-60469174D01*
X134237994Y-60370896D01*
X134419860Y-60241173D01*
X134578096Y-60083489D01*
X134652518Y-59979920D01*
X134708453Y-59902077D01*
X134709640Y-59902930D01*
X134756960Y-59859362D01*
X134826897Y-59847145D01*
X134892338Y-59874678D01*
X134920166Y-59906511D01*
X134977694Y-60000388D01*
X134983777Y-60008699D01*
X135123213Y-60169667D01*
X135130580Y-60176883D01*
X135294434Y-60312916D01*
X135302881Y-60318831D01*
X135486756Y-60426279D01*
X135496042Y-60430729D01*
X135695001Y-60506703D01*
X135704899Y-60509579D01*
X135808250Y-60530606D01*
X135822299Y-60529410D01*
X135826000Y-60519065D01*
X135826000Y-60518517D01*
X136334000Y-60518517D01*
X136338064Y-60532359D01*
X136351478Y-60534393D01*
X136358184Y-60533534D01*
X136368262Y-60531392D01*
X136572255Y-60470191D01*
X136581842Y-60466433D01*
X136773095Y-60372739D01*
X136781945Y-60367464D01*
X136955328Y-60243792D01*
X136963200Y-60237139D01*
X137114052Y-60086812D01*
X137120730Y-60078965D01*
X137245003Y-59906020D01*
X137250313Y-59897183D01*
X137344670Y-59706267D01*
X137348469Y-59696672D01*
X137410377Y-59492910D01*
X137412555Y-59482837D01*
X137413986Y-59471962D01*
X137411775Y-59457778D01*
X137398617Y-59454000D01*
X136352115Y-59454000D01*
X136336876Y-59458475D01*
X136335671Y-59459865D01*
X136334000Y-59467548D01*
X136334000Y-60518517D01*
X135826000Y-60518517D01*
X135826000Y-57883102D01*
X135822082Y-57869758D01*
X135807806Y-57867771D01*
X135769324Y-57873660D01*
X135759288Y-57876051D01*
X135556868Y-57942212D01*
X135547359Y-57946209D01*
X135358463Y-58044542D01*
X135349738Y-58050036D01*
X135179433Y-58177905D01*
X135171726Y-58184748D01*
X135024590Y-58338717D01*
X135018109Y-58346722D01*
X134913498Y-58500074D01*
X134858587Y-58545076D01*
X134788062Y-58553247D01*
X134724315Y-58521993D01*
X134703618Y-58497509D01*
X134622822Y-58372617D01*
X134622820Y-58372614D01*
X134620014Y-58368277D01*
X134469670Y-58203051D01*
X134465620Y-58199853D01*
X134465612Y-58199845D01*
X134447368Y-58185438D01*
X134406304Y-58127522D01*
X134403071Y-58056599D01*
X134436363Y-57997460D01*
X134963418Y-57470405D01*
X135025730Y-57436379D01*
X135052513Y-57433500D01*
X136035406Y-57433500D01*
X136103527Y-57453502D01*
X136124501Y-57470405D01*
X136341392Y-57687296D01*
X136375418Y-57749608D01*
X136370353Y-57820423D01*
X136341728Y-57860213D01*
X136334000Y-57884989D01*
X136334000Y-58927885D01*
X136338475Y-58943124D01*
X136339865Y-58944329D01*
X136347548Y-58946000D01*
X137398344Y-58946000D01*
X137419614Y-58939754D01*
X137469192Y-58907891D01*
X137540189Y-58907890D01*
X137593787Y-58939692D01*
X138390710Y-59736615D01*
X138424736Y-59798927D01*
X138425826Y-59805736D01*
X138426581Y-59809234D01*
X138427293Y-59816093D01*
X138429474Y-59822629D01*
X138429474Y-59822631D01*
X138456105Y-59902452D01*
X138482346Y-59981107D01*
X138573884Y-60129031D01*
X138579066Y-60134204D01*
X138691816Y-60246758D01*
X138691821Y-60246762D01*
X138696997Y-60251929D01*
X138703227Y-60255769D01*
X138703228Y-60255770D01*
X138805532Y-60318831D01*
X138845080Y-60343209D01*
X139010191Y-60397974D01*
X139017027Y-60398674D01*
X139017030Y-60398675D01*
X139068526Y-60403951D01*
X139112928Y-60408500D01*
X139687072Y-60408500D01*
X139690318Y-60408163D01*
X139690322Y-60408163D01*
X139784235Y-60398419D01*
X139784239Y-60398418D01*
X139791093Y-60397707D01*
X139797629Y-60395526D01*
X139797631Y-60395526D01*
X139930395Y-60351232D01*
X139956107Y-60342654D01*
X140104031Y-60251116D01*
X140175640Y-60179382D01*
X140221758Y-60133184D01*
X140221762Y-60133179D01*
X140226929Y-60128003D01*
X140257157Y-60078965D01*
X140314369Y-59986150D01*
X140314370Y-59986148D01*
X140318209Y-59979920D01*
X140321140Y-59971082D01*
X140321919Y-59969958D01*
X140323607Y-59966338D01*
X140324227Y-59966627D01*
X140361570Y-59912724D01*
X140427134Y-59885486D01*
X140497015Y-59898019D01*
X140521254Y-59914196D01*
X140529548Y-59916000D01*
X143313884Y-59916000D01*
X143329123Y-59911525D01*
X143330328Y-59910135D01*
X143331999Y-59902452D01*
X143331999Y-59325331D01*
X143331629Y-59318510D01*
X143326105Y-59267648D01*
X143322479Y-59252396D01*
X143277324Y-59131946D01*
X143268786Y-59116351D01*
X143192285Y-59014276D01*
X143179725Y-59001716D01*
X143178950Y-59001135D01*
X143178375Y-59000366D01*
X143173374Y-58995365D01*
X143174096Y-58994643D01*
X143136438Y-58944274D01*
X143131416Y-58873455D01*
X143165478Y-58811163D01*
X143178955Y-58799486D01*
X143180081Y-58798642D01*
X143187261Y-58793261D01*
X143274615Y-58676705D01*
X143325745Y-58540316D01*
X143332500Y-58478134D01*
X143332500Y-56781866D01*
X143325745Y-56719684D01*
X143274615Y-56583295D01*
X143187261Y-56466739D01*
X143070705Y-56379385D01*
X142934316Y-56328255D01*
X142872134Y-56321500D01*
X140975866Y-56321500D01*
X140913684Y-56328255D01*
X140777295Y-56379385D01*
X140660739Y-56466739D01*
X140573385Y-56583295D01*
X140522255Y-56719684D01*
X140515500Y-56781866D01*
X140515500Y-56870500D01*
X140495498Y-56938621D01*
X140441842Y-56985114D01*
X140389500Y-56996500D01*
X140373999Y-56996500D01*
X140305878Y-56976498D01*
X140266858Y-56936807D01*
X140226116Y-56870969D01*
X140220934Y-56865796D01*
X140108184Y-56753242D01*
X140108179Y-56753238D01*
X140103003Y-56748071D01*
X140056064Y-56719137D01*
X139961150Y-56660631D01*
X139961148Y-56660630D01*
X139954920Y-56656791D01*
X139789809Y-56602026D01*
X139782973Y-56601326D01*
X139782970Y-56601325D01*
X139731474Y-56596049D01*
X139687072Y-56591500D01*
X139112928Y-56591500D01*
X139109682Y-56591837D01*
X139109678Y-56591837D01*
X139015765Y-56601581D01*
X139015761Y-56601582D01*
X139008907Y-56602293D01*
X139002371Y-56604474D01*
X139002369Y-56604474D01*
X138892405Y-56641161D01*
X138843893Y-56657346D01*
X138695969Y-56748884D01*
X138690796Y-56754066D01*
X138578242Y-56866816D01*
X138578238Y-56866821D01*
X138573071Y-56871997D01*
X138569231Y-56878227D01*
X138569230Y-56878228D01*
X138514749Y-56966613D01*
X138481791Y-57020080D01*
X138427026Y-57185191D01*
X138416500Y-57287928D01*
X138416500Y-57666405D01*
X138396498Y-57734526D01*
X138342842Y-57781019D01*
X138272568Y-57791123D01*
X138207988Y-57761629D01*
X138201405Y-57755500D01*
X136853652Y-56407747D01*
X136846112Y-56399461D01*
X136842000Y-56392982D01*
X136792348Y-56346356D01*
X136789507Y-56343602D01*
X136769770Y-56323865D01*
X136766573Y-56321385D01*
X136757551Y-56313680D01*
X136744116Y-56301064D01*
X136725321Y-56283414D01*
X136718375Y-56279595D01*
X136718372Y-56279593D01*
X136707566Y-56273652D01*
X136691047Y-56262801D01*
X136690583Y-56262441D01*
X136675041Y-56250386D01*
X136667772Y-56247241D01*
X136667768Y-56247238D01*
X136634463Y-56232826D01*
X136623813Y-56227609D01*
X136585060Y-56206305D01*
X136565437Y-56201267D01*
X136546734Y-56194863D01*
X136535420Y-56189967D01*
X136535419Y-56189967D01*
X136528145Y-56186819D01*
X136520322Y-56185580D01*
X136520312Y-56185577D01*
X136484476Y-56179901D01*
X136472856Y-56177495D01*
X136437711Y-56168472D01*
X136437710Y-56168472D01*
X136430030Y-56166500D01*
X136409776Y-56166500D01*
X136390065Y-56164949D01*
X136377886Y-56163020D01*
X136370057Y-56161780D01*
X136340786Y-56164547D01*
X136326039Y-56165941D01*
X136314181Y-56166500D01*
X134816686Y-56166500D01*
X134805503Y-56165973D01*
X134798010Y-56164298D01*
X134790084Y-56164547D01*
X134790083Y-56164547D01*
X134729933Y-56166438D01*
X134725974Y-56166500D01*
X134698063Y-56166500D01*
X134694129Y-56166997D01*
X134694128Y-56166997D01*
X134694063Y-56167005D01*
X134682226Y-56167938D01*
X134650409Y-56168938D01*
X134645948Y-56169078D01*
X134638029Y-56169327D01*
X134620373Y-56174456D01*
X134618577Y-56174978D01*
X134599225Y-56178986D01*
X134592154Y-56179880D01*
X134579122Y-56181526D01*
X134571753Y-56184443D01*
X134571751Y-56184444D01*
X134538016Y-56197800D01*
X134526788Y-56201645D01*
X134484326Y-56213982D01*
X134477504Y-56218016D01*
X134477498Y-56218019D01*
X134466887Y-56224294D01*
X134449137Y-56232990D01*
X134437675Y-56237528D01*
X134437670Y-56237531D01*
X134430302Y-56240448D01*
X134412889Y-56253099D01*
X134394544Y-56266427D01*
X134384626Y-56272943D01*
X134373382Y-56279593D01*
X134346556Y-56295458D01*
X134332232Y-56309782D01*
X134317200Y-56322621D01*
X134300812Y-56334528D01*
X134272631Y-56368593D01*
X134264641Y-56377373D01*
X133147747Y-57494267D01*
X133139461Y-57501807D01*
X133132982Y-57505919D01*
X133127557Y-57511696D01*
X133086357Y-57555570D01*
X133083602Y-57558412D01*
X133063865Y-57578149D01*
X133061385Y-57581346D01*
X133053682Y-57590366D01*
X133023414Y-57622598D01*
X133019595Y-57629544D01*
X133019593Y-57629547D01*
X133013652Y-57640353D01*
X133002801Y-57656872D01*
X132990386Y-57672878D01*
X132987241Y-57680147D01*
X132987238Y-57680151D01*
X132972826Y-57713456D01*
X132967609Y-57724106D01*
X132946305Y-57762859D01*
X132944334Y-57770534D01*
X132944334Y-57770535D01*
X132941267Y-57782481D01*
X132934863Y-57801185D01*
X132926819Y-57819774D01*
X132925580Y-57827597D01*
X132925577Y-57827607D01*
X132919901Y-57863443D01*
X132917495Y-57875063D01*
X132915431Y-57883102D01*
X132906500Y-57917889D01*
X132906500Y-57925818D01*
X132905507Y-57933679D01*
X132903070Y-57933371D01*
X132886498Y-57989812D01*
X132838681Y-58033454D01*
X132813607Y-58046507D01*
X132809465Y-58049617D01*
X132639315Y-58177369D01*
X132634965Y-58180635D01*
X132555778Y-58263500D01*
X132554283Y-58265064D01*
X132492759Y-58300494D01*
X132421846Y-58297037D01*
X132364060Y-58255791D01*
X132345207Y-58222243D01*
X132303767Y-58111703D01*
X132300615Y-58103295D01*
X132213261Y-57986739D01*
X132096705Y-57899385D01*
X131960316Y-57848255D01*
X131898134Y-57841500D01*
X130101866Y-57841500D01*
X130039684Y-57848255D01*
X129956218Y-57879545D01*
X129885412Y-57884728D01*
X129823043Y-57850807D01*
X129788913Y-57788552D01*
X129785989Y-57761248D01*
X129791301Y-55634183D01*
X129811472Y-55566115D01*
X129865244Y-55519756D01*
X129917300Y-55508500D01*
X159365500Y-55508500D01*
X159433621Y-55528502D01*
G37*
%TD.AperFunction*%
%TA.AperFunction,Conductor*%
G36*
X138297193Y-66653502D02*
G01*
X138343686Y-66707158D01*
X138348905Y-66720565D01*
X138365473Y-66771556D01*
X138460960Y-66936944D01*
X138588747Y-67078866D01*
X138664957Y-67134236D01*
X138702443Y-67161471D01*
X138743248Y-67191118D01*
X138749276Y-67193802D01*
X138749278Y-67193803D01*
X138911681Y-67266109D01*
X138917712Y-67268794D01*
X139009165Y-67288233D01*
X139098056Y-67307128D01*
X139098061Y-67307128D01*
X139104513Y-67308500D01*
X139295487Y-67308500D01*
X139301939Y-67307128D01*
X139301944Y-67307128D01*
X139416250Y-67282831D01*
X139487041Y-67288233D01*
X139543673Y-67331050D01*
X139549591Y-67339774D01*
X139573884Y-67379031D01*
X139605787Y-67410879D01*
X139639866Y-67473159D01*
X139634863Y-67543979D01*
X139605943Y-67589067D01*
X139597457Y-67597568D01*
X139573071Y-67621997D01*
X139569231Y-67628227D01*
X139569230Y-67628228D01*
X139536321Y-67681616D01*
X139483548Y-67729110D01*
X139429061Y-67741500D01*
X137885547Y-67741500D01*
X137817426Y-67721498D01*
X137770933Y-67667842D01*
X137760829Y-67597568D01*
X137777093Y-67551361D01*
X137854648Y-67420221D01*
X137860893Y-67405790D01*
X137899939Y-67271395D01*
X137899899Y-67257294D01*
X137892630Y-67254000D01*
X136497000Y-67254000D01*
X136428879Y-67233998D01*
X136382386Y-67180342D01*
X136371000Y-67128000D01*
X136371000Y-66934500D01*
X136391002Y-66866379D01*
X136444658Y-66819886D01*
X136497000Y-66808500D01*
X137316502Y-66808500D01*
X137318950Y-66808307D01*
X137318958Y-66808307D01*
X137347421Y-66806067D01*
X137347426Y-66806066D01*
X137353831Y-66805562D01*
X137451183Y-66777279D01*
X137505989Y-66761357D01*
X137505993Y-66761355D01*
X137513601Y-66759145D01*
X137518725Y-66756115D01*
X137567570Y-66746000D01*
X137886878Y-66746000D01*
X137900409Y-66742027D01*
X137900475Y-66741567D01*
X137929968Y-66676987D01*
X137989695Y-66638604D01*
X138025192Y-66633500D01*
X138229072Y-66633500D01*
X138297193Y-66653502D01*
G37*
%TD.AperFunction*%
%TD*%
M02*
