%TF.GenerationSoftware,KiCad,Pcbnew,(6.0.4-0)*%
%TF.CreationDate,2022-07-08T14:11:35-06:00*%
%TF.ProjectId,TPS61165-heater-v6,54505336-3131-4363-952d-686561746572,rev?*%
%TF.SameCoordinates,Original*%
%TF.FileFunction,Copper,L2,Bot*%
%TF.FilePolarity,Positive*%
%FSLAX46Y46*%
G04 Gerber Fmt 4.6, Leading zero omitted, Abs format (unit mm)*
G04 Created by KiCad (PCBNEW (6.0.4-0)) date 2022-07-08 14:11:35*
%MOMM*%
%LPD*%
G01*
G04 APERTURE LIST*
G04 Aperture macros list*
%AMRoundRect*
0 Rectangle with rounded corners*
0 $1 Rounding radius*
0 $2 $3 $4 $5 $6 $7 $8 $9 X,Y pos of 4 corners*
0 Add a 4 corners polygon primitive as box body*
4,1,4,$2,$3,$4,$5,$6,$7,$8,$9,$2,$3,0*
0 Add four circle primitives for the rounded corners*
1,1,$1+$1,$2,$3*
1,1,$1+$1,$4,$5*
1,1,$1+$1,$6,$7*
1,1,$1+$1,$8,$9*
0 Add four rect primitives between the rounded corners*
20,1,$1+$1,$2,$3,$4,$5,0*
20,1,$1+$1,$4,$5,$6,$7,0*
20,1,$1+$1,$6,$7,$8,$9,0*
20,1,$1+$1,$8,$9,$2,$3,0*%
G04 Aperture macros list end*
%TA.AperFunction,ComponentPad*%
%ADD10O,1.700000X1.000000*%
%TD*%
%TA.AperFunction,ComponentPad*%
%ADD11O,1.700000X1.700000*%
%TD*%
%TA.AperFunction,ComponentPad*%
%ADD12R,1.700000X1.700000*%
%TD*%
%TA.AperFunction,ComponentPad*%
%ADD13O,1.200000X1.750000*%
%TD*%
%TA.AperFunction,ComponentPad*%
%ADD14RoundRect,0.250000X-0.350000X-0.625000X0.350000X-0.625000X0.350000X0.625000X-0.350000X0.625000X0*%
%TD*%
%TA.AperFunction,ComponentPad*%
%ADD15O,1.750000X1.200000*%
%TD*%
%TA.AperFunction,ComponentPad*%
%ADD16RoundRect,0.250000X-0.625000X0.350000X-0.625000X-0.350000X0.625000X-0.350000X0.625000X0.350000X0*%
%TD*%
%TA.AperFunction,ViaPad*%
%ADD17C,0.800000*%
%TD*%
%TA.AperFunction,Conductor*%
%ADD18C,0.800000*%
%TD*%
%TA.AperFunction,Conductor*%
%ADD19C,0.250000*%
%TD*%
G04 APERTURE END LIST*
D10*
%TO.P,J1,0,SHIELD*%
%TO.N,unconnected-(J1-Pad0)*%
X118520000Y-88120000D03*
X118520000Y-79480000D03*
X122320000Y-79480000D03*
X122320000Y-88120000D03*
%TD*%
D11*
%TO.P,J6,3,Pin_3*%
%TO.N,GND*%
X136080000Y-59200000D03*
%TO.P,J6,2,Pin_2*%
%TO.N,Net-(J6-Pad2)*%
X133540000Y-59200000D03*
D12*
%TO.P,J6,1,Pin_1*%
%TO.N,Net-(J6-Pad1)*%
X131000000Y-59200000D03*
%TD*%
D13*
%TO.P,J4,2,-*%
%TO.N,Net-(D2-Pad1)*%
X157300000Y-64500000D03*
D14*
%TO.P,J4,1,+*%
%TO.N,Net-(J3-Pad1)*%
X155300000Y-64500000D03*
%TD*%
D11*
%TO.P,J3,2,Pin_2*%
%TO.N,Net-(D2-Pad1)*%
X155200000Y-57960000D03*
D12*
%TO.P,J3,1,Pin_1*%
%TO.N,Net-(J3-Pad1)*%
X155200000Y-60500000D03*
%TD*%
D15*
%TO.P,J2,2,-*%
%TO.N,Net-(FL1-Pad1)*%
X123000000Y-72700000D03*
D16*
%TO.P,J2,1,+*%
%TO.N,Net-(FL1-Pad2)*%
X123000000Y-70700000D03*
%TD*%
D17*
%TO.N,Net-(FL1-Pad2)*%
X124200000Y-82300000D03*
X124180000Y-85320000D03*
%TO.N,GND*%
X147900000Y-83800000D03*
X147900000Y-83000000D03*
X147900000Y-84600000D03*
X147900000Y-82200000D03*
X147900000Y-87300000D03*
X152700000Y-83600000D03*
X149500000Y-88800000D03*
X138400000Y-79300000D03*
X141700000Y-79300000D03*
X138350000Y-80650000D03*
X141700000Y-78000000D03*
X141700000Y-71500000D03*
X138000000Y-71400000D03*
X138300000Y-67025000D03*
%TO.N,Net-(C4-Pad1)*%
X147700000Y-77600000D03*
X138300000Y-75500000D03*
X139200000Y-66400000D03*
X139900000Y-72800000D03*
%TO.N,/scl*%
X144000000Y-75800000D03*
X144600000Y-68400000D03*
%TO.N,/sda*%
X143980154Y-74680154D03*
X141700000Y-68600000D03*
%TD*%
D18*
%TO.N,Net-(FL1-Pad2)*%
X124200000Y-82300000D02*
X124200000Y-78400000D01*
X124200000Y-78400000D02*
X120300000Y-74500000D01*
X120300000Y-74500000D02*
X120300000Y-72500000D01*
X122100000Y-70700000D02*
X123000000Y-70700000D01*
X120300000Y-72500000D02*
X122100000Y-70700000D01*
X124200000Y-85300000D02*
X124180000Y-85320000D01*
X124200000Y-82300000D02*
X124200000Y-85300000D01*
D19*
%TO.N,unconnected-(J1-Pad0)*%
X122325000Y-79480000D02*
X118525000Y-79480000D01*
X122325000Y-88120000D02*
X118525000Y-88120000D01*
X118525000Y-88120000D02*
X118525000Y-79480000D01*
%TO.N,Net-(C4-Pad1)*%
X142626998Y-75500000D02*
X138300000Y-75500000D01*
X144726998Y-77600000D02*
X142626998Y-75500000D01*
X147700000Y-77600000D02*
X144726998Y-77600000D01*
X139200000Y-72100000D02*
X139900000Y-72800000D01*
X139200000Y-66400000D02*
X139200000Y-72100000D01*
X138300000Y-74400000D02*
X139900000Y-72800000D01*
X138300000Y-75500000D02*
X138300000Y-74400000D01*
%TO.N,/scl*%
X144000000Y-75800000D02*
X145100000Y-74700000D01*
X145100000Y-68900000D02*
X144600000Y-68400000D01*
X145100000Y-74700000D02*
X145100000Y-68900000D01*
%TO.N,/sda*%
X143980154Y-70880154D02*
X141700000Y-68600000D01*
X143980154Y-74680154D02*
X143980154Y-70880154D01*
%TD*%
%TA.AperFunction,Conductor*%
%TO.N,GND*%
G36*
X159433621Y-55528502D02*
G01*
X159480114Y-55582158D01*
X159491500Y-55634500D01*
X159491500Y-89365500D01*
X159471498Y-89433621D01*
X159417842Y-89480114D01*
X159365500Y-89491500D01*
X129926000Y-89491500D01*
X129857879Y-89471498D01*
X129811386Y-89417842D01*
X129800000Y-89365500D01*
X129800000Y-75500000D01*
X137386496Y-75500000D01*
X137406458Y-75689928D01*
X137465473Y-75871556D01*
X137560960Y-76036944D01*
X137688747Y-76178866D01*
X137843248Y-76291118D01*
X137849276Y-76293802D01*
X137849278Y-76293803D01*
X137933332Y-76331226D01*
X138017712Y-76368794D01*
X138111113Y-76388647D01*
X138198056Y-76407128D01*
X138198061Y-76407128D01*
X138204513Y-76408500D01*
X138395487Y-76408500D01*
X138401939Y-76407128D01*
X138401944Y-76407128D01*
X138488887Y-76388647D01*
X138582288Y-76368794D01*
X138666668Y-76331226D01*
X138750722Y-76293803D01*
X138750724Y-76293802D01*
X138756752Y-76291118D01*
X138911253Y-76178866D01*
X138915668Y-76173963D01*
X138920580Y-76169540D01*
X138921705Y-76170789D01*
X138975014Y-76137949D01*
X139008200Y-76133500D01*
X142312404Y-76133500D01*
X142380525Y-76153502D01*
X142401499Y-76170405D01*
X144223341Y-77992247D01*
X144230885Y-78000537D01*
X144234998Y-78007018D01*
X144240775Y-78012443D01*
X144284665Y-78053658D01*
X144287507Y-78056413D01*
X144307228Y-78076134D01*
X144310423Y-78078612D01*
X144319445Y-78086318D01*
X144351677Y-78116586D01*
X144358626Y-78120406D01*
X144369430Y-78126346D01*
X144385954Y-78137199D01*
X144401957Y-78149613D01*
X144442541Y-78167176D01*
X144453171Y-78172383D01*
X144491938Y-78193695D01*
X144499615Y-78195666D01*
X144499620Y-78195668D01*
X144511556Y-78198732D01*
X144530264Y-78205137D01*
X144548853Y-78213181D01*
X144556678Y-78214420D01*
X144556680Y-78214421D01*
X144592517Y-78220097D01*
X144604138Y-78222504D01*
X144639287Y-78231528D01*
X144646968Y-78233500D01*
X144667229Y-78233500D01*
X144686938Y-78235051D01*
X144706941Y-78238219D01*
X144714833Y-78237473D01*
X144720060Y-78236979D01*
X144750952Y-78234059D01*
X144762809Y-78233500D01*
X146991800Y-78233500D01*
X147059921Y-78253502D01*
X147079147Y-78269843D01*
X147079420Y-78269540D01*
X147084332Y-78273963D01*
X147088747Y-78278866D01*
X147243248Y-78391118D01*
X147249276Y-78393802D01*
X147249278Y-78393803D01*
X147411681Y-78466109D01*
X147417712Y-78468794D01*
X147511112Y-78488647D01*
X147598056Y-78507128D01*
X147598061Y-78507128D01*
X147604513Y-78508500D01*
X147795487Y-78508500D01*
X147801939Y-78507128D01*
X147801944Y-78507128D01*
X147888888Y-78488647D01*
X147982288Y-78468794D01*
X147988319Y-78466109D01*
X148150722Y-78393803D01*
X148150724Y-78393802D01*
X148156752Y-78391118D01*
X148311253Y-78278866D01*
X148347852Y-78238219D01*
X148434621Y-78141852D01*
X148434622Y-78141851D01*
X148439040Y-78136944D01*
X148514053Y-78007018D01*
X148531223Y-77977279D01*
X148531224Y-77977278D01*
X148534527Y-77971556D01*
X148593542Y-77789928D01*
X148613504Y-77600000D01*
X148593542Y-77410072D01*
X148534527Y-77228444D01*
X148439040Y-77063056D01*
X148311253Y-76921134D01*
X148156752Y-76808882D01*
X148150724Y-76806198D01*
X148150722Y-76806197D01*
X147988319Y-76733891D01*
X147988318Y-76733891D01*
X147982288Y-76731206D01*
X147888887Y-76711353D01*
X147801944Y-76692872D01*
X147801939Y-76692872D01*
X147795487Y-76691500D01*
X147604513Y-76691500D01*
X147598061Y-76692872D01*
X147598056Y-76692872D01*
X147511113Y-76711353D01*
X147417712Y-76731206D01*
X147411682Y-76733891D01*
X147411681Y-76733891D01*
X147249278Y-76806197D01*
X147249276Y-76806198D01*
X147243248Y-76808882D01*
X147088747Y-76921134D01*
X147084332Y-76926037D01*
X147079420Y-76930460D01*
X147078295Y-76929211D01*
X147024986Y-76962051D01*
X146991800Y-76966500D01*
X145041593Y-76966500D01*
X144973472Y-76946498D01*
X144952498Y-76929595D01*
X144643928Y-76621025D01*
X144609902Y-76558713D01*
X144614967Y-76487898D01*
X144639387Y-76447620D01*
X144734621Y-76341852D01*
X144734622Y-76341851D01*
X144739040Y-76336944D01*
X144834527Y-76171556D01*
X144893542Y-75989928D01*
X144910907Y-75824708D01*
X144937920Y-75759051D01*
X144947122Y-75748782D01*
X145492258Y-75203647D01*
X145500537Y-75196113D01*
X145507018Y-75192000D01*
X145553644Y-75142348D01*
X145556398Y-75139507D01*
X145576135Y-75119770D01*
X145578615Y-75116573D01*
X145586320Y-75107551D01*
X145616586Y-75075321D01*
X145620405Y-75068375D01*
X145620407Y-75068372D01*
X145626348Y-75057566D01*
X145637199Y-75041047D01*
X145644758Y-75031301D01*
X145649614Y-75025041D01*
X145652759Y-75017772D01*
X145652762Y-75017768D01*
X145667174Y-74984463D01*
X145672391Y-74973813D01*
X145693695Y-74935060D01*
X145698733Y-74915437D01*
X145705137Y-74896734D01*
X145710033Y-74885420D01*
X145710033Y-74885419D01*
X145713181Y-74878145D01*
X145714420Y-74870322D01*
X145714423Y-74870312D01*
X145720099Y-74834476D01*
X145722505Y-74822856D01*
X145731528Y-74787711D01*
X145731528Y-74787710D01*
X145733500Y-74780030D01*
X145733500Y-74759776D01*
X145735051Y-74740065D01*
X145736980Y-74727886D01*
X145738220Y-74720057D01*
X145734059Y-74676038D01*
X145733500Y-74664181D01*
X145733500Y-68978768D01*
X145734027Y-68967585D01*
X145735702Y-68960092D01*
X145734975Y-68936944D01*
X145733562Y-68892002D01*
X145733500Y-68888044D01*
X145733500Y-68860144D01*
X145732996Y-68856153D01*
X145732063Y-68844311D01*
X145730923Y-68808036D01*
X145730674Y-68800111D01*
X145728462Y-68792497D01*
X145728461Y-68792492D01*
X145725023Y-68780659D01*
X145721012Y-68761295D01*
X145719467Y-68749064D01*
X145718474Y-68741203D01*
X145715557Y-68733836D01*
X145715556Y-68733831D01*
X145702198Y-68700092D01*
X145698354Y-68688865D01*
X145688230Y-68654022D01*
X145686018Y-68646407D01*
X145675707Y-68628972D01*
X145667012Y-68611224D01*
X145659552Y-68592383D01*
X145633564Y-68556613D01*
X145627048Y-68546693D01*
X145608580Y-68515465D01*
X145608578Y-68515462D01*
X145604542Y-68508638D01*
X145590221Y-68494317D01*
X145577380Y-68479283D01*
X145570132Y-68469307D01*
X145565472Y-68462893D01*
X145555414Y-68454572D01*
X145515676Y-68395738D01*
X145510420Y-68370658D01*
X145494232Y-68216635D01*
X145494232Y-68216633D01*
X145493542Y-68210072D01*
X145434527Y-68028444D01*
X145339040Y-67863056D01*
X145222740Y-67733891D01*
X145215675Y-67726045D01*
X145215674Y-67726044D01*
X145211253Y-67721134D01*
X145056752Y-67608882D01*
X145050724Y-67606198D01*
X145050722Y-67606197D01*
X144888319Y-67533891D01*
X144888318Y-67533891D01*
X144882288Y-67531206D01*
X144788888Y-67511353D01*
X144701944Y-67492872D01*
X144701939Y-67492872D01*
X144695487Y-67491500D01*
X144504513Y-67491500D01*
X144498061Y-67492872D01*
X144498056Y-67492872D01*
X144411112Y-67511353D01*
X144317712Y-67531206D01*
X144311682Y-67533891D01*
X144311681Y-67533891D01*
X144149278Y-67606197D01*
X144149276Y-67606198D01*
X144143248Y-67608882D01*
X143988747Y-67721134D01*
X143984326Y-67726044D01*
X143984325Y-67726045D01*
X143977261Y-67733891D01*
X143860960Y-67863056D01*
X143765473Y-68028444D01*
X143706458Y-68210072D01*
X143705768Y-68216633D01*
X143705768Y-68216635D01*
X143704527Y-68228444D01*
X143686496Y-68400000D01*
X143706458Y-68589928D01*
X143765473Y-68771556D01*
X143768776Y-68777278D01*
X143768777Y-68777279D01*
X143772291Y-68783365D01*
X143860960Y-68936944D01*
X143865378Y-68941851D01*
X143865379Y-68941852D01*
X143886466Y-68965271D01*
X143988747Y-69078866D01*
X144143248Y-69191118D01*
X144149276Y-69193802D01*
X144149278Y-69193803D01*
X144311681Y-69266109D01*
X144317712Y-69268794D01*
X144366697Y-69279206D01*
X144429170Y-69312934D01*
X144463492Y-69375084D01*
X144466500Y-69402453D01*
X144466500Y-70166406D01*
X144446498Y-70234527D01*
X144392842Y-70281020D01*
X144322568Y-70291124D01*
X144257988Y-70261630D01*
X144251405Y-70255501D01*
X143504405Y-69508500D01*
X142647122Y-68651217D01*
X142613096Y-68588905D01*
X142610907Y-68575292D01*
X142594232Y-68416635D01*
X142594232Y-68416633D01*
X142593542Y-68410072D01*
X142534527Y-68228444D01*
X142439040Y-68063056D01*
X142311253Y-67921134D01*
X142156752Y-67808882D01*
X142150724Y-67806198D01*
X142150722Y-67806197D01*
X141988319Y-67733891D01*
X141988318Y-67733891D01*
X141982288Y-67731206D01*
X141888887Y-67711353D01*
X141801944Y-67692872D01*
X141801939Y-67692872D01*
X141795487Y-67691500D01*
X141604513Y-67691500D01*
X141598061Y-67692872D01*
X141598056Y-67692872D01*
X141511113Y-67711353D01*
X141417712Y-67731206D01*
X141411682Y-67733891D01*
X141411681Y-67733891D01*
X141249278Y-67806197D01*
X141249276Y-67806198D01*
X141243248Y-67808882D01*
X141088747Y-67921134D01*
X140960960Y-68063056D01*
X140865473Y-68228444D01*
X140806458Y-68410072D01*
X140805768Y-68416633D01*
X140805768Y-68416635D01*
X140796688Y-68503027D01*
X140786496Y-68600000D01*
X140787186Y-68606565D01*
X140805129Y-68777279D01*
X140806458Y-68789928D01*
X140865473Y-68971556D01*
X140960960Y-69136944D01*
X140965378Y-69141851D01*
X140965379Y-69141852D01*
X141079678Y-69268794D01*
X141088747Y-69278866D01*
X141243248Y-69391118D01*
X141249276Y-69393802D01*
X141249278Y-69393803D01*
X141411681Y-69466109D01*
X141417712Y-69468794D01*
X141511112Y-69488647D01*
X141598056Y-69507128D01*
X141598061Y-69507128D01*
X141604513Y-69508500D01*
X141660406Y-69508500D01*
X141728527Y-69528502D01*
X141749501Y-69545405D01*
X143309749Y-71105653D01*
X143343775Y-71167965D01*
X143346654Y-71194748D01*
X143346654Y-73977630D01*
X143326652Y-74045751D01*
X143314296Y-74061933D01*
X143241114Y-74143210D01*
X143145627Y-74308598D01*
X143086612Y-74490226D01*
X143066650Y-74680154D01*
X143077148Y-74780030D01*
X143079231Y-74799851D01*
X143066459Y-74869690D01*
X143017957Y-74921536D01*
X142949124Y-74938931D01*
X142893223Y-74923438D01*
X142862058Y-74906305D01*
X142842435Y-74901267D01*
X142823732Y-74894863D01*
X142812418Y-74889967D01*
X142812417Y-74889967D01*
X142805143Y-74886819D01*
X142797320Y-74885580D01*
X142797310Y-74885577D01*
X142761474Y-74879901D01*
X142749854Y-74877495D01*
X142714709Y-74868472D01*
X142714708Y-74868472D01*
X142707028Y-74866500D01*
X142686774Y-74866500D01*
X142667063Y-74864949D01*
X142654884Y-74863020D01*
X142647055Y-74861780D01*
X142639163Y-74862526D01*
X142603037Y-74865941D01*
X142591179Y-74866500D01*
X139059500Y-74866500D01*
X138991379Y-74846498D01*
X138944886Y-74792842D01*
X138933500Y-74740500D01*
X138933500Y-74714594D01*
X138953502Y-74646473D01*
X138970405Y-74625499D01*
X139850499Y-73745405D01*
X139912811Y-73711379D01*
X139939594Y-73708500D01*
X139995487Y-73708500D01*
X140001939Y-73707128D01*
X140001944Y-73707128D01*
X140088888Y-73688647D01*
X140182288Y-73668794D01*
X140188319Y-73666109D01*
X140350722Y-73593803D01*
X140350724Y-73593802D01*
X140356752Y-73591118D01*
X140511253Y-73478866D01*
X140639040Y-73336944D01*
X140734527Y-73171556D01*
X140793542Y-72989928D01*
X140813504Y-72800000D01*
X140793542Y-72610072D01*
X140734527Y-72428444D01*
X140726208Y-72414034D01*
X140686918Y-72345983D01*
X140639040Y-72263056D01*
X140542376Y-72155699D01*
X140515675Y-72126045D01*
X140515674Y-72126044D01*
X140511253Y-72121134D01*
X140399457Y-72039909D01*
X140362094Y-72012763D01*
X140362093Y-72012762D01*
X140356752Y-72008882D01*
X140350724Y-72006198D01*
X140350722Y-72006197D01*
X140188319Y-71933891D01*
X140188318Y-71933891D01*
X140182288Y-71931206D01*
X140088887Y-71911353D01*
X140001944Y-71892872D01*
X140001939Y-71892872D01*
X139995487Y-71891500D01*
X139959500Y-71891500D01*
X139891379Y-71871498D01*
X139844886Y-71817842D01*
X139833500Y-71765500D01*
X139833500Y-67102524D01*
X139853502Y-67034403D01*
X139865858Y-67018221D01*
X139939040Y-66936944D01*
X140034527Y-66771556D01*
X140093542Y-66589928D01*
X140113504Y-66400000D01*
X140093542Y-66210072D01*
X140034527Y-66028444D01*
X139939040Y-65863056D01*
X139811253Y-65721134D01*
X139673998Y-65621412D01*
X139662094Y-65612763D01*
X139662093Y-65612762D01*
X139656752Y-65608882D01*
X139650724Y-65606198D01*
X139650722Y-65606197D01*
X139488319Y-65533891D01*
X139488318Y-65533891D01*
X139482288Y-65531206D01*
X139388888Y-65511353D01*
X139301944Y-65492872D01*
X139301939Y-65492872D01*
X139295487Y-65491500D01*
X139104513Y-65491500D01*
X139098061Y-65492872D01*
X139098056Y-65492872D01*
X139011112Y-65511353D01*
X138917712Y-65531206D01*
X138911682Y-65533891D01*
X138911681Y-65533891D01*
X138749278Y-65606197D01*
X138749276Y-65606198D01*
X138743248Y-65608882D01*
X138737907Y-65612762D01*
X138737906Y-65612763D01*
X138726002Y-65621412D01*
X138588747Y-65721134D01*
X138460960Y-65863056D01*
X138365473Y-66028444D01*
X138306458Y-66210072D01*
X138286496Y-66400000D01*
X138306458Y-66589928D01*
X138365473Y-66771556D01*
X138460960Y-66936944D01*
X138534137Y-67018215D01*
X138564853Y-67082221D01*
X138566500Y-67102524D01*
X138566500Y-72021233D01*
X138565973Y-72032416D01*
X138564298Y-72039909D01*
X138564547Y-72047835D01*
X138564547Y-72047836D01*
X138566438Y-72107986D01*
X138566500Y-72111945D01*
X138566500Y-72139856D01*
X138566997Y-72143790D01*
X138566997Y-72143791D01*
X138567005Y-72143856D01*
X138567938Y-72155693D01*
X138569327Y-72199889D01*
X138574978Y-72219339D01*
X138578987Y-72238700D01*
X138581526Y-72258797D01*
X138584445Y-72266168D01*
X138584445Y-72266170D01*
X138597804Y-72299912D01*
X138601649Y-72311142D01*
X138613982Y-72353593D01*
X138618015Y-72360412D01*
X138618017Y-72360417D01*
X138624293Y-72371028D01*
X138632988Y-72388776D01*
X138640448Y-72407617D01*
X138645110Y-72414033D01*
X138645110Y-72414034D01*
X138666436Y-72443387D01*
X138672952Y-72453307D01*
X138695458Y-72491362D01*
X138709779Y-72505683D01*
X138722619Y-72520716D01*
X138734528Y-72537107D01*
X138740634Y-72542158D01*
X138768605Y-72565298D01*
X138777384Y-72573288D01*
X138915001Y-72710905D01*
X138949027Y-72773217D01*
X138943962Y-72844032D01*
X138915001Y-72889095D01*
X137907747Y-73896348D01*
X137899461Y-73903888D01*
X137892982Y-73908000D01*
X137887557Y-73913777D01*
X137846357Y-73957651D01*
X137843602Y-73960493D01*
X137823865Y-73980230D01*
X137821385Y-73983427D01*
X137813682Y-73992447D01*
X137783414Y-74024679D01*
X137779595Y-74031625D01*
X137779593Y-74031628D01*
X137773652Y-74042434D01*
X137762801Y-74058953D01*
X137750386Y-74074959D01*
X137747241Y-74082228D01*
X137747238Y-74082232D01*
X137732826Y-74115537D01*
X137727609Y-74126187D01*
X137706305Y-74164940D01*
X137704334Y-74172615D01*
X137704334Y-74172616D01*
X137701267Y-74184562D01*
X137694863Y-74203266D01*
X137686819Y-74221855D01*
X137685580Y-74229678D01*
X137685577Y-74229688D01*
X137679901Y-74265524D01*
X137677495Y-74277144D01*
X137666500Y-74319970D01*
X137666500Y-74340224D01*
X137664949Y-74359934D01*
X137661780Y-74379943D01*
X137662526Y-74387835D01*
X137665941Y-74423961D01*
X137666500Y-74435819D01*
X137666500Y-74797476D01*
X137646498Y-74865597D01*
X137634142Y-74881779D01*
X137560960Y-74963056D01*
X137506395Y-75057566D01*
X137477536Y-75107551D01*
X137465473Y-75128444D01*
X137406458Y-75310072D01*
X137386496Y-75500000D01*
X129800000Y-75500000D01*
X129800000Y-65175400D01*
X154191500Y-65175400D01*
X154202474Y-65281166D01*
X154204655Y-65287702D01*
X154204655Y-65287704D01*
X154235135Y-65379064D01*
X154258450Y-65448946D01*
X154351522Y-65599348D01*
X154476697Y-65724305D01*
X154482927Y-65728145D01*
X154482928Y-65728146D01*
X154620090Y-65812694D01*
X154627262Y-65817115D01*
X154652217Y-65825392D01*
X154788611Y-65870632D01*
X154788613Y-65870632D01*
X154795139Y-65872797D01*
X154801975Y-65873497D01*
X154801978Y-65873498D01*
X154840386Y-65877433D01*
X154899600Y-65883500D01*
X155700400Y-65883500D01*
X155703646Y-65883163D01*
X155703650Y-65883163D01*
X155799308Y-65873238D01*
X155799312Y-65873237D01*
X155806166Y-65872526D01*
X155812702Y-65870345D01*
X155812704Y-65870345D01*
X155947443Y-65825392D01*
X155973946Y-65816550D01*
X156124348Y-65723478D01*
X156249305Y-65598303D01*
X156281075Y-65546764D01*
X156333846Y-65499271D01*
X156403918Y-65487847D01*
X156469042Y-65516121D01*
X156487418Y-65535045D01*
X156493604Y-65542920D01*
X156498135Y-65546852D01*
X156498138Y-65546855D01*
X156584058Y-65621412D01*
X156653363Y-65681552D01*
X156658549Y-65684552D01*
X156658553Y-65684555D01*
X156754957Y-65740326D01*
X156836454Y-65787473D01*
X157036271Y-65856861D01*
X157042206Y-65857722D01*
X157042208Y-65857722D01*
X157239664Y-65886352D01*
X157239667Y-65886352D01*
X157245604Y-65887213D01*
X157456899Y-65877433D01*
X157588077Y-65845819D01*
X157656701Y-65829281D01*
X157656703Y-65829280D01*
X157662534Y-65827875D01*
X157667992Y-65825393D01*
X157667996Y-65825392D01*
X157783041Y-65773084D01*
X157855087Y-65740326D01*
X158027611Y-65617946D01*
X158173881Y-65465150D01*
X158288620Y-65287452D01*
X158367686Y-65091263D01*
X158408228Y-64883663D01*
X158408500Y-64878101D01*
X158408500Y-64172154D01*
X158393452Y-64014434D01*
X158333908Y-63811466D01*
X158286872Y-63720139D01*
X158239804Y-63628751D01*
X158239802Y-63628748D01*
X158237058Y-63623420D01*
X158106396Y-63457080D01*
X158101865Y-63453148D01*
X158101862Y-63453145D01*
X157951167Y-63322379D01*
X157946637Y-63318448D01*
X157941451Y-63315448D01*
X157941447Y-63315445D01*
X157768742Y-63215533D01*
X157763546Y-63212527D01*
X157563729Y-63143139D01*
X157557794Y-63142278D01*
X157557792Y-63142278D01*
X157360336Y-63113648D01*
X157360333Y-63113648D01*
X157354396Y-63112787D01*
X157143101Y-63122567D01*
X157011923Y-63154181D01*
X156943299Y-63170719D01*
X156943297Y-63170720D01*
X156937466Y-63172125D01*
X156932008Y-63174607D01*
X156932004Y-63174608D01*
X156816959Y-63226916D01*
X156744913Y-63259674D01*
X156572389Y-63382054D01*
X156568247Y-63386381D01*
X156568241Y-63386386D01*
X156481194Y-63477317D01*
X156419639Y-63512694D01*
X156348730Y-63509175D01*
X156290979Y-63467879D01*
X156283032Y-63456491D01*
X156248478Y-63400652D01*
X156123303Y-63275695D01*
X156020826Y-63212527D01*
X155978968Y-63186725D01*
X155978966Y-63186724D01*
X155972738Y-63182885D01*
X155812254Y-63129655D01*
X155811389Y-63129368D01*
X155811387Y-63129368D01*
X155804861Y-63127203D01*
X155798025Y-63126503D01*
X155798022Y-63126502D01*
X155754969Y-63122091D01*
X155700400Y-63116500D01*
X154899600Y-63116500D01*
X154896354Y-63116837D01*
X154896350Y-63116837D01*
X154800692Y-63126762D01*
X154800688Y-63126763D01*
X154793834Y-63127474D01*
X154787298Y-63129655D01*
X154787296Y-63129655D01*
X154664213Y-63170719D01*
X154626054Y-63183450D01*
X154475652Y-63276522D01*
X154350695Y-63401697D01*
X154346855Y-63407927D01*
X154346854Y-63407928D01*
X154309900Y-63467879D01*
X154257885Y-63552262D01*
X154202203Y-63720139D01*
X154191500Y-63824600D01*
X154191500Y-65175400D01*
X129800000Y-65175400D01*
X129800000Y-60643690D01*
X129820002Y-60575569D01*
X129873658Y-60529076D01*
X129943932Y-60518972D01*
X129970229Y-60525708D01*
X130032282Y-60548971D01*
X130032288Y-60548973D01*
X130039684Y-60551745D01*
X130101866Y-60558500D01*
X131898134Y-60558500D01*
X131960316Y-60551745D01*
X132096705Y-60500615D01*
X132213261Y-60413261D01*
X132300615Y-60296705D01*
X132322799Y-60237529D01*
X132344598Y-60179382D01*
X132387240Y-60122618D01*
X132453802Y-60097918D01*
X132523150Y-60113126D01*
X132557817Y-60141114D01*
X132586250Y-60173938D01*
X132758126Y-60316632D01*
X132951000Y-60429338D01*
X133159692Y-60509030D01*
X133164760Y-60510061D01*
X133164763Y-60510062D01*
X133259862Y-60529410D01*
X133378597Y-60553567D01*
X133383772Y-60553757D01*
X133383774Y-60553757D01*
X133596673Y-60561564D01*
X133596677Y-60561564D01*
X133601837Y-60561753D01*
X133606957Y-60561097D01*
X133606959Y-60561097D01*
X133818288Y-60534025D01*
X133818289Y-60534025D01*
X133823416Y-60533368D01*
X133828366Y-60531883D01*
X134032429Y-60470661D01*
X134032434Y-60470659D01*
X134037384Y-60469174D01*
X134237994Y-60370896D01*
X134419860Y-60241173D01*
X134578096Y-60083489D01*
X134708453Y-59902077D01*
X134709640Y-59902930D01*
X134756960Y-59859362D01*
X134826897Y-59847145D01*
X134892338Y-59874678D01*
X134920166Y-59906511D01*
X134977694Y-60000388D01*
X134983777Y-60008699D01*
X135123213Y-60169667D01*
X135130580Y-60176883D01*
X135294434Y-60312916D01*
X135302881Y-60318831D01*
X135486756Y-60426279D01*
X135496042Y-60430729D01*
X135695001Y-60506703D01*
X135704899Y-60509579D01*
X135808250Y-60530606D01*
X135822299Y-60529410D01*
X135826000Y-60519065D01*
X135826000Y-60518517D01*
X136334000Y-60518517D01*
X136338064Y-60532359D01*
X136351478Y-60534393D01*
X136358184Y-60533534D01*
X136368262Y-60531392D01*
X136572255Y-60470191D01*
X136581842Y-60466433D01*
X136773095Y-60372739D01*
X136781945Y-60367464D01*
X136955328Y-60243792D01*
X136963200Y-60237139D01*
X137114052Y-60086812D01*
X137120730Y-60078965D01*
X137245003Y-59906020D01*
X137250313Y-59897183D01*
X137344670Y-59706267D01*
X137348469Y-59696672D01*
X137410377Y-59492910D01*
X137412555Y-59482837D01*
X137413986Y-59471962D01*
X137411775Y-59457778D01*
X137398617Y-59454000D01*
X136352115Y-59454000D01*
X136336876Y-59458475D01*
X136335671Y-59459865D01*
X136334000Y-59467548D01*
X136334000Y-60518517D01*
X135826000Y-60518517D01*
X135826000Y-58927885D01*
X136334000Y-58927885D01*
X136338475Y-58943124D01*
X136339865Y-58944329D01*
X136347548Y-58946000D01*
X137398344Y-58946000D01*
X137411875Y-58942027D01*
X137413180Y-58932947D01*
X137371214Y-58765875D01*
X137367894Y-58756124D01*
X137282972Y-58560814D01*
X137278105Y-58551739D01*
X137162426Y-58372926D01*
X137156136Y-58364757D01*
X137012806Y-58207240D01*
X137005273Y-58200215D01*
X136838139Y-58068222D01*
X136829552Y-58062517D01*
X136643117Y-57959599D01*
X136633705Y-57955369D01*
X136552733Y-57926695D01*
X153837251Y-57926695D01*
X153837548Y-57931848D01*
X153837548Y-57931851D01*
X153843011Y-58026590D01*
X153850110Y-58149715D01*
X153851247Y-58154761D01*
X153851248Y-58154767D01*
X153863074Y-58207240D01*
X153899222Y-58367639D01*
X153937461Y-58461811D01*
X153977662Y-58560814D01*
X153983266Y-58574616D01*
X154099987Y-58765088D01*
X154246250Y-58933938D01*
X154250230Y-58937242D01*
X154254981Y-58941187D01*
X154294616Y-59000090D01*
X154296113Y-59071071D01*
X154258997Y-59131593D01*
X154218724Y-59156112D01*
X154103295Y-59199385D01*
X153986739Y-59286739D01*
X153899385Y-59403295D01*
X153848255Y-59539684D01*
X153841500Y-59601866D01*
X153841500Y-61398134D01*
X153848255Y-61460316D01*
X153899385Y-61596705D01*
X153986739Y-61713261D01*
X154103295Y-61800615D01*
X154239684Y-61851745D01*
X154301866Y-61858500D01*
X156098134Y-61858500D01*
X156160316Y-61851745D01*
X156296705Y-61800615D01*
X156413261Y-61713261D01*
X156500615Y-61596705D01*
X156551745Y-61460316D01*
X156558500Y-61398134D01*
X156558500Y-59601866D01*
X156551745Y-59539684D01*
X156500615Y-59403295D01*
X156413261Y-59286739D01*
X156296705Y-59199385D01*
X156284132Y-59194672D01*
X156178203Y-59154960D01*
X156121439Y-59112318D01*
X156096739Y-59045756D01*
X156111947Y-58976408D01*
X156133493Y-58947727D01*
X156151251Y-58930031D01*
X156238096Y-58843489D01*
X156297594Y-58760689D01*
X156365435Y-58666277D01*
X156368453Y-58662077D01*
X156420959Y-58555840D01*
X156465136Y-58466453D01*
X156465137Y-58466451D01*
X156467430Y-58461811D01*
X156532370Y-58248069D01*
X156561529Y-58026590D01*
X156563156Y-57960000D01*
X156562776Y-57955369D01*
X156552868Y-57834864D01*
X156544852Y-57737361D01*
X156490431Y-57520702D01*
X156401354Y-57315840D01*
X156280014Y-57128277D01*
X156129670Y-56963051D01*
X156125619Y-56959852D01*
X156125615Y-56959848D01*
X155958414Y-56827800D01*
X155958410Y-56827798D01*
X155954359Y-56824598D01*
X155758789Y-56716638D01*
X155753920Y-56714914D01*
X155753916Y-56714912D01*
X155553087Y-56643795D01*
X155553083Y-56643794D01*
X155548212Y-56642069D01*
X155543119Y-56641162D01*
X155543116Y-56641161D01*
X155333373Y-56603800D01*
X155333367Y-56603799D01*
X155328284Y-56602894D01*
X155254452Y-56601992D01*
X155110081Y-56600228D01*
X155110079Y-56600228D01*
X155104911Y-56600165D01*
X154884091Y-56633955D01*
X154671756Y-56703357D01*
X154473607Y-56806507D01*
X154469474Y-56809610D01*
X154469471Y-56809612D01*
X154445247Y-56827800D01*
X154294965Y-56940635D01*
X154140629Y-57102138D01*
X154014743Y-57286680D01*
X153920688Y-57489305D01*
X153860989Y-57704570D01*
X153837251Y-57926695D01*
X136552733Y-57926695D01*
X136432959Y-57884280D01*
X136422988Y-57881646D01*
X136351837Y-57868972D01*
X136338540Y-57870432D01*
X136334000Y-57884989D01*
X136334000Y-58927885D01*
X135826000Y-58927885D01*
X135826000Y-57883102D01*
X135822082Y-57869758D01*
X135807806Y-57867771D01*
X135769324Y-57873660D01*
X135759288Y-57876051D01*
X135556868Y-57942212D01*
X135547359Y-57946209D01*
X135358463Y-58044542D01*
X135349738Y-58050036D01*
X135179433Y-58177905D01*
X135171726Y-58184748D01*
X135024590Y-58338717D01*
X135018109Y-58346722D01*
X134913498Y-58500074D01*
X134858587Y-58545076D01*
X134788062Y-58553247D01*
X134724315Y-58521993D01*
X134703618Y-58497509D01*
X134622822Y-58372617D01*
X134622820Y-58372614D01*
X134620014Y-58368277D01*
X134469670Y-58203051D01*
X134465619Y-58199852D01*
X134465615Y-58199848D01*
X134298414Y-58067800D01*
X134298410Y-58067798D01*
X134294359Y-58064598D01*
X134258028Y-58044542D01*
X134219439Y-58023240D01*
X134098789Y-57956638D01*
X134093920Y-57954914D01*
X134093916Y-57954912D01*
X133893087Y-57883795D01*
X133893083Y-57883794D01*
X133888212Y-57882069D01*
X133883119Y-57881162D01*
X133883116Y-57881161D01*
X133673373Y-57843800D01*
X133673367Y-57843799D01*
X133668284Y-57842894D01*
X133594452Y-57841992D01*
X133450081Y-57840228D01*
X133450079Y-57840228D01*
X133444911Y-57840165D01*
X133224091Y-57873955D01*
X133011756Y-57943357D01*
X132813607Y-58046507D01*
X132809474Y-58049610D01*
X132809471Y-58049612D01*
X132669418Y-58154767D01*
X132634965Y-58180635D01*
X132565790Y-58253023D01*
X132554283Y-58265064D01*
X132492759Y-58300494D01*
X132421846Y-58297037D01*
X132364060Y-58255791D01*
X132345207Y-58222243D01*
X132303767Y-58111703D01*
X132300615Y-58103295D01*
X132213261Y-57986739D01*
X132096705Y-57899385D01*
X131960316Y-57848255D01*
X131898134Y-57841500D01*
X130101866Y-57841500D01*
X130039684Y-57848255D01*
X130032288Y-57851027D01*
X130032282Y-57851029D01*
X129970229Y-57874292D01*
X129899422Y-57879475D01*
X129837053Y-57845554D01*
X129802924Y-57783298D01*
X129800000Y-57756310D01*
X129800000Y-55634500D01*
X129820002Y-55566379D01*
X129873658Y-55519886D01*
X129926000Y-55508500D01*
X159365500Y-55508500D01*
X159433621Y-55528502D01*
G37*
%TD.AperFunction*%
%TD*%
M02*
