%TF.GenerationSoftware,KiCad,Pcbnew,(6.0.4-0)*%
%TF.CreationDate,2022-07-25T07:46:20-06:00*%
%TF.ProjectId,lockin_calibration,6c6f636b-696e-45f6-9361-6c6962726174,rev?*%
%TF.SameCoordinates,Original*%
%TF.FileFunction,Legend,Top*%
%TF.FilePolarity,Positive*%
%FSLAX46Y46*%
G04 Gerber Fmt 4.6, Leading zero omitted, Abs format (unit mm)*
G04 Created by KiCad (PCBNEW (6.0.4-0)) date 2022-07-25 07:46:20*
%MOMM*%
%LPD*%
G01*
G04 APERTURE LIST*
G04 Aperture macros list*
%AMRoundRect*
0 Rectangle with rounded corners*
0 $1 Rounding radius*
0 $2 $3 $4 $5 $6 $7 $8 $9 X,Y pos of 4 corners*
0 Add a 4 corners polygon primitive as box body*
4,1,4,$2,$3,$4,$5,$6,$7,$8,$9,$2,$3,0*
0 Add four circle primitives for the rounded corners*
1,1,$1+$1,$2,$3*
1,1,$1+$1,$4,$5*
1,1,$1+$1,$6,$7*
1,1,$1+$1,$8,$9*
0 Add four rect primitives between the rounded corners*
20,1,$1+$1,$2,$3,$4,$5,0*
20,1,$1+$1,$4,$5,$6,$7,0*
20,1,$1+$1,$6,$7,$8,$9,0*
20,1,$1+$1,$8,$9,$2,$3,0*%
%AMFreePoly0*
4,1,22,0.500000,-0.750000,0.000000,-0.750000,0.000000,-0.745033,-0.079941,-0.743568,-0.215256,-0.701293,-0.333266,-0.622738,-0.424486,-0.514219,-0.481581,-0.384460,-0.499164,-0.250000,-0.500000,-0.250000,-0.500000,0.250000,-0.499164,0.250000,-0.499963,0.256109,-0.478152,0.396186,-0.417904,0.524511,-0.324060,0.630769,-0.204165,0.706417,-0.067858,0.745374,0.000000,0.744959,0.000000,0.750000,
0.500000,0.750000,0.500000,-0.750000,0.500000,-0.750000,$1*%
%AMFreePoly1*
4,1,20,0.000000,0.744959,0.073905,0.744508,0.209726,0.703889,0.328688,0.626782,0.421226,0.519385,0.479903,0.390333,0.500000,0.250000,0.500000,-0.250000,0.499851,-0.262216,0.476331,-0.402017,0.414519,-0.529596,0.319384,-0.634700,0.198574,-0.708877,0.061801,-0.746166,0.000000,-0.745033,0.000000,-0.750000,-0.500000,-0.750000,-0.500000,0.750000,0.000000,0.750000,0.000000,0.744959,
0.000000,0.744959,$1*%
G04 Aperture macros list end*
%ADD10C,0.150000*%
%ADD11C,0.120000*%
%ADD12RoundRect,0.237500X0.237500X-0.250000X0.237500X0.250000X-0.237500X0.250000X-0.237500X-0.250000X0*%
%ADD13FreePoly0,270.000000*%
%ADD14FreePoly1,270.000000*%
%ADD15RoundRect,0.150000X0.625000X-0.150000X0.625000X0.150000X-0.625000X0.150000X-0.625000X-0.150000X0*%
%ADD16RoundRect,0.250000X0.650000X-0.350000X0.650000X0.350000X-0.650000X0.350000X-0.650000X-0.350000X0*%
G04 APERTURE END LIST*
D10*
%TO.C,R3*%
X160022380Y-91254166D02*
X159546190Y-91587500D01*
X160022380Y-91825595D02*
X159022380Y-91825595D01*
X159022380Y-91444642D01*
X159070000Y-91349404D01*
X159117619Y-91301785D01*
X159212857Y-91254166D01*
X159355714Y-91254166D01*
X159450952Y-91301785D01*
X159498571Y-91349404D01*
X159546190Y-91444642D01*
X159546190Y-91825595D01*
X159022380Y-90920833D02*
X159022380Y-90301785D01*
X159403333Y-90635119D01*
X159403333Y-90492261D01*
X159450952Y-90397023D01*
X159498571Y-90349404D01*
X159593809Y-90301785D01*
X159831904Y-90301785D01*
X159927142Y-90349404D01*
X159974761Y-90397023D01*
X160022380Y-90492261D01*
X160022380Y-90777976D01*
X159974761Y-90873214D01*
X159927142Y-90920833D01*
%TO.C,R2*%
X151022380Y-91254166D02*
X150546190Y-91587500D01*
X151022380Y-91825595D02*
X150022380Y-91825595D01*
X150022380Y-91444642D01*
X150070000Y-91349404D01*
X150117619Y-91301785D01*
X150212857Y-91254166D01*
X150355714Y-91254166D01*
X150450952Y-91301785D01*
X150498571Y-91349404D01*
X150546190Y-91444642D01*
X150546190Y-91825595D01*
X150117619Y-90873214D02*
X150070000Y-90825595D01*
X150022380Y-90730357D01*
X150022380Y-90492261D01*
X150070000Y-90397023D01*
X150117619Y-90349404D01*
X150212857Y-90301785D01*
X150308095Y-90301785D01*
X150450952Y-90349404D01*
X151022380Y-90920833D01*
X151022380Y-90301785D01*
%TO.C,R1*%
X156022380Y-91166666D02*
X155546190Y-91500000D01*
X156022380Y-91738095D02*
X155022380Y-91738095D01*
X155022380Y-91357142D01*
X155070000Y-91261904D01*
X155117619Y-91214285D01*
X155212857Y-91166666D01*
X155355714Y-91166666D01*
X155450952Y-91214285D01*
X155498571Y-91261904D01*
X155546190Y-91357142D01*
X155546190Y-91738095D01*
X156022380Y-90214285D02*
X156022380Y-90785714D01*
X156022380Y-90500000D02*
X155022380Y-90500000D01*
X155165238Y-90595238D01*
X155260476Y-90690476D01*
X155308095Y-90785714D01*
%TO.C,JP3*%
X162252380Y-95833333D02*
X162966666Y-95833333D01*
X163109523Y-95880952D01*
X163204761Y-95976190D01*
X163252380Y-96119047D01*
X163252380Y-96214285D01*
X163252380Y-95357142D02*
X162252380Y-95357142D01*
X162252380Y-94976190D01*
X162300000Y-94880952D01*
X162347619Y-94833333D01*
X162442857Y-94785714D01*
X162585714Y-94785714D01*
X162680952Y-94833333D01*
X162728571Y-94880952D01*
X162776190Y-94976190D01*
X162776190Y-95357142D01*
X162252380Y-94452380D02*
X162252380Y-93833333D01*
X162633333Y-94166666D01*
X162633333Y-94023809D01*
X162680952Y-93928571D01*
X162728571Y-93880952D01*
X162823809Y-93833333D01*
X163061904Y-93833333D01*
X163157142Y-93880952D01*
X163204761Y-93928571D01*
X163252380Y-94023809D01*
X163252380Y-94309523D01*
X163204761Y-94404761D01*
X163157142Y-94452380D01*
%TO.C,JP2*%
X153252380Y-95833333D02*
X153966666Y-95833333D01*
X154109523Y-95880952D01*
X154204761Y-95976190D01*
X154252380Y-96119047D01*
X154252380Y-96214285D01*
X154252380Y-95357142D02*
X153252380Y-95357142D01*
X153252380Y-94976190D01*
X153300000Y-94880952D01*
X153347619Y-94833333D01*
X153442857Y-94785714D01*
X153585714Y-94785714D01*
X153680952Y-94833333D01*
X153728571Y-94880952D01*
X153776190Y-94976190D01*
X153776190Y-95357142D01*
X153347619Y-94404761D02*
X153300000Y-94357142D01*
X153252380Y-94261904D01*
X153252380Y-94023809D01*
X153300000Y-93928571D01*
X153347619Y-93880952D01*
X153442857Y-93833333D01*
X153538095Y-93833333D01*
X153680952Y-93880952D01*
X154252380Y-94452380D01*
X154252380Y-93833333D01*
%TO.C,JP1*%
X158252380Y-95833333D02*
X158966666Y-95833333D01*
X159109523Y-95880952D01*
X159204761Y-95976190D01*
X159252380Y-96119047D01*
X159252380Y-96214285D01*
X159252380Y-95357142D02*
X158252380Y-95357142D01*
X158252380Y-94976190D01*
X158300000Y-94880952D01*
X158347619Y-94833333D01*
X158442857Y-94785714D01*
X158585714Y-94785714D01*
X158680952Y-94833333D01*
X158728571Y-94880952D01*
X158776190Y-94976190D01*
X158776190Y-95357142D01*
X159252380Y-93833333D02*
X159252380Y-94404761D01*
X159252380Y-94119047D02*
X158252380Y-94119047D01*
X158395238Y-94214285D01*
X158490476Y-94309523D01*
X158538095Y-94404761D01*
%TO.C,J1*%
X141152380Y-93333333D02*
X141866666Y-93333333D01*
X142009523Y-93380952D01*
X142104761Y-93476190D01*
X142152380Y-93619047D01*
X142152380Y-93714285D01*
X142152380Y-92333333D02*
X142152380Y-92904761D01*
X142152380Y-92619047D02*
X141152380Y-92619047D01*
X141295238Y-92714285D01*
X141390476Y-92809523D01*
X141438095Y-92904761D01*
D11*
%TO.C,R3*%
X160477500Y-91342224D02*
X160477500Y-90832776D01*
X161522500Y-91342224D02*
X161522500Y-90832776D01*
%TO.C,R2*%
X151477500Y-91342224D02*
X151477500Y-90832776D01*
X152522500Y-91342224D02*
X152522500Y-90832776D01*
%TO.C,R1*%
X156477500Y-91254724D02*
X156477500Y-90745276D01*
X157522500Y-91254724D02*
X157522500Y-90745276D01*
%TO.C,JP3*%
X162000000Y-94300000D02*
X162000000Y-95700000D01*
X160000000Y-95700000D02*
X160000000Y-94300000D01*
X161300000Y-96400000D02*
X160700000Y-96400000D01*
X160700000Y-93600000D02*
X161300000Y-93600000D01*
X161300000Y-96400000D02*
G75*
G03*
X162000000Y-95700000I0J700000D01*
G01*
X162000000Y-94300000D02*
G75*
G03*
X161300000Y-93600000I-699999J1D01*
G01*
X160700000Y-93600000D02*
G75*
G03*
X160000000Y-94300000I-1J-699999D01*
G01*
X160000000Y-95700000D02*
G75*
G03*
X160700000Y-96400000I700000J0D01*
G01*
%TO.C,JP2*%
X153000000Y-94300000D02*
X153000000Y-95700000D01*
X151000000Y-95700000D02*
X151000000Y-94300000D01*
X152300000Y-96400000D02*
X151700000Y-96400000D01*
X151700000Y-93600000D02*
X152300000Y-93600000D01*
X152300000Y-96400000D02*
G75*
G03*
X153000000Y-95700000I0J700000D01*
G01*
X153000000Y-94300000D02*
G75*
G03*
X152300000Y-93600000I-699999J1D01*
G01*
X151700000Y-93600000D02*
G75*
G03*
X151000000Y-94300000I-1J-699999D01*
G01*
X151000000Y-95700000D02*
G75*
G03*
X151700000Y-96400000I700000J0D01*
G01*
%TO.C,JP1*%
X158000000Y-94300000D02*
X158000000Y-95700000D01*
X156000000Y-95700000D02*
X156000000Y-94300000D01*
X157300000Y-96400000D02*
X156700000Y-96400000D01*
X156700000Y-93600000D02*
X157300000Y-93600000D01*
X157300000Y-96400000D02*
G75*
G03*
X158000000Y-95700000I0J700000D01*
G01*
X158000000Y-94300000D02*
G75*
G03*
X157300000Y-93600000I-699999J1D01*
G01*
X156700000Y-93600000D02*
G75*
G03*
X156000000Y-94300000I-1J-699999D01*
G01*
X156000000Y-95700000D02*
G75*
G03*
X156700000Y-96400000I700000J0D01*
G01*
%TO.C,J1*%
X146110000Y-89890000D02*
X146110000Y-90940000D01*
X142990000Y-94940000D02*
X142990000Y-91060000D01*
X144960000Y-89890000D02*
X146110000Y-89890000D01*
X144960000Y-96110000D02*
X146110000Y-96110000D01*
X146110000Y-95060000D02*
X147100000Y-95060000D01*
X146110000Y-96110000D02*
X146110000Y-95060000D01*
%TD*%
%LPC*%
D12*
%TO.C,R3*%
X161000000Y-92000000D03*
X161000000Y-90175000D03*
%TD*%
%TO.C,R2*%
X152000000Y-92000000D03*
X152000000Y-90175000D03*
%TD*%
%TO.C,R1*%
X157000000Y-91912500D03*
X157000000Y-90087500D03*
%TD*%
D13*
%TO.C,JP3*%
X161000000Y-94350000D03*
D14*
X161000000Y-95650000D03*
%TD*%
D13*
%TO.C,JP2*%
X152000000Y-94350000D03*
D14*
X152000000Y-95650000D03*
%TD*%
D13*
%TO.C,JP1*%
X157000000Y-94350000D03*
D14*
X157000000Y-95650000D03*
%TD*%
D15*
%TO.C,J1*%
X146325000Y-94500000D03*
X146325000Y-93500000D03*
X146325000Y-92500000D03*
X146325000Y-91500000D03*
D16*
X143800000Y-95800000D03*
X143800000Y-90200000D03*
%TD*%
M02*
