%TF.GenerationSoftware,KiCad,Pcbnew,(6.0.4-0)*%
%TF.CreationDate,2022-07-25T07:46:20-06:00*%
%TF.ProjectId,lockin_calibration,6c6f636b-696e-45f6-9361-6c6962726174,rev?*%
%TF.SameCoordinates,Original*%
%TF.FileFunction,Copper,L1,Top*%
%TF.FilePolarity,Positive*%
%FSLAX46Y46*%
G04 Gerber Fmt 4.6, Leading zero omitted, Abs format (unit mm)*
G04 Created by KiCad (PCBNEW (6.0.4-0)) date 2022-07-25 07:46:20*
%MOMM*%
%LPD*%
G01*
G04 APERTURE LIST*
G04 Aperture macros list*
%AMRoundRect*
0 Rectangle with rounded corners*
0 $1 Rounding radius*
0 $2 $3 $4 $5 $6 $7 $8 $9 X,Y pos of 4 corners*
0 Add a 4 corners polygon primitive as box body*
4,1,4,$2,$3,$4,$5,$6,$7,$8,$9,$2,$3,0*
0 Add four circle primitives for the rounded corners*
1,1,$1+$1,$2,$3*
1,1,$1+$1,$4,$5*
1,1,$1+$1,$6,$7*
1,1,$1+$1,$8,$9*
0 Add four rect primitives between the rounded corners*
20,1,$1+$1,$2,$3,$4,$5,0*
20,1,$1+$1,$4,$5,$6,$7,0*
20,1,$1+$1,$6,$7,$8,$9,0*
20,1,$1+$1,$8,$9,$2,$3,0*%
%AMFreePoly0*
4,1,22,0.500000,-0.750000,0.000000,-0.750000,0.000000,-0.745033,-0.079941,-0.743568,-0.215256,-0.701293,-0.333266,-0.622738,-0.424486,-0.514219,-0.481581,-0.384460,-0.499164,-0.250000,-0.500000,-0.250000,-0.500000,0.250000,-0.499164,0.250000,-0.499963,0.256109,-0.478152,0.396186,-0.417904,0.524511,-0.324060,0.630769,-0.204165,0.706417,-0.067858,0.745374,0.000000,0.744959,0.000000,0.750000,
0.500000,0.750000,0.500000,-0.750000,0.500000,-0.750000,$1*%
%AMFreePoly1*
4,1,20,0.000000,0.744959,0.073905,0.744508,0.209726,0.703889,0.328688,0.626782,0.421226,0.519385,0.479903,0.390333,0.500000,0.250000,0.500000,-0.250000,0.499851,-0.262216,0.476331,-0.402017,0.414519,-0.529596,0.319384,-0.634700,0.198574,-0.708877,0.061801,-0.746166,0.000000,-0.745033,0.000000,-0.750000,-0.500000,-0.750000,-0.500000,0.750000,0.000000,0.750000,0.000000,0.744959,
0.000000,0.744959,$1*%
G04 Aperture macros list end*
%TA.AperFunction,SMDPad,CuDef*%
%ADD10RoundRect,0.237500X0.237500X-0.250000X0.237500X0.250000X-0.237500X0.250000X-0.237500X-0.250000X0*%
%TD*%
%TA.AperFunction,SMDPad,CuDef*%
%ADD11FreePoly0,270.000000*%
%TD*%
%TA.AperFunction,SMDPad,CuDef*%
%ADD12FreePoly1,270.000000*%
%TD*%
%TA.AperFunction,SMDPad,CuDef*%
%ADD13RoundRect,0.150000X0.625000X-0.150000X0.625000X0.150000X-0.625000X0.150000X-0.625000X-0.150000X0*%
%TD*%
%TA.AperFunction,SMDPad,CuDef*%
%ADD14RoundRect,0.250000X0.650000X-0.350000X0.650000X0.350000X-0.650000X0.350000X-0.650000X-0.350000X0*%
%TD*%
%TA.AperFunction,Conductor*%
%ADD15C,0.250000*%
%TD*%
G04 APERTURE END LIST*
D10*
%TO.P,R3,1*%
%TO.N,Net-(JP3-Pad1)*%
X161000000Y-92000000D03*
%TO.P,R3,2*%
%TO.N,Net-(J1-Pad3)*%
X161000000Y-90175000D03*
%TD*%
%TO.P,R2,1*%
%TO.N,Net-(JP2-Pad1)*%
X152000000Y-92000000D03*
%TO.P,R2,2*%
%TO.N,Net-(J1-Pad3)*%
X152000000Y-90175000D03*
%TD*%
%TO.P,R1,1*%
%TO.N,Net-(JP1-Pad1)*%
X157000000Y-91912500D03*
%TO.P,R1,2*%
%TO.N,Net-(J1-Pad3)*%
X157000000Y-90087500D03*
%TD*%
D11*
%TO.P,JP3,1,A*%
%TO.N,Net-(JP3-Pad1)*%
X161000000Y-94350000D03*
D12*
%TO.P,JP3,2,B*%
%TO.N,Net-(J1-Pad1)*%
X161000000Y-95650000D03*
%TD*%
D11*
%TO.P,JP2,1,A*%
%TO.N,Net-(JP2-Pad1)*%
X152000000Y-94350000D03*
D12*
%TO.P,JP2,2,B*%
%TO.N,Net-(J1-Pad1)*%
X152000000Y-95650000D03*
%TD*%
D11*
%TO.P,JP1,1,A*%
%TO.N,Net-(JP1-Pad1)*%
X157000000Y-94350000D03*
D12*
%TO.P,JP1,2,B*%
%TO.N,Net-(J1-Pad1)*%
X157000000Y-95650000D03*
%TD*%
D13*
%TO.P,J1,1,I+*%
%TO.N,Net-(J1-Pad1)*%
X146325000Y-94500000D03*
%TO.P,J1,2,V+*%
X146325000Y-93500000D03*
%TO.P,J1,3,V-*%
%TO.N,Net-(J1-Pad3)*%
X146325000Y-92500000D03*
%TO.P,J1,4,I-*%
X146325000Y-91500000D03*
D14*
%TO.P,J1,MP*%
%TO.N,N/C*%
X143800000Y-95800000D03*
X143800000Y-90200000D03*
%TD*%
D15*
%TO.N,Net-(J1-Pad3)*%
X146325000Y-92500000D02*
X149300000Y-92500000D01*
X149300000Y-92500000D02*
X150300000Y-91500000D01*
X161000000Y-90175000D02*
X151625000Y-90175000D01*
X151625000Y-90175000D02*
X150300000Y-91500000D01*
X150300000Y-91500000D02*
X146325000Y-91500000D01*
%TO.N,Net-(JP3-Pad1)*%
X161000000Y-92000000D02*
X161000000Y-94350000D01*
%TO.N,Net-(JP1-Pad1)*%
X157000000Y-91912500D02*
X157000000Y-94350000D01*
%TO.N,Net-(JP2-Pad1)*%
X152000000Y-94350000D02*
X152000000Y-92000000D01*
%TO.N,Net-(J1-Pad1)*%
X148800000Y-95700000D02*
X150400000Y-95700000D01*
X150400000Y-94300000D02*
X150400000Y-95700000D01*
X150400000Y-95700000D02*
X160950000Y-95700000D01*
X146325000Y-93500000D02*
X149600000Y-93500000D01*
X149600000Y-93500000D02*
X150400000Y-94300000D01*
X147600000Y-94500000D02*
X148800000Y-95700000D01*
X146325000Y-94500000D02*
X147600000Y-94500000D01*
X160950000Y-95700000D02*
X161000000Y-95650000D01*
%TD*%
M02*
