%TF.GenerationSoftware,KiCad,Pcbnew,(6.0.4-0)*%
%TF.CreationDate,2022-07-19T08:11:49-06:00*%
%TF.ProjectId,two-wire-single,74776f2d-7769-4726-952d-73696e676c65,rev?*%
%TF.SameCoordinates,Original*%
%TF.FileFunction,Soldermask,Top*%
%TF.FilePolarity,Negative*%
%FSLAX46Y46*%
G04 Gerber Fmt 4.6, Leading zero omitted, Abs format (unit mm)*
G04 Created by KiCad (PCBNEW (6.0.4-0)) date 2022-07-19 08:11:49*
%MOMM*%
%LPD*%
G01*
G04 APERTURE LIST*
G04 Aperture macros list*
%AMRoundRect*
0 Rectangle with rounded corners*
0 $1 Rounding radius*
0 $2 $3 $4 $5 $6 $7 $8 $9 X,Y pos of 4 corners*
0 Add a 4 corners polygon primitive as box body*
4,1,4,$2,$3,$4,$5,$6,$7,$8,$9,$2,$3,0*
0 Add four circle primitives for the rounded corners*
1,1,$1+$1,$2,$3*
1,1,$1+$1,$4,$5*
1,1,$1+$1,$6,$7*
1,1,$1+$1,$8,$9*
0 Add four rect primitives between the rounded corners*
20,1,$1+$1,$2,$3,$4,$5,0*
20,1,$1+$1,$4,$5,$6,$7,0*
20,1,$1+$1,$6,$7,$8,$9,0*
20,1,$1+$1,$8,$9,$2,$3,0*%
%AMFreePoly0*
4,1,41,0.586777,0.930194,0.656366,0.874698,0.694986,0.794504,0.700000,0.750000,0.700000,-0.750000,0.680194,-0.836777,0.624698,-0.906366,0.544504,-0.944986,0.500000,-0.950000,0.000000,-0.950000,-0.023504,-0.944635,-0.083606,-0.943534,-0.139582,-0.934468,-0.274897,-0.892193,-0.326080,-0.867780,-0.444090,-0.789225,-0.486362,-0.751429,-0.577582,-0.642910,-0.607548,-0.594768,-0.664643,-0.465009,
-0.679893,-0.410393,-0.697476,-0.275933,-0.697084,-0.275882,-0.700000,-0.250000,-0.700000,0.250000,-0.697921,0.259109,-0.697582,0.286880,-0.675771,0.426957,-0.659192,0.481183,-0.598944,0.609508,-0.567811,0.656904,-0.473967,0.763162,-0.430783,0.799915,-0.310888,0.875563,-0.259125,0.898717,-0.122818,0.937674,-0.066635,0.945370,-0.042411,0.945222,0.000000,0.950000,0.500000,0.950000,
0.586777,0.930194,0.586777,0.930194,$1*%
%AMFreePoly1*
4,1,41,0.022678,0.944824,0.075125,0.944504,0.131210,0.936123,0.267031,0.895504,0.318507,0.871718,0.437469,0.794611,0.480202,0.757333,0.572740,0.649936,0.603290,0.602165,0.661967,0.473113,0.677883,0.418686,0.697980,0.278353,0.700000,0.250000,0.700000,-0.250000,0.699985,-0.252439,0.699836,-0.264655,0.697079,-0.295398,0.673559,-0.435199,0.656318,-0.489221,0.594506,-0.616800,
0.562797,-0.663810,0.467662,-0.768914,0.424032,-0.805137,0.303222,-0.879314,0.251181,-0.901834,0.114408,-0.939123,0.058135,-0.946132,0.037663,-0.945757,0.000000,-0.950000,-0.500000,-0.950000,-0.586777,-0.930194,-0.656366,-0.874698,-0.694986,-0.794504,-0.700000,-0.750000,-0.700000,0.750000,-0.680194,0.836777,-0.624698,0.906366,-0.544504,0.944986,-0.500000,0.950000,0.000000,0.950000,
0.022678,0.944824,0.022678,0.944824,$1*%
G04 Aperture macros list end*
%ADD10C,1.100000*%
%ADD11C,4.800000*%
%ADD12RoundRect,0.347500X-0.147500X-0.172500X0.147500X-0.172500X0.147500X0.172500X-0.147500X0.172500X0*%
%ADD13RoundRect,0.347500X0.147500X0.172500X-0.147500X0.172500X-0.147500X-0.172500X0.147500X-0.172500X0*%
%ADD14RoundRect,0.450000X0.325000X0.450000X-0.325000X0.450000X-0.325000X-0.450000X0.325000X-0.450000X0*%
%ADD15RoundRect,0.347500X-0.172500X0.147500X-0.172500X-0.147500X0.172500X-0.147500X0.172500X0.147500X0*%
%ADD16RoundRect,0.347500X0.172500X-0.147500X0.172500X0.147500X-0.172500X0.147500X-0.172500X-0.147500X0*%
%ADD17RoundRect,0.200000X-0.225000X0.750000X-0.225000X-0.750000X0.225000X-0.750000X0.225000X0.750000X0*%
%ADD18RoundRect,0.350000X-0.625000X0.150000X-0.625000X-0.150000X0.625000X-0.150000X0.625000X0.150000X0*%
%ADD19RoundRect,0.450000X-0.650000X0.350000X-0.650000X-0.350000X0.650000X-0.350000X0.650000X0.350000X0*%
%ADD20FreePoly0,270.000000*%
%ADD21FreePoly1,270.000000*%
%ADD22RoundRect,0.437500X0.237500X-0.287500X0.237500X0.287500X-0.237500X0.287500X-0.237500X-0.287500X0*%
%ADD23RoundRect,0.350000X0.625000X-0.150000X0.625000X0.150000X-0.625000X0.150000X-0.625000X-0.150000X0*%
%ADD24RoundRect,0.450000X0.650000X-0.350000X0.650000X0.350000X-0.650000X0.350000X-0.650000X-0.350000X0*%
%ADD25RoundRect,0.200000X-0.850000X-0.850000X0.850000X-0.850000X0.850000X0.850000X-0.850000X0.850000X0*%
G04 APERTURE END LIST*
D10*
%TO.C,MH1*%
X101350000Y-84000000D03*
X103000000Y-82350000D03*
X104166726Y-85166726D03*
X104166726Y-82833274D03*
D11*
X103000000Y-84000000D03*
D10*
X104650000Y-84000000D03*
X101833274Y-82833274D03*
X101833274Y-85166726D03*
X103000000Y-85650000D03*
%TD*%
D11*
%TO.C,MH2*%
X136000000Y-84000000D03*
D10*
X137166726Y-82833274D03*
X134350000Y-84000000D03*
X137650000Y-84000000D03*
X137166726Y-85166726D03*
X136000000Y-82350000D03*
X136000000Y-85650000D03*
X134833274Y-85166726D03*
X134833274Y-82833274D03*
%TD*%
%TO.C,MH3*%
X101833274Y-98166726D03*
D11*
X103000000Y-97000000D03*
D10*
X104166726Y-98166726D03*
X101833274Y-95833274D03*
X104166726Y-95833274D03*
X103000000Y-95350000D03*
X104650000Y-97000000D03*
X101350000Y-97000000D03*
X103000000Y-98650000D03*
%TD*%
D11*
%TO.C,MH4*%
X136000000Y-97000000D03*
D10*
X134833274Y-95833274D03*
X134350000Y-97000000D03*
X137650000Y-97000000D03*
X136000000Y-95350000D03*
X137166726Y-98166726D03*
X137166726Y-95833274D03*
X134833274Y-98166726D03*
X136000000Y-98650000D03*
%TD*%
D12*
%TO.C,R13*%
X110683000Y-92300000D03*
X111653000Y-92300000D03*
%TD*%
D13*
%TO.C,R14*%
X111650000Y-88950000D03*
X110680000Y-88950000D03*
%TD*%
%TO.C,R15*%
X111635000Y-90050000D03*
X110665000Y-90050000D03*
%TD*%
D14*
%TO.C,L2*%
X122475000Y-96750000D03*
X120425000Y-96750000D03*
%TD*%
D15*
%TO.C,C8*%
X113050000Y-87965000D03*
X113050000Y-88935000D03*
%TD*%
%TO.C,C9*%
X113050000Y-90050000D03*
X113050000Y-91020000D03*
%TD*%
%TO.C,C10*%
X114450000Y-88990000D03*
X114450000Y-89960000D03*
%TD*%
D16*
%TO.C,C11*%
X115350000Y-93460000D03*
X115350000Y-92490000D03*
%TD*%
D12*
%TO.C,C17*%
X120165000Y-94950000D03*
X121135000Y-94950000D03*
%TD*%
D17*
%TO.C,IC2*%
X121425000Y-87200000D03*
X120775000Y-87200000D03*
X120125000Y-87200000D03*
X119475000Y-87200000D03*
X118825000Y-87200000D03*
X118175000Y-87200000D03*
X117525000Y-87200000D03*
X116875000Y-87200000D03*
X116875000Y-93100000D03*
X117525000Y-93100000D03*
X118175000Y-93100000D03*
X118825000Y-93100000D03*
X119475000Y-93100000D03*
X120125000Y-93100000D03*
X120775000Y-93100000D03*
X121425000Y-93100000D03*
%TD*%
D12*
%TO.C,C27*%
X118765000Y-84550000D03*
X119735000Y-84550000D03*
%TD*%
D13*
%TO.C,R23*%
X122035000Y-84550000D03*
X121065000Y-84550000D03*
%TD*%
D12*
%TO.C,C18*%
X117780000Y-95750000D03*
X118750000Y-95750000D03*
%TD*%
D18*
%TO.C,J1*%
X105250000Y-89050000D03*
X105250000Y-90050000D03*
X105250000Y-91050000D03*
X105250000Y-92050000D03*
D19*
X101375000Y-93350000D03*
X101375000Y-87750000D03*
%TD*%
D20*
%TO.C,JP1*%
X107950000Y-88100000D03*
D21*
X107950000Y-89400000D03*
%TD*%
D20*
%TO.C,JP2*%
X107950000Y-91600000D03*
D21*
X107950000Y-92900000D03*
%TD*%
D22*
%TO.C,R1*%
X132050000Y-97375000D03*
X132050000Y-95625000D03*
%TD*%
%TO.C,R2*%
X130400000Y-97375000D03*
X130400000Y-95625000D03*
%TD*%
D23*
%TO.C,J2*%
X133750000Y-92000000D03*
X133750000Y-91000000D03*
X133750000Y-90000000D03*
X133750000Y-89000000D03*
D24*
X137625000Y-87700000D03*
X137625000Y-93300000D03*
%TD*%
D25*
%TO.C,J3*%
X115650000Y-83550000D03*
%TD*%
D13*
%TO.C,R3*%
X128150000Y-94850000D03*
X127180000Y-94850000D03*
%TD*%
D12*
%TO.C,R4*%
X127930000Y-93050000D03*
X128900000Y-93050000D03*
%TD*%
M02*
