%TF.GenerationSoftware,KiCad,Pcbnew,(6.0.4-0)*%
%TF.CreationDate,2022-07-19T08:11:49-06:00*%
%TF.ProjectId,two-wire-single,74776f2d-7769-4726-952d-73696e676c65,rev?*%
%TF.SameCoordinates,Original*%
%TF.FileFunction,Copper,L3,Inr*%
%TF.FilePolarity,Positive*%
%FSLAX46Y46*%
G04 Gerber Fmt 4.6, Leading zero omitted, Abs format (unit mm)*
G04 Created by KiCad (PCBNEW (6.0.4-0)) date 2022-07-19 08:11:49*
%MOMM*%
%LPD*%
G01*
G04 APERTURE LIST*
%TA.AperFunction,ComponentPad*%
%ADD10C,0.700000*%
%TD*%
%TA.AperFunction,ComponentPad*%
%ADD11C,4.400000*%
%TD*%
%TA.AperFunction,ComponentPad*%
%ADD12R,1.700000X1.700000*%
%TD*%
%TA.AperFunction,ViaPad*%
%ADD13C,0.600000*%
%TD*%
G04 APERTURE END LIST*
D10*
%TO.N,GNDPWR*%
%TO.C,MH1*%
X101350000Y-84000000D03*
X103000000Y-82350000D03*
X104166726Y-85166726D03*
X104166726Y-82833274D03*
D11*
X103000000Y-84000000D03*
D10*
X104650000Y-84000000D03*
X101833274Y-82833274D03*
X101833274Y-85166726D03*
X103000000Y-85650000D03*
%TD*%
D11*
%TO.N,GNDPWR*%
%TO.C,MH2*%
X136000000Y-84000000D03*
D10*
X137166726Y-82833274D03*
X134350000Y-84000000D03*
X137650000Y-84000000D03*
X137166726Y-85166726D03*
X136000000Y-82350000D03*
X136000000Y-85650000D03*
X134833274Y-85166726D03*
X134833274Y-82833274D03*
%TD*%
%TO.N,GNDPWR*%
%TO.C,MH3*%
X101833274Y-98166726D03*
D11*
X103000000Y-97000000D03*
D10*
X104166726Y-98166726D03*
X101833274Y-95833274D03*
X104166726Y-95833274D03*
X103000000Y-95350000D03*
X104650000Y-97000000D03*
X101350000Y-97000000D03*
X103000000Y-98650000D03*
%TD*%
D11*
%TO.N,GNDPWR*%
%TO.C,MH4*%
X136000000Y-97000000D03*
D10*
X134833274Y-95833274D03*
X134350000Y-97000000D03*
X137650000Y-97000000D03*
X136000000Y-95350000D03*
X137166726Y-98166726D03*
X137166726Y-95833274D03*
X134833274Y-98166726D03*
X136000000Y-98650000D03*
%TD*%
D12*
%TO.N,/Channel1/~{DRDY}*%
%TO.C,J3*%
X115650000Y-83550000D03*
%TD*%
D13*
%TO.N,GND*%
X127250000Y-86150000D03*
X120750000Y-90250000D03*
X112050000Y-93550000D03*
X132050000Y-92200000D03*
X118750000Y-89250000D03*
X122250000Y-94950000D03*
X113050000Y-92050000D03*
%TO.N,/Channel1/AIN1*%
X117201808Y-94501808D03*
X110650000Y-93350000D03*
%TO.N,/Channel1/AIN0*%
X108350000Y-94050000D03*
X118150000Y-94550000D03*
%TO.N,VD*%
X132000000Y-91200000D03*
X127250000Y-89850000D03*
X135450000Y-91250000D03*
X130200000Y-89850000D03*
%TO.N,Net-(C11-Pad2)*%
X115925000Y-87650000D03*
X115625000Y-90975000D03*
%TO.N,/Channel1/A1*%
X120968090Y-85773551D03*
%TO.N,/Channel1/A0*%
X121950000Y-85850000D03*
%TO.N,/Channel1/~{DRDY}*%
X120100000Y-91750000D03*
%TO.N,/sda-tx*%
X129600010Y-93050000D03*
X130850010Y-93050000D03*
%TO.N,/Channel1/sda*%
X127150000Y-93050000D03*
%TO.N,/Channel1/scl*%
X127150000Y-96050000D03*
%TD*%
%TA.AperFunction,Conductor*%
%TO.N,GND*%
G36*
X134500316Y-81528502D02*
G01*
X134546809Y-81582158D01*
X134556913Y-81652432D01*
X134527419Y-81717012D01*
X134496618Y-81742785D01*
X134478074Y-81753817D01*
X134478068Y-81753821D01*
X134474814Y-81755757D01*
X134216244Y-81955243D01*
X133983513Y-82184347D01*
X133981149Y-82187314D01*
X133981146Y-82187317D01*
X133866365Y-82331358D01*
X133779991Y-82439751D01*
X133608626Y-82717757D01*
X133471902Y-83014336D01*
X133470741Y-83017940D01*
X133470741Y-83017941D01*
X133462196Y-83044477D01*
X133371797Y-83325192D01*
X133371079Y-83328903D01*
X133371078Y-83328907D01*
X133310482Y-83642105D01*
X133310481Y-83642114D01*
X133309763Y-83645824D01*
X133286698Y-83971585D01*
X133302936Y-84297759D01*
X133303577Y-84301490D01*
X133303578Y-84301498D01*
X133340731Y-84517715D01*
X133358241Y-84619619D01*
X133359329Y-84623258D01*
X133359330Y-84623261D01*
X133428267Y-84853767D01*
X133451814Y-84932504D01*
X133453327Y-84935975D01*
X133453329Y-84935981D01*
X133505362Y-85055364D01*
X133582297Y-85231881D01*
X133584220Y-85235152D01*
X133584222Y-85235156D01*
X133626584Y-85307215D01*
X133747802Y-85513414D01*
X133750103Y-85516429D01*
X133943631Y-85770012D01*
X133943636Y-85770017D01*
X133945931Y-85773025D01*
X134173814Y-86006953D01*
X134246635Y-86065607D01*
X134425196Y-86209431D01*
X134425201Y-86209435D01*
X134428149Y-86211809D01*
X134705253Y-86384627D01*
X135001112Y-86522903D01*
X135004721Y-86524086D01*
X135208679Y-86590947D01*
X135311440Y-86624634D01*
X135631742Y-86688346D01*
X135635514Y-86688633D01*
X135635522Y-86688634D01*
X135953602Y-86712829D01*
X135953607Y-86712829D01*
X135957379Y-86713116D01*
X136283633Y-86698586D01*
X136343425Y-86688634D01*
X136602037Y-86645590D01*
X136602042Y-86645589D01*
X136605778Y-86644967D01*
X136919149Y-86553034D01*
X136922616Y-86551544D01*
X136922620Y-86551543D01*
X137215721Y-86425616D01*
X137215723Y-86425615D01*
X137219205Y-86424119D01*
X137501601Y-86260091D01*
X137762245Y-86063324D01*
X137894633Y-85935702D01*
X137994632Y-85839303D01*
X137994635Y-85839300D01*
X137997363Y-85836670D01*
X138133261Y-85669745D01*
X138201155Y-85586351D01*
X138201158Y-85586347D01*
X138203549Y-85583410D01*
X138258939Y-85495622D01*
X138312205Y-85448685D01*
X138382392Y-85437996D01*
X138447217Y-85466951D01*
X138486096Y-85526355D01*
X138491500Y-85562859D01*
X138491500Y-95433521D01*
X138471498Y-95501642D01*
X138417842Y-95548135D01*
X138347568Y-95558239D01*
X138282988Y-95528745D01*
X138257557Y-95498515D01*
X138236226Y-95463084D01*
X138233899Y-95460100D01*
X138233894Y-95460093D01*
X138037726Y-95208558D01*
X138037724Y-95208556D01*
X138035390Y-95205563D01*
X137805070Y-94974034D01*
X137548603Y-94771852D01*
X137269705Y-94601945D01*
X137266261Y-94600379D01*
X137266257Y-94600377D01*
X137039904Y-94497461D01*
X136972414Y-94466775D01*
X136661037Y-94368300D01*
X136443492Y-94327390D01*
X136343809Y-94308645D01*
X136343807Y-94308645D01*
X136340086Y-94307945D01*
X136014208Y-94286586D01*
X136010428Y-94286794D01*
X136010427Y-94286794D01*
X135912897Y-94292162D01*
X135688124Y-94304532D01*
X135684397Y-94305193D01*
X135684393Y-94305193D01*
X135527340Y-94333027D01*
X135366557Y-94361522D01*
X135362941Y-94362624D01*
X135362933Y-94362626D01*
X135057789Y-94455627D01*
X135054167Y-94456731D01*
X134755477Y-94588781D01*
X134730041Y-94603914D01*
X134478074Y-94753817D01*
X134478068Y-94753821D01*
X134474814Y-94755757D01*
X134471812Y-94758073D01*
X134336447Y-94862507D01*
X134216244Y-94955243D01*
X133983513Y-95184347D01*
X133981149Y-95187314D01*
X133981146Y-95187317D01*
X133804605Y-95408862D01*
X133779991Y-95439751D01*
X133608626Y-95717757D01*
X133471902Y-96014336D01*
X133470741Y-96017940D01*
X133470741Y-96017941D01*
X133462196Y-96044477D01*
X133371797Y-96325192D01*
X133371079Y-96328903D01*
X133371078Y-96328907D01*
X133310482Y-96642105D01*
X133310481Y-96642114D01*
X133309763Y-96645824D01*
X133309496Y-96649600D01*
X133309495Y-96649605D01*
X133295673Y-96844820D01*
X133286698Y-96971585D01*
X133302936Y-97297759D01*
X133303577Y-97301490D01*
X133303578Y-97301498D01*
X133318109Y-97386060D01*
X133358241Y-97619619D01*
X133451814Y-97932504D01*
X133582297Y-98231881D01*
X133584220Y-98235152D01*
X133584222Y-98235156D01*
X133626584Y-98307215D01*
X133747802Y-98513414D01*
X133750103Y-98516429D01*
X133943631Y-98770012D01*
X133943636Y-98770017D01*
X133945931Y-98773025D01*
X134173814Y-99006953D01*
X134246635Y-99065607D01*
X134425196Y-99209431D01*
X134425201Y-99209435D01*
X134428149Y-99211809D01*
X134431371Y-99213818D01*
X134431376Y-99213822D01*
X134503156Y-99258588D01*
X134550373Y-99311607D01*
X134561429Y-99381738D01*
X134532815Y-99446713D01*
X134473615Y-99485903D01*
X134436480Y-99491500D01*
X104570222Y-99491500D01*
X104502101Y-99471498D01*
X104455608Y-99417842D01*
X104445504Y-99347568D01*
X104474998Y-99282988D01*
X104499890Y-99261085D01*
X104501601Y-99260091D01*
X104504623Y-99257810D01*
X104504627Y-99257807D01*
X104759221Y-99065607D01*
X104759222Y-99065606D01*
X104762245Y-99063324D01*
X104997363Y-98836670D01*
X105203549Y-98583410D01*
X105255429Y-98501185D01*
X105375788Y-98310428D01*
X105375790Y-98310425D01*
X105377815Y-98307215D01*
X105517638Y-98012084D01*
X105544188Y-97932504D01*
X105619790Y-97705897D01*
X105619792Y-97705891D01*
X105620992Y-97702293D01*
X105686381Y-97382329D01*
X105692956Y-97301498D01*
X105712674Y-97059061D01*
X105712856Y-97056826D01*
X105713451Y-97000000D01*
X105711510Y-96967796D01*
X105694026Y-96677793D01*
X105694026Y-96677789D01*
X105693798Y-96674015D01*
X105688650Y-96645824D01*
X105635805Y-96356473D01*
X105635804Y-96356469D01*
X105635125Y-96352751D01*
X105627722Y-96328907D01*
X105539404Y-96044477D01*
X105538282Y-96040863D01*
X105537285Y-96038640D01*
X126336463Y-96038640D01*
X126354163Y-96219160D01*
X126411418Y-96391273D01*
X126415065Y-96397295D01*
X126415066Y-96397297D01*
X126425978Y-96415314D01*
X126505380Y-96546424D01*
X126631382Y-96676902D01*
X126783159Y-96776222D01*
X126789763Y-96778678D01*
X126789765Y-96778679D01*
X126946558Y-96836990D01*
X126946560Y-96836990D01*
X126953168Y-96839448D01*
X127036995Y-96850633D01*
X127125980Y-96862507D01*
X127125984Y-96862507D01*
X127132961Y-96863438D01*
X127139972Y-96862800D01*
X127139976Y-96862800D01*
X127282459Y-96849832D01*
X127313600Y-96846998D01*
X127320302Y-96844820D01*
X127320304Y-96844820D01*
X127479409Y-96793124D01*
X127479412Y-96793123D01*
X127486108Y-96790947D01*
X127641912Y-96698069D01*
X127773266Y-96572982D01*
X127873643Y-96421902D01*
X127938055Y-96252338D01*
X127939035Y-96245366D01*
X127962748Y-96076639D01*
X127962748Y-96076636D01*
X127963299Y-96072717D01*
X127963616Y-96050000D01*
X127943397Y-95869745D01*
X127941080Y-95863091D01*
X127886064Y-95705106D01*
X127886062Y-95705103D01*
X127883745Y-95698448D01*
X127787626Y-95544624D01*
X127773941Y-95530843D01*
X127664778Y-95420915D01*
X127664774Y-95420912D01*
X127659815Y-95415918D01*
X127648697Y-95408862D01*
X127547782Y-95344820D01*
X127506666Y-95318727D01*
X127444605Y-95296628D01*
X127342425Y-95260243D01*
X127342420Y-95260242D01*
X127335790Y-95257881D01*
X127328802Y-95257048D01*
X127328799Y-95257047D01*
X127205698Y-95242368D01*
X127155680Y-95236404D01*
X127148677Y-95237140D01*
X127148676Y-95237140D01*
X126982288Y-95254628D01*
X126982286Y-95254629D01*
X126975288Y-95255364D01*
X126803579Y-95313818D01*
X126797575Y-95317512D01*
X126655095Y-95405166D01*
X126655092Y-95405168D01*
X126649088Y-95408862D01*
X126644053Y-95413793D01*
X126644050Y-95413795D01*
X126524525Y-95530843D01*
X126519493Y-95535771D01*
X126421235Y-95688238D01*
X126418826Y-95694858D01*
X126418824Y-95694861D01*
X126400088Y-95746338D01*
X126359197Y-95858685D01*
X126336463Y-96038640D01*
X105537285Y-96038640D01*
X105404670Y-95742869D01*
X105236226Y-95463084D01*
X105233899Y-95460100D01*
X105233894Y-95460093D01*
X105037726Y-95208558D01*
X105037724Y-95208556D01*
X105035390Y-95205563D01*
X104805070Y-94974034D01*
X104548603Y-94771852D01*
X104269705Y-94601945D01*
X104266261Y-94600379D01*
X104266257Y-94600377D01*
X104039904Y-94497461D01*
X103972414Y-94466775D01*
X103661037Y-94368300D01*
X103443492Y-94327390D01*
X103343809Y-94308645D01*
X103343807Y-94308645D01*
X103340086Y-94307945D01*
X103014208Y-94286586D01*
X103010428Y-94286794D01*
X103010427Y-94286794D01*
X102912897Y-94292162D01*
X102688124Y-94304532D01*
X102684397Y-94305193D01*
X102684393Y-94305193D01*
X102527340Y-94333027D01*
X102366557Y-94361522D01*
X102362941Y-94362624D01*
X102362933Y-94362626D01*
X102057789Y-94455627D01*
X102054167Y-94456731D01*
X101755477Y-94588781D01*
X101730041Y-94603914D01*
X101478074Y-94753817D01*
X101478068Y-94753821D01*
X101474814Y-94755757D01*
X101471812Y-94758073D01*
X101336447Y-94862507D01*
X101216244Y-94955243D01*
X100983513Y-95184347D01*
X100981149Y-95187314D01*
X100981146Y-95187317D01*
X100804605Y-95408862D01*
X100779991Y-95439751D01*
X100778000Y-95442981D01*
X100741760Y-95501773D01*
X100688988Y-95549266D01*
X100618916Y-95560690D01*
X100553792Y-95532416D01*
X100514293Y-95473422D01*
X100508500Y-95435657D01*
X100508500Y-94038640D01*
X107536463Y-94038640D01*
X107554163Y-94219160D01*
X107611418Y-94391273D01*
X107615065Y-94397295D01*
X107615066Y-94397297D01*
X107625978Y-94415314D01*
X107705380Y-94546424D01*
X107710269Y-94551487D01*
X107710270Y-94551488D01*
X107746284Y-94588781D01*
X107831382Y-94676902D01*
X107837278Y-94680760D01*
X107948921Y-94753817D01*
X107983159Y-94776222D01*
X107989763Y-94778678D01*
X107989765Y-94778679D01*
X108146558Y-94836990D01*
X108146560Y-94836990D01*
X108153168Y-94839448D01*
X108236995Y-94850633D01*
X108325980Y-94862507D01*
X108325984Y-94862507D01*
X108332961Y-94863438D01*
X108339972Y-94862800D01*
X108339976Y-94862800D01*
X108482459Y-94849832D01*
X108513600Y-94846998D01*
X108520302Y-94844820D01*
X108520304Y-94844820D01*
X108679409Y-94793124D01*
X108679412Y-94793123D01*
X108686108Y-94790947D01*
X108841912Y-94698069D01*
X108973266Y-94572982D01*
X109028101Y-94490448D01*
X116388271Y-94490448D01*
X116405971Y-94670968D01*
X116463226Y-94843081D01*
X116466873Y-94849103D01*
X116466874Y-94849105D01*
X116529748Y-94952922D01*
X116557188Y-94998232D01*
X116683190Y-95128710D01*
X116689086Y-95132568D01*
X116805211Y-95208558D01*
X116834967Y-95228030D01*
X116841571Y-95230486D01*
X116841573Y-95230487D01*
X116998366Y-95288798D01*
X116998368Y-95288798D01*
X117004976Y-95291256D01*
X117088803Y-95302441D01*
X117177788Y-95314315D01*
X117177792Y-95314315D01*
X117184769Y-95315246D01*
X117191780Y-95314608D01*
X117191784Y-95314608D01*
X117334267Y-95301640D01*
X117365408Y-95298806D01*
X117372110Y-95296628D01*
X117372112Y-95296628D01*
X117531217Y-95244932D01*
X117531220Y-95244931D01*
X117537916Y-95242755D01*
X117562618Y-95228030D01*
X117571859Y-95222521D01*
X117640614Y-95204821D01*
X117705368Y-95225317D01*
X117783159Y-95276222D01*
X117789763Y-95278678D01*
X117789765Y-95278679D01*
X117946558Y-95336990D01*
X117946560Y-95336990D01*
X117953168Y-95339448D01*
X118036995Y-95350633D01*
X118125980Y-95362507D01*
X118125984Y-95362507D01*
X118132961Y-95363438D01*
X118139972Y-95362800D01*
X118139976Y-95362800D01*
X118282459Y-95349832D01*
X118313600Y-95346998D01*
X118320302Y-95344820D01*
X118320304Y-95344820D01*
X118479409Y-95293124D01*
X118479412Y-95293123D01*
X118486108Y-95290947D01*
X118598124Y-95224172D01*
X118635860Y-95201677D01*
X118635862Y-95201676D01*
X118641912Y-95198069D01*
X118773266Y-95072982D01*
X118873643Y-94921902D01*
X118938055Y-94752338D01*
X118948115Y-94680760D01*
X118962748Y-94576639D01*
X118962748Y-94576636D01*
X118963299Y-94572717D01*
X118963616Y-94550000D01*
X118943397Y-94369745D01*
X118940918Y-94362626D01*
X118886064Y-94205106D01*
X118886062Y-94205103D01*
X118883745Y-94198448D01*
X118807631Y-94076639D01*
X118791359Y-94050598D01*
X118787626Y-94044624D01*
X118781684Y-94038640D01*
X118664778Y-93920915D01*
X118664774Y-93920912D01*
X118659815Y-93915918D01*
X118506666Y-93818727D01*
X118477463Y-93808328D01*
X118342425Y-93760243D01*
X118342420Y-93760242D01*
X118335790Y-93757881D01*
X118328802Y-93757048D01*
X118328799Y-93757047D01*
X118205698Y-93742368D01*
X118155680Y-93736404D01*
X118148677Y-93737140D01*
X118148676Y-93737140D01*
X117982288Y-93754628D01*
X117982286Y-93754629D01*
X117975288Y-93755364D01*
X117906800Y-93778679D01*
X117810249Y-93811547D01*
X117810246Y-93811548D01*
X117803579Y-93813818D01*
X117780813Y-93827824D01*
X117712312Y-93846482D01*
X117647277Y-93826891D01*
X117640367Y-93822506D01*
X117558474Y-93770535D01*
X117513802Y-93754628D01*
X117394233Y-93712051D01*
X117394228Y-93712050D01*
X117387598Y-93709689D01*
X117380610Y-93708856D01*
X117380607Y-93708855D01*
X117257506Y-93694176D01*
X117207488Y-93688212D01*
X117200485Y-93688948D01*
X117200484Y-93688948D01*
X117034096Y-93706436D01*
X117034094Y-93706437D01*
X117027096Y-93707172D01*
X116855387Y-93765626D01*
X116849383Y-93769320D01*
X116706903Y-93856974D01*
X116706900Y-93856976D01*
X116700896Y-93860670D01*
X116695861Y-93865601D01*
X116695858Y-93865603D01*
X116587379Y-93971834D01*
X116571301Y-93987579D01*
X116473043Y-94140046D01*
X116470634Y-94146666D01*
X116470632Y-94146669D01*
X116441815Y-94225844D01*
X116411005Y-94310493D01*
X116388271Y-94490448D01*
X109028101Y-94490448D01*
X109073643Y-94421902D01*
X109138055Y-94252338D01*
X109139035Y-94245366D01*
X109162748Y-94076639D01*
X109162748Y-94076636D01*
X109163299Y-94072717D01*
X109163616Y-94050000D01*
X109143397Y-93869745D01*
X109141080Y-93863091D01*
X109086064Y-93705106D01*
X109086062Y-93705103D01*
X109083745Y-93698448D01*
X108987626Y-93544624D01*
X108871588Y-93427773D01*
X108864778Y-93420915D01*
X108864774Y-93420912D01*
X108859815Y-93415918D01*
X108848697Y-93408862D01*
X108785501Y-93368757D01*
X108738044Y-93338640D01*
X109836463Y-93338640D01*
X109854163Y-93519160D01*
X109911418Y-93691273D01*
X109915065Y-93697295D01*
X109915066Y-93697297D01*
X110001720Y-93840380D01*
X110005380Y-93846424D01*
X110010269Y-93851487D01*
X110010270Y-93851488D01*
X110072490Y-93915918D01*
X110131382Y-93976902D01*
X110147698Y-93987579D01*
X110243088Y-94050000D01*
X110283159Y-94076222D01*
X110289763Y-94078678D01*
X110289765Y-94078679D01*
X110446558Y-94136990D01*
X110446560Y-94136990D01*
X110453168Y-94139448D01*
X110536995Y-94150633D01*
X110625980Y-94162507D01*
X110625984Y-94162507D01*
X110632961Y-94163438D01*
X110639972Y-94162800D01*
X110639976Y-94162800D01*
X110782459Y-94149832D01*
X110813600Y-94146998D01*
X110820302Y-94144820D01*
X110820304Y-94144820D01*
X110979409Y-94093124D01*
X110979412Y-94093123D01*
X110986108Y-94090947D01*
X111141912Y-93998069D01*
X111273266Y-93872982D01*
X111373643Y-93721902D01*
X111438055Y-93552338D01*
X111439733Y-93540401D01*
X111462748Y-93376639D01*
X111462748Y-93376636D01*
X111463299Y-93372717D01*
X111463616Y-93350000D01*
X111443397Y-93169745D01*
X111441080Y-93163091D01*
X111397742Y-93038640D01*
X126336463Y-93038640D01*
X126354163Y-93219160D01*
X126411418Y-93391273D01*
X126415065Y-93397295D01*
X126415066Y-93397297D01*
X126501264Y-93539627D01*
X126505380Y-93546424D01*
X126631382Y-93676902D01*
X126680211Y-93708855D01*
X126772612Y-93769320D01*
X126783159Y-93776222D01*
X126789763Y-93778678D01*
X126789765Y-93778679D01*
X126946558Y-93836990D01*
X126946560Y-93836990D01*
X126953168Y-93839448D01*
X127036995Y-93850633D01*
X127125980Y-93862507D01*
X127125984Y-93862507D01*
X127132961Y-93863438D01*
X127139972Y-93862800D01*
X127139976Y-93862800D01*
X127282459Y-93849832D01*
X127313600Y-93846998D01*
X127320302Y-93844820D01*
X127320304Y-93844820D01*
X127479409Y-93793124D01*
X127479412Y-93793123D01*
X127486108Y-93790947D01*
X127601932Y-93721902D01*
X127635860Y-93701677D01*
X127635862Y-93701676D01*
X127641912Y-93698069D01*
X127773266Y-93572982D01*
X127873643Y-93421902D01*
X127938055Y-93252338D01*
X127940191Y-93237140D01*
X127962748Y-93076639D01*
X127962748Y-93076636D01*
X127963299Y-93072717D01*
X127963616Y-93050000D01*
X127962342Y-93038640D01*
X128786473Y-93038640D01*
X128804173Y-93219160D01*
X128861428Y-93391273D01*
X128865075Y-93397295D01*
X128865076Y-93397297D01*
X128951274Y-93539627D01*
X128955390Y-93546424D01*
X129081392Y-93676902D01*
X129130221Y-93708855D01*
X129222622Y-93769320D01*
X129233169Y-93776222D01*
X129239773Y-93778678D01*
X129239775Y-93778679D01*
X129396568Y-93836990D01*
X129396570Y-93836990D01*
X129403178Y-93839448D01*
X129487005Y-93850633D01*
X129575990Y-93862507D01*
X129575994Y-93862507D01*
X129582971Y-93863438D01*
X129589982Y-93862800D01*
X129589986Y-93862800D01*
X129732469Y-93849832D01*
X129763610Y-93846998D01*
X129770312Y-93844820D01*
X129770314Y-93844820D01*
X129929419Y-93793124D01*
X129929422Y-93793123D01*
X129936118Y-93790947D01*
X130051942Y-93721902D01*
X130085870Y-93701677D01*
X130085872Y-93701676D01*
X130091922Y-93698069D01*
X130136709Y-93655419D01*
X130199834Y-93622927D01*
X130270505Y-93629720D01*
X130314235Y-93659136D01*
X130331392Y-93676902D01*
X130380221Y-93708855D01*
X130472622Y-93769320D01*
X130483169Y-93776222D01*
X130489773Y-93778678D01*
X130489775Y-93778679D01*
X130646568Y-93836990D01*
X130646570Y-93836990D01*
X130653178Y-93839448D01*
X130737005Y-93850633D01*
X130825990Y-93862507D01*
X130825994Y-93862507D01*
X130832971Y-93863438D01*
X130839982Y-93862800D01*
X130839986Y-93862800D01*
X130982469Y-93849832D01*
X131013610Y-93846998D01*
X131020312Y-93844820D01*
X131020314Y-93844820D01*
X131179419Y-93793124D01*
X131179422Y-93793123D01*
X131186118Y-93790947D01*
X131301942Y-93721902D01*
X131335870Y-93701677D01*
X131335872Y-93701676D01*
X131341922Y-93698069D01*
X131473276Y-93572982D01*
X131573653Y-93421902D01*
X131638065Y-93252338D01*
X131640201Y-93237140D01*
X131662758Y-93076639D01*
X131662758Y-93076636D01*
X131663309Y-93072717D01*
X131663626Y-93050000D01*
X131643407Y-92869745D01*
X131641090Y-92863091D01*
X131586074Y-92705106D01*
X131586072Y-92705103D01*
X131583755Y-92698448D01*
X131533181Y-92617512D01*
X131491369Y-92550598D01*
X131487636Y-92544624D01*
X131482496Y-92539448D01*
X131364788Y-92420915D01*
X131364784Y-92420912D01*
X131359825Y-92415918D01*
X131348707Y-92408862D01*
X131298345Y-92376902D01*
X131206676Y-92318727D01*
X131177473Y-92308328D01*
X131042435Y-92260243D01*
X131042430Y-92260242D01*
X131035800Y-92257881D01*
X131028812Y-92257048D01*
X131028809Y-92257047D01*
X130905708Y-92242368D01*
X130855690Y-92236404D01*
X130848687Y-92237140D01*
X130848686Y-92237140D01*
X130682298Y-92254628D01*
X130682296Y-92254629D01*
X130675298Y-92255364D01*
X130503589Y-92313818D01*
X130497585Y-92317512D01*
X130355106Y-92405166D01*
X130349098Y-92408862D01*
X130344066Y-92413790D01*
X130313636Y-92443589D01*
X130250971Y-92476959D01*
X130180212Y-92471153D01*
X130136072Y-92442349D01*
X130114787Y-92420915D01*
X130109825Y-92415918D01*
X130098707Y-92408862D01*
X130048345Y-92376902D01*
X129956676Y-92318727D01*
X129927473Y-92308328D01*
X129792435Y-92260243D01*
X129792430Y-92260242D01*
X129785800Y-92257881D01*
X129778812Y-92257048D01*
X129778809Y-92257047D01*
X129655708Y-92242368D01*
X129605690Y-92236404D01*
X129598687Y-92237140D01*
X129598686Y-92237140D01*
X129432298Y-92254628D01*
X129432296Y-92254629D01*
X129425298Y-92255364D01*
X129253589Y-92313818D01*
X129247585Y-92317512D01*
X129105105Y-92405166D01*
X129105102Y-92405168D01*
X129099098Y-92408862D01*
X129094066Y-92413790D01*
X129094060Y-92413795D01*
X128974535Y-92530843D01*
X128969503Y-92535771D01*
X128871245Y-92688238D01*
X128868836Y-92694858D01*
X128868834Y-92694861D01*
X128814325Y-92844624D01*
X128809207Y-92858685D01*
X128786473Y-93038640D01*
X127962342Y-93038640D01*
X127943397Y-92869745D01*
X127941080Y-92863091D01*
X127886064Y-92705106D01*
X127886062Y-92705103D01*
X127883745Y-92698448D01*
X127833171Y-92617512D01*
X127791359Y-92550598D01*
X127787626Y-92544624D01*
X127782486Y-92539448D01*
X127664778Y-92420915D01*
X127664774Y-92420912D01*
X127659815Y-92415918D01*
X127648697Y-92408862D01*
X127598335Y-92376902D01*
X127506666Y-92318727D01*
X127477463Y-92308328D01*
X127342425Y-92260243D01*
X127342420Y-92260242D01*
X127335790Y-92257881D01*
X127328802Y-92257048D01*
X127328799Y-92257047D01*
X127205698Y-92242368D01*
X127155680Y-92236404D01*
X127148677Y-92237140D01*
X127148676Y-92237140D01*
X126982288Y-92254628D01*
X126982286Y-92254629D01*
X126975288Y-92255364D01*
X126803579Y-92313818D01*
X126797575Y-92317512D01*
X126655095Y-92405166D01*
X126655092Y-92405168D01*
X126649088Y-92408862D01*
X126644056Y-92413790D01*
X126644050Y-92413795D01*
X126524525Y-92530843D01*
X126519493Y-92535771D01*
X126421235Y-92688238D01*
X126418826Y-92694858D01*
X126418824Y-92694861D01*
X126364315Y-92844624D01*
X126359197Y-92858685D01*
X126336463Y-93038640D01*
X111397742Y-93038640D01*
X111386064Y-93005106D01*
X111386062Y-93005103D01*
X111383745Y-92998448D01*
X111287626Y-92844624D01*
X111273941Y-92830843D01*
X111164778Y-92720915D01*
X111164774Y-92720912D01*
X111159815Y-92715918D01*
X111148697Y-92708862D01*
X111100538Y-92678300D01*
X111006666Y-92618727D01*
X110977463Y-92608328D01*
X110842425Y-92560243D01*
X110842420Y-92560242D01*
X110835790Y-92557881D01*
X110828802Y-92557048D01*
X110828799Y-92557047D01*
X110705698Y-92542368D01*
X110655680Y-92536404D01*
X110648677Y-92537140D01*
X110648676Y-92537140D01*
X110482288Y-92554628D01*
X110482286Y-92554629D01*
X110475288Y-92555364D01*
X110303579Y-92613818D01*
X110297575Y-92617512D01*
X110155095Y-92705166D01*
X110155092Y-92705168D01*
X110149088Y-92708862D01*
X110144053Y-92713793D01*
X110144050Y-92713795D01*
X110024525Y-92830843D01*
X110019493Y-92835771D01*
X109921235Y-92988238D01*
X109918826Y-92994858D01*
X109918824Y-92994861D01*
X109898755Y-93050000D01*
X109859197Y-93158685D01*
X109836463Y-93338640D01*
X108738044Y-93338640D01*
X108706666Y-93318727D01*
X108677463Y-93308328D01*
X108542425Y-93260243D01*
X108542420Y-93260242D01*
X108535790Y-93257881D01*
X108528802Y-93257048D01*
X108528799Y-93257047D01*
X108405698Y-93242368D01*
X108355680Y-93236404D01*
X108348677Y-93237140D01*
X108348676Y-93237140D01*
X108182288Y-93254628D01*
X108182286Y-93254629D01*
X108175288Y-93255364D01*
X108003579Y-93313818D01*
X107997575Y-93317512D01*
X107855095Y-93405166D01*
X107855092Y-93405168D01*
X107849088Y-93408862D01*
X107844053Y-93413793D01*
X107844050Y-93413795D01*
X107729630Y-93525844D01*
X107719493Y-93535771D01*
X107621235Y-93688238D01*
X107618826Y-93694858D01*
X107618824Y-93694861D01*
X107561606Y-93852066D01*
X107559197Y-93858685D01*
X107536463Y-94038640D01*
X100508500Y-94038640D01*
X100508500Y-90963640D01*
X114811463Y-90963640D01*
X114829163Y-91144160D01*
X114886418Y-91316273D01*
X114890065Y-91322295D01*
X114890066Y-91322297D01*
X114964599Y-91445366D01*
X114980380Y-91471424D01*
X115106382Y-91601902D01*
X115112278Y-91605760D01*
X115241623Y-91690401D01*
X115258159Y-91701222D01*
X115264763Y-91703678D01*
X115264765Y-91703679D01*
X115421558Y-91761990D01*
X115421560Y-91761990D01*
X115428168Y-91764448D01*
X115511995Y-91775633D01*
X115600980Y-91787507D01*
X115600984Y-91787507D01*
X115607961Y-91788438D01*
X115614972Y-91787800D01*
X115614976Y-91787800D01*
X115757459Y-91774832D01*
X115788600Y-91771998D01*
X115795302Y-91769820D01*
X115795304Y-91769820D01*
X115891267Y-91738640D01*
X119286463Y-91738640D01*
X119304163Y-91919160D01*
X119361418Y-92091273D01*
X119365065Y-92097295D01*
X119365066Y-92097297D01*
X119449817Y-92237238D01*
X119455380Y-92246424D01*
X119460269Y-92251487D01*
X119460270Y-92251488D01*
X119466204Y-92257633D01*
X119581382Y-92376902D01*
X119641005Y-92415918D01*
X119725413Y-92471153D01*
X119733159Y-92476222D01*
X119739763Y-92478678D01*
X119739765Y-92478679D01*
X119896558Y-92536990D01*
X119896560Y-92536990D01*
X119903168Y-92539448D01*
X119986732Y-92550598D01*
X120075980Y-92562507D01*
X120075984Y-92562507D01*
X120082961Y-92563438D01*
X120089972Y-92562800D01*
X120089976Y-92562800D01*
X120232459Y-92549832D01*
X120263600Y-92546998D01*
X120270302Y-92544820D01*
X120270304Y-92544820D01*
X120429409Y-92493124D01*
X120429412Y-92493123D01*
X120436108Y-92490947D01*
X120561970Y-92415918D01*
X120585860Y-92401677D01*
X120585862Y-92401676D01*
X120591912Y-92398069D01*
X120723266Y-92272982D01*
X120823643Y-92121902D01*
X120871090Y-91996998D01*
X120885555Y-91958920D01*
X120885556Y-91958918D01*
X120888055Y-91952338D01*
X120891380Y-91928679D01*
X120912748Y-91776639D01*
X120912748Y-91776636D01*
X120913299Y-91772717D01*
X120913616Y-91750000D01*
X120893397Y-91569745D01*
X120891080Y-91563091D01*
X120836064Y-91405106D01*
X120836062Y-91405103D01*
X120833745Y-91398448D01*
X120737626Y-91244624D01*
X120728835Y-91235771D01*
X120682032Y-91188640D01*
X131186463Y-91188640D01*
X131204163Y-91369160D01*
X131261418Y-91541273D01*
X131265065Y-91547295D01*
X131265066Y-91547297D01*
X131295067Y-91596834D01*
X131355380Y-91696424D01*
X131360269Y-91701487D01*
X131360270Y-91701488D01*
X131381027Y-91722982D01*
X131481382Y-91826902D01*
X131633159Y-91926222D01*
X131639763Y-91928678D01*
X131639765Y-91928679D01*
X131796558Y-91986990D01*
X131796560Y-91986990D01*
X131803168Y-91989448D01*
X131886995Y-92000633D01*
X131975980Y-92012507D01*
X131975984Y-92012507D01*
X131982961Y-92013438D01*
X131989972Y-92012800D01*
X131989976Y-92012800D01*
X132132459Y-91999832D01*
X132163600Y-91996998D01*
X132170302Y-91994820D01*
X132170304Y-91994820D01*
X132329409Y-91943124D01*
X132329412Y-91943123D01*
X132336108Y-91940947D01*
X132491912Y-91848069D01*
X132623266Y-91722982D01*
X132723643Y-91571902D01*
X132781665Y-91419160D01*
X132785555Y-91408920D01*
X132785556Y-91408918D01*
X132788055Y-91402338D01*
X132790037Y-91388238D01*
X132811061Y-91238640D01*
X134636463Y-91238640D01*
X134654163Y-91419160D01*
X134711418Y-91591273D01*
X134715065Y-91597295D01*
X134715066Y-91597297D01*
X134794126Y-91727841D01*
X134805380Y-91746424D01*
X134810269Y-91751487D01*
X134810270Y-91751488D01*
X134845953Y-91788438D01*
X134931382Y-91876902D01*
X135083159Y-91976222D01*
X135089763Y-91978678D01*
X135089765Y-91978679D01*
X135246558Y-92036990D01*
X135246560Y-92036990D01*
X135253168Y-92039448D01*
X135336995Y-92050633D01*
X135425980Y-92062507D01*
X135425984Y-92062507D01*
X135432961Y-92063438D01*
X135439972Y-92062800D01*
X135439976Y-92062800D01*
X135582459Y-92049832D01*
X135613600Y-92046998D01*
X135620302Y-92044820D01*
X135620304Y-92044820D01*
X135779409Y-91993124D01*
X135779412Y-91993123D01*
X135786108Y-91990947D01*
X135906532Y-91919160D01*
X135935860Y-91901677D01*
X135935862Y-91901676D01*
X135941912Y-91898069D01*
X136073266Y-91772982D01*
X136173643Y-91621902D01*
X136220716Y-91497982D01*
X136235555Y-91458920D01*
X136235556Y-91458918D01*
X136238055Y-91452338D01*
X136239035Y-91445366D01*
X136262748Y-91276639D01*
X136262748Y-91276636D01*
X136263299Y-91272717D01*
X136263616Y-91250000D01*
X136243397Y-91069745D01*
X136241080Y-91063091D01*
X136186064Y-90905106D01*
X136186062Y-90905103D01*
X136183745Y-90898448D01*
X136152502Y-90848448D01*
X136091359Y-90750598D01*
X136087626Y-90744624D01*
X136073941Y-90730843D01*
X135964778Y-90620915D01*
X135964774Y-90620912D01*
X135959815Y-90615918D01*
X135948697Y-90608862D01*
X135864085Y-90555166D01*
X135806666Y-90518727D01*
X135758784Y-90501677D01*
X135642425Y-90460243D01*
X135642420Y-90460242D01*
X135635790Y-90457881D01*
X135628802Y-90457048D01*
X135628799Y-90457047D01*
X135505698Y-90442368D01*
X135455680Y-90436404D01*
X135448677Y-90437140D01*
X135448676Y-90437140D01*
X135282288Y-90454628D01*
X135282286Y-90454629D01*
X135275288Y-90455364D01*
X135103579Y-90513818D01*
X135097575Y-90517512D01*
X134955095Y-90605166D01*
X134955092Y-90605168D01*
X134949088Y-90608862D01*
X134944053Y-90613793D01*
X134944050Y-90613795D01*
X134855410Y-90700598D01*
X134819493Y-90735771D01*
X134721235Y-90888238D01*
X134718826Y-90894858D01*
X134718824Y-90894861D01*
X134661606Y-91052066D01*
X134659197Y-91058685D01*
X134636463Y-91238640D01*
X132811061Y-91238640D01*
X132812748Y-91226639D01*
X132812748Y-91226636D01*
X132813299Y-91222717D01*
X132813616Y-91200000D01*
X132793397Y-91019745D01*
X132790542Y-91011547D01*
X132736064Y-90855106D01*
X132736062Y-90855103D01*
X132733745Y-90848448D01*
X132637626Y-90694624D01*
X132606657Y-90663438D01*
X132514778Y-90570915D01*
X132514774Y-90570912D01*
X132509815Y-90565918D01*
X132498697Y-90558862D01*
X132408587Y-90501677D01*
X132356666Y-90468727D01*
X132317071Y-90454628D01*
X132192425Y-90410243D01*
X132192420Y-90410242D01*
X132185790Y-90407881D01*
X132178802Y-90407048D01*
X132178799Y-90407047D01*
X132055698Y-90392368D01*
X132005680Y-90386404D01*
X131998677Y-90387140D01*
X131998676Y-90387140D01*
X131832288Y-90404628D01*
X131832286Y-90404629D01*
X131825288Y-90405364D01*
X131653579Y-90463818D01*
X131605802Y-90493211D01*
X131505095Y-90555166D01*
X131505092Y-90555168D01*
X131499088Y-90558862D01*
X131494053Y-90563793D01*
X131494050Y-90563795D01*
X131374525Y-90680843D01*
X131369493Y-90685771D01*
X131271235Y-90838238D01*
X131268826Y-90844858D01*
X131268824Y-90844861D01*
X131211606Y-91002066D01*
X131209197Y-91008685D01*
X131186463Y-91188640D01*
X120682032Y-91188640D01*
X120614778Y-91120915D01*
X120614774Y-91120912D01*
X120609815Y-91115918D01*
X120598697Y-91108862D01*
X120530644Y-91065675D01*
X120456666Y-91018727D01*
X120427463Y-91008328D01*
X120292425Y-90960243D01*
X120292420Y-90960242D01*
X120285790Y-90957881D01*
X120278802Y-90957048D01*
X120278799Y-90957047D01*
X120155698Y-90942368D01*
X120105680Y-90936404D01*
X120098677Y-90937140D01*
X120098676Y-90937140D01*
X119932288Y-90954628D01*
X119932286Y-90954629D01*
X119925288Y-90955364D01*
X119753579Y-91013818D01*
X119691408Y-91052066D01*
X119605095Y-91105166D01*
X119605092Y-91105168D01*
X119599088Y-91108862D01*
X119594053Y-91113793D01*
X119594050Y-91113795D01*
X119510460Y-91195653D01*
X119469493Y-91235771D01*
X119371235Y-91388238D01*
X119368826Y-91394858D01*
X119368824Y-91394861D01*
X119317967Y-91534590D01*
X119309197Y-91558685D01*
X119286463Y-91738640D01*
X115891267Y-91738640D01*
X115954409Y-91718124D01*
X115954412Y-91718123D01*
X115961108Y-91715947D01*
X116116912Y-91623069D01*
X116248266Y-91497982D01*
X116348643Y-91346902D01*
X116397321Y-91218757D01*
X116410555Y-91183920D01*
X116410556Y-91183918D01*
X116413055Y-91177338D01*
X116414035Y-91170366D01*
X116437748Y-91001639D01*
X116437748Y-91001636D01*
X116438299Y-90997717D01*
X116438616Y-90975000D01*
X116418397Y-90794745D01*
X116416080Y-90788091D01*
X116361064Y-90630106D01*
X116361062Y-90630103D01*
X116358745Y-90623448D01*
X116336182Y-90587340D01*
X116266359Y-90475598D01*
X116262626Y-90469624D01*
X116257664Y-90464627D01*
X116139778Y-90345915D01*
X116139774Y-90345912D01*
X116134815Y-90340918D01*
X116123697Y-90333862D01*
X116075538Y-90303300D01*
X115981666Y-90243727D01*
X115901873Y-90215314D01*
X115817425Y-90185243D01*
X115817420Y-90185242D01*
X115810790Y-90182881D01*
X115803802Y-90182048D01*
X115803799Y-90182047D01*
X115680698Y-90167368D01*
X115630680Y-90161404D01*
X115623677Y-90162140D01*
X115623676Y-90162140D01*
X115457288Y-90179628D01*
X115457286Y-90179629D01*
X115450288Y-90180364D01*
X115278579Y-90238818D01*
X115272575Y-90242512D01*
X115130095Y-90330166D01*
X115130092Y-90330168D01*
X115124088Y-90333862D01*
X115119053Y-90338793D01*
X115119050Y-90338795D01*
X115018624Y-90437140D01*
X114994493Y-90460771D01*
X114896235Y-90613238D01*
X114893826Y-90619858D01*
X114893824Y-90619861D01*
X114864438Y-90700598D01*
X114834197Y-90783685D01*
X114811463Y-90963640D01*
X100508500Y-90963640D01*
X100508500Y-89838640D01*
X126436463Y-89838640D01*
X126454163Y-90019160D01*
X126511418Y-90191273D01*
X126515065Y-90197295D01*
X126515066Y-90197297D01*
X126600760Y-90338795D01*
X126605380Y-90346424D01*
X126610269Y-90351487D01*
X126610270Y-90351488D01*
X126644699Y-90387140D01*
X126731382Y-90476902D01*
X126737278Y-90480760D01*
X126864169Y-90563795D01*
X126883159Y-90576222D01*
X126889763Y-90578678D01*
X126889765Y-90578679D01*
X127046558Y-90636990D01*
X127046560Y-90636990D01*
X127053168Y-90639448D01*
X127136995Y-90650633D01*
X127225980Y-90662507D01*
X127225984Y-90662507D01*
X127232961Y-90663438D01*
X127239972Y-90662800D01*
X127239976Y-90662800D01*
X127382459Y-90649832D01*
X127413600Y-90646998D01*
X127420302Y-90644820D01*
X127420304Y-90644820D01*
X127579409Y-90593124D01*
X127579412Y-90593123D01*
X127586108Y-90590947D01*
X127709296Y-90517512D01*
X127735860Y-90501677D01*
X127735862Y-90501676D01*
X127741912Y-90498069D01*
X127873266Y-90372982D01*
X127973643Y-90221902D01*
X128038055Y-90052338D01*
X128039035Y-90045366D01*
X128062748Y-89876639D01*
X128062748Y-89876636D01*
X128063299Y-89872717D01*
X128063616Y-89850000D01*
X128062342Y-89838640D01*
X129386463Y-89838640D01*
X129404163Y-90019160D01*
X129461418Y-90191273D01*
X129465065Y-90197295D01*
X129465066Y-90197297D01*
X129550760Y-90338795D01*
X129555380Y-90346424D01*
X129560269Y-90351487D01*
X129560270Y-90351488D01*
X129594699Y-90387140D01*
X129681382Y-90476902D01*
X129687278Y-90480760D01*
X129814169Y-90563795D01*
X129833159Y-90576222D01*
X129839763Y-90578678D01*
X129839765Y-90578679D01*
X129996558Y-90636990D01*
X129996560Y-90636990D01*
X130003168Y-90639448D01*
X130086995Y-90650633D01*
X130175980Y-90662507D01*
X130175984Y-90662507D01*
X130182961Y-90663438D01*
X130189972Y-90662800D01*
X130189976Y-90662800D01*
X130332459Y-90649832D01*
X130363600Y-90646998D01*
X130370302Y-90644820D01*
X130370304Y-90644820D01*
X130529409Y-90593124D01*
X130529412Y-90593123D01*
X130536108Y-90590947D01*
X130659296Y-90517512D01*
X130685860Y-90501677D01*
X130685862Y-90501676D01*
X130691912Y-90498069D01*
X130823266Y-90372982D01*
X130923643Y-90221902D01*
X130988055Y-90052338D01*
X130989035Y-90045366D01*
X131012748Y-89876639D01*
X131012748Y-89876636D01*
X131013299Y-89872717D01*
X131013616Y-89850000D01*
X130993397Y-89669745D01*
X130991080Y-89663091D01*
X130936064Y-89505106D01*
X130936062Y-89505103D01*
X130933745Y-89498448D01*
X130837626Y-89344624D01*
X130823941Y-89330843D01*
X130714778Y-89220915D01*
X130714774Y-89220912D01*
X130709815Y-89215918D01*
X130698697Y-89208862D01*
X130650538Y-89178300D01*
X130556666Y-89118727D01*
X130527463Y-89108328D01*
X130392425Y-89060243D01*
X130392420Y-89060242D01*
X130385790Y-89057881D01*
X130378802Y-89057048D01*
X130378799Y-89057047D01*
X130255698Y-89042368D01*
X130205680Y-89036404D01*
X130198677Y-89037140D01*
X130198676Y-89037140D01*
X130032288Y-89054628D01*
X130032286Y-89054629D01*
X130025288Y-89055364D01*
X129853579Y-89113818D01*
X129847575Y-89117512D01*
X129705095Y-89205166D01*
X129705092Y-89205168D01*
X129699088Y-89208862D01*
X129694053Y-89213793D01*
X129694050Y-89213795D01*
X129574525Y-89330843D01*
X129569493Y-89335771D01*
X129471235Y-89488238D01*
X129468826Y-89494858D01*
X129468824Y-89494861D01*
X129411606Y-89652066D01*
X129409197Y-89658685D01*
X129386463Y-89838640D01*
X128062342Y-89838640D01*
X128043397Y-89669745D01*
X128041080Y-89663091D01*
X127986064Y-89505106D01*
X127986062Y-89505103D01*
X127983745Y-89498448D01*
X127887626Y-89344624D01*
X127873941Y-89330843D01*
X127764778Y-89220915D01*
X127764774Y-89220912D01*
X127759815Y-89215918D01*
X127748697Y-89208862D01*
X127700538Y-89178300D01*
X127606666Y-89118727D01*
X127577463Y-89108328D01*
X127442425Y-89060243D01*
X127442420Y-89060242D01*
X127435790Y-89057881D01*
X127428802Y-89057048D01*
X127428799Y-89057047D01*
X127305698Y-89042368D01*
X127255680Y-89036404D01*
X127248677Y-89037140D01*
X127248676Y-89037140D01*
X127082288Y-89054628D01*
X127082286Y-89054629D01*
X127075288Y-89055364D01*
X126903579Y-89113818D01*
X126897575Y-89117512D01*
X126755095Y-89205166D01*
X126755092Y-89205168D01*
X126749088Y-89208862D01*
X126744053Y-89213793D01*
X126744050Y-89213795D01*
X126624525Y-89330843D01*
X126619493Y-89335771D01*
X126521235Y-89488238D01*
X126518826Y-89494858D01*
X126518824Y-89494861D01*
X126461606Y-89652066D01*
X126459197Y-89658685D01*
X126436463Y-89838640D01*
X100508500Y-89838640D01*
X100508500Y-87638640D01*
X115111463Y-87638640D01*
X115129163Y-87819160D01*
X115186418Y-87991273D01*
X115190065Y-87997295D01*
X115190066Y-87997297D01*
X115200978Y-88015314D01*
X115280380Y-88146424D01*
X115406382Y-88276902D01*
X115558159Y-88376222D01*
X115564763Y-88378678D01*
X115564765Y-88378679D01*
X115721558Y-88436990D01*
X115721560Y-88436990D01*
X115728168Y-88439448D01*
X115811995Y-88450633D01*
X115900980Y-88462507D01*
X115900984Y-88462507D01*
X115907961Y-88463438D01*
X115914972Y-88462800D01*
X115914976Y-88462800D01*
X116057459Y-88449832D01*
X116088600Y-88446998D01*
X116095302Y-88444820D01*
X116095304Y-88444820D01*
X116254409Y-88393124D01*
X116254412Y-88393123D01*
X116261108Y-88390947D01*
X116416912Y-88298069D01*
X116548266Y-88172982D01*
X116648643Y-88021902D01*
X116713055Y-87852338D01*
X116714035Y-87845366D01*
X116737748Y-87676639D01*
X116737748Y-87676636D01*
X116738299Y-87672717D01*
X116738616Y-87650000D01*
X116718397Y-87469745D01*
X116716080Y-87463091D01*
X116661064Y-87305106D01*
X116661062Y-87305103D01*
X116658745Y-87298448D01*
X116562626Y-87144624D01*
X116548941Y-87130843D01*
X116439778Y-87020915D01*
X116439774Y-87020912D01*
X116434815Y-87015918D01*
X116423697Y-87008862D01*
X116375538Y-86978300D01*
X116281666Y-86918727D01*
X116252463Y-86908328D01*
X116117425Y-86860243D01*
X116117420Y-86860242D01*
X116110790Y-86857881D01*
X116103802Y-86857048D01*
X116103799Y-86857047D01*
X115980698Y-86842368D01*
X115930680Y-86836404D01*
X115923677Y-86837140D01*
X115923676Y-86837140D01*
X115757288Y-86854628D01*
X115757286Y-86854629D01*
X115750288Y-86855364D01*
X115578579Y-86913818D01*
X115572575Y-86917512D01*
X115430095Y-87005166D01*
X115430092Y-87005168D01*
X115424088Y-87008862D01*
X115419053Y-87013793D01*
X115419050Y-87013795D01*
X115299525Y-87130843D01*
X115294493Y-87135771D01*
X115196235Y-87288238D01*
X115193826Y-87294858D01*
X115193824Y-87294861D01*
X115136606Y-87452066D01*
X115134197Y-87458685D01*
X115111463Y-87638640D01*
X100508500Y-87638640D01*
X100508500Y-85569306D01*
X100528502Y-85501185D01*
X100582158Y-85454692D01*
X100652432Y-85444588D01*
X100717012Y-85474082D01*
X100743122Y-85505453D01*
X100747802Y-85513414D01*
X100750103Y-85516429D01*
X100943631Y-85770012D01*
X100943636Y-85770017D01*
X100945931Y-85773025D01*
X101173814Y-86006953D01*
X101246635Y-86065607D01*
X101425196Y-86209431D01*
X101425201Y-86209435D01*
X101428149Y-86211809D01*
X101705253Y-86384627D01*
X102001112Y-86522903D01*
X102004721Y-86524086D01*
X102208679Y-86590947D01*
X102311440Y-86624634D01*
X102631742Y-86688346D01*
X102635514Y-86688633D01*
X102635522Y-86688634D01*
X102953602Y-86712829D01*
X102953607Y-86712829D01*
X102957379Y-86713116D01*
X103283633Y-86698586D01*
X103343425Y-86688634D01*
X103602037Y-86645590D01*
X103602042Y-86645589D01*
X103605778Y-86644967D01*
X103919149Y-86553034D01*
X103922616Y-86551544D01*
X103922620Y-86551543D01*
X104215721Y-86425616D01*
X104215723Y-86425615D01*
X104219205Y-86424119D01*
X104501601Y-86260091D01*
X104762245Y-86063324D01*
X104894633Y-85935702D01*
X104994632Y-85839303D01*
X104994635Y-85839300D01*
X104997363Y-85836670D01*
X105057998Y-85762191D01*
X120154553Y-85762191D01*
X120172253Y-85942711D01*
X120229508Y-86114824D01*
X120233155Y-86120846D01*
X120233156Y-86120848D01*
X120316101Y-86257807D01*
X120323470Y-86269975D01*
X120449472Y-86400453D01*
X120601249Y-86499773D01*
X120607853Y-86502229D01*
X120607855Y-86502230D01*
X120764648Y-86560541D01*
X120764650Y-86560541D01*
X120771258Y-86562999D01*
X120855085Y-86574184D01*
X120944070Y-86586058D01*
X120944074Y-86586058D01*
X120951051Y-86586989D01*
X120958062Y-86586351D01*
X120958066Y-86586351D01*
X121111747Y-86572364D01*
X121131690Y-86570549D01*
X121138392Y-86568371D01*
X121138394Y-86568371D01*
X121297499Y-86516675D01*
X121297502Y-86516674D01*
X121304198Y-86514498D01*
X121310249Y-86510891D01*
X121310251Y-86510890D01*
X121333190Y-86497216D01*
X121401945Y-86479516D01*
X121466699Y-86500013D01*
X121488835Y-86514498D01*
X121574490Y-86570549D01*
X121583159Y-86576222D01*
X121589763Y-86578678D01*
X121589765Y-86578679D01*
X121746558Y-86636990D01*
X121746560Y-86636990D01*
X121753168Y-86639448D01*
X121836995Y-86650633D01*
X121925980Y-86662507D01*
X121925984Y-86662507D01*
X121932961Y-86663438D01*
X121939972Y-86662800D01*
X121939976Y-86662800D01*
X122082459Y-86649832D01*
X122113600Y-86646998D01*
X122120302Y-86644820D01*
X122120304Y-86644820D01*
X122279409Y-86593124D01*
X122279412Y-86593123D01*
X122286108Y-86590947D01*
X122400253Y-86522903D01*
X122435860Y-86501677D01*
X122435862Y-86501676D01*
X122441912Y-86498069D01*
X122573266Y-86372982D01*
X122673643Y-86221902D01*
X122738055Y-86052338D01*
X122744099Y-86009335D01*
X122762748Y-85876639D01*
X122762748Y-85876636D01*
X122763299Y-85872717D01*
X122763616Y-85850000D01*
X122743397Y-85669745D01*
X122741080Y-85663091D01*
X122686064Y-85505106D01*
X122686062Y-85505103D01*
X122683745Y-85498448D01*
X122664064Y-85466951D01*
X122591359Y-85350598D01*
X122587626Y-85344624D01*
X122553668Y-85310428D01*
X122464778Y-85220915D01*
X122464774Y-85220912D01*
X122459815Y-85215918D01*
X122306666Y-85118727D01*
X122277463Y-85108328D01*
X122142425Y-85060243D01*
X122142420Y-85060242D01*
X122135790Y-85057881D01*
X122128802Y-85057048D01*
X122128799Y-85057047D01*
X121985107Y-85039913D01*
X121955680Y-85036404D01*
X121948677Y-85037140D01*
X121948676Y-85037140D01*
X121782288Y-85054628D01*
X121782286Y-85054629D01*
X121775288Y-85055364D01*
X121685094Y-85086068D01*
X121610249Y-85111547D01*
X121610246Y-85111548D01*
X121603579Y-85113818D01*
X121597580Y-85117509D01*
X121597575Y-85117511D01*
X121586303Y-85124446D01*
X121517803Y-85143106D01*
X121452765Y-85123515D01*
X121324756Y-85042278D01*
X121295553Y-85031879D01*
X121160515Y-84983794D01*
X121160510Y-84983793D01*
X121153880Y-84981432D01*
X121146892Y-84980599D01*
X121146889Y-84980598D01*
X121023788Y-84965919D01*
X120973770Y-84959955D01*
X120966767Y-84960691D01*
X120966766Y-84960691D01*
X120800378Y-84978179D01*
X120800376Y-84978180D01*
X120793378Y-84978915D01*
X120621669Y-85037369D01*
X120584488Y-85060243D01*
X120473185Y-85128717D01*
X120473182Y-85128719D01*
X120467178Y-85132413D01*
X120462143Y-85137344D01*
X120462140Y-85137346D01*
X120362260Y-85235156D01*
X120337583Y-85259322D01*
X120239325Y-85411789D01*
X120236916Y-85418409D01*
X120236914Y-85418412D01*
X120206787Y-85501185D01*
X120177287Y-85582236D01*
X120154553Y-85762191D01*
X105057998Y-85762191D01*
X105133261Y-85669745D01*
X105201155Y-85586351D01*
X105201158Y-85586347D01*
X105203549Y-85583410D01*
X105257156Y-85498448D01*
X105375788Y-85310428D01*
X105375790Y-85310425D01*
X105377815Y-85307215D01*
X105397700Y-85265244D01*
X105503909Y-85041063D01*
X105517638Y-85012084D01*
X105518840Y-85008482D01*
X105619790Y-84705897D01*
X105619792Y-84705891D01*
X105620992Y-84702293D01*
X105672933Y-84448134D01*
X114291500Y-84448134D01*
X114298255Y-84510316D01*
X114349385Y-84646705D01*
X114436739Y-84763261D01*
X114553295Y-84850615D01*
X114689684Y-84901745D01*
X114751866Y-84908500D01*
X116548134Y-84908500D01*
X116610316Y-84901745D01*
X116746705Y-84850615D01*
X116863261Y-84763261D01*
X116950615Y-84646705D01*
X117001745Y-84510316D01*
X117008500Y-84448134D01*
X117008500Y-82651866D01*
X117001745Y-82589684D01*
X116950615Y-82453295D01*
X116863261Y-82336739D01*
X116746705Y-82249385D01*
X116610316Y-82198255D01*
X116548134Y-82191500D01*
X114751866Y-82191500D01*
X114689684Y-82198255D01*
X114553295Y-82249385D01*
X114436739Y-82336739D01*
X114349385Y-82453295D01*
X114298255Y-82589684D01*
X114291500Y-82651866D01*
X114291500Y-84448134D01*
X105672933Y-84448134D01*
X105686381Y-84382329D01*
X105692956Y-84301498D01*
X105712674Y-84059061D01*
X105712856Y-84056826D01*
X105713451Y-84000000D01*
X105711510Y-83967796D01*
X105694026Y-83677793D01*
X105694026Y-83677789D01*
X105693798Y-83674015D01*
X105688650Y-83645824D01*
X105635805Y-83356473D01*
X105635804Y-83356469D01*
X105635125Y-83352751D01*
X105627722Y-83328907D01*
X105539404Y-83044477D01*
X105538282Y-83040863D01*
X105404670Y-82742869D01*
X105236226Y-82463084D01*
X105233899Y-82460100D01*
X105233894Y-82460093D01*
X105037726Y-82208558D01*
X105037724Y-82208556D01*
X105035390Y-82205563D01*
X104805070Y-81974034D01*
X104548603Y-81771852D01*
X104522184Y-81755757D01*
X104499774Y-81742105D01*
X104452005Y-81689582D01*
X104440216Y-81619571D01*
X104468148Y-81554300D01*
X104526934Y-81514492D01*
X104565328Y-81508500D01*
X134432195Y-81508500D01*
X134500316Y-81528502D01*
G37*
%TD.AperFunction*%
%TD*%
M02*
