%TF.GenerationSoftware,KiCad,Pcbnew,(6.0.4-0)*%
%TF.CreationDate,2022-07-19T08:11:49-06:00*%
%TF.ProjectId,two-wire-single,74776f2d-7769-4726-952d-73696e676c65,rev?*%
%TF.SameCoordinates,Original*%
%TF.FileFunction,Copper,L1,Top*%
%TF.FilePolarity,Positive*%
%FSLAX46Y46*%
G04 Gerber Fmt 4.6, Leading zero omitted, Abs format (unit mm)*
G04 Created by KiCad (PCBNEW (6.0.4-0)) date 2022-07-19 08:11:49*
%MOMM*%
%LPD*%
G01*
G04 APERTURE LIST*
G04 Aperture macros list*
%AMRoundRect*
0 Rectangle with rounded corners*
0 $1 Rounding radius*
0 $2 $3 $4 $5 $6 $7 $8 $9 X,Y pos of 4 corners*
0 Add a 4 corners polygon primitive as box body*
4,1,4,$2,$3,$4,$5,$6,$7,$8,$9,$2,$3,0*
0 Add four circle primitives for the rounded corners*
1,1,$1+$1,$2,$3*
1,1,$1+$1,$4,$5*
1,1,$1+$1,$6,$7*
1,1,$1+$1,$8,$9*
0 Add four rect primitives between the rounded corners*
20,1,$1+$1,$2,$3,$4,$5,0*
20,1,$1+$1,$4,$5,$6,$7,0*
20,1,$1+$1,$6,$7,$8,$9,0*
20,1,$1+$1,$8,$9,$2,$3,0*%
%AMFreePoly0*
4,1,22,0.500000,-0.750000,0.000000,-0.750000,0.000000,-0.745033,-0.079941,-0.743568,-0.215256,-0.701293,-0.333266,-0.622738,-0.424486,-0.514219,-0.481581,-0.384460,-0.499164,-0.250000,-0.500000,-0.250000,-0.500000,0.250000,-0.499164,0.250000,-0.499963,0.256109,-0.478152,0.396186,-0.417904,0.524511,-0.324060,0.630769,-0.204165,0.706417,-0.067858,0.745374,0.000000,0.744959,0.000000,0.750000,
0.500000,0.750000,0.500000,-0.750000,0.500000,-0.750000,$1*%
%AMFreePoly1*
4,1,20,0.000000,0.744959,0.073905,0.744508,0.209726,0.703889,0.328688,0.626782,0.421226,0.519385,0.479903,0.390333,0.500000,0.250000,0.500000,-0.250000,0.499851,-0.262216,0.476331,-0.402017,0.414519,-0.529596,0.319384,-0.634700,0.198574,-0.708877,0.061801,-0.746166,0.000000,-0.745033,0.000000,-0.750000,-0.500000,-0.750000,-0.500000,0.750000,0.000000,0.750000,0.000000,0.744959,
0.000000,0.744959,$1*%
G04 Aperture macros list end*
%TA.AperFunction,ComponentPad*%
%ADD10C,0.700000*%
%TD*%
%TA.AperFunction,ComponentPad*%
%ADD11C,4.400000*%
%TD*%
%TA.AperFunction,SMDPad,CuDef*%
%ADD12RoundRect,0.147500X-0.147500X-0.172500X0.147500X-0.172500X0.147500X0.172500X-0.147500X0.172500X0*%
%TD*%
%TA.AperFunction,SMDPad,CuDef*%
%ADD13RoundRect,0.147500X0.147500X0.172500X-0.147500X0.172500X-0.147500X-0.172500X0.147500X-0.172500X0*%
%TD*%
%TA.AperFunction,SMDPad,CuDef*%
%ADD14RoundRect,0.250000X0.325000X0.450000X-0.325000X0.450000X-0.325000X-0.450000X0.325000X-0.450000X0*%
%TD*%
%TA.AperFunction,SMDPad,CuDef*%
%ADD15RoundRect,0.147500X-0.172500X0.147500X-0.172500X-0.147500X0.172500X-0.147500X0.172500X0.147500X0*%
%TD*%
%TA.AperFunction,SMDPad,CuDef*%
%ADD16RoundRect,0.147500X0.172500X-0.147500X0.172500X0.147500X-0.172500X0.147500X-0.172500X-0.147500X0*%
%TD*%
%TA.AperFunction,SMDPad,CuDef*%
%ADD17R,0.450000X1.500000*%
%TD*%
%TA.AperFunction,SMDPad,CuDef*%
%ADD18RoundRect,0.150000X-0.625000X0.150000X-0.625000X-0.150000X0.625000X-0.150000X0.625000X0.150000X0*%
%TD*%
%TA.AperFunction,SMDPad,CuDef*%
%ADD19RoundRect,0.250000X-0.650000X0.350000X-0.650000X-0.350000X0.650000X-0.350000X0.650000X0.350000X0*%
%TD*%
%TA.AperFunction,SMDPad,CuDef*%
%ADD20FreePoly0,270.000000*%
%TD*%
%TA.AperFunction,SMDPad,CuDef*%
%ADD21FreePoly1,270.000000*%
%TD*%
%TA.AperFunction,SMDPad,CuDef*%
%ADD22RoundRect,0.237500X0.237500X-0.287500X0.237500X0.287500X-0.237500X0.287500X-0.237500X-0.287500X0*%
%TD*%
%TA.AperFunction,SMDPad,CuDef*%
%ADD23RoundRect,0.150000X0.625000X-0.150000X0.625000X0.150000X-0.625000X0.150000X-0.625000X-0.150000X0*%
%TD*%
%TA.AperFunction,SMDPad,CuDef*%
%ADD24RoundRect,0.250000X0.650000X-0.350000X0.650000X0.350000X-0.650000X0.350000X-0.650000X-0.350000X0*%
%TD*%
%TA.AperFunction,ComponentPad*%
%ADD25R,1.700000X1.700000*%
%TD*%
%TA.AperFunction,ViaPad*%
%ADD26C,0.600000*%
%TD*%
%TA.AperFunction,Conductor*%
%ADD27C,0.250000*%
%TD*%
G04 APERTURE END LIST*
D10*
%TO.P,MH1,1,Pin_1*%
%TO.N,GNDPWR*%
X101350000Y-84000000D03*
X103000000Y-82350000D03*
X104166726Y-85166726D03*
X104166726Y-82833274D03*
D11*
X103000000Y-84000000D03*
D10*
X104650000Y-84000000D03*
X101833274Y-82833274D03*
X101833274Y-85166726D03*
X103000000Y-85650000D03*
%TD*%
D11*
%TO.P,MH2,1,Pin_1*%
%TO.N,GNDPWR*%
X136000000Y-84000000D03*
D10*
X137166726Y-82833274D03*
X134350000Y-84000000D03*
X137650000Y-84000000D03*
X137166726Y-85166726D03*
X136000000Y-82350000D03*
X136000000Y-85650000D03*
X134833274Y-85166726D03*
X134833274Y-82833274D03*
%TD*%
%TO.P,MH3,1,Pin_1*%
%TO.N,GNDPWR*%
X101833274Y-98166726D03*
D11*
X103000000Y-97000000D03*
D10*
X104166726Y-98166726D03*
X101833274Y-95833274D03*
X104166726Y-95833274D03*
X103000000Y-95350000D03*
X104650000Y-97000000D03*
X101350000Y-97000000D03*
X103000000Y-98650000D03*
%TD*%
D11*
%TO.P,MH4,1,Pin_1*%
%TO.N,GNDPWR*%
X136000000Y-97000000D03*
D10*
X134833274Y-95833274D03*
X134350000Y-97000000D03*
X137650000Y-97000000D03*
X136000000Y-95350000D03*
X137166726Y-98166726D03*
X137166726Y-95833274D03*
X134833274Y-98166726D03*
X136000000Y-98650000D03*
%TD*%
D12*
%TO.P,R13,1*%
%TO.N,/Channel1/AIN1*%
X110683000Y-92300000D03*
%TO.P,R13,2*%
%TO.N,GND*%
X111653000Y-92300000D03*
%TD*%
D13*
%TO.P,R14,1*%
%TO.N,Net-(C10-Pad1)*%
X111650000Y-88950000D03*
%TO.P,R14,2*%
%TO.N,/Channel1/V+*%
X110680000Y-88950000D03*
%TD*%
%TO.P,R15,1*%
%TO.N,Net-(C10-Pad2)*%
X111635000Y-90050000D03*
%TO.P,R15,2*%
%TO.N,/Channel1/V-*%
X110665000Y-90050000D03*
%TD*%
D14*
%TO.P,L2,1*%
%TO.N,VD*%
X122475000Y-96750000D03*
%TO.P,L2,2*%
%TO.N,/Channel1/Vpower*%
X120425000Y-96750000D03*
%TD*%
D15*
%TO.P,C8,1*%
%TO.N,GND*%
X113050000Y-87965000D03*
%TO.P,C8,2*%
%TO.N,Net-(C10-Pad1)*%
X113050000Y-88935000D03*
%TD*%
%TO.P,C9,1*%
%TO.N,Net-(C10-Pad2)*%
X113050000Y-90050000D03*
%TO.P,C9,2*%
%TO.N,GND*%
X113050000Y-91020000D03*
%TD*%
%TO.P,C10,1*%
%TO.N,Net-(C10-Pad1)*%
X114450000Y-88990000D03*
%TO.P,C10,2*%
%TO.N,Net-(C10-Pad2)*%
X114450000Y-89960000D03*
%TD*%
D16*
%TO.P,C11,1*%
%TO.N,Net-(C11-Pad1)*%
X115350000Y-93460000D03*
%TO.P,C11,2*%
%TO.N,Net-(C11-Pad2)*%
X115350000Y-92490000D03*
%TD*%
D12*
%TO.P,C17,1*%
%TO.N,VD*%
X120165000Y-94950000D03*
%TO.P,C17,2*%
%TO.N,GND*%
X121135000Y-94950000D03*
%TD*%
D17*
%TO.P,IC2,1,A0*%
%TO.N,/Channel1/A0*%
X121425000Y-87200000D03*
%TO.P,IC2,2,A1*%
%TO.N,/Channel1/A1*%
X120775000Y-87200000D03*
%TO.P,IC2,3,~{RESET}*%
%TO.N,Net-(C27-Pad2)*%
X120125000Y-87200000D03*
%TO.P,IC2,4,DGND*%
%TO.N,GND*%
X119475000Y-87200000D03*
%TO.P,IC2,5,AVSS*%
X118825000Y-87200000D03*
%TO.P,IC2,6,AIN3*%
%TO.N,Net-(C10-Pad2)*%
X118175000Y-87200000D03*
%TO.P,IC2,7,AIN2*%
%TO.N,Net-(C10-Pad1)*%
X117525000Y-87200000D03*
%TO.P,IC2,8,REFN*%
%TO.N,Net-(C11-Pad2)*%
X116875000Y-87200000D03*
%TO.P,IC2,9,REFP*%
%TO.N,Net-(C11-Pad1)*%
X116875000Y-93100000D03*
%TO.P,IC2,10,AIN1*%
%TO.N,/Channel1/AIN1*%
X117525000Y-93100000D03*
%TO.P,IC2,11,AIN0*%
%TO.N,/Channel1/AIN0*%
X118175000Y-93100000D03*
%TO.P,IC2,12,AVDD*%
%TO.N,/Channel1/Vpower*%
X118825000Y-93100000D03*
%TO.P,IC2,13,DVDD*%
%TO.N,VD*%
X119475000Y-93100000D03*
%TO.P,IC2,14,~{DRDY}*%
%TO.N,/Channel1/~{DRDY}*%
X120125000Y-93100000D03*
%TO.P,IC2,15,SDA*%
%TO.N,/Channel1/sda*%
X120775000Y-93100000D03*
%TO.P,IC2,16,SCL*%
%TO.N,/Channel1/scl*%
X121425000Y-93100000D03*
%TD*%
D12*
%TO.P,C27,1*%
%TO.N,GND*%
X118765000Y-84550000D03*
%TO.P,C27,2*%
%TO.N,Net-(C27-Pad2)*%
X119735000Y-84550000D03*
%TD*%
D13*
%TO.P,R23,1*%
%TO.N,VD*%
X122035000Y-84550000D03*
%TO.P,R23,2*%
%TO.N,Net-(C27-Pad2)*%
X121065000Y-84550000D03*
%TD*%
D12*
%TO.P,C18,1*%
%TO.N,GND*%
X117780000Y-95750000D03*
%TO.P,C18,2*%
%TO.N,/Channel1/Vpower*%
X118750000Y-95750000D03*
%TD*%
D18*
%TO.P,J1,1,Pin_1*%
%TO.N,/Channel1/AIN0*%
X105250000Y-89050000D03*
%TO.P,J1,2,Pin_2*%
%TO.N,/Channel1/V+*%
X105250000Y-90050000D03*
%TO.P,J1,3,Pin_3*%
%TO.N,/Channel1/V-*%
X105250000Y-91050000D03*
%TO.P,J1,4,Pin_4*%
%TO.N,/Channel1/AIN1*%
X105250000Y-92050000D03*
D19*
%TO.P,J1,MP*%
%TO.N,N/C*%
X101375000Y-93350000D03*
X101375000Y-87750000D03*
%TD*%
D20*
%TO.P,JP1,1,1*%
%TO.N,/Channel1/AIN0*%
X107950000Y-88100000D03*
D21*
%TO.P,JP1,2,2*%
%TO.N,/Channel1/V+*%
X107950000Y-89400000D03*
%TD*%
D20*
%TO.P,JP2,1,1*%
%TO.N,/Channel1/V-*%
X107950000Y-91600000D03*
D21*
%TO.P,JP2,2,2*%
%TO.N,/Channel1/AIN1*%
X107950000Y-92900000D03*
%TD*%
D22*
%TO.P,R1,1*%
%TO.N,VD*%
X132050000Y-97375000D03*
%TO.P,R1,2*%
%TO.N,/sda-tx*%
X132050000Y-95625000D03*
%TD*%
%TO.P,R2,1*%
%TO.N,VD*%
X130400000Y-97375000D03*
%TO.P,R2,2*%
%TO.N,/scl-rx*%
X130400000Y-95625000D03*
%TD*%
D23*
%TO.P,J2,1,gnd*%
%TO.N,GND*%
X133750000Y-92000000D03*
%TO.P,J2,2,VCC*%
%TO.N,VD*%
X133750000Y-91000000D03*
%TO.P,J2,3,SDA*%
%TO.N,/sda-tx*%
X133750000Y-90000000D03*
%TO.P,J2,4,SCL*%
%TO.N,/scl-rx*%
X133750000Y-89000000D03*
D24*
%TO.P,J2,MP*%
%TO.N,N/C*%
X137625000Y-87700000D03*
X137625000Y-93300000D03*
%TD*%
D25*
%TO.P,J3,1,Pin_1*%
%TO.N,/Channel1/~{DRDY}*%
X115650000Y-83550000D03*
%TD*%
D13*
%TO.P,R3,1*%
%TO.N,/scl-rx*%
X128150000Y-94850000D03*
%TO.P,R3,2*%
%TO.N,/Channel1/scl*%
X127180000Y-94850000D03*
%TD*%
D12*
%TO.P,R4,1*%
%TO.N,/Channel1/sda*%
X127930000Y-93050000D03*
%TO.P,R4,2*%
%TO.N,/sda-tx*%
X128900000Y-93050000D03*
%TD*%
D26*
%TO.N,GND*%
X127250000Y-86150000D03*
X120750000Y-90250000D03*
X112050000Y-93550000D03*
X132050000Y-92200000D03*
X118750000Y-89250000D03*
X122250000Y-94950000D03*
X113050000Y-92050000D03*
%TO.N,/Channel1/AIN1*%
X117201808Y-94501808D03*
X110650000Y-93350000D03*
%TO.N,/Channel1/AIN0*%
X108350000Y-94050000D03*
X118150000Y-94550000D03*
%TO.N,VD*%
X132000000Y-91200000D03*
X127250000Y-89850000D03*
X135450000Y-91250000D03*
X130200000Y-89850000D03*
%TO.N,Net-(C11-Pad2)*%
X115925000Y-87650000D03*
X115625000Y-90975000D03*
%TO.N,/Channel1/A1*%
X120968090Y-85773551D03*
%TO.N,/Channel1/A0*%
X121950000Y-85850000D03*
%TO.N,/Channel1/~{DRDY}*%
X120100000Y-91750000D03*
%TO.N,/sda-tx*%
X129600010Y-93050000D03*
X130850010Y-93050000D03*
%TO.N,/Channel1/sda*%
X127150000Y-93050000D03*
%TO.N,/Channel1/scl*%
X127150000Y-96050000D03*
%TD*%
D27*
%TO.N,GND*%
X133750000Y-92000000D02*
X132250000Y-92000000D01*
X119350000Y-85825000D02*
X119475000Y-85950000D01*
X113050000Y-91020000D02*
X113050000Y-92050000D01*
X118800000Y-85925000D02*
X118900000Y-85825000D01*
X118900000Y-85825000D02*
X118765000Y-85690000D01*
X112043000Y-93543000D02*
X112050000Y-93550000D01*
X119475000Y-85950000D02*
X119475000Y-87200000D01*
X129950000Y-88850000D02*
X127250000Y-86150000D01*
X118825000Y-86200000D02*
X118800000Y-86175000D01*
X132250000Y-92000000D02*
X132050000Y-92200000D01*
X118825000Y-87200000D02*
X118825000Y-86200000D01*
X118765000Y-85690000D02*
X118765000Y-84550000D01*
X112043000Y-92300000D02*
X112043000Y-93543000D01*
X118900000Y-85825000D02*
X119350000Y-85825000D01*
X111750000Y-92593000D02*
X112043000Y-92300000D01*
X118800000Y-86175000D02*
X118800000Y-85925000D01*
X132100000Y-92250000D02*
X132050000Y-92200000D01*
X122250000Y-94950000D02*
X121135000Y-94950000D01*
%TO.N,/Channel1/V+*%
X109100000Y-89400000D02*
X109550000Y-88950000D01*
X107950000Y-89400000D02*
X109100000Y-89400000D01*
X107300000Y-90050000D02*
X107950000Y-89400000D01*
X109550000Y-88950000D02*
X110680000Y-88950000D01*
X105250000Y-90050000D02*
X107300000Y-90050000D01*
%TO.N,/Channel1/AIN1*%
X110683000Y-92300000D02*
X110683000Y-93317000D01*
X110650000Y-93350000D02*
X108400000Y-93350000D01*
X108400000Y-93350000D02*
X107950000Y-92900000D01*
X117525000Y-94178616D02*
X117201808Y-94501808D01*
X105250000Y-92050000D02*
X106100000Y-92900000D01*
X117525000Y-93100000D02*
X117525000Y-94178616D01*
X110683000Y-93317000D02*
X110650000Y-93350000D01*
X106100000Y-92900000D02*
X107950000Y-92900000D01*
%TO.N,/Channel1/AIN0*%
X103450000Y-92750000D02*
X103450000Y-90075000D01*
X104475000Y-89050000D02*
X105250000Y-89050000D01*
X107202408Y-88100000D02*
X107950000Y-88100000D01*
X104750000Y-94050000D02*
X103450000Y-92750000D01*
X118175000Y-93100000D02*
X118175000Y-94525000D01*
X106975000Y-88100000D02*
X107202408Y-88100000D01*
X108350000Y-94050000D02*
X104750000Y-94050000D01*
X106025000Y-89050000D02*
X106975000Y-88100000D01*
X105250000Y-89050000D02*
X106025000Y-89050000D01*
X103450000Y-90075000D02*
X104475000Y-89050000D01*
X118175000Y-94525000D02*
X118150000Y-94550000D01*
%TO.N,/Channel1/V-*%
X107950000Y-91600000D02*
X109500000Y-90050000D01*
X107400000Y-91050000D02*
X107950000Y-91600000D01*
X105250000Y-91050000D02*
X107400000Y-91050000D01*
X109500000Y-90050000D02*
X110665000Y-90050000D01*
%TO.N,/Channel1/Vpower*%
X118825000Y-93100000D02*
X118825000Y-95675000D01*
X120425000Y-96750000D02*
X119750000Y-96750000D01*
X119750000Y-96750000D02*
X118750000Y-95750000D01*
%TO.N,VD*%
X122475000Y-96050000D02*
X122475000Y-96750000D01*
X122149990Y-95724990D02*
X122475000Y-96050000D01*
X127250000Y-89850000D02*
X127250000Y-87340000D01*
X122035000Y-84550000D02*
X124460000Y-84550000D01*
X120165000Y-95270000D02*
X120619990Y-95724990D01*
X132050000Y-97375000D02*
X132050000Y-96850000D01*
X127250000Y-89850000D02*
X130200000Y-89850000D01*
X133750000Y-91000000D02*
X132200000Y-91000000D01*
X135400000Y-94025000D02*
X135400000Y-91300000D01*
X120619990Y-95724990D02*
X122149990Y-95724990D01*
X132200000Y-91000000D02*
X132000000Y-91200000D01*
X132000000Y-91200000D02*
X133700000Y-91200000D01*
X122475000Y-96750000D02*
X130400000Y-96750000D01*
X119475000Y-93100000D02*
X119475000Y-94260000D01*
X135400000Y-91300000D02*
X135450000Y-91250000D01*
X132050000Y-97375000D02*
X135400000Y-94025000D01*
X119475000Y-94260000D02*
X120165000Y-94950000D01*
X120165000Y-94950000D02*
X120165000Y-95270000D01*
X132050000Y-96850000D02*
X131950000Y-96750000D01*
X130400000Y-96750000D02*
X131950000Y-96750000D01*
X130400000Y-97375000D02*
X130400000Y-96750000D01*
X124460000Y-84550000D02*
X127250000Y-87340000D01*
%TO.N,Net-(C10-Pad1)*%
X117525000Y-88200000D02*
X116735000Y-88990000D01*
X116735000Y-88990000D02*
X114450000Y-88990000D01*
X111650000Y-88950000D02*
X114410000Y-88950000D01*
X117525000Y-88200000D02*
X117525000Y-87200000D01*
%TO.N,Net-(C10-Pad2)*%
X114450000Y-89960000D02*
X116415000Y-89960000D01*
X118175000Y-88200000D02*
X118175000Y-87200000D01*
X111635000Y-90050000D02*
X114360000Y-90050000D01*
X116415000Y-89960000D02*
X118175000Y-88200000D01*
%TO.N,Net-(C11-Pad2)*%
X115350000Y-91250000D02*
X115625000Y-90975000D01*
X115350000Y-91950000D02*
X115350000Y-91250000D01*
X115350000Y-92490000D02*
X115350000Y-91950000D01*
X115925000Y-87650000D02*
X116425000Y-87650000D01*
X116425000Y-87650000D02*
X116875000Y-87200000D01*
X115350000Y-92100000D02*
X115350000Y-91950000D01*
%TO.N,Net-(C11-Pad1)*%
X116125000Y-93850000D02*
X116875000Y-93100000D01*
X115350000Y-93850000D02*
X115350000Y-93460000D01*
X115350000Y-93850000D02*
X116125000Y-93850000D01*
%TO.N,Net-(C27-Pad2)*%
X121065000Y-84550000D02*
X119735000Y-84550000D01*
X120125000Y-84645000D02*
X120030000Y-84550000D01*
X120125000Y-87200000D02*
X120125000Y-84645000D01*
X120030000Y-84550000D02*
X119735000Y-84550000D01*
%TO.N,/Channel1/A1*%
X120775000Y-85966641D02*
X120775000Y-87200000D01*
X120775000Y-85966641D02*
X120968090Y-85773551D01*
%TO.N,/Channel1/A0*%
X121950000Y-85850000D02*
X121650001Y-86149999D01*
X121650001Y-86149999D02*
X121475001Y-86149999D01*
X121425000Y-86200000D02*
X121425000Y-87200000D01*
X121475001Y-86149999D02*
X121425000Y-86200000D01*
%TO.N,/Channel1/~{DRDY}*%
X120125000Y-91775000D02*
X120100000Y-91750000D01*
X120125000Y-93100000D02*
X120125000Y-91775000D01*
%TO.N,/scl-rx*%
X130225010Y-90774990D02*
X130225010Y-94224990D01*
X133750000Y-89000000D02*
X132000000Y-89000000D01*
X130400000Y-94399980D02*
X130400000Y-95625000D01*
X130225010Y-94224990D02*
X130400000Y-94399980D01*
X128150000Y-94850000D02*
X130150000Y-94850000D01*
X132000000Y-89000000D02*
X130225010Y-90774990D01*
X130150000Y-94850000D02*
X130400000Y-95100000D01*
%TO.N,/sda-tx*%
X133750000Y-90000000D02*
X131725020Y-90000000D01*
X130850010Y-90875010D02*
X131725020Y-90000000D01*
X128900000Y-93050000D02*
X129600010Y-93050000D01*
X132050000Y-94249990D02*
X132050000Y-95625000D01*
X130850010Y-90875010D02*
X130850010Y-93050000D01*
X130850010Y-93050000D02*
X132050000Y-94249990D01*
%TO.N,/Channel1/sda*%
X121114998Y-91850000D02*
X122050000Y-91850000D01*
X127930000Y-93050000D02*
X127150000Y-93050000D01*
X120775000Y-92189998D02*
X121114998Y-91850000D01*
X123250000Y-93050000D02*
X127150000Y-93050000D01*
X120775000Y-93100000D02*
X120775000Y-92189998D01*
X122050000Y-91850000D02*
X123250000Y-93050000D01*
%TO.N,/Channel1/scl*%
X127150000Y-96050000D02*
X127150000Y-94880000D01*
X121425000Y-93100000D02*
X121900000Y-93100000D01*
X124850000Y-96050000D02*
X127150000Y-96050000D01*
X121900000Y-93100000D02*
X124850000Y-96050000D01*
%TD*%
%TA.AperFunction,Conductor*%
%TO.N,GND*%
G36*
X110066706Y-90703502D02*
G01*
X110087679Y-90720404D01*
X110112237Y-90744962D01*
X110119057Y-90748996D01*
X110119058Y-90748996D01*
X110180001Y-90785037D01*
X110254900Y-90829332D01*
X110262511Y-90831543D01*
X110262513Y-90831544D01*
X110281830Y-90837156D01*
X110414063Y-90875573D01*
X110420468Y-90876077D01*
X110420473Y-90876078D01*
X110448797Y-90878307D01*
X110448805Y-90878307D01*
X110451253Y-90878500D01*
X110664870Y-90878500D01*
X110878746Y-90878499D01*
X110915937Y-90875573D01*
X111048170Y-90837156D01*
X111067487Y-90831544D01*
X111067489Y-90831543D01*
X111075100Y-90829332D01*
X111085860Y-90822968D01*
X111154674Y-90805508D01*
X111214139Y-90822968D01*
X111224900Y-90829332D01*
X111232511Y-90831543D01*
X111232513Y-90831544D01*
X111251830Y-90837156D01*
X111384063Y-90875573D01*
X111390468Y-90876077D01*
X111390473Y-90876078D01*
X111418797Y-90878307D01*
X111418805Y-90878307D01*
X111421253Y-90878500D01*
X111634870Y-90878500D01*
X111848746Y-90878499D01*
X111885937Y-90875573D01*
X112018170Y-90837156D01*
X112037487Y-90831544D01*
X112037489Y-90831543D01*
X112045100Y-90829332D01*
X112051924Y-90825296D01*
X112051927Y-90825295D01*
X112133074Y-90777306D01*
X112201890Y-90759847D01*
X112227063Y-90765776D01*
X112230254Y-90766000D01*
X112515614Y-90766000D01*
X112579753Y-90783547D01*
X112608071Y-90800294D01*
X112608075Y-90800296D01*
X112614900Y-90804332D01*
X112622511Y-90806543D01*
X112622513Y-90806544D01*
X112673196Y-90821268D01*
X112774063Y-90850573D01*
X112780468Y-90851077D01*
X112780473Y-90851078D01*
X112808797Y-90853307D01*
X112808805Y-90853307D01*
X112811253Y-90853500D01*
X113049855Y-90853500D01*
X113288746Y-90853499D01*
X113325937Y-90850573D01*
X113424017Y-90822078D01*
X113477487Y-90806544D01*
X113477489Y-90806543D01*
X113485100Y-90804332D01*
X113491925Y-90800296D01*
X113491929Y-90800294D01*
X113520247Y-90783547D01*
X113584386Y-90766000D01*
X113856048Y-90766000D01*
X113871287Y-90761525D01*
X113880384Y-90751027D01*
X113940109Y-90712642D01*
X114011106Y-90712641D01*
X114013512Y-90713511D01*
X114014900Y-90714332D01*
X114174063Y-90760573D01*
X114180468Y-90761077D01*
X114180473Y-90761078D01*
X114208797Y-90763307D01*
X114208805Y-90763307D01*
X114211253Y-90763500D01*
X114303530Y-90763500D01*
X114678439Y-90763499D01*
X114746560Y-90783501D01*
X114793053Y-90837156D01*
X114803157Y-90907430D01*
X114794077Y-90939538D01*
X114786140Y-90957881D01*
X114782827Y-90965536D01*
X114777609Y-90976187D01*
X114756305Y-91014940D01*
X114754334Y-91022615D01*
X114754334Y-91022616D01*
X114751267Y-91034562D01*
X114744863Y-91053266D01*
X114736819Y-91071855D01*
X114735580Y-91079678D01*
X114735577Y-91079688D01*
X114729901Y-91115524D01*
X114727495Y-91127144D01*
X114716500Y-91169970D01*
X114716500Y-91190224D01*
X114714949Y-91209934D01*
X114711780Y-91229943D01*
X114712526Y-91237835D01*
X114715941Y-91273961D01*
X114716500Y-91285819D01*
X114716500Y-91823585D01*
X114696498Y-91891706D01*
X114679595Y-91912680D01*
X114655038Y-91937237D01*
X114651004Y-91944057D01*
X114651004Y-91944058D01*
X114580233Y-92063726D01*
X114570668Y-92079900D01*
X114568457Y-92087511D01*
X114568456Y-92087513D01*
X114564828Y-92100000D01*
X114524427Y-92239063D01*
X114523923Y-92245468D01*
X114523922Y-92245473D01*
X114521787Y-92272603D01*
X114521500Y-92276253D01*
X114521501Y-92703746D01*
X114524427Y-92740937D01*
X114543910Y-92807999D01*
X114565884Y-92883632D01*
X114570668Y-92900100D01*
X114577032Y-92910860D01*
X114594492Y-92979674D01*
X114577032Y-93039139D01*
X114570668Y-93049900D01*
X114524427Y-93209063D01*
X114523923Y-93215468D01*
X114523922Y-93215473D01*
X114523531Y-93220446D01*
X114521500Y-93246253D01*
X114521501Y-93673746D01*
X114524427Y-93710937D01*
X114542273Y-93772364D01*
X114566241Y-93854861D01*
X114570668Y-93870100D01*
X114574703Y-93876923D01*
X114622128Y-93957114D01*
X114655038Y-94012763D01*
X114768752Y-94126477D01*
X114788569Y-94152870D01*
X114790448Y-94157617D01*
X114795102Y-94164023D01*
X114795105Y-94164028D01*
X114823458Y-94203052D01*
X114827901Y-94209589D01*
X114858000Y-94257018D01*
X114863778Y-94262444D01*
X114863779Y-94262445D01*
X114864007Y-94262659D01*
X114879688Y-94280446D01*
X114884528Y-94287107D01*
X114890637Y-94292161D01*
X114890638Y-94292162D01*
X114927796Y-94322903D01*
X114933730Y-94328134D01*
X114968898Y-94361158D01*
X114968901Y-94361160D01*
X114974679Y-94366586D01*
X114981903Y-94370558D01*
X115001506Y-94383881D01*
X115001746Y-94384080D01*
X115001753Y-94384084D01*
X115007856Y-94389133D01*
X115027794Y-94398515D01*
X115058676Y-94413047D01*
X115065708Y-94416629D01*
X115114940Y-94443695D01*
X115122615Y-94445665D01*
X115122621Y-94445668D01*
X115122919Y-94445744D01*
X115145228Y-94453776D01*
X115145503Y-94453906D01*
X115145511Y-94453909D01*
X115152682Y-94457283D01*
X115207849Y-94467806D01*
X115215558Y-94469529D01*
X115249551Y-94478257D01*
X115262293Y-94481529D01*
X115262294Y-94481529D01*
X115269970Y-94483500D01*
X115278207Y-94483500D01*
X115301816Y-94485732D01*
X115302119Y-94485790D01*
X115302123Y-94485790D01*
X115309906Y-94487275D01*
X115365951Y-94483749D01*
X115373862Y-94483500D01*
X116046233Y-94483500D01*
X116057416Y-94484027D01*
X116064909Y-94485702D01*
X116072835Y-94485453D01*
X116072836Y-94485453D01*
X116132986Y-94483562D01*
X116136945Y-94483500D01*
X116164856Y-94483500D01*
X116168791Y-94483003D01*
X116168856Y-94482995D01*
X116180693Y-94482062D01*
X116212951Y-94481048D01*
X116216970Y-94480922D01*
X116224889Y-94480673D01*
X116237071Y-94477134D01*
X116308066Y-94477335D01*
X116367683Y-94515888D01*
X116397624Y-94585834D01*
X116405971Y-94670968D01*
X116463226Y-94843081D01*
X116466873Y-94849103D01*
X116466874Y-94849105D01*
X116537360Y-94965491D01*
X116557188Y-94998232D01*
X116562077Y-95003295D01*
X116562078Y-95003296D01*
X116577140Y-95018893D01*
X116683190Y-95128710D01*
X116689086Y-95132568D01*
X116813269Y-95213831D01*
X116834967Y-95228030D01*
X116841571Y-95230486D01*
X116841573Y-95230487D01*
X116920576Y-95259868D01*
X116977452Y-95302360D01*
X117002326Y-95368857D01*
X116997653Y-95413118D01*
X116981721Y-95467957D01*
X116979771Y-95478635D01*
X116982795Y-95493031D01*
X116994258Y-95496000D01*
X117820500Y-95496000D01*
X117888621Y-95516002D01*
X117935114Y-95569658D01*
X117946500Y-95622000D01*
X117946501Y-95810634D01*
X117946501Y-95988746D01*
X117949427Y-96025937D01*
X117995668Y-96185100D01*
X117999704Y-96191925D01*
X117999706Y-96191929D01*
X118016453Y-96220247D01*
X118034000Y-96284386D01*
X118034000Y-96556048D01*
X118037973Y-96569579D01*
X118045871Y-96570714D01*
X118182287Y-96531082D01*
X118196724Y-96524834D01*
X118200372Y-96522677D01*
X118203603Y-96521857D01*
X118203999Y-96521686D01*
X118204027Y-96521750D01*
X118269189Y-96505219D01*
X118328645Y-96522677D01*
X118333071Y-96525294D01*
X118333075Y-96525296D01*
X118339900Y-96529332D01*
X118347511Y-96531543D01*
X118347513Y-96531544D01*
X118398196Y-96546268D01*
X118499063Y-96575573D01*
X118505468Y-96576077D01*
X118505473Y-96576078D01*
X118533797Y-96578307D01*
X118533805Y-96578307D01*
X118536253Y-96578500D01*
X118630406Y-96578500D01*
X118698527Y-96598502D01*
X118719501Y-96615405D01*
X119246343Y-97142247D01*
X119253887Y-97150537D01*
X119258000Y-97157018D01*
X119263777Y-97162443D01*
X119305551Y-97201671D01*
X119341516Y-97262883D01*
X119344625Y-97280518D01*
X119350755Y-97339594D01*
X119352474Y-97356166D01*
X119354655Y-97362702D01*
X119354655Y-97362704D01*
X119370926Y-97411473D01*
X119408450Y-97523946D01*
X119501522Y-97674348D01*
X119626697Y-97799305D01*
X119632927Y-97803145D01*
X119632928Y-97803146D01*
X119770090Y-97887694D01*
X119777262Y-97892115D01*
X119857005Y-97918564D01*
X119938611Y-97945632D01*
X119938613Y-97945632D01*
X119945139Y-97947797D01*
X119951975Y-97948497D01*
X119951978Y-97948498D01*
X119995031Y-97952909D01*
X120049600Y-97958500D01*
X120800400Y-97958500D01*
X120803646Y-97958163D01*
X120803650Y-97958163D01*
X120899308Y-97948238D01*
X120899312Y-97948237D01*
X120906166Y-97947526D01*
X120912702Y-97945345D01*
X120912704Y-97945345D01*
X121044806Y-97901272D01*
X121073946Y-97891550D01*
X121224348Y-97798478D01*
X121349305Y-97673303D01*
X121351906Y-97669084D01*
X121409030Y-97628583D01*
X121479953Y-97625351D01*
X121541365Y-97660976D01*
X121547922Y-97668530D01*
X121551522Y-97674348D01*
X121676697Y-97799305D01*
X121682927Y-97803145D01*
X121682928Y-97803146D01*
X121820090Y-97887694D01*
X121827262Y-97892115D01*
X121907005Y-97918564D01*
X121988611Y-97945632D01*
X121988613Y-97945632D01*
X121995139Y-97947797D01*
X122001975Y-97948497D01*
X122001978Y-97948498D01*
X122045031Y-97952909D01*
X122099600Y-97958500D01*
X122850400Y-97958500D01*
X122853646Y-97958163D01*
X122853650Y-97958163D01*
X122949308Y-97948238D01*
X122949312Y-97948237D01*
X122956166Y-97947526D01*
X122962702Y-97945345D01*
X122962704Y-97945345D01*
X123094806Y-97901272D01*
X123123946Y-97891550D01*
X123274348Y-97798478D01*
X123399305Y-97673303D01*
X123428863Y-97625351D01*
X123488275Y-97528968D01*
X123488276Y-97528966D01*
X123492115Y-97522738D01*
X123509663Y-97469832D01*
X123550094Y-97411473D01*
X123615658Y-97384236D01*
X123629256Y-97383500D01*
X129290500Y-97383500D01*
X129358621Y-97403502D01*
X129405114Y-97457158D01*
X129416500Y-97509500D01*
X129416500Y-97712072D01*
X129416837Y-97715318D01*
X129416837Y-97715322D01*
X129425950Y-97803146D01*
X129427293Y-97816093D01*
X129429474Y-97822629D01*
X129429474Y-97822631D01*
X129464917Y-97928867D01*
X129482346Y-97981107D01*
X129573884Y-98129031D01*
X129579066Y-98134204D01*
X129691816Y-98246758D01*
X129691821Y-98246762D01*
X129696997Y-98251929D01*
X129703227Y-98255769D01*
X129703228Y-98255770D01*
X129791900Y-98310428D01*
X129845080Y-98343209D01*
X130010191Y-98397974D01*
X130017027Y-98398674D01*
X130017030Y-98398675D01*
X130068526Y-98403951D01*
X130112928Y-98408500D01*
X130687072Y-98408500D01*
X130690318Y-98408163D01*
X130690322Y-98408163D01*
X130784235Y-98398419D01*
X130784239Y-98398418D01*
X130791093Y-98397707D01*
X130797629Y-98395526D01*
X130797631Y-98395526D01*
X130930395Y-98351232D01*
X130956107Y-98342654D01*
X131018932Y-98303777D01*
X131097805Y-98254969D01*
X131097806Y-98254968D01*
X131104031Y-98251116D01*
X131135879Y-98219213D01*
X131198159Y-98185134D01*
X131268979Y-98190137D01*
X131314067Y-98219057D01*
X131340041Y-98244985D01*
X131346997Y-98251929D01*
X131353227Y-98255769D01*
X131353228Y-98255770D01*
X131441900Y-98310428D01*
X131495080Y-98343209D01*
X131660191Y-98397974D01*
X131667027Y-98398674D01*
X131667030Y-98398675D01*
X131718526Y-98403951D01*
X131762928Y-98408500D01*
X132337072Y-98408500D01*
X132340318Y-98408163D01*
X132340322Y-98408163D01*
X132434235Y-98398419D01*
X132434239Y-98398418D01*
X132441093Y-98397707D01*
X132447629Y-98395526D01*
X132447631Y-98395526D01*
X132580395Y-98351232D01*
X132606107Y-98342654D01*
X132754031Y-98251116D01*
X132769963Y-98235156D01*
X132871758Y-98133184D01*
X132871762Y-98133179D01*
X132876929Y-98128003D01*
X132950603Y-98008482D01*
X132964369Y-97986150D01*
X132964370Y-97986148D01*
X132968209Y-97979920D01*
X133022974Y-97814809D01*
X133024253Y-97802332D01*
X133033172Y-97715271D01*
X133033500Y-97712072D01*
X133033500Y-97339594D01*
X133053502Y-97271473D01*
X133070405Y-97250499D01*
X133089843Y-97231061D01*
X133152155Y-97197035D01*
X133222970Y-97202100D01*
X133279806Y-97244647D01*
X133303118Y-97298818D01*
X133341802Y-97523946D01*
X133358241Y-97619619D01*
X133359329Y-97623258D01*
X133359330Y-97623261D01*
X133438587Y-97888275D01*
X133451814Y-97932504D01*
X133453327Y-97935975D01*
X133453329Y-97935981D01*
X133537022Y-98128003D01*
X133582297Y-98231881D01*
X133584220Y-98235152D01*
X133584222Y-98235156D01*
X133626584Y-98307215D01*
X133747802Y-98513414D01*
X133750103Y-98516429D01*
X133943631Y-98770012D01*
X133943636Y-98770017D01*
X133945931Y-98773025D01*
X134173814Y-99006953D01*
X134246635Y-99065607D01*
X134425196Y-99209431D01*
X134425201Y-99209435D01*
X134428149Y-99211809D01*
X134431371Y-99213818D01*
X134431376Y-99213822D01*
X134503156Y-99258588D01*
X134550373Y-99311607D01*
X134561429Y-99381738D01*
X134532815Y-99446713D01*
X134473615Y-99485903D01*
X134436480Y-99491500D01*
X104570222Y-99491500D01*
X104502101Y-99471498D01*
X104455608Y-99417842D01*
X104445504Y-99347568D01*
X104474998Y-99282988D01*
X104499890Y-99261085D01*
X104501601Y-99260091D01*
X104504623Y-99257810D01*
X104504627Y-99257807D01*
X104759221Y-99065607D01*
X104759222Y-99065606D01*
X104762245Y-99063324D01*
X104997363Y-98836670D01*
X105203549Y-98583410D01*
X105255429Y-98501185D01*
X105375788Y-98310428D01*
X105375790Y-98310425D01*
X105377815Y-98307215D01*
X105402568Y-98254969D01*
X105461754Y-98130040D01*
X105517638Y-98012084D01*
X105525894Y-97987338D01*
X105619790Y-97705897D01*
X105619792Y-97705891D01*
X105620992Y-97702293D01*
X105686381Y-97382329D01*
X105687978Y-97362704D01*
X105712674Y-97059061D01*
X105712856Y-97056826D01*
X105713451Y-97000000D01*
X105693798Y-96674015D01*
X105675820Y-96575573D01*
X105635805Y-96356473D01*
X105635804Y-96356469D01*
X105635125Y-96352751D01*
X105629013Y-96333065D01*
X105539404Y-96044477D01*
X105538282Y-96040863D01*
X105528856Y-96019840D01*
X116979492Y-96019840D01*
X116981721Y-96032043D01*
X117023918Y-96177287D01*
X117030166Y-96191724D01*
X117106399Y-96320627D01*
X117116048Y-96333065D01*
X117221935Y-96438952D01*
X117234373Y-96448601D01*
X117363276Y-96524834D01*
X117377713Y-96531082D01*
X117508605Y-96569109D01*
X117522705Y-96569069D01*
X117526000Y-96561799D01*
X117526000Y-96022115D01*
X117521525Y-96006876D01*
X117520135Y-96005671D01*
X117512452Y-96004000D01*
X116996319Y-96004000D01*
X116981524Y-96008344D01*
X116979492Y-96019840D01*
X105528856Y-96019840D01*
X105404670Y-95742869D01*
X105236226Y-95463084D01*
X105233899Y-95460100D01*
X105233894Y-95460093D01*
X105037726Y-95208558D01*
X105037724Y-95208556D01*
X105035390Y-95205563D01*
X104805070Y-94974034D01*
X104721877Y-94908450D01*
X104680764Y-94850569D01*
X104677470Y-94779649D01*
X104713042Y-94718206D01*
X104776185Y-94685749D01*
X104799883Y-94683500D01*
X107803903Y-94683500D01*
X107872896Y-94704068D01*
X107949297Y-94754063D01*
X107983159Y-94776222D01*
X107989763Y-94778678D01*
X107989765Y-94778679D01*
X108146558Y-94836990D01*
X108146560Y-94836990D01*
X108153168Y-94839448D01*
X108236514Y-94850569D01*
X108325980Y-94862507D01*
X108325984Y-94862507D01*
X108332961Y-94863438D01*
X108339972Y-94862800D01*
X108339976Y-94862800D01*
X108482459Y-94849832D01*
X108513600Y-94846998D01*
X108520302Y-94844820D01*
X108520304Y-94844820D01*
X108679409Y-94793124D01*
X108679412Y-94793123D01*
X108686108Y-94790947D01*
X108841912Y-94698069D01*
X108973266Y-94572982D01*
X109073643Y-94421902D01*
X109119116Y-94302195D01*
X109135555Y-94258920D01*
X109135556Y-94258918D01*
X109138055Y-94252338D01*
X109139785Y-94240032D01*
X109160594Y-94091964D01*
X109189882Y-94027290D01*
X109249486Y-93988717D01*
X109285368Y-93983500D01*
X110103903Y-93983500D01*
X110172896Y-94004068D01*
X110274672Y-94070668D01*
X110283159Y-94076222D01*
X110289763Y-94078678D01*
X110289765Y-94078679D01*
X110446558Y-94136990D01*
X110446560Y-94136990D01*
X110453168Y-94139448D01*
X110536995Y-94150633D01*
X110625980Y-94162507D01*
X110625984Y-94162507D01*
X110632961Y-94163438D01*
X110639972Y-94162800D01*
X110639976Y-94162800D01*
X110782459Y-94149832D01*
X110813600Y-94146998D01*
X110820302Y-94144820D01*
X110820304Y-94144820D01*
X110979409Y-94093124D01*
X110979412Y-94093123D01*
X110986108Y-94090947D01*
X111097696Y-94024427D01*
X111135860Y-94001677D01*
X111135862Y-94001676D01*
X111141912Y-93998069D01*
X111273266Y-93872982D01*
X111373643Y-93721902D01*
X111438055Y-93552338D01*
X111461959Y-93382251D01*
X111462748Y-93376639D01*
X111462748Y-93376636D01*
X111463299Y-93372717D01*
X111463616Y-93350000D01*
X111443397Y-93169745D01*
X111421216Y-93106048D01*
X111907000Y-93106048D01*
X111910973Y-93119579D01*
X111918871Y-93120714D01*
X112055287Y-93081082D01*
X112069724Y-93074834D01*
X112198627Y-92998601D01*
X112211065Y-92988952D01*
X112316952Y-92883065D01*
X112326601Y-92870627D01*
X112402834Y-92741724D01*
X112409082Y-92727287D01*
X112451279Y-92582043D01*
X112453229Y-92571365D01*
X112450205Y-92556969D01*
X112438742Y-92554000D01*
X111925115Y-92554000D01*
X111909876Y-92558475D01*
X111908671Y-92559865D01*
X111907000Y-92567548D01*
X111907000Y-93106048D01*
X111421216Y-93106048D01*
X111410346Y-93074834D01*
X111406009Y-93062381D01*
X111399000Y-93020944D01*
X111399000Y-92834386D01*
X111416547Y-92770247D01*
X111433294Y-92741929D01*
X111433296Y-92741925D01*
X111437332Y-92735100D01*
X111483573Y-92575937D01*
X111484077Y-92569532D01*
X111484078Y-92569527D01*
X111486307Y-92541203D01*
X111486307Y-92541195D01*
X111486500Y-92538747D01*
X111486499Y-92061254D01*
X111483874Y-92027885D01*
X111907000Y-92027885D01*
X111911475Y-92043124D01*
X111912865Y-92044329D01*
X111920548Y-92046000D01*
X112436681Y-92046000D01*
X112451476Y-92041656D01*
X112453508Y-92030160D01*
X112451279Y-92017954D01*
X112420453Y-91911850D01*
X112420656Y-91840854D01*
X112459210Y-91781238D01*
X112523875Y-91751930D01*
X112594120Y-91762235D01*
X112605596Y-91768249D01*
X112608276Y-91769834D01*
X112622713Y-91776082D01*
X112767957Y-91818279D01*
X112778635Y-91820229D01*
X112793031Y-91817205D01*
X112796000Y-91805742D01*
X112796000Y-91803681D01*
X113304000Y-91803681D01*
X113308344Y-91818476D01*
X113319840Y-91820508D01*
X113332043Y-91818279D01*
X113477287Y-91776082D01*
X113491724Y-91769834D01*
X113620627Y-91693601D01*
X113633065Y-91683952D01*
X113738952Y-91578065D01*
X113748601Y-91565627D01*
X113824834Y-91436724D01*
X113831082Y-91422287D01*
X113869109Y-91291395D01*
X113869069Y-91277295D01*
X113861799Y-91274000D01*
X113322115Y-91274000D01*
X113306876Y-91278475D01*
X113305671Y-91279865D01*
X113304000Y-91287548D01*
X113304000Y-91803681D01*
X112796000Y-91803681D01*
X112796000Y-91292115D01*
X112791525Y-91276876D01*
X112790135Y-91275671D01*
X112782452Y-91274000D01*
X112243952Y-91274000D01*
X112230421Y-91277973D01*
X112229286Y-91285872D01*
X112257547Y-91383150D01*
X112257344Y-91454146D01*
X112218790Y-91513762D01*
X112154125Y-91543070D01*
X112083880Y-91532765D01*
X112072404Y-91526751D01*
X112069724Y-91525166D01*
X112055287Y-91518918D01*
X111924395Y-91480891D01*
X111910295Y-91480931D01*
X111907000Y-91488201D01*
X111907000Y-92027885D01*
X111483874Y-92027885D01*
X111483573Y-92024063D01*
X111445120Y-91891706D01*
X111439544Y-91872513D01*
X111439543Y-91872511D01*
X111437332Y-91864900D01*
X111433296Y-91858075D01*
X111433294Y-91858071D01*
X111416547Y-91829753D01*
X111399000Y-91765614D01*
X111399000Y-91493952D01*
X111395027Y-91480421D01*
X111387129Y-91479286D01*
X111250713Y-91518918D01*
X111236276Y-91525166D01*
X111232628Y-91527323D01*
X111229397Y-91528143D01*
X111229001Y-91528314D01*
X111228973Y-91528250D01*
X111163811Y-91544781D01*
X111104355Y-91527323D01*
X111099929Y-91524706D01*
X111099925Y-91524704D01*
X111093100Y-91520668D01*
X111085489Y-91518457D01*
X111085487Y-91518456D01*
X111015014Y-91497982D01*
X110933937Y-91474427D01*
X110927532Y-91473923D01*
X110927527Y-91473922D01*
X110899203Y-91471693D01*
X110899195Y-91471693D01*
X110896747Y-91471500D01*
X110683130Y-91471500D01*
X110469254Y-91471501D01*
X110432063Y-91474427D01*
X110350986Y-91497982D01*
X110280513Y-91518456D01*
X110280511Y-91518457D01*
X110272900Y-91520668D01*
X110130237Y-91605038D01*
X110013038Y-91722237D01*
X110009004Y-91729057D01*
X110009004Y-91729058D01*
X109953101Y-91823585D01*
X109928668Y-91864900D01*
X109926457Y-91872511D01*
X109926456Y-91872513D01*
X109920880Y-91891706D01*
X109882427Y-92024063D01*
X109881923Y-92030468D01*
X109881922Y-92030473D01*
X109879693Y-92058797D01*
X109879500Y-92061253D01*
X109879501Y-92538746D01*
X109880361Y-92549678D01*
X109882427Y-92575937D01*
X109880753Y-92576069D01*
X109874185Y-92638462D01*
X109829758Y-92693841D01*
X109757670Y-92716500D01*
X109339729Y-92716500D01*
X109271608Y-92696498D01*
X109225115Y-92642842D01*
X109213729Y-92590500D01*
X109213729Y-92400000D01*
X109208500Y-92326889D01*
X109197833Y-92290560D01*
X109194012Y-92237131D01*
X109194117Y-92236404D01*
X109213729Y-92100000D01*
X109213729Y-91609992D01*
X109213731Y-91609222D01*
X109214160Y-91539069D01*
X109214160Y-91539063D01*
X109214187Y-91534583D01*
X109198805Y-91422287D01*
X109195030Y-91394724D01*
X109195029Y-91394720D01*
X109194420Y-91390273D01*
X109183945Y-91353621D01*
X109184459Y-91282629D01*
X109216000Y-91229904D01*
X109466943Y-90978962D01*
X109725501Y-90720404D01*
X109787813Y-90686379D01*
X109814596Y-90683500D01*
X109998585Y-90683500D01*
X110066706Y-90703502D01*
G37*
%TD.AperFunction*%
%TA.AperFunction,Conductor*%
G36*
X122121237Y-94224386D02*
G01*
X122150008Y-94245912D01*
X123376171Y-95472075D01*
X123410196Y-95534386D01*
X123405131Y-95605201D01*
X123362584Y-95662037D01*
X123296064Y-95686848D01*
X123220959Y-95668429D01*
X123128968Y-95611725D01*
X123128966Y-95611724D01*
X123122738Y-95607885D01*
X123042995Y-95581436D01*
X122961389Y-95554368D01*
X122961387Y-95554368D01*
X122954861Y-95552203D01*
X122948024Y-95551502D01*
X122948022Y-95551502D01*
X122923562Y-95548996D01*
X122908344Y-95547437D01*
X122842618Y-95520596D01*
X122832093Y-95511188D01*
X122653642Y-95332737D01*
X122646102Y-95324451D01*
X122641990Y-95317972D01*
X122592337Y-95271345D01*
X122589496Y-95268591D01*
X122569760Y-95248855D01*
X122566563Y-95246375D01*
X122557541Y-95238670D01*
X122548827Y-95230487D01*
X122525311Y-95208404D01*
X122518365Y-95204585D01*
X122518362Y-95204583D01*
X122507556Y-95198642D01*
X122491037Y-95187791D01*
X122486597Y-95184347D01*
X122475031Y-95175376D01*
X122467762Y-95172231D01*
X122467758Y-95172228D01*
X122434453Y-95157816D01*
X122423803Y-95152599D01*
X122385050Y-95131295D01*
X122365427Y-95126257D01*
X122346724Y-95119853D01*
X122335410Y-95114957D01*
X122335409Y-95114957D01*
X122328135Y-95111809D01*
X122320312Y-95110570D01*
X122320302Y-95110567D01*
X122284466Y-95104891D01*
X122272846Y-95102485D01*
X122237701Y-95093462D01*
X122237700Y-95093462D01*
X122230020Y-95091490D01*
X122209766Y-95091490D01*
X122190055Y-95089939D01*
X122177876Y-95088010D01*
X122170047Y-95086770D01*
X122162155Y-95087516D01*
X122126029Y-95090931D01*
X122114171Y-95091490D01*
X121094500Y-95091490D01*
X121026379Y-95071488D01*
X120979886Y-95017832D01*
X120968500Y-94965491D01*
X120968499Y-94822001D01*
X120988501Y-94753880D01*
X121042156Y-94707387D01*
X121094499Y-94696000D01*
X121918681Y-94696000D01*
X121933476Y-94691656D01*
X121935508Y-94680160D01*
X121933279Y-94667957D01*
X121891082Y-94522713D01*
X121884832Y-94508272D01*
X121860620Y-94467331D01*
X121843160Y-94398515D01*
X121865677Y-94331184D01*
X121897915Y-94302230D01*
X121896705Y-94300615D01*
X121985348Y-94234181D01*
X122051855Y-94209333D01*
X122121237Y-94224386D01*
G37*
%TD.AperFunction*%
%TA.AperFunction,Conductor*%
G36*
X133859115Y-91820990D02*
G01*
X133917613Y-91822993D01*
X133975991Y-91863397D01*
X134003258Y-91928949D01*
X134004000Y-91942604D01*
X134004000Y-92789884D01*
X134008475Y-92805123D01*
X134009865Y-92806328D01*
X134017548Y-92807999D01*
X134438984Y-92807999D01*
X134443920Y-92807805D01*
X134472336Y-92805570D01*
X134484931Y-92803270D01*
X134605346Y-92768285D01*
X134676343Y-92768487D01*
X134735959Y-92807041D01*
X134765268Y-92871706D01*
X134766500Y-92889282D01*
X134766500Y-93710405D01*
X134746498Y-93778526D01*
X134729595Y-93799500D01*
X133240134Y-95288961D01*
X133177822Y-95322987D01*
X133107007Y-95317922D01*
X133050171Y-95275375D01*
X133025712Y-95212869D01*
X133023419Y-95190766D01*
X133023418Y-95190763D01*
X133022707Y-95183907D01*
X133014003Y-95157816D01*
X132969972Y-95025841D01*
X132967654Y-95018893D01*
X132876116Y-94870969D01*
X132848179Y-94843081D01*
X132758184Y-94753242D01*
X132758179Y-94753238D01*
X132753003Y-94748071D01*
X132743386Y-94742143D01*
X132741559Y-94740114D01*
X132741027Y-94739693D01*
X132741099Y-94739602D01*
X132695892Y-94689372D01*
X132683500Y-94634882D01*
X132683500Y-94328757D01*
X132684027Y-94317574D01*
X132685702Y-94310081D01*
X132685405Y-94300615D01*
X132683562Y-94242004D01*
X132683500Y-94238045D01*
X132683500Y-94210134D01*
X132682995Y-94206134D01*
X132682062Y-94194291D01*
X132680922Y-94158019D01*
X132680673Y-94150100D01*
X132675022Y-94130648D01*
X132671014Y-94111296D01*
X132669467Y-94099053D01*
X132668474Y-94091193D01*
X132665556Y-94083822D01*
X132652200Y-94050087D01*
X132648355Y-94038860D01*
X132644993Y-94027290D01*
X132636018Y-93996397D01*
X132630626Y-93987279D01*
X132625707Y-93978962D01*
X132617012Y-93961214D01*
X132609552Y-93942373D01*
X132583564Y-93906603D01*
X132577048Y-93896683D01*
X132558580Y-93865455D01*
X132558578Y-93865452D01*
X132554542Y-93858628D01*
X132540221Y-93844307D01*
X132527380Y-93829273D01*
X132520131Y-93819296D01*
X132515472Y-93812883D01*
X132509368Y-93807833D01*
X132509363Y-93807828D01*
X132481402Y-93784697D01*
X132472621Y-93776707D01*
X131684430Y-92988515D01*
X131650405Y-92926203D01*
X131648311Y-92913465D01*
X131648019Y-92910858D01*
X131643407Y-92869745D01*
X131598897Y-92741929D01*
X131586074Y-92705106D01*
X131586072Y-92705103D01*
X131583755Y-92698448D01*
X131543611Y-92634204D01*
X131502656Y-92568661D01*
X131483510Y-92501892D01*
X131483510Y-92265871D01*
X132473456Y-92265871D01*
X132514107Y-92405790D01*
X132520352Y-92420221D01*
X132596911Y-92549678D01*
X132606551Y-92562104D01*
X132712896Y-92668449D01*
X132725322Y-92678089D01*
X132854779Y-92754648D01*
X132869210Y-92760893D01*
X133015065Y-92803269D01*
X133027667Y-92805570D01*
X133056084Y-92807807D01*
X133061014Y-92808000D01*
X133477885Y-92808000D01*
X133493124Y-92803525D01*
X133494329Y-92802135D01*
X133496000Y-92794452D01*
X133496000Y-92272115D01*
X133491525Y-92256876D01*
X133490135Y-92255671D01*
X133482452Y-92254000D01*
X132488122Y-92254000D01*
X132474591Y-92257973D01*
X132473456Y-92265871D01*
X131483510Y-92265871D01*
X131483510Y-92051858D01*
X131503512Y-91983737D01*
X131557168Y-91937244D01*
X131627442Y-91927140D01*
X131653424Y-91933758D01*
X131803168Y-91989448D01*
X131877896Y-91999419D01*
X131975980Y-92012507D01*
X131975984Y-92012507D01*
X131982961Y-92013438D01*
X131989972Y-92012800D01*
X131989976Y-92012800D01*
X132132459Y-91999832D01*
X132163600Y-91996998D01*
X132170302Y-91994820D01*
X132170304Y-91994820D01*
X132329409Y-91943124D01*
X132329412Y-91943123D01*
X132336108Y-91940947D01*
X132466199Y-91863397D01*
X132486541Y-91851271D01*
X132551058Y-91833500D01*
X133739856Y-91833500D01*
X133858797Y-91818474D01*
X133859115Y-91820990D01*
G37*
%TD.AperFunction*%
%TA.AperFunction,Conductor*%
G36*
X134500316Y-81528502D02*
G01*
X134546809Y-81582158D01*
X134556913Y-81652432D01*
X134527419Y-81717012D01*
X134496618Y-81742785D01*
X134478074Y-81753817D01*
X134478068Y-81753821D01*
X134474814Y-81755757D01*
X134216244Y-81955243D01*
X133983513Y-82184347D01*
X133981149Y-82187314D01*
X133981146Y-82187317D01*
X133866365Y-82331358D01*
X133779991Y-82439751D01*
X133608626Y-82717757D01*
X133471902Y-83014336D01*
X133470741Y-83017940D01*
X133470741Y-83017941D01*
X133462196Y-83044477D01*
X133371797Y-83325192D01*
X133371079Y-83328903D01*
X133371078Y-83328907D01*
X133310482Y-83642105D01*
X133310481Y-83642114D01*
X133309763Y-83645824D01*
X133309496Y-83649600D01*
X133309495Y-83649605D01*
X133287027Y-83966935D01*
X133286698Y-83971585D01*
X133289290Y-84023652D01*
X133302701Y-84293031D01*
X133302936Y-84297759D01*
X133303577Y-84301490D01*
X133303578Y-84301498D01*
X133340731Y-84517715D01*
X133358241Y-84619619D01*
X133359329Y-84623258D01*
X133359330Y-84623261D01*
X133428267Y-84853767D01*
X133451814Y-84932504D01*
X133453327Y-84935975D01*
X133453329Y-84935981D01*
X133533807Y-85120627D01*
X133582297Y-85231881D01*
X133584220Y-85235152D01*
X133584222Y-85235156D01*
X133648575Y-85344624D01*
X133747802Y-85513414D01*
X133750103Y-85516429D01*
X133943631Y-85770012D01*
X133943636Y-85770017D01*
X133945931Y-85773025D01*
X134007931Y-85836670D01*
X134166442Y-85999385D01*
X134173814Y-86006953D01*
X134246635Y-86065607D01*
X134425196Y-86209431D01*
X134425201Y-86209435D01*
X134428149Y-86211809D01*
X134705253Y-86384627D01*
X135001112Y-86522903D01*
X135004721Y-86524086D01*
X135305382Y-86622648D01*
X135311440Y-86624634D01*
X135631742Y-86688346D01*
X135635514Y-86688633D01*
X135635522Y-86688634D01*
X135953602Y-86712829D01*
X135953607Y-86712829D01*
X135957379Y-86713116D01*
X136253446Y-86699930D01*
X136322387Y-86716881D01*
X136371221Y-86768415D01*
X136384442Y-86838170D01*
X136366310Y-86891921D01*
X136310160Y-86983014D01*
X136282885Y-87027262D01*
X136268768Y-87069824D01*
X136234271Y-87173831D01*
X136227203Y-87195139D01*
X136226503Y-87201975D01*
X136226502Y-87201978D01*
X136225564Y-87211134D01*
X136216500Y-87299600D01*
X136216500Y-88100400D01*
X136216837Y-88103646D01*
X136216837Y-88103650D01*
X136226263Y-88194492D01*
X136227474Y-88206166D01*
X136229655Y-88212702D01*
X136229655Y-88212704D01*
X136265228Y-88319327D01*
X136283450Y-88373946D01*
X136376522Y-88524348D01*
X136501697Y-88649305D01*
X136507927Y-88653145D01*
X136507928Y-88653146D01*
X136589864Y-88703652D01*
X136652262Y-88742115D01*
X136732005Y-88768564D01*
X136813611Y-88795632D01*
X136813613Y-88795632D01*
X136820139Y-88797797D01*
X136826975Y-88798497D01*
X136826978Y-88798498D01*
X136870031Y-88802909D01*
X136924600Y-88808500D01*
X138325400Y-88808500D01*
X138328641Y-88808164D01*
X138328655Y-88808163D01*
X138352498Y-88805689D01*
X138422319Y-88818555D01*
X138474101Y-88867126D01*
X138491500Y-88931016D01*
X138491500Y-92068949D01*
X138471498Y-92137070D01*
X138417842Y-92183563D01*
X138352657Y-92194293D01*
X138325400Y-92191500D01*
X136924600Y-92191500D01*
X136921354Y-92191837D01*
X136921350Y-92191837D01*
X136825692Y-92201762D01*
X136825688Y-92201763D01*
X136818834Y-92202474D01*
X136812298Y-92204655D01*
X136812296Y-92204655D01*
X136709182Y-92239057D01*
X136651054Y-92258450D01*
X136500652Y-92351522D01*
X136375695Y-92476697D01*
X136371855Y-92482927D01*
X136371854Y-92482928D01*
X136305546Y-92590500D01*
X136282885Y-92627262D01*
X136279092Y-92638696D01*
X136238664Y-92697054D01*
X136173100Y-92724292D01*
X136103218Y-92711759D01*
X136051205Y-92663435D01*
X136033500Y-92599028D01*
X136033500Y-91864854D01*
X136053502Y-91796733D01*
X136064236Y-91783737D01*
X136063637Y-91783235D01*
X136068161Y-91777843D01*
X136073266Y-91772982D01*
X136173643Y-91621902D01*
X136222247Y-91493952D01*
X136235555Y-91458920D01*
X136235556Y-91458918D01*
X136238055Y-91452338D01*
X136240132Y-91437557D01*
X136262748Y-91276639D01*
X136262748Y-91276636D01*
X136263299Y-91272717D01*
X136263616Y-91250000D01*
X136243397Y-91069745D01*
X136241080Y-91063091D01*
X136186064Y-90905106D01*
X136186062Y-90905103D01*
X136183745Y-90898448D01*
X136087626Y-90744624D01*
X136082395Y-90739356D01*
X135964778Y-90620915D01*
X135964774Y-90620912D01*
X135959815Y-90615918D01*
X135921019Y-90591297D01*
X135871718Y-90560010D01*
X135806666Y-90518727D01*
X135757644Y-90501271D01*
X135642425Y-90460243D01*
X135642420Y-90460242D01*
X135635790Y-90457881D01*
X135628802Y-90457048D01*
X135628799Y-90457047D01*
X135505698Y-90442368D01*
X135455680Y-90436404D01*
X135448677Y-90437140D01*
X135448676Y-90437140D01*
X135282288Y-90454628D01*
X135282286Y-90454629D01*
X135275288Y-90455364D01*
X135212020Y-90476902D01*
X135167854Y-90491937D01*
X135096922Y-90494955D01*
X135035618Y-90459144D01*
X135003406Y-90395876D01*
X135006252Y-90337506D01*
X135028768Y-90260008D01*
X135028769Y-90260003D01*
X135030562Y-90253831D01*
X135033500Y-90216502D01*
X135033500Y-89783498D01*
X135030562Y-89746169D01*
X134984145Y-89586399D01*
X134975247Y-89571353D01*
X134970980Y-89564137D01*
X134953522Y-89495321D01*
X134970980Y-89435863D01*
X134980109Y-89420426D01*
X134980110Y-89420424D01*
X134984145Y-89413601D01*
X135030562Y-89253831D01*
X135033500Y-89216502D01*
X135033500Y-88783498D01*
X135030562Y-88746169D01*
X134984145Y-88586399D01*
X134929023Y-88493193D01*
X134903491Y-88450020D01*
X134903489Y-88450017D01*
X134899453Y-88443193D01*
X134781807Y-88325547D01*
X134774983Y-88321511D01*
X134774980Y-88321509D01*
X134645427Y-88244892D01*
X134645428Y-88244892D01*
X134638601Y-88240855D01*
X134630990Y-88238644D01*
X134630988Y-88238643D01*
X134544994Y-88213660D01*
X134478831Y-88194438D01*
X134472426Y-88193934D01*
X134472421Y-88193933D01*
X134443958Y-88191693D01*
X134443950Y-88191693D01*
X134441502Y-88191500D01*
X133058498Y-88191500D01*
X133056050Y-88191693D01*
X133056042Y-88191693D01*
X133027579Y-88193933D01*
X133027574Y-88193934D01*
X133021169Y-88194438D01*
X132955006Y-88213660D01*
X132869012Y-88238643D01*
X132869010Y-88238644D01*
X132861399Y-88240855D01*
X132854572Y-88244892D01*
X132854573Y-88244892D01*
X132725020Y-88321509D01*
X132725017Y-88321511D01*
X132718193Y-88325547D01*
X132712585Y-88331155D01*
X132706325Y-88336011D01*
X132705156Y-88334504D01*
X132651833Y-88363621D01*
X132625050Y-88366500D01*
X132078767Y-88366500D01*
X132067584Y-88365973D01*
X132060091Y-88364298D01*
X132052165Y-88364547D01*
X132052164Y-88364547D01*
X131992001Y-88366438D01*
X131988043Y-88366500D01*
X131960144Y-88366500D01*
X131956154Y-88367004D01*
X131944320Y-88367936D01*
X131900111Y-88369326D01*
X131892497Y-88371538D01*
X131892492Y-88371539D01*
X131880659Y-88374977D01*
X131861296Y-88378988D01*
X131841203Y-88381526D01*
X131833836Y-88384443D01*
X131833831Y-88384444D01*
X131800092Y-88397802D01*
X131788865Y-88401646D01*
X131746407Y-88413982D01*
X131739581Y-88418019D01*
X131728972Y-88424293D01*
X131711224Y-88432988D01*
X131692383Y-88440448D01*
X131685967Y-88445110D01*
X131685966Y-88445110D01*
X131656613Y-88466436D01*
X131646693Y-88472952D01*
X131615465Y-88491420D01*
X131615462Y-88491422D01*
X131608638Y-88495458D01*
X131594317Y-88509779D01*
X131579284Y-88522619D01*
X131562893Y-88534528D01*
X131557843Y-88540632D01*
X131557838Y-88540637D01*
X131534707Y-88568598D01*
X131526717Y-88577379D01*
X130888066Y-89216029D01*
X130825754Y-89250054D01*
X130754938Y-89244989D01*
X130720021Y-89225131D01*
X130714777Y-89220915D01*
X130709815Y-89215918D01*
X130698697Y-89208862D01*
X130594665Y-89142842D01*
X130556666Y-89118727D01*
X130527463Y-89108328D01*
X130392425Y-89060243D01*
X130392420Y-89060242D01*
X130385790Y-89057881D01*
X130378802Y-89057048D01*
X130378799Y-89057047D01*
X130255698Y-89042368D01*
X130205680Y-89036404D01*
X130198677Y-89037140D01*
X130198676Y-89037140D01*
X130032288Y-89054628D01*
X130032286Y-89054629D01*
X130025288Y-89055364D01*
X129853579Y-89113818D01*
X129717039Y-89197819D01*
X129651019Y-89216500D01*
X128009500Y-89216500D01*
X127941379Y-89196498D01*
X127894886Y-89142842D01*
X127883500Y-89090500D01*
X127883500Y-87418767D01*
X127884027Y-87407584D01*
X127885702Y-87400091D01*
X127885215Y-87384577D01*
X127883562Y-87332001D01*
X127883500Y-87328043D01*
X127883500Y-87300144D01*
X127882996Y-87296153D01*
X127882063Y-87284311D01*
X127882001Y-87282312D01*
X127880674Y-87240111D01*
X127878462Y-87232497D01*
X127878461Y-87232492D01*
X127875023Y-87220659D01*
X127871012Y-87201295D01*
X127869467Y-87189064D01*
X127868474Y-87181203D01*
X127865557Y-87173836D01*
X127865556Y-87173831D01*
X127852198Y-87140092D01*
X127848354Y-87128865D01*
X127838230Y-87094022D01*
X127836018Y-87086407D01*
X127825707Y-87068972D01*
X127817012Y-87051224D01*
X127809552Y-87032383D01*
X127783564Y-86996613D01*
X127777048Y-86986693D01*
X127758580Y-86955465D01*
X127758578Y-86955462D01*
X127754542Y-86948638D01*
X127740221Y-86934317D01*
X127727380Y-86919283D01*
X127726093Y-86917512D01*
X127715472Y-86902893D01*
X127681395Y-86874702D01*
X127672616Y-86866712D01*
X124963652Y-84157747D01*
X124956112Y-84149461D01*
X124952000Y-84142982D01*
X124902348Y-84096356D01*
X124899507Y-84093602D01*
X124879770Y-84073865D01*
X124876573Y-84071385D01*
X124867551Y-84063680D01*
X124841100Y-84038841D01*
X124835321Y-84033414D01*
X124828375Y-84029595D01*
X124828372Y-84029593D01*
X124817566Y-84023652D01*
X124801047Y-84012801D01*
X124800583Y-84012441D01*
X124785041Y-84000386D01*
X124777772Y-83997241D01*
X124777768Y-83997238D01*
X124744463Y-83982826D01*
X124733813Y-83977609D01*
X124695060Y-83956305D01*
X124675437Y-83951267D01*
X124656734Y-83944863D01*
X124645420Y-83939967D01*
X124645419Y-83939967D01*
X124638145Y-83936819D01*
X124630322Y-83935580D01*
X124630312Y-83935577D01*
X124594476Y-83929901D01*
X124582856Y-83927495D01*
X124547711Y-83918472D01*
X124547710Y-83918472D01*
X124540030Y-83916500D01*
X124519776Y-83916500D01*
X124500065Y-83914949D01*
X124487886Y-83913020D01*
X124480057Y-83911780D01*
X124472165Y-83912526D01*
X124436039Y-83915941D01*
X124424181Y-83916500D01*
X122701415Y-83916500D01*
X122633294Y-83896498D01*
X122612320Y-83879595D01*
X122587763Y-83855038D01*
X122445100Y-83770668D01*
X122437489Y-83768457D01*
X122437487Y-83768456D01*
X122386804Y-83753732D01*
X122285937Y-83724427D01*
X122279532Y-83723923D01*
X122279527Y-83723922D01*
X122251203Y-83721693D01*
X122251195Y-83721693D01*
X122248747Y-83721500D01*
X122035130Y-83721500D01*
X121821254Y-83721501D01*
X121784063Y-83724427D01*
X121685983Y-83752922D01*
X121632513Y-83768456D01*
X121632511Y-83768457D01*
X121624900Y-83770668D01*
X121614140Y-83777032D01*
X121545326Y-83794492D01*
X121485861Y-83777032D01*
X121475100Y-83770668D01*
X121467489Y-83768457D01*
X121467487Y-83768456D01*
X121416804Y-83753732D01*
X121315937Y-83724427D01*
X121309532Y-83723923D01*
X121309527Y-83723922D01*
X121281203Y-83721693D01*
X121281195Y-83721693D01*
X121278747Y-83721500D01*
X121065130Y-83721500D01*
X120851254Y-83721501D01*
X120814063Y-83724427D01*
X120715983Y-83752922D01*
X120662513Y-83768456D01*
X120662511Y-83768457D01*
X120654900Y-83770668D01*
X120512237Y-83855038D01*
X120489095Y-83878180D01*
X120426783Y-83912206D01*
X120355968Y-83907141D01*
X120310905Y-83878180D01*
X120287763Y-83855038D01*
X120145100Y-83770668D01*
X120137489Y-83768457D01*
X120137487Y-83768456D01*
X120086804Y-83753732D01*
X119985937Y-83724427D01*
X119979532Y-83723923D01*
X119979527Y-83723922D01*
X119951203Y-83721693D01*
X119951195Y-83721693D01*
X119948747Y-83721500D01*
X119735130Y-83721500D01*
X119521254Y-83721501D01*
X119484063Y-83724427D01*
X119385983Y-83752922D01*
X119332513Y-83768456D01*
X119332511Y-83768457D01*
X119324900Y-83770668D01*
X119318075Y-83774704D01*
X119318071Y-83774706D01*
X119313645Y-83777323D01*
X119244829Y-83794781D01*
X119185372Y-83777323D01*
X119181724Y-83775166D01*
X119167287Y-83768918D01*
X119036395Y-83730891D01*
X119022295Y-83730931D01*
X119019000Y-83738201D01*
X119019000Y-84015614D01*
X119001453Y-84079753D01*
X118984706Y-84108071D01*
X118984704Y-84108075D01*
X118980668Y-84114900D01*
X118978457Y-84122511D01*
X118978456Y-84122513D01*
X118972509Y-84142982D01*
X118934427Y-84274063D01*
X118933923Y-84280468D01*
X118933922Y-84280473D01*
X118931693Y-84308797D01*
X118931500Y-84311253D01*
X118931501Y-84788746D01*
X118934427Y-84825937D01*
X118980668Y-84985100D01*
X118984704Y-84991925D01*
X118984706Y-84991929D01*
X119001453Y-85020247D01*
X119019000Y-85084386D01*
X119019000Y-85356048D01*
X119022973Y-85369579D01*
X119030871Y-85370714D01*
X119167287Y-85331082D01*
X119181724Y-85324834D01*
X119185372Y-85322677D01*
X119188603Y-85321857D01*
X119188999Y-85321686D01*
X119189027Y-85321750D01*
X119254189Y-85305219D01*
X119313645Y-85322677D01*
X119318071Y-85325294D01*
X119318075Y-85325296D01*
X119324900Y-85329332D01*
X119332510Y-85331543D01*
X119332515Y-85331545D01*
X119400652Y-85351340D01*
X119460488Y-85389553D01*
X119490166Y-85454049D01*
X119491500Y-85472337D01*
X119491500Y-85816000D01*
X119471498Y-85884121D01*
X119417842Y-85930614D01*
X119365501Y-85942000D01*
X119205332Y-85942001D01*
X119198507Y-85942371D01*
X119163607Y-85946161D01*
X119136397Y-85946161D01*
X119101490Y-85942369D01*
X119094671Y-85942000D01*
X119068115Y-85942000D01*
X119052876Y-85946475D01*
X119051671Y-85947865D01*
X119050000Y-85955548D01*
X119050000Y-86091116D01*
X119029998Y-86159237D01*
X118976342Y-86205730D01*
X118906068Y-86215834D01*
X118841488Y-86186340D01*
X118823174Y-86166681D01*
X118768642Y-86093919D01*
X118763261Y-86086739D01*
X118646705Y-85999385D01*
X118646921Y-85999096D01*
X118600861Y-85952935D01*
X118598647Y-85947582D01*
X118594135Y-85943672D01*
X118586452Y-85942001D01*
X118555330Y-85942001D01*
X118548512Y-85942370D01*
X118515933Y-85945909D01*
X118488720Y-85945909D01*
X118448134Y-85941500D01*
X117901866Y-85941500D01*
X117898471Y-85941869D01*
X117898467Y-85941869D01*
X117872469Y-85944693D01*
X117863606Y-85945656D01*
X117836394Y-85945656D01*
X117827531Y-85944693D01*
X117801533Y-85941869D01*
X117801529Y-85941869D01*
X117798134Y-85941500D01*
X117251866Y-85941500D01*
X117248471Y-85941869D01*
X117248467Y-85941869D01*
X117222469Y-85944693D01*
X117213606Y-85945656D01*
X117186394Y-85945656D01*
X117177531Y-85944693D01*
X117151533Y-85941869D01*
X117151529Y-85941869D01*
X117148134Y-85941500D01*
X116601866Y-85941500D01*
X116539684Y-85948255D01*
X116403295Y-85999385D01*
X116286739Y-86086739D01*
X116199385Y-86203295D01*
X116148255Y-86339684D01*
X116141500Y-86401866D01*
X116141500Y-86719625D01*
X116121498Y-86787746D01*
X116067842Y-86834239D01*
X116000581Y-86844739D01*
X115958412Y-86839711D01*
X115930680Y-86836404D01*
X115923677Y-86837140D01*
X115923676Y-86837140D01*
X115757288Y-86854628D01*
X115757286Y-86854629D01*
X115750288Y-86855364D01*
X115578579Y-86913818D01*
X115556660Y-86927303D01*
X115430095Y-87005166D01*
X115430092Y-87005168D01*
X115424088Y-87008862D01*
X115419053Y-87013793D01*
X115419050Y-87013795D01*
X115325630Y-87105279D01*
X115294493Y-87135771D01*
X115196235Y-87288238D01*
X115193826Y-87294858D01*
X115193824Y-87294861D01*
X115151938Y-87409942D01*
X115134197Y-87458685D01*
X115111463Y-87638640D01*
X115129163Y-87819160D01*
X115186418Y-87991273D01*
X115190065Y-87997295D01*
X115190066Y-87997297D01*
X115274203Y-88136224D01*
X115280380Y-88146424D01*
X115285274Y-88151492D01*
X115286916Y-88153624D01*
X115312630Y-88219801D01*
X115298485Y-88289374D01*
X115248971Y-88340255D01*
X115187085Y-88356500D01*
X115116287Y-88356500D01*
X115048166Y-88336498D01*
X115039058Y-88330057D01*
X115033368Y-88325643D01*
X115027763Y-88320038D01*
X115020947Y-88316007D01*
X115020943Y-88316004D01*
X114891923Y-88239703D01*
X114885100Y-88235668D01*
X114877489Y-88233457D01*
X114877487Y-88233456D01*
X114826804Y-88218732D01*
X114725937Y-88189427D01*
X114719532Y-88188923D01*
X114719527Y-88188922D01*
X114691203Y-88186693D01*
X114691195Y-88186693D01*
X114688747Y-88186500D01*
X114450145Y-88186500D01*
X114211254Y-88186501D01*
X114174063Y-88189427D01*
X114116447Y-88206166D01*
X114022516Y-88233455D01*
X114022514Y-88233456D01*
X114014900Y-88235668D01*
X114008074Y-88239705D01*
X114007066Y-88240141D01*
X113936604Y-88248837D01*
X113906236Y-88234227D01*
X113904389Y-88238303D01*
X113861799Y-88219000D01*
X113584386Y-88219000D01*
X113520247Y-88201453D01*
X113491929Y-88184706D01*
X113491925Y-88184704D01*
X113485100Y-88180668D01*
X113477489Y-88178457D01*
X113477487Y-88178456D01*
X113426804Y-88163732D01*
X113325937Y-88134427D01*
X113319532Y-88133923D01*
X113319527Y-88133922D01*
X113291203Y-88131693D01*
X113291195Y-88131693D01*
X113288747Y-88131500D01*
X113050145Y-88131500D01*
X112811254Y-88131501D01*
X112774063Y-88134427D01*
X112675983Y-88162922D01*
X112622513Y-88178456D01*
X112622511Y-88178457D01*
X112614900Y-88180668D01*
X112608075Y-88184704D01*
X112608071Y-88184706D01*
X112579753Y-88201453D01*
X112515614Y-88219000D01*
X112243954Y-88219000D01*
X112228229Y-88223617D01*
X112157232Y-88223616D01*
X112128594Y-88211174D01*
X112066927Y-88174705D01*
X112066924Y-88174704D01*
X112060100Y-88170668D01*
X112052489Y-88168457D01*
X112052487Y-88168456D01*
X111976651Y-88146424D01*
X111900937Y-88124427D01*
X111894532Y-88123923D01*
X111894527Y-88123922D01*
X111866203Y-88121693D01*
X111866195Y-88121693D01*
X111863747Y-88121500D01*
X111650130Y-88121500D01*
X111436254Y-88121501D01*
X111399063Y-88124427D01*
X111323349Y-88146424D01*
X111247513Y-88168456D01*
X111247511Y-88168457D01*
X111239900Y-88170668D01*
X111229140Y-88177032D01*
X111160326Y-88194492D01*
X111100861Y-88177032D01*
X111090100Y-88170668D01*
X111082489Y-88168457D01*
X111082487Y-88168456D01*
X111006651Y-88146424D01*
X110930937Y-88124427D01*
X110924532Y-88123923D01*
X110924527Y-88123922D01*
X110896203Y-88121693D01*
X110896195Y-88121693D01*
X110893747Y-88121500D01*
X110680130Y-88121500D01*
X110466254Y-88121501D01*
X110429063Y-88124427D01*
X110353349Y-88146424D01*
X110277513Y-88168456D01*
X110277511Y-88168457D01*
X110269900Y-88170668D01*
X110263079Y-88174702D01*
X110263077Y-88174703D01*
X110139101Y-88248022D01*
X110127237Y-88255038D01*
X110102680Y-88279595D01*
X110040368Y-88313621D01*
X110013585Y-88316500D01*
X109628767Y-88316500D01*
X109617584Y-88315973D01*
X109610091Y-88314298D01*
X109602165Y-88314547D01*
X109602164Y-88314547D01*
X109542014Y-88316438D01*
X109538055Y-88316500D01*
X109510144Y-88316500D01*
X109506210Y-88316997D01*
X109506209Y-88316997D01*
X109506144Y-88317005D01*
X109494307Y-88317938D01*
X109462490Y-88318938D01*
X109458029Y-88319078D01*
X109450110Y-88319327D01*
X109437959Y-88322857D01*
X109430658Y-88324978D01*
X109411306Y-88328986D01*
X109404235Y-88329880D01*
X109391203Y-88331526D01*
X109383836Y-88334443D01*
X109376155Y-88336415D01*
X109375663Y-88334498D01*
X109315419Y-88340023D01*
X109252438Y-88307254D01*
X109217170Y-88245636D01*
X109213729Y-88216390D01*
X109213729Y-88109992D01*
X109213731Y-88109222D01*
X109214160Y-88039069D01*
X109214160Y-88039063D01*
X109214187Y-88034583D01*
X109194420Y-87890273D01*
X109155063Y-87752564D01*
X109128689Y-87693605D01*
X112230891Y-87693605D01*
X112230931Y-87707705D01*
X112238201Y-87711000D01*
X112777885Y-87711000D01*
X112793124Y-87706525D01*
X112794329Y-87705135D01*
X112796000Y-87697452D01*
X112796000Y-87692885D01*
X113304000Y-87692885D01*
X113308475Y-87708124D01*
X113309865Y-87709329D01*
X113317548Y-87711000D01*
X113856048Y-87711000D01*
X113869579Y-87707027D01*
X113870714Y-87699129D01*
X113831082Y-87562713D01*
X113824834Y-87548276D01*
X113748601Y-87419373D01*
X113738952Y-87406935D01*
X113633065Y-87301048D01*
X113620627Y-87291399D01*
X113491724Y-87215166D01*
X113477287Y-87208918D01*
X113332043Y-87166721D01*
X113321365Y-87164771D01*
X113306969Y-87167795D01*
X113304000Y-87179258D01*
X113304000Y-87692885D01*
X112796000Y-87692885D01*
X112796000Y-87181319D01*
X112791656Y-87166524D01*
X112780160Y-87164492D01*
X112767957Y-87166721D01*
X112622713Y-87208918D01*
X112608276Y-87215166D01*
X112479373Y-87291399D01*
X112466935Y-87301048D01*
X112361048Y-87406935D01*
X112351399Y-87419373D01*
X112275166Y-87548276D01*
X112268918Y-87562713D01*
X112230891Y-87693605D01*
X109128689Y-87693605D01*
X109095586Y-87619602D01*
X109093200Y-87615820D01*
X109093196Y-87615813D01*
X109038636Y-87529341D01*
X109019160Y-87498474D01*
X108924754Y-87387548D01*
X108817403Y-87292740D01*
X108810550Y-87288238D01*
X108699414Y-87215236D01*
X108695666Y-87212774D01*
X108691609Y-87210869D01*
X108691605Y-87210867D01*
X108570076Y-87153809D01*
X108566021Y-87151905D01*
X108561738Y-87150596D01*
X108561734Y-87150594D01*
X108431011Y-87110628D01*
X108426723Y-87109317D01*
X108422300Y-87108628D01*
X108422294Y-87108627D01*
X108362432Y-87099307D01*
X108285205Y-87087283D01*
X108280738Y-87087228D01*
X108280733Y-87087228D01*
X108207169Y-87086329D01*
X108139562Y-87085503D01*
X108135277Y-87086063D01*
X108128240Y-87086271D01*
X107738953Y-87086271D01*
X107738953Y-87086273D01*
X107735986Y-87086682D01*
X107639562Y-87085504D01*
X107635120Y-87086085D01*
X107635117Y-87086085D01*
X107501998Y-87103492D01*
X107501996Y-87103492D01*
X107497548Y-87104074D01*
X107357252Y-87143245D01*
X107226159Y-87200928D01*
X107157228Y-87243834D01*
X107106306Y-87275530D01*
X107106302Y-87275533D01*
X107102504Y-87277897D01*
X107099076Y-87280779D01*
X107099074Y-87280780D01*
X107017202Y-87349600D01*
X106992869Y-87370054D01*
X106989881Y-87373396D01*
X106937749Y-87431701D01*
X106877433Y-87469151D01*
X106876883Y-87469270D01*
X106875111Y-87469326D01*
X106870651Y-87470622D01*
X106870641Y-87470624D01*
X106855659Y-87474977D01*
X106836296Y-87478988D01*
X106816203Y-87481526D01*
X106808836Y-87484443D01*
X106808831Y-87484444D01*
X106775092Y-87497802D01*
X106763865Y-87501646D01*
X106721407Y-87513982D01*
X106714581Y-87518019D01*
X106703972Y-87524293D01*
X106686224Y-87532988D01*
X106667383Y-87540448D01*
X106660967Y-87545110D01*
X106660966Y-87545110D01*
X106631613Y-87566436D01*
X106621693Y-87572952D01*
X106590465Y-87591420D01*
X106590462Y-87591422D01*
X106583638Y-87595458D01*
X106569317Y-87609779D01*
X106554284Y-87622619D01*
X106537893Y-87634528D01*
X106532842Y-87640633D01*
X106532837Y-87640638D01*
X106509701Y-87668604D01*
X106501713Y-87677382D01*
X105974500Y-88204595D01*
X105912188Y-88238621D01*
X105885405Y-88241500D01*
X104558498Y-88241500D01*
X104556050Y-88241693D01*
X104556042Y-88241693D01*
X104527579Y-88243933D01*
X104527574Y-88243934D01*
X104521169Y-88244438D01*
X104421231Y-88273472D01*
X104369012Y-88288643D01*
X104369010Y-88288644D01*
X104361399Y-88290855D01*
X104354572Y-88294892D01*
X104354573Y-88294892D01*
X104225020Y-88371509D01*
X104225017Y-88371511D01*
X104218193Y-88375547D01*
X104100547Y-88493193D01*
X104096513Y-88500014D01*
X104064637Y-88553914D01*
X104043195Y-88580676D01*
X104037893Y-88584528D01*
X104032844Y-88590631D01*
X104032841Y-88590634D01*
X104009707Y-88618598D01*
X104001717Y-88627379D01*
X103057742Y-89571353D01*
X103049463Y-89578887D01*
X103042982Y-89583000D01*
X102996357Y-89632651D01*
X102993602Y-89635493D01*
X102973865Y-89655230D01*
X102971385Y-89658427D01*
X102963682Y-89667447D01*
X102933414Y-89699679D01*
X102929595Y-89706625D01*
X102929593Y-89706628D01*
X102923652Y-89717434D01*
X102912801Y-89733953D01*
X102900386Y-89749959D01*
X102897241Y-89757228D01*
X102897238Y-89757232D01*
X102882826Y-89790537D01*
X102877609Y-89801187D01*
X102856305Y-89839940D01*
X102854334Y-89847615D01*
X102854334Y-89847616D01*
X102851267Y-89859562D01*
X102844863Y-89878266D01*
X102836819Y-89896855D01*
X102835580Y-89904678D01*
X102835577Y-89904688D01*
X102829901Y-89940524D01*
X102827495Y-89952144D01*
X102816500Y-89994970D01*
X102816500Y-90015224D01*
X102814949Y-90034934D01*
X102811780Y-90054943D01*
X102812526Y-90062835D01*
X102815941Y-90098961D01*
X102816500Y-90110819D01*
X102816500Y-92414521D01*
X102796498Y-92482642D01*
X102742842Y-92529135D01*
X102672568Y-92539239D01*
X102607988Y-92509745D01*
X102601482Y-92503694D01*
X102503483Y-92405866D01*
X102498303Y-92400695D01*
X102347738Y-92307885D01*
X102244965Y-92273797D01*
X102186389Y-92254368D01*
X102186387Y-92254368D01*
X102179861Y-92252203D01*
X102173025Y-92251503D01*
X102173022Y-92251502D01*
X102129969Y-92247091D01*
X102075400Y-92241500D01*
X100674600Y-92241500D01*
X100671359Y-92241836D01*
X100671345Y-92241837D01*
X100647502Y-92244311D01*
X100577681Y-92231445D01*
X100525899Y-92182874D01*
X100508500Y-92118984D01*
X100508500Y-88981051D01*
X100528502Y-88912930D01*
X100582158Y-88866437D01*
X100647343Y-88855707D01*
X100674600Y-88858500D01*
X102075400Y-88858500D01*
X102078646Y-88858163D01*
X102078650Y-88858163D01*
X102174308Y-88848238D01*
X102174312Y-88848237D01*
X102181166Y-88847526D01*
X102187702Y-88845345D01*
X102187704Y-88845345D01*
X102328120Y-88798498D01*
X102348946Y-88791550D01*
X102499348Y-88698478D01*
X102624305Y-88573303D01*
X102628146Y-88567072D01*
X102713275Y-88428968D01*
X102713276Y-88428966D01*
X102717115Y-88422738D01*
X102746390Y-88334476D01*
X102770632Y-88261389D01*
X102770632Y-88261387D01*
X102772797Y-88254861D01*
X102773819Y-88244892D01*
X102781650Y-88168456D01*
X102783500Y-88150400D01*
X102783500Y-87349600D01*
X102781674Y-87332001D01*
X102773238Y-87250692D01*
X102773237Y-87250688D01*
X102772526Y-87243834D01*
X102761617Y-87211134D01*
X102718868Y-87083002D01*
X102716550Y-87076054D01*
X102623478Y-86925652D01*
X102618297Y-86920480D01*
X102618293Y-86920475D01*
X102606535Y-86908738D01*
X102572454Y-86846456D01*
X102577456Y-86775636D01*
X102619953Y-86718763D01*
X102686451Y-86693893D01*
X102705108Y-86693927D01*
X102953602Y-86712829D01*
X102953607Y-86712829D01*
X102957379Y-86713116D01*
X103283633Y-86698586D01*
X103289844Y-86697552D01*
X103602037Y-86645590D01*
X103602042Y-86645589D01*
X103605778Y-86644967D01*
X103919149Y-86553034D01*
X103922616Y-86551544D01*
X103922620Y-86551543D01*
X104215721Y-86425616D01*
X104215723Y-86425615D01*
X104219205Y-86424119D01*
X104501601Y-86260091D01*
X104762245Y-86063324D01*
X104948140Y-85884121D01*
X104994632Y-85839303D01*
X104994635Y-85839300D01*
X104997363Y-85836670D01*
X105133261Y-85669745D01*
X105201155Y-85586351D01*
X105201158Y-85586347D01*
X105203549Y-85583410D01*
X105257156Y-85498448D01*
X105375788Y-85310428D01*
X105375790Y-85310425D01*
X105377815Y-85307215D01*
X105517638Y-85012084D01*
X105526641Y-84985100D01*
X105619790Y-84705897D01*
X105619792Y-84705891D01*
X105620992Y-84702293D01*
X105672933Y-84448134D01*
X114291500Y-84448134D01*
X114298255Y-84510316D01*
X114349385Y-84646705D01*
X114436739Y-84763261D01*
X114553295Y-84850615D01*
X114689684Y-84901745D01*
X114751866Y-84908500D01*
X116548134Y-84908500D01*
X116610316Y-84901745D01*
X116746705Y-84850615D01*
X116787768Y-84819840D01*
X117964492Y-84819840D01*
X117966721Y-84832043D01*
X118008918Y-84977287D01*
X118015166Y-84991724D01*
X118091399Y-85120627D01*
X118101048Y-85133065D01*
X118206935Y-85238952D01*
X118219373Y-85248601D01*
X118348276Y-85324834D01*
X118362713Y-85331082D01*
X118493605Y-85369109D01*
X118507705Y-85369069D01*
X118511000Y-85361799D01*
X118511000Y-84822115D01*
X118506525Y-84806876D01*
X118505135Y-84805671D01*
X118497452Y-84804000D01*
X117981319Y-84804000D01*
X117966524Y-84808344D01*
X117964492Y-84819840D01*
X116787768Y-84819840D01*
X116863261Y-84763261D01*
X116950615Y-84646705D01*
X117001745Y-84510316D01*
X117008500Y-84448134D01*
X117008500Y-84278635D01*
X117964771Y-84278635D01*
X117967795Y-84293031D01*
X117979258Y-84296000D01*
X118492885Y-84296000D01*
X118508124Y-84291525D01*
X118509329Y-84290135D01*
X118511000Y-84282452D01*
X118511000Y-83743952D01*
X118507027Y-83730421D01*
X118499129Y-83729286D01*
X118362713Y-83768918D01*
X118348276Y-83775166D01*
X118219373Y-83851399D01*
X118206935Y-83861048D01*
X118101048Y-83966935D01*
X118091399Y-83979373D01*
X118015166Y-84108276D01*
X118008918Y-84122713D01*
X117966721Y-84267957D01*
X117964771Y-84278635D01*
X117008500Y-84278635D01*
X117008500Y-82651866D01*
X117001745Y-82589684D01*
X116950615Y-82453295D01*
X116863261Y-82336739D01*
X116746705Y-82249385D01*
X116610316Y-82198255D01*
X116548134Y-82191500D01*
X114751866Y-82191500D01*
X114689684Y-82198255D01*
X114553295Y-82249385D01*
X114436739Y-82336739D01*
X114349385Y-82453295D01*
X114298255Y-82589684D01*
X114291500Y-82651866D01*
X114291500Y-84448134D01*
X105672933Y-84448134D01*
X105686381Y-84382329D01*
X105691962Y-84313722D01*
X105707513Y-84122513D01*
X105712856Y-84056826D01*
X105713451Y-84000000D01*
X105713285Y-83997238D01*
X105694026Y-83677793D01*
X105694026Y-83677789D01*
X105693798Y-83674015D01*
X105688650Y-83645824D01*
X105635805Y-83356473D01*
X105635804Y-83356469D01*
X105635125Y-83352751D01*
X105627722Y-83328907D01*
X105539404Y-83044477D01*
X105538282Y-83040863D01*
X105404670Y-82742869D01*
X105236226Y-82463084D01*
X105233899Y-82460100D01*
X105233894Y-82460093D01*
X105037726Y-82208558D01*
X105037724Y-82208556D01*
X105035390Y-82205563D01*
X104805070Y-81974034D01*
X104548603Y-81771852D01*
X104522184Y-81755757D01*
X104499774Y-81742105D01*
X104452005Y-81689582D01*
X104440216Y-81619571D01*
X104468148Y-81554300D01*
X104526934Y-81514492D01*
X104565328Y-81508500D01*
X134432195Y-81508500D01*
X134500316Y-81528502D01*
G37*
%TD.AperFunction*%
%TA.AperFunction,Conductor*%
G36*
X124213527Y-85203502D02*
G01*
X124234501Y-85220405D01*
X126579595Y-87565500D01*
X126613621Y-87627812D01*
X126616500Y-87654595D01*
X126616500Y-89303331D01*
X126596411Y-89371586D01*
X126525054Y-89482310D01*
X126525050Y-89482319D01*
X126521235Y-89488238D01*
X126459197Y-89658685D01*
X126436463Y-89838640D01*
X126454163Y-90019160D01*
X126511418Y-90191273D01*
X126605380Y-90346424D01*
X126610269Y-90351487D01*
X126610270Y-90351488D01*
X126670376Y-90413729D01*
X126731382Y-90476902D01*
X126768622Y-90501271D01*
X126870205Y-90567745D01*
X126883159Y-90576222D01*
X126889763Y-90578678D01*
X126889765Y-90578679D01*
X127046558Y-90636990D01*
X127046560Y-90636990D01*
X127053168Y-90639448D01*
X127136995Y-90650633D01*
X127225980Y-90662507D01*
X127225984Y-90662507D01*
X127232961Y-90663438D01*
X127239972Y-90662800D01*
X127239976Y-90662800D01*
X127382459Y-90649832D01*
X127413600Y-90646998D01*
X127420302Y-90644820D01*
X127420304Y-90644820D01*
X127579409Y-90593124D01*
X127579412Y-90593123D01*
X127586108Y-90590947D01*
X127715493Y-90513818D01*
X127736541Y-90501271D01*
X127801058Y-90483500D01*
X129482253Y-90483500D01*
X129550374Y-90503502D01*
X129596867Y-90557158D01*
X129606702Y-90629212D01*
X129604912Y-90640513D01*
X129602505Y-90652134D01*
X129591510Y-90694960D01*
X129591510Y-90715214D01*
X129589959Y-90734924D01*
X129586790Y-90754933D01*
X129589491Y-90783501D01*
X129590951Y-90798951D01*
X129591510Y-90810809D01*
X129591510Y-92124443D01*
X129571508Y-92192564D01*
X129517852Y-92239057D01*
X129478681Y-92249753D01*
X129432298Y-92254628D01*
X129432296Y-92254628D01*
X129425298Y-92255364D01*
X129392586Y-92266500D01*
X129385606Y-92268876D01*
X129309849Y-92270595D01*
X129263216Y-92257047D01*
X129157114Y-92226221D01*
X129157109Y-92226220D01*
X129150937Y-92224427D01*
X129144532Y-92223923D01*
X129144527Y-92223922D01*
X129116203Y-92221693D01*
X129116195Y-92221693D01*
X129113747Y-92221500D01*
X128900130Y-92221500D01*
X128686254Y-92221501D01*
X128649063Y-92224427D01*
X128582102Y-92243881D01*
X128497513Y-92268456D01*
X128497511Y-92268457D01*
X128489900Y-92270668D01*
X128479140Y-92277032D01*
X128410326Y-92294492D01*
X128350861Y-92277032D01*
X128340100Y-92270668D01*
X128332489Y-92268457D01*
X128332487Y-92268456D01*
X128247898Y-92243881D01*
X128180937Y-92224427D01*
X128174532Y-92223923D01*
X128174527Y-92223922D01*
X128146203Y-92221693D01*
X128146195Y-92221693D01*
X128143747Y-92221500D01*
X127930130Y-92221500D01*
X127716254Y-92221501D01*
X127679063Y-92224427D01*
X127612102Y-92243881D01*
X127527513Y-92268456D01*
X127527511Y-92268457D01*
X127519900Y-92270668D01*
X127513079Y-92274702D01*
X127505800Y-92277852D01*
X127505038Y-92276091D01*
X127446184Y-92291021D01*
X127408601Y-92283807D01*
X127342428Y-92260244D01*
X127342422Y-92260243D01*
X127335790Y-92257881D01*
X127328802Y-92257048D01*
X127328799Y-92257047D01*
X127198416Y-92241500D01*
X127155680Y-92236404D01*
X127148677Y-92237140D01*
X127148676Y-92237140D01*
X126982288Y-92254628D01*
X126982286Y-92254629D01*
X126975288Y-92255364D01*
X126803579Y-92313818D01*
X126667039Y-92397819D01*
X126601019Y-92416500D01*
X123564595Y-92416500D01*
X123496474Y-92396498D01*
X123475500Y-92379595D01*
X122553652Y-91457747D01*
X122546112Y-91449461D01*
X122542000Y-91442982D01*
X122492348Y-91396356D01*
X122489507Y-91393602D01*
X122469770Y-91373865D01*
X122466573Y-91371385D01*
X122457551Y-91363680D01*
X122425321Y-91333414D01*
X122418375Y-91329595D01*
X122418372Y-91329593D01*
X122407566Y-91323652D01*
X122391047Y-91312801D01*
X122388720Y-91310996D01*
X122375041Y-91300386D01*
X122367772Y-91297241D01*
X122367768Y-91297238D01*
X122334463Y-91282826D01*
X122323813Y-91277609D01*
X122285060Y-91256305D01*
X122265437Y-91251267D01*
X122246734Y-91244863D01*
X122235420Y-91239967D01*
X122235419Y-91239967D01*
X122228145Y-91236819D01*
X122220322Y-91235580D01*
X122220312Y-91235577D01*
X122184476Y-91229901D01*
X122172856Y-91227495D01*
X122137711Y-91218472D01*
X122137710Y-91218472D01*
X122130030Y-91216500D01*
X122109776Y-91216500D01*
X122090065Y-91214949D01*
X122077886Y-91213020D01*
X122070057Y-91211780D01*
X122040786Y-91214547D01*
X122026039Y-91215941D01*
X122014181Y-91216500D01*
X121193766Y-91216500D01*
X121182583Y-91215973D01*
X121175090Y-91214298D01*
X121167164Y-91214547D01*
X121167163Y-91214547D01*
X121107000Y-91216438D01*
X121103042Y-91216500D01*
X121075142Y-91216500D01*
X121071152Y-91217004D01*
X121059318Y-91217936D01*
X121015109Y-91219326D01*
X121007495Y-91221538D01*
X121007490Y-91221539D01*
X120995657Y-91224977D01*
X120976294Y-91228988D01*
X120956201Y-91231526D01*
X120948834Y-91234443D01*
X120948829Y-91234444D01*
X120915090Y-91247802D01*
X120903863Y-91251646D01*
X120869020Y-91261769D01*
X120869016Y-91261771D01*
X120866972Y-91262365D01*
X120866969Y-91262365D01*
X120861405Y-91263982D01*
X120861144Y-91263085D01*
X120797450Y-91270948D01*
X120728463Y-91235397D01*
X120715273Y-91222114D01*
X120670808Y-91177338D01*
X120614778Y-91120915D01*
X120614774Y-91120912D01*
X120609815Y-91115918D01*
X120598697Y-91108862D01*
X120528919Y-91064580D01*
X120456666Y-91018727D01*
X120386542Y-90993757D01*
X120292425Y-90960243D01*
X120292420Y-90960242D01*
X120285790Y-90957881D01*
X120278802Y-90957048D01*
X120278799Y-90957047D01*
X120131962Y-90939538D01*
X120105680Y-90936404D01*
X120098677Y-90937140D01*
X120098676Y-90937140D01*
X119932288Y-90954628D01*
X119932286Y-90954629D01*
X119925288Y-90955364D01*
X119753579Y-91013818D01*
X119704249Y-91044166D01*
X119605095Y-91105166D01*
X119605092Y-91105168D01*
X119599088Y-91108862D01*
X119594053Y-91113793D01*
X119594050Y-91113795D01*
X119475487Y-91229901D01*
X119469493Y-91235771D01*
X119371235Y-91388238D01*
X119368826Y-91394858D01*
X119368824Y-91394861D01*
X119321564Y-91524706D01*
X119309197Y-91558685D01*
X119289244Y-91716631D01*
X119286937Y-91734889D01*
X119258555Y-91799966D01*
X119199495Y-91839367D01*
X119175539Y-91844360D01*
X119163606Y-91845656D01*
X119136394Y-91845656D01*
X119124463Y-91844360D01*
X119101533Y-91841869D01*
X119101529Y-91841869D01*
X119098134Y-91841500D01*
X118551866Y-91841500D01*
X118548471Y-91841869D01*
X118548467Y-91841869D01*
X118525537Y-91844360D01*
X118513606Y-91845656D01*
X118486394Y-91845656D01*
X118474463Y-91844360D01*
X118451533Y-91841869D01*
X118451529Y-91841869D01*
X118448134Y-91841500D01*
X117901866Y-91841500D01*
X117898471Y-91841869D01*
X117898467Y-91841869D01*
X117875537Y-91844360D01*
X117863606Y-91845656D01*
X117836394Y-91845656D01*
X117824463Y-91844360D01*
X117801533Y-91841869D01*
X117801529Y-91841869D01*
X117798134Y-91841500D01*
X117251866Y-91841500D01*
X117248471Y-91841869D01*
X117248467Y-91841869D01*
X117225537Y-91844360D01*
X117213606Y-91845656D01*
X117186394Y-91845656D01*
X117174463Y-91844360D01*
X117151533Y-91841869D01*
X117151529Y-91841869D01*
X117148134Y-91841500D01*
X116601866Y-91841500D01*
X116539684Y-91848255D01*
X116403295Y-91899385D01*
X116286739Y-91986739D01*
X116281358Y-91993919D01*
X116281158Y-91994186D01*
X116280893Y-91994384D01*
X116275008Y-92000269D01*
X116274158Y-91999419D01*
X116224296Y-92036698D01*
X116153478Y-92041720D01*
X116091186Y-92007658D01*
X116071881Y-91982755D01*
X116048996Y-91944058D01*
X116048996Y-91944057D01*
X116044962Y-91937237D01*
X116020405Y-91912680D01*
X115986379Y-91850368D01*
X115983500Y-91823585D01*
X115983500Y-91774177D01*
X116003502Y-91706056D01*
X116044982Y-91665948D01*
X116110866Y-91626673D01*
X116116912Y-91623069D01*
X116122006Y-91618218D01*
X116122010Y-91618215D01*
X116216414Y-91528314D01*
X116248266Y-91497982D01*
X116348643Y-91346902D01*
X116393435Y-91228988D01*
X116410555Y-91183920D01*
X116410556Y-91183918D01*
X116413055Y-91177338D01*
X116421687Y-91115918D01*
X116437748Y-91001639D01*
X116437748Y-91001636D01*
X116438299Y-90997717D01*
X116438616Y-90975000D01*
X116418397Y-90794745D01*
X116405316Y-90757181D01*
X116401804Y-90686272D01*
X116437186Y-90624720D01*
X116504596Y-90591297D01*
X116506963Y-90590922D01*
X116514889Y-90590673D01*
X116534343Y-90585021D01*
X116553700Y-90581013D01*
X116565930Y-90579468D01*
X116565931Y-90579468D01*
X116573797Y-90578474D01*
X116581168Y-90575555D01*
X116581170Y-90575555D01*
X116614912Y-90562196D01*
X116626142Y-90558351D01*
X116660983Y-90548229D01*
X116660984Y-90548229D01*
X116668593Y-90546018D01*
X116675412Y-90541985D01*
X116675417Y-90541983D01*
X116686028Y-90535707D01*
X116703776Y-90527012D01*
X116722617Y-90519552D01*
X116749529Y-90500000D01*
X116758387Y-90493564D01*
X116768307Y-90487048D01*
X116799535Y-90468580D01*
X116799538Y-90468578D01*
X116806362Y-90464542D01*
X116820683Y-90450221D01*
X116835717Y-90437380D01*
X116852107Y-90425472D01*
X116880298Y-90391395D01*
X116888288Y-90382616D01*
X118567253Y-88703652D01*
X118575539Y-88696112D01*
X118582018Y-88692000D01*
X118628644Y-88642348D01*
X118631398Y-88639507D01*
X118651135Y-88619770D01*
X118653615Y-88616573D01*
X118661320Y-88607551D01*
X118686159Y-88581100D01*
X118691586Y-88575321D01*
X118695405Y-88568375D01*
X118695407Y-88568372D01*
X118701348Y-88557566D01*
X118712199Y-88541047D01*
X118719758Y-88531301D01*
X118724614Y-88525041D01*
X118727759Y-88517772D01*
X118727762Y-88517768D01*
X118742174Y-88484463D01*
X118747391Y-88473813D01*
X118768695Y-88435060D01*
X118773733Y-88415437D01*
X118780137Y-88396734D01*
X118785033Y-88385420D01*
X118785033Y-88385419D01*
X118788181Y-88378145D01*
X118789420Y-88370322D01*
X118789423Y-88370312D01*
X118795099Y-88334476D01*
X118797505Y-88322857D01*
X118801958Y-88305512D01*
X118838271Y-88244505D01*
X118901802Y-88212815D01*
X118972382Y-88220503D01*
X119027600Y-88265129D01*
X119050000Y-88336844D01*
X119050000Y-88439884D01*
X119054475Y-88455123D01*
X119055865Y-88456328D01*
X119063548Y-88457999D01*
X119094669Y-88457999D01*
X119101493Y-88457629D01*
X119136393Y-88453839D01*
X119163603Y-88453839D01*
X119198510Y-88457631D01*
X119205329Y-88458000D01*
X119231885Y-88458000D01*
X119247124Y-88453525D01*
X119248329Y-88452135D01*
X119250000Y-88444452D01*
X119250000Y-88308884D01*
X119270002Y-88240763D01*
X119323658Y-88194270D01*
X119393932Y-88184166D01*
X119458512Y-88213660D01*
X119476825Y-88233317D01*
X119536739Y-88313261D01*
X119651295Y-88399116D01*
X119653295Y-88400615D01*
X119653079Y-88400904D01*
X119699139Y-88447065D01*
X119701353Y-88452418D01*
X119705865Y-88456328D01*
X119713548Y-88457999D01*
X119744670Y-88457999D01*
X119751488Y-88457630D01*
X119784067Y-88454091D01*
X119811280Y-88454091D01*
X119851866Y-88458500D01*
X120398134Y-88458500D01*
X120401529Y-88458131D01*
X120401533Y-88458131D01*
X120429222Y-88455123D01*
X120436394Y-88454344D01*
X120463606Y-88454344D01*
X120470778Y-88455123D01*
X120498467Y-88458131D01*
X120498471Y-88458131D01*
X120501866Y-88458500D01*
X121048134Y-88458500D01*
X121051529Y-88458131D01*
X121051533Y-88458131D01*
X121079222Y-88455123D01*
X121086394Y-88454344D01*
X121113606Y-88454344D01*
X121120778Y-88455123D01*
X121148467Y-88458131D01*
X121148471Y-88458131D01*
X121151866Y-88458500D01*
X121698134Y-88458500D01*
X121760316Y-88451745D01*
X121896705Y-88400615D01*
X122013261Y-88313261D01*
X122100615Y-88196705D01*
X122151745Y-88060316D01*
X122158500Y-87998134D01*
X122158500Y-86723953D01*
X122178502Y-86655832D01*
X122232158Y-86609339D01*
X122245548Y-86604126D01*
X122286108Y-86590947D01*
X122400253Y-86522903D01*
X122435860Y-86501677D01*
X122435862Y-86501676D01*
X122441912Y-86498069D01*
X122573266Y-86372982D01*
X122673643Y-86221902D01*
X122722260Y-86093919D01*
X122735555Y-86058920D01*
X122735556Y-86058918D01*
X122738055Y-86052338D01*
X122744099Y-86009335D01*
X122762748Y-85876639D01*
X122762748Y-85876636D01*
X122763299Y-85872717D01*
X122763616Y-85850000D01*
X122743397Y-85669745D01*
X122713332Y-85583410D01*
X122686064Y-85505106D01*
X122686062Y-85505103D01*
X122683745Y-85498448D01*
X122664064Y-85466951D01*
X122607400Y-85376269D01*
X122588264Y-85307900D01*
X122609130Y-85240039D01*
X122663371Y-85194231D01*
X122714254Y-85183500D01*
X124145406Y-85183500D01*
X124213527Y-85203502D01*
G37*
%TD.AperFunction*%
%TA.AperFunction,Conductor*%
G36*
X119061285Y-86974508D02*
G01*
X119063547Y-86975000D01*
X119265500Y-86975000D01*
X119333621Y-86995002D01*
X119380114Y-87048658D01*
X119391500Y-87101000D01*
X119391500Y-87302372D01*
X119371498Y-87370493D01*
X119317842Y-87416986D01*
X119247568Y-87427090D01*
X119238715Y-87425492D01*
X119236453Y-87425000D01*
X119050000Y-87425000D01*
X119050000Y-87424448D01*
X118999000Y-87424447D01*
X118939275Y-87386062D01*
X118909782Y-87321481D01*
X118908500Y-87303551D01*
X118908500Y-87097628D01*
X118928502Y-87029507D01*
X118982158Y-86983014D01*
X119052432Y-86972910D01*
X119061285Y-86974508D01*
G37*
%TD.AperFunction*%
%TD*%
%TA.AperFunction,Conductor*%
%TO.N,GND*%
G36*
X110066706Y-90703502D02*
G01*
X110087679Y-90720404D01*
X110112237Y-90744962D01*
X110119057Y-90748996D01*
X110119058Y-90748996D01*
X110180001Y-90785037D01*
X110254900Y-90829332D01*
X110262511Y-90831543D01*
X110262513Y-90831544D01*
X110281830Y-90837156D01*
X110414063Y-90875573D01*
X110420468Y-90876077D01*
X110420473Y-90876078D01*
X110448797Y-90878307D01*
X110448805Y-90878307D01*
X110451253Y-90878500D01*
X110664870Y-90878500D01*
X110878746Y-90878499D01*
X110915937Y-90875573D01*
X111048170Y-90837156D01*
X111067487Y-90831544D01*
X111067489Y-90831543D01*
X111075100Y-90829332D01*
X111085860Y-90822968D01*
X111154674Y-90805508D01*
X111214139Y-90822968D01*
X111224900Y-90829332D01*
X111232511Y-90831543D01*
X111232513Y-90831544D01*
X111251830Y-90837156D01*
X111384063Y-90875573D01*
X111390468Y-90876077D01*
X111390473Y-90876078D01*
X111418797Y-90878307D01*
X111418805Y-90878307D01*
X111421253Y-90878500D01*
X111634870Y-90878500D01*
X111848746Y-90878499D01*
X111885937Y-90875573D01*
X112018170Y-90837156D01*
X112037487Y-90831544D01*
X112037489Y-90831543D01*
X112045100Y-90829332D01*
X112051924Y-90825296D01*
X112051927Y-90825295D01*
X112133074Y-90777306D01*
X112201890Y-90759847D01*
X112227063Y-90765776D01*
X112230254Y-90766000D01*
X112515614Y-90766000D01*
X112579753Y-90783547D01*
X112608071Y-90800294D01*
X112608075Y-90800296D01*
X112614900Y-90804332D01*
X112622511Y-90806543D01*
X112622513Y-90806544D01*
X112673196Y-90821268D01*
X112774063Y-90850573D01*
X112780468Y-90851077D01*
X112780473Y-90851078D01*
X112808797Y-90853307D01*
X112808805Y-90853307D01*
X112811253Y-90853500D01*
X113049855Y-90853500D01*
X113288746Y-90853499D01*
X113325937Y-90850573D01*
X113424017Y-90822078D01*
X113477487Y-90806544D01*
X113477489Y-90806543D01*
X113485100Y-90804332D01*
X113491925Y-90800296D01*
X113491929Y-90800294D01*
X113520247Y-90783547D01*
X113584386Y-90766000D01*
X113856048Y-90766000D01*
X113871287Y-90761525D01*
X113880384Y-90751027D01*
X113940109Y-90712642D01*
X114011106Y-90712641D01*
X114013512Y-90713511D01*
X114014900Y-90714332D01*
X114174063Y-90760573D01*
X114180468Y-90761077D01*
X114180473Y-90761078D01*
X114208797Y-90763307D01*
X114208805Y-90763307D01*
X114211253Y-90763500D01*
X114303530Y-90763500D01*
X114678439Y-90763499D01*
X114746560Y-90783501D01*
X114793053Y-90837156D01*
X114803157Y-90907430D01*
X114794077Y-90939538D01*
X114786140Y-90957881D01*
X114782827Y-90965536D01*
X114777609Y-90976187D01*
X114756305Y-91014940D01*
X114754334Y-91022615D01*
X114754334Y-91022616D01*
X114751267Y-91034562D01*
X114744863Y-91053266D01*
X114736819Y-91071855D01*
X114735580Y-91079678D01*
X114735577Y-91079688D01*
X114729901Y-91115524D01*
X114727495Y-91127144D01*
X114716500Y-91169970D01*
X114716500Y-91190224D01*
X114714949Y-91209934D01*
X114711780Y-91229943D01*
X114712526Y-91237835D01*
X114715941Y-91273961D01*
X114716500Y-91285819D01*
X114716500Y-91823585D01*
X114696498Y-91891706D01*
X114679595Y-91912680D01*
X114655038Y-91937237D01*
X114651004Y-91944057D01*
X114651004Y-91944058D01*
X114580233Y-92063726D01*
X114570668Y-92079900D01*
X114568457Y-92087511D01*
X114568456Y-92087513D01*
X114564828Y-92100000D01*
X114524427Y-92239063D01*
X114523923Y-92245468D01*
X114523922Y-92245473D01*
X114521787Y-92272603D01*
X114521500Y-92276253D01*
X114521501Y-92703746D01*
X114524427Y-92740937D01*
X114543910Y-92807999D01*
X114565884Y-92883632D01*
X114570668Y-92900100D01*
X114577032Y-92910860D01*
X114594492Y-92979674D01*
X114577032Y-93039139D01*
X114570668Y-93049900D01*
X114524427Y-93209063D01*
X114523923Y-93215468D01*
X114523922Y-93215473D01*
X114523531Y-93220446D01*
X114521500Y-93246253D01*
X114521501Y-93673746D01*
X114524427Y-93710937D01*
X114542273Y-93772364D01*
X114566241Y-93854861D01*
X114570668Y-93870100D01*
X114574703Y-93876923D01*
X114622128Y-93957114D01*
X114655038Y-94012763D01*
X114768752Y-94126477D01*
X114788569Y-94152870D01*
X114790448Y-94157617D01*
X114795102Y-94164023D01*
X114795105Y-94164028D01*
X114823458Y-94203052D01*
X114827901Y-94209589D01*
X114858000Y-94257018D01*
X114863778Y-94262444D01*
X114863779Y-94262445D01*
X114864007Y-94262659D01*
X114879688Y-94280446D01*
X114884528Y-94287107D01*
X114890637Y-94292161D01*
X114890638Y-94292162D01*
X114927796Y-94322903D01*
X114933730Y-94328134D01*
X114968898Y-94361158D01*
X114968901Y-94361160D01*
X114974679Y-94366586D01*
X114981903Y-94370558D01*
X115001506Y-94383881D01*
X115001746Y-94384080D01*
X115001753Y-94384084D01*
X115007856Y-94389133D01*
X115027794Y-94398515D01*
X115058676Y-94413047D01*
X115065708Y-94416629D01*
X115114940Y-94443695D01*
X115122615Y-94445665D01*
X115122621Y-94445668D01*
X115122919Y-94445744D01*
X115145228Y-94453776D01*
X115145503Y-94453906D01*
X115145511Y-94453909D01*
X115152682Y-94457283D01*
X115207849Y-94467806D01*
X115215558Y-94469529D01*
X115249551Y-94478257D01*
X115262293Y-94481529D01*
X115262294Y-94481529D01*
X115269970Y-94483500D01*
X115278207Y-94483500D01*
X115301816Y-94485732D01*
X115302119Y-94485790D01*
X115302123Y-94485790D01*
X115309906Y-94487275D01*
X115365951Y-94483749D01*
X115373862Y-94483500D01*
X116046233Y-94483500D01*
X116057416Y-94484027D01*
X116064909Y-94485702D01*
X116072835Y-94485453D01*
X116072836Y-94485453D01*
X116132986Y-94483562D01*
X116136945Y-94483500D01*
X116164856Y-94483500D01*
X116168791Y-94483003D01*
X116168856Y-94482995D01*
X116180693Y-94482062D01*
X116212951Y-94481048D01*
X116216970Y-94480922D01*
X116224889Y-94480673D01*
X116237071Y-94477134D01*
X116308066Y-94477335D01*
X116367683Y-94515888D01*
X116397624Y-94585834D01*
X116405971Y-94670968D01*
X116463226Y-94843081D01*
X116466873Y-94849103D01*
X116466874Y-94849105D01*
X116537360Y-94965491D01*
X116557188Y-94998232D01*
X116562077Y-95003295D01*
X116562078Y-95003296D01*
X116577140Y-95018893D01*
X116683190Y-95128710D01*
X116689086Y-95132568D01*
X116813269Y-95213831D01*
X116834967Y-95228030D01*
X116841571Y-95230486D01*
X116841573Y-95230487D01*
X116920576Y-95259868D01*
X116977452Y-95302360D01*
X117002326Y-95368857D01*
X116997653Y-95413118D01*
X116981721Y-95467957D01*
X116979771Y-95478635D01*
X116982795Y-95493031D01*
X116994258Y-95496000D01*
X117820500Y-95496000D01*
X117888621Y-95516002D01*
X117935114Y-95569658D01*
X117946500Y-95622000D01*
X117946501Y-95810634D01*
X117946501Y-95988746D01*
X117949427Y-96025937D01*
X117995668Y-96185100D01*
X117999704Y-96191925D01*
X117999706Y-96191929D01*
X118016453Y-96220247D01*
X118034000Y-96284386D01*
X118034000Y-96556048D01*
X118037973Y-96569579D01*
X118045871Y-96570714D01*
X118182287Y-96531082D01*
X118196724Y-96524834D01*
X118200372Y-96522677D01*
X118203603Y-96521857D01*
X118203999Y-96521686D01*
X118204027Y-96521750D01*
X118269189Y-96505219D01*
X118328645Y-96522677D01*
X118333071Y-96525294D01*
X118333075Y-96525296D01*
X118339900Y-96529332D01*
X118347511Y-96531543D01*
X118347513Y-96531544D01*
X118398196Y-96546268D01*
X118499063Y-96575573D01*
X118505468Y-96576077D01*
X118505473Y-96576078D01*
X118533797Y-96578307D01*
X118533805Y-96578307D01*
X118536253Y-96578500D01*
X118630406Y-96578500D01*
X118698527Y-96598502D01*
X118719501Y-96615405D01*
X119246343Y-97142247D01*
X119253887Y-97150537D01*
X119258000Y-97157018D01*
X119263777Y-97162443D01*
X119305551Y-97201671D01*
X119341516Y-97262883D01*
X119344625Y-97280518D01*
X119350755Y-97339594D01*
X119352474Y-97356166D01*
X119354655Y-97362702D01*
X119354655Y-97362704D01*
X119370926Y-97411473D01*
X119408450Y-97523946D01*
X119501522Y-97674348D01*
X119626697Y-97799305D01*
X119632927Y-97803145D01*
X119632928Y-97803146D01*
X119770090Y-97887694D01*
X119777262Y-97892115D01*
X119857005Y-97918564D01*
X119938611Y-97945632D01*
X119938613Y-97945632D01*
X119945139Y-97947797D01*
X119951975Y-97948497D01*
X119951978Y-97948498D01*
X119995031Y-97952909D01*
X120049600Y-97958500D01*
X120800400Y-97958500D01*
X120803646Y-97958163D01*
X120803650Y-97958163D01*
X120899308Y-97948238D01*
X120899312Y-97948237D01*
X120906166Y-97947526D01*
X120912702Y-97945345D01*
X120912704Y-97945345D01*
X121044806Y-97901272D01*
X121073946Y-97891550D01*
X121224348Y-97798478D01*
X121349305Y-97673303D01*
X121351906Y-97669084D01*
X121409030Y-97628583D01*
X121479953Y-97625351D01*
X121541365Y-97660976D01*
X121547922Y-97668530D01*
X121551522Y-97674348D01*
X121676697Y-97799305D01*
X121682927Y-97803145D01*
X121682928Y-97803146D01*
X121820090Y-97887694D01*
X121827262Y-97892115D01*
X121907005Y-97918564D01*
X121988611Y-97945632D01*
X121988613Y-97945632D01*
X121995139Y-97947797D01*
X122001975Y-97948497D01*
X122001978Y-97948498D01*
X122045031Y-97952909D01*
X122099600Y-97958500D01*
X122850400Y-97958500D01*
X122853646Y-97958163D01*
X122853650Y-97958163D01*
X122949308Y-97948238D01*
X122949312Y-97948237D01*
X122956166Y-97947526D01*
X122962702Y-97945345D01*
X122962704Y-97945345D01*
X123094806Y-97901272D01*
X123123946Y-97891550D01*
X123274348Y-97798478D01*
X123399305Y-97673303D01*
X123428863Y-97625351D01*
X123488275Y-97528968D01*
X123488276Y-97528966D01*
X123492115Y-97522738D01*
X123509663Y-97469832D01*
X123550094Y-97411473D01*
X123615658Y-97384236D01*
X123629256Y-97383500D01*
X129290500Y-97383500D01*
X129358621Y-97403502D01*
X129405114Y-97457158D01*
X129416500Y-97509500D01*
X129416500Y-97712072D01*
X129416837Y-97715318D01*
X129416837Y-97715322D01*
X129425950Y-97803146D01*
X129427293Y-97816093D01*
X129429474Y-97822629D01*
X129429474Y-97822631D01*
X129464917Y-97928867D01*
X129482346Y-97981107D01*
X129573884Y-98129031D01*
X129579066Y-98134204D01*
X129691816Y-98246758D01*
X129691821Y-98246762D01*
X129696997Y-98251929D01*
X129703227Y-98255769D01*
X129703228Y-98255770D01*
X129791900Y-98310428D01*
X129845080Y-98343209D01*
X130010191Y-98397974D01*
X130017027Y-98398674D01*
X130017030Y-98398675D01*
X130068526Y-98403951D01*
X130112928Y-98408500D01*
X130687072Y-98408500D01*
X130690318Y-98408163D01*
X130690322Y-98408163D01*
X130784235Y-98398419D01*
X130784239Y-98398418D01*
X130791093Y-98397707D01*
X130797629Y-98395526D01*
X130797631Y-98395526D01*
X130930395Y-98351232D01*
X130956107Y-98342654D01*
X131018932Y-98303777D01*
X131097805Y-98254969D01*
X131097806Y-98254968D01*
X131104031Y-98251116D01*
X131135879Y-98219213D01*
X131198159Y-98185134D01*
X131268979Y-98190137D01*
X131314067Y-98219057D01*
X131340041Y-98244985D01*
X131346997Y-98251929D01*
X131353227Y-98255769D01*
X131353228Y-98255770D01*
X131441900Y-98310428D01*
X131495080Y-98343209D01*
X131660191Y-98397974D01*
X131667027Y-98398674D01*
X131667030Y-98398675D01*
X131718526Y-98403951D01*
X131762928Y-98408500D01*
X132337072Y-98408500D01*
X132340318Y-98408163D01*
X132340322Y-98408163D01*
X132434235Y-98398419D01*
X132434239Y-98398418D01*
X132441093Y-98397707D01*
X132447629Y-98395526D01*
X132447631Y-98395526D01*
X132580395Y-98351232D01*
X132606107Y-98342654D01*
X132754031Y-98251116D01*
X132769963Y-98235156D01*
X132871758Y-98133184D01*
X132871762Y-98133179D01*
X132876929Y-98128003D01*
X132950603Y-98008482D01*
X132964369Y-97986150D01*
X132964370Y-97986148D01*
X132968209Y-97979920D01*
X133022974Y-97814809D01*
X133024253Y-97802332D01*
X133033172Y-97715271D01*
X133033500Y-97712072D01*
X133033500Y-97339594D01*
X133053502Y-97271473D01*
X133070405Y-97250499D01*
X133089843Y-97231061D01*
X133152155Y-97197035D01*
X133222970Y-97202100D01*
X133279806Y-97244647D01*
X133303118Y-97298818D01*
X133341802Y-97523946D01*
X133358241Y-97619619D01*
X133359329Y-97623258D01*
X133359330Y-97623261D01*
X133438587Y-97888275D01*
X133451814Y-97932504D01*
X133453327Y-97935975D01*
X133453329Y-97935981D01*
X133537022Y-98128003D01*
X133582297Y-98231881D01*
X133584220Y-98235152D01*
X133584222Y-98235156D01*
X133626584Y-98307215D01*
X133747802Y-98513414D01*
X133750103Y-98516429D01*
X133943631Y-98770012D01*
X133943636Y-98770017D01*
X133945931Y-98773025D01*
X134173814Y-99006953D01*
X134246635Y-99065607D01*
X134425196Y-99209431D01*
X134425201Y-99209435D01*
X134428149Y-99211809D01*
X134431371Y-99213818D01*
X134431376Y-99213822D01*
X134503156Y-99258588D01*
X134550373Y-99311607D01*
X134561429Y-99381738D01*
X134532815Y-99446713D01*
X134473615Y-99485903D01*
X134436480Y-99491500D01*
X104570222Y-99491500D01*
X104502101Y-99471498D01*
X104455608Y-99417842D01*
X104445504Y-99347568D01*
X104474998Y-99282988D01*
X104499890Y-99261085D01*
X104501601Y-99260091D01*
X104504623Y-99257810D01*
X104504627Y-99257807D01*
X104759221Y-99065607D01*
X104759222Y-99065606D01*
X104762245Y-99063324D01*
X104997363Y-98836670D01*
X105203549Y-98583410D01*
X105255429Y-98501185D01*
X105375788Y-98310428D01*
X105375790Y-98310425D01*
X105377815Y-98307215D01*
X105402568Y-98254969D01*
X105461754Y-98130040D01*
X105517638Y-98012084D01*
X105525894Y-97987338D01*
X105619790Y-97705897D01*
X105619792Y-97705891D01*
X105620992Y-97702293D01*
X105686381Y-97382329D01*
X105687978Y-97362704D01*
X105712674Y-97059061D01*
X105712856Y-97056826D01*
X105713451Y-97000000D01*
X105693798Y-96674015D01*
X105675820Y-96575573D01*
X105635805Y-96356473D01*
X105635804Y-96356469D01*
X105635125Y-96352751D01*
X105629013Y-96333065D01*
X105539404Y-96044477D01*
X105538282Y-96040863D01*
X105528856Y-96019840D01*
X116979492Y-96019840D01*
X116981721Y-96032043D01*
X117023918Y-96177287D01*
X117030166Y-96191724D01*
X117106399Y-96320627D01*
X117116048Y-96333065D01*
X117221935Y-96438952D01*
X117234373Y-96448601D01*
X117363276Y-96524834D01*
X117377713Y-96531082D01*
X117508605Y-96569109D01*
X117522705Y-96569069D01*
X117526000Y-96561799D01*
X117526000Y-96022115D01*
X117521525Y-96006876D01*
X117520135Y-96005671D01*
X117512452Y-96004000D01*
X116996319Y-96004000D01*
X116981524Y-96008344D01*
X116979492Y-96019840D01*
X105528856Y-96019840D01*
X105404670Y-95742869D01*
X105236226Y-95463084D01*
X105233899Y-95460100D01*
X105233894Y-95460093D01*
X105037726Y-95208558D01*
X105037724Y-95208556D01*
X105035390Y-95205563D01*
X104805070Y-94974034D01*
X104721877Y-94908450D01*
X104680764Y-94850569D01*
X104677470Y-94779649D01*
X104713042Y-94718206D01*
X104776185Y-94685749D01*
X104799883Y-94683500D01*
X107803903Y-94683500D01*
X107872896Y-94704068D01*
X107949297Y-94754063D01*
X107983159Y-94776222D01*
X107989763Y-94778678D01*
X107989765Y-94778679D01*
X108146558Y-94836990D01*
X108146560Y-94836990D01*
X108153168Y-94839448D01*
X108236514Y-94850569D01*
X108325980Y-94862507D01*
X108325984Y-94862507D01*
X108332961Y-94863438D01*
X108339972Y-94862800D01*
X108339976Y-94862800D01*
X108482459Y-94849832D01*
X108513600Y-94846998D01*
X108520302Y-94844820D01*
X108520304Y-94844820D01*
X108679409Y-94793124D01*
X108679412Y-94793123D01*
X108686108Y-94790947D01*
X108841912Y-94698069D01*
X108973266Y-94572982D01*
X109073643Y-94421902D01*
X109119116Y-94302195D01*
X109135555Y-94258920D01*
X109135556Y-94258918D01*
X109138055Y-94252338D01*
X109139785Y-94240032D01*
X109160594Y-94091964D01*
X109189882Y-94027290D01*
X109249486Y-93988717D01*
X109285368Y-93983500D01*
X110103903Y-93983500D01*
X110172896Y-94004068D01*
X110274672Y-94070668D01*
X110283159Y-94076222D01*
X110289763Y-94078678D01*
X110289765Y-94078679D01*
X110446558Y-94136990D01*
X110446560Y-94136990D01*
X110453168Y-94139448D01*
X110536995Y-94150633D01*
X110625980Y-94162507D01*
X110625984Y-94162507D01*
X110632961Y-94163438D01*
X110639972Y-94162800D01*
X110639976Y-94162800D01*
X110782459Y-94149832D01*
X110813600Y-94146998D01*
X110820302Y-94144820D01*
X110820304Y-94144820D01*
X110979409Y-94093124D01*
X110979412Y-94093123D01*
X110986108Y-94090947D01*
X111097696Y-94024427D01*
X111135860Y-94001677D01*
X111135862Y-94001676D01*
X111141912Y-93998069D01*
X111273266Y-93872982D01*
X111373643Y-93721902D01*
X111438055Y-93552338D01*
X111461959Y-93382251D01*
X111462748Y-93376639D01*
X111462748Y-93376636D01*
X111463299Y-93372717D01*
X111463616Y-93350000D01*
X111443397Y-93169745D01*
X111421216Y-93106048D01*
X111907000Y-93106048D01*
X111910973Y-93119579D01*
X111918871Y-93120714D01*
X112055287Y-93081082D01*
X112069724Y-93074834D01*
X112198627Y-92998601D01*
X112211065Y-92988952D01*
X112316952Y-92883065D01*
X112326601Y-92870627D01*
X112402834Y-92741724D01*
X112409082Y-92727287D01*
X112451279Y-92582043D01*
X112453229Y-92571365D01*
X112450205Y-92556969D01*
X112438742Y-92554000D01*
X111925115Y-92554000D01*
X111909876Y-92558475D01*
X111908671Y-92559865D01*
X111907000Y-92567548D01*
X111907000Y-93106048D01*
X111421216Y-93106048D01*
X111410346Y-93074834D01*
X111406009Y-93062381D01*
X111399000Y-93020944D01*
X111399000Y-92834386D01*
X111416547Y-92770247D01*
X111433294Y-92741929D01*
X111433296Y-92741925D01*
X111437332Y-92735100D01*
X111483573Y-92575937D01*
X111484077Y-92569532D01*
X111484078Y-92569527D01*
X111486307Y-92541203D01*
X111486307Y-92541195D01*
X111486500Y-92538747D01*
X111486499Y-92061254D01*
X111483874Y-92027885D01*
X111907000Y-92027885D01*
X111911475Y-92043124D01*
X111912865Y-92044329D01*
X111920548Y-92046000D01*
X112436681Y-92046000D01*
X112451476Y-92041656D01*
X112453508Y-92030160D01*
X112451279Y-92017954D01*
X112420453Y-91911850D01*
X112420656Y-91840854D01*
X112459210Y-91781238D01*
X112523875Y-91751930D01*
X112594120Y-91762235D01*
X112605596Y-91768249D01*
X112608276Y-91769834D01*
X112622713Y-91776082D01*
X112767957Y-91818279D01*
X112778635Y-91820229D01*
X112793031Y-91817205D01*
X112796000Y-91805742D01*
X112796000Y-91803681D01*
X113304000Y-91803681D01*
X113308344Y-91818476D01*
X113319840Y-91820508D01*
X113332043Y-91818279D01*
X113477287Y-91776082D01*
X113491724Y-91769834D01*
X113620627Y-91693601D01*
X113633065Y-91683952D01*
X113738952Y-91578065D01*
X113748601Y-91565627D01*
X113824834Y-91436724D01*
X113831082Y-91422287D01*
X113869109Y-91291395D01*
X113869069Y-91277295D01*
X113861799Y-91274000D01*
X113322115Y-91274000D01*
X113306876Y-91278475D01*
X113305671Y-91279865D01*
X113304000Y-91287548D01*
X113304000Y-91803681D01*
X112796000Y-91803681D01*
X112796000Y-91292115D01*
X112791525Y-91276876D01*
X112790135Y-91275671D01*
X112782452Y-91274000D01*
X112243952Y-91274000D01*
X112230421Y-91277973D01*
X112229286Y-91285872D01*
X112257547Y-91383150D01*
X112257344Y-91454146D01*
X112218790Y-91513762D01*
X112154125Y-91543070D01*
X112083880Y-91532765D01*
X112072404Y-91526751D01*
X112069724Y-91525166D01*
X112055287Y-91518918D01*
X111924395Y-91480891D01*
X111910295Y-91480931D01*
X111907000Y-91488201D01*
X111907000Y-92027885D01*
X111483874Y-92027885D01*
X111483573Y-92024063D01*
X111445120Y-91891706D01*
X111439544Y-91872513D01*
X111439543Y-91872511D01*
X111437332Y-91864900D01*
X111433296Y-91858075D01*
X111433294Y-91858071D01*
X111416547Y-91829753D01*
X111399000Y-91765614D01*
X111399000Y-91493952D01*
X111395027Y-91480421D01*
X111387129Y-91479286D01*
X111250713Y-91518918D01*
X111236276Y-91525166D01*
X111232628Y-91527323D01*
X111229397Y-91528143D01*
X111229001Y-91528314D01*
X111228973Y-91528250D01*
X111163811Y-91544781D01*
X111104355Y-91527323D01*
X111099929Y-91524706D01*
X111099925Y-91524704D01*
X111093100Y-91520668D01*
X111085489Y-91518457D01*
X111085487Y-91518456D01*
X111015014Y-91497982D01*
X110933937Y-91474427D01*
X110927532Y-91473923D01*
X110927527Y-91473922D01*
X110899203Y-91471693D01*
X110899195Y-91471693D01*
X110896747Y-91471500D01*
X110683130Y-91471500D01*
X110469254Y-91471501D01*
X110432063Y-91474427D01*
X110350986Y-91497982D01*
X110280513Y-91518456D01*
X110280511Y-91518457D01*
X110272900Y-91520668D01*
X110130237Y-91605038D01*
X110013038Y-91722237D01*
X110009004Y-91729057D01*
X110009004Y-91729058D01*
X109953101Y-91823585D01*
X109928668Y-91864900D01*
X109926457Y-91872511D01*
X109926456Y-91872513D01*
X109920880Y-91891706D01*
X109882427Y-92024063D01*
X109881923Y-92030468D01*
X109881922Y-92030473D01*
X109879693Y-92058797D01*
X109879500Y-92061253D01*
X109879501Y-92538746D01*
X109880361Y-92549678D01*
X109882427Y-92575937D01*
X109880753Y-92576069D01*
X109874185Y-92638462D01*
X109829758Y-92693841D01*
X109757670Y-92716500D01*
X109339729Y-92716500D01*
X109271608Y-92696498D01*
X109225115Y-92642842D01*
X109213729Y-92590500D01*
X109213729Y-92400000D01*
X109208500Y-92326889D01*
X109197833Y-92290560D01*
X109194012Y-92237131D01*
X109194117Y-92236404D01*
X109213729Y-92100000D01*
X109213729Y-91609992D01*
X109213731Y-91609222D01*
X109214160Y-91539069D01*
X109214160Y-91539063D01*
X109214187Y-91534583D01*
X109198805Y-91422287D01*
X109195030Y-91394724D01*
X109195029Y-91394720D01*
X109194420Y-91390273D01*
X109183945Y-91353621D01*
X109184459Y-91282629D01*
X109216000Y-91229904D01*
X109466943Y-90978962D01*
X109725501Y-90720404D01*
X109787813Y-90686379D01*
X109814596Y-90683500D01*
X109998585Y-90683500D01*
X110066706Y-90703502D01*
G37*
%TD.AperFunction*%
%TA.AperFunction,Conductor*%
G36*
X122121237Y-94224386D02*
G01*
X122150008Y-94245912D01*
X123376171Y-95472075D01*
X123410196Y-95534386D01*
X123405131Y-95605201D01*
X123362584Y-95662037D01*
X123296064Y-95686848D01*
X123220959Y-95668429D01*
X123128968Y-95611725D01*
X123128966Y-95611724D01*
X123122738Y-95607885D01*
X123042995Y-95581436D01*
X122961389Y-95554368D01*
X122961387Y-95554368D01*
X122954861Y-95552203D01*
X122948024Y-95551502D01*
X122948022Y-95551502D01*
X122923562Y-95548996D01*
X122908344Y-95547437D01*
X122842618Y-95520596D01*
X122832093Y-95511188D01*
X122653642Y-95332737D01*
X122646102Y-95324451D01*
X122641990Y-95317972D01*
X122592337Y-95271345D01*
X122589496Y-95268591D01*
X122569760Y-95248855D01*
X122566563Y-95246375D01*
X122557541Y-95238670D01*
X122548827Y-95230487D01*
X122525311Y-95208404D01*
X122518365Y-95204585D01*
X122518362Y-95204583D01*
X122507556Y-95198642D01*
X122491037Y-95187791D01*
X122486597Y-95184347D01*
X122475031Y-95175376D01*
X122467762Y-95172231D01*
X122467758Y-95172228D01*
X122434453Y-95157816D01*
X122423803Y-95152599D01*
X122385050Y-95131295D01*
X122365427Y-95126257D01*
X122346724Y-95119853D01*
X122335410Y-95114957D01*
X122335409Y-95114957D01*
X122328135Y-95111809D01*
X122320312Y-95110570D01*
X122320302Y-95110567D01*
X122284466Y-95104891D01*
X122272846Y-95102485D01*
X122237701Y-95093462D01*
X122237700Y-95093462D01*
X122230020Y-95091490D01*
X122209766Y-95091490D01*
X122190055Y-95089939D01*
X122177876Y-95088010D01*
X122170047Y-95086770D01*
X122162155Y-95087516D01*
X122126029Y-95090931D01*
X122114171Y-95091490D01*
X121094500Y-95091490D01*
X121026379Y-95071488D01*
X120979886Y-95017832D01*
X120968500Y-94965491D01*
X120968499Y-94822001D01*
X120988501Y-94753880D01*
X121042156Y-94707387D01*
X121094499Y-94696000D01*
X121918681Y-94696000D01*
X121933476Y-94691656D01*
X121935508Y-94680160D01*
X121933279Y-94667957D01*
X121891082Y-94522713D01*
X121884832Y-94508272D01*
X121860620Y-94467331D01*
X121843160Y-94398515D01*
X121865677Y-94331184D01*
X121897915Y-94302230D01*
X121896705Y-94300615D01*
X121985348Y-94234181D01*
X122051855Y-94209333D01*
X122121237Y-94224386D01*
G37*
%TD.AperFunction*%
%TA.AperFunction,Conductor*%
G36*
X133859115Y-91820990D02*
G01*
X133917613Y-91822993D01*
X133975991Y-91863397D01*
X134003258Y-91928949D01*
X134004000Y-91942604D01*
X134004000Y-92789884D01*
X134008475Y-92805123D01*
X134009865Y-92806328D01*
X134017548Y-92807999D01*
X134438984Y-92807999D01*
X134443920Y-92807805D01*
X134472336Y-92805570D01*
X134484931Y-92803270D01*
X134605346Y-92768285D01*
X134676343Y-92768487D01*
X134735959Y-92807041D01*
X134765268Y-92871706D01*
X134766500Y-92889282D01*
X134766500Y-93710405D01*
X134746498Y-93778526D01*
X134729595Y-93799500D01*
X133240134Y-95288961D01*
X133177822Y-95322987D01*
X133107007Y-95317922D01*
X133050171Y-95275375D01*
X133025712Y-95212869D01*
X133023419Y-95190766D01*
X133023418Y-95190763D01*
X133022707Y-95183907D01*
X133014003Y-95157816D01*
X132969972Y-95025841D01*
X132967654Y-95018893D01*
X132876116Y-94870969D01*
X132848179Y-94843081D01*
X132758184Y-94753242D01*
X132758179Y-94753238D01*
X132753003Y-94748071D01*
X132743386Y-94742143D01*
X132741559Y-94740114D01*
X132741027Y-94739693D01*
X132741099Y-94739602D01*
X132695892Y-94689372D01*
X132683500Y-94634882D01*
X132683500Y-94328757D01*
X132684027Y-94317574D01*
X132685702Y-94310081D01*
X132685405Y-94300615D01*
X132683562Y-94242004D01*
X132683500Y-94238045D01*
X132683500Y-94210134D01*
X132682995Y-94206134D01*
X132682062Y-94194291D01*
X132680922Y-94158019D01*
X132680673Y-94150100D01*
X132675022Y-94130648D01*
X132671014Y-94111296D01*
X132669467Y-94099053D01*
X132668474Y-94091193D01*
X132665556Y-94083822D01*
X132652200Y-94050087D01*
X132648355Y-94038860D01*
X132644993Y-94027290D01*
X132636018Y-93996397D01*
X132630626Y-93987279D01*
X132625707Y-93978962D01*
X132617012Y-93961214D01*
X132609552Y-93942373D01*
X132583564Y-93906603D01*
X132577048Y-93896683D01*
X132558580Y-93865455D01*
X132558578Y-93865452D01*
X132554542Y-93858628D01*
X132540221Y-93844307D01*
X132527380Y-93829273D01*
X132520131Y-93819296D01*
X132515472Y-93812883D01*
X132509368Y-93807833D01*
X132509363Y-93807828D01*
X132481402Y-93784697D01*
X132472621Y-93776707D01*
X131684430Y-92988515D01*
X131650405Y-92926203D01*
X131648311Y-92913465D01*
X131648019Y-92910858D01*
X131643407Y-92869745D01*
X131598897Y-92741929D01*
X131586074Y-92705106D01*
X131586072Y-92705103D01*
X131583755Y-92698448D01*
X131543611Y-92634204D01*
X131502656Y-92568661D01*
X131483510Y-92501892D01*
X131483510Y-92265871D01*
X132473456Y-92265871D01*
X132514107Y-92405790D01*
X132520352Y-92420221D01*
X132596911Y-92549678D01*
X132606551Y-92562104D01*
X132712896Y-92668449D01*
X132725322Y-92678089D01*
X132854779Y-92754648D01*
X132869210Y-92760893D01*
X133015065Y-92803269D01*
X133027667Y-92805570D01*
X133056084Y-92807807D01*
X133061014Y-92808000D01*
X133477885Y-92808000D01*
X133493124Y-92803525D01*
X133494329Y-92802135D01*
X133496000Y-92794452D01*
X133496000Y-92272115D01*
X133491525Y-92256876D01*
X133490135Y-92255671D01*
X133482452Y-92254000D01*
X132488122Y-92254000D01*
X132474591Y-92257973D01*
X132473456Y-92265871D01*
X131483510Y-92265871D01*
X131483510Y-92051858D01*
X131503512Y-91983737D01*
X131557168Y-91937244D01*
X131627442Y-91927140D01*
X131653424Y-91933758D01*
X131803168Y-91989448D01*
X131877896Y-91999419D01*
X131975980Y-92012507D01*
X131975984Y-92012507D01*
X131982961Y-92013438D01*
X131989972Y-92012800D01*
X131989976Y-92012800D01*
X132132459Y-91999832D01*
X132163600Y-91996998D01*
X132170302Y-91994820D01*
X132170304Y-91994820D01*
X132329409Y-91943124D01*
X132329412Y-91943123D01*
X132336108Y-91940947D01*
X132466199Y-91863397D01*
X132486541Y-91851271D01*
X132551058Y-91833500D01*
X133739856Y-91833500D01*
X133858797Y-91818474D01*
X133859115Y-91820990D01*
G37*
%TD.AperFunction*%
%TA.AperFunction,Conductor*%
G36*
X134500316Y-81528502D02*
G01*
X134546809Y-81582158D01*
X134556913Y-81652432D01*
X134527419Y-81717012D01*
X134496618Y-81742785D01*
X134478074Y-81753817D01*
X134478068Y-81753821D01*
X134474814Y-81755757D01*
X134216244Y-81955243D01*
X133983513Y-82184347D01*
X133981149Y-82187314D01*
X133981146Y-82187317D01*
X133866365Y-82331358D01*
X133779991Y-82439751D01*
X133608626Y-82717757D01*
X133471902Y-83014336D01*
X133470741Y-83017940D01*
X133470741Y-83017941D01*
X133462196Y-83044477D01*
X133371797Y-83325192D01*
X133371079Y-83328903D01*
X133371078Y-83328907D01*
X133310482Y-83642105D01*
X133310481Y-83642114D01*
X133309763Y-83645824D01*
X133309496Y-83649600D01*
X133309495Y-83649605D01*
X133287027Y-83966935D01*
X133286698Y-83971585D01*
X133289290Y-84023652D01*
X133302701Y-84293031D01*
X133302936Y-84297759D01*
X133303577Y-84301490D01*
X133303578Y-84301498D01*
X133340731Y-84517715D01*
X133358241Y-84619619D01*
X133359329Y-84623258D01*
X133359330Y-84623261D01*
X133428267Y-84853767D01*
X133451814Y-84932504D01*
X133453327Y-84935975D01*
X133453329Y-84935981D01*
X133533807Y-85120627D01*
X133582297Y-85231881D01*
X133584220Y-85235152D01*
X133584222Y-85235156D01*
X133648575Y-85344624D01*
X133747802Y-85513414D01*
X133750103Y-85516429D01*
X133943631Y-85770012D01*
X133943636Y-85770017D01*
X133945931Y-85773025D01*
X134007931Y-85836670D01*
X134166442Y-85999385D01*
X134173814Y-86006953D01*
X134246635Y-86065607D01*
X134425196Y-86209431D01*
X134425201Y-86209435D01*
X134428149Y-86211809D01*
X134705253Y-86384627D01*
X135001112Y-86522903D01*
X135004721Y-86524086D01*
X135305382Y-86622648D01*
X135311440Y-86624634D01*
X135631742Y-86688346D01*
X135635514Y-86688633D01*
X135635522Y-86688634D01*
X135953602Y-86712829D01*
X135953607Y-86712829D01*
X135957379Y-86713116D01*
X136253446Y-86699930D01*
X136322387Y-86716881D01*
X136371221Y-86768415D01*
X136384442Y-86838170D01*
X136366310Y-86891921D01*
X136310160Y-86983014D01*
X136282885Y-87027262D01*
X136268768Y-87069824D01*
X136234271Y-87173831D01*
X136227203Y-87195139D01*
X136226503Y-87201975D01*
X136226502Y-87201978D01*
X136225564Y-87211134D01*
X136216500Y-87299600D01*
X136216500Y-88100400D01*
X136216837Y-88103646D01*
X136216837Y-88103650D01*
X136226263Y-88194492D01*
X136227474Y-88206166D01*
X136229655Y-88212702D01*
X136229655Y-88212704D01*
X136265228Y-88319327D01*
X136283450Y-88373946D01*
X136376522Y-88524348D01*
X136501697Y-88649305D01*
X136507927Y-88653145D01*
X136507928Y-88653146D01*
X136589864Y-88703652D01*
X136652262Y-88742115D01*
X136732005Y-88768564D01*
X136813611Y-88795632D01*
X136813613Y-88795632D01*
X136820139Y-88797797D01*
X136826975Y-88798497D01*
X136826978Y-88798498D01*
X136870031Y-88802909D01*
X136924600Y-88808500D01*
X138325400Y-88808500D01*
X138328641Y-88808164D01*
X138328655Y-88808163D01*
X138352498Y-88805689D01*
X138422319Y-88818555D01*
X138474101Y-88867126D01*
X138491500Y-88931016D01*
X138491500Y-92068949D01*
X138471498Y-92137070D01*
X138417842Y-92183563D01*
X138352657Y-92194293D01*
X138325400Y-92191500D01*
X136924600Y-92191500D01*
X136921354Y-92191837D01*
X136921350Y-92191837D01*
X136825692Y-92201762D01*
X136825688Y-92201763D01*
X136818834Y-92202474D01*
X136812298Y-92204655D01*
X136812296Y-92204655D01*
X136709182Y-92239057D01*
X136651054Y-92258450D01*
X136500652Y-92351522D01*
X136375695Y-92476697D01*
X136371855Y-92482927D01*
X136371854Y-92482928D01*
X136305546Y-92590500D01*
X136282885Y-92627262D01*
X136279092Y-92638696D01*
X136238664Y-92697054D01*
X136173100Y-92724292D01*
X136103218Y-92711759D01*
X136051205Y-92663435D01*
X136033500Y-92599028D01*
X136033500Y-91864854D01*
X136053502Y-91796733D01*
X136064236Y-91783737D01*
X136063637Y-91783235D01*
X136068161Y-91777843D01*
X136073266Y-91772982D01*
X136173643Y-91621902D01*
X136222247Y-91493952D01*
X136235555Y-91458920D01*
X136235556Y-91458918D01*
X136238055Y-91452338D01*
X136240132Y-91437557D01*
X136262748Y-91276639D01*
X136262748Y-91276636D01*
X136263299Y-91272717D01*
X136263616Y-91250000D01*
X136243397Y-91069745D01*
X136241080Y-91063091D01*
X136186064Y-90905106D01*
X136186062Y-90905103D01*
X136183745Y-90898448D01*
X136087626Y-90744624D01*
X136082395Y-90739356D01*
X135964778Y-90620915D01*
X135964774Y-90620912D01*
X135959815Y-90615918D01*
X135921019Y-90591297D01*
X135871718Y-90560010D01*
X135806666Y-90518727D01*
X135757644Y-90501271D01*
X135642425Y-90460243D01*
X135642420Y-90460242D01*
X135635790Y-90457881D01*
X135628802Y-90457048D01*
X135628799Y-90457047D01*
X135505698Y-90442368D01*
X135455680Y-90436404D01*
X135448677Y-90437140D01*
X135448676Y-90437140D01*
X135282288Y-90454628D01*
X135282286Y-90454629D01*
X135275288Y-90455364D01*
X135212020Y-90476902D01*
X135167854Y-90491937D01*
X135096922Y-90494955D01*
X135035618Y-90459144D01*
X135003406Y-90395876D01*
X135006252Y-90337506D01*
X135028768Y-90260008D01*
X135028769Y-90260003D01*
X135030562Y-90253831D01*
X135033500Y-90216502D01*
X135033500Y-89783498D01*
X135030562Y-89746169D01*
X134984145Y-89586399D01*
X134975247Y-89571353D01*
X134970980Y-89564137D01*
X134953522Y-89495321D01*
X134970980Y-89435863D01*
X134980109Y-89420426D01*
X134980110Y-89420424D01*
X134984145Y-89413601D01*
X135030562Y-89253831D01*
X135033500Y-89216502D01*
X135033500Y-88783498D01*
X135030562Y-88746169D01*
X134984145Y-88586399D01*
X134929023Y-88493193D01*
X134903491Y-88450020D01*
X134903489Y-88450017D01*
X134899453Y-88443193D01*
X134781807Y-88325547D01*
X134774983Y-88321511D01*
X134774980Y-88321509D01*
X134645427Y-88244892D01*
X134645428Y-88244892D01*
X134638601Y-88240855D01*
X134630990Y-88238644D01*
X134630988Y-88238643D01*
X134544994Y-88213660D01*
X134478831Y-88194438D01*
X134472426Y-88193934D01*
X134472421Y-88193933D01*
X134443958Y-88191693D01*
X134443950Y-88191693D01*
X134441502Y-88191500D01*
X133058498Y-88191500D01*
X133056050Y-88191693D01*
X133056042Y-88191693D01*
X133027579Y-88193933D01*
X133027574Y-88193934D01*
X133021169Y-88194438D01*
X132955006Y-88213660D01*
X132869012Y-88238643D01*
X132869010Y-88238644D01*
X132861399Y-88240855D01*
X132854572Y-88244892D01*
X132854573Y-88244892D01*
X132725020Y-88321509D01*
X132725017Y-88321511D01*
X132718193Y-88325547D01*
X132712585Y-88331155D01*
X132706325Y-88336011D01*
X132705156Y-88334504D01*
X132651833Y-88363621D01*
X132625050Y-88366500D01*
X132078767Y-88366500D01*
X132067584Y-88365973D01*
X132060091Y-88364298D01*
X132052165Y-88364547D01*
X132052164Y-88364547D01*
X131992001Y-88366438D01*
X131988043Y-88366500D01*
X131960144Y-88366500D01*
X131956154Y-88367004D01*
X131944320Y-88367936D01*
X131900111Y-88369326D01*
X131892497Y-88371538D01*
X131892492Y-88371539D01*
X131880659Y-88374977D01*
X131861296Y-88378988D01*
X131841203Y-88381526D01*
X131833836Y-88384443D01*
X131833831Y-88384444D01*
X131800092Y-88397802D01*
X131788865Y-88401646D01*
X131746407Y-88413982D01*
X131739581Y-88418019D01*
X131728972Y-88424293D01*
X131711224Y-88432988D01*
X131692383Y-88440448D01*
X131685967Y-88445110D01*
X131685966Y-88445110D01*
X131656613Y-88466436D01*
X131646693Y-88472952D01*
X131615465Y-88491420D01*
X131615462Y-88491422D01*
X131608638Y-88495458D01*
X131594317Y-88509779D01*
X131579284Y-88522619D01*
X131562893Y-88534528D01*
X131557843Y-88540632D01*
X131557838Y-88540637D01*
X131534707Y-88568598D01*
X131526717Y-88577379D01*
X130888066Y-89216029D01*
X130825754Y-89250054D01*
X130754938Y-89244989D01*
X130720021Y-89225131D01*
X130714777Y-89220915D01*
X130709815Y-89215918D01*
X130698697Y-89208862D01*
X130594665Y-89142842D01*
X130556666Y-89118727D01*
X130527463Y-89108328D01*
X130392425Y-89060243D01*
X130392420Y-89060242D01*
X130385790Y-89057881D01*
X130378802Y-89057048D01*
X130378799Y-89057047D01*
X130255698Y-89042368D01*
X130205680Y-89036404D01*
X130198677Y-89037140D01*
X130198676Y-89037140D01*
X130032288Y-89054628D01*
X130032286Y-89054629D01*
X130025288Y-89055364D01*
X129853579Y-89113818D01*
X129717039Y-89197819D01*
X129651019Y-89216500D01*
X128009500Y-89216500D01*
X127941379Y-89196498D01*
X127894886Y-89142842D01*
X127883500Y-89090500D01*
X127883500Y-87418767D01*
X127884027Y-87407584D01*
X127885702Y-87400091D01*
X127885215Y-87384577D01*
X127883562Y-87332001D01*
X127883500Y-87328043D01*
X127883500Y-87300144D01*
X127882996Y-87296153D01*
X127882063Y-87284311D01*
X127882001Y-87282312D01*
X127880674Y-87240111D01*
X127878462Y-87232497D01*
X127878461Y-87232492D01*
X127875023Y-87220659D01*
X127871012Y-87201295D01*
X127869467Y-87189064D01*
X127868474Y-87181203D01*
X127865557Y-87173836D01*
X127865556Y-87173831D01*
X127852198Y-87140092D01*
X127848354Y-87128865D01*
X127838230Y-87094022D01*
X127836018Y-87086407D01*
X127825707Y-87068972D01*
X127817012Y-87051224D01*
X127809552Y-87032383D01*
X127783564Y-86996613D01*
X127777048Y-86986693D01*
X127758580Y-86955465D01*
X127758578Y-86955462D01*
X127754542Y-86948638D01*
X127740221Y-86934317D01*
X127727380Y-86919283D01*
X127726093Y-86917512D01*
X127715472Y-86902893D01*
X127681395Y-86874702D01*
X127672616Y-86866712D01*
X124963652Y-84157747D01*
X124956112Y-84149461D01*
X124952000Y-84142982D01*
X124902348Y-84096356D01*
X124899507Y-84093602D01*
X124879770Y-84073865D01*
X124876573Y-84071385D01*
X124867551Y-84063680D01*
X124841100Y-84038841D01*
X124835321Y-84033414D01*
X124828375Y-84029595D01*
X124828372Y-84029593D01*
X124817566Y-84023652D01*
X124801047Y-84012801D01*
X124800583Y-84012441D01*
X124785041Y-84000386D01*
X124777772Y-83997241D01*
X124777768Y-83997238D01*
X124744463Y-83982826D01*
X124733813Y-83977609D01*
X124695060Y-83956305D01*
X124675437Y-83951267D01*
X124656734Y-83944863D01*
X124645420Y-83939967D01*
X124645419Y-83939967D01*
X124638145Y-83936819D01*
X124630322Y-83935580D01*
X124630312Y-83935577D01*
X124594476Y-83929901D01*
X124582856Y-83927495D01*
X124547711Y-83918472D01*
X124547710Y-83918472D01*
X124540030Y-83916500D01*
X124519776Y-83916500D01*
X124500065Y-83914949D01*
X124487886Y-83913020D01*
X124480057Y-83911780D01*
X124472165Y-83912526D01*
X124436039Y-83915941D01*
X124424181Y-83916500D01*
X122701415Y-83916500D01*
X122633294Y-83896498D01*
X122612320Y-83879595D01*
X122587763Y-83855038D01*
X122445100Y-83770668D01*
X122437489Y-83768457D01*
X122437487Y-83768456D01*
X122386804Y-83753732D01*
X122285937Y-83724427D01*
X122279532Y-83723923D01*
X122279527Y-83723922D01*
X122251203Y-83721693D01*
X122251195Y-83721693D01*
X122248747Y-83721500D01*
X122035130Y-83721500D01*
X121821254Y-83721501D01*
X121784063Y-83724427D01*
X121685983Y-83752922D01*
X121632513Y-83768456D01*
X121632511Y-83768457D01*
X121624900Y-83770668D01*
X121614140Y-83777032D01*
X121545326Y-83794492D01*
X121485861Y-83777032D01*
X121475100Y-83770668D01*
X121467489Y-83768457D01*
X121467487Y-83768456D01*
X121416804Y-83753732D01*
X121315937Y-83724427D01*
X121309532Y-83723923D01*
X121309527Y-83723922D01*
X121281203Y-83721693D01*
X121281195Y-83721693D01*
X121278747Y-83721500D01*
X121065130Y-83721500D01*
X120851254Y-83721501D01*
X120814063Y-83724427D01*
X120715983Y-83752922D01*
X120662513Y-83768456D01*
X120662511Y-83768457D01*
X120654900Y-83770668D01*
X120512237Y-83855038D01*
X120489095Y-83878180D01*
X120426783Y-83912206D01*
X120355968Y-83907141D01*
X120310905Y-83878180D01*
X120287763Y-83855038D01*
X120145100Y-83770668D01*
X120137489Y-83768457D01*
X120137487Y-83768456D01*
X120086804Y-83753732D01*
X119985937Y-83724427D01*
X119979532Y-83723923D01*
X119979527Y-83723922D01*
X119951203Y-83721693D01*
X119951195Y-83721693D01*
X119948747Y-83721500D01*
X119735130Y-83721500D01*
X119521254Y-83721501D01*
X119484063Y-83724427D01*
X119385983Y-83752922D01*
X119332513Y-83768456D01*
X119332511Y-83768457D01*
X119324900Y-83770668D01*
X119318075Y-83774704D01*
X119318071Y-83774706D01*
X119313645Y-83777323D01*
X119244829Y-83794781D01*
X119185372Y-83777323D01*
X119181724Y-83775166D01*
X119167287Y-83768918D01*
X119036395Y-83730891D01*
X119022295Y-83730931D01*
X119019000Y-83738201D01*
X119019000Y-84015614D01*
X119001453Y-84079753D01*
X118984706Y-84108071D01*
X118984704Y-84108075D01*
X118980668Y-84114900D01*
X118978457Y-84122511D01*
X118978456Y-84122513D01*
X118972509Y-84142982D01*
X118934427Y-84274063D01*
X118933923Y-84280468D01*
X118933922Y-84280473D01*
X118931693Y-84308797D01*
X118931500Y-84311253D01*
X118931501Y-84788746D01*
X118934427Y-84825937D01*
X118980668Y-84985100D01*
X118984704Y-84991925D01*
X118984706Y-84991929D01*
X119001453Y-85020247D01*
X119019000Y-85084386D01*
X119019000Y-85356048D01*
X119022973Y-85369579D01*
X119030871Y-85370714D01*
X119167287Y-85331082D01*
X119181724Y-85324834D01*
X119185372Y-85322677D01*
X119188603Y-85321857D01*
X119188999Y-85321686D01*
X119189027Y-85321750D01*
X119254189Y-85305219D01*
X119313645Y-85322677D01*
X119318071Y-85325294D01*
X119318075Y-85325296D01*
X119324900Y-85329332D01*
X119332510Y-85331543D01*
X119332515Y-85331545D01*
X119400652Y-85351340D01*
X119460488Y-85389553D01*
X119490166Y-85454049D01*
X119491500Y-85472337D01*
X119491500Y-85816000D01*
X119471498Y-85884121D01*
X119417842Y-85930614D01*
X119365501Y-85942000D01*
X119205332Y-85942001D01*
X119198507Y-85942371D01*
X119163607Y-85946161D01*
X119136397Y-85946161D01*
X119101490Y-85942369D01*
X119094671Y-85942000D01*
X119068115Y-85942000D01*
X119052876Y-85946475D01*
X119051671Y-85947865D01*
X119050000Y-85955548D01*
X119050000Y-86091116D01*
X119029998Y-86159237D01*
X118976342Y-86205730D01*
X118906068Y-86215834D01*
X118841488Y-86186340D01*
X118823174Y-86166681D01*
X118768642Y-86093919D01*
X118763261Y-86086739D01*
X118646705Y-85999385D01*
X118646921Y-85999096D01*
X118600861Y-85952935D01*
X118598647Y-85947582D01*
X118594135Y-85943672D01*
X118586452Y-85942001D01*
X118555330Y-85942001D01*
X118548512Y-85942370D01*
X118515933Y-85945909D01*
X118488720Y-85945909D01*
X118448134Y-85941500D01*
X117901866Y-85941500D01*
X117898471Y-85941869D01*
X117898467Y-85941869D01*
X117872469Y-85944693D01*
X117863606Y-85945656D01*
X117836394Y-85945656D01*
X117827531Y-85944693D01*
X117801533Y-85941869D01*
X117801529Y-85941869D01*
X117798134Y-85941500D01*
X117251866Y-85941500D01*
X117248471Y-85941869D01*
X117248467Y-85941869D01*
X117222469Y-85944693D01*
X117213606Y-85945656D01*
X117186394Y-85945656D01*
X117177531Y-85944693D01*
X117151533Y-85941869D01*
X117151529Y-85941869D01*
X117148134Y-85941500D01*
X116601866Y-85941500D01*
X116539684Y-85948255D01*
X116403295Y-85999385D01*
X116286739Y-86086739D01*
X116199385Y-86203295D01*
X116148255Y-86339684D01*
X116141500Y-86401866D01*
X116141500Y-86719625D01*
X116121498Y-86787746D01*
X116067842Y-86834239D01*
X116000581Y-86844739D01*
X115958412Y-86839711D01*
X115930680Y-86836404D01*
X115923677Y-86837140D01*
X115923676Y-86837140D01*
X115757288Y-86854628D01*
X115757286Y-86854629D01*
X115750288Y-86855364D01*
X115578579Y-86913818D01*
X115556660Y-86927303D01*
X115430095Y-87005166D01*
X115430092Y-87005168D01*
X115424088Y-87008862D01*
X115419053Y-87013793D01*
X115419050Y-87013795D01*
X115325630Y-87105279D01*
X115294493Y-87135771D01*
X115196235Y-87288238D01*
X115193826Y-87294858D01*
X115193824Y-87294861D01*
X115151938Y-87409942D01*
X115134197Y-87458685D01*
X115111463Y-87638640D01*
X115129163Y-87819160D01*
X115186418Y-87991273D01*
X115190065Y-87997295D01*
X115190066Y-87997297D01*
X115274203Y-88136224D01*
X115280380Y-88146424D01*
X115285274Y-88151492D01*
X115286916Y-88153624D01*
X115312630Y-88219801D01*
X115298485Y-88289374D01*
X115248971Y-88340255D01*
X115187085Y-88356500D01*
X115116287Y-88356500D01*
X115048166Y-88336498D01*
X115039058Y-88330057D01*
X115033368Y-88325643D01*
X115027763Y-88320038D01*
X115020947Y-88316007D01*
X115020943Y-88316004D01*
X114891923Y-88239703D01*
X114885100Y-88235668D01*
X114877489Y-88233457D01*
X114877487Y-88233456D01*
X114826804Y-88218732D01*
X114725937Y-88189427D01*
X114719532Y-88188923D01*
X114719527Y-88188922D01*
X114691203Y-88186693D01*
X114691195Y-88186693D01*
X114688747Y-88186500D01*
X114450145Y-88186500D01*
X114211254Y-88186501D01*
X114174063Y-88189427D01*
X114116447Y-88206166D01*
X114022516Y-88233455D01*
X114022514Y-88233456D01*
X114014900Y-88235668D01*
X114008074Y-88239705D01*
X114007066Y-88240141D01*
X113936604Y-88248837D01*
X113906236Y-88234227D01*
X113904389Y-88238303D01*
X113861799Y-88219000D01*
X113584386Y-88219000D01*
X113520247Y-88201453D01*
X113491929Y-88184706D01*
X113491925Y-88184704D01*
X113485100Y-88180668D01*
X113477489Y-88178457D01*
X113477487Y-88178456D01*
X113426804Y-88163732D01*
X113325937Y-88134427D01*
X113319532Y-88133923D01*
X113319527Y-88133922D01*
X113291203Y-88131693D01*
X113291195Y-88131693D01*
X113288747Y-88131500D01*
X113050145Y-88131500D01*
X112811254Y-88131501D01*
X112774063Y-88134427D01*
X112675983Y-88162922D01*
X112622513Y-88178456D01*
X112622511Y-88178457D01*
X112614900Y-88180668D01*
X112608075Y-88184704D01*
X112608071Y-88184706D01*
X112579753Y-88201453D01*
X112515614Y-88219000D01*
X112243954Y-88219000D01*
X112228229Y-88223617D01*
X112157232Y-88223616D01*
X112128594Y-88211174D01*
X112066927Y-88174705D01*
X112066924Y-88174704D01*
X112060100Y-88170668D01*
X112052489Y-88168457D01*
X112052487Y-88168456D01*
X111976651Y-88146424D01*
X111900937Y-88124427D01*
X111894532Y-88123923D01*
X111894527Y-88123922D01*
X111866203Y-88121693D01*
X111866195Y-88121693D01*
X111863747Y-88121500D01*
X111650130Y-88121500D01*
X111436254Y-88121501D01*
X111399063Y-88124427D01*
X111323349Y-88146424D01*
X111247513Y-88168456D01*
X111247511Y-88168457D01*
X111239900Y-88170668D01*
X111229140Y-88177032D01*
X111160326Y-88194492D01*
X111100861Y-88177032D01*
X111090100Y-88170668D01*
X111082489Y-88168457D01*
X111082487Y-88168456D01*
X111006651Y-88146424D01*
X110930937Y-88124427D01*
X110924532Y-88123923D01*
X110924527Y-88123922D01*
X110896203Y-88121693D01*
X110896195Y-88121693D01*
X110893747Y-88121500D01*
X110680130Y-88121500D01*
X110466254Y-88121501D01*
X110429063Y-88124427D01*
X110353349Y-88146424D01*
X110277513Y-88168456D01*
X110277511Y-88168457D01*
X110269900Y-88170668D01*
X110263079Y-88174702D01*
X110263077Y-88174703D01*
X110139101Y-88248022D01*
X110127237Y-88255038D01*
X110102680Y-88279595D01*
X110040368Y-88313621D01*
X110013585Y-88316500D01*
X109628767Y-88316500D01*
X109617584Y-88315973D01*
X109610091Y-88314298D01*
X109602165Y-88314547D01*
X109602164Y-88314547D01*
X109542014Y-88316438D01*
X109538055Y-88316500D01*
X109510144Y-88316500D01*
X109506210Y-88316997D01*
X109506209Y-88316997D01*
X109506144Y-88317005D01*
X109494307Y-88317938D01*
X109462490Y-88318938D01*
X109458029Y-88319078D01*
X109450110Y-88319327D01*
X109437959Y-88322857D01*
X109430658Y-88324978D01*
X109411306Y-88328986D01*
X109404235Y-88329880D01*
X109391203Y-88331526D01*
X109383836Y-88334443D01*
X109376155Y-88336415D01*
X109375663Y-88334498D01*
X109315419Y-88340023D01*
X109252438Y-88307254D01*
X109217170Y-88245636D01*
X109213729Y-88216390D01*
X109213729Y-88109992D01*
X109213731Y-88109222D01*
X109214160Y-88039069D01*
X109214160Y-88039063D01*
X109214187Y-88034583D01*
X109194420Y-87890273D01*
X109155063Y-87752564D01*
X109128689Y-87693605D01*
X112230891Y-87693605D01*
X112230931Y-87707705D01*
X112238201Y-87711000D01*
X112777885Y-87711000D01*
X112793124Y-87706525D01*
X112794329Y-87705135D01*
X112796000Y-87697452D01*
X112796000Y-87692885D01*
X113304000Y-87692885D01*
X113308475Y-87708124D01*
X113309865Y-87709329D01*
X113317548Y-87711000D01*
X113856048Y-87711000D01*
X113869579Y-87707027D01*
X113870714Y-87699129D01*
X113831082Y-87562713D01*
X113824834Y-87548276D01*
X113748601Y-87419373D01*
X113738952Y-87406935D01*
X113633065Y-87301048D01*
X113620627Y-87291399D01*
X113491724Y-87215166D01*
X113477287Y-87208918D01*
X113332043Y-87166721D01*
X113321365Y-87164771D01*
X113306969Y-87167795D01*
X113304000Y-87179258D01*
X113304000Y-87692885D01*
X112796000Y-87692885D01*
X112796000Y-87181319D01*
X112791656Y-87166524D01*
X112780160Y-87164492D01*
X112767957Y-87166721D01*
X112622713Y-87208918D01*
X112608276Y-87215166D01*
X112479373Y-87291399D01*
X112466935Y-87301048D01*
X112361048Y-87406935D01*
X112351399Y-87419373D01*
X112275166Y-87548276D01*
X112268918Y-87562713D01*
X112230891Y-87693605D01*
X109128689Y-87693605D01*
X109095586Y-87619602D01*
X109093200Y-87615820D01*
X109093196Y-87615813D01*
X109038636Y-87529341D01*
X109019160Y-87498474D01*
X108924754Y-87387548D01*
X108817403Y-87292740D01*
X108810550Y-87288238D01*
X108699414Y-87215236D01*
X108695666Y-87212774D01*
X108691609Y-87210869D01*
X108691605Y-87210867D01*
X108570076Y-87153809D01*
X108566021Y-87151905D01*
X108561738Y-87150596D01*
X108561734Y-87150594D01*
X108431011Y-87110628D01*
X108426723Y-87109317D01*
X108422300Y-87108628D01*
X108422294Y-87108627D01*
X108362432Y-87099307D01*
X108285205Y-87087283D01*
X108280738Y-87087228D01*
X108280733Y-87087228D01*
X108207169Y-87086329D01*
X108139562Y-87085503D01*
X108135277Y-87086063D01*
X108128240Y-87086271D01*
X107738953Y-87086271D01*
X107738953Y-87086273D01*
X107735986Y-87086682D01*
X107639562Y-87085504D01*
X107635120Y-87086085D01*
X107635117Y-87086085D01*
X107501998Y-87103492D01*
X107501996Y-87103492D01*
X107497548Y-87104074D01*
X107357252Y-87143245D01*
X107226159Y-87200928D01*
X107157228Y-87243834D01*
X107106306Y-87275530D01*
X107106302Y-87275533D01*
X107102504Y-87277897D01*
X107099076Y-87280779D01*
X107099074Y-87280780D01*
X107017202Y-87349600D01*
X106992869Y-87370054D01*
X106989881Y-87373396D01*
X106937749Y-87431701D01*
X106877433Y-87469151D01*
X106876883Y-87469270D01*
X106875111Y-87469326D01*
X106870651Y-87470622D01*
X106870641Y-87470624D01*
X106855659Y-87474977D01*
X106836296Y-87478988D01*
X106816203Y-87481526D01*
X106808836Y-87484443D01*
X106808831Y-87484444D01*
X106775092Y-87497802D01*
X106763865Y-87501646D01*
X106721407Y-87513982D01*
X106714581Y-87518019D01*
X106703972Y-87524293D01*
X106686224Y-87532988D01*
X106667383Y-87540448D01*
X106660967Y-87545110D01*
X106660966Y-87545110D01*
X106631613Y-87566436D01*
X106621693Y-87572952D01*
X106590465Y-87591420D01*
X106590462Y-87591422D01*
X106583638Y-87595458D01*
X106569317Y-87609779D01*
X106554284Y-87622619D01*
X106537893Y-87634528D01*
X106532842Y-87640633D01*
X106532837Y-87640638D01*
X106509701Y-87668604D01*
X106501713Y-87677382D01*
X105974500Y-88204595D01*
X105912188Y-88238621D01*
X105885405Y-88241500D01*
X104558498Y-88241500D01*
X104556050Y-88241693D01*
X104556042Y-88241693D01*
X104527579Y-88243933D01*
X104527574Y-88243934D01*
X104521169Y-88244438D01*
X104421231Y-88273472D01*
X104369012Y-88288643D01*
X104369010Y-88288644D01*
X104361399Y-88290855D01*
X104354572Y-88294892D01*
X104354573Y-88294892D01*
X104225020Y-88371509D01*
X104225017Y-88371511D01*
X104218193Y-88375547D01*
X104100547Y-88493193D01*
X104096513Y-88500014D01*
X104064637Y-88553914D01*
X104043195Y-88580676D01*
X104037893Y-88584528D01*
X104032844Y-88590631D01*
X104032841Y-88590634D01*
X104009707Y-88618598D01*
X104001717Y-88627379D01*
X103057742Y-89571353D01*
X103049463Y-89578887D01*
X103042982Y-89583000D01*
X102996357Y-89632651D01*
X102993602Y-89635493D01*
X102973865Y-89655230D01*
X102971385Y-89658427D01*
X102963682Y-89667447D01*
X102933414Y-89699679D01*
X102929595Y-89706625D01*
X102929593Y-89706628D01*
X102923652Y-89717434D01*
X102912801Y-89733953D01*
X102900386Y-89749959D01*
X102897241Y-89757228D01*
X102897238Y-89757232D01*
X102882826Y-89790537D01*
X102877609Y-89801187D01*
X102856305Y-89839940D01*
X102854334Y-89847615D01*
X102854334Y-89847616D01*
X102851267Y-89859562D01*
X102844863Y-89878266D01*
X102836819Y-89896855D01*
X102835580Y-89904678D01*
X102835577Y-89904688D01*
X102829901Y-89940524D01*
X102827495Y-89952144D01*
X102816500Y-89994970D01*
X102816500Y-90015224D01*
X102814949Y-90034934D01*
X102811780Y-90054943D01*
X102812526Y-90062835D01*
X102815941Y-90098961D01*
X102816500Y-90110819D01*
X102816500Y-92414521D01*
X102796498Y-92482642D01*
X102742842Y-92529135D01*
X102672568Y-92539239D01*
X102607988Y-92509745D01*
X102601482Y-92503694D01*
X102503483Y-92405866D01*
X102498303Y-92400695D01*
X102347738Y-92307885D01*
X102244965Y-92273797D01*
X102186389Y-92254368D01*
X102186387Y-92254368D01*
X102179861Y-92252203D01*
X102173025Y-92251503D01*
X102173022Y-92251502D01*
X102129969Y-92247091D01*
X102075400Y-92241500D01*
X100674600Y-92241500D01*
X100671359Y-92241836D01*
X100671345Y-92241837D01*
X100647502Y-92244311D01*
X100577681Y-92231445D01*
X100525899Y-92182874D01*
X100508500Y-92118984D01*
X100508500Y-88981051D01*
X100528502Y-88912930D01*
X100582158Y-88866437D01*
X100647343Y-88855707D01*
X100674600Y-88858500D01*
X102075400Y-88858500D01*
X102078646Y-88858163D01*
X102078650Y-88858163D01*
X102174308Y-88848238D01*
X102174312Y-88848237D01*
X102181166Y-88847526D01*
X102187702Y-88845345D01*
X102187704Y-88845345D01*
X102328120Y-88798498D01*
X102348946Y-88791550D01*
X102499348Y-88698478D01*
X102624305Y-88573303D01*
X102628146Y-88567072D01*
X102713275Y-88428968D01*
X102713276Y-88428966D01*
X102717115Y-88422738D01*
X102746390Y-88334476D01*
X102770632Y-88261389D01*
X102770632Y-88261387D01*
X102772797Y-88254861D01*
X102773819Y-88244892D01*
X102781650Y-88168456D01*
X102783500Y-88150400D01*
X102783500Y-87349600D01*
X102781674Y-87332001D01*
X102773238Y-87250692D01*
X102773237Y-87250688D01*
X102772526Y-87243834D01*
X102761617Y-87211134D01*
X102718868Y-87083002D01*
X102716550Y-87076054D01*
X102623478Y-86925652D01*
X102618297Y-86920480D01*
X102618293Y-86920475D01*
X102606535Y-86908738D01*
X102572454Y-86846456D01*
X102577456Y-86775636D01*
X102619953Y-86718763D01*
X102686451Y-86693893D01*
X102705108Y-86693927D01*
X102953602Y-86712829D01*
X102953607Y-86712829D01*
X102957379Y-86713116D01*
X103283633Y-86698586D01*
X103289844Y-86697552D01*
X103602037Y-86645590D01*
X103602042Y-86645589D01*
X103605778Y-86644967D01*
X103919149Y-86553034D01*
X103922616Y-86551544D01*
X103922620Y-86551543D01*
X104215721Y-86425616D01*
X104215723Y-86425615D01*
X104219205Y-86424119D01*
X104501601Y-86260091D01*
X104762245Y-86063324D01*
X104948140Y-85884121D01*
X104994632Y-85839303D01*
X104994635Y-85839300D01*
X104997363Y-85836670D01*
X105133261Y-85669745D01*
X105201155Y-85586351D01*
X105201158Y-85586347D01*
X105203549Y-85583410D01*
X105257156Y-85498448D01*
X105375788Y-85310428D01*
X105375790Y-85310425D01*
X105377815Y-85307215D01*
X105517638Y-85012084D01*
X105526641Y-84985100D01*
X105619790Y-84705897D01*
X105619792Y-84705891D01*
X105620992Y-84702293D01*
X105672933Y-84448134D01*
X114291500Y-84448134D01*
X114298255Y-84510316D01*
X114349385Y-84646705D01*
X114436739Y-84763261D01*
X114553295Y-84850615D01*
X114689684Y-84901745D01*
X114751866Y-84908500D01*
X116548134Y-84908500D01*
X116610316Y-84901745D01*
X116746705Y-84850615D01*
X116787768Y-84819840D01*
X117964492Y-84819840D01*
X117966721Y-84832043D01*
X118008918Y-84977287D01*
X118015166Y-84991724D01*
X118091399Y-85120627D01*
X118101048Y-85133065D01*
X118206935Y-85238952D01*
X118219373Y-85248601D01*
X118348276Y-85324834D01*
X118362713Y-85331082D01*
X118493605Y-85369109D01*
X118507705Y-85369069D01*
X118511000Y-85361799D01*
X118511000Y-84822115D01*
X118506525Y-84806876D01*
X118505135Y-84805671D01*
X118497452Y-84804000D01*
X117981319Y-84804000D01*
X117966524Y-84808344D01*
X117964492Y-84819840D01*
X116787768Y-84819840D01*
X116863261Y-84763261D01*
X116950615Y-84646705D01*
X117001745Y-84510316D01*
X117008500Y-84448134D01*
X117008500Y-84278635D01*
X117964771Y-84278635D01*
X117967795Y-84293031D01*
X117979258Y-84296000D01*
X118492885Y-84296000D01*
X118508124Y-84291525D01*
X118509329Y-84290135D01*
X118511000Y-84282452D01*
X118511000Y-83743952D01*
X118507027Y-83730421D01*
X118499129Y-83729286D01*
X118362713Y-83768918D01*
X118348276Y-83775166D01*
X118219373Y-83851399D01*
X118206935Y-83861048D01*
X118101048Y-83966935D01*
X118091399Y-83979373D01*
X118015166Y-84108276D01*
X118008918Y-84122713D01*
X117966721Y-84267957D01*
X117964771Y-84278635D01*
X117008500Y-84278635D01*
X117008500Y-82651866D01*
X117001745Y-82589684D01*
X116950615Y-82453295D01*
X116863261Y-82336739D01*
X116746705Y-82249385D01*
X116610316Y-82198255D01*
X116548134Y-82191500D01*
X114751866Y-82191500D01*
X114689684Y-82198255D01*
X114553295Y-82249385D01*
X114436739Y-82336739D01*
X114349385Y-82453295D01*
X114298255Y-82589684D01*
X114291500Y-82651866D01*
X114291500Y-84448134D01*
X105672933Y-84448134D01*
X105686381Y-84382329D01*
X105691962Y-84313722D01*
X105707513Y-84122513D01*
X105712856Y-84056826D01*
X105713451Y-84000000D01*
X105713285Y-83997238D01*
X105694026Y-83677793D01*
X105694026Y-83677789D01*
X105693798Y-83674015D01*
X105688650Y-83645824D01*
X105635805Y-83356473D01*
X105635804Y-83356469D01*
X105635125Y-83352751D01*
X105627722Y-83328907D01*
X105539404Y-83044477D01*
X105538282Y-83040863D01*
X105404670Y-82742869D01*
X105236226Y-82463084D01*
X105233899Y-82460100D01*
X105233894Y-82460093D01*
X105037726Y-82208558D01*
X105037724Y-82208556D01*
X105035390Y-82205563D01*
X104805070Y-81974034D01*
X104548603Y-81771852D01*
X104522184Y-81755757D01*
X104499774Y-81742105D01*
X104452005Y-81689582D01*
X104440216Y-81619571D01*
X104468148Y-81554300D01*
X104526934Y-81514492D01*
X104565328Y-81508500D01*
X134432195Y-81508500D01*
X134500316Y-81528502D01*
G37*
%TD.AperFunction*%
%TA.AperFunction,Conductor*%
G36*
X124213527Y-85203502D02*
G01*
X124234501Y-85220405D01*
X126579595Y-87565500D01*
X126613621Y-87627812D01*
X126616500Y-87654595D01*
X126616500Y-89303331D01*
X126596411Y-89371586D01*
X126525054Y-89482310D01*
X126525050Y-89482319D01*
X126521235Y-89488238D01*
X126459197Y-89658685D01*
X126436463Y-89838640D01*
X126454163Y-90019160D01*
X126511418Y-90191273D01*
X126605380Y-90346424D01*
X126610269Y-90351487D01*
X126610270Y-90351488D01*
X126670376Y-90413729D01*
X126731382Y-90476902D01*
X126768622Y-90501271D01*
X126870205Y-90567745D01*
X126883159Y-90576222D01*
X126889763Y-90578678D01*
X126889765Y-90578679D01*
X127046558Y-90636990D01*
X127046560Y-90636990D01*
X127053168Y-90639448D01*
X127136995Y-90650633D01*
X127225980Y-90662507D01*
X127225984Y-90662507D01*
X127232961Y-90663438D01*
X127239972Y-90662800D01*
X127239976Y-90662800D01*
X127382459Y-90649832D01*
X127413600Y-90646998D01*
X127420302Y-90644820D01*
X127420304Y-90644820D01*
X127579409Y-90593124D01*
X127579412Y-90593123D01*
X127586108Y-90590947D01*
X127715493Y-90513818D01*
X127736541Y-90501271D01*
X127801058Y-90483500D01*
X129482253Y-90483500D01*
X129550374Y-90503502D01*
X129596867Y-90557158D01*
X129606702Y-90629212D01*
X129604912Y-90640513D01*
X129602505Y-90652134D01*
X129591510Y-90694960D01*
X129591510Y-90715214D01*
X129589959Y-90734924D01*
X129586790Y-90754933D01*
X129589491Y-90783501D01*
X129590951Y-90798951D01*
X129591510Y-90810809D01*
X129591510Y-92124443D01*
X129571508Y-92192564D01*
X129517852Y-92239057D01*
X129478681Y-92249753D01*
X129432298Y-92254628D01*
X129432296Y-92254628D01*
X129425298Y-92255364D01*
X129392586Y-92266500D01*
X129385606Y-92268876D01*
X129309849Y-92270595D01*
X129263216Y-92257047D01*
X129157114Y-92226221D01*
X129157109Y-92226220D01*
X129150937Y-92224427D01*
X129144532Y-92223923D01*
X129144527Y-92223922D01*
X129116203Y-92221693D01*
X129116195Y-92221693D01*
X129113747Y-92221500D01*
X128900130Y-92221500D01*
X128686254Y-92221501D01*
X128649063Y-92224427D01*
X128582102Y-92243881D01*
X128497513Y-92268456D01*
X128497511Y-92268457D01*
X128489900Y-92270668D01*
X128479140Y-92277032D01*
X128410326Y-92294492D01*
X128350861Y-92277032D01*
X128340100Y-92270668D01*
X128332489Y-92268457D01*
X128332487Y-92268456D01*
X128247898Y-92243881D01*
X128180937Y-92224427D01*
X128174532Y-92223923D01*
X128174527Y-92223922D01*
X128146203Y-92221693D01*
X128146195Y-92221693D01*
X128143747Y-92221500D01*
X127930130Y-92221500D01*
X127716254Y-92221501D01*
X127679063Y-92224427D01*
X127612102Y-92243881D01*
X127527513Y-92268456D01*
X127527511Y-92268457D01*
X127519900Y-92270668D01*
X127513079Y-92274702D01*
X127505800Y-92277852D01*
X127505038Y-92276091D01*
X127446184Y-92291021D01*
X127408601Y-92283807D01*
X127342428Y-92260244D01*
X127342422Y-92260243D01*
X127335790Y-92257881D01*
X127328802Y-92257048D01*
X127328799Y-92257047D01*
X127198416Y-92241500D01*
X127155680Y-92236404D01*
X127148677Y-92237140D01*
X127148676Y-92237140D01*
X126982288Y-92254628D01*
X126982286Y-92254629D01*
X126975288Y-92255364D01*
X126803579Y-92313818D01*
X126667039Y-92397819D01*
X126601019Y-92416500D01*
X123564595Y-92416500D01*
X123496474Y-92396498D01*
X123475500Y-92379595D01*
X122553652Y-91457747D01*
X122546112Y-91449461D01*
X122542000Y-91442982D01*
X122492348Y-91396356D01*
X122489507Y-91393602D01*
X122469770Y-91373865D01*
X122466573Y-91371385D01*
X122457551Y-91363680D01*
X122425321Y-91333414D01*
X122418375Y-91329595D01*
X122418372Y-91329593D01*
X122407566Y-91323652D01*
X122391047Y-91312801D01*
X122388720Y-91310996D01*
X122375041Y-91300386D01*
X122367772Y-91297241D01*
X122367768Y-91297238D01*
X122334463Y-91282826D01*
X122323813Y-91277609D01*
X122285060Y-91256305D01*
X122265437Y-91251267D01*
X122246734Y-91244863D01*
X122235420Y-91239967D01*
X122235419Y-91239967D01*
X122228145Y-91236819D01*
X122220322Y-91235580D01*
X122220312Y-91235577D01*
X122184476Y-91229901D01*
X122172856Y-91227495D01*
X122137711Y-91218472D01*
X122137710Y-91218472D01*
X122130030Y-91216500D01*
X122109776Y-91216500D01*
X122090065Y-91214949D01*
X122077886Y-91213020D01*
X122070057Y-91211780D01*
X122040786Y-91214547D01*
X122026039Y-91215941D01*
X122014181Y-91216500D01*
X121193766Y-91216500D01*
X121182583Y-91215973D01*
X121175090Y-91214298D01*
X121167164Y-91214547D01*
X121167163Y-91214547D01*
X121107000Y-91216438D01*
X121103042Y-91216500D01*
X121075142Y-91216500D01*
X121071152Y-91217004D01*
X121059318Y-91217936D01*
X121015109Y-91219326D01*
X121007495Y-91221538D01*
X121007490Y-91221539D01*
X120995657Y-91224977D01*
X120976294Y-91228988D01*
X120956201Y-91231526D01*
X120948834Y-91234443D01*
X120948829Y-91234444D01*
X120915090Y-91247802D01*
X120903863Y-91251646D01*
X120869020Y-91261769D01*
X120869016Y-91261771D01*
X120866972Y-91262365D01*
X120866969Y-91262365D01*
X120861405Y-91263982D01*
X120861144Y-91263085D01*
X120797450Y-91270948D01*
X120728463Y-91235397D01*
X120715273Y-91222114D01*
X120670808Y-91177338D01*
X120614778Y-91120915D01*
X120614774Y-91120912D01*
X120609815Y-91115918D01*
X120598697Y-91108862D01*
X120528919Y-91064580D01*
X120456666Y-91018727D01*
X120386542Y-90993757D01*
X120292425Y-90960243D01*
X120292420Y-90960242D01*
X120285790Y-90957881D01*
X120278802Y-90957048D01*
X120278799Y-90957047D01*
X120131962Y-90939538D01*
X120105680Y-90936404D01*
X120098677Y-90937140D01*
X120098676Y-90937140D01*
X119932288Y-90954628D01*
X119932286Y-90954629D01*
X119925288Y-90955364D01*
X119753579Y-91013818D01*
X119704249Y-91044166D01*
X119605095Y-91105166D01*
X119605092Y-91105168D01*
X119599088Y-91108862D01*
X119594053Y-91113793D01*
X119594050Y-91113795D01*
X119475487Y-91229901D01*
X119469493Y-91235771D01*
X119371235Y-91388238D01*
X119368826Y-91394858D01*
X119368824Y-91394861D01*
X119321564Y-91524706D01*
X119309197Y-91558685D01*
X119289244Y-91716631D01*
X119286937Y-91734889D01*
X119258555Y-91799966D01*
X119199495Y-91839367D01*
X119175539Y-91844360D01*
X119163606Y-91845656D01*
X119136394Y-91845656D01*
X119124463Y-91844360D01*
X119101533Y-91841869D01*
X119101529Y-91841869D01*
X119098134Y-91841500D01*
X118551866Y-91841500D01*
X118548471Y-91841869D01*
X118548467Y-91841869D01*
X118525537Y-91844360D01*
X118513606Y-91845656D01*
X118486394Y-91845656D01*
X118474463Y-91844360D01*
X118451533Y-91841869D01*
X118451529Y-91841869D01*
X118448134Y-91841500D01*
X117901866Y-91841500D01*
X117898471Y-91841869D01*
X117898467Y-91841869D01*
X117875537Y-91844360D01*
X117863606Y-91845656D01*
X117836394Y-91845656D01*
X117824463Y-91844360D01*
X117801533Y-91841869D01*
X117801529Y-91841869D01*
X117798134Y-91841500D01*
X117251866Y-91841500D01*
X117248471Y-91841869D01*
X117248467Y-91841869D01*
X117225537Y-91844360D01*
X117213606Y-91845656D01*
X117186394Y-91845656D01*
X117174463Y-91844360D01*
X117151533Y-91841869D01*
X117151529Y-91841869D01*
X117148134Y-91841500D01*
X116601866Y-91841500D01*
X116539684Y-91848255D01*
X116403295Y-91899385D01*
X116286739Y-91986739D01*
X116281358Y-91993919D01*
X116281158Y-91994186D01*
X116280893Y-91994384D01*
X116275008Y-92000269D01*
X116274158Y-91999419D01*
X116224296Y-92036698D01*
X116153478Y-92041720D01*
X116091186Y-92007658D01*
X116071881Y-91982755D01*
X116048996Y-91944058D01*
X116048996Y-91944057D01*
X116044962Y-91937237D01*
X116020405Y-91912680D01*
X115986379Y-91850368D01*
X115983500Y-91823585D01*
X115983500Y-91774177D01*
X116003502Y-91706056D01*
X116044982Y-91665948D01*
X116110866Y-91626673D01*
X116116912Y-91623069D01*
X116122006Y-91618218D01*
X116122010Y-91618215D01*
X116216414Y-91528314D01*
X116248266Y-91497982D01*
X116348643Y-91346902D01*
X116393435Y-91228988D01*
X116410555Y-91183920D01*
X116410556Y-91183918D01*
X116413055Y-91177338D01*
X116421687Y-91115918D01*
X116437748Y-91001639D01*
X116437748Y-91001636D01*
X116438299Y-90997717D01*
X116438616Y-90975000D01*
X116418397Y-90794745D01*
X116405316Y-90757181D01*
X116401804Y-90686272D01*
X116437186Y-90624720D01*
X116504596Y-90591297D01*
X116506963Y-90590922D01*
X116514889Y-90590673D01*
X116534343Y-90585021D01*
X116553700Y-90581013D01*
X116565930Y-90579468D01*
X116565931Y-90579468D01*
X116573797Y-90578474D01*
X116581168Y-90575555D01*
X116581170Y-90575555D01*
X116614912Y-90562196D01*
X116626142Y-90558351D01*
X116660983Y-90548229D01*
X116660984Y-90548229D01*
X116668593Y-90546018D01*
X116675412Y-90541985D01*
X116675417Y-90541983D01*
X116686028Y-90535707D01*
X116703776Y-90527012D01*
X116722617Y-90519552D01*
X116749529Y-90500000D01*
X116758387Y-90493564D01*
X116768307Y-90487048D01*
X116799535Y-90468580D01*
X116799538Y-90468578D01*
X116806362Y-90464542D01*
X116820683Y-90450221D01*
X116835717Y-90437380D01*
X116852107Y-90425472D01*
X116880298Y-90391395D01*
X116888288Y-90382616D01*
X118567253Y-88703652D01*
X118575539Y-88696112D01*
X118582018Y-88692000D01*
X118628644Y-88642348D01*
X118631398Y-88639507D01*
X118651135Y-88619770D01*
X118653615Y-88616573D01*
X118661320Y-88607551D01*
X118686159Y-88581100D01*
X118691586Y-88575321D01*
X118695405Y-88568375D01*
X118695407Y-88568372D01*
X118701348Y-88557566D01*
X118712199Y-88541047D01*
X118719758Y-88531301D01*
X118724614Y-88525041D01*
X118727759Y-88517772D01*
X118727762Y-88517768D01*
X118742174Y-88484463D01*
X118747391Y-88473813D01*
X118768695Y-88435060D01*
X118773733Y-88415437D01*
X118780137Y-88396734D01*
X118785033Y-88385420D01*
X118785033Y-88385419D01*
X118788181Y-88378145D01*
X118789420Y-88370322D01*
X118789423Y-88370312D01*
X118795099Y-88334476D01*
X118797505Y-88322857D01*
X118801958Y-88305512D01*
X118838271Y-88244505D01*
X118901802Y-88212815D01*
X118972382Y-88220503D01*
X119027600Y-88265129D01*
X119050000Y-88336844D01*
X119050000Y-88439884D01*
X119054475Y-88455123D01*
X119055865Y-88456328D01*
X119063548Y-88457999D01*
X119094669Y-88457999D01*
X119101493Y-88457629D01*
X119136393Y-88453839D01*
X119163603Y-88453839D01*
X119198510Y-88457631D01*
X119205329Y-88458000D01*
X119231885Y-88458000D01*
X119247124Y-88453525D01*
X119248329Y-88452135D01*
X119250000Y-88444452D01*
X119250000Y-88308884D01*
X119270002Y-88240763D01*
X119323658Y-88194270D01*
X119393932Y-88184166D01*
X119458512Y-88213660D01*
X119476825Y-88233317D01*
X119536739Y-88313261D01*
X119651295Y-88399116D01*
X119653295Y-88400615D01*
X119653079Y-88400904D01*
X119699139Y-88447065D01*
X119701353Y-88452418D01*
X119705865Y-88456328D01*
X119713548Y-88457999D01*
X119744670Y-88457999D01*
X119751488Y-88457630D01*
X119784067Y-88454091D01*
X119811280Y-88454091D01*
X119851866Y-88458500D01*
X120398134Y-88458500D01*
X120401529Y-88458131D01*
X120401533Y-88458131D01*
X120429222Y-88455123D01*
X120436394Y-88454344D01*
X120463606Y-88454344D01*
X120470778Y-88455123D01*
X120498467Y-88458131D01*
X120498471Y-88458131D01*
X120501866Y-88458500D01*
X121048134Y-88458500D01*
X121051529Y-88458131D01*
X121051533Y-88458131D01*
X121079222Y-88455123D01*
X121086394Y-88454344D01*
X121113606Y-88454344D01*
X121120778Y-88455123D01*
X121148467Y-88458131D01*
X121148471Y-88458131D01*
X121151866Y-88458500D01*
X121698134Y-88458500D01*
X121760316Y-88451745D01*
X121896705Y-88400615D01*
X122013261Y-88313261D01*
X122100615Y-88196705D01*
X122151745Y-88060316D01*
X122158500Y-87998134D01*
X122158500Y-86723953D01*
X122178502Y-86655832D01*
X122232158Y-86609339D01*
X122245548Y-86604126D01*
X122286108Y-86590947D01*
X122400253Y-86522903D01*
X122435860Y-86501677D01*
X122435862Y-86501676D01*
X122441912Y-86498069D01*
X122573266Y-86372982D01*
X122673643Y-86221902D01*
X122722260Y-86093919D01*
X122735555Y-86058920D01*
X122735556Y-86058918D01*
X122738055Y-86052338D01*
X122744099Y-86009335D01*
X122762748Y-85876639D01*
X122762748Y-85876636D01*
X122763299Y-85872717D01*
X122763616Y-85850000D01*
X122743397Y-85669745D01*
X122713332Y-85583410D01*
X122686064Y-85505106D01*
X122686062Y-85505103D01*
X122683745Y-85498448D01*
X122664064Y-85466951D01*
X122607400Y-85376269D01*
X122588264Y-85307900D01*
X122609130Y-85240039D01*
X122663371Y-85194231D01*
X122714254Y-85183500D01*
X124145406Y-85183500D01*
X124213527Y-85203502D01*
G37*
%TD.AperFunction*%
%TA.AperFunction,Conductor*%
G36*
X119061285Y-86974508D02*
G01*
X119063547Y-86975000D01*
X119265500Y-86975000D01*
X119333621Y-86995002D01*
X119380114Y-87048658D01*
X119391500Y-87101000D01*
X119391500Y-87302372D01*
X119371498Y-87370493D01*
X119317842Y-87416986D01*
X119247568Y-87427090D01*
X119238715Y-87425492D01*
X119236453Y-87425000D01*
X119050000Y-87425000D01*
X119050000Y-87424448D01*
X118999000Y-87424447D01*
X118939275Y-87386062D01*
X118909782Y-87321481D01*
X118908500Y-87303551D01*
X118908500Y-87097628D01*
X118928502Y-87029507D01*
X118982158Y-86983014D01*
X119052432Y-86972910D01*
X119061285Y-86974508D01*
G37*
%TD.AperFunction*%
%TD*%
M02*
