%TF.GenerationSoftware,KiCad,Pcbnew,(6.0.4-0)*%
%TF.CreationDate,2022-07-19T08:11:49-06:00*%
%TF.ProjectId,two-wire-single,74776f2d-7769-4726-952d-73696e676c65,rev?*%
%TF.SameCoordinates,Original*%
%TF.FileFunction,Paste,Top*%
%TF.FilePolarity,Positive*%
%FSLAX46Y46*%
G04 Gerber Fmt 4.6, Leading zero omitted, Abs format (unit mm)*
G04 Created by KiCad (PCBNEW (6.0.4-0)) date 2022-07-19 08:11:49*
%MOMM*%
%LPD*%
G01*
G04 APERTURE LIST*
G04 Aperture macros list*
%AMRoundRect*
0 Rectangle with rounded corners*
0 $1 Rounding radius*
0 $2 $3 $4 $5 $6 $7 $8 $9 X,Y pos of 4 corners*
0 Add a 4 corners polygon primitive as box body*
4,1,4,$2,$3,$4,$5,$6,$7,$8,$9,$2,$3,0*
0 Add four circle primitives for the rounded corners*
1,1,$1+$1,$2,$3*
1,1,$1+$1,$4,$5*
1,1,$1+$1,$6,$7*
1,1,$1+$1,$8,$9*
0 Add four rect primitives between the rounded corners*
20,1,$1+$1,$2,$3,$4,$5,0*
20,1,$1+$1,$4,$5,$6,$7,0*
20,1,$1+$1,$6,$7,$8,$9,0*
20,1,$1+$1,$8,$9,$2,$3,0*%
G04 Aperture macros list end*
%ADD10RoundRect,0.147500X-0.147500X-0.172500X0.147500X-0.172500X0.147500X0.172500X-0.147500X0.172500X0*%
%ADD11RoundRect,0.147500X0.147500X0.172500X-0.147500X0.172500X-0.147500X-0.172500X0.147500X-0.172500X0*%
%ADD12RoundRect,0.250000X0.325000X0.450000X-0.325000X0.450000X-0.325000X-0.450000X0.325000X-0.450000X0*%
%ADD13RoundRect,0.147500X-0.172500X0.147500X-0.172500X-0.147500X0.172500X-0.147500X0.172500X0.147500X0*%
%ADD14RoundRect,0.147500X0.172500X-0.147500X0.172500X0.147500X-0.172500X0.147500X-0.172500X-0.147500X0*%
%ADD15R,0.450000X1.500000*%
%ADD16RoundRect,0.150000X-0.625000X0.150000X-0.625000X-0.150000X0.625000X-0.150000X0.625000X0.150000X0*%
%ADD17RoundRect,0.250000X-0.650000X0.350000X-0.650000X-0.350000X0.650000X-0.350000X0.650000X0.350000X0*%
%ADD18RoundRect,0.237500X0.237500X-0.287500X0.237500X0.287500X-0.237500X0.287500X-0.237500X-0.287500X0*%
%ADD19RoundRect,0.150000X0.625000X-0.150000X0.625000X0.150000X-0.625000X0.150000X-0.625000X-0.150000X0*%
%ADD20RoundRect,0.250000X0.650000X-0.350000X0.650000X0.350000X-0.650000X0.350000X-0.650000X-0.350000X0*%
G04 APERTURE END LIST*
D10*
%TO.C,R13*%
X110683000Y-92300000D03*
X111653000Y-92300000D03*
%TD*%
D11*
%TO.C,R14*%
X111650000Y-88950000D03*
X110680000Y-88950000D03*
%TD*%
%TO.C,R15*%
X111635000Y-90050000D03*
X110665000Y-90050000D03*
%TD*%
D12*
%TO.C,L2*%
X122475000Y-96750000D03*
X120425000Y-96750000D03*
%TD*%
D13*
%TO.C,C8*%
X113050000Y-87965000D03*
X113050000Y-88935000D03*
%TD*%
%TO.C,C9*%
X113050000Y-90050000D03*
X113050000Y-91020000D03*
%TD*%
%TO.C,C10*%
X114450000Y-88990000D03*
X114450000Y-89960000D03*
%TD*%
D14*
%TO.C,C11*%
X115350000Y-93460000D03*
X115350000Y-92490000D03*
%TD*%
D10*
%TO.C,C17*%
X120165000Y-94950000D03*
X121135000Y-94950000D03*
%TD*%
D15*
%TO.C,IC2*%
X121425000Y-87200000D03*
X120775000Y-87200000D03*
X120125000Y-87200000D03*
X119475000Y-87200000D03*
X118825000Y-87200000D03*
X118175000Y-87200000D03*
X117525000Y-87200000D03*
X116875000Y-87200000D03*
X116875000Y-93100000D03*
X117525000Y-93100000D03*
X118175000Y-93100000D03*
X118825000Y-93100000D03*
X119475000Y-93100000D03*
X120125000Y-93100000D03*
X120775000Y-93100000D03*
X121425000Y-93100000D03*
%TD*%
D10*
%TO.C,C27*%
X118765000Y-84550000D03*
X119735000Y-84550000D03*
%TD*%
D11*
%TO.C,R23*%
X122035000Y-84550000D03*
X121065000Y-84550000D03*
%TD*%
D10*
%TO.C,C18*%
X117780000Y-95750000D03*
X118750000Y-95750000D03*
%TD*%
D16*
%TO.C,J1*%
X105250000Y-89050000D03*
X105250000Y-90050000D03*
X105250000Y-91050000D03*
X105250000Y-92050000D03*
D17*
X101375000Y-93350000D03*
X101375000Y-87750000D03*
%TD*%
D18*
%TO.C,R1*%
X132050000Y-97375000D03*
X132050000Y-95625000D03*
%TD*%
%TO.C,R2*%
X130400000Y-97375000D03*
X130400000Y-95625000D03*
%TD*%
D19*
%TO.C,J2*%
X133750000Y-92000000D03*
X133750000Y-91000000D03*
X133750000Y-90000000D03*
X133750000Y-89000000D03*
D20*
X137625000Y-87700000D03*
X137625000Y-93300000D03*
%TD*%
D11*
%TO.C,R3*%
X128150000Y-94850000D03*
X127180000Y-94850000D03*
%TD*%
D10*
%TO.C,R4*%
X127930000Y-93050000D03*
X128900000Y-93050000D03*
%TD*%
M02*
