M48
; DRILL file {KiCad (6.0.4-0)} date Tuesday, July 19, 2022 at 08:11:49 AM
; FORMAT={-:-/ absolute / inch / decimal}
; #@! TF.CreationDate,2022-07-19T08:11:49-06:00
; #@! TF.GenerationSoftware,Kicad,Pcbnew,(6.0.4-0)
; #@! TF.FileFunction,Plated,1,4,PTH
FMAT,2
INCH
; #@! TA.AperFunction,Plated,PTH,ViaDrill
T1C0.0157
; #@! TA.AperFunction,Plated,PTH,ComponentDrill
T2C0.0157
; #@! TA.AperFunction,Plated,PTH,ComponentDrill
T3C0.0394
; #@! TA.AperFunction,Plated,PTH,ComponentDrill
T4C0.0866
%
G90
G05
T1
X4.2657Y-3.7028
X4.3563Y-3.6752
X4.4114Y-3.6831
X4.4508Y-3.624
X4.5522Y-3.5817
X4.564Y-3.4508
X4.6142Y-3.7205
X4.6516Y-3.7224
X4.6752Y-3.5138
X4.7283Y-3.6122
X4.7539Y-3.5531
X4.7625Y-3.3769
X4.8012Y-3.3799
X4.813Y-3.7382
X5.0059Y-3.6634
X5.0059Y-3.7815
X5.0098Y-3.3917
X5.0098Y-3.5374
X5.1024Y-3.6634
X5.126Y-3.5374
X5.1516Y-3.6634
X5.1969Y-3.5906
X5.1988Y-3.6299
X5.3327Y-3.5925
T2
X3.9902Y-3.3071
X3.9902Y-3.8189
X4.0092Y-3.2612
X4.0092Y-3.353
X4.0092Y-3.773
X4.0092Y-3.8648
X4.0551Y-3.2421
X4.0551Y-3.372
X4.0551Y-3.7539
X4.0551Y-3.8839
X4.1011Y-3.2612
X4.1011Y-3.353
X4.1011Y-3.773
X4.1011Y-3.8648
X4.1201Y-3.3071
X4.1201Y-3.8189
X5.2894Y-3.3071
X5.2894Y-3.8189
X5.3084Y-3.2612
X5.3084Y-3.353
X5.3084Y-3.773
X5.3084Y-3.8648
X5.3543Y-3.2421
X5.3543Y-3.372
X5.3543Y-3.7539
X5.3543Y-3.8839
X5.4003Y-3.2612
X5.4003Y-3.353
X5.4003Y-3.773
X5.4003Y-3.8648
X5.4193Y-3.3071
X5.4193Y-3.8189
T3
X4.5531Y-3.2894
T4
X4.0551Y-3.3071
X4.0551Y-3.8189
X5.3543Y-3.3071
X5.3543Y-3.8189
T0
M30
