%TF.GenerationSoftware,KiCad,Pcbnew,(6.0.4-0)*%
%TF.CreationDate,2022-07-19T08:11:49-06:00*%
%TF.ProjectId,two-wire-single,74776f2d-7769-4726-952d-73696e676c65,rev?*%
%TF.SameCoordinates,Original*%
%TF.FileFunction,Copper,L2,Inr*%
%TF.FilePolarity,Positive*%
%FSLAX46Y46*%
G04 Gerber Fmt 4.6, Leading zero omitted, Abs format (unit mm)*
G04 Created by KiCad (PCBNEW (6.0.4-0)) date 2022-07-19 08:11:49*
%MOMM*%
%LPD*%
G01*
G04 APERTURE LIST*
%TA.AperFunction,ComponentPad*%
%ADD10C,0.700000*%
%TD*%
%TA.AperFunction,ComponentPad*%
%ADD11C,4.400000*%
%TD*%
%TA.AperFunction,ComponentPad*%
%ADD12R,1.700000X1.700000*%
%TD*%
%TA.AperFunction,ViaPad*%
%ADD13C,0.600000*%
%TD*%
%TA.AperFunction,Conductor*%
%ADD14C,0.250000*%
%TD*%
G04 APERTURE END LIST*
D10*
%TO.N,GNDPWR*%
%TO.C,MH1*%
X101350000Y-84000000D03*
X103000000Y-82350000D03*
X104166726Y-85166726D03*
X104166726Y-82833274D03*
D11*
X103000000Y-84000000D03*
D10*
X104650000Y-84000000D03*
X101833274Y-82833274D03*
X101833274Y-85166726D03*
X103000000Y-85650000D03*
%TD*%
D11*
%TO.N,GNDPWR*%
%TO.C,MH2*%
X136000000Y-84000000D03*
D10*
X137166726Y-82833274D03*
X134350000Y-84000000D03*
X137650000Y-84000000D03*
X137166726Y-85166726D03*
X136000000Y-82350000D03*
X136000000Y-85650000D03*
X134833274Y-85166726D03*
X134833274Y-82833274D03*
%TD*%
%TO.N,GNDPWR*%
%TO.C,MH3*%
X101833274Y-98166726D03*
D11*
X103000000Y-97000000D03*
D10*
X104166726Y-98166726D03*
X101833274Y-95833274D03*
X104166726Y-95833274D03*
X103000000Y-95350000D03*
X104650000Y-97000000D03*
X101350000Y-97000000D03*
X103000000Y-98650000D03*
%TD*%
D11*
%TO.N,GNDPWR*%
%TO.C,MH4*%
X136000000Y-97000000D03*
D10*
X134833274Y-95833274D03*
X134350000Y-97000000D03*
X137650000Y-97000000D03*
X136000000Y-95350000D03*
X137166726Y-98166726D03*
X137166726Y-95833274D03*
X134833274Y-98166726D03*
X136000000Y-98650000D03*
%TD*%
D12*
%TO.N,/Channel1/~{DRDY}*%
%TO.C,J3*%
X115650000Y-83550000D03*
%TD*%
D13*
%TO.N,GND*%
X127250000Y-86150000D03*
X120750000Y-90250000D03*
X112050000Y-93550000D03*
X132050000Y-92200000D03*
X118750000Y-89250000D03*
X122250000Y-94950000D03*
X113050000Y-92050000D03*
%TO.N,/Channel1/AIN1*%
X117201808Y-94501808D03*
X110650000Y-93350000D03*
%TO.N,/Channel1/AIN0*%
X108350000Y-94050000D03*
X118150000Y-94550000D03*
%TO.N,VD*%
X132000000Y-91200000D03*
X127250000Y-89850000D03*
X135450000Y-91250000D03*
X130200000Y-89850000D03*
%TO.N,Net-(C11-Pad2)*%
X115925000Y-87650000D03*
X115625000Y-90975000D03*
%TO.N,/Channel1/A1*%
X120968090Y-85773551D03*
%TO.N,/Channel1/A0*%
X121950000Y-85850000D03*
%TO.N,/Channel1/~{DRDY}*%
X120100000Y-91750000D03*
%TO.N,/sda-tx*%
X129600010Y-93050000D03*
X130850010Y-93050000D03*
%TO.N,/Channel1/sda*%
X127150000Y-93050000D03*
%TO.N,/Channel1/scl*%
X127150000Y-96050000D03*
%TD*%
D14*
%TO.N,/Channel1/AIN1*%
X111801808Y-94501808D02*
X110650000Y-93350000D01*
X117201808Y-94501808D02*
X111801808Y-94501808D01*
%TO.N,/Channel1/AIN0*%
X109426809Y-95126809D02*
X117573191Y-95126809D01*
X108350000Y-94050000D02*
X109426809Y-95126809D01*
X117573191Y-95126809D02*
X117850001Y-94849999D01*
X117850001Y-94849999D02*
X118150000Y-94550000D01*
%TO.N,Net-(C11-Pad2)*%
X115924999Y-90675001D02*
X115625000Y-90975000D01*
X115925000Y-87650000D02*
X115924999Y-90675001D01*
%TO.N,/Channel1/~{DRDY}*%
X120100000Y-91750000D02*
X120100000Y-86900000D01*
X120100000Y-86900000D02*
X116750000Y-83550000D01*
X116750000Y-83550000D02*
X115650000Y-83550000D01*
%TD*%
M02*
