%TF.GenerationSoftware,KiCad,Pcbnew,(6.0.4-0)*%
%TF.CreationDate,2022-07-19T08:11:49-06:00*%
%TF.ProjectId,two-wire-single,74776f2d-7769-4726-952d-73696e676c65,rev?*%
%TF.SameCoordinates,Original*%
%TF.FileFunction,Legend,Bot*%
%TF.FilePolarity,Positive*%
%FSLAX46Y46*%
G04 Gerber Fmt 4.6, Leading zero omitted, Abs format (unit mm)*
G04 Created by KiCad (PCBNEW (6.0.4-0)) date 2022-07-19 08:11:49*
%MOMM*%
%LPD*%
G01*
G04 APERTURE LIST*
G04 Aperture macros list*
%AMRoundRect*
0 Rectangle with rounded corners*
0 $1 Rounding radius*
0 $2 $3 $4 $5 $6 $7 $8 $9 X,Y pos of 4 corners*
0 Add a 4 corners polygon primitive as box body*
4,1,4,$2,$3,$4,$5,$6,$7,$8,$9,$2,$3,0*
0 Add four circle primitives for the rounded corners*
1,1,$1+$1,$2,$3*
1,1,$1+$1,$4,$5*
1,1,$1+$1,$6,$7*
1,1,$1+$1,$8,$9*
0 Add four rect primitives between the rounded corners*
20,1,$1+$1,$2,$3,$4,$5,0*
20,1,$1+$1,$4,$5,$6,$7,0*
20,1,$1+$1,$6,$7,$8,$9,0*
20,1,$1+$1,$8,$9,$2,$3,0*%
%AMFreePoly0*
4,1,41,0.636777,0.930194,0.706366,0.874698,0.744986,0.794504,0.750000,0.750000,0.750000,-0.750000,0.730194,-0.836777,0.674698,-0.906366,0.594504,-0.944986,0.550000,-0.950000,0.000000,-0.950000,-0.023504,-0.944635,-0.083606,-0.943534,-0.139582,-0.934468,-0.274897,-0.892193,-0.326080,-0.867780,-0.444090,-0.789225,-0.486362,-0.751429,-0.577582,-0.642910,-0.607548,-0.594768,-0.664643,-0.465009,
-0.679893,-0.410393,-0.697476,-0.275933,-0.697084,-0.275882,-0.700000,-0.250000,-0.700000,0.250000,-0.697921,0.259109,-0.697582,0.286880,-0.675771,0.426957,-0.659192,0.481183,-0.598944,0.609508,-0.567811,0.656904,-0.473967,0.763162,-0.430783,0.799915,-0.310888,0.875563,-0.259125,0.898717,-0.122818,0.937674,-0.066635,0.945370,-0.042411,0.945222,0.000000,0.950000,0.550000,0.950000,
0.636777,0.930194,0.636777,0.930194,$1*%
%AMFreePoly1*
4,1,41,0.022678,0.944824,0.075125,0.944504,0.131210,0.936123,0.267031,0.895504,0.318507,0.871718,0.437469,0.794611,0.480202,0.757333,0.572740,0.649936,0.603290,0.602165,0.661967,0.473113,0.677883,0.418686,0.697980,0.278353,0.700000,0.250000,0.700000,-0.250000,0.699985,-0.252439,0.699836,-0.264655,0.697079,-0.295398,0.673559,-0.435199,0.656318,-0.489221,0.594506,-0.616800,
0.562797,-0.663810,0.467662,-0.768914,0.424032,-0.805137,0.303222,-0.879314,0.251181,-0.901834,0.114408,-0.939123,0.058135,-0.946132,0.037663,-0.945757,0.000000,-0.950000,-0.550000,-0.950000,-0.636777,-0.930194,-0.706366,-0.874698,-0.744986,-0.794504,-0.750000,-0.750000,-0.750000,0.750000,-0.730194,0.836777,-0.674698,0.906366,-0.594504,0.944986,-0.550000,0.950000,0.000000,0.950000,
0.022678,0.944824,0.022678,0.944824,$1*%
G04 Aperture macros list end*
%ADD10C,0.150000*%
%ADD11C,0.120000*%
%ADD12C,1.100000*%
%ADD13C,4.800000*%
%ADD14RoundRect,0.200000X-0.850000X-0.850000X0.850000X-0.850000X0.850000X0.850000X-0.850000X0.850000X0*%
%ADD15FreePoly0,0.000000*%
%ADD16RoundRect,0.200000X-0.500000X-0.750000X0.500000X-0.750000X0.500000X0.750000X-0.500000X0.750000X0*%
%ADD17FreePoly1,0.000000*%
G04 APERTURE END LIST*
D10*
X124383333Y-95502380D02*
X123764285Y-95502380D01*
X124097619Y-95883333D01*
X123954761Y-95883333D01*
X123859523Y-95930952D01*
X123811904Y-95978571D01*
X123764285Y-96073809D01*
X123764285Y-96311904D01*
X123811904Y-96407142D01*
X123859523Y-96454761D01*
X123954761Y-96502380D01*
X124240476Y-96502380D01*
X124335714Y-96454761D01*
X124383333Y-96407142D01*
X123764285Y-90302380D02*
X124335714Y-90302380D01*
X124050000Y-90302380D02*
X124050000Y-89302380D01*
X124145238Y-89445238D01*
X124240476Y-89540476D01*
X124335714Y-89588095D01*
X129264285Y-83916666D02*
X128788095Y-83916666D01*
X129359523Y-84202380D02*
X129026190Y-83202380D01*
X128692857Y-84202380D01*
X127835714Y-84202380D02*
X128407142Y-84202380D01*
X128121428Y-84202380D02*
X128121428Y-83202380D01*
X128216666Y-83345238D01*
X128311904Y-83440476D01*
X128407142Y-83488095D01*
X124097619Y-85602380D02*
X124002380Y-85602380D01*
X123907142Y-85650000D01*
X123859523Y-85697619D01*
X123811904Y-85792857D01*
X123764285Y-85983333D01*
X123764285Y-86221428D01*
X123811904Y-86411904D01*
X123859523Y-86507142D01*
X123907142Y-86554761D01*
X124002380Y-86602380D01*
X124097619Y-86602380D01*
X124192857Y-86554761D01*
X124240476Y-86507142D01*
X124288095Y-86411904D01*
X124335714Y-86221428D01*
X124335714Y-85983333D01*
X124288095Y-85792857D01*
X124240476Y-85697619D01*
X124192857Y-85650000D01*
X124097619Y-85602380D01*
X126564285Y-83916666D02*
X126088095Y-83916666D01*
X126659523Y-84202380D02*
X126326190Y-83202380D01*
X125992857Y-84202380D01*
X125469047Y-83202380D02*
X125373809Y-83202380D01*
X125278571Y-83250000D01*
X125230952Y-83297619D01*
X125183333Y-83392857D01*
X125135714Y-83583333D01*
X125135714Y-83821428D01*
X125183333Y-84011904D01*
X125230952Y-84107142D01*
X125278571Y-84154761D01*
X125373809Y-84202380D01*
X125469047Y-84202380D01*
X125564285Y-84154761D01*
X125611904Y-84107142D01*
X125659523Y-84011904D01*
X125707142Y-83821428D01*
X125707142Y-83583333D01*
X125659523Y-83392857D01*
X125611904Y-83297619D01*
X125564285Y-83250000D01*
X125469047Y-83202380D01*
X124335714Y-92597619D02*
X124288095Y-92550000D01*
X124192857Y-92502380D01*
X123954761Y-92502380D01*
X123859523Y-92550000D01*
X123811904Y-92597619D01*
X123764285Y-92692857D01*
X123764285Y-92788095D01*
X123811904Y-92930952D01*
X124383333Y-93502380D01*
X123764285Y-93502380D01*
%TO.C,JP12*%
X133059523Y-85602380D02*
X133059523Y-86316666D01*
X133107142Y-86459523D01*
X133202380Y-86554761D01*
X133345238Y-86602380D01*
X133440476Y-86602380D01*
X132583333Y-86602380D02*
X132583333Y-85602380D01*
X132202380Y-85602380D01*
X132107142Y-85650000D01*
X132059523Y-85697619D01*
X132011904Y-85792857D01*
X132011904Y-85935714D01*
X132059523Y-86030952D01*
X132107142Y-86078571D01*
X132202380Y-86126190D01*
X132583333Y-86126190D01*
X131059523Y-86602380D02*
X131630952Y-86602380D01*
X131345238Y-86602380D02*
X131345238Y-85602380D01*
X131440476Y-85745238D01*
X131535714Y-85840476D01*
X131630952Y-85888095D01*
X130678571Y-85697619D02*
X130630952Y-85650000D01*
X130535714Y-85602380D01*
X130297619Y-85602380D01*
X130202380Y-85650000D01*
X130154761Y-85697619D01*
X130107142Y-85792857D01*
X130107142Y-85888095D01*
X130154761Y-86030952D01*
X130726190Y-86602380D01*
X130107142Y-86602380D01*
%TO.C,JP13*%
X133159523Y-89202380D02*
X133159523Y-89916666D01*
X133207142Y-90059523D01*
X133302380Y-90154761D01*
X133445238Y-90202380D01*
X133540476Y-90202380D01*
X132683333Y-90202380D02*
X132683333Y-89202380D01*
X132302380Y-89202380D01*
X132207142Y-89250000D01*
X132159523Y-89297619D01*
X132111904Y-89392857D01*
X132111904Y-89535714D01*
X132159523Y-89630952D01*
X132207142Y-89678571D01*
X132302380Y-89726190D01*
X132683333Y-89726190D01*
X131159523Y-90202380D02*
X131730952Y-90202380D01*
X131445238Y-90202380D02*
X131445238Y-89202380D01*
X131540476Y-89345238D01*
X131635714Y-89440476D01*
X131730952Y-89488095D01*
X130826190Y-89202380D02*
X130207142Y-89202380D01*
X130540476Y-89583333D01*
X130397619Y-89583333D01*
X130302380Y-89630952D01*
X130254761Y-89678571D01*
X130207142Y-89773809D01*
X130207142Y-90011904D01*
X130254761Y-90107142D01*
X130302380Y-90154761D01*
X130397619Y-90202380D01*
X130683333Y-90202380D01*
X130778571Y-90154761D01*
X130826190Y-90107142D01*
%TO.C,JP14*%
X132959523Y-92402380D02*
X132959523Y-93116666D01*
X133007142Y-93259523D01*
X133102380Y-93354761D01*
X133245238Y-93402380D01*
X133340476Y-93402380D01*
X132483333Y-93402380D02*
X132483333Y-92402380D01*
X132102380Y-92402380D01*
X132007142Y-92450000D01*
X131959523Y-92497619D01*
X131911904Y-92592857D01*
X131911904Y-92735714D01*
X131959523Y-92830952D01*
X132007142Y-92878571D01*
X132102380Y-92926190D01*
X132483333Y-92926190D01*
X130959523Y-93402380D02*
X131530952Y-93402380D01*
X131245238Y-93402380D02*
X131245238Y-92402380D01*
X131340476Y-92545238D01*
X131435714Y-92640476D01*
X131530952Y-92688095D01*
X130102380Y-92735714D02*
X130102380Y-93402380D01*
X130340476Y-92354761D02*
X130578571Y-93069047D01*
X129959523Y-93069047D01*
%TO.C,JP9*%
X131683333Y-95602380D02*
X131683333Y-96316666D01*
X131730952Y-96459523D01*
X131826190Y-96554761D01*
X131969047Y-96602380D01*
X132064285Y-96602380D01*
X131207142Y-96602380D02*
X131207142Y-95602380D01*
X130826190Y-95602380D01*
X130730952Y-95650000D01*
X130683333Y-95697619D01*
X130635714Y-95792857D01*
X130635714Y-95935714D01*
X130683333Y-96030952D01*
X130730952Y-96078571D01*
X130826190Y-96126190D01*
X131207142Y-96126190D01*
X130159523Y-96602380D02*
X129969047Y-96602380D01*
X129873809Y-96554761D01*
X129826190Y-96507142D01*
X129730952Y-96364285D01*
X129683333Y-96173809D01*
X129683333Y-95792857D01*
X129730952Y-95697619D01*
X129778571Y-95650000D01*
X129873809Y-95602380D01*
X130064285Y-95602380D01*
X130159523Y-95650000D01*
X130207142Y-95697619D01*
X130254761Y-95792857D01*
X130254761Y-96030952D01*
X130207142Y-96126190D01*
X130159523Y-96173809D01*
X130064285Y-96221428D01*
X129873809Y-96221428D01*
X129778571Y-96173809D01*
X129730952Y-96126190D01*
X129683333Y-96030952D01*
D11*
%TO.C,JP12*%
X125750000Y-84650000D02*
X126350000Y-84650000D01*
X126050000Y-84950000D02*
X125750000Y-84650000D01*
X129300000Y-86450000D02*
X129300000Y-85850000D01*
X126050000Y-84950000D02*
X126350000Y-84650000D01*
X125850000Y-87150000D02*
X128650000Y-87150000D01*
X125200000Y-85850000D02*
X125200000Y-86450000D01*
X128650000Y-85150000D02*
X125850000Y-85150000D01*
X129300000Y-85850000D02*
G75*
G03*
X128600000Y-85150000I-700000J0D01*
G01*
X125900000Y-85150000D02*
G75*
G03*
X125200000Y-85850000I-1J-699999D01*
G01*
X125200000Y-86450000D02*
G75*
G03*
X125900000Y-87150000I699999J-1D01*
G01*
X128600000Y-87150000D02*
G75*
G03*
X129300000Y-86450000I0J700000D01*
G01*
%TO.C,JP13*%
X126050000Y-88650000D02*
X125750000Y-88350000D01*
X125850000Y-90850000D02*
X128650000Y-90850000D01*
X128650000Y-88850000D02*
X125850000Y-88850000D01*
X125750000Y-88350000D02*
X126350000Y-88350000D01*
X126050000Y-88650000D02*
X126350000Y-88350000D01*
X125200000Y-89550000D02*
X125200000Y-90150000D01*
X129300000Y-90150000D02*
X129300000Y-89550000D01*
X129300000Y-89550000D02*
G75*
G03*
X128600000Y-88850000I-700000J0D01*
G01*
X125900000Y-88850000D02*
G75*
G03*
X125200000Y-89550000I-1J-699999D01*
G01*
X128600000Y-90850000D02*
G75*
G03*
X129300000Y-90150000I0J700000D01*
G01*
X125200000Y-90150000D02*
G75*
G03*
X125900000Y-90850000I699999J-1D01*
G01*
%TO.C,JP14*%
X125750000Y-94050000D02*
X128550000Y-94050000D01*
X125650000Y-91550000D02*
X126250000Y-91550000D01*
X125950000Y-91850000D02*
X125650000Y-91550000D01*
X125100000Y-92750000D02*
X125100000Y-93350000D01*
X128550000Y-92050000D02*
X125750000Y-92050000D01*
X129200000Y-93350000D02*
X129200000Y-92750000D01*
X125950000Y-91850000D02*
X126250000Y-91550000D01*
X125800000Y-92050000D02*
G75*
G03*
X125100000Y-92750000I-1J-699999D01*
G01*
X129200000Y-92750000D02*
G75*
G03*
X128500000Y-92050000I-700000J0D01*
G01*
X128500000Y-94050000D02*
G75*
G03*
X129200000Y-93350000I0J700000D01*
G01*
X125100000Y-93350000D02*
G75*
G03*
X125800000Y-94050000I699999J-1D01*
G01*
%TO.C,JP9*%
X125950000Y-94850000D02*
X125650000Y-94550000D01*
X129200000Y-96350000D02*
X129200000Y-95750000D01*
X125750000Y-97050000D02*
X128550000Y-97050000D01*
X125950000Y-94850000D02*
X126250000Y-94550000D01*
X128550000Y-95050000D02*
X125750000Y-95050000D01*
X125100000Y-95750000D02*
X125100000Y-96350000D01*
X125650000Y-94550000D02*
X126250000Y-94550000D01*
X125800000Y-95050000D02*
G75*
G03*
X125100000Y-95750000I-1J-699999D01*
G01*
X128500000Y-97050000D02*
G75*
G03*
X129200000Y-96350000I0J700000D01*
G01*
X125100000Y-96350000D02*
G75*
G03*
X125800000Y-97050000I699999J-1D01*
G01*
X129200000Y-95750000D02*
G75*
G03*
X128500000Y-95050000I-700000J0D01*
G01*
%TD*%
%LPC*%
D12*
%TO.C,MH1*%
X101350000Y-84000000D03*
X103000000Y-82350000D03*
X104166726Y-85166726D03*
X104166726Y-82833274D03*
D13*
X103000000Y-84000000D03*
D12*
X104650000Y-84000000D03*
X101833274Y-82833274D03*
X101833274Y-85166726D03*
X103000000Y-85650000D03*
%TD*%
D13*
%TO.C,MH2*%
X136000000Y-84000000D03*
D12*
X137166726Y-82833274D03*
X134350000Y-84000000D03*
X137650000Y-84000000D03*
X137166726Y-85166726D03*
X136000000Y-82350000D03*
X136000000Y-85650000D03*
X134833274Y-85166726D03*
X134833274Y-82833274D03*
%TD*%
%TO.C,MH3*%
X101833274Y-98166726D03*
D13*
X103000000Y-97000000D03*
D12*
X104166726Y-98166726D03*
X101833274Y-95833274D03*
X104166726Y-95833274D03*
X103000000Y-95350000D03*
X104650000Y-97000000D03*
X101350000Y-97000000D03*
X103000000Y-98650000D03*
%TD*%
D13*
%TO.C,MH4*%
X136000000Y-97000000D03*
D12*
X134833274Y-95833274D03*
X134350000Y-97000000D03*
X137650000Y-97000000D03*
X136000000Y-95350000D03*
X137166726Y-98166726D03*
X137166726Y-95833274D03*
X134833274Y-98166726D03*
X136000000Y-98650000D03*
%TD*%
D14*
%TO.C,J3*%
X115650000Y-83550000D03*
%TD*%
D15*
%TO.C,JP12*%
X125950000Y-86150000D03*
D16*
X127250000Y-86150000D03*
D17*
X128550000Y-86150000D03*
%TD*%
D15*
%TO.C,JP13*%
X125950000Y-89850000D03*
D16*
X127250000Y-89850000D03*
D17*
X128550000Y-89850000D03*
%TD*%
D15*
%TO.C,JP14*%
X125850000Y-93050000D03*
D16*
X127150000Y-93050000D03*
D17*
X128450000Y-93050000D03*
%TD*%
D15*
%TO.C,JP9*%
X125850000Y-96050000D03*
D16*
X127150000Y-96050000D03*
D17*
X128450000Y-96050000D03*
%TD*%
M02*
