%TF.GenerationSoftware,KiCad,Pcbnew,(6.0.4-0)*%
%TF.CreationDate,2023-08-08T15:54:36-06:00*%
%TF.ProjectId,TPS61165-heater-v8,54505336-3131-4363-952d-686561746572,rev?*%
%TF.SameCoordinates,Original*%
%TF.FileFunction,Paste,Top*%
%TF.FilePolarity,Positive*%
%FSLAX46Y46*%
G04 Gerber Fmt 4.6, Leading zero omitted, Abs format (unit mm)*
G04 Created by KiCad (PCBNEW (6.0.4-0)) date 2023-08-08 15:54:36*
%MOMM*%
%LPD*%
G01*
G04 APERTURE LIST*
G04 Aperture macros list*
%AMRoundRect*
0 Rectangle with rounded corners*
0 $1 Rounding radius*
0 $2 $3 $4 $5 $6 $7 $8 $9 X,Y pos of 4 corners*
0 Add a 4 corners polygon primitive as box body*
4,1,4,$2,$3,$4,$5,$6,$7,$8,$9,$2,$3,0*
0 Add four circle primitives for the rounded corners*
1,1,$1+$1,$2,$3*
1,1,$1+$1,$4,$5*
1,1,$1+$1,$6,$7*
1,1,$1+$1,$8,$9*
0 Add four rect primitives between the rounded corners*
20,1,$1+$1,$2,$3,$4,$5,0*
20,1,$1+$1,$4,$5,$6,$7,0*
20,1,$1+$1,$6,$7,$8,$9,0*
20,1,$1+$1,$8,$9,$2,$3,0*%
G04 Aperture macros list end*
%ADD10RoundRect,0.150000X0.150000X-0.825000X0.150000X0.825000X-0.150000X0.825000X-0.150000X-0.825000X0*%
%ADD11RoundRect,0.237500X-0.250000X-0.237500X0.250000X-0.237500X0.250000X0.237500X-0.250000X0.237500X0*%
%ADD12RoundRect,0.237500X0.250000X0.237500X-0.250000X0.237500X-0.250000X-0.237500X0.250000X-0.237500X0*%
%ADD13RoundRect,0.237500X-0.237500X0.250000X-0.237500X-0.250000X0.237500X-0.250000X0.237500X0.250000X0*%
%ADD14RoundRect,0.237500X0.237500X-0.300000X0.237500X0.300000X-0.237500X0.300000X-0.237500X-0.300000X0*%
%ADD15RoundRect,0.237500X-0.300000X-0.237500X0.300000X-0.237500X0.300000X0.237500X-0.300000X0.237500X0*%
%ADD16RoundRect,0.250000X0.475000X-0.337500X0.475000X0.337500X-0.475000X0.337500X-0.475000X-0.337500X0*%
%ADD17RoundRect,0.250000X-0.475000X0.337500X-0.475000X-0.337500X0.475000X-0.337500X0.475000X0.337500X0*%
%ADD18O,1.800000X1.100000*%
%ADD19R,1.500000X0.700000*%
%ADD20R,1.500000X0.760000*%
%ADD21R,1.500000X0.800000*%
%ADD22RoundRect,0.160000X0.245000X0.160000X-0.245000X0.160000X-0.245000X-0.160000X0.245000X-0.160000X0*%
%ADD23RoundRect,0.093750X0.093750X0.106250X-0.093750X0.106250X-0.093750X-0.106250X0.093750X-0.106250X0*%
%ADD24R,5.300000X2.000000*%
%ADD25R,2.825000X1.400000*%
%ADD26R,0.900000X1.200000*%
%ADD27R,1.800000X1.600000*%
%ADD28RoundRect,0.150000X-0.150000X-0.625000X0.150000X-0.625000X0.150000X0.625000X-0.150000X0.625000X0*%
%ADD29RoundRect,0.250000X-0.350000X-0.650000X0.350000X-0.650000X0.350000X0.650000X-0.350000X0.650000X0*%
%ADD30RoundRect,0.150000X-0.825000X-0.150000X0.825000X-0.150000X0.825000X0.150000X-0.825000X0.150000X0*%
%ADD31R,1.010000X1.900000*%
%ADD32R,1.010000X1.180000*%
G04 APERTURE END LIST*
%TO.C,J1*%
G36*
X123113000Y-85700000D02*
G01*
X121615000Y-85700000D01*
X121615000Y-84940000D01*
X123113000Y-84940000D01*
X123113000Y-85700000D01*
G37*
G36*
X123113000Y-86950000D02*
G01*
X121615000Y-86950000D01*
X121615000Y-86149000D01*
X123113000Y-86149000D01*
X123113000Y-86950000D01*
G37*
G36*
X123113000Y-82660000D02*
G01*
X121615000Y-82660000D01*
X121615000Y-81900000D01*
X123113000Y-81900000D01*
X123113000Y-82660000D01*
G37*
G36*
X123113000Y-81450000D02*
G01*
X121615000Y-81450000D01*
X121615000Y-80650000D01*
X123113000Y-80650000D01*
X123113000Y-81450000D01*
G37*
G36*
X123113000Y-83650000D02*
G01*
X121615000Y-83650000D01*
X121615000Y-82949000D01*
X123113000Y-82949000D01*
X123113000Y-83650000D01*
G37*
G36*
X123113000Y-84651000D02*
G01*
X121615000Y-84651000D01*
X121615000Y-83950000D01*
X123113000Y-83950000D01*
X123113000Y-84651000D01*
G37*
%TD*%
D10*
%TO.C,U4*%
X133595000Y-94775000D03*
X134865000Y-94775000D03*
X136135000Y-94775000D03*
X137405000Y-94775000D03*
X137405000Y-89825000D03*
X136135000Y-89825000D03*
X134865000Y-89825000D03*
X133595000Y-89825000D03*
%TD*%
D11*
%TO.C,R6*%
X131987500Y-68300000D03*
X133812500Y-68300000D03*
%TD*%
%TO.C,R5*%
X131987500Y-70300000D03*
X133812500Y-70300000D03*
%TD*%
D12*
%TO.C,R4*%
X141912500Y-61700000D03*
X140087500Y-61700000D03*
%TD*%
D13*
%TO.C,R3*%
X153100000Y-69987500D03*
X153100000Y-71812500D03*
%TD*%
%TO.C,R2*%
X149500000Y-85487500D03*
X149500000Y-87312500D03*
%TD*%
D11*
%TO.C,R1*%
X145187500Y-90300000D03*
X147012500Y-90300000D03*
%TD*%
D14*
%TO.C,C5*%
X132000000Y-89762500D03*
X132000000Y-88037500D03*
%TD*%
D15*
%TO.C,C4*%
X149237500Y-77500000D03*
X150962500Y-77500000D03*
%TD*%
D16*
%TO.C,C3*%
X138600000Y-84737500D03*
X138600000Y-82662500D03*
%TD*%
D17*
%TO.C,C2*%
X152700000Y-80037500D03*
X152700000Y-82112500D03*
%TD*%
D14*
%TO.C,C1*%
X150600000Y-83862500D03*
X150600000Y-82137500D03*
%TD*%
D18*
%TO.C,J1*%
X122214000Y-88120000D03*
X118414000Y-88120000D03*
X122214000Y-79480000D03*
X118414000Y-79480000D03*
D19*
X122364000Y-83300000D03*
D20*
X122364000Y-85320000D03*
D21*
X122364000Y-86550000D03*
D19*
X122364000Y-84300000D03*
D20*
X122364000Y-82280000D03*
D21*
X122364000Y-81050000D03*
%TD*%
D22*
%TO.C,U1*%
X147930000Y-83030000D03*
X147930000Y-83830000D03*
D23*
X148817500Y-84080000D03*
X148817500Y-83430000D03*
X148817500Y-82780000D03*
X147042500Y-82780000D03*
X147042500Y-83430000D03*
X147042500Y-84080000D03*
%TD*%
D24*
%TO.C,L1*%
X143400000Y-85000000D03*
X143400000Y-81600000D03*
%TD*%
D25*
%TO.C,FL1*%
X126763000Y-82230000D03*
X126763000Y-84770000D03*
X135237000Y-84770000D03*
X135237000Y-82230000D03*
%TD*%
D26*
%TO.C,D1*%
X150550000Y-80000000D03*
X147250000Y-80000000D03*
%TD*%
D27*
%TO.C,U2*%
X139924000Y-64230000D03*
X139924000Y-66770000D03*
X149676000Y-66770000D03*
X149676000Y-64230000D03*
%TD*%
D28*
%TO.C,J6*%
X133700000Y-51025000D03*
X134700000Y-51025000D03*
X135700000Y-51025000D03*
X136700000Y-51025000D03*
D29*
X138000000Y-48500000D03*
X132400000Y-48500000D03*
%TD*%
D26*
%TO.C,D2*%
X154750000Y-86100000D03*
X151450000Y-86100000D03*
%TD*%
D30*
%TO.C,U3*%
X145625000Y-71895000D03*
X145625000Y-73165000D03*
X145625000Y-74435000D03*
X145625000Y-75705000D03*
X150575000Y-75705000D03*
X150575000Y-74435000D03*
X150575000Y-73165000D03*
X150575000Y-71895000D03*
%TD*%
D31*
%TO.C,D3*%
X158700000Y-82545000D03*
D32*
X158700000Y-80655000D03*
%TD*%
D28*
%TO.C,J7*%
X125300000Y-51025000D03*
X126300000Y-51025000D03*
X127300000Y-51025000D03*
X128300000Y-51025000D03*
D29*
X129600000Y-48500000D03*
X124000000Y-48500000D03*
%TD*%
M02*
