%TF.GenerationSoftware,KiCad,Pcbnew,(6.0.4-0)*%
%TF.CreationDate,2023-08-08T15:54:36-06:00*%
%TF.ProjectId,TPS61165-heater-v8,54505336-3131-4363-952d-686561746572,rev?*%
%TF.SameCoordinates,Original*%
%TF.FileFunction,Legend,Top*%
%TF.FilePolarity,Positive*%
%FSLAX46Y46*%
G04 Gerber Fmt 4.6, Leading zero omitted, Abs format (unit mm)*
G04 Created by KiCad (PCBNEW (6.0.4-0)) date 2023-08-08 15:54:36*
%MOMM*%
%LPD*%
G01*
G04 APERTURE LIST*
G04 Aperture macros list*
%AMRoundRect*
0 Rectangle with rounded corners*
0 $1 Rounding radius*
0 $2 $3 $4 $5 $6 $7 $8 $9 X,Y pos of 4 corners*
0 Add a 4 corners polygon primitive as box body*
4,1,4,$2,$3,$4,$5,$6,$7,$8,$9,$2,$3,0*
0 Add four circle primitives for the rounded corners*
1,1,$1+$1,$2,$3*
1,1,$1+$1,$4,$5*
1,1,$1+$1,$6,$7*
1,1,$1+$1,$8,$9*
0 Add four rect primitives between the rounded corners*
20,1,$1+$1,$2,$3,$4,$5,0*
20,1,$1+$1,$4,$5,$6,$7,0*
20,1,$1+$1,$6,$7,$8,$9,0*
20,1,$1+$1,$8,$9,$2,$3,0*%
%AMFreePoly0*
4,1,37,0.536062,0.786062,0.551000,0.750000,0.551000,-0.750000,0.536062,-0.786062,0.500000,-0.801000,0.000000,-0.801000,-0.012525,-0.795812,-0.080875,-0.794559,-0.095149,-0.792248,-0.230464,-0.749973,-0.243516,-0.743747,-0.361526,-0.665192,-0.372306,-0.655554,-0.463526,-0.547035,-0.471167,-0.534759,-0.528262,-0.405000,-0.532150,-0.391073,-0.549733,-0.256613,-0.548336,-0.256430,-0.551000,-0.250000,
-0.551000,0.250000,-0.550512,0.251179,-0.550356,0.263956,-0.528545,0.404033,-0.524317,0.417860,-0.464069,0.546185,-0.456130,0.558271,-0.362286,0.664529,-0.351274,0.673901,-0.231379,0.749549,-0.218180,0.755454,-0.081873,0.794411,-0.067546,0.796373,-0.011990,0.796033,0.000000,0.801000,0.500000,0.801000,0.536062,0.786062,0.536062,0.786062,$1*%
%AMFreePoly1*
4,1,37,0.012349,0.795885,0.074216,0.795507,0.088518,0.793370,0.224339,0.752751,0.237465,0.746685,0.356427,0.669578,0.367324,0.660073,0.459862,0.552676,0.467652,0.540494,0.526329,0.411442,0.530388,0.397563,0.550485,0.257230,0.551000,0.250000,0.551000,-0.250000,0.550996,-0.250622,0.550847,-0.262838,0.550144,-0.270677,0.526624,-0.410478,0.522228,-0.424254,0.460416,-0.551833,
0.452330,-0.563821,0.357195,-0.668925,0.346069,-0.678161,0.225259,-0.752338,0.211989,-0.758081,0.075216,-0.795370,0.060866,-0.797157,0.011464,-0.796251,0.000000,-0.801000,-0.500000,-0.801000,-0.536062,-0.786062,-0.551000,-0.750000,-0.551000,0.750000,-0.536062,0.786062,-0.500000,0.801000,0.000000,0.801000,0.012349,0.795885,0.012349,0.795885,$1*%
G04 Aperture macros list end*
%ADD10C,0.150000*%
%ADD11C,0.152000*%
%ADD12C,0.120000*%
%ADD13C,0.254000*%
%ADD14C,0.250000*%
%ADD15RoundRect,0.201000X0.150000X-0.825000X0.150000X0.825000X-0.150000X0.825000X-0.150000X-0.825000X0*%
%ADD16RoundRect,0.288500X-0.250000X-0.237500X0.250000X-0.237500X0.250000X0.237500X-0.250000X0.237500X0*%
%ADD17RoundRect,0.288500X0.250000X0.237500X-0.250000X0.237500X-0.250000X-0.237500X0.250000X-0.237500X0*%
%ADD18RoundRect,0.288500X-0.237500X0.250000X-0.237500X-0.250000X0.237500X-0.250000X0.237500X0.250000X0*%
%ADD19RoundRect,0.288500X0.237500X-0.300000X0.237500X0.300000X-0.237500X0.300000X-0.237500X-0.300000X0*%
%ADD20RoundRect,0.288500X-0.300000X-0.237500X0.300000X-0.237500X0.300000X0.237500X-0.300000X0.237500X0*%
%ADD21RoundRect,0.301000X0.475000X-0.337500X0.475000X0.337500X-0.475000X0.337500X-0.475000X-0.337500X0*%
%ADD22RoundRect,0.301000X-0.475000X0.337500X-0.475000X-0.337500X0.475000X-0.337500X0.475000X0.337500X0*%
%ADD23RoundRect,0.301000X-0.625000X0.350000X-0.625000X-0.350000X0.625000X-0.350000X0.625000X0.350000X0*%
%ADD24O,1.852000X1.302000*%
%ADD25RoundRect,0.301000X0.625000X-0.350000X0.625000X0.350000X-0.625000X0.350000X-0.625000X-0.350000X0*%
%ADD26O,1.902000X1.202000*%
%ADD27RoundRect,0.051000X-0.750000X0.350000X-0.750000X-0.350000X0.750000X-0.350000X0.750000X0.350000X0*%
%ADD28RoundRect,0.051000X-0.750000X0.380000X-0.750000X-0.380000X0.750000X-0.380000X0.750000X0.380000X0*%
%ADD29RoundRect,0.051000X-0.750000X0.400000X-0.750000X-0.400000X0.750000X-0.400000X0.750000X0.400000X0*%
%ADD30RoundRect,0.144750X0.093750X0.106250X-0.093750X0.106250X-0.093750X-0.106250X0.093750X-0.106250X0*%
%ADD31RoundRect,0.051000X0.500000X0.800000X-0.500000X0.800000X-0.500000X-0.800000X0.500000X-0.800000X0*%
%ADD32RoundRect,0.051000X2.650000X-1.000000X2.650000X1.000000X-2.650000X1.000000X-2.650000X-1.000000X0*%
%ADD33RoundRect,0.051000X-1.412500X-0.700000X1.412500X-0.700000X1.412500X0.700000X-1.412500X0.700000X0*%
%ADD34RoundRect,0.051000X0.450000X0.600000X-0.450000X0.600000X-0.450000X-0.600000X0.450000X-0.600000X0*%
%ADD35RoundRect,0.051000X-0.850000X0.850000X-0.850000X-0.850000X0.850000X-0.850000X0.850000X0.850000X0*%
%ADD36O,1.802000X1.802000*%
%ADD37RoundRect,0.051000X0.900000X0.800000X-0.900000X0.800000X-0.900000X-0.800000X0.900000X-0.800000X0*%
%ADD38RoundRect,0.201000X-0.150000X-0.625000X0.150000X-0.625000X0.150000X0.625000X-0.150000X0.625000X0*%
%ADD39RoundRect,0.301000X-0.350000X-0.650000X0.350000X-0.650000X0.350000X0.650000X-0.350000X0.650000X0*%
%ADD40RoundRect,0.051000X0.750000X-0.500000X0.750000X0.500000X-0.750000X0.500000X-0.750000X-0.500000X0*%
%ADD41FreePoly0,90.000000*%
%ADD42FreePoly1,90.000000*%
%ADD43RoundRect,0.201000X-0.825000X-0.150000X0.825000X-0.150000X0.825000X0.150000X-0.825000X0.150000X0*%
%ADD44RoundRect,0.051000X-0.505000X0.950000X-0.505000X-0.950000X0.505000X-0.950000X0.505000X0.950000X0*%
%ADD45RoundRect,0.051000X-0.505000X0.590000X-0.505000X-0.590000X0.505000X-0.590000X0.505000X0.590000X0*%
%ADD46C,3.702000*%
%ADD47C,6.502000*%
%ADD48FreePoly0,0.000000*%
%ADD49FreePoly1,0.000000*%
G04 APERTURE END LIST*
D10*
X144538095Y-60204761D02*
X144442857Y-60252380D01*
X144252380Y-60252380D01*
X144157142Y-60204761D01*
X144109523Y-60109523D01*
X144109523Y-59728571D01*
X144157142Y-59633333D01*
X144252380Y-59585714D01*
X144442857Y-59585714D01*
X144538095Y-59633333D01*
X144585714Y-59728571D01*
X144585714Y-59823809D01*
X144109523Y-59919047D01*
X145014285Y-59585714D02*
X145014285Y-60252380D01*
X145014285Y-59680952D02*
X145061904Y-59633333D01*
X145157142Y-59585714D01*
X145300000Y-59585714D01*
X145395238Y-59633333D01*
X145442857Y-59728571D01*
X145442857Y-60252380D01*
X135809523Y-56285714D02*
X135809523Y-57095238D01*
X135761904Y-57190476D01*
X135714285Y-57238095D01*
X135619047Y-57285714D01*
X135476190Y-57285714D01*
X135380952Y-57238095D01*
X135809523Y-56904761D02*
X135714285Y-56952380D01*
X135523809Y-56952380D01*
X135428571Y-56904761D01*
X135380952Y-56857142D01*
X135333333Y-56761904D01*
X135333333Y-56476190D01*
X135380952Y-56380952D01*
X135428571Y-56333333D01*
X135523809Y-56285714D01*
X135714285Y-56285714D01*
X135809523Y-56333333D01*
X136285714Y-56285714D02*
X136285714Y-56952380D01*
X136285714Y-56380952D02*
X136333333Y-56333333D01*
X136428571Y-56285714D01*
X136571428Y-56285714D01*
X136666666Y-56333333D01*
X136714285Y-56428571D01*
X136714285Y-56952380D01*
X137619047Y-56952380D02*
X137619047Y-55952380D01*
X137619047Y-56904761D02*
X137523809Y-56952380D01*
X137333333Y-56952380D01*
X137238095Y-56904761D01*
X137190476Y-56857142D01*
X137142857Y-56761904D01*
X137142857Y-56476190D01*
X137190476Y-56380952D01*
X137238095Y-56333333D01*
X137333333Y-56285714D01*
X137523809Y-56285714D01*
X137619047Y-56333333D01*
X147080952Y-60404761D02*
X146985714Y-60452380D01*
X146795238Y-60452380D01*
X146700000Y-60404761D01*
X146652380Y-60357142D01*
X146604761Y-60261904D01*
X146604761Y-59976190D01*
X146652380Y-59880952D01*
X146700000Y-59833333D01*
X146795238Y-59785714D01*
X146985714Y-59785714D01*
X147080952Y-59833333D01*
X147366666Y-59785714D02*
X147747619Y-59785714D01*
X147509523Y-59452380D02*
X147509523Y-60309523D01*
X147557142Y-60404761D01*
X147652380Y-60452380D01*
X147747619Y-60452380D01*
X148080952Y-60452380D02*
X148080952Y-59785714D01*
X148080952Y-59976190D02*
X148128571Y-59880952D01*
X148176190Y-59833333D01*
X148271428Y-59785714D01*
X148366666Y-59785714D01*
X148842857Y-60452380D02*
X148747619Y-60404761D01*
X148700000Y-60309523D01*
X148700000Y-59452380D01*
X117433333Y-56170714D02*
X117433333Y-57170714D01*
X117433333Y-56218333D02*
X117528571Y-56170714D01*
X117719047Y-56170714D01*
X117814285Y-56218333D01*
X117861904Y-56265952D01*
X117909523Y-56361190D01*
X117909523Y-56646904D01*
X117861904Y-56742142D01*
X117814285Y-56789761D01*
X117719047Y-56837380D01*
X117528571Y-56837380D01*
X117433333Y-56789761D01*
X118480952Y-56837380D02*
X118385714Y-56789761D01*
X118338095Y-56742142D01*
X118290476Y-56646904D01*
X118290476Y-56361190D01*
X118338095Y-56265952D01*
X118385714Y-56218333D01*
X118480952Y-56170714D01*
X118623809Y-56170714D01*
X118719047Y-56218333D01*
X118766666Y-56265952D01*
X118814285Y-56361190D01*
X118814285Y-56646904D01*
X118766666Y-56742142D01*
X118719047Y-56789761D01*
X118623809Y-56837380D01*
X118480952Y-56837380D01*
X119147619Y-56170714D02*
X119338095Y-56837380D01*
X119528571Y-56361190D01*
X119719047Y-56837380D01*
X119909523Y-56170714D01*
X120671428Y-56789761D02*
X120576190Y-56837380D01*
X120385714Y-56837380D01*
X120290476Y-56789761D01*
X120242857Y-56694523D01*
X120242857Y-56313571D01*
X120290476Y-56218333D01*
X120385714Y-56170714D01*
X120576190Y-56170714D01*
X120671428Y-56218333D01*
X120719047Y-56313571D01*
X120719047Y-56408809D01*
X120242857Y-56504047D01*
X121147619Y-56837380D02*
X121147619Y-56170714D01*
X121147619Y-56361190D02*
X121195238Y-56265952D01*
X121242857Y-56218333D01*
X121338095Y-56170714D01*
X121433333Y-56170714D01*
X122528571Y-56837380D02*
X122528571Y-55837380D01*
X122957142Y-56837380D02*
X122957142Y-56313571D01*
X122909523Y-56218333D01*
X122814285Y-56170714D01*
X122671428Y-56170714D01*
X122576190Y-56218333D01*
X122528571Y-56265952D01*
X123814285Y-56789761D02*
X123719047Y-56837380D01*
X123528571Y-56837380D01*
X123433333Y-56789761D01*
X123385714Y-56694523D01*
X123385714Y-56313571D01*
X123433333Y-56218333D01*
X123528571Y-56170714D01*
X123719047Y-56170714D01*
X123814285Y-56218333D01*
X123861904Y-56313571D01*
X123861904Y-56408809D01*
X123385714Y-56504047D01*
X124719047Y-56837380D02*
X124719047Y-56313571D01*
X124671428Y-56218333D01*
X124576190Y-56170714D01*
X124385714Y-56170714D01*
X124290476Y-56218333D01*
X124719047Y-56789761D02*
X124623809Y-56837380D01*
X124385714Y-56837380D01*
X124290476Y-56789761D01*
X124242857Y-56694523D01*
X124242857Y-56599285D01*
X124290476Y-56504047D01*
X124385714Y-56456428D01*
X124623809Y-56456428D01*
X124719047Y-56408809D01*
X125052380Y-56170714D02*
X125433333Y-56170714D01*
X125195238Y-55837380D02*
X125195238Y-56694523D01*
X125242857Y-56789761D01*
X125338095Y-56837380D01*
X125433333Y-56837380D01*
X126147619Y-56789761D02*
X126052380Y-56837380D01*
X125861904Y-56837380D01*
X125766666Y-56789761D01*
X125719047Y-56694523D01*
X125719047Y-56313571D01*
X125766666Y-56218333D01*
X125861904Y-56170714D01*
X126052380Y-56170714D01*
X126147619Y-56218333D01*
X126195238Y-56313571D01*
X126195238Y-56408809D01*
X125719047Y-56504047D01*
X126623809Y-56837380D02*
X126623809Y-56170714D01*
X126623809Y-56361190D02*
X126671428Y-56265952D01*
X126719047Y-56218333D01*
X126814285Y-56170714D01*
X126909523Y-56170714D01*
X118457142Y-57447380D02*
X119028571Y-57447380D01*
X118742857Y-58447380D02*
X118742857Y-57447380D01*
X119361904Y-58447380D02*
X119361904Y-57447380D01*
X119742857Y-57447380D01*
X119838095Y-57495000D01*
X119885714Y-57542619D01*
X119933333Y-57637857D01*
X119933333Y-57780714D01*
X119885714Y-57875952D01*
X119838095Y-57923571D01*
X119742857Y-57971190D01*
X119361904Y-57971190D01*
X120314285Y-58399761D02*
X120457142Y-58447380D01*
X120695238Y-58447380D01*
X120790476Y-58399761D01*
X120838095Y-58352142D01*
X120885714Y-58256904D01*
X120885714Y-58161666D01*
X120838095Y-58066428D01*
X120790476Y-58018809D01*
X120695238Y-57971190D01*
X120504761Y-57923571D01*
X120409523Y-57875952D01*
X120361904Y-57828333D01*
X120314285Y-57733095D01*
X120314285Y-57637857D01*
X120361904Y-57542619D01*
X120409523Y-57495000D01*
X120504761Y-57447380D01*
X120742857Y-57447380D01*
X120885714Y-57495000D01*
X121742857Y-57447380D02*
X121552380Y-57447380D01*
X121457142Y-57495000D01*
X121409523Y-57542619D01*
X121314285Y-57685476D01*
X121266666Y-57875952D01*
X121266666Y-58256904D01*
X121314285Y-58352142D01*
X121361904Y-58399761D01*
X121457142Y-58447380D01*
X121647619Y-58447380D01*
X121742857Y-58399761D01*
X121790476Y-58352142D01*
X121838095Y-58256904D01*
X121838095Y-58018809D01*
X121790476Y-57923571D01*
X121742857Y-57875952D01*
X121647619Y-57828333D01*
X121457142Y-57828333D01*
X121361904Y-57875952D01*
X121314285Y-57923571D01*
X121266666Y-58018809D01*
X122790476Y-58447380D02*
X122219047Y-58447380D01*
X122504761Y-58447380D02*
X122504761Y-57447380D01*
X122409523Y-57590238D01*
X122314285Y-57685476D01*
X122219047Y-57733095D01*
X123742857Y-58447380D02*
X123171428Y-58447380D01*
X123457142Y-58447380D02*
X123457142Y-57447380D01*
X123361904Y-57590238D01*
X123266666Y-57685476D01*
X123171428Y-57733095D01*
X124600000Y-57447380D02*
X124409523Y-57447380D01*
X124314285Y-57495000D01*
X124266666Y-57542619D01*
X124171428Y-57685476D01*
X124123809Y-57875952D01*
X124123809Y-58256904D01*
X124171428Y-58352142D01*
X124219047Y-58399761D01*
X124314285Y-58447380D01*
X124504761Y-58447380D01*
X124600000Y-58399761D01*
X124647619Y-58352142D01*
X124695238Y-58256904D01*
X124695238Y-58018809D01*
X124647619Y-57923571D01*
X124600000Y-57875952D01*
X124504761Y-57828333D01*
X124314285Y-57828333D01*
X124219047Y-57875952D01*
X124171428Y-57923571D01*
X124123809Y-58018809D01*
X125600000Y-57447380D02*
X125123809Y-57447380D01*
X125076190Y-57923571D01*
X125123809Y-57875952D01*
X125219047Y-57828333D01*
X125457142Y-57828333D01*
X125552380Y-57875952D01*
X125600000Y-57923571D01*
X125647619Y-58018809D01*
X125647619Y-58256904D01*
X125600000Y-58352142D01*
X125552380Y-58399761D01*
X125457142Y-58447380D01*
X125219047Y-58447380D01*
X125123809Y-58399761D01*
X125076190Y-58352142D01*
X121385714Y-59390714D02*
X121623809Y-60057380D01*
X121861904Y-59390714D01*
X122147619Y-59057380D02*
X122814285Y-59057380D01*
X122385714Y-60057380D01*
X119338095Y-60667380D02*
X120004761Y-60667380D01*
X119576190Y-61667380D01*
X121100000Y-60619761D02*
X120242857Y-61905476D01*
X121385714Y-60762619D02*
X121433333Y-60715000D01*
X121528571Y-60667380D01*
X121766666Y-60667380D01*
X121861904Y-60715000D01*
X121909523Y-60762619D01*
X121957142Y-60857857D01*
X121957142Y-60953095D01*
X121909523Y-61095952D01*
X121338095Y-61667380D01*
X121957142Y-61667380D01*
X122576190Y-60667380D02*
X122671428Y-60667380D01*
X122766666Y-60715000D01*
X122814285Y-60762619D01*
X122861904Y-60857857D01*
X122909523Y-61048333D01*
X122909523Y-61286428D01*
X122861904Y-61476904D01*
X122814285Y-61572142D01*
X122766666Y-61619761D01*
X122671428Y-61667380D01*
X122576190Y-61667380D01*
X122480952Y-61619761D01*
X122433333Y-61572142D01*
X122385714Y-61476904D01*
X122338095Y-61286428D01*
X122338095Y-61048333D01*
X122385714Y-60857857D01*
X122433333Y-60762619D01*
X122480952Y-60715000D01*
X122576190Y-60667380D01*
X123290476Y-60762619D02*
X123338095Y-60715000D01*
X123433333Y-60667380D01*
X123671428Y-60667380D01*
X123766666Y-60715000D01*
X123814285Y-60762619D01*
X123861904Y-60857857D01*
X123861904Y-60953095D01*
X123814285Y-61095952D01*
X123242857Y-61667380D01*
X123861904Y-61667380D01*
X124242857Y-60762619D02*
X124290476Y-60715000D01*
X124385714Y-60667380D01*
X124623809Y-60667380D01*
X124719047Y-60715000D01*
X124766666Y-60762619D01*
X124814285Y-60857857D01*
X124814285Y-60953095D01*
X124766666Y-61095952D01*
X124195238Y-61667380D01*
X124814285Y-61667380D01*
%TO.C,U4*%
X131552380Y-93061904D02*
X132361904Y-93061904D01*
X132457142Y-93014285D01*
X132504761Y-92966666D01*
X132552380Y-92871428D01*
X132552380Y-92680952D01*
X132504761Y-92585714D01*
X132457142Y-92538095D01*
X132361904Y-92490476D01*
X131552380Y-92490476D01*
X131885714Y-91585714D02*
X132552380Y-91585714D01*
X131504761Y-91823809D02*
X132219047Y-92061904D01*
X132219047Y-91442857D01*
%TO.C,R6*%
X135433333Y-68852380D02*
X135100000Y-68376190D01*
X134861904Y-68852380D02*
X134861904Y-67852380D01*
X135242857Y-67852380D01*
X135338095Y-67900000D01*
X135385714Y-67947619D01*
X135433333Y-68042857D01*
X135433333Y-68185714D01*
X135385714Y-68280952D01*
X135338095Y-68328571D01*
X135242857Y-68376190D01*
X134861904Y-68376190D01*
X136290476Y-67852380D02*
X136100000Y-67852380D01*
X136004761Y-67900000D01*
X135957142Y-67947619D01*
X135861904Y-68090476D01*
X135814285Y-68280952D01*
X135814285Y-68661904D01*
X135861904Y-68757142D01*
X135909523Y-68804761D01*
X136004761Y-68852380D01*
X136195238Y-68852380D01*
X136290476Y-68804761D01*
X136338095Y-68757142D01*
X136385714Y-68661904D01*
X136385714Y-68423809D01*
X136338095Y-68328571D01*
X136290476Y-68280952D01*
X136195238Y-68233333D01*
X136004761Y-68233333D01*
X135909523Y-68280952D01*
X135861904Y-68328571D01*
X135814285Y-68423809D01*
%TO.C,R5*%
X135433333Y-70752380D02*
X135100000Y-70276190D01*
X134861904Y-70752380D02*
X134861904Y-69752380D01*
X135242857Y-69752380D01*
X135338095Y-69800000D01*
X135385714Y-69847619D01*
X135433333Y-69942857D01*
X135433333Y-70085714D01*
X135385714Y-70180952D01*
X135338095Y-70228571D01*
X135242857Y-70276190D01*
X134861904Y-70276190D01*
X136338095Y-69752380D02*
X135861904Y-69752380D01*
X135814285Y-70228571D01*
X135861904Y-70180952D01*
X135957142Y-70133333D01*
X136195238Y-70133333D01*
X136290476Y-70180952D01*
X136338095Y-70228571D01*
X136385714Y-70323809D01*
X136385714Y-70561904D01*
X136338095Y-70657142D01*
X136290476Y-70704761D01*
X136195238Y-70752380D01*
X135957142Y-70752380D01*
X135861904Y-70704761D01*
X135814285Y-70657142D01*
%TO.C,R4*%
X143533333Y-62152380D02*
X143200000Y-61676190D01*
X142961904Y-62152380D02*
X142961904Y-61152380D01*
X143342857Y-61152380D01*
X143438095Y-61200000D01*
X143485714Y-61247619D01*
X143533333Y-61342857D01*
X143533333Y-61485714D01*
X143485714Y-61580952D01*
X143438095Y-61628571D01*
X143342857Y-61676190D01*
X142961904Y-61676190D01*
X144390476Y-61485714D02*
X144390476Y-62152380D01*
X144152380Y-61104761D02*
X143914285Y-61819047D01*
X144533333Y-61819047D01*
%TO.C,R3*%
X154982380Y-71066666D02*
X154506190Y-71400000D01*
X154982380Y-71638095D02*
X153982380Y-71638095D01*
X153982380Y-71257142D01*
X154030000Y-71161904D01*
X154077619Y-71114285D01*
X154172857Y-71066666D01*
X154315714Y-71066666D01*
X154410952Y-71114285D01*
X154458571Y-71161904D01*
X154506190Y-71257142D01*
X154506190Y-71638095D01*
X153982380Y-70733333D02*
X153982380Y-70114285D01*
X154363333Y-70447619D01*
X154363333Y-70304761D01*
X154410952Y-70209523D01*
X154458571Y-70161904D01*
X154553809Y-70114285D01*
X154791904Y-70114285D01*
X154887142Y-70161904D01*
X154934761Y-70209523D01*
X154982380Y-70304761D01*
X154982380Y-70590476D01*
X154934761Y-70685714D01*
X154887142Y-70733333D01*
%TO.C,R2*%
X152052380Y-88766666D02*
X151576190Y-89100000D01*
X152052380Y-89338095D02*
X151052380Y-89338095D01*
X151052380Y-88957142D01*
X151100000Y-88861904D01*
X151147619Y-88814285D01*
X151242857Y-88766666D01*
X151385714Y-88766666D01*
X151480952Y-88814285D01*
X151528571Y-88861904D01*
X151576190Y-88957142D01*
X151576190Y-89338095D01*
X151147619Y-88385714D02*
X151100000Y-88338095D01*
X151052380Y-88242857D01*
X151052380Y-88004761D01*
X151100000Y-87909523D01*
X151147619Y-87861904D01*
X151242857Y-87814285D01*
X151338095Y-87814285D01*
X151480952Y-87861904D01*
X152052380Y-88433333D01*
X152052380Y-87814285D01*
%TO.C,R1*%
X143233333Y-90852380D02*
X142900000Y-90376190D01*
X142661904Y-90852380D02*
X142661904Y-89852380D01*
X143042857Y-89852380D01*
X143138095Y-89900000D01*
X143185714Y-89947619D01*
X143233333Y-90042857D01*
X143233333Y-90185714D01*
X143185714Y-90280952D01*
X143138095Y-90328571D01*
X143042857Y-90376190D01*
X142661904Y-90376190D01*
X144185714Y-90852380D02*
X143614285Y-90852380D01*
X143900000Y-90852380D02*
X143900000Y-89852380D01*
X143804761Y-89995238D01*
X143709523Y-90090476D01*
X143614285Y-90138095D01*
%TO.C,C5*%
X130927142Y-89066666D02*
X130974761Y-89114285D01*
X131022380Y-89257142D01*
X131022380Y-89352380D01*
X130974761Y-89495238D01*
X130879523Y-89590476D01*
X130784285Y-89638095D01*
X130593809Y-89685714D01*
X130450952Y-89685714D01*
X130260476Y-89638095D01*
X130165238Y-89590476D01*
X130070000Y-89495238D01*
X130022380Y-89352380D01*
X130022380Y-89257142D01*
X130070000Y-89114285D01*
X130117619Y-89066666D01*
X130022380Y-88161904D02*
X130022380Y-88638095D01*
X130498571Y-88685714D01*
X130450952Y-88638095D01*
X130403333Y-88542857D01*
X130403333Y-88304761D01*
X130450952Y-88209523D01*
X130498571Y-88161904D01*
X130593809Y-88114285D01*
X130831904Y-88114285D01*
X130927142Y-88161904D01*
X130974761Y-88209523D01*
X131022380Y-88304761D01*
X131022380Y-88542857D01*
X130974761Y-88638095D01*
X130927142Y-88685714D01*
%TO.C,C4*%
X152633333Y-77957142D02*
X152585714Y-78004761D01*
X152442857Y-78052380D01*
X152347619Y-78052380D01*
X152204761Y-78004761D01*
X152109523Y-77909523D01*
X152061904Y-77814285D01*
X152014285Y-77623809D01*
X152014285Y-77480952D01*
X152061904Y-77290476D01*
X152109523Y-77195238D01*
X152204761Y-77100000D01*
X152347619Y-77052380D01*
X152442857Y-77052380D01*
X152585714Y-77100000D01*
X152633333Y-77147619D01*
X153490476Y-77385714D02*
X153490476Y-78052380D01*
X153252380Y-77004761D02*
X153014285Y-77719047D01*
X153633333Y-77719047D01*
%TO.C,C3*%
X139557142Y-86866666D02*
X139604761Y-86914285D01*
X139652380Y-87057142D01*
X139652380Y-87152380D01*
X139604761Y-87295238D01*
X139509523Y-87390476D01*
X139414285Y-87438095D01*
X139223809Y-87485714D01*
X139080952Y-87485714D01*
X138890476Y-87438095D01*
X138795238Y-87390476D01*
X138700000Y-87295238D01*
X138652380Y-87152380D01*
X138652380Y-87057142D01*
X138700000Y-86914285D01*
X138747619Y-86866666D01*
X138652380Y-86533333D02*
X138652380Y-85914285D01*
X139033333Y-86247619D01*
X139033333Y-86104761D01*
X139080952Y-86009523D01*
X139128571Y-85961904D01*
X139223809Y-85914285D01*
X139461904Y-85914285D01*
X139557142Y-85961904D01*
X139604761Y-86009523D01*
X139652380Y-86104761D01*
X139652380Y-86390476D01*
X139604761Y-86485714D01*
X139557142Y-86533333D01*
%TO.C,C2*%
X154737142Y-81241666D02*
X154784761Y-81289285D01*
X154832380Y-81432142D01*
X154832380Y-81527380D01*
X154784761Y-81670238D01*
X154689523Y-81765476D01*
X154594285Y-81813095D01*
X154403809Y-81860714D01*
X154260952Y-81860714D01*
X154070476Y-81813095D01*
X153975238Y-81765476D01*
X153880000Y-81670238D01*
X153832380Y-81527380D01*
X153832380Y-81432142D01*
X153880000Y-81289285D01*
X153927619Y-81241666D01*
X153927619Y-80860714D02*
X153880000Y-80813095D01*
X153832380Y-80717857D01*
X153832380Y-80479761D01*
X153880000Y-80384523D01*
X153927619Y-80336904D01*
X154022857Y-80289285D01*
X154118095Y-80289285D01*
X154260952Y-80336904D01*
X154832380Y-80908333D01*
X154832380Y-80289285D01*
%TO.C,C1*%
X152557142Y-84066666D02*
X152604761Y-84114285D01*
X152652380Y-84257142D01*
X152652380Y-84352380D01*
X152604761Y-84495238D01*
X152509523Y-84590476D01*
X152414285Y-84638095D01*
X152223809Y-84685714D01*
X152080952Y-84685714D01*
X151890476Y-84638095D01*
X151795238Y-84590476D01*
X151700000Y-84495238D01*
X151652380Y-84352380D01*
X151652380Y-84257142D01*
X151700000Y-84114285D01*
X151747619Y-84066666D01*
X152652380Y-83114285D02*
X152652380Y-83685714D01*
X152652380Y-83400000D02*
X151652380Y-83400000D01*
X151795238Y-83495238D01*
X151890476Y-83590476D01*
X151938095Y-83685714D01*
%TO.C,J2*%
X123802380Y-74733333D02*
X124516666Y-74733333D01*
X124659523Y-74780952D01*
X124754761Y-74876190D01*
X124802380Y-75019047D01*
X124802380Y-75114285D01*
X123897619Y-74304761D02*
X123850000Y-74257142D01*
X123802380Y-74161904D01*
X123802380Y-73923809D01*
X123850000Y-73828571D01*
X123897619Y-73780952D01*
X123992857Y-73733333D01*
X124088095Y-73733333D01*
X124230952Y-73780952D01*
X124802380Y-74352380D01*
X124802380Y-73733333D01*
%TO.C,J5*%
X151352380Y-60433333D02*
X152066666Y-60433333D01*
X152209523Y-60480952D01*
X152304761Y-60576190D01*
X152352380Y-60719047D01*
X152352380Y-60814285D01*
X151352380Y-59480952D02*
X151352380Y-59957142D01*
X151828571Y-60004761D01*
X151780952Y-59957142D01*
X151733333Y-59861904D01*
X151733333Y-59623809D01*
X151780952Y-59528571D01*
X151828571Y-59480952D01*
X151923809Y-59433333D01*
X152161904Y-59433333D01*
X152257142Y-59480952D01*
X152304761Y-59528571D01*
X152352380Y-59623809D01*
X152352380Y-59861904D01*
X152304761Y-59957142D01*
X152257142Y-60004761D01*
D11*
%TO.C,J1*%
X123563071Y-81802485D02*
X124379500Y-81802485D01*
X124542785Y-81856914D01*
X124651642Y-81965771D01*
X124706071Y-82129057D01*
X124706071Y-82237914D01*
X124706071Y-80659485D02*
X124706071Y-81312628D01*
X124706071Y-80986057D02*
X123563071Y-80986057D01*
X123726357Y-81094914D01*
X123835214Y-81203771D01*
X123889642Y-81312628D01*
D10*
%TO.C,U1*%
X146838095Y-84952380D02*
X146838095Y-85761904D01*
X146885714Y-85857142D01*
X146933333Y-85904761D01*
X147028571Y-85952380D01*
X147219047Y-85952380D01*
X147314285Y-85904761D01*
X147361904Y-85857142D01*
X147409523Y-85761904D01*
X147409523Y-84952380D01*
X148409523Y-85952380D02*
X147838095Y-85952380D01*
X148123809Y-85952380D02*
X148123809Y-84952380D01*
X148028571Y-85095238D01*
X147933333Y-85190476D01*
X147838095Y-85238095D01*
D11*
%TO.C,L1*%
X141417071Y-78784771D02*
X141417071Y-79329057D01*
X140274071Y-79329057D01*
X141417071Y-77805057D02*
X141417071Y-78458200D01*
X141417071Y-78131628D02*
X140274071Y-78131628D01*
X140437357Y-78240485D01*
X140546214Y-78349342D01*
X140600642Y-78458200D01*
%TO.C,FL1*%
X130251942Y-79318357D02*
X129870942Y-79318357D01*
X129870942Y-79917071D02*
X129870942Y-78774071D01*
X130415228Y-78774071D01*
X131394942Y-79917071D02*
X130850657Y-79917071D01*
X130850657Y-78774071D01*
X132374657Y-79917071D02*
X131721514Y-79917071D01*
X132048085Y-79917071D02*
X132048085Y-78774071D01*
X131939228Y-78937357D01*
X131830371Y-79046214D01*
X131721514Y-79100642D01*
D10*
%TO.C,D1*%
X144961904Y-80152380D02*
X144961904Y-79152380D01*
X145200000Y-79152380D01*
X145342857Y-79200000D01*
X145438095Y-79295238D01*
X145485714Y-79390476D01*
X145533333Y-79580952D01*
X145533333Y-79723809D01*
X145485714Y-79914285D01*
X145438095Y-80009523D01*
X145342857Y-80104761D01*
X145200000Y-80152380D01*
X144961904Y-80152380D01*
X146485714Y-80152380D02*
X145914285Y-80152380D01*
X146200000Y-80152380D02*
X146200000Y-79152380D01*
X146104761Y-79295238D01*
X146009523Y-79390476D01*
X145914285Y-79438095D01*
%TO.C,J4*%
X149622380Y-53153333D02*
X150336666Y-53153333D01*
X150479523Y-53200952D01*
X150574761Y-53296190D01*
X150622380Y-53439047D01*
X150622380Y-53534285D01*
X149955714Y-52248571D02*
X150622380Y-52248571D01*
X149574761Y-52486666D02*
X150289047Y-52724761D01*
X150289047Y-52105714D01*
D11*
%TO.C,U2*%
X140487342Y-68174071D02*
X140487342Y-69099357D01*
X140541771Y-69208214D01*
X140596200Y-69262642D01*
X140705057Y-69317071D01*
X140922771Y-69317071D01*
X141031628Y-69262642D01*
X141086057Y-69208214D01*
X141140485Y-69099357D01*
X141140485Y-68174071D01*
X141630342Y-68282928D02*
X141684771Y-68228500D01*
X141793628Y-68174071D01*
X142065771Y-68174071D01*
X142174628Y-68228500D01*
X142229057Y-68282928D01*
X142283485Y-68391785D01*
X142283485Y-68500642D01*
X142229057Y-68663928D01*
X141575914Y-69317071D01*
X142283485Y-69317071D01*
D10*
%TO.C,J6*%
X134866666Y-45852380D02*
X134866666Y-46566666D01*
X134819047Y-46709523D01*
X134723809Y-46804761D01*
X134580952Y-46852380D01*
X134485714Y-46852380D01*
X135771428Y-45852380D02*
X135580952Y-45852380D01*
X135485714Y-45900000D01*
X135438095Y-45947619D01*
X135342857Y-46090476D01*
X135295238Y-46280952D01*
X135295238Y-46661904D01*
X135342857Y-46757142D01*
X135390476Y-46804761D01*
X135485714Y-46852380D01*
X135676190Y-46852380D01*
X135771428Y-46804761D01*
X135819047Y-46757142D01*
X135866666Y-46661904D01*
X135866666Y-46423809D01*
X135819047Y-46328571D01*
X135771428Y-46280952D01*
X135676190Y-46233333D01*
X135485714Y-46233333D01*
X135390476Y-46280952D01*
X135342857Y-46328571D01*
X135295238Y-46423809D01*
%TO.C,JP3*%
X136452380Y-77233333D02*
X137166666Y-77233333D01*
X137309523Y-77280952D01*
X137404761Y-77376190D01*
X137452380Y-77519047D01*
X137452380Y-77614285D01*
X137452380Y-76757142D02*
X136452380Y-76757142D01*
X136452380Y-76376190D01*
X136500000Y-76280952D01*
X136547619Y-76233333D01*
X136642857Y-76185714D01*
X136785714Y-76185714D01*
X136880952Y-76233333D01*
X136928571Y-76280952D01*
X136976190Y-76376190D01*
X136976190Y-76757142D01*
X136452380Y-75852380D02*
X136452380Y-75233333D01*
X136833333Y-75566666D01*
X136833333Y-75423809D01*
X136880952Y-75328571D01*
X136928571Y-75280952D01*
X137023809Y-75233333D01*
X137261904Y-75233333D01*
X137357142Y-75280952D01*
X137404761Y-75328571D01*
X137452380Y-75423809D01*
X137452380Y-75709523D01*
X137404761Y-75804761D01*
X137357142Y-75852380D01*
%TO.C,JP4*%
X140052380Y-77333333D02*
X140766666Y-77333333D01*
X140909523Y-77380952D01*
X141004761Y-77476190D01*
X141052380Y-77619047D01*
X141052380Y-77714285D01*
X141052380Y-76857142D02*
X140052380Y-76857142D01*
X140052380Y-76476190D01*
X140100000Y-76380952D01*
X140147619Y-76333333D01*
X140242857Y-76285714D01*
X140385714Y-76285714D01*
X140480952Y-76333333D01*
X140528571Y-76380952D01*
X140576190Y-76476190D01*
X140576190Y-76857142D01*
X140385714Y-75428571D02*
X141052380Y-75428571D01*
X140004761Y-75666666D02*
X140719047Y-75904761D01*
X140719047Y-75285714D01*
%TO.C,D2*%
X155761904Y-86452380D02*
X155761904Y-85452380D01*
X156000000Y-85452380D01*
X156142857Y-85500000D01*
X156238095Y-85595238D01*
X156285714Y-85690476D01*
X156333333Y-85880952D01*
X156333333Y-86023809D01*
X156285714Y-86214285D01*
X156238095Y-86309523D01*
X156142857Y-86404761D01*
X156000000Y-86452380D01*
X155761904Y-86452380D01*
X156714285Y-85547619D02*
X156761904Y-85500000D01*
X156857142Y-85452380D01*
X157095238Y-85452380D01*
X157190476Y-85500000D01*
X157238095Y-85547619D01*
X157285714Y-85642857D01*
X157285714Y-85738095D01*
X157238095Y-85880952D01*
X156666666Y-86452380D01*
X157285714Y-86452380D01*
%TO.C,JP2*%
X155752380Y-78933333D02*
X156466666Y-78933333D01*
X156609523Y-78980952D01*
X156704761Y-79076190D01*
X156752380Y-79219047D01*
X156752380Y-79314285D01*
X156752380Y-78457142D02*
X155752380Y-78457142D01*
X155752380Y-78076190D01*
X155800000Y-77980952D01*
X155847619Y-77933333D01*
X155942857Y-77885714D01*
X156085714Y-77885714D01*
X156180952Y-77933333D01*
X156228571Y-77980952D01*
X156276190Y-78076190D01*
X156276190Y-78457142D01*
X155847619Y-77504761D02*
X155800000Y-77457142D01*
X155752380Y-77361904D01*
X155752380Y-77123809D01*
X155800000Y-77028571D01*
X155847619Y-76980952D01*
X155942857Y-76933333D01*
X156038095Y-76933333D01*
X156180952Y-76980952D01*
X156752380Y-77552380D01*
X156752380Y-76933333D01*
%TO.C,U3*%
X147338095Y-69852380D02*
X147338095Y-70661904D01*
X147385714Y-70757142D01*
X147433333Y-70804761D01*
X147528571Y-70852380D01*
X147719047Y-70852380D01*
X147814285Y-70804761D01*
X147861904Y-70757142D01*
X147909523Y-70661904D01*
X147909523Y-69852380D01*
X148290476Y-69852380D02*
X148909523Y-69852380D01*
X148576190Y-70233333D01*
X148719047Y-70233333D01*
X148814285Y-70280952D01*
X148861904Y-70328571D01*
X148909523Y-70423809D01*
X148909523Y-70661904D01*
X148861904Y-70757142D01*
X148814285Y-70804761D01*
X148719047Y-70852380D01*
X148433333Y-70852380D01*
X148338095Y-70804761D01*
X148290476Y-70757142D01*
D11*
%TO.C,D3*%
X159217071Y-79558228D02*
X158074071Y-79558228D01*
X158074071Y-79286085D01*
X158128500Y-79122800D01*
X158237357Y-79013942D01*
X158346214Y-78959514D01*
X158563928Y-78905085D01*
X158727214Y-78905085D01*
X158944928Y-78959514D01*
X159053785Y-79013942D01*
X159162642Y-79122800D01*
X159217071Y-79286085D01*
X159217071Y-79558228D01*
X158074071Y-78524085D02*
X158074071Y-77816514D01*
X158509500Y-78197514D01*
X158509500Y-78034228D01*
X158563928Y-77925371D01*
X158618357Y-77870942D01*
X158727214Y-77816514D01*
X158999357Y-77816514D01*
X159108214Y-77870942D01*
X159162642Y-77925371D01*
X159217071Y-78034228D01*
X159217071Y-78360800D01*
X159162642Y-78469657D01*
X159108214Y-78524085D01*
D10*
%TO.C,J3*%
X123802380Y-66533333D02*
X124516666Y-66533333D01*
X124659523Y-66580952D01*
X124754761Y-66676190D01*
X124802380Y-66819047D01*
X124802380Y-66914285D01*
X123802380Y-66152380D02*
X123802380Y-65533333D01*
X124183333Y-65866666D01*
X124183333Y-65723809D01*
X124230952Y-65628571D01*
X124278571Y-65580952D01*
X124373809Y-65533333D01*
X124611904Y-65533333D01*
X124707142Y-65580952D01*
X124754761Y-65628571D01*
X124802380Y-65723809D01*
X124802380Y-66009523D01*
X124754761Y-66104761D01*
X124707142Y-66152380D01*
%TO.C,H4*%
X118238095Y-90252380D02*
X118238095Y-89252380D01*
X118238095Y-89728571D02*
X118809523Y-89728571D01*
X118809523Y-90252380D02*
X118809523Y-89252380D01*
X119714285Y-89585714D02*
X119714285Y-90252380D01*
X119476190Y-89204761D02*
X119238095Y-89919047D01*
X119857142Y-89919047D01*
%TO.C,J7*%
X126466666Y-45852380D02*
X126466666Y-46566666D01*
X126419047Y-46709523D01*
X126323809Y-46804761D01*
X126180952Y-46852380D01*
X126085714Y-46852380D01*
X126847619Y-45852380D02*
X127514285Y-45852380D01*
X127085714Y-46852380D01*
%TO.C,JP1*%
X142066666Y-87152380D02*
X142066666Y-87866666D01*
X142019047Y-88009523D01*
X141923809Y-88104761D01*
X141780952Y-88152380D01*
X141685714Y-88152380D01*
X142542857Y-88152380D02*
X142542857Y-87152380D01*
X142923809Y-87152380D01*
X143019047Y-87200000D01*
X143066666Y-87247619D01*
X143114285Y-87342857D01*
X143114285Y-87485714D01*
X143066666Y-87580952D01*
X143019047Y-87628571D01*
X142923809Y-87676190D01*
X142542857Y-87676190D01*
X144066666Y-88152380D02*
X143495238Y-88152380D01*
X143780952Y-88152380D02*
X143780952Y-87152380D01*
X143685714Y-87295238D01*
X143590476Y-87390476D01*
X143495238Y-87438095D01*
%TO.C,H3*%
X155238095Y-90252380D02*
X155238095Y-89252380D01*
X155238095Y-89728571D02*
X155809523Y-89728571D01*
X155809523Y-90252380D02*
X155809523Y-89252380D01*
X156190476Y-89252380D02*
X156809523Y-89252380D01*
X156476190Y-89633333D01*
X156619047Y-89633333D01*
X156714285Y-89680952D01*
X156761904Y-89728571D01*
X156809523Y-89823809D01*
X156809523Y-90061904D01*
X156761904Y-90157142D01*
X156714285Y-90204761D01*
X156619047Y-90252380D01*
X156333333Y-90252380D01*
X156238095Y-90204761D01*
X156190476Y-90157142D01*
%TO.C,H2*%
X155338095Y-55852380D02*
X155338095Y-54852380D01*
X155338095Y-55328571D02*
X155909523Y-55328571D01*
X155909523Y-55852380D02*
X155909523Y-54852380D01*
X156338095Y-54947619D02*
X156385714Y-54900000D01*
X156480952Y-54852380D01*
X156719047Y-54852380D01*
X156814285Y-54900000D01*
X156861904Y-54947619D01*
X156909523Y-55042857D01*
X156909523Y-55138095D01*
X156861904Y-55280952D01*
X156290476Y-55852380D01*
X156909523Y-55852380D01*
%TO.C,H1*%
X115538095Y-55252380D02*
X115538095Y-54252380D01*
X115538095Y-54728571D02*
X116109523Y-54728571D01*
X116109523Y-55252380D02*
X116109523Y-54252380D01*
X117109523Y-55252380D02*
X116538095Y-55252380D01*
X116823809Y-55252380D02*
X116823809Y-54252380D01*
X116728571Y-54395238D01*
X116633333Y-54490476D01*
X116538095Y-54538095D01*
D12*
%TO.C,U4*%
X132940000Y-92300000D02*
X132940000Y-90350000D01*
X138060000Y-92300000D02*
X138060000Y-90350000D01*
X132940000Y-92300000D02*
X132940000Y-95750000D01*
X138060000Y-92300000D02*
X138060000Y-94250000D01*
%TO.C,R6*%
X132645276Y-67777500D02*
X133154724Y-67777500D01*
X132645276Y-68822500D02*
X133154724Y-68822500D01*
%TO.C,R5*%
X132645276Y-69777500D02*
X133154724Y-69777500D01*
X132645276Y-70822500D02*
X133154724Y-70822500D01*
%TO.C,R4*%
X141254724Y-62222500D02*
X140745276Y-62222500D01*
X141254724Y-61177500D02*
X140745276Y-61177500D01*
%TO.C,R3*%
X153622500Y-70645276D02*
X153622500Y-71154724D01*
X152577500Y-70645276D02*
X152577500Y-71154724D01*
%TO.C,R2*%
X150022500Y-86145276D02*
X150022500Y-86654724D01*
X148977500Y-86145276D02*
X148977500Y-86654724D01*
%TO.C,R1*%
X145845276Y-89777500D02*
X146354724Y-89777500D01*
X145845276Y-90822500D02*
X146354724Y-90822500D01*
%TO.C,C5*%
X131490000Y-89046267D02*
X131490000Y-88753733D01*
X132510000Y-89046267D02*
X132510000Y-88753733D01*
%TO.C,C4*%
X149953733Y-76990000D02*
X150246267Y-76990000D01*
X149953733Y-78010000D02*
X150246267Y-78010000D01*
%TO.C,C3*%
X137865000Y-83961252D02*
X137865000Y-83438748D01*
X139335000Y-83961252D02*
X139335000Y-83438748D01*
%TO.C,C2*%
X153435000Y-80813748D02*
X153435000Y-81336252D01*
X151965000Y-80813748D02*
X151965000Y-81336252D01*
%TO.C,C1*%
X150090000Y-83146267D02*
X150090000Y-82853733D01*
X151110000Y-83146267D02*
X151110000Y-82853733D01*
%TO.C,J2*%
X117700000Y-73100000D02*
X115440000Y-73100000D01*
X121660000Y-71340000D02*
X121660000Y-72260000D01*
X119300000Y-72100000D02*
X117700000Y-72100000D01*
X119300000Y-73100000D02*
X119300000Y-72100000D01*
X117700000Y-72100000D02*
X117700000Y-73100000D01*
X117700000Y-76700000D02*
X117700000Y-75700000D01*
X117700000Y-73100000D02*
X119300000Y-73100000D01*
X117700000Y-75700000D02*
X119300000Y-75700000D01*
X121660000Y-76540000D02*
X121660000Y-76260000D01*
X115440000Y-71340000D02*
X115440000Y-77460000D01*
X121660000Y-72260000D02*
X123260000Y-72260000D01*
X121660000Y-72540000D02*
X121660000Y-72260000D01*
X115440000Y-73900000D02*
X119800000Y-73900000D01*
X123260000Y-71340000D02*
X115440000Y-71340000D01*
X119300000Y-76700000D02*
X117700000Y-76700000D01*
X117700000Y-72600000D02*
X115440000Y-72600000D01*
X119800000Y-73900000D02*
X119800000Y-74900000D01*
X119800000Y-74900000D02*
X115440000Y-74900000D01*
X123260000Y-76540000D02*
X121660000Y-76540000D01*
X121660000Y-77460000D02*
X121660000Y-76540000D01*
X121660000Y-72540000D02*
X122875000Y-72540000D01*
X115440000Y-77460000D02*
X123260000Y-77460000D01*
X123260000Y-77460000D02*
X123260000Y-76540000D01*
X119300000Y-75700000D02*
X119300000Y-76700000D01*
X123260000Y-72260000D02*
X123260000Y-71340000D01*
%TO.C,J5*%
X155650000Y-63900000D02*
X155650000Y-62900000D01*
X157250000Y-67500000D02*
X157250000Y-66500000D01*
X155650000Y-62900000D02*
X157250000Y-62900000D01*
X151690000Y-67340000D02*
X151690000Y-68260000D01*
X151690000Y-62140000D02*
X151690000Y-63060000D01*
X153290000Y-63060000D02*
X153290000Y-63340000D01*
X159510000Y-65700000D02*
X155150000Y-65700000D01*
X155150000Y-64700000D02*
X159510000Y-64700000D01*
X159510000Y-68260000D02*
X159510000Y-62140000D01*
X157250000Y-66500000D02*
X159510000Y-66500000D01*
X159510000Y-62140000D02*
X151690000Y-62140000D01*
X153290000Y-67060000D02*
X153290000Y-67340000D01*
X157250000Y-63900000D02*
X155650000Y-63900000D01*
X155650000Y-67500000D02*
X157250000Y-67500000D01*
X151690000Y-68260000D02*
X159510000Y-68260000D01*
X151690000Y-63060000D02*
X153290000Y-63060000D01*
X153290000Y-67340000D02*
X151690000Y-67340000D01*
X157250000Y-62900000D02*
X157250000Y-63900000D01*
X153290000Y-67060000D02*
X152075000Y-67060000D01*
X157250000Y-67000000D02*
X159510000Y-67000000D01*
X155650000Y-66500000D02*
X155650000Y-67500000D01*
X153290000Y-62140000D02*
X153290000Y-63060000D01*
X155150000Y-65700000D02*
X155150000Y-64700000D01*
X153290000Y-68260000D02*
X153290000Y-67340000D01*
X157250000Y-66500000D02*
X155650000Y-66500000D01*
D13*
%TO.C,J1*%
X115814000Y-79390000D02*
X115814000Y-88210000D01*
X120904000Y-79400000D02*
X119664000Y-79400000D01*
X115813000Y-88209000D02*
X117164000Y-88209000D01*
X115814000Y-79400000D02*
X117194000Y-79400000D01*
X120952000Y-88200000D02*
X119712000Y-88200000D01*
D12*
%TO.C,U1*%
X147930000Y-84540000D02*
X146930000Y-84540000D01*
X148930000Y-82320000D02*
X146930000Y-82320000D01*
D13*
%TO.C,L1*%
X146300000Y-86150000D02*
X146300000Y-80450000D01*
X140500000Y-86150000D02*
X140500000Y-80450000D01*
D11*
%TO.C,FL1*%
X135676000Y-86576000D02*
X135676000Y-85660000D01*
X126324000Y-85660000D02*
X126324000Y-86576000D01*
X126324000Y-81340000D02*
X126324000Y-80424000D01*
X135676000Y-80424000D02*
X135676000Y-81340000D01*
X135676000Y-86576000D02*
X135676000Y-86576000D01*
X126324000Y-80424000D02*
X126324000Y-80424000D01*
X135676000Y-80424000D02*
X135676000Y-80424000D01*
X126324000Y-80424000D02*
X135676000Y-80424000D01*
X126324000Y-86576000D02*
X126324000Y-86576000D01*
X126324000Y-86576000D02*
X135676000Y-86576000D01*
D14*
X125175000Y-82230000D02*
G75*
G03*
X125175000Y-82230000I-125000J0D01*
G01*
D12*
%TO.C,D1*%
X151150000Y-81000000D02*
X151150000Y-79000000D01*
X151150000Y-81000000D02*
X147250000Y-81000000D01*
X151150000Y-79000000D02*
X147250000Y-79000000D01*
%TO.C,J4*%
X148730000Y-47110000D02*
X140990000Y-47110000D01*
X146484290Y-47110000D02*
X146484290Y-55740000D01*
X144500000Y-55740000D02*
X144500000Y-56150000D01*
X147760000Y-55740000D02*
X147760000Y-56090000D01*
X147429050Y-47110000D02*
X147429050Y-55740000D01*
X148610000Y-47110000D02*
X148610000Y-55740000D01*
X145220000Y-55740000D02*
X145220000Y-56150000D01*
X141960000Y-55740000D02*
X141960000Y-56150000D01*
X148255715Y-47110000D02*
X148255715Y-55740000D01*
X147665240Y-47110000D02*
X147665240Y-55740000D01*
X146720480Y-47110000D02*
X146720480Y-55740000D01*
X148491905Y-47110000D02*
X148491905Y-55740000D01*
X147310955Y-47110000D02*
X147310955Y-55740000D01*
X147192860Y-47110000D02*
X147192860Y-55740000D01*
X147547145Y-47110000D02*
X147547145Y-55740000D01*
X146602385Y-47110000D02*
X146602385Y-55740000D01*
X148730000Y-55740000D02*
X140990000Y-55740000D01*
X142680000Y-55740000D02*
X142680000Y-56150000D01*
X148019525Y-47110000D02*
X148019525Y-55740000D01*
X147040000Y-55740000D02*
X147040000Y-56090000D01*
X148373810Y-47110000D02*
X148373810Y-55740000D01*
X146366195Y-47110000D02*
X146366195Y-55740000D01*
X148137620Y-47110000D02*
X148137620Y-55740000D01*
X146838575Y-47110000D02*
X146838575Y-55740000D01*
X147901430Y-47110000D02*
X147901430Y-55740000D01*
X148730000Y-47110000D02*
X148730000Y-55740000D01*
X147783335Y-47110000D02*
X147783335Y-55740000D01*
X146956670Y-47110000D02*
X146956670Y-55740000D01*
X147074765Y-47110000D02*
X147074765Y-55740000D01*
X143590000Y-47110000D02*
X143590000Y-55740000D01*
X140990000Y-47110000D02*
X140990000Y-55740000D01*
X146130000Y-47110000D02*
X146130000Y-55740000D01*
X148730000Y-58310000D02*
X147400000Y-58310000D01*
X148730000Y-57200000D02*
X148730000Y-58310000D01*
X146248100Y-47110000D02*
X146248100Y-55740000D01*
D13*
%TO.C,U2*%
X148100000Y-67800000D02*
X141500000Y-67800000D01*
X148100000Y-63200000D02*
X145562000Y-63200000D01*
X141500000Y-63200000D02*
X144038000Y-63200000D01*
X141500000Y-67800000D02*
X141500000Y-63200000D01*
X148100000Y-63200000D02*
X148100000Y-67800000D01*
X144038000Y-63198000D02*
G75*
G03*
X145562000Y-63200000I762000J-1000D01*
G01*
X139974000Y-63087000D02*
G75*
G03*
X139974000Y-63087000I-127000J0D01*
G01*
D12*
%TO.C,J6*%
X138310000Y-50810000D02*
X137260000Y-50810000D01*
X132090000Y-49660000D02*
X132090000Y-50810000D01*
X133260000Y-47690000D02*
X137140000Y-47690000D01*
X132090000Y-50810000D02*
X133140000Y-50810000D01*
X133140000Y-50810000D02*
X133140000Y-51800000D01*
X138310000Y-49660000D02*
X138310000Y-50810000D01*
%TO.C,JP3*%
X139000000Y-70650000D02*
X139000000Y-74750000D01*
X139500000Y-74300000D02*
X139500000Y-73700000D01*
X137000000Y-74750000D02*
X137000000Y-70650000D01*
X139200000Y-74000000D02*
X139500000Y-73700000D01*
X139000000Y-74750000D02*
X137000000Y-74750000D01*
X139200000Y-74000000D02*
X139500000Y-74300000D01*
X137000000Y-70650000D02*
X139000000Y-70650000D01*
%TO.C,JP4*%
X140700000Y-70750000D02*
X142700000Y-70750000D01*
X143200000Y-74400000D02*
X143200000Y-73800000D01*
X142900000Y-74100000D02*
X143200000Y-74400000D01*
X142700000Y-70750000D02*
X142700000Y-74850000D01*
X140700000Y-74850000D02*
X140700000Y-70750000D01*
X142700000Y-74850000D02*
X140700000Y-74850000D01*
X142900000Y-74100000D02*
X143200000Y-73800000D01*
%TO.C,D2*%
X155350000Y-87100000D02*
X151450000Y-87100000D01*
X155350000Y-87100000D02*
X155350000Y-85100000D01*
X155350000Y-85100000D02*
X151450000Y-85100000D01*
%TO.C,JP2*%
X157200000Y-80700000D02*
X157200000Y-82100000D01*
X155200000Y-82100000D02*
X155200000Y-80700000D01*
X156500000Y-82800000D02*
X155900000Y-82800000D01*
X155900000Y-80000000D02*
X156500000Y-80000000D01*
X157200000Y-80700000D02*
G75*
G03*
X156500000Y-80000000I-700000J0D01*
G01*
X156500000Y-82800000D02*
G75*
G03*
X157200000Y-82100000I1J699999D01*
G01*
X155200000Y-82100000D02*
G75*
G03*
X155900000Y-82800000I699999J-1D01*
G01*
X155900000Y-80000000D02*
G75*
G03*
X155200000Y-80700000I0J-700000D01*
G01*
%TO.C,U3*%
X148100000Y-76360000D02*
X150050000Y-76360000D01*
X148100000Y-76360000D02*
X146150000Y-76360000D01*
X148100000Y-71240000D02*
X150050000Y-71240000D01*
X148100000Y-71240000D02*
X144650000Y-71240000D01*
D11*
%TO.C,D3*%
X159450000Y-83385000D02*
X159450000Y-81635000D01*
X158020000Y-80285000D02*
X157950000Y-80285000D01*
X159450000Y-80285000D02*
X159380000Y-80285000D01*
X157950000Y-83385000D02*
X158020000Y-83385000D01*
X159450000Y-81785000D02*
X159450000Y-80285000D01*
X159380000Y-83385000D02*
X159450000Y-83385000D01*
X157950000Y-80285000D02*
X157950000Y-83385000D01*
G36*
X159208000Y-83632000D02*
G01*
X159209000Y-83787000D01*
X158673000Y-83963000D01*
X158172000Y-83784000D01*
X158176000Y-83628000D01*
X158176000Y-83625000D01*
X159208000Y-83632000D01*
G37*
D12*
%TO.C,J3*%
X119800000Y-66700000D02*
X115440000Y-66700000D01*
X117700000Y-64900000D02*
X119300000Y-64900000D01*
X123260000Y-64060000D02*
X123260000Y-63140000D01*
X117700000Y-64900000D02*
X115440000Y-64900000D01*
X121660000Y-64060000D02*
X123260000Y-64060000D01*
X119800000Y-65700000D02*
X119800000Y-66700000D01*
X123260000Y-69260000D02*
X123260000Y-68340000D01*
X121660000Y-68340000D02*
X121660000Y-68060000D01*
X117700000Y-63900000D02*
X117700000Y-64900000D01*
X119300000Y-63900000D02*
X117700000Y-63900000D01*
X115440000Y-63140000D02*
X115440000Y-69260000D01*
X121660000Y-64340000D02*
X121660000Y-64060000D01*
X119300000Y-64900000D02*
X119300000Y-63900000D01*
X123260000Y-63140000D02*
X115440000Y-63140000D01*
X121660000Y-69260000D02*
X121660000Y-68340000D01*
X117700000Y-64400000D02*
X115440000Y-64400000D01*
X117700000Y-67500000D02*
X119300000Y-67500000D01*
X121660000Y-64340000D02*
X122875000Y-64340000D01*
X119300000Y-67500000D02*
X119300000Y-68500000D01*
X119300000Y-68500000D02*
X117700000Y-68500000D01*
X117700000Y-68500000D02*
X117700000Y-67500000D01*
X115440000Y-65700000D02*
X119800000Y-65700000D01*
X115440000Y-69260000D02*
X123260000Y-69260000D01*
X121660000Y-63140000D02*
X121660000Y-64060000D01*
X123260000Y-68340000D02*
X121660000Y-68340000D01*
%TO.C,J7*%
X129910000Y-49660000D02*
X129910000Y-50810000D01*
X123690000Y-50810000D02*
X124740000Y-50810000D01*
X129910000Y-50810000D02*
X128860000Y-50810000D01*
X124740000Y-50810000D02*
X124740000Y-51800000D01*
X123690000Y-49660000D02*
X123690000Y-50810000D01*
X124860000Y-47690000D02*
X128740000Y-47690000D01*
%TO.C,JP1*%
X145200000Y-86700000D02*
X146600000Y-86700000D01*
X146600000Y-88700000D02*
X145200000Y-88700000D01*
X144500000Y-88000000D02*
X144500000Y-87400000D01*
X147300000Y-87400000D02*
X147300000Y-88000000D01*
X146600000Y-88700000D02*
G75*
G03*
X147300000Y-88000000I0J700000D01*
G01*
X144500000Y-88000000D02*
G75*
G03*
X145200000Y-88700000I699999J-1D01*
G01*
X145200000Y-86700000D02*
G75*
G03*
X144500000Y-87400000I-1J-699999D01*
G01*
X147300000Y-87400000D02*
G75*
G03*
X146600000Y-86700000I-700000J0D01*
G01*
%TD*%
%LPC*%
D15*
%TO.C,U4*%
X133595000Y-94775000D03*
X134865000Y-94775000D03*
X136135000Y-94775000D03*
X137405000Y-94775000D03*
X137405000Y-89825000D03*
X136135000Y-89825000D03*
X134865000Y-89825000D03*
X133595000Y-89825000D03*
%TD*%
D16*
%TO.C,R6*%
X131987500Y-68300000D03*
X133812500Y-68300000D03*
%TD*%
%TO.C,R5*%
X131987500Y-70300000D03*
X133812500Y-70300000D03*
%TD*%
D17*
%TO.C,R4*%
X141912500Y-61700000D03*
X140087500Y-61700000D03*
%TD*%
D18*
%TO.C,R3*%
X153100000Y-69987500D03*
X153100000Y-71812500D03*
%TD*%
%TO.C,R2*%
X149500000Y-85487500D03*
X149500000Y-87312500D03*
%TD*%
D16*
%TO.C,R1*%
X145187500Y-90300000D03*
X147012500Y-90300000D03*
%TD*%
D19*
%TO.C,C5*%
X132000000Y-89762500D03*
X132000000Y-88037500D03*
%TD*%
D20*
%TO.C,C4*%
X149237500Y-77500000D03*
X150962500Y-77500000D03*
%TD*%
D21*
%TO.C,C3*%
X138600000Y-84737500D03*
X138600000Y-82662500D03*
%TD*%
D22*
%TO.C,C2*%
X152700000Y-80037500D03*
X152700000Y-82112500D03*
%TD*%
D19*
%TO.C,C1*%
X150600000Y-83862500D03*
X150600000Y-82137500D03*
%TD*%
D23*
%TO.C,J2*%
X121800000Y-73400000D03*
D24*
X121800000Y-75400000D03*
%TD*%
D25*
%TO.C,J5*%
X153150000Y-66200000D03*
D24*
X153150000Y-64200000D03*
%TD*%
D26*
%TO.C,J1*%
X122214000Y-88120000D03*
X118414000Y-88120000D03*
X122214000Y-79480000D03*
X118414000Y-79480000D03*
D27*
X122364000Y-83300000D03*
D28*
X122364000Y-85320000D03*
D29*
X122364000Y-86550000D03*
D27*
X122364000Y-84300000D03*
D28*
X122364000Y-82280000D03*
D29*
X122364000Y-81050000D03*
%TD*%
D30*
%TO.C,U1*%
X148817500Y-84080000D03*
X148817500Y-83430000D03*
X148817500Y-82780000D03*
X147042500Y-82780000D03*
X147042500Y-83430000D03*
X147042500Y-84080000D03*
D31*
X147930000Y-83430000D03*
%TD*%
D32*
%TO.C,L1*%
X143400000Y-85000000D03*
X143400000Y-81600000D03*
%TD*%
D33*
%TO.C,FL1*%
X126763000Y-82230000D03*
X126763000Y-84770000D03*
X135237000Y-84770000D03*
X135237000Y-82230000D03*
%TD*%
D34*
%TO.C,D1*%
X150550000Y-80000000D03*
X147250000Y-80000000D03*
%TD*%
D35*
%TO.C,J4*%
X147400000Y-57200000D03*
D36*
X144860000Y-57200000D03*
X142320000Y-57200000D03*
%TD*%
D37*
%TO.C,U2*%
X139924000Y-64230000D03*
X139924000Y-66770000D03*
X149676000Y-66770000D03*
X149676000Y-64230000D03*
%TD*%
D38*
%TO.C,J6*%
X133700000Y-51025000D03*
X134700000Y-51025000D03*
X135700000Y-51025000D03*
X136700000Y-51025000D03*
D39*
X138000000Y-48500000D03*
X132400000Y-48500000D03*
%TD*%
D40*
%TO.C,JP3*%
X138000000Y-74000000D03*
X138000000Y-72700000D03*
X138000000Y-71400000D03*
%TD*%
%TO.C,JP4*%
X141700000Y-74100000D03*
X141700000Y-72800000D03*
X141700000Y-71500000D03*
%TD*%
D34*
%TO.C,D2*%
X154750000Y-86100000D03*
X151450000Y-86100000D03*
%TD*%
D41*
%TO.C,JP2*%
X156200000Y-82050000D03*
D42*
X156200000Y-80750000D03*
%TD*%
D43*
%TO.C,U3*%
X145625000Y-71895000D03*
X145625000Y-73165000D03*
X145625000Y-74435000D03*
X145625000Y-75705000D03*
X150575000Y-75705000D03*
X150575000Y-74435000D03*
X150575000Y-73165000D03*
X150575000Y-71895000D03*
%TD*%
D44*
%TO.C,D3*%
X158700000Y-82545000D03*
D45*
X158700000Y-80655000D03*
%TD*%
D23*
%TO.C,J3*%
X121800000Y-65200000D03*
D24*
X121800000Y-67200000D03*
%TD*%
D46*
%TO.C,H4*%
X119000000Y-94000000D03*
D47*
X119000000Y-94000000D03*
%TD*%
D38*
%TO.C,J7*%
X125300000Y-51025000D03*
X126300000Y-51025000D03*
X127300000Y-51025000D03*
X128300000Y-51025000D03*
D39*
X129600000Y-48500000D03*
X124000000Y-48500000D03*
%TD*%
D48*
%TO.C,JP1*%
X145250000Y-87700000D03*
D49*
X146550000Y-87700000D03*
%TD*%
D46*
%TO.C,H3*%
X156000000Y-94000000D03*
D47*
X156000000Y-94000000D03*
%TD*%
D46*
%TO.C,H2*%
X156000000Y-51000000D03*
D47*
X156000000Y-51000000D03*
%TD*%
D46*
%TO.C,H1*%
X119000000Y-51000000D03*
D47*
X119000000Y-51000000D03*
%TD*%
M02*
