%TF.GenerationSoftware,KiCad,Pcbnew,(6.0.4-0)*%
%TF.CreationDate,2022-08-26T15:35:11-06:00*%
%TF.ProjectId,lm334-source-v2,6c6d3333-342d-4736-9f75-7263652d7632,rev?*%
%TF.SameCoordinates,Original*%
%TF.FileFunction,Copper,L4,Bot*%
%TF.FilePolarity,Positive*%
%FSLAX46Y46*%
G04 Gerber Fmt 4.6, Leading zero omitted, Abs format (unit mm)*
G04 Created by KiCad (PCBNEW (6.0.4-0)) date 2022-08-26 15:35:11*
%MOMM*%
%LPD*%
G01*
G04 APERTURE LIST*
%TA.AperFunction,ComponentPad*%
%ADD10C,0.700000*%
%TD*%
%TA.AperFunction,ComponentPad*%
%ADD11C,4.400000*%
%TD*%
%TA.AperFunction,ViaPad*%
%ADD12C,0.600000*%
%TD*%
%TA.AperFunction,Conductor*%
%ADD13C,0.250000*%
%TD*%
G04 APERTURE END LIST*
D10*
%TO.P,MH1,1,Pin_1*%
%TO.N,GNDPWR*%
X101350000Y-84000000D03*
X103000000Y-82350000D03*
X104166726Y-85166726D03*
X104166726Y-82833274D03*
D11*
X103000000Y-84000000D03*
D10*
X104650000Y-84000000D03*
X101833274Y-82833274D03*
X101833274Y-85166726D03*
X103000000Y-85650000D03*
%TD*%
D11*
%TO.P,MH2,1,Pin_1*%
%TO.N,GNDPWR*%
X136000000Y-84000000D03*
D10*
X137166726Y-82833274D03*
X134350000Y-84000000D03*
X137650000Y-84000000D03*
X137166726Y-85166726D03*
X136000000Y-82350000D03*
X136000000Y-85650000D03*
X134833274Y-85166726D03*
X134833274Y-82833274D03*
%TD*%
%TO.P,MH3,1,Pin_1*%
%TO.N,GNDPWR*%
X101833274Y-98166726D03*
D11*
X103000000Y-97000000D03*
D10*
X104166726Y-98166726D03*
X101833274Y-95833274D03*
X104166726Y-95833274D03*
X103000000Y-95350000D03*
X104650000Y-97000000D03*
X101350000Y-97000000D03*
X103000000Y-98650000D03*
%TD*%
D11*
%TO.P,MH4,1,Pin_1*%
%TO.N,GNDPWR*%
X136000000Y-97000000D03*
D10*
X134833274Y-95833274D03*
X134350000Y-97000000D03*
X137650000Y-97000000D03*
X136000000Y-95350000D03*
X137166726Y-98166726D03*
X137166726Y-95833274D03*
X134833274Y-98166726D03*
X136000000Y-98650000D03*
%TD*%
D12*
%TO.N,GND*%
X132050000Y-92200000D03*
X112650000Y-88750000D03*
X127550000Y-91850000D03*
X127450000Y-94350000D03*
X124150000Y-94650000D03*
X116150000Y-89150000D03*
X112650000Y-93650000D03*
%TO.N,+3V3*%
X121250000Y-87850000D03*
X121250000Y-96950000D03*
%TO.N,VD*%
X132000000Y-91200000D03*
X135450000Y-91250000D03*
X122465000Y-96965000D03*
X122950000Y-88450000D03*
%TO.N,/Channel1/I+*%
X107950000Y-88100000D03*
X106750000Y-83450000D03*
%TO.N,/Channel1/buffer/out+*%
X120150000Y-93250000D03*
X119550000Y-90550000D03*
%TO.N,/sda-tx*%
X135450000Y-89950000D03*
X126350000Y-89950000D03*
%TD*%
D13*
%TO.N,VD*%
X132050000Y-91250000D02*
X132000000Y-91200000D01*
X135450000Y-91250000D02*
X132050000Y-91250000D01*
%TO.N,/sda-tx*%
X135450000Y-89950000D02*
X126350000Y-89950000D01*
%TD*%
%TA.AperFunction,Conductor*%
%TO.N,GNDPWR*%
G36*
X101501296Y-81528502D02*
G01*
X101547789Y-81582158D01*
X101557893Y-81652432D01*
X101528399Y-81717012D01*
X101497597Y-81742786D01*
X101478350Y-81754237D01*
X101472091Y-81758490D01*
X101286385Y-81901762D01*
X101277917Y-81913423D01*
X101284520Y-81925309D01*
X102987190Y-83627980D01*
X103001131Y-83635592D01*
X103002966Y-83635461D01*
X103009580Y-83631210D01*
X104714559Y-81926230D01*
X104721571Y-81913389D01*
X104713777Y-81902701D01*
X104551298Y-81774613D01*
X104545075Y-81770288D01*
X104498813Y-81742105D01*
X104451044Y-81689582D01*
X104439254Y-81619571D01*
X104467186Y-81554300D01*
X104525972Y-81514492D01*
X104564366Y-81508500D01*
X134433175Y-81508500D01*
X134501296Y-81528502D01*
X134547789Y-81582158D01*
X134557893Y-81652432D01*
X134528399Y-81717012D01*
X134497597Y-81742786D01*
X134478350Y-81754237D01*
X134472091Y-81758490D01*
X134286385Y-81901762D01*
X134277917Y-81913423D01*
X134284520Y-81925309D01*
X135987190Y-83627980D01*
X136001131Y-83635592D01*
X136002966Y-83635461D01*
X136009580Y-83631210D01*
X137714559Y-81926230D01*
X137721571Y-81913389D01*
X137713777Y-81902701D01*
X137551298Y-81774613D01*
X137545075Y-81770288D01*
X137498813Y-81742105D01*
X137451044Y-81689582D01*
X137439254Y-81619571D01*
X137467186Y-81554300D01*
X137525972Y-81514492D01*
X137564366Y-81508500D01*
X138365500Y-81508500D01*
X138433621Y-81528502D01*
X138480114Y-81582158D01*
X138491500Y-81634500D01*
X138491500Y-82434491D01*
X138471498Y-82502612D01*
X138417842Y-82549105D01*
X138347568Y-82559209D01*
X138282988Y-82529715D01*
X138257553Y-82499480D01*
X138237763Y-82466609D01*
X138233481Y-82460377D01*
X138097991Y-82286647D01*
X138086199Y-82278178D01*
X138074486Y-82284725D01*
X136372020Y-83987190D01*
X136364408Y-84001131D01*
X136364539Y-84002966D01*
X136368790Y-84009580D01*
X138073285Y-85714074D01*
X138086408Y-85721240D01*
X138096709Y-85713851D01*
X138200751Y-85586055D01*
X138205159Y-85579921D01*
X138258938Y-85494686D01*
X138312205Y-85447748D01*
X138382392Y-85437059D01*
X138447217Y-85466014D01*
X138486096Y-85525418D01*
X138491500Y-85561922D01*
X138491500Y-95434491D01*
X138471498Y-95502612D01*
X138417842Y-95549105D01*
X138347568Y-95559209D01*
X138282988Y-95529715D01*
X138257553Y-95499480D01*
X138237763Y-95466609D01*
X138233481Y-95460377D01*
X138097991Y-95286647D01*
X138086199Y-95278178D01*
X138074486Y-95284725D01*
X136372020Y-96987190D01*
X136364408Y-97001131D01*
X136364539Y-97002966D01*
X136368790Y-97009580D01*
X138073285Y-98714074D01*
X138086408Y-98721240D01*
X138096709Y-98713851D01*
X138200751Y-98586055D01*
X138205159Y-98579921D01*
X138258938Y-98494686D01*
X138312205Y-98447748D01*
X138382392Y-98437059D01*
X138447217Y-98466014D01*
X138486096Y-98525418D01*
X138491500Y-98561922D01*
X138491500Y-99365500D01*
X138471498Y-99433621D01*
X138417842Y-99480114D01*
X138365500Y-99491500D01*
X137569317Y-99491500D01*
X137501196Y-99471498D01*
X137454703Y-99417842D01*
X137444599Y-99347568D01*
X137474093Y-99282988D01*
X137499596Y-99260548D01*
X137504347Y-99257392D01*
X137714305Y-99098889D01*
X137722761Y-99087496D01*
X137716045Y-99075256D01*
X136012810Y-97372020D01*
X135998869Y-97364408D01*
X135997034Y-97364539D01*
X135990420Y-97368790D01*
X134285818Y-99073393D01*
X134278703Y-99086423D01*
X134286227Y-99096854D01*
X134425483Y-99209020D01*
X134431664Y-99213413D01*
X134504100Y-99258588D01*
X134551317Y-99311608D01*
X134562373Y-99381738D01*
X134533759Y-99446713D01*
X134474559Y-99485903D01*
X134437424Y-99491500D01*
X104569317Y-99491500D01*
X104501196Y-99471498D01*
X104454703Y-99417842D01*
X104444599Y-99347568D01*
X104474093Y-99282988D01*
X104499596Y-99260548D01*
X104504347Y-99257392D01*
X104714305Y-99098889D01*
X104722761Y-99087496D01*
X104716045Y-99075256D01*
X103012810Y-97372020D01*
X102998869Y-97364408D01*
X102997034Y-97364539D01*
X102990420Y-97368790D01*
X101285818Y-99073393D01*
X101278703Y-99086423D01*
X101286227Y-99096854D01*
X101425483Y-99209020D01*
X101431664Y-99213413D01*
X101504100Y-99258588D01*
X101551317Y-99311608D01*
X101562373Y-99381738D01*
X101533759Y-99446713D01*
X101474559Y-99485903D01*
X101437424Y-99491500D01*
X100634500Y-99491500D01*
X100566379Y-99471498D01*
X100519886Y-99417842D01*
X100508500Y-99365500D01*
X100508500Y-98568320D01*
X100528502Y-98500199D01*
X100582158Y-98453706D01*
X100652432Y-98443602D01*
X100717012Y-98473096D01*
X100743120Y-98504463D01*
X100746296Y-98509866D01*
X100750519Y-98516150D01*
X100901463Y-98713934D01*
X100912989Y-98722396D01*
X100925054Y-98715735D01*
X102627980Y-97012810D01*
X102634357Y-97001131D01*
X103364408Y-97001131D01*
X103364539Y-97002966D01*
X103368790Y-97009580D01*
X105073285Y-98714074D01*
X105086408Y-98721240D01*
X105096709Y-98713851D01*
X105200751Y-98586055D01*
X105205164Y-98579914D01*
X105375349Y-98310187D01*
X105379005Y-98303536D01*
X105515544Y-98015335D01*
X105518375Y-98008295D01*
X105619306Y-97705767D01*
X105621270Y-97698433D01*
X105685122Y-97385989D01*
X105686194Y-97378465D01*
X105712173Y-97059051D01*
X105712378Y-97054576D01*
X105712927Y-97002221D01*
X105712817Y-96997789D01*
X105709251Y-96938640D01*
X120436463Y-96938640D01*
X120454163Y-97119160D01*
X120511418Y-97291273D01*
X120515065Y-97297295D01*
X120515066Y-97297297D01*
X120568780Y-97385989D01*
X120605380Y-97446424D01*
X120731382Y-97576902D01*
X120883159Y-97676222D01*
X120889763Y-97678678D01*
X120889765Y-97678679D01*
X121046558Y-97736990D01*
X121046560Y-97736990D01*
X121053168Y-97739448D01*
X121136995Y-97750633D01*
X121225980Y-97762507D01*
X121225984Y-97762507D01*
X121232961Y-97763438D01*
X121239972Y-97762800D01*
X121239976Y-97762800D01*
X121382459Y-97749832D01*
X121413600Y-97746998D01*
X121420302Y-97744820D01*
X121420304Y-97744820D01*
X121579409Y-97693124D01*
X121579412Y-97693123D01*
X121586108Y-97690947D01*
X121712237Y-97615759D01*
X121735860Y-97601677D01*
X121735862Y-97601676D01*
X121741912Y-97598069D01*
X121760920Y-97579968D01*
X121824045Y-97547476D01*
X121894716Y-97554269D01*
X121938444Y-97583682D01*
X121946382Y-97591902D01*
X121984242Y-97616677D01*
X122092227Y-97687340D01*
X122098159Y-97691222D01*
X122104763Y-97693678D01*
X122104765Y-97693679D01*
X122261558Y-97751990D01*
X122261560Y-97751990D01*
X122268168Y-97754448D01*
X122335544Y-97763438D01*
X122440980Y-97777507D01*
X122440984Y-97777507D01*
X122447961Y-97778438D01*
X122454972Y-97777800D01*
X122454976Y-97777800D01*
X122597459Y-97764832D01*
X122628600Y-97761998D01*
X122635302Y-97759820D01*
X122635304Y-97759820D01*
X122794409Y-97708124D01*
X122794412Y-97708123D01*
X122801108Y-97705947D01*
X122956912Y-97613069D01*
X123088266Y-97487982D01*
X123188643Y-97336902D01*
X123253055Y-97167338D01*
X123268903Y-97054576D01*
X123277748Y-96991639D01*
X123277748Y-96991636D01*
X123278299Y-96987717D01*
X123278471Y-96975383D01*
X133287388Y-96975383D01*
X133303245Y-97293914D01*
X133304076Y-97301443D01*
X133358085Y-97615759D01*
X133359818Y-97623146D01*
X133451196Y-97928695D01*
X133453799Y-97935808D01*
X133581227Y-98228173D01*
X133584669Y-98234929D01*
X133746296Y-98509865D01*
X133750519Y-98516150D01*
X133901463Y-98713934D01*
X133912989Y-98722396D01*
X133925054Y-98715735D01*
X135627980Y-97012810D01*
X135635592Y-96998869D01*
X135635461Y-96997034D01*
X135631210Y-96990420D01*
X133926445Y-95285656D01*
X133913510Y-95278592D01*
X133902949Y-95286252D01*
X133782766Y-95437072D01*
X133778410Y-95443270D01*
X133611059Y-95714764D01*
X133607479Y-95721440D01*
X133473956Y-96011074D01*
X133471206Y-96018125D01*
X133373444Y-96321708D01*
X133371561Y-96329041D01*
X133310979Y-96642170D01*
X133309992Y-96649670D01*
X133287467Y-96967802D01*
X133287388Y-96975383D01*
X123278471Y-96975383D01*
X123278616Y-96965000D01*
X123258397Y-96784745D01*
X123247017Y-96752066D01*
X123201064Y-96620106D01*
X123201062Y-96620103D01*
X123198745Y-96613448D01*
X123102626Y-96459624D01*
X123010832Y-96367187D01*
X122979778Y-96335915D01*
X122979774Y-96335912D01*
X122974815Y-96330918D01*
X122963697Y-96323862D01*
X122915538Y-96293300D01*
X122821666Y-96233727D01*
X122765755Y-96213818D01*
X122657425Y-96175243D01*
X122657420Y-96175242D01*
X122650790Y-96172881D01*
X122643802Y-96172048D01*
X122643799Y-96172047D01*
X122503889Y-96155364D01*
X122470680Y-96151404D01*
X122463677Y-96152140D01*
X122463676Y-96152140D01*
X122297288Y-96169628D01*
X122297286Y-96169629D01*
X122290288Y-96170364D01*
X122118579Y-96228818D01*
X122112575Y-96232512D01*
X121970090Y-96320169D01*
X121970087Y-96320171D01*
X121964088Y-96323862D01*
X121953925Y-96333815D01*
X121891262Y-96367187D01*
X121820503Y-96361384D01*
X121776359Y-96332578D01*
X121772847Y-96329041D01*
X121759815Y-96315918D01*
X121748697Y-96308862D01*
X121630302Y-96233727D01*
X121606666Y-96218727D01*
X121577463Y-96208328D01*
X121442425Y-96160243D01*
X121442420Y-96160242D01*
X121435790Y-96157881D01*
X121428802Y-96157048D01*
X121428799Y-96157047D01*
X121305698Y-96142368D01*
X121255680Y-96136404D01*
X121248677Y-96137140D01*
X121248676Y-96137140D01*
X121082288Y-96154628D01*
X121082286Y-96154629D01*
X121075288Y-96155364D01*
X120903579Y-96213818D01*
X120871218Y-96233727D01*
X120755095Y-96305166D01*
X120755092Y-96305168D01*
X120749088Y-96308862D01*
X120744053Y-96313793D01*
X120744050Y-96313795D01*
X120634208Y-96421361D01*
X120619493Y-96435771D01*
X120521235Y-96588238D01*
X120518826Y-96594858D01*
X120518824Y-96594861D01*
X120461606Y-96752066D01*
X120459197Y-96758685D01*
X120436463Y-96938640D01*
X105709251Y-96938640D01*
X105693529Y-96677853D01*
X105692621Y-96670351D01*
X105635319Y-96356593D01*
X105633518Y-96349260D01*
X105538935Y-96044655D01*
X105536263Y-96037583D01*
X105405781Y-95746570D01*
X105402264Y-95739843D01*
X105237771Y-95466621D01*
X105233481Y-95460377D01*
X105097991Y-95286647D01*
X105086199Y-95278178D01*
X105074486Y-95284725D01*
X103372020Y-96987190D01*
X103364408Y-97001131D01*
X102634357Y-97001131D01*
X102635592Y-96998869D01*
X102635461Y-96997034D01*
X102631210Y-96990420D01*
X100926445Y-95285656D01*
X100913510Y-95278592D01*
X100902949Y-95286252D01*
X100782766Y-95437072D01*
X100778410Y-95443270D01*
X100741760Y-95502727D01*
X100688988Y-95550220D01*
X100618916Y-95561644D01*
X100553792Y-95533370D01*
X100514293Y-95474376D01*
X100508500Y-95436611D01*
X100508500Y-94913423D01*
X101277917Y-94913423D01*
X101284520Y-94925309D01*
X102987190Y-96627980D01*
X103001131Y-96635592D01*
X103002966Y-96635461D01*
X103009580Y-96631210D01*
X104714559Y-94926230D01*
X104721571Y-94913389D01*
X104713777Y-94902701D01*
X104551298Y-94774613D01*
X104545075Y-94770288D01*
X104328977Y-94638640D01*
X123336463Y-94638640D01*
X123354163Y-94819160D01*
X123411418Y-94991273D01*
X123415065Y-94997295D01*
X123415066Y-94997297D01*
X123501720Y-95140380D01*
X123505380Y-95146424D01*
X123631382Y-95276902D01*
X123783159Y-95376222D01*
X123789763Y-95378678D01*
X123789765Y-95378679D01*
X123946558Y-95436990D01*
X123946560Y-95436990D01*
X123953168Y-95439448D01*
X124036995Y-95450633D01*
X124125980Y-95462507D01*
X124125984Y-95462507D01*
X124132961Y-95463438D01*
X124139972Y-95462800D01*
X124139976Y-95462800D01*
X124282459Y-95449832D01*
X124313600Y-95446998D01*
X124320302Y-95444820D01*
X124320304Y-95444820D01*
X124479409Y-95393124D01*
X124479412Y-95393123D01*
X124486108Y-95390947D01*
X124641912Y-95298069D01*
X124773266Y-95172982D01*
X124873643Y-95021902D01*
X124938055Y-94852338D01*
X124939733Y-94840401D01*
X124962748Y-94676639D01*
X124962748Y-94676636D01*
X124963299Y-94672717D01*
X124963616Y-94650000D01*
X124943397Y-94469745D01*
X124941080Y-94463091D01*
X124897742Y-94338640D01*
X126636463Y-94338640D01*
X126654163Y-94519160D01*
X126711418Y-94691273D01*
X126715065Y-94697295D01*
X126715066Y-94697297D01*
X126784624Y-94812151D01*
X126805380Y-94846424D01*
X126931382Y-94976902D01*
X127083159Y-95076222D01*
X127089763Y-95078678D01*
X127089765Y-95078679D01*
X127246558Y-95136990D01*
X127246560Y-95136990D01*
X127253168Y-95139448D01*
X127336995Y-95150633D01*
X127425980Y-95162507D01*
X127425984Y-95162507D01*
X127432961Y-95163438D01*
X127439972Y-95162800D01*
X127439976Y-95162800D01*
X127582459Y-95149832D01*
X127613600Y-95146998D01*
X127620302Y-95144820D01*
X127620304Y-95144820D01*
X127779409Y-95093124D01*
X127779412Y-95093123D01*
X127786108Y-95090947D01*
X127901932Y-95021902D01*
X127935860Y-95001677D01*
X127935862Y-95001676D01*
X127941912Y-94998069D01*
X128030799Y-94913423D01*
X134277917Y-94913423D01*
X134284520Y-94925309D01*
X135987190Y-96627980D01*
X136001131Y-96635592D01*
X136002966Y-96635461D01*
X136009580Y-96631210D01*
X137714559Y-94926230D01*
X137721571Y-94913389D01*
X137713777Y-94902701D01*
X137551298Y-94774613D01*
X137545075Y-94770288D01*
X137272702Y-94604357D01*
X137266025Y-94600822D01*
X136975686Y-94468813D01*
X136968616Y-94466099D01*
X136664537Y-94369932D01*
X136657186Y-94368085D01*
X136343746Y-94309142D01*
X136336237Y-94308194D01*
X136017989Y-94287335D01*
X136010424Y-94287295D01*
X135691964Y-94304821D01*
X135684450Y-94305690D01*
X135370405Y-94361348D01*
X135363044Y-94363115D01*
X135057980Y-94456092D01*
X135050860Y-94458740D01*
X134759182Y-94587690D01*
X134752445Y-94591167D01*
X134478355Y-94754233D01*
X134472091Y-94758490D01*
X134286385Y-94901762D01*
X134277917Y-94913423D01*
X128030799Y-94913423D01*
X128073266Y-94872982D01*
X128173643Y-94721902D01*
X128218295Y-94604357D01*
X128235555Y-94558920D01*
X128235556Y-94558918D01*
X128238055Y-94552338D01*
X128239035Y-94545366D01*
X128262748Y-94376639D01*
X128262748Y-94376636D01*
X128263299Y-94372717D01*
X128263616Y-94350000D01*
X128243397Y-94169745D01*
X128241080Y-94163091D01*
X128186064Y-94005106D01*
X128186062Y-94005103D01*
X128183745Y-93998448D01*
X128133171Y-93917512D01*
X128091359Y-93850598D01*
X128087626Y-93844624D01*
X128082664Y-93839627D01*
X127964778Y-93720915D01*
X127964774Y-93720912D01*
X127959815Y-93715918D01*
X127948697Y-93708862D01*
X127885501Y-93668757D01*
X127806666Y-93618727D01*
X127777463Y-93608328D01*
X127642425Y-93560243D01*
X127642420Y-93560242D01*
X127635790Y-93557881D01*
X127628802Y-93557048D01*
X127628799Y-93557047D01*
X127505698Y-93542368D01*
X127455680Y-93536404D01*
X127448677Y-93537140D01*
X127448676Y-93537140D01*
X127282288Y-93554628D01*
X127282286Y-93554629D01*
X127275288Y-93555364D01*
X127103579Y-93613818D01*
X127097575Y-93617512D01*
X126955095Y-93705166D01*
X126955092Y-93705168D01*
X126949088Y-93708862D01*
X126944053Y-93713793D01*
X126944050Y-93713795D01*
X126829630Y-93825844D01*
X126819493Y-93835771D01*
X126721235Y-93988238D01*
X126718826Y-93994858D01*
X126718824Y-93994861D01*
X126661606Y-94152066D01*
X126659197Y-94158685D01*
X126636463Y-94338640D01*
X124897742Y-94338640D01*
X124886064Y-94305106D01*
X124886062Y-94305103D01*
X124883745Y-94298448D01*
X124787626Y-94144624D01*
X124707005Y-94063438D01*
X124664778Y-94020915D01*
X124664774Y-94020912D01*
X124659815Y-94015918D01*
X124648697Y-94008862D01*
X124591185Y-93972364D01*
X124506666Y-93918727D01*
X124458784Y-93901677D01*
X124342425Y-93860243D01*
X124342420Y-93860242D01*
X124335790Y-93857881D01*
X124328802Y-93857048D01*
X124328799Y-93857047D01*
X124205698Y-93842368D01*
X124155680Y-93836404D01*
X124148677Y-93837140D01*
X124148676Y-93837140D01*
X123982288Y-93854628D01*
X123982286Y-93854629D01*
X123975288Y-93855364D01*
X123803579Y-93913818D01*
X123797575Y-93917512D01*
X123655095Y-94005166D01*
X123655092Y-94005168D01*
X123649088Y-94008862D01*
X123644053Y-94013793D01*
X123644050Y-94013795D01*
X123524525Y-94130843D01*
X123519493Y-94135771D01*
X123421235Y-94288238D01*
X123418826Y-94294858D01*
X123418824Y-94294861D01*
X123364243Y-94444820D01*
X123359197Y-94458685D01*
X123336463Y-94638640D01*
X104328977Y-94638640D01*
X104272702Y-94604357D01*
X104266025Y-94600822D01*
X103975686Y-94468813D01*
X103968616Y-94466099D01*
X103664537Y-94369932D01*
X103657186Y-94368085D01*
X103343746Y-94309142D01*
X103336237Y-94308194D01*
X103017989Y-94287335D01*
X103010424Y-94287295D01*
X102691964Y-94304821D01*
X102684450Y-94305690D01*
X102370405Y-94361348D01*
X102363044Y-94363115D01*
X102057980Y-94456092D01*
X102050860Y-94458740D01*
X101759182Y-94587690D01*
X101752445Y-94591167D01*
X101478355Y-94754233D01*
X101472091Y-94758490D01*
X101286385Y-94901762D01*
X101277917Y-94913423D01*
X100508500Y-94913423D01*
X100508500Y-93638640D01*
X111836463Y-93638640D01*
X111854163Y-93819160D01*
X111911418Y-93991273D01*
X111915065Y-93997295D01*
X111915066Y-93997297D01*
X112001264Y-94139627D01*
X112005380Y-94146424D01*
X112010269Y-94151487D01*
X112010270Y-94151488D01*
X112025357Y-94167111D01*
X112131382Y-94276902D01*
X112155171Y-94292469D01*
X112243088Y-94350000D01*
X112283159Y-94376222D01*
X112289763Y-94378678D01*
X112289765Y-94378679D01*
X112446558Y-94436990D01*
X112446560Y-94436990D01*
X112453168Y-94439448D01*
X112536995Y-94450633D01*
X112625980Y-94462507D01*
X112625984Y-94462507D01*
X112632961Y-94463438D01*
X112639972Y-94462800D01*
X112639976Y-94462800D01*
X112782459Y-94449832D01*
X112813600Y-94446998D01*
X112820302Y-94444820D01*
X112820304Y-94444820D01*
X112979409Y-94393124D01*
X112979412Y-94393123D01*
X112986108Y-94390947D01*
X113123337Y-94309142D01*
X113135860Y-94301677D01*
X113135862Y-94301676D01*
X113141912Y-94298069D01*
X113273266Y-94172982D01*
X113373643Y-94021902D01*
X113422529Y-93893211D01*
X113435555Y-93858920D01*
X113435556Y-93858918D01*
X113438055Y-93852338D01*
X113439551Y-93841693D01*
X113462748Y-93676639D01*
X113462748Y-93676636D01*
X113463299Y-93672717D01*
X113463616Y-93650000D01*
X113443397Y-93469745D01*
X113441080Y-93463091D01*
X113386064Y-93305106D01*
X113386062Y-93305103D01*
X113383745Y-93298448D01*
X113346373Y-93238640D01*
X119336463Y-93238640D01*
X119354163Y-93419160D01*
X119411418Y-93591273D01*
X119415065Y-93597295D01*
X119415066Y-93597297D01*
X119482632Y-93708862D01*
X119505380Y-93746424D01*
X119631382Y-93876902D01*
X119783159Y-93976222D01*
X119789763Y-93978678D01*
X119789765Y-93978679D01*
X119946558Y-94036990D01*
X119946560Y-94036990D01*
X119953168Y-94039448D01*
X120036995Y-94050633D01*
X120125980Y-94062507D01*
X120125984Y-94062507D01*
X120132961Y-94063438D01*
X120139972Y-94062800D01*
X120139976Y-94062800D01*
X120282459Y-94049832D01*
X120313600Y-94046998D01*
X120320302Y-94044820D01*
X120320304Y-94044820D01*
X120479409Y-93993124D01*
X120479412Y-93993123D01*
X120486108Y-93990947D01*
X120609296Y-93917512D01*
X120635860Y-93901677D01*
X120635862Y-93901676D01*
X120641912Y-93898069D01*
X120773266Y-93772982D01*
X120873643Y-93621902D01*
X120932989Y-93465675D01*
X120935555Y-93458920D01*
X120935556Y-93458918D01*
X120938055Y-93452338D01*
X120939035Y-93445366D01*
X120962748Y-93276639D01*
X120962748Y-93276636D01*
X120963299Y-93272717D01*
X120963616Y-93250000D01*
X120943397Y-93069745D01*
X120941080Y-93063091D01*
X120886064Y-92905106D01*
X120886062Y-92905103D01*
X120883745Y-92898448D01*
X120856823Y-92855364D01*
X120791359Y-92750598D01*
X120787626Y-92744624D01*
X120770960Y-92727841D01*
X120664778Y-92620915D01*
X120664774Y-92620912D01*
X120659815Y-92615918D01*
X120648697Y-92608862D01*
X120590457Y-92571902D01*
X120506666Y-92518727D01*
X120458784Y-92501677D01*
X120342425Y-92460243D01*
X120342420Y-92460242D01*
X120335790Y-92457881D01*
X120328802Y-92457048D01*
X120328799Y-92457047D01*
X120205698Y-92442368D01*
X120155680Y-92436404D01*
X120148677Y-92437140D01*
X120148676Y-92437140D01*
X119982288Y-92454628D01*
X119982286Y-92454629D01*
X119975288Y-92455364D01*
X119803579Y-92513818D01*
X119797575Y-92517512D01*
X119655095Y-92605166D01*
X119655092Y-92605168D01*
X119649088Y-92608862D01*
X119644053Y-92613793D01*
X119644050Y-92613795D01*
X119527591Y-92727841D01*
X119519493Y-92735771D01*
X119421235Y-92888238D01*
X119418826Y-92894858D01*
X119418824Y-92894861D01*
X119375536Y-93013795D01*
X119359197Y-93058685D01*
X119336463Y-93238640D01*
X113346373Y-93238640D01*
X113287626Y-93144624D01*
X113273941Y-93130843D01*
X113164778Y-93020915D01*
X113164774Y-93020912D01*
X113159815Y-93015918D01*
X113148697Y-93008862D01*
X113100538Y-92978300D01*
X113006666Y-92918727D01*
X112949716Y-92898448D01*
X112842425Y-92860243D01*
X112842420Y-92860242D01*
X112835790Y-92857881D01*
X112828802Y-92857048D01*
X112828799Y-92857047D01*
X112705698Y-92842368D01*
X112655680Y-92836404D01*
X112648677Y-92837140D01*
X112648676Y-92837140D01*
X112482288Y-92854628D01*
X112482286Y-92854629D01*
X112475288Y-92855364D01*
X112303579Y-92913818D01*
X112297575Y-92917512D01*
X112155095Y-93005166D01*
X112155092Y-93005168D01*
X112149088Y-93008862D01*
X112144053Y-93013793D01*
X112144050Y-93013795D01*
X112086916Y-93069745D01*
X112019493Y-93135771D01*
X111921235Y-93288238D01*
X111918826Y-93294858D01*
X111918824Y-93294861D01*
X111876134Y-93412151D01*
X111859197Y-93458685D01*
X111836463Y-93638640D01*
X100508500Y-93638640D01*
X100508500Y-91838640D01*
X126736463Y-91838640D01*
X126754163Y-92019160D01*
X126811418Y-92191273D01*
X126815065Y-92197295D01*
X126815066Y-92197297D01*
X126825978Y-92215314D01*
X126905380Y-92346424D01*
X127031382Y-92476902D01*
X127183159Y-92576222D01*
X127189763Y-92578678D01*
X127189765Y-92578679D01*
X127346558Y-92636990D01*
X127346560Y-92636990D01*
X127353168Y-92639448D01*
X127436995Y-92650633D01*
X127525980Y-92662507D01*
X127525984Y-92662507D01*
X127532961Y-92663438D01*
X127539972Y-92662800D01*
X127539976Y-92662800D01*
X127682459Y-92649832D01*
X127713600Y-92646998D01*
X127720302Y-92644820D01*
X127720304Y-92644820D01*
X127879409Y-92593124D01*
X127879412Y-92593123D01*
X127886108Y-92590947D01*
X128009296Y-92517512D01*
X128035860Y-92501677D01*
X128035862Y-92501676D01*
X128041912Y-92498069D01*
X128173266Y-92372982D01*
X128273643Y-92221902D01*
X128315423Y-92111917D01*
X128335555Y-92058920D01*
X128335556Y-92058918D01*
X128338055Y-92052338D01*
X128340212Y-92036990D01*
X128362748Y-91876639D01*
X128362748Y-91876636D01*
X128363299Y-91872717D01*
X128363616Y-91850000D01*
X128343397Y-91669745D01*
X128341080Y-91663091D01*
X128286064Y-91505106D01*
X128286062Y-91505103D01*
X128283745Y-91498448D01*
X128187626Y-91344624D01*
X128173941Y-91330843D01*
X128064778Y-91220915D01*
X128064774Y-91220912D01*
X128059815Y-91215918D01*
X128048697Y-91208862D01*
X127998335Y-91176902D01*
X127906666Y-91118727D01*
X127877463Y-91108328D01*
X127742425Y-91060243D01*
X127742420Y-91060242D01*
X127735790Y-91057881D01*
X127728802Y-91057048D01*
X127728799Y-91057047D01*
X127605698Y-91042368D01*
X127555680Y-91036404D01*
X127548677Y-91037140D01*
X127548676Y-91037140D01*
X127382288Y-91054628D01*
X127382286Y-91054629D01*
X127375288Y-91055364D01*
X127203579Y-91113818D01*
X127197575Y-91117512D01*
X127055095Y-91205166D01*
X127055092Y-91205168D01*
X127049088Y-91208862D01*
X127044053Y-91213793D01*
X127044050Y-91213795D01*
X126924525Y-91330843D01*
X126919493Y-91335771D01*
X126821235Y-91488238D01*
X126818826Y-91494858D01*
X126818824Y-91494861D01*
X126799739Y-91547297D01*
X126759197Y-91658685D01*
X126736463Y-91838640D01*
X100508500Y-91838640D01*
X100508500Y-90538640D01*
X118736463Y-90538640D01*
X118754163Y-90719160D01*
X118811418Y-90891273D01*
X118815065Y-90897295D01*
X118815066Y-90897297D01*
X118899817Y-91037238D01*
X118905380Y-91046424D01*
X118910269Y-91051487D01*
X118910270Y-91051488D01*
X118916204Y-91057633D01*
X119031382Y-91176902D01*
X119091005Y-91215918D01*
X119143088Y-91250000D01*
X119183159Y-91276222D01*
X119189763Y-91278678D01*
X119189765Y-91278679D01*
X119346558Y-91336990D01*
X119346560Y-91336990D01*
X119353168Y-91339448D01*
X119436732Y-91350598D01*
X119525980Y-91362507D01*
X119525984Y-91362507D01*
X119532961Y-91363438D01*
X119539972Y-91362800D01*
X119539976Y-91362800D01*
X119682459Y-91349832D01*
X119713600Y-91346998D01*
X119720302Y-91344820D01*
X119720304Y-91344820D01*
X119879409Y-91293124D01*
X119879412Y-91293123D01*
X119886108Y-91290947D01*
X120011970Y-91215918D01*
X120035860Y-91201677D01*
X120035862Y-91201676D01*
X120041912Y-91198069D01*
X120173266Y-91072982D01*
X120273643Y-90921902D01*
X120328400Y-90777756D01*
X120335555Y-90758920D01*
X120335556Y-90758918D01*
X120338055Y-90752338D01*
X120339736Y-90740380D01*
X120362748Y-90576639D01*
X120362748Y-90576636D01*
X120363299Y-90572717D01*
X120363616Y-90550000D01*
X120343397Y-90369745D01*
X120341080Y-90363091D01*
X120286064Y-90205106D01*
X120286062Y-90205103D01*
X120283745Y-90198448D01*
X120187626Y-90044624D01*
X120120114Y-89976639D01*
X120082380Y-89938640D01*
X125536463Y-89938640D01*
X125554163Y-90119160D01*
X125611418Y-90291273D01*
X125615065Y-90297295D01*
X125615066Y-90297297D01*
X125663181Y-90376744D01*
X125705380Y-90446424D01*
X125831382Y-90576902D01*
X125983159Y-90676222D01*
X125989763Y-90678678D01*
X125989765Y-90678679D01*
X126146558Y-90736990D01*
X126146560Y-90736990D01*
X126153168Y-90739448D01*
X126236732Y-90750598D01*
X126325980Y-90762507D01*
X126325984Y-90762507D01*
X126332961Y-90763438D01*
X126339972Y-90762800D01*
X126339976Y-90762800D01*
X126482459Y-90749832D01*
X126513600Y-90746998D01*
X126520302Y-90744820D01*
X126520304Y-90744820D01*
X126679409Y-90693124D01*
X126679412Y-90693123D01*
X126686108Y-90690947D01*
X126836540Y-90601271D01*
X126901058Y-90583500D01*
X131204303Y-90583500D01*
X131272424Y-90603502D01*
X131318917Y-90657158D01*
X131329021Y-90727432D01*
X131310216Y-90777752D01*
X131271235Y-90838238D01*
X131268826Y-90844858D01*
X131268824Y-90844861D01*
X131211606Y-91002066D01*
X131209197Y-91008685D01*
X131186463Y-91188640D01*
X131204163Y-91369160D01*
X131261418Y-91541273D01*
X131265065Y-91547295D01*
X131265066Y-91547297D01*
X131342329Y-91674874D01*
X131360508Y-91743504D01*
X131340466Y-91808398D01*
X131321235Y-91838238D01*
X131318826Y-91844858D01*
X131318824Y-91844861D01*
X131270118Y-91978679D01*
X131259197Y-92008685D01*
X131236463Y-92188640D01*
X131254163Y-92369160D01*
X131311418Y-92541273D01*
X131315065Y-92547295D01*
X131315066Y-92547297D01*
X131385017Y-92662800D01*
X131405380Y-92696424D01*
X131410269Y-92701487D01*
X131410270Y-92701488D01*
X131487121Y-92781068D01*
X131531382Y-92826902D01*
X131607271Y-92876562D01*
X131669849Y-92917512D01*
X131683159Y-92926222D01*
X131689763Y-92928678D01*
X131689765Y-92928679D01*
X131846558Y-92986990D01*
X131846560Y-92986990D01*
X131853168Y-92989448D01*
X131936995Y-93000633D01*
X132025980Y-93012507D01*
X132025984Y-93012507D01*
X132032961Y-93013438D01*
X132039972Y-93012800D01*
X132039976Y-93012800D01*
X132182459Y-92999832D01*
X132213600Y-92996998D01*
X132220302Y-92994820D01*
X132220304Y-92994820D01*
X132379409Y-92943124D01*
X132379412Y-92943123D01*
X132386108Y-92940947D01*
X132521490Y-92860243D01*
X132535860Y-92851677D01*
X132535862Y-92851676D01*
X132541912Y-92848069D01*
X132673266Y-92722982D01*
X132773643Y-92571902D01*
X132824835Y-92437140D01*
X132835555Y-92408920D01*
X132835556Y-92408918D01*
X132838055Y-92402338D01*
X132841498Y-92377841D01*
X132862748Y-92226639D01*
X132862748Y-92226636D01*
X132863299Y-92222717D01*
X132863616Y-92200000D01*
X132843823Y-92023544D01*
X132856107Y-91953620D01*
X132904246Y-91901435D01*
X132969038Y-91883500D01*
X134903903Y-91883500D01*
X134972896Y-91904068D01*
X135048620Y-91953620D01*
X135083159Y-91976222D01*
X135089763Y-91978678D01*
X135089765Y-91978679D01*
X135246558Y-92036990D01*
X135246560Y-92036990D01*
X135253168Y-92039448D01*
X135336995Y-92050633D01*
X135425980Y-92062507D01*
X135425984Y-92062507D01*
X135432961Y-92063438D01*
X135439972Y-92062800D01*
X135439976Y-92062800D01*
X135582459Y-92049832D01*
X135613600Y-92046998D01*
X135620302Y-92044820D01*
X135620304Y-92044820D01*
X135779409Y-91993124D01*
X135779412Y-91993123D01*
X135786108Y-91990947D01*
X135941912Y-91898069D01*
X136073266Y-91772982D01*
X136173643Y-91621902D01*
X136238055Y-91452338D01*
X136239035Y-91445366D01*
X136262748Y-91276639D01*
X136262748Y-91276636D01*
X136263299Y-91272717D01*
X136263616Y-91250000D01*
X136243397Y-91069745D01*
X136235276Y-91046424D01*
X136186064Y-90905106D01*
X136186062Y-90905103D01*
X136183745Y-90898448D01*
X136175086Y-90884590D01*
X136091359Y-90750598D01*
X136087626Y-90744624D01*
X136032667Y-90689280D01*
X135998860Y-90626849D01*
X136004172Y-90556052D01*
X136035181Y-90509251D01*
X136068159Y-90477846D01*
X136068162Y-90477843D01*
X136073266Y-90472982D01*
X136173643Y-90321902D01*
X136238055Y-90152338D01*
X136239035Y-90145366D01*
X136262748Y-89976639D01*
X136262748Y-89976636D01*
X136263299Y-89972717D01*
X136263616Y-89950000D01*
X136243397Y-89769745D01*
X136240088Y-89760243D01*
X136186064Y-89605106D01*
X136186062Y-89605103D01*
X136183745Y-89598448D01*
X136108906Y-89478679D01*
X136091359Y-89450598D01*
X136087626Y-89444624D01*
X136036571Y-89393211D01*
X135964778Y-89320915D01*
X135964774Y-89320912D01*
X135959815Y-89315918D01*
X135948697Y-89308862D01*
X135851214Y-89246998D01*
X135806666Y-89218727D01*
X135777463Y-89208328D01*
X135642425Y-89160243D01*
X135642420Y-89160242D01*
X135635790Y-89157881D01*
X135628802Y-89157048D01*
X135628799Y-89157047D01*
X135474431Y-89138640D01*
X135455680Y-89136404D01*
X135448677Y-89137140D01*
X135448676Y-89137140D01*
X135282288Y-89154628D01*
X135282286Y-89154629D01*
X135275288Y-89155364D01*
X135103579Y-89213818D01*
X134967039Y-89297819D01*
X134901019Y-89316500D01*
X126897338Y-89316500D01*
X126829824Y-89296885D01*
X126751214Y-89246998D01*
X126706666Y-89218727D01*
X126677463Y-89208328D01*
X126542425Y-89160243D01*
X126542420Y-89160242D01*
X126535790Y-89157881D01*
X126528802Y-89157048D01*
X126528799Y-89157047D01*
X126374431Y-89138640D01*
X126355680Y-89136404D01*
X126348677Y-89137140D01*
X126348676Y-89137140D01*
X126182288Y-89154628D01*
X126182286Y-89154629D01*
X126175288Y-89155364D01*
X126003579Y-89213818D01*
X125997575Y-89217512D01*
X125855095Y-89305166D01*
X125855092Y-89305168D01*
X125849088Y-89308862D01*
X125844053Y-89313793D01*
X125844050Y-89313795D01*
X125724525Y-89430843D01*
X125719493Y-89435771D01*
X125621235Y-89588238D01*
X125618826Y-89594858D01*
X125618824Y-89594861D01*
X125588622Y-89677841D01*
X125559197Y-89758685D01*
X125536463Y-89938640D01*
X120082380Y-89938640D01*
X120064778Y-89920915D01*
X120064774Y-89920912D01*
X120059815Y-89915918D01*
X120048697Y-89908862D01*
X119991185Y-89872364D01*
X119906666Y-89818727D01*
X119858784Y-89801677D01*
X119742425Y-89760243D01*
X119742420Y-89760242D01*
X119735790Y-89757881D01*
X119728802Y-89757048D01*
X119728799Y-89757047D01*
X119605698Y-89742368D01*
X119555680Y-89736404D01*
X119548677Y-89737140D01*
X119548676Y-89737140D01*
X119382288Y-89754628D01*
X119382286Y-89754629D01*
X119375288Y-89755364D01*
X119203579Y-89813818D01*
X119197575Y-89817512D01*
X119055095Y-89905166D01*
X119055092Y-89905168D01*
X119049088Y-89908862D01*
X119044053Y-89913793D01*
X119044050Y-89913795D01*
X118924525Y-90030843D01*
X118919493Y-90035771D01*
X118821235Y-90188238D01*
X118818826Y-90194858D01*
X118818824Y-90194861D01*
X118774983Y-90315314D01*
X118759197Y-90358685D01*
X118736463Y-90538640D01*
X100508500Y-90538640D01*
X100508500Y-88088640D01*
X107136463Y-88088640D01*
X107154163Y-88269160D01*
X107211418Y-88441273D01*
X107215065Y-88447295D01*
X107215066Y-88447297D01*
X107299879Y-88587340D01*
X107305380Y-88596424D01*
X107310269Y-88601487D01*
X107310270Y-88601488D01*
X107359376Y-88652338D01*
X107431382Y-88726902D01*
X107583159Y-88826222D01*
X107589763Y-88828678D01*
X107589765Y-88828679D01*
X107746558Y-88886990D01*
X107746560Y-88886990D01*
X107753168Y-88889448D01*
X107836995Y-88900633D01*
X107925980Y-88912507D01*
X107925984Y-88912507D01*
X107932961Y-88913438D01*
X107939972Y-88912800D01*
X107939976Y-88912800D01*
X108082459Y-88899832D01*
X108113600Y-88896998D01*
X108120302Y-88894820D01*
X108120304Y-88894820D01*
X108279409Y-88843124D01*
X108279412Y-88843123D01*
X108286108Y-88840947D01*
X108384469Y-88782312D01*
X108435860Y-88751677D01*
X108435862Y-88751676D01*
X108441912Y-88748069D01*
X108451813Y-88738640D01*
X111836463Y-88738640D01*
X111854163Y-88919160D01*
X111911418Y-89091273D01*
X111915065Y-89097295D01*
X111915066Y-89097297D01*
X112001720Y-89240380D01*
X112005380Y-89246424D01*
X112010269Y-89251487D01*
X112010270Y-89251488D01*
X112068852Y-89312151D01*
X112131382Y-89376902D01*
X112283159Y-89476222D01*
X112289763Y-89478678D01*
X112289765Y-89478679D01*
X112446558Y-89536990D01*
X112446560Y-89536990D01*
X112453168Y-89539448D01*
X112536995Y-89550633D01*
X112625980Y-89562507D01*
X112625984Y-89562507D01*
X112632961Y-89563438D01*
X112639972Y-89562800D01*
X112639976Y-89562800D01*
X112782459Y-89549832D01*
X112813600Y-89546998D01*
X112820302Y-89544820D01*
X112820304Y-89544820D01*
X112979409Y-89493124D01*
X112979412Y-89493123D01*
X112986108Y-89490947D01*
X113141912Y-89398069D01*
X113273266Y-89272982D01*
X113362522Y-89138640D01*
X115336463Y-89138640D01*
X115354163Y-89319160D01*
X115411418Y-89491273D01*
X115415065Y-89497295D01*
X115415066Y-89497297D01*
X115474153Y-89594861D01*
X115505380Y-89646424D01*
X115631382Y-89776902D01*
X115783159Y-89876222D01*
X115789763Y-89878678D01*
X115789765Y-89878679D01*
X115946558Y-89936990D01*
X115946560Y-89936990D01*
X115953168Y-89939448D01*
X116032250Y-89950000D01*
X116125980Y-89962507D01*
X116125984Y-89962507D01*
X116132961Y-89963438D01*
X116139972Y-89962800D01*
X116139976Y-89962800D01*
X116282459Y-89949832D01*
X116313600Y-89946998D01*
X116320302Y-89944820D01*
X116320304Y-89944820D01*
X116479409Y-89893124D01*
X116479412Y-89893123D01*
X116486108Y-89890947D01*
X116609296Y-89817512D01*
X116635860Y-89801677D01*
X116635862Y-89801676D01*
X116641912Y-89798069D01*
X116773266Y-89672982D01*
X116873643Y-89521902D01*
X116922529Y-89393211D01*
X116935555Y-89358920D01*
X116935556Y-89358918D01*
X116938055Y-89352338D01*
X116939035Y-89345366D01*
X116962748Y-89176639D01*
X116962748Y-89176636D01*
X116963299Y-89172717D01*
X116963506Y-89157881D01*
X116963561Y-89153962D01*
X116963561Y-89153957D01*
X116963616Y-89150000D01*
X116943397Y-88969745D01*
X116941080Y-88963091D01*
X116886064Y-88805106D01*
X116886062Y-88805103D01*
X116883745Y-88798448D01*
X116787626Y-88644624D01*
X116768977Y-88625844D01*
X116664778Y-88520915D01*
X116664774Y-88520912D01*
X116659815Y-88515918D01*
X116648697Y-88508862D01*
X116590457Y-88471902D01*
X116506666Y-88418727D01*
X116449716Y-88398448D01*
X116342425Y-88360243D01*
X116342420Y-88360242D01*
X116335790Y-88357881D01*
X116328802Y-88357048D01*
X116328799Y-88357047D01*
X116205698Y-88342368D01*
X116155680Y-88336404D01*
X116148677Y-88337140D01*
X116148676Y-88337140D01*
X115982288Y-88354628D01*
X115982286Y-88354629D01*
X115975288Y-88355364D01*
X115803579Y-88413818D01*
X115797575Y-88417512D01*
X115655095Y-88505166D01*
X115655092Y-88505168D01*
X115649088Y-88508862D01*
X115644053Y-88513793D01*
X115644050Y-88513795D01*
X115529630Y-88625844D01*
X115519493Y-88635771D01*
X115421235Y-88788238D01*
X115418826Y-88794858D01*
X115418824Y-88794861D01*
X115361606Y-88952066D01*
X115359197Y-88958685D01*
X115336463Y-89138640D01*
X113362522Y-89138640D01*
X113373643Y-89121902D01*
X113432989Y-88965675D01*
X113435555Y-88958920D01*
X113435556Y-88958918D01*
X113438055Y-88952338D01*
X113439733Y-88940401D01*
X113462748Y-88776639D01*
X113462748Y-88776636D01*
X113463299Y-88772717D01*
X113463616Y-88750000D01*
X113443397Y-88569745D01*
X113441080Y-88563091D01*
X113386064Y-88405106D01*
X113386062Y-88405103D01*
X113383745Y-88398448D01*
X113356823Y-88355364D01*
X113291359Y-88250598D01*
X113287626Y-88244624D01*
X113265062Y-88221902D01*
X113164778Y-88120915D01*
X113164774Y-88120912D01*
X113159815Y-88115918D01*
X113148697Y-88108862D01*
X113100538Y-88078300D01*
X113006666Y-88018727D01*
X112973494Y-88006915D01*
X112842425Y-87960243D01*
X112842420Y-87960242D01*
X112835790Y-87957881D01*
X112828802Y-87957048D01*
X112828799Y-87957047D01*
X112700001Y-87941689D01*
X112655680Y-87936404D01*
X112648677Y-87937140D01*
X112648676Y-87937140D01*
X112482288Y-87954628D01*
X112482286Y-87954629D01*
X112475288Y-87955364D01*
X112303579Y-88013818D01*
X112241109Y-88052250D01*
X112155095Y-88105166D01*
X112155092Y-88105168D01*
X112149088Y-88108862D01*
X112144053Y-88113793D01*
X112144050Y-88113795D01*
X112024525Y-88230843D01*
X112019493Y-88235771D01*
X111921235Y-88388238D01*
X111918826Y-88394858D01*
X111918824Y-88394861D01*
X111879946Y-88501677D01*
X111859197Y-88558685D01*
X111836463Y-88738640D01*
X108451813Y-88738640D01*
X108573266Y-88622982D01*
X108673643Y-88471902D01*
X108719214Y-88351938D01*
X108735555Y-88308920D01*
X108735556Y-88308918D01*
X108738055Y-88302338D01*
X108741652Y-88276744D01*
X108762748Y-88126639D01*
X108762748Y-88126636D01*
X108763299Y-88122717D01*
X108763616Y-88100000D01*
X108743397Y-87919745D01*
X108741080Y-87913091D01*
X108715154Y-87838640D01*
X120436463Y-87838640D01*
X120454163Y-88019160D01*
X120511418Y-88191273D01*
X120515065Y-88197295D01*
X120515066Y-88197297D01*
X120599817Y-88337238D01*
X120605380Y-88346424D01*
X120610269Y-88351487D01*
X120610270Y-88351488D01*
X120649845Y-88392469D01*
X120731382Y-88476902D01*
X120791005Y-88515918D01*
X120863093Y-88563091D01*
X120883159Y-88576222D01*
X120889763Y-88578678D01*
X120889765Y-88578679D01*
X121046558Y-88636990D01*
X121046560Y-88636990D01*
X121053168Y-88639448D01*
X121136732Y-88650598D01*
X121225980Y-88662507D01*
X121225984Y-88662507D01*
X121232961Y-88663438D01*
X121239972Y-88662800D01*
X121239976Y-88662800D01*
X121382459Y-88649832D01*
X121413600Y-88646998D01*
X121420302Y-88644820D01*
X121420304Y-88644820D01*
X121579409Y-88593124D01*
X121579412Y-88593123D01*
X121586108Y-88590947D01*
X121711970Y-88515918D01*
X121735860Y-88501677D01*
X121735862Y-88501676D01*
X121741912Y-88498069D01*
X121873266Y-88372982D01*
X121911217Y-88315861D01*
X121965574Y-88270192D01*
X122035994Y-88261160D01*
X122100118Y-88291634D01*
X122137587Y-88351938D01*
X122141170Y-88401382D01*
X122136463Y-88438640D01*
X122154163Y-88619160D01*
X122211418Y-88791273D01*
X122215065Y-88797295D01*
X122215066Y-88797297D01*
X122285017Y-88912800D01*
X122305380Y-88946424D01*
X122310269Y-88951487D01*
X122310270Y-88951488D01*
X122325357Y-88967111D01*
X122431382Y-89076902D01*
X122437278Y-89080760D01*
X122558741Y-89160243D01*
X122583159Y-89176222D01*
X122589763Y-89178678D01*
X122589765Y-89178679D01*
X122746558Y-89236990D01*
X122746560Y-89236990D01*
X122753168Y-89239448D01*
X122836995Y-89250633D01*
X122925980Y-89262507D01*
X122925984Y-89262507D01*
X122932961Y-89263438D01*
X122939972Y-89262800D01*
X122939976Y-89262800D01*
X123082459Y-89249832D01*
X123113600Y-89246998D01*
X123120302Y-89244820D01*
X123120304Y-89244820D01*
X123279409Y-89193124D01*
X123279412Y-89193123D01*
X123286108Y-89190947D01*
X123401932Y-89121902D01*
X123435860Y-89101677D01*
X123435862Y-89101676D01*
X123441912Y-89098069D01*
X123573266Y-88972982D01*
X123673643Y-88821902D01*
X123715423Y-88711917D01*
X123735555Y-88658920D01*
X123735556Y-88658918D01*
X123738055Y-88652338D01*
X123739736Y-88640380D01*
X123762748Y-88476639D01*
X123762748Y-88476636D01*
X123763299Y-88472717D01*
X123763616Y-88450000D01*
X123743397Y-88269745D01*
X123741080Y-88263091D01*
X123686064Y-88105106D01*
X123686062Y-88105103D01*
X123683745Y-88098448D01*
X123633171Y-88017512D01*
X123591359Y-87950598D01*
X123587626Y-87944624D01*
X123582664Y-87939627D01*
X123464778Y-87820915D01*
X123464774Y-87820912D01*
X123459815Y-87815918D01*
X123448697Y-87808862D01*
X123353499Y-87748448D01*
X123306666Y-87718727D01*
X123277463Y-87708328D01*
X123142425Y-87660243D01*
X123142420Y-87660242D01*
X123135790Y-87657881D01*
X123128802Y-87657048D01*
X123128799Y-87657047D01*
X123005698Y-87642368D01*
X122955680Y-87636404D01*
X122948677Y-87637140D01*
X122948676Y-87637140D01*
X122782288Y-87654628D01*
X122782286Y-87654629D01*
X122775288Y-87655364D01*
X122603579Y-87713818D01*
X122597575Y-87717512D01*
X122455095Y-87805166D01*
X122455092Y-87805168D01*
X122449088Y-87808862D01*
X122444053Y-87813793D01*
X122444050Y-87813795D01*
X122353911Y-87902066D01*
X122319493Y-87935771D01*
X122315680Y-87941688D01*
X122315679Y-87941689D01*
X122290956Y-87980052D01*
X122237241Y-88026476D01*
X122166954Y-88036490D01*
X122102411Y-88006915D01*
X122064104Y-87947140D01*
X122060271Y-87894261D01*
X122063299Y-87872717D01*
X122063616Y-87850000D01*
X122043397Y-87669745D01*
X122040088Y-87660243D01*
X121986064Y-87505106D01*
X121986062Y-87505103D01*
X121983745Y-87498448D01*
X121956700Y-87455166D01*
X121891359Y-87350598D01*
X121887626Y-87344624D01*
X121851139Y-87307881D01*
X121764778Y-87220915D01*
X121764774Y-87220912D01*
X121759815Y-87215918D01*
X121748697Y-87208862D01*
X121700538Y-87178300D01*
X121606666Y-87118727D01*
X121577463Y-87108328D01*
X121442425Y-87060243D01*
X121442420Y-87060242D01*
X121435790Y-87057881D01*
X121428802Y-87057048D01*
X121428799Y-87057047D01*
X121305698Y-87042368D01*
X121255680Y-87036404D01*
X121248677Y-87037140D01*
X121248676Y-87037140D01*
X121082288Y-87054628D01*
X121082286Y-87054629D01*
X121075288Y-87055364D01*
X120903579Y-87113818D01*
X120897575Y-87117512D01*
X120755095Y-87205166D01*
X120755092Y-87205168D01*
X120749088Y-87208862D01*
X120744053Y-87213793D01*
X120744050Y-87213795D01*
X120647973Y-87307881D01*
X120619493Y-87335771D01*
X120521235Y-87488238D01*
X120518826Y-87494858D01*
X120518824Y-87494861D01*
X120484332Y-87589627D01*
X120459197Y-87658685D01*
X120436463Y-87838640D01*
X108715154Y-87838640D01*
X108686064Y-87755106D01*
X108686062Y-87755103D01*
X108683745Y-87748448D01*
X108587626Y-87594624D01*
X108573941Y-87580843D01*
X108464778Y-87470915D01*
X108464774Y-87470912D01*
X108459815Y-87465918D01*
X108448697Y-87458862D01*
X108400538Y-87428300D01*
X108306666Y-87368727D01*
X108238977Y-87344624D01*
X108142425Y-87310243D01*
X108142420Y-87310242D01*
X108135790Y-87307881D01*
X108128802Y-87307048D01*
X108128799Y-87307047D01*
X108005698Y-87292368D01*
X107955680Y-87286404D01*
X107948677Y-87287140D01*
X107948676Y-87287140D01*
X107782288Y-87304628D01*
X107782286Y-87304629D01*
X107775288Y-87305364D01*
X107603579Y-87363818D01*
X107597575Y-87367512D01*
X107455095Y-87455166D01*
X107455092Y-87455168D01*
X107449088Y-87458862D01*
X107444053Y-87463793D01*
X107444050Y-87463795D01*
X107412327Y-87494861D01*
X107319493Y-87585771D01*
X107221235Y-87738238D01*
X107218826Y-87744858D01*
X107218824Y-87744861D01*
X107172288Y-87872717D01*
X107159197Y-87908685D01*
X107136463Y-88088640D01*
X100508500Y-88088640D01*
X100508500Y-86086423D01*
X101278703Y-86086423D01*
X101286227Y-86096854D01*
X101425483Y-86209020D01*
X101431657Y-86213408D01*
X101702271Y-86382178D01*
X101708931Y-86385794D01*
X101997852Y-86520827D01*
X102004905Y-86523620D01*
X102307970Y-86622970D01*
X102315282Y-86624888D01*
X102628092Y-86687109D01*
X102635590Y-86688137D01*
X102953610Y-86712328D01*
X102961173Y-86712446D01*
X103279785Y-86698257D01*
X103287326Y-86697465D01*
X103601924Y-86645101D01*
X103609302Y-86643411D01*
X103915355Y-86553625D01*
X103922450Y-86551071D01*
X104215496Y-86425169D01*
X104222263Y-86421765D01*
X104498042Y-86261580D01*
X104504349Y-86257390D01*
X104714305Y-86098889D01*
X104722761Y-86087496D01*
X104722172Y-86086423D01*
X134278703Y-86086423D01*
X134286227Y-86096854D01*
X134425483Y-86209020D01*
X134431657Y-86213408D01*
X134702271Y-86382178D01*
X134708931Y-86385794D01*
X134997852Y-86520827D01*
X135004905Y-86523620D01*
X135307970Y-86622970D01*
X135315282Y-86624888D01*
X135628092Y-86687109D01*
X135635590Y-86688137D01*
X135953610Y-86712328D01*
X135961173Y-86712446D01*
X136279785Y-86698257D01*
X136287326Y-86697465D01*
X136601924Y-86645101D01*
X136609302Y-86643411D01*
X136915355Y-86553625D01*
X136922450Y-86551071D01*
X137215496Y-86425169D01*
X137222263Y-86421765D01*
X137498042Y-86261580D01*
X137504349Y-86257390D01*
X137714305Y-86098889D01*
X137722761Y-86087496D01*
X137716045Y-86075256D01*
X136012810Y-84372020D01*
X135998869Y-84364408D01*
X135997034Y-84364539D01*
X135990420Y-84368790D01*
X134285818Y-86073393D01*
X134278703Y-86086423D01*
X104722172Y-86086423D01*
X104716045Y-86075256D01*
X103012810Y-84372020D01*
X102998869Y-84364408D01*
X102997034Y-84364539D01*
X102990420Y-84368790D01*
X101285818Y-86073393D01*
X101278703Y-86086423D01*
X100508500Y-86086423D01*
X100508500Y-85568320D01*
X100528502Y-85500199D01*
X100582158Y-85453706D01*
X100652432Y-85443602D01*
X100717012Y-85473096D01*
X100743120Y-85504463D01*
X100746296Y-85509866D01*
X100750519Y-85516150D01*
X100901463Y-85713934D01*
X100912989Y-85722396D01*
X100925054Y-85715735D01*
X102627980Y-84012810D01*
X102634357Y-84001131D01*
X103364408Y-84001131D01*
X103364539Y-84002966D01*
X103368790Y-84009580D01*
X105073285Y-85714074D01*
X105086408Y-85721240D01*
X105096709Y-85713851D01*
X105200751Y-85586055D01*
X105205164Y-85579914D01*
X105375349Y-85310187D01*
X105379005Y-85303536D01*
X105515544Y-85015335D01*
X105518375Y-85008295D01*
X105619306Y-84705767D01*
X105621270Y-84698433D01*
X105685122Y-84385989D01*
X105686194Y-84378465D01*
X105712173Y-84059051D01*
X105712378Y-84054576D01*
X105712927Y-84002221D01*
X105712817Y-83997789D01*
X105693529Y-83677853D01*
X105692621Y-83670351D01*
X105650303Y-83438640D01*
X105936463Y-83438640D01*
X105954163Y-83619160D01*
X106011418Y-83791273D01*
X106015065Y-83797295D01*
X106015066Y-83797297D01*
X106025978Y-83815314D01*
X106105380Y-83946424D01*
X106110269Y-83951487D01*
X106110270Y-83951488D01*
X106147867Y-83990420D01*
X106231382Y-84076902D01*
X106383159Y-84176222D01*
X106389763Y-84178678D01*
X106389765Y-84178679D01*
X106546558Y-84236990D01*
X106546560Y-84236990D01*
X106553168Y-84239448D01*
X106636995Y-84250633D01*
X106725980Y-84262507D01*
X106725984Y-84262507D01*
X106732961Y-84263438D01*
X106739972Y-84262800D01*
X106739976Y-84262800D01*
X106882459Y-84249832D01*
X106913600Y-84246998D01*
X106920302Y-84244820D01*
X106920304Y-84244820D01*
X107079409Y-84193124D01*
X107079412Y-84193123D01*
X107086108Y-84190947D01*
X107241912Y-84098069D01*
X107370745Y-83975383D01*
X133287388Y-83975383D01*
X133303245Y-84293914D01*
X133304076Y-84301443D01*
X133358085Y-84615759D01*
X133359818Y-84623146D01*
X133451196Y-84928695D01*
X133453799Y-84935808D01*
X133581227Y-85228173D01*
X133584669Y-85234929D01*
X133746296Y-85509865D01*
X133750519Y-85516150D01*
X133901463Y-85713934D01*
X133912989Y-85722396D01*
X133925054Y-85715735D01*
X135627980Y-84012810D01*
X135635592Y-83998869D01*
X135635461Y-83997034D01*
X135631210Y-83990420D01*
X133926445Y-82285656D01*
X133913510Y-82278592D01*
X133902949Y-82286252D01*
X133782766Y-82437072D01*
X133778410Y-82443270D01*
X133611059Y-82714764D01*
X133607479Y-82721440D01*
X133473956Y-83011074D01*
X133471206Y-83018125D01*
X133373444Y-83321708D01*
X133371561Y-83329041D01*
X133310979Y-83642170D01*
X133309992Y-83649670D01*
X133287467Y-83967802D01*
X133287388Y-83975383D01*
X107370745Y-83975383D01*
X107373266Y-83972982D01*
X107473643Y-83821902D01*
X107528363Y-83677853D01*
X107535555Y-83658920D01*
X107535556Y-83658918D01*
X107538055Y-83652338D01*
X107539484Y-83642170D01*
X107562748Y-83476639D01*
X107562748Y-83476636D01*
X107563299Y-83472717D01*
X107563616Y-83450000D01*
X107543397Y-83269745D01*
X107541080Y-83263091D01*
X107486064Y-83105106D01*
X107486062Y-83105103D01*
X107483745Y-83098448D01*
X107387626Y-82944624D01*
X107373941Y-82930843D01*
X107264778Y-82820915D01*
X107264774Y-82820912D01*
X107259815Y-82815918D01*
X107248697Y-82808862D01*
X107200538Y-82778300D01*
X107106666Y-82718727D01*
X107077463Y-82708328D01*
X106942425Y-82660243D01*
X106942420Y-82660242D01*
X106935790Y-82657881D01*
X106928802Y-82657048D01*
X106928799Y-82657047D01*
X106805698Y-82642368D01*
X106755680Y-82636404D01*
X106748677Y-82637140D01*
X106748676Y-82637140D01*
X106582288Y-82654628D01*
X106582286Y-82654629D01*
X106575288Y-82655364D01*
X106403579Y-82713818D01*
X106397575Y-82717512D01*
X106255095Y-82805166D01*
X106255092Y-82805168D01*
X106249088Y-82808862D01*
X106244053Y-82813793D01*
X106244050Y-82813795D01*
X106124525Y-82930843D01*
X106119493Y-82935771D01*
X106021235Y-83088238D01*
X106018826Y-83094858D01*
X106018824Y-83094861D01*
X105961606Y-83252066D01*
X105959197Y-83258685D01*
X105936463Y-83438640D01*
X105650303Y-83438640D01*
X105635319Y-83356593D01*
X105633518Y-83349260D01*
X105538935Y-83044655D01*
X105536263Y-83037583D01*
X105405781Y-82746570D01*
X105402264Y-82739843D01*
X105237771Y-82466621D01*
X105233481Y-82460377D01*
X105097991Y-82286647D01*
X105086199Y-82278178D01*
X105074486Y-82284725D01*
X103372020Y-83987190D01*
X103364408Y-84001131D01*
X102634357Y-84001131D01*
X102635592Y-83998869D01*
X102635461Y-83997034D01*
X102631210Y-83990420D01*
X100926445Y-82285656D01*
X100913510Y-82278592D01*
X100902949Y-82286252D01*
X100782766Y-82437072D01*
X100778410Y-82443270D01*
X100741760Y-82502727D01*
X100688988Y-82550220D01*
X100618916Y-82561644D01*
X100553792Y-82533370D01*
X100514293Y-82474376D01*
X100508500Y-82436611D01*
X100508500Y-81634500D01*
X100528502Y-81566379D01*
X100582158Y-81519886D01*
X100634500Y-81508500D01*
X101433175Y-81508500D01*
X101501296Y-81528502D01*
G37*
%TD.AperFunction*%
%TD*%
M02*
