%TF.GenerationSoftware,KiCad,Pcbnew,(6.0.4-0)*%
%TF.CreationDate,2022-09-14T13:57:10-06:00*%
%TF.ProjectId,sq_lockin_v8,73715f6c-6f63-46b6-996e-5f76382e6b69,rev?*%
%TF.SameCoordinates,Original*%
%TF.FileFunction,Legend,Bot*%
%TF.FilePolarity,Positive*%
%FSLAX46Y46*%
G04 Gerber Fmt 4.6, Leading zero omitted, Abs format (unit mm)*
G04 Created by KiCad (PCBNEW (6.0.4-0)) date 2022-09-14 13:57:10*
%MOMM*%
%LPD*%
G01*
G04 APERTURE LIST*
G04 Aperture macros list*
%AMRoundRect*
0 Rectangle with rounded corners*
0 $1 Rounding radius*
0 $2 $3 $4 $5 $6 $7 $8 $9 X,Y pos of 4 corners*
0 Add a 4 corners polygon primitive as box body*
4,1,4,$2,$3,$4,$5,$6,$7,$8,$9,$2,$3,0*
0 Add four circle primitives for the rounded corners*
1,1,$1+$1,$2,$3*
1,1,$1+$1,$4,$5*
1,1,$1+$1,$6,$7*
1,1,$1+$1,$8,$9*
0 Add four rect primitives between the rounded corners*
20,1,$1+$1,$2,$3,$4,$5,0*
20,1,$1+$1,$4,$5,$6,$7,0*
20,1,$1+$1,$6,$7,$8,$9,0*
20,1,$1+$1,$8,$9,$2,$3,0*%
G04 Aperture macros list end*
%ADD10O,1.102000X1.802000*%
%ADD11RoundRect,0.301000X-0.350000X-0.625000X0.350000X-0.625000X0.350000X0.625000X-0.350000X0.625000X0*%
%ADD12O,1.302000X1.852000*%
%ADD13RoundRect,0.051000X0.850000X-0.850000X0.850000X0.850000X-0.850000X0.850000X-0.850000X-0.850000X0*%
%ADD14O,1.802000X1.802000*%
%ADD15RoundRect,0.051000X-0.850000X-0.850000X0.850000X-0.850000X0.850000X0.850000X-0.850000X0.850000X0*%
%ADD16RoundRect,0.051000X0.850000X0.850000X-0.850000X0.850000X-0.850000X-0.850000X0.850000X-0.850000X0*%
%ADD17RoundRect,0.051000X-1.125000X0.875000X-1.125000X-0.875000X1.125000X-0.875000X1.125000X0.875000X0*%
%ADD18O,2.352000X1.852000*%
%ADD19C,6.502000*%
%ADD20O,5.102000X1.602000*%
G04 APERTURE END LIST*
%LPC*%
D10*
%TO.C,J9*%
X195835000Y-117405000D03*
X204475000Y-117405000D03*
X204475000Y-113605000D03*
X195835000Y-113605000D03*
%TD*%
D11*
%TO.C,J11*%
X212800000Y-113950000D03*
D12*
X214800000Y-113950000D03*
%TD*%
D11*
%TO.C,J10*%
X220500000Y-113950000D03*
D12*
X222500000Y-113950000D03*
%TD*%
D13*
%TO.C,J4*%
X131000000Y-93600000D03*
D14*
X133540000Y-93600000D03*
%TD*%
D11*
%TO.C,J5*%
X179200000Y-72500000D03*
D12*
X181200000Y-72500000D03*
%TD*%
D13*
%TO.C,J6*%
X131000000Y-98000000D03*
D14*
X133540000Y-98000000D03*
%TD*%
D15*
%TO.C,J2*%
X120100000Y-93425000D03*
D14*
X120100000Y-95965000D03*
%TD*%
D16*
%TO.C,J3*%
X124000000Y-96000000D03*
D14*
X124000000Y-93460000D03*
%TD*%
D17*
%TO.C,PS2*%
X216900000Y-59160000D03*
D18*
X216900000Y-61700000D03*
X216900000Y-64240000D03*
X216900000Y-66780000D03*
%TD*%
D19*
%TO.C,H2*%
X114000000Y-54000000D03*
%TD*%
D20*
%TO.C,U5*%
X201910000Y-79280000D03*
X201910000Y-81820000D03*
X201910000Y-84360000D03*
X201910000Y-86900000D03*
X201910000Y-89440000D03*
X201910000Y-91980000D03*
X201910000Y-94520000D03*
X219690000Y-94520000D03*
X219690000Y-91980000D03*
X219690000Y-89440000D03*
X219690000Y-86900000D03*
X219690000Y-84360000D03*
X219690000Y-81820000D03*
X219690000Y-79280000D03*
%TD*%
D17*
%TO.C,PS1*%
X193757500Y-59092500D03*
D18*
X193757500Y-61632500D03*
X193757500Y-64172500D03*
X193757500Y-66712500D03*
%TD*%
D19*
%TO.C,H4*%
X114000000Y-116000000D03*
%TD*%
%TO.C,H1*%
X231000000Y-116000000D03*
%TD*%
%TO.C,H3*%
X231000000Y-54000000D03*
%TD*%
M02*
