%TF.GenerationSoftware,KiCad,Pcbnew,(6.0.4-0)*%
%TF.CreationDate,2023-04-18T14:03:14-06:00*%
%TF.ProjectId,sq_lockin_v8,73715f6c-6f63-46b6-996e-5f76382e6b69,rev?*%
%TF.SameCoordinates,Original*%
%TF.FileFunction,Soldermask,Top*%
%TF.FilePolarity,Negative*%
%FSLAX46Y46*%
G04 Gerber Fmt 4.6, Leading zero omitted, Abs format (unit mm)*
G04 Created by KiCad (PCBNEW (6.0.4-0)) date 2023-04-18 14:03:14*
%MOMM*%
%LPD*%
G01*
G04 APERTURE LIST*
G04 Aperture macros list*
%AMRoundRect*
0 Rectangle with rounded corners*
0 $1 Rounding radius*
0 $2 $3 $4 $5 $6 $7 $8 $9 X,Y pos of 4 corners*
0 Add a 4 corners polygon primitive as box body*
4,1,4,$2,$3,$4,$5,$6,$7,$8,$9,$2,$3,0*
0 Add four circle primitives for the rounded corners*
1,1,$1+$1,$2,$3*
1,1,$1+$1,$4,$5*
1,1,$1+$1,$6,$7*
1,1,$1+$1,$8,$9*
0 Add four rect primitives between the rounded corners*
20,1,$1+$1,$2,$3,$4,$5,0*
20,1,$1+$1,$4,$5,$6,$7,0*
20,1,$1+$1,$6,$7,$8,$9,0*
20,1,$1+$1,$8,$9,$2,$3,0*%
%AMFreePoly0*
4,1,37,0.536062,0.786062,0.551000,0.750000,0.551000,-0.750000,0.536062,-0.786062,0.500000,-0.801000,0.000000,-0.801000,-0.012525,-0.795812,-0.080875,-0.794559,-0.095149,-0.792248,-0.230464,-0.749973,-0.243516,-0.743747,-0.361526,-0.665192,-0.372306,-0.655554,-0.463526,-0.547035,-0.471167,-0.534759,-0.528262,-0.405000,-0.532150,-0.391073,-0.549733,-0.256613,-0.548336,-0.256430,-0.551000,-0.250000,
-0.551000,0.250000,-0.550512,0.251179,-0.550356,0.263956,-0.528545,0.404033,-0.524317,0.417860,-0.464069,0.546185,-0.456130,0.558271,-0.362286,0.664529,-0.351274,0.673901,-0.231379,0.749549,-0.218180,0.755454,-0.081873,0.794411,-0.067546,0.796373,-0.011990,0.796033,0.000000,0.801000,0.500000,0.801000,0.536062,0.786062,0.536062,0.786062,$1*%
%AMFreePoly1*
4,1,37,0.012349,0.795885,0.074216,0.795507,0.088518,0.793370,0.224339,0.752751,0.237465,0.746685,0.356427,0.669578,0.367324,0.660073,0.459862,0.552676,0.467652,0.540494,0.526329,0.411442,0.530388,0.397563,0.550485,0.257230,0.551000,0.250000,0.551000,-0.250000,0.550996,-0.250622,0.550847,-0.262838,0.550144,-0.270677,0.526624,-0.410478,0.522228,-0.424254,0.460416,-0.551833,
0.452330,-0.563821,0.357195,-0.668925,0.346069,-0.678161,0.225259,-0.752338,0.211989,-0.758081,0.075216,-0.795370,0.060866,-0.797157,0.011464,-0.796251,0.000000,-0.801000,-0.500000,-0.801000,-0.536062,-0.786062,-0.551000,-0.750000,-0.551000,0.750000,-0.536062,0.786062,-0.500000,0.801000,0.000000,0.801000,0.012349,0.795885,0.012349,0.795885,$1*%
G04 Aperture macros list end*
%ADD10RoundRect,0.191000X0.140000X0.170000X-0.140000X0.170000X-0.140000X-0.170000X0.140000X-0.170000X0*%
%ADD11RoundRect,0.288500X0.250000X0.237500X-0.250000X0.237500X-0.250000X-0.237500X0.250000X-0.237500X0*%
%ADD12RoundRect,0.211000X0.160000X-0.197500X0.160000X0.197500X-0.160000X0.197500X-0.160000X-0.197500X0*%
%ADD13RoundRect,0.211000X-0.160000X0.197500X-0.160000X-0.197500X0.160000X-0.197500X0.160000X0.197500X0*%
%ADD14RoundRect,0.206000X0.155000X-0.212500X0.155000X0.212500X-0.155000X0.212500X-0.155000X-0.212500X0*%
%ADD15RoundRect,0.206000X-0.212500X-0.155000X0.212500X-0.155000X0.212500X0.155000X-0.212500X0.155000X0*%
%ADD16RoundRect,0.288500X0.237500X-0.250000X0.237500X0.250000X-0.237500X0.250000X-0.237500X-0.250000X0*%
%ADD17RoundRect,0.288500X-0.237500X0.250000X-0.237500X-0.250000X0.237500X-0.250000X0.237500X0.250000X0*%
%ADD18FreePoly0,180.000000*%
%ADD19FreePoly1,180.000000*%
%ADD20RoundRect,0.301000X0.412500X1.100000X-0.412500X1.100000X-0.412500X-1.100000X0.412500X-1.100000X0*%
%ADD21RoundRect,0.301000X-1.100000X0.412500X-1.100000X-0.412500X1.100000X-0.412500X1.100000X0.412500X0*%
%ADD22RoundRect,0.301001X0.624999X-0.462499X0.624999X0.462499X-0.624999X0.462499X-0.624999X-0.462499X0*%
%ADD23RoundRect,0.301000X-0.450000X0.325000X-0.450000X-0.325000X0.450000X-0.325000X0.450000X0.325000X0*%
%ADD24RoundRect,0.288500X-0.237500X0.287500X-0.237500X-0.287500X0.237500X-0.287500X0.237500X0.287500X0*%
%ADD25RoundRect,0.051000X0.850000X-0.850000X0.850000X0.850000X-0.850000X0.850000X-0.850000X-0.850000X0*%
%ADD26O,1.802000X1.802000*%
%ADD27RoundRect,0.288500X0.237500X-0.300000X0.237500X0.300000X-0.237500X0.300000X-0.237500X-0.300000X0*%
%ADD28RoundRect,0.051000X0.530000X0.325000X-0.530000X0.325000X-0.530000X-0.325000X0.530000X-0.325000X0*%
%ADD29RoundRect,0.301000X-0.350000X-0.625000X0.350000X-0.625000X0.350000X0.625000X-0.350000X0.625000X0*%
%ADD30O,1.302000X1.852000*%
%ADD31RoundRect,0.288500X0.237500X-0.287500X0.237500X0.287500X-0.237500X0.287500X-0.237500X-0.287500X0*%
%ADD32RoundRect,0.051000X0.400000X-0.450000X0.400000X0.450000X-0.400000X0.450000X-0.400000X-0.450000X0*%
%ADD33RoundRect,0.288500X-0.237500X0.300000X-0.237500X-0.300000X0.237500X-0.300000X0.237500X0.300000X0*%
%ADD34RoundRect,0.201000X-0.675000X-0.150000X0.675000X-0.150000X0.675000X0.150000X-0.675000X0.150000X0*%
%ADD35RoundRect,0.051000X-0.850000X-0.850000X0.850000X-0.850000X0.850000X0.850000X-0.850000X0.850000X0*%
%ADD36RoundRect,0.051000X0.850000X0.850000X-0.850000X0.850000X-0.850000X-0.850000X0.850000X-0.850000X0*%
%ADD37RoundRect,0.288500X-0.300000X-0.237500X0.300000X-0.237500X0.300000X0.237500X-0.300000X0.237500X0*%
%ADD38RoundRect,0.288500X0.300000X0.237500X-0.300000X0.237500X-0.300000X-0.237500X0.300000X-0.237500X0*%
%ADD39RoundRect,0.201000X-0.825000X-0.150000X0.825000X-0.150000X0.825000X0.150000X-0.825000X0.150000X0*%
%ADD40RoundRect,0.051000X-0.300000X-0.225000X0.300000X-0.225000X0.300000X0.225000X-0.300000X0.225000X0*%
%ADD41RoundRect,0.201000X-0.150000X0.825000X-0.150000X-0.825000X0.150000X-0.825000X0.150000X0.825000X0*%
%ADD42RoundRect,0.051000X-0.325000X0.530000X-0.325000X-0.530000X0.325000X-0.530000X0.325000X0.530000X0*%
%ADD43RoundRect,0.301001X-0.462499X-1.074999X0.462499X-1.074999X0.462499X1.074999X-0.462499X1.074999X0*%
%ADD44RoundRect,0.301000X0.650000X-0.412500X0.650000X0.412500X-0.650000X0.412500X-0.650000X-0.412500X0*%
%ADD45RoundRect,0.051000X0.500000X-0.525000X0.500000X0.525000X-0.500000X0.525000X-0.500000X-0.525000X0*%
%ADD46RoundRect,0.051000X0.525000X-1.100000X0.525000X1.100000X-0.525000X1.100000X-0.525000X-1.100000X0*%
%ADD47RoundRect,0.288500X-0.250000X-0.237500X0.250000X-0.237500X0.250000X0.237500X-0.250000X0.237500X0*%
%ADD48RoundRect,0.051000X-1.125000X0.875000X-1.125000X-0.875000X1.125000X-0.875000X1.125000X0.875000X0*%
%ADD49O,2.352000X1.852000*%
%ADD50RoundRect,0.051000X0.300000X0.225000X-0.300000X0.225000X-0.300000X-0.225000X0.300000X-0.225000X0*%
%ADD51C,6.502000*%
%ADD52RoundRect,0.201000X0.625000X-0.150000X0.625000X0.150000X-0.625000X0.150000X-0.625000X-0.150000X0*%
%ADD53RoundRect,0.301000X0.650000X-0.350000X0.650000X0.350000X-0.650000X0.350000X-0.650000X-0.350000X0*%
%ADD54O,5.102000X1.602000*%
%ADD55RoundRect,0.201000X-0.512500X-0.150000X0.512500X-0.150000X0.512500X0.150000X-0.512500X0.150000X0*%
%ADD56RoundRect,0.201000X-0.625000X0.150000X-0.625000X-0.150000X0.625000X-0.150000X0.625000X0.150000X0*%
%ADD57RoundRect,0.301000X-0.650000X0.350000X-0.650000X-0.350000X0.650000X-0.350000X0.650000X0.350000X0*%
%ADD58RoundRect,0.051000X-0.500000X0.525000X-0.500000X-0.525000X0.500000X-0.525000X0.500000X0.525000X0*%
%ADD59RoundRect,0.051000X-0.525000X1.100000X-0.525000X-1.100000X0.525000X-1.100000X0.525000X1.100000X0*%
%ADD60RoundRect,0.051000X-0.150000X0.700000X-0.150000X-0.700000X0.150000X-0.700000X0.150000X0.700000X0*%
%ADD61RoundRect,0.051000X-0.200000X0.325000X-0.200000X-0.325000X0.200000X-0.325000X0.200000X0.325000X0*%
%ADD62RoundRect,0.051000X-0.225000X0.300000X-0.225000X-0.300000X0.225000X-0.300000X0.225000X0.300000X0*%
%ADD63RoundRect,0.301000X-0.412500X-1.100000X0.412500X-1.100000X0.412500X1.100000X-0.412500X1.100000X0*%
%ADD64RoundRect,0.201000X-0.587500X-0.150000X0.587500X-0.150000X0.587500X0.150000X-0.587500X0.150000X0*%
%ADD65RoundRect,0.201000X0.825000X0.150000X-0.825000X0.150000X-0.825000X-0.150000X0.825000X-0.150000X0*%
%ADD66RoundRect,0.301000X0.412500X0.650000X-0.412500X0.650000X-0.412500X-0.650000X0.412500X-0.650000X0*%
%ADD67RoundRect,0.051000X-0.750000X1.000000X-0.750000X-1.000000X0.750000X-1.000000X0.750000X1.000000X0*%
%ADD68RoundRect,0.051000X-1.900000X1.000000X-1.900000X-1.000000X1.900000X-1.000000X1.900000X1.000000X0*%
%ADD69RoundRect,0.051000X0.150000X-0.700000X0.150000X0.700000X-0.150000X0.700000X-0.150000X-0.700000X0*%
%ADD70O,1.102000X1.802000*%
%ADD71RoundRect,0.051000X-0.400000X-0.800000X0.400000X-0.800000X0.400000X0.800000X-0.400000X0.800000X0*%
%ADD72RoundRect,0.051000X-0.450000X-0.800000X0.450000X-0.800000X0.450000X0.800000X-0.450000X0.800000X0*%
%ADD73RoundRect,0.051000X0.225000X-0.300000X0.225000X0.300000X-0.225000X0.300000X-0.225000X-0.300000X0*%
%ADD74RoundRect,0.051000X0.525000X0.500000X-0.525000X0.500000X-0.525000X-0.500000X0.525000X-0.500000X0*%
%ADD75RoundRect,0.051000X1.100000X0.525000X-1.100000X0.525000X-1.100000X-0.525000X1.100000X-0.525000X0*%
G04 APERTURE END LIST*
D10*
%TO.C,C21*%
X152980000Y-96800000D03*
X152020000Y-96800000D03*
%TD*%
D11*
%TO.C,R18*%
X172112500Y-100690000D03*
X170287500Y-100690000D03*
%TD*%
%TO.C,R17*%
X172112500Y-98790000D03*
X170287500Y-98790000D03*
%TD*%
%TO.C,R16*%
X166137500Y-83760000D03*
X164312500Y-83760000D03*
%TD*%
%TO.C,R15*%
X166137500Y-81860000D03*
X164312500Y-81860000D03*
%TD*%
D12*
%TO.C,R14*%
X153100000Y-99297500D03*
X153100000Y-98102500D03*
%TD*%
D13*
%TO.C,R13*%
X151900000Y-98102500D03*
X151900000Y-99297500D03*
%TD*%
D14*
%TO.C,C14*%
X146000000Y-101567500D03*
X146000000Y-100432500D03*
%TD*%
D15*
%TO.C,C13*%
X146732500Y-86300000D03*
X147867500Y-86300000D03*
%TD*%
%TO.C,C12*%
X145732500Y-87500000D03*
X146867500Y-87500000D03*
%TD*%
D16*
%TO.C,R12*%
X152200000Y-102825000D03*
X152200000Y-101000000D03*
%TD*%
D17*
%TO.C,R11*%
X153900000Y-100987500D03*
X153900000Y-102812500D03*
%TD*%
D18*
%TO.C,JP1*%
X153850000Y-108500000D03*
D19*
X152550000Y-108500000D03*
%TD*%
D20*
%TO.C,C20*%
X159262500Y-108900000D03*
X156137500Y-108900000D03*
%TD*%
D21*
%TO.C,C19*%
X156400000Y-101137500D03*
X156400000Y-104262500D03*
%TD*%
D22*
%TO.C,R1*%
X137200000Y-79300000D03*
X137200000Y-76325000D03*
%TD*%
%TO.C,R5*%
X130900000Y-82600000D03*
X130900000Y-79625000D03*
%TD*%
%TO.C,R4*%
X137100000Y-93400000D03*
X137100000Y-90425000D03*
%TD*%
D23*
%TO.C,R2*%
X137175000Y-81675000D03*
X137175000Y-83725000D03*
%TD*%
D24*
%TO.C,R6*%
X131000000Y-88750000D03*
X131000000Y-90500000D03*
%TD*%
D25*
%TO.C,J4*%
X131000000Y-93600000D03*
D26*
X133540000Y-93600000D03*
%TD*%
D27*
%TO.C,C2*%
X161700000Y-72887500D03*
X161700000Y-71162500D03*
%TD*%
%TO.C,C3*%
X155900000Y-72987500D03*
X155900000Y-71262500D03*
%TD*%
D28*
%TO.C,U2*%
X160000000Y-72050000D03*
X160000000Y-71100000D03*
X160000000Y-70150000D03*
X157800000Y-70150000D03*
X157800000Y-72050000D03*
%TD*%
D29*
%TO.C,J5*%
X179200000Y-72500000D03*
D30*
X181200000Y-72500000D03*
%TD*%
D31*
%TO.C,R7*%
X131000000Y-86675000D03*
X131000000Y-84925000D03*
%TD*%
D23*
%TO.C,R3*%
X137200000Y-85650000D03*
X137200000Y-87700000D03*
%TD*%
D25*
%TO.C,J6*%
X131000000Y-98000000D03*
D26*
X133540000Y-98000000D03*
%TD*%
D27*
%TO.C,C4*%
X141300000Y-74287500D03*
X141300000Y-72562500D03*
%TD*%
%TO.C,C6*%
X147000000Y-74387500D03*
X147000000Y-72662500D03*
%TD*%
D24*
%TO.C,R8*%
X128000000Y-88250000D03*
X128000000Y-90000000D03*
%TD*%
D32*
%TO.C,U3*%
X143320000Y-74475000D03*
X145220000Y-74475000D03*
X144270000Y-72475000D03*
%TD*%
D27*
%TO.C,C22*%
X168000000Y-83697500D03*
X168000000Y-81972500D03*
%TD*%
%TO.C,C23*%
X167800000Y-79597500D03*
X167800000Y-77872500D03*
%TD*%
D33*
%TO.C,C24*%
X177700000Y-78922500D03*
X177700000Y-80647500D03*
%TD*%
D34*
%TO.C,U15*%
X170125000Y-79675000D03*
X170125000Y-80945000D03*
X170125000Y-82215000D03*
X170125000Y-83485000D03*
X175375000Y-83485000D03*
X175375000Y-82215000D03*
X175375000Y-80945000D03*
X175375000Y-79675000D03*
%TD*%
D27*
%TO.C,C26*%
X173775000Y-96527500D03*
X173775000Y-94802500D03*
%TD*%
%TO.C,C25*%
X173975000Y-100627500D03*
X173975000Y-98902500D03*
%TD*%
D33*
%TO.C,C27*%
X183675000Y-95852500D03*
X183675000Y-97577500D03*
%TD*%
D34*
%TO.C,U16*%
X176100000Y-96605000D03*
X176100000Y-97875000D03*
X176100000Y-99145000D03*
X176100000Y-100415000D03*
X181350000Y-100415000D03*
X181350000Y-99145000D03*
X181350000Y-97875000D03*
X181350000Y-96605000D03*
%TD*%
D35*
%TO.C,J2*%
X120100000Y-93425000D03*
D26*
X120100000Y-95965000D03*
%TD*%
D36*
%TO.C,J3*%
X124000000Y-96000000D03*
D26*
X124000000Y-93460000D03*
%TD*%
D37*
%TO.C,C16*%
X158837500Y-99660000D03*
X160562500Y-99660000D03*
%TD*%
D38*
%TO.C,C17*%
X169962500Y-92500000D03*
X168237500Y-92500000D03*
%TD*%
D24*
%TO.C,R9*%
X160300000Y-95125000D03*
X160300000Y-96875000D03*
%TD*%
D31*
%TO.C,R10*%
X167400000Y-101635000D03*
X167400000Y-99885000D03*
%TD*%
D39*
%TO.C,U13*%
X162425000Y-94155000D03*
X162425000Y-95425000D03*
X162425000Y-96695000D03*
X162425000Y-97965000D03*
X167375000Y-97965000D03*
X167375000Y-96695000D03*
X167375000Y-95425000D03*
X167375000Y-94155000D03*
%TD*%
D37*
%TO.C,C18*%
X163075000Y-103800000D03*
X164800000Y-103800000D03*
%TD*%
D40*
%TO.C,D2*%
X168650000Y-75300000D03*
X170750000Y-75300000D03*
%TD*%
%TO.C,D1*%
X168650000Y-72900000D03*
X170750000Y-72900000D03*
%TD*%
D41*
%TO.C,U11*%
X158605000Y-77885000D03*
X157335000Y-77885000D03*
X156065000Y-77885000D03*
X154795000Y-77885000D03*
X154795000Y-82835000D03*
X156065000Y-82835000D03*
X157335000Y-82835000D03*
X158605000Y-82835000D03*
%TD*%
D27*
%TO.C,C15*%
X160700000Y-82922500D03*
X160700000Y-81197500D03*
%TD*%
D41*
%TO.C,U12*%
X158605000Y-92585000D03*
X157335000Y-92585000D03*
X156065000Y-92585000D03*
X154795000Y-92585000D03*
X154795000Y-97535000D03*
X156065000Y-97535000D03*
X157335000Y-97535000D03*
X158605000Y-97535000D03*
%TD*%
D42*
%TO.C,U14*%
X161100000Y-101450000D03*
X160150000Y-101450000D03*
X159200000Y-101450000D03*
X159200000Y-103650000D03*
X161100000Y-103650000D03*
%TD*%
D43*
%TO.C,L1*%
X200412500Y-61600000D03*
X203387500Y-61600000D03*
%TD*%
D44*
%TO.C,C33*%
X213500000Y-67362500D03*
X213500000Y-64237500D03*
%TD*%
D45*
%TO.C,J7*%
X151600000Y-73350000D03*
D46*
X150125000Y-71825000D03*
X153075000Y-71825000D03*
%TD*%
D47*
%TO.C,R20*%
X169737500Y-60000000D03*
X171562500Y-60000000D03*
%TD*%
D48*
%TO.C,PS2*%
X216900000Y-59160000D03*
D49*
X216900000Y-61700000D03*
X216900000Y-64240000D03*
X216900000Y-66780000D03*
%TD*%
D50*
%TO.C,D6*%
X203450000Y-109200000D03*
X201350000Y-109200000D03*
%TD*%
D51*
%TO.C,H2*%
X114000000Y-54000000D03*
%TD*%
D52*
%TO.C,J8*%
X221800000Y-102200000D03*
X221800000Y-101200000D03*
X221800000Y-100200000D03*
X221800000Y-99200000D03*
D53*
X225675000Y-97900000D03*
X225675000Y-103500000D03*
%TD*%
D54*
%TO.C,U5*%
X201910000Y-79280000D03*
X201910000Y-81820000D03*
X201910000Y-84360000D03*
X201910000Y-86900000D03*
X201910000Y-89440000D03*
X201910000Y-91980000D03*
X201910000Y-94520000D03*
X219690000Y-94520000D03*
X219690000Y-91980000D03*
X219690000Y-89440000D03*
X219690000Y-86900000D03*
X219690000Y-84360000D03*
X219690000Y-81820000D03*
X219690000Y-79280000D03*
%TD*%
D29*
%TO.C,J10*%
X220500000Y-113950000D03*
D30*
X222500000Y-113950000D03*
%TD*%
D38*
%TO.C,C10*%
X189200000Y-89700000D03*
X187475000Y-89700000D03*
%TD*%
D55*
%TO.C,U17*%
X211212500Y-107900000D03*
X211212500Y-108850000D03*
X211212500Y-109800000D03*
X213487500Y-109800000D03*
X213487500Y-107900000D03*
%TD*%
D10*
%TO.C,C1*%
X140180000Y-85000000D03*
X139220000Y-85000000D03*
%TD*%
D56*
%TO.C,J1*%
X115200000Y-85800000D03*
X115200000Y-86800000D03*
X115200000Y-87800000D03*
X115200000Y-88800000D03*
D57*
X111325000Y-90100000D03*
X111325000Y-84500000D03*
%TD*%
D37*
%TO.C,C11*%
X194337500Y-89600000D03*
X196062500Y-89600000D03*
%TD*%
D58*
%TO.C,J12*%
X187100000Y-71650000D03*
D59*
X185625000Y-73175000D03*
X188575000Y-73175000D03*
%TD*%
D60*
%TO.C,U8*%
X144300000Y-87400000D03*
X143800000Y-87400000D03*
X143300000Y-87400000D03*
X142800000Y-87400000D03*
X142300000Y-87400000D03*
X142300000Y-91800000D03*
X142800000Y-91800000D03*
X143300000Y-91800000D03*
X143800000Y-91800000D03*
X144300000Y-91800000D03*
%TD*%
D61*
%TO.C,U1*%
X140850000Y-81850000D03*
X140200000Y-81850000D03*
X139550000Y-81850000D03*
X139550000Y-83750000D03*
X140200000Y-83750000D03*
X140850000Y-83750000D03*
%TD*%
D62*
%TO.C,D7*%
X207000000Y-107950000D03*
X207000000Y-110050000D03*
%TD*%
D39*
%TO.C,U6*%
X210125000Y-100565000D03*
X210125000Y-101835000D03*
X210125000Y-103105000D03*
X210125000Y-104375000D03*
X215075000Y-104375000D03*
X215075000Y-103105000D03*
X215075000Y-101835000D03*
X215075000Y-100565000D03*
%TD*%
D63*
%TO.C,C39*%
X173887500Y-59250000D03*
X177012500Y-59250000D03*
%TD*%
D48*
%TO.C,PS1*%
X193757500Y-59092500D03*
D49*
X193757500Y-61632500D03*
X193757500Y-64172500D03*
X193757500Y-66712500D03*
%TD*%
D37*
%TO.C,C5*%
X188737500Y-102700000D03*
X190462500Y-102700000D03*
%TD*%
D64*
%TO.C,Q1*%
X182965000Y-65757500D03*
X182965000Y-67657500D03*
X184840000Y-66707500D03*
%TD*%
D65*
%TO.C,U4*%
X193975000Y-100745000D03*
X193975000Y-99475000D03*
X193975000Y-98205000D03*
X193975000Y-96935000D03*
X193975000Y-95665000D03*
X193975000Y-94395000D03*
X193975000Y-93125000D03*
X193975000Y-91855000D03*
X189025000Y-91855000D03*
X189025000Y-93125000D03*
X189025000Y-94395000D03*
X189025000Y-95665000D03*
X189025000Y-96935000D03*
X189025000Y-98205000D03*
X189025000Y-99475000D03*
X189025000Y-100745000D03*
%TD*%
D50*
%TO.C,D4*%
X217350000Y-108100000D03*
X215250000Y-108100000D03*
%TD*%
D37*
%TO.C,C7*%
X196637500Y-100900000D03*
X198362500Y-100900000D03*
%TD*%
D51*
%TO.C,H4*%
X114000000Y-116000000D03*
%TD*%
D50*
%TO.C,D5*%
X222150000Y-106800000D03*
X220050000Y-106800000D03*
%TD*%
D33*
%TO.C,C37*%
X209500000Y-64237500D03*
X209500000Y-65962500D03*
%TD*%
D66*
%TO.C,C29*%
X203462500Y-58500000D03*
X200337500Y-58500000D03*
%TD*%
D11*
%TO.C,R19*%
X185015000Y-64107500D03*
X183190000Y-64107500D03*
%TD*%
D63*
%TO.C,C38*%
X183037500Y-60200000D03*
X186162500Y-60200000D03*
%TD*%
D67*
%TO.C,Q2*%
X171750000Y-63050000D03*
D68*
X169450000Y-69350000D03*
D67*
X169450000Y-63050000D03*
X167150000Y-63050000D03*
%TD*%
D33*
%TO.C,C34*%
X189702500Y-64345000D03*
X189702500Y-66070000D03*
%TD*%
D69*
%TO.C,U9*%
X146900000Y-84700000D03*
X147400000Y-84700000D03*
X147900000Y-84700000D03*
X148400000Y-84700000D03*
X148900000Y-84700000D03*
X148900000Y-80300000D03*
X148400000Y-80300000D03*
X147900000Y-80300000D03*
X147400000Y-80300000D03*
X146900000Y-80300000D03*
%TD*%
D27*
%TO.C,C8*%
X208000000Y-100362500D03*
X208000000Y-98637500D03*
%TD*%
D51*
%TO.C,H1*%
X231000000Y-116000000D03*
%TD*%
D33*
%TO.C,C36*%
X191502500Y-64345000D03*
X191502500Y-66070000D03*
%TD*%
D29*
%TO.C,J11*%
X212800000Y-113950000D03*
D30*
X214800000Y-113950000D03*
%TD*%
D33*
%TO.C,C28*%
X208800000Y-108037500D03*
X208800000Y-109762500D03*
%TD*%
D70*
%TO.C,J9*%
X195835000Y-113510000D03*
X204475000Y-113510000D03*
X204475000Y-117310000D03*
X195835000Y-117310000D03*
D71*
X199655000Y-113030000D03*
X201675000Y-113030000D03*
D72*
X202905000Y-113030000D03*
D71*
X200655000Y-113030000D03*
X198635000Y-113030000D03*
D72*
X197405000Y-113030000D03*
%TD*%
D66*
%TO.C,C30*%
X226962500Y-58500000D03*
X223837500Y-58500000D03*
%TD*%
D73*
%TO.C,D3*%
X225100000Y-79250000D03*
X225100000Y-77150000D03*
%TD*%
D74*
%TO.C,J13*%
X167200000Y-58400000D03*
D75*
X165675000Y-59875000D03*
X165675000Y-56925000D03*
%TD*%
D69*
%TO.C,U10*%
X147700000Y-100700000D03*
X148200000Y-100700000D03*
X148700000Y-100700000D03*
X149200000Y-100700000D03*
X149700000Y-100700000D03*
X149700000Y-96300000D03*
X149200000Y-96300000D03*
X148700000Y-96300000D03*
X148200000Y-96300000D03*
X147700000Y-96300000D03*
%TD*%
D43*
%TO.C,L2*%
X223912500Y-61700000D03*
X226887500Y-61700000D03*
%TD*%
D44*
%TO.C,C32*%
X187352500Y-67570000D03*
X187352500Y-64445000D03*
%TD*%
D65*
%TO.C,U7*%
X194275000Y-87805000D03*
X194275000Y-86535000D03*
X194275000Y-85265000D03*
X194275000Y-83995000D03*
X194275000Y-82725000D03*
X194275000Y-81455000D03*
X194275000Y-80185000D03*
X194275000Y-78915000D03*
X189325000Y-78915000D03*
X189325000Y-80185000D03*
X189325000Y-81455000D03*
X189325000Y-82725000D03*
X189325000Y-83995000D03*
X189325000Y-85265000D03*
X189325000Y-86535000D03*
X189325000Y-87805000D03*
%TD*%
D37*
%TO.C,C31*%
X214137500Y-106200000D03*
X215862500Y-106200000D03*
%TD*%
D33*
%TO.C,C35*%
X211400000Y-64237500D03*
X211400000Y-65962500D03*
%TD*%
D37*
%TO.C,C9*%
X214837500Y-98500000D03*
X216562500Y-98500000D03*
%TD*%
D51*
%TO.C,H3*%
X231000000Y-54000000D03*
%TD*%
G36*
X200219633Y-112193517D02*
G01*
X200220197Y-112195436D01*
X200219916Y-112196075D01*
X200209767Y-112211263D01*
X200206000Y-112230199D01*
X200206000Y-113829801D01*
X200209767Y-113848738D01*
X200219814Y-113863773D01*
X200219945Y-113865768D01*
X200218282Y-113866880D01*
X200217553Y-113866793D01*
X200157212Y-113847898D01*
X200092310Y-113866955D01*
X200090367Y-113866483D01*
X200089803Y-113864564D01*
X200090084Y-113863925D01*
X200100233Y-113848737D01*
X200104000Y-113829801D01*
X200104000Y-112230199D01*
X200100233Y-112211262D01*
X200090186Y-112196227D01*
X200090055Y-112194232D01*
X200091718Y-112193120D01*
X200092447Y-112193207D01*
X200152788Y-112212102D01*
X200217690Y-112193045D01*
X200219633Y-112193517D01*
G37*
G36*
X201095660Y-112197493D02*
G01*
X201096424Y-112198003D01*
X201162788Y-112218784D01*
X201233590Y-112197994D01*
X201234340Y-112197493D01*
X201236335Y-112197362D01*
X201237447Y-112199025D01*
X201237114Y-112200267D01*
X201229767Y-112211262D01*
X201226000Y-112230199D01*
X201226000Y-113829801D01*
X201229767Y-113848738D01*
X201237114Y-113859733D01*
X201237245Y-113861729D01*
X201235582Y-113862840D01*
X201234340Y-113862507D01*
X201233576Y-113861997D01*
X201167212Y-113841216D01*
X201096410Y-113862006D01*
X201095660Y-113862507D01*
X201093665Y-113862638D01*
X201092553Y-113860975D01*
X201092886Y-113859733D01*
X201100233Y-113848738D01*
X201104000Y-113829801D01*
X201104000Y-112230199D01*
X201100233Y-112211262D01*
X201092886Y-112200267D01*
X201092755Y-112198271D01*
X201094418Y-112197160D01*
X201095660Y-112197493D01*
G37*
G36*
X199075660Y-112197493D02*
G01*
X199076424Y-112198003D01*
X199142788Y-112218784D01*
X199213590Y-112197994D01*
X199214340Y-112197493D01*
X199216335Y-112197362D01*
X199217447Y-112199025D01*
X199217114Y-112200267D01*
X199209767Y-112211262D01*
X199206000Y-112230199D01*
X199206000Y-113829801D01*
X199209767Y-113848738D01*
X199217114Y-113859733D01*
X199217245Y-113861729D01*
X199215582Y-113862840D01*
X199214340Y-113862507D01*
X199213576Y-113861997D01*
X199147212Y-113841216D01*
X199076410Y-113862006D01*
X199075660Y-113862507D01*
X199073665Y-113862638D01*
X199072553Y-113860975D01*
X199072886Y-113859733D01*
X199080233Y-113848738D01*
X199084000Y-113829801D01*
X199084000Y-112230199D01*
X199080233Y-112211262D01*
X199072886Y-112200267D01*
X199072755Y-112198271D01*
X199074418Y-112197160D01*
X199075660Y-112197493D01*
G37*
G36*
X211718527Y-109200000D02*
G01*
X211718527Y-109202000D01*
X211717056Y-109202983D01*
X211716817Y-109203015D01*
X211653204Y-109231154D01*
X211615070Y-109288965D01*
X211614244Y-109358220D01*
X211650983Y-109416914D01*
X211716825Y-109446985D01*
X211717068Y-109447017D01*
X211718655Y-109448235D01*
X211718394Y-109450218D01*
X211716807Y-109451000D01*
X210708205Y-109451000D01*
X210706473Y-109450000D01*
X210706473Y-109448000D01*
X210707944Y-109447017D01*
X210708183Y-109446985D01*
X210771796Y-109418846D01*
X210809930Y-109361035D01*
X210810756Y-109291780D01*
X210774017Y-109233086D01*
X210708175Y-109203015D01*
X210707932Y-109202983D01*
X210706345Y-109201765D01*
X210706606Y-109199782D01*
X210708193Y-109199000D01*
X211716795Y-109199000D01*
X211718527Y-109200000D01*
G37*
G36*
X153099267Y-107733301D02*
G01*
X153150946Y-107776489D01*
X153219661Y-107785120D01*
X153282291Y-107755156D01*
X153300348Y-107734318D01*
X153302238Y-107733664D01*
X153303749Y-107734974D01*
X153303821Y-107736018D01*
X153301000Y-107750199D01*
X153301000Y-109249801D01*
X153303978Y-109264774D01*
X153303335Y-109266668D01*
X153301373Y-109267058D01*
X153300733Y-109266699D01*
X153249054Y-109223511D01*
X153180339Y-109214880D01*
X153117709Y-109244844D01*
X153099652Y-109265682D01*
X153097762Y-109266336D01*
X153096251Y-109265026D01*
X153096179Y-109263982D01*
X153099000Y-109249801D01*
X153099000Y-107750199D01*
X153096022Y-107735226D01*
X153096665Y-107733332D01*
X153098627Y-107732942D01*
X153099267Y-107733301D01*
G37*
G36*
X211718527Y-108250000D02*
G01*
X211718527Y-108252000D01*
X211717056Y-108252983D01*
X211716817Y-108253015D01*
X211653204Y-108281154D01*
X211615070Y-108338965D01*
X211614244Y-108408220D01*
X211650983Y-108466914D01*
X211716825Y-108496985D01*
X211717068Y-108497017D01*
X211718655Y-108498235D01*
X211718394Y-108500218D01*
X211716807Y-108501000D01*
X210708205Y-108501000D01*
X210706473Y-108500000D01*
X210706473Y-108498000D01*
X210707944Y-108497017D01*
X210708183Y-108496985D01*
X210771796Y-108468846D01*
X210809930Y-108411035D01*
X210810756Y-108341780D01*
X210774017Y-108283086D01*
X210708175Y-108253015D01*
X210707932Y-108252983D01*
X210706345Y-108251765D01*
X210706606Y-108249782D01*
X210708193Y-108249000D01*
X211716795Y-108249000D01*
X211718527Y-108250000D01*
G37*
G36*
X159574267Y-100903301D02*
G01*
X159625946Y-100946489D01*
X159694661Y-100955120D01*
X159757291Y-100925156D01*
X159775348Y-100904318D01*
X159777238Y-100903664D01*
X159778749Y-100904974D01*
X159778821Y-100906018D01*
X159776000Y-100920199D01*
X159776000Y-101979801D01*
X159778978Y-101994774D01*
X159778335Y-101996668D01*
X159776373Y-101997058D01*
X159775733Y-101996699D01*
X159724054Y-101953511D01*
X159655339Y-101944880D01*
X159592709Y-101974844D01*
X159574652Y-101995682D01*
X159572762Y-101996336D01*
X159571251Y-101995026D01*
X159571179Y-101993982D01*
X159574000Y-101979801D01*
X159574000Y-100920199D01*
X159571022Y-100905226D01*
X159571665Y-100903332D01*
X159573627Y-100902942D01*
X159574267Y-100903301D01*
G37*
G36*
X160524267Y-100903301D02*
G01*
X160575946Y-100946489D01*
X160644661Y-100955120D01*
X160707291Y-100925156D01*
X160725348Y-100904318D01*
X160727238Y-100903664D01*
X160728749Y-100904974D01*
X160728821Y-100906018D01*
X160726000Y-100920199D01*
X160726000Y-101979801D01*
X160728978Y-101994774D01*
X160728335Y-101996668D01*
X160726373Y-101997058D01*
X160725733Y-101996699D01*
X160674054Y-101953511D01*
X160605339Y-101944880D01*
X160542709Y-101974844D01*
X160524652Y-101995682D01*
X160522762Y-101996336D01*
X160521251Y-101995026D01*
X160521179Y-101993982D01*
X160524000Y-101979801D01*
X160524000Y-100920199D01*
X160521022Y-100905226D01*
X160521665Y-100903332D01*
X160523627Y-100902942D01*
X160524267Y-100903301D01*
G37*
G36*
X148014633Y-99963517D02*
G01*
X148015197Y-99965436D01*
X148014916Y-99966075D01*
X148004767Y-99981263D01*
X148001000Y-100000199D01*
X148001000Y-101399801D01*
X148004767Y-101418738D01*
X148014814Y-101433773D01*
X148014945Y-101435768D01*
X148013282Y-101436880D01*
X148012553Y-101436793D01*
X147952212Y-101417898D01*
X147887310Y-101436955D01*
X147885367Y-101436483D01*
X147884803Y-101434564D01*
X147885084Y-101433925D01*
X147895233Y-101418737D01*
X147899000Y-101399801D01*
X147899000Y-100000199D01*
X147895233Y-99981262D01*
X147885186Y-99966227D01*
X147885055Y-99964232D01*
X147886718Y-99963120D01*
X147887447Y-99963207D01*
X147947788Y-99982102D01*
X148012690Y-99963045D01*
X148014633Y-99963517D01*
G37*
G36*
X148514633Y-99963517D02*
G01*
X148515197Y-99965436D01*
X148514916Y-99966075D01*
X148504767Y-99981263D01*
X148501000Y-100000199D01*
X148501000Y-101399801D01*
X148504767Y-101418738D01*
X148514814Y-101433773D01*
X148514945Y-101435768D01*
X148513282Y-101436880D01*
X148512553Y-101436793D01*
X148452212Y-101417898D01*
X148387310Y-101436955D01*
X148385367Y-101436483D01*
X148384803Y-101434564D01*
X148385084Y-101433925D01*
X148395233Y-101418737D01*
X148399000Y-101399801D01*
X148399000Y-100000199D01*
X148395233Y-99981262D01*
X148385186Y-99966227D01*
X148385055Y-99964232D01*
X148386718Y-99963120D01*
X148387447Y-99963207D01*
X148447788Y-99982102D01*
X148512690Y-99963045D01*
X148514633Y-99963517D01*
G37*
G36*
X149014633Y-99963517D02*
G01*
X149015197Y-99965436D01*
X149014916Y-99966075D01*
X149004767Y-99981263D01*
X149001000Y-100000199D01*
X149001000Y-101399801D01*
X149004767Y-101418738D01*
X149014814Y-101433773D01*
X149014945Y-101435768D01*
X149013282Y-101436880D01*
X149012553Y-101436793D01*
X148952212Y-101417898D01*
X148887310Y-101436955D01*
X148885367Y-101436483D01*
X148884803Y-101434564D01*
X148885084Y-101433925D01*
X148895233Y-101418737D01*
X148899000Y-101399801D01*
X148899000Y-100000199D01*
X148895233Y-99981262D01*
X148885186Y-99966227D01*
X148885055Y-99964232D01*
X148886718Y-99963120D01*
X148887447Y-99963207D01*
X148947788Y-99982102D01*
X149012690Y-99963045D01*
X149014633Y-99963517D01*
G37*
G36*
X149514633Y-99963517D02*
G01*
X149515197Y-99965436D01*
X149514916Y-99966075D01*
X149504767Y-99981263D01*
X149501000Y-100000199D01*
X149501000Y-101399801D01*
X149504767Y-101418738D01*
X149514814Y-101433773D01*
X149514945Y-101435768D01*
X149513282Y-101436880D01*
X149512553Y-101436793D01*
X149452212Y-101417898D01*
X149387310Y-101436955D01*
X149385367Y-101436483D01*
X149384803Y-101434564D01*
X149385084Y-101433925D01*
X149395233Y-101418737D01*
X149399000Y-101399801D01*
X149399000Y-100000199D01*
X149395233Y-99981262D01*
X149385186Y-99966227D01*
X149385055Y-99964232D01*
X149386718Y-99963120D01*
X149387447Y-99963207D01*
X149447788Y-99982102D01*
X149512690Y-99963045D01*
X149514633Y-99963517D01*
G37*
G36*
X149014633Y-95563517D02*
G01*
X149015197Y-95565436D01*
X149014916Y-95566075D01*
X149004767Y-95581263D01*
X149001000Y-95600199D01*
X149001000Y-96999801D01*
X149004767Y-97018738D01*
X149014814Y-97033773D01*
X149014945Y-97035768D01*
X149013282Y-97036880D01*
X149012553Y-97036793D01*
X148952212Y-97017898D01*
X148887310Y-97036955D01*
X148885367Y-97036483D01*
X148884803Y-97034564D01*
X148885084Y-97033925D01*
X148895233Y-97018737D01*
X148899000Y-96999801D01*
X148899000Y-95600199D01*
X148895233Y-95581262D01*
X148885186Y-95566227D01*
X148885055Y-95564232D01*
X148886718Y-95563120D01*
X148887447Y-95563207D01*
X148947788Y-95582102D01*
X149012690Y-95563045D01*
X149014633Y-95563517D01*
G37*
G36*
X148014633Y-95563517D02*
G01*
X148015197Y-95565436D01*
X148014916Y-95566075D01*
X148004767Y-95581263D01*
X148001000Y-95600199D01*
X148001000Y-96999801D01*
X148004767Y-97018738D01*
X148014814Y-97033773D01*
X148014945Y-97035768D01*
X148013282Y-97036880D01*
X148012553Y-97036793D01*
X147952212Y-97017898D01*
X147887310Y-97036955D01*
X147885367Y-97036483D01*
X147884803Y-97034564D01*
X147885084Y-97033925D01*
X147895233Y-97018737D01*
X147899000Y-96999801D01*
X147899000Y-95600199D01*
X147895233Y-95581262D01*
X147885186Y-95566227D01*
X147885055Y-95564232D01*
X147886718Y-95563120D01*
X147887447Y-95563207D01*
X147947788Y-95582102D01*
X148012690Y-95563045D01*
X148014633Y-95563517D01*
G37*
G36*
X148514633Y-95563517D02*
G01*
X148515197Y-95565436D01*
X148514916Y-95566075D01*
X148504767Y-95581263D01*
X148501000Y-95600199D01*
X148501000Y-96999801D01*
X148504767Y-97018738D01*
X148514814Y-97033773D01*
X148514945Y-97035768D01*
X148513282Y-97036880D01*
X148512553Y-97036793D01*
X148452212Y-97017898D01*
X148387310Y-97036955D01*
X148385367Y-97036483D01*
X148384803Y-97034564D01*
X148385084Y-97033925D01*
X148395233Y-97018737D01*
X148399000Y-96999801D01*
X148399000Y-95600199D01*
X148395233Y-95581262D01*
X148385186Y-95566227D01*
X148385055Y-95564232D01*
X148386718Y-95563120D01*
X148387447Y-95563207D01*
X148447788Y-95582102D01*
X148512690Y-95563045D01*
X148514633Y-95563517D01*
G37*
G36*
X149514633Y-95563517D02*
G01*
X149515197Y-95565436D01*
X149514916Y-95566075D01*
X149504767Y-95581263D01*
X149501000Y-95600199D01*
X149501000Y-96999801D01*
X149504767Y-97018738D01*
X149514814Y-97033773D01*
X149514945Y-97035768D01*
X149513282Y-97036880D01*
X149512553Y-97036793D01*
X149452212Y-97017898D01*
X149387310Y-97036955D01*
X149385367Y-97036483D01*
X149384803Y-97034564D01*
X149385084Y-97033925D01*
X149395233Y-97018737D01*
X149399000Y-96999801D01*
X149399000Y-95600199D01*
X149395233Y-95581262D01*
X149385186Y-95566227D01*
X149385055Y-95564232D01*
X149386718Y-95563120D01*
X149387447Y-95563207D01*
X149447788Y-95582102D01*
X149512690Y-95563045D01*
X149514633Y-95563517D01*
G37*
G36*
X143614633Y-91063517D02*
G01*
X143615197Y-91065436D01*
X143614916Y-91066075D01*
X143604767Y-91081263D01*
X143601000Y-91100199D01*
X143601000Y-92499801D01*
X143604767Y-92518738D01*
X143614814Y-92533773D01*
X143614945Y-92535768D01*
X143613282Y-92536880D01*
X143612553Y-92536793D01*
X143552212Y-92517898D01*
X143487310Y-92536955D01*
X143485367Y-92536483D01*
X143484803Y-92534564D01*
X143485084Y-92533925D01*
X143495233Y-92518737D01*
X143499000Y-92499801D01*
X143499000Y-91100199D01*
X143495233Y-91081262D01*
X143485186Y-91066227D01*
X143485055Y-91064232D01*
X143486718Y-91063120D01*
X143487447Y-91063207D01*
X143547788Y-91082102D01*
X143612690Y-91063045D01*
X143614633Y-91063517D01*
G37*
G36*
X143114633Y-91063517D02*
G01*
X143115197Y-91065436D01*
X143114916Y-91066075D01*
X143104767Y-91081263D01*
X143101000Y-91100199D01*
X143101000Y-92499801D01*
X143104767Y-92518738D01*
X143114814Y-92533773D01*
X143114945Y-92535768D01*
X143113282Y-92536880D01*
X143112553Y-92536793D01*
X143052212Y-92517898D01*
X142987310Y-92536955D01*
X142985367Y-92536483D01*
X142984803Y-92534564D01*
X142985084Y-92533925D01*
X142995233Y-92518737D01*
X142999000Y-92499801D01*
X142999000Y-91100199D01*
X142995233Y-91081262D01*
X142985186Y-91066227D01*
X142985055Y-91064232D01*
X142986718Y-91063120D01*
X142987447Y-91063207D01*
X143047788Y-91082102D01*
X143112690Y-91063045D01*
X143114633Y-91063517D01*
G37*
G36*
X144114633Y-91063517D02*
G01*
X144115197Y-91065436D01*
X144114916Y-91066075D01*
X144104767Y-91081263D01*
X144101000Y-91100199D01*
X144101000Y-92499801D01*
X144104767Y-92518738D01*
X144114814Y-92533773D01*
X144114945Y-92535768D01*
X144113282Y-92536880D01*
X144112553Y-92536793D01*
X144052212Y-92517898D01*
X143987310Y-92536955D01*
X143985367Y-92536483D01*
X143984803Y-92534564D01*
X143985084Y-92533925D01*
X143995233Y-92518737D01*
X143999000Y-92499801D01*
X143999000Y-91100199D01*
X143995233Y-91081262D01*
X143985186Y-91066227D01*
X143985055Y-91064232D01*
X143986718Y-91063120D01*
X143987447Y-91063207D01*
X144047788Y-91082102D01*
X144112690Y-91063045D01*
X144114633Y-91063517D01*
G37*
G36*
X142614633Y-91063517D02*
G01*
X142615197Y-91065436D01*
X142614916Y-91066075D01*
X142604767Y-91081263D01*
X142601000Y-91100199D01*
X142601000Y-92499801D01*
X142604767Y-92518738D01*
X142614814Y-92533773D01*
X142614945Y-92535768D01*
X142613282Y-92536880D01*
X142612553Y-92536793D01*
X142552212Y-92517898D01*
X142487310Y-92536955D01*
X142485367Y-92536483D01*
X142484803Y-92534564D01*
X142485084Y-92533925D01*
X142495233Y-92518737D01*
X142499000Y-92499801D01*
X142499000Y-91100199D01*
X142495233Y-91081262D01*
X142485186Y-91066227D01*
X142485055Y-91064232D01*
X142486718Y-91063120D01*
X142487447Y-91063207D01*
X142547788Y-91082102D01*
X142612690Y-91063045D01*
X142614633Y-91063517D01*
G37*
G36*
X142614633Y-86663517D02*
G01*
X142615197Y-86665436D01*
X142614916Y-86666075D01*
X142604767Y-86681263D01*
X142601000Y-86700199D01*
X142601000Y-88099801D01*
X142604767Y-88118738D01*
X142614814Y-88133773D01*
X142614945Y-88135768D01*
X142613282Y-88136880D01*
X142612553Y-88136793D01*
X142552212Y-88117898D01*
X142487310Y-88136955D01*
X142485367Y-88136483D01*
X142484803Y-88134564D01*
X142485084Y-88133925D01*
X142495233Y-88118737D01*
X142499000Y-88099801D01*
X142499000Y-86700199D01*
X142495233Y-86681262D01*
X142485186Y-86666227D01*
X142485055Y-86664232D01*
X142486718Y-86663120D01*
X142487447Y-86663207D01*
X142547788Y-86682102D01*
X142612690Y-86663045D01*
X142614633Y-86663517D01*
G37*
G36*
X143614633Y-86663517D02*
G01*
X143615197Y-86665436D01*
X143614916Y-86666075D01*
X143604767Y-86681263D01*
X143601000Y-86700199D01*
X143601000Y-88099801D01*
X143604767Y-88118738D01*
X143614814Y-88133773D01*
X143614945Y-88135768D01*
X143613282Y-88136880D01*
X143612553Y-88136793D01*
X143552212Y-88117898D01*
X143487310Y-88136955D01*
X143485367Y-88136483D01*
X143484803Y-88134564D01*
X143485084Y-88133925D01*
X143495233Y-88118737D01*
X143499000Y-88099801D01*
X143499000Y-86700199D01*
X143495233Y-86681262D01*
X143485186Y-86666227D01*
X143485055Y-86664232D01*
X143486718Y-86663120D01*
X143487447Y-86663207D01*
X143547788Y-86682102D01*
X143612690Y-86663045D01*
X143614633Y-86663517D01*
G37*
G36*
X144114633Y-86663517D02*
G01*
X144115197Y-86665436D01*
X144114916Y-86666075D01*
X144104767Y-86681263D01*
X144101000Y-86700199D01*
X144101000Y-88099801D01*
X144104767Y-88118738D01*
X144114814Y-88133773D01*
X144114945Y-88135768D01*
X144113282Y-88136880D01*
X144112553Y-88136793D01*
X144052212Y-88117898D01*
X143987310Y-88136955D01*
X143985367Y-88136483D01*
X143984803Y-88134564D01*
X143985084Y-88133925D01*
X143995233Y-88118737D01*
X143999000Y-88099801D01*
X143999000Y-86700199D01*
X143995233Y-86681262D01*
X143985186Y-86666227D01*
X143985055Y-86664232D01*
X143986718Y-86663120D01*
X143987447Y-86663207D01*
X144047788Y-86682102D01*
X144112690Y-86663045D01*
X144114633Y-86663517D01*
G37*
G36*
X143114633Y-86663517D02*
G01*
X143115197Y-86665436D01*
X143114916Y-86666075D01*
X143104767Y-86681263D01*
X143101000Y-86700199D01*
X143101000Y-88099801D01*
X143104767Y-88118738D01*
X143114814Y-88133773D01*
X143114945Y-88135768D01*
X143113282Y-88136880D01*
X143112553Y-88136793D01*
X143052212Y-88117898D01*
X142987310Y-88136955D01*
X142985367Y-88136483D01*
X142984803Y-88134564D01*
X142985084Y-88133925D01*
X142995233Y-88118737D01*
X142999000Y-88099801D01*
X142999000Y-86700199D01*
X142995233Y-86681262D01*
X142985186Y-86666227D01*
X142985055Y-86664232D01*
X142986718Y-86663120D01*
X142987447Y-86663207D01*
X143047788Y-86682102D01*
X143112690Y-86663045D01*
X143114633Y-86663517D01*
G37*
G36*
X148714633Y-83963517D02*
G01*
X148715197Y-83965436D01*
X148714916Y-83966075D01*
X148704767Y-83981263D01*
X148701000Y-84000199D01*
X148701000Y-85399801D01*
X148704767Y-85418738D01*
X148714814Y-85433773D01*
X148714945Y-85435768D01*
X148713282Y-85436880D01*
X148712553Y-85436793D01*
X148652212Y-85417898D01*
X148587310Y-85436955D01*
X148585367Y-85436483D01*
X148584803Y-85434564D01*
X148585084Y-85433925D01*
X148595233Y-85418737D01*
X148599000Y-85399801D01*
X148599000Y-84000199D01*
X148595233Y-83981262D01*
X148585186Y-83966227D01*
X148585055Y-83964232D01*
X148586718Y-83963120D01*
X148587447Y-83963207D01*
X148647788Y-83982102D01*
X148712690Y-83963045D01*
X148714633Y-83963517D01*
G37*
G36*
X147214633Y-83963517D02*
G01*
X147215197Y-83965436D01*
X147214916Y-83966075D01*
X147204767Y-83981263D01*
X147201000Y-84000199D01*
X147201000Y-85399801D01*
X147204767Y-85418738D01*
X147214814Y-85433773D01*
X147214945Y-85435768D01*
X147213282Y-85436880D01*
X147212553Y-85436793D01*
X147152212Y-85417898D01*
X147087310Y-85436955D01*
X147085367Y-85436483D01*
X147084803Y-85434564D01*
X147085084Y-85433925D01*
X147095233Y-85418737D01*
X147099000Y-85399801D01*
X147099000Y-84000199D01*
X147095233Y-83981262D01*
X147085186Y-83966227D01*
X147085055Y-83964232D01*
X147086718Y-83963120D01*
X147087447Y-83963207D01*
X147147788Y-83982102D01*
X147212690Y-83963045D01*
X147214633Y-83963517D01*
G37*
G36*
X148214633Y-83963517D02*
G01*
X148215197Y-83965436D01*
X148214916Y-83966075D01*
X148204767Y-83981263D01*
X148201000Y-84000199D01*
X148201000Y-85399801D01*
X148204767Y-85418738D01*
X148214814Y-85433773D01*
X148214945Y-85435768D01*
X148213282Y-85436880D01*
X148212553Y-85436793D01*
X148152212Y-85417898D01*
X148087310Y-85436955D01*
X148085367Y-85436483D01*
X148084803Y-85434564D01*
X148085084Y-85433925D01*
X148095233Y-85418737D01*
X148099000Y-85399801D01*
X148099000Y-84000199D01*
X148095233Y-83981262D01*
X148085186Y-83966227D01*
X148085055Y-83964232D01*
X148086718Y-83963120D01*
X148087447Y-83963207D01*
X148147788Y-83982102D01*
X148212690Y-83963045D01*
X148214633Y-83963517D01*
G37*
G36*
X147714633Y-83963517D02*
G01*
X147715197Y-83965436D01*
X147714916Y-83966075D01*
X147704767Y-83981263D01*
X147701000Y-84000199D01*
X147701000Y-85399801D01*
X147704767Y-85418738D01*
X147714814Y-85433773D01*
X147714945Y-85435768D01*
X147713282Y-85436880D01*
X147712553Y-85436793D01*
X147652212Y-85417898D01*
X147587310Y-85436955D01*
X147585367Y-85436483D01*
X147584803Y-85434564D01*
X147585084Y-85433925D01*
X147595233Y-85418737D01*
X147599000Y-85399801D01*
X147599000Y-84000199D01*
X147595233Y-83981262D01*
X147585186Y-83966227D01*
X147585055Y-83964232D01*
X147586718Y-83963120D01*
X147587447Y-83963207D01*
X147647788Y-83982102D01*
X147712690Y-83963045D01*
X147714633Y-83963517D01*
G37*
G36*
X140440660Y-83392493D02*
G01*
X140454452Y-83401709D01*
X140455615Y-83399969D01*
X140457409Y-83399084D01*
X140458560Y-83399545D01*
X140475952Y-83414078D01*
X140544670Y-83422704D01*
X140592288Y-83399918D01*
X140594282Y-83400072D01*
X140594814Y-83400611D01*
X140595548Y-83401709D01*
X140609340Y-83392493D01*
X140611336Y-83392362D01*
X140612447Y-83394025D01*
X140612114Y-83395267D01*
X140604767Y-83406262D01*
X140601000Y-83425199D01*
X140601000Y-84074801D01*
X140604767Y-84093738D01*
X140612114Y-84104733D01*
X140612245Y-84106729D01*
X140610582Y-84107840D01*
X140609340Y-84107507D01*
X140595548Y-84098291D01*
X140594385Y-84100031D01*
X140592591Y-84100916D01*
X140591440Y-84100455D01*
X140574048Y-84085922D01*
X140505330Y-84077296D01*
X140457712Y-84100082D01*
X140455718Y-84099928D01*
X140455186Y-84099389D01*
X140454452Y-84098291D01*
X140440660Y-84107507D01*
X140438664Y-84107638D01*
X140437553Y-84105975D01*
X140437886Y-84104733D01*
X140445233Y-84093738D01*
X140449000Y-84074801D01*
X140449000Y-83425199D01*
X140445233Y-83406262D01*
X140437886Y-83395267D01*
X140437755Y-83393271D01*
X140439418Y-83392160D01*
X140440660Y-83392493D01*
G37*
G36*
X139790660Y-83392493D02*
G01*
X139804452Y-83401709D01*
X139805615Y-83399969D01*
X139807409Y-83399084D01*
X139808560Y-83399545D01*
X139825952Y-83414078D01*
X139894670Y-83422704D01*
X139942288Y-83399918D01*
X139944282Y-83400072D01*
X139944814Y-83400611D01*
X139945548Y-83401709D01*
X139959340Y-83392493D01*
X139961336Y-83392362D01*
X139962447Y-83394025D01*
X139962114Y-83395267D01*
X139954767Y-83406262D01*
X139951000Y-83425199D01*
X139951000Y-84074801D01*
X139954767Y-84093738D01*
X139962114Y-84104733D01*
X139962245Y-84106729D01*
X139960582Y-84107840D01*
X139959340Y-84107507D01*
X139945548Y-84098291D01*
X139944385Y-84100031D01*
X139942591Y-84100916D01*
X139941440Y-84100455D01*
X139924048Y-84085922D01*
X139855330Y-84077296D01*
X139807712Y-84100082D01*
X139805718Y-84099928D01*
X139805186Y-84099389D01*
X139804452Y-84098291D01*
X139790660Y-84107507D01*
X139788664Y-84107638D01*
X139787553Y-84105975D01*
X139787886Y-84104733D01*
X139795233Y-84093738D01*
X139799000Y-84074801D01*
X139799000Y-83425199D01*
X139795233Y-83406262D01*
X139787886Y-83395267D01*
X139787755Y-83393271D01*
X139789418Y-83392160D01*
X139790660Y-83392493D01*
G37*
G36*
X139790660Y-81492493D02*
G01*
X139804452Y-81501709D01*
X139805615Y-81499969D01*
X139807409Y-81499084D01*
X139808560Y-81499545D01*
X139825952Y-81514078D01*
X139894670Y-81522704D01*
X139942288Y-81499918D01*
X139944282Y-81500072D01*
X139944814Y-81500611D01*
X139945548Y-81501709D01*
X139959340Y-81492493D01*
X139961336Y-81492362D01*
X139962447Y-81494025D01*
X139962114Y-81495267D01*
X139954767Y-81506262D01*
X139951000Y-81525199D01*
X139951000Y-82174801D01*
X139954767Y-82193738D01*
X139962114Y-82204733D01*
X139962245Y-82206729D01*
X139960582Y-82207840D01*
X139959340Y-82207507D01*
X139945548Y-82198291D01*
X139944385Y-82200031D01*
X139942591Y-82200916D01*
X139941440Y-82200455D01*
X139924048Y-82185922D01*
X139855330Y-82177296D01*
X139807712Y-82200082D01*
X139805718Y-82199928D01*
X139805186Y-82199389D01*
X139804452Y-82198291D01*
X139790660Y-82207507D01*
X139788664Y-82207638D01*
X139787553Y-82205975D01*
X139787886Y-82204733D01*
X139795233Y-82193738D01*
X139799000Y-82174801D01*
X139799000Y-81525199D01*
X139795233Y-81506262D01*
X139787886Y-81495267D01*
X139787755Y-81493271D01*
X139789418Y-81492160D01*
X139790660Y-81492493D01*
G37*
G36*
X140440660Y-81492493D02*
G01*
X140454452Y-81501709D01*
X140455615Y-81499969D01*
X140457409Y-81499084D01*
X140458560Y-81499545D01*
X140475952Y-81514078D01*
X140544670Y-81522704D01*
X140592288Y-81499918D01*
X140594282Y-81500072D01*
X140594814Y-81500611D01*
X140595548Y-81501709D01*
X140609340Y-81492493D01*
X140611336Y-81492362D01*
X140612447Y-81494025D01*
X140612114Y-81495267D01*
X140604767Y-81506262D01*
X140601000Y-81525199D01*
X140601000Y-82174801D01*
X140604767Y-82193738D01*
X140612114Y-82204733D01*
X140612245Y-82206729D01*
X140610582Y-82207840D01*
X140609340Y-82207507D01*
X140595548Y-82198291D01*
X140594385Y-82200031D01*
X140592591Y-82200916D01*
X140591440Y-82200455D01*
X140574048Y-82185922D01*
X140505330Y-82177296D01*
X140457712Y-82200082D01*
X140455718Y-82199928D01*
X140455186Y-82199389D01*
X140454452Y-82198291D01*
X140440660Y-82207507D01*
X140438664Y-82207638D01*
X140437553Y-82205975D01*
X140437886Y-82204733D01*
X140445233Y-82193738D01*
X140449000Y-82174801D01*
X140449000Y-81525199D01*
X140445233Y-81506262D01*
X140437886Y-81495267D01*
X140437755Y-81493271D01*
X140439418Y-81492160D01*
X140440660Y-81492493D01*
G37*
G36*
X148214633Y-79563517D02*
G01*
X148215197Y-79565436D01*
X148214916Y-79566075D01*
X148204767Y-79581263D01*
X148201000Y-79600199D01*
X148201000Y-80999801D01*
X148204767Y-81018738D01*
X148214814Y-81033773D01*
X148214945Y-81035768D01*
X148213282Y-81036880D01*
X148212553Y-81036793D01*
X148152212Y-81017898D01*
X148087310Y-81036955D01*
X148085367Y-81036483D01*
X148084803Y-81034564D01*
X148085084Y-81033925D01*
X148095233Y-81018737D01*
X148099000Y-80999801D01*
X148099000Y-79600199D01*
X148095233Y-79581262D01*
X148085186Y-79566227D01*
X148085055Y-79564232D01*
X148086718Y-79563120D01*
X148087447Y-79563207D01*
X148147788Y-79582102D01*
X148212690Y-79563045D01*
X148214633Y-79563517D01*
G37*
G36*
X147214633Y-79563517D02*
G01*
X147215197Y-79565436D01*
X147214916Y-79566075D01*
X147204767Y-79581263D01*
X147201000Y-79600199D01*
X147201000Y-80999801D01*
X147204767Y-81018738D01*
X147214814Y-81033773D01*
X147214945Y-81035768D01*
X147213282Y-81036880D01*
X147212553Y-81036793D01*
X147152212Y-81017898D01*
X147087310Y-81036955D01*
X147085367Y-81036483D01*
X147084803Y-81034564D01*
X147085084Y-81033925D01*
X147095233Y-81018737D01*
X147099000Y-80999801D01*
X147099000Y-79600199D01*
X147095233Y-79581262D01*
X147085186Y-79566227D01*
X147085055Y-79564232D01*
X147086718Y-79563120D01*
X147087447Y-79563207D01*
X147147788Y-79582102D01*
X147212690Y-79563045D01*
X147214633Y-79563517D01*
G37*
G36*
X148714633Y-79563517D02*
G01*
X148715197Y-79565436D01*
X148714916Y-79566075D01*
X148704767Y-79581263D01*
X148701000Y-79600199D01*
X148701000Y-80999801D01*
X148704767Y-81018738D01*
X148714814Y-81033773D01*
X148714945Y-81035768D01*
X148713282Y-81036880D01*
X148712553Y-81036793D01*
X148652212Y-81017898D01*
X148587310Y-81036955D01*
X148585367Y-81036483D01*
X148584803Y-81034564D01*
X148585084Y-81033925D01*
X148595233Y-81018737D01*
X148599000Y-80999801D01*
X148599000Y-79600199D01*
X148595233Y-79581262D01*
X148585186Y-79566227D01*
X148585055Y-79564232D01*
X148586718Y-79563120D01*
X148587447Y-79563207D01*
X148647788Y-79582102D01*
X148712690Y-79563045D01*
X148714633Y-79563517D01*
G37*
G36*
X147714633Y-79563517D02*
G01*
X147715197Y-79565436D01*
X147714916Y-79566075D01*
X147704767Y-79581263D01*
X147701000Y-79600199D01*
X147701000Y-80999801D01*
X147704767Y-81018738D01*
X147714814Y-81033773D01*
X147714945Y-81035768D01*
X147713282Y-81036880D01*
X147712553Y-81036793D01*
X147652212Y-81017898D01*
X147587310Y-81036955D01*
X147585367Y-81036483D01*
X147584803Y-81034564D01*
X147585084Y-81033925D01*
X147595233Y-81018737D01*
X147599000Y-80999801D01*
X147599000Y-79600199D01*
X147595233Y-79581262D01*
X147585186Y-79566227D01*
X147585055Y-79564232D01*
X147586718Y-79563120D01*
X147587447Y-79563207D01*
X147647788Y-79582102D01*
X147712690Y-79563045D01*
X147714633Y-79563517D01*
G37*
G36*
X160546668Y-71471665D02*
G01*
X160547058Y-71473627D01*
X160546699Y-71474267D01*
X160503511Y-71525946D01*
X160494880Y-71594661D01*
X160524844Y-71657291D01*
X160545682Y-71675348D01*
X160546336Y-71677238D01*
X160545026Y-71678749D01*
X160543982Y-71678821D01*
X160529801Y-71676000D01*
X159470199Y-71676000D01*
X159455226Y-71678978D01*
X159453332Y-71678335D01*
X159452942Y-71676373D01*
X159453301Y-71675733D01*
X159496489Y-71624054D01*
X159505120Y-71555339D01*
X159475156Y-71492709D01*
X159454318Y-71474652D01*
X159453664Y-71472762D01*
X159454974Y-71471251D01*
X159456018Y-71471179D01*
X159470199Y-71474000D01*
X160529801Y-71474000D01*
X160544774Y-71471022D01*
X160546668Y-71471665D01*
G37*
G36*
X160546668Y-70521665D02*
G01*
X160547058Y-70523627D01*
X160546699Y-70524267D01*
X160503511Y-70575946D01*
X160494880Y-70644661D01*
X160524844Y-70707291D01*
X160545682Y-70725348D01*
X160546336Y-70727238D01*
X160545026Y-70728749D01*
X160543982Y-70728821D01*
X160529801Y-70726000D01*
X159470199Y-70726000D01*
X159455226Y-70728978D01*
X159453332Y-70728335D01*
X159452942Y-70726373D01*
X159453301Y-70725733D01*
X159496489Y-70674054D01*
X159505120Y-70605339D01*
X159475156Y-70542709D01*
X159454318Y-70524652D01*
X159453664Y-70522762D01*
X159454974Y-70521251D01*
X159456018Y-70521179D01*
X159470199Y-70524000D01*
X160529801Y-70524000D01*
X160544774Y-70521022D01*
X160546668Y-70521665D01*
G37*
M02*
