%TF.GenerationSoftware,KiCad,Pcbnew,(6.0.4-0)*%
%TF.CreationDate,2022-09-14T13:57:10-06:00*%
%TF.ProjectId,sq_lockin_v8,73715f6c-6f63-46b6-996e-5f76382e6b69,rev?*%
%TF.SameCoordinates,Original*%
%TF.FileFunction,Paste,Top*%
%TF.FilePolarity,Positive*%
%FSLAX46Y46*%
G04 Gerber Fmt 4.6, Leading zero omitted, Abs format (unit mm)*
G04 Created by KiCad (PCBNEW (6.0.4-0)) date 2022-09-14 13:57:10*
%MOMM*%
%LPD*%
G01*
G04 APERTURE LIST*
G04 Aperture macros list*
%AMRoundRect*
0 Rectangle with rounded corners*
0 $1 Rounding radius*
0 $2 $3 $4 $5 $6 $7 $8 $9 X,Y pos of 4 corners*
0 Add a 4 corners polygon primitive as box body*
4,1,4,$2,$3,$4,$5,$6,$7,$8,$9,$2,$3,0*
0 Add four circle primitives for the rounded corners*
1,1,$1+$1,$2,$3*
1,1,$1+$1,$4,$5*
1,1,$1+$1,$6,$7*
1,1,$1+$1,$8,$9*
0 Add four rect primitives between the rounded corners*
20,1,$1+$1,$2,$3,$4,$5,0*
20,1,$1+$1,$4,$5,$6,$7,0*
20,1,$1+$1,$6,$7,$8,$9,0*
20,1,$1+$1,$8,$9,$2,$3,0*%
G04 Aperture macros list end*
%ADD10R,0.800000X1.600000*%
%ADD11R,0.900000X1.600000*%
%ADD12R,0.600000X0.450000*%
%ADD13RoundRect,0.237500X-0.300000X-0.237500X0.300000X-0.237500X0.300000X0.237500X-0.300000X0.237500X0*%
%ADD14RoundRect,0.237500X-0.237500X0.300000X-0.237500X-0.300000X0.237500X-0.300000X0.237500X0.300000X0*%
%ADD15RoundRect,0.150000X-0.512500X-0.150000X0.512500X-0.150000X0.512500X0.150000X-0.512500X0.150000X0*%
%ADD16R,0.450000X0.600000*%
%ADD17RoundRect,0.250001X0.624999X-0.462499X0.624999X0.462499X-0.624999X0.462499X-0.624999X-0.462499X0*%
%ADD18RoundRect,0.250000X-0.450000X0.325000X-0.450000X-0.325000X0.450000X-0.325000X0.450000X0.325000X0*%
%ADD19RoundRect,0.237500X-0.237500X0.287500X-0.237500X-0.287500X0.237500X-0.287500X0.237500X0.287500X0*%
%ADD20RoundRect,0.237500X0.237500X-0.287500X0.237500X0.287500X-0.237500X0.287500X-0.237500X-0.287500X0*%
%ADD21R,1.060000X0.650000*%
%ADD22R,0.800000X0.900000*%
%ADD23RoundRect,0.237500X0.287500X0.237500X-0.287500X0.237500X-0.287500X-0.237500X0.287500X-0.237500X0*%
%ADD24RoundRect,0.237500X0.237500X-0.300000X0.237500X0.300000X-0.237500X0.300000X-0.237500X-0.300000X0*%
%ADD25RoundRect,0.150000X-0.675000X-0.150000X0.675000X-0.150000X0.675000X0.150000X-0.675000X0.150000X0*%
%ADD26RoundRect,0.237500X0.300000X0.237500X-0.300000X0.237500X-0.300000X-0.237500X0.300000X-0.237500X0*%
%ADD27RoundRect,0.150000X-0.825000X-0.150000X0.825000X-0.150000X0.825000X0.150000X-0.825000X0.150000X0*%
%ADD28RoundRect,0.150000X-0.150000X0.825000X-0.150000X-0.825000X0.150000X-0.825000X0.150000X0.825000X0*%
%ADD29R,0.650000X1.060000*%
%ADD30RoundRect,0.250001X-0.462499X-1.074999X0.462499X-1.074999X0.462499X1.074999X-0.462499X1.074999X0*%
%ADD31RoundRect,0.250000X0.650000X-0.412500X0.650000X0.412500X-0.650000X0.412500X-0.650000X-0.412500X0*%
%ADD32R,1.000000X1.050000*%
%ADD33R,1.050000X2.200000*%
%ADD34RoundRect,0.237500X-0.250000X-0.237500X0.250000X-0.237500X0.250000X0.237500X-0.250000X0.237500X0*%
%ADD35RoundRect,0.150000X0.625000X-0.150000X0.625000X0.150000X-0.625000X0.150000X-0.625000X-0.150000X0*%
%ADD36RoundRect,0.250000X0.650000X-0.350000X0.650000X0.350000X-0.650000X0.350000X-0.650000X-0.350000X0*%
%ADD37RoundRect,0.140000X0.170000X-0.140000X0.170000X0.140000X-0.170000X0.140000X-0.170000X-0.140000X0*%
%ADD38RoundRect,0.140000X0.140000X0.170000X-0.140000X0.170000X-0.140000X-0.170000X0.140000X-0.170000X0*%
%ADD39RoundRect,0.150000X-0.625000X0.150000X-0.625000X-0.150000X0.625000X-0.150000X0.625000X0.150000X0*%
%ADD40RoundRect,0.250000X-0.650000X0.350000X-0.650000X-0.350000X0.650000X-0.350000X0.650000X0.350000X0*%
%ADD41R,0.300000X1.400000*%
%ADD42R,0.400000X0.650000*%
%ADD43RoundRect,0.250000X-0.412500X-1.100000X0.412500X-1.100000X0.412500X1.100000X-0.412500X1.100000X0*%
%ADD44RoundRect,0.150000X-0.587500X-0.150000X0.587500X-0.150000X0.587500X0.150000X-0.587500X0.150000X0*%
%ADD45RoundRect,0.140000X-0.140000X-0.170000X0.140000X-0.170000X0.140000X0.170000X-0.140000X0.170000X0*%
%ADD46RoundRect,0.150000X0.825000X0.150000X-0.825000X0.150000X-0.825000X-0.150000X0.825000X-0.150000X0*%
%ADD47RoundRect,0.250000X0.412500X0.650000X-0.412500X0.650000X-0.412500X-0.650000X0.412500X-0.650000X0*%
%ADD48RoundRect,0.237500X0.250000X0.237500X-0.250000X0.237500X-0.250000X-0.237500X0.250000X-0.237500X0*%
%ADD49R,1.500000X2.000000*%
%ADD50R,3.800000X2.000000*%
%ADD51R,1.050000X1.000000*%
%ADD52R,2.200000X1.050000*%
G04 APERTURE END LIST*
D10*
%TO.C,J9*%
X199655000Y-113125000D03*
X201675000Y-113125000D03*
D11*
X202905000Y-113125000D03*
D10*
X200655000Y-113125000D03*
X198635000Y-113125000D03*
D11*
X197405000Y-113125000D03*
%TD*%
D12*
%TO.C,D6*%
X203450000Y-109200000D03*
X201350000Y-109200000D03*
%TD*%
D13*
%TO.C,C29*%
X215862500Y-106200000D03*
X214137500Y-106200000D03*
%TD*%
D14*
%TO.C,C26*%
X208800000Y-108037500D03*
X208800000Y-109762500D03*
%TD*%
D15*
%TO.C,U17*%
X213487500Y-107900000D03*
X213487500Y-109800000D03*
X211212500Y-109800000D03*
X211212500Y-108850000D03*
X211212500Y-107900000D03*
%TD*%
D16*
%TO.C,D7*%
X207000000Y-107950000D03*
X207000000Y-110050000D03*
%TD*%
D12*
%TO.C,D5*%
X220050000Y-106800000D03*
X222150000Y-106800000D03*
%TD*%
%TO.C,D4*%
X217350000Y-108100000D03*
X215250000Y-108100000D03*
%TD*%
D17*
%TO.C,R1*%
X137200000Y-79300000D03*
X137200000Y-76325000D03*
%TD*%
%TO.C,R5*%
X130900000Y-82600000D03*
X130900000Y-79625000D03*
%TD*%
%TO.C,R4*%
X137100000Y-93400000D03*
X137100000Y-90425000D03*
%TD*%
D18*
%TO.C,R2*%
X137175000Y-81675000D03*
X137175000Y-83725000D03*
%TD*%
D19*
%TO.C,R6*%
X131000000Y-88750000D03*
X131000000Y-90500000D03*
%TD*%
D20*
%TO.C,C2*%
X161700000Y-72900000D03*
X161700000Y-71150000D03*
%TD*%
%TO.C,C3*%
X155900000Y-73000000D03*
X155900000Y-71250000D03*
%TD*%
D21*
%TO.C,U2*%
X160000000Y-72050000D03*
X160000000Y-71100000D03*
X160000000Y-70150000D03*
X157800000Y-70150000D03*
X157800000Y-72050000D03*
%TD*%
D20*
%TO.C,R7*%
X131000000Y-86675000D03*
X131000000Y-84925000D03*
%TD*%
D18*
%TO.C,R3*%
X137200000Y-85650000D03*
X137200000Y-87700000D03*
%TD*%
D20*
%TO.C,C4*%
X141300000Y-74300000D03*
X141300000Y-72550000D03*
%TD*%
%TO.C,C6*%
X147000000Y-74400000D03*
X147000000Y-72650000D03*
%TD*%
D19*
%TO.C,R8*%
X128000000Y-88250000D03*
X128000000Y-90000000D03*
%TD*%
D22*
%TO.C,U3*%
X143320000Y-74475000D03*
X145220000Y-74475000D03*
X144270000Y-72475000D03*
%TD*%
D23*
%TO.C,R14*%
X166100000Y-83760000D03*
X164350000Y-83760000D03*
%TD*%
D24*
%TO.C,C20*%
X168000000Y-83697500D03*
X168000000Y-81972500D03*
%TD*%
%TO.C,C21*%
X167800000Y-79597500D03*
X167800000Y-77872500D03*
%TD*%
D14*
%TO.C,C22*%
X177700000Y-78922500D03*
X177700000Y-80647500D03*
%TD*%
D23*
%TO.C,R13*%
X166100000Y-81860000D03*
X164350000Y-81860000D03*
%TD*%
D25*
%TO.C,U15*%
X170125000Y-79675000D03*
X170125000Y-80945000D03*
X170125000Y-82215000D03*
X170125000Y-83485000D03*
X175375000Y-83485000D03*
X175375000Y-82215000D03*
X175375000Y-80945000D03*
X175375000Y-79675000D03*
%TD*%
D24*
%TO.C,C24*%
X173775000Y-96527500D03*
X173775000Y-94802500D03*
%TD*%
%TO.C,C23*%
X173975000Y-100627500D03*
X173975000Y-98902500D03*
%TD*%
D23*
%TO.C,R16*%
X172075000Y-100690000D03*
X170325000Y-100690000D03*
%TD*%
%TO.C,R15*%
X172075000Y-98790000D03*
X170325000Y-98790000D03*
%TD*%
D14*
%TO.C,C25*%
X183675000Y-95852500D03*
X183675000Y-97577500D03*
%TD*%
D25*
%TO.C,U16*%
X176100000Y-96605000D03*
X176100000Y-97875000D03*
X176100000Y-99145000D03*
X176100000Y-100415000D03*
X181350000Y-100415000D03*
X181350000Y-99145000D03*
X181350000Y-97875000D03*
X181350000Y-96605000D03*
%TD*%
D13*
%TO.C,C16*%
X158837500Y-99660000D03*
X160562500Y-99660000D03*
%TD*%
D26*
%TO.C,C17*%
X169962500Y-92500000D03*
X168237500Y-92500000D03*
%TD*%
D19*
%TO.C,R9*%
X160300000Y-95125000D03*
X160300000Y-96875000D03*
%TD*%
D20*
%TO.C,R10*%
X167400000Y-101635000D03*
X167400000Y-99885000D03*
%TD*%
D19*
%TO.C,R11*%
X155400000Y-101725000D03*
X155400000Y-103475000D03*
%TD*%
%TO.C,R12*%
X157200000Y-101725000D03*
X157200000Y-103475000D03*
%TD*%
D27*
%TO.C,U13*%
X162425000Y-94155000D03*
X162425000Y-95425000D03*
X162425000Y-96695000D03*
X162425000Y-97965000D03*
X167375000Y-97965000D03*
X167375000Y-96695000D03*
X167375000Y-95425000D03*
X167375000Y-94155000D03*
%TD*%
D13*
%TO.C,C18*%
X163075000Y-103800000D03*
X164800000Y-103800000D03*
%TD*%
D12*
%TO.C,D2*%
X168650000Y-75300000D03*
X170750000Y-75300000D03*
%TD*%
%TO.C,D1*%
X168650000Y-72900000D03*
X170750000Y-72900000D03*
%TD*%
D28*
%TO.C,U11*%
X158605000Y-77885000D03*
X157335000Y-77885000D03*
X156065000Y-77885000D03*
X154795000Y-77885000D03*
X154795000Y-82835000D03*
X156065000Y-82835000D03*
X157335000Y-82835000D03*
X158605000Y-82835000D03*
%TD*%
D24*
%TO.C,C15*%
X160700000Y-82922500D03*
X160700000Y-81197500D03*
%TD*%
D28*
%TO.C,U12*%
X158605000Y-92585000D03*
X157335000Y-92585000D03*
X156065000Y-92585000D03*
X154795000Y-92585000D03*
X154795000Y-97535000D03*
X156065000Y-97535000D03*
X157335000Y-97535000D03*
X158605000Y-97535000D03*
%TD*%
D29*
%TO.C,U14*%
X161100000Y-101450000D03*
X160150000Y-101450000D03*
X159200000Y-101450000D03*
X159200000Y-103650000D03*
X161100000Y-103650000D03*
%TD*%
D30*
%TO.C,L1*%
X200412500Y-61600000D03*
X203387500Y-61600000D03*
%TD*%
D31*
%TO.C,C31*%
X213500000Y-67362500D03*
X213500000Y-64237500D03*
%TD*%
D32*
%TO.C,J7*%
X151600000Y-73350000D03*
D33*
X150125000Y-71825000D03*
X153075000Y-71825000D03*
%TD*%
D34*
%TO.C,R18*%
X169737500Y-60000000D03*
X171562500Y-60000000D03*
%TD*%
D35*
%TO.C,J8*%
X221800000Y-102200000D03*
X221800000Y-101200000D03*
X221800000Y-100200000D03*
X221800000Y-99200000D03*
D36*
X225675000Y-97900000D03*
X225675000Y-103500000D03*
%TD*%
D37*
%TO.C,C14*%
X146000000Y-101480000D03*
X146000000Y-100520000D03*
%TD*%
D26*
%TO.C,C10*%
X189200000Y-89700000D03*
X187475000Y-89700000D03*
%TD*%
D38*
%TO.C,C1*%
X140180000Y-85000000D03*
X139220000Y-85000000D03*
%TD*%
D39*
%TO.C,J1*%
X115200000Y-85800000D03*
X115200000Y-86800000D03*
X115200000Y-87800000D03*
X115200000Y-88800000D03*
D40*
X111325000Y-90100000D03*
X111325000Y-84500000D03*
%TD*%
D13*
%TO.C,C11*%
X194337500Y-89600000D03*
X196062500Y-89600000D03*
%TD*%
D32*
%TO.C,J12*%
X187100000Y-71650000D03*
D33*
X185625000Y-73175000D03*
X188575000Y-73175000D03*
%TD*%
D41*
%TO.C,U8*%
X144300000Y-87400000D03*
X143800000Y-87400000D03*
X143300000Y-87400000D03*
X142800000Y-87400000D03*
X142300000Y-87400000D03*
X142300000Y-91800000D03*
X142800000Y-91800000D03*
X143300000Y-91800000D03*
X143800000Y-91800000D03*
X144300000Y-91800000D03*
%TD*%
D42*
%TO.C,U1*%
X140850000Y-81850000D03*
X140200000Y-81850000D03*
X139550000Y-81850000D03*
X139550000Y-83750000D03*
X140200000Y-83750000D03*
X140850000Y-83750000D03*
%TD*%
D27*
%TO.C,U6*%
X210125000Y-100565000D03*
X210125000Y-101835000D03*
X210125000Y-103105000D03*
X210125000Y-104375000D03*
X215075000Y-104375000D03*
X215075000Y-103105000D03*
X215075000Y-101835000D03*
X215075000Y-100565000D03*
%TD*%
D43*
%TO.C,C37*%
X173887500Y-59250000D03*
X177012500Y-59250000D03*
%TD*%
D13*
%TO.C,C5*%
X188737500Y-102700000D03*
X190462500Y-102700000D03*
%TD*%
D44*
%TO.C,Q1*%
X182965000Y-65757500D03*
X182965000Y-67657500D03*
X184840000Y-66707500D03*
%TD*%
D45*
%TO.C,C12*%
X145820000Y-87500000D03*
X146780000Y-87500000D03*
%TD*%
D46*
%TO.C,U4*%
X193975000Y-100745000D03*
X193975000Y-99475000D03*
X193975000Y-98205000D03*
X193975000Y-96935000D03*
X193975000Y-95665000D03*
X193975000Y-94395000D03*
X193975000Y-93125000D03*
X193975000Y-91855000D03*
X189025000Y-91855000D03*
X189025000Y-93125000D03*
X189025000Y-94395000D03*
X189025000Y-95665000D03*
X189025000Y-96935000D03*
X189025000Y-98205000D03*
X189025000Y-99475000D03*
X189025000Y-100745000D03*
%TD*%
D13*
%TO.C,C7*%
X196637500Y-100900000D03*
X198362500Y-100900000D03*
%TD*%
D45*
%TO.C,C13*%
X146820000Y-86300000D03*
X147780000Y-86300000D03*
%TD*%
D14*
%TO.C,C35*%
X209500000Y-64237500D03*
X209500000Y-65962500D03*
%TD*%
D47*
%TO.C,C27*%
X203462500Y-58500000D03*
X200337500Y-58500000D03*
%TD*%
D48*
%TO.C,R17*%
X185015000Y-64107500D03*
X183190000Y-64107500D03*
%TD*%
D43*
%TO.C,C36*%
X183037500Y-60200000D03*
X186162500Y-60200000D03*
%TD*%
D49*
%TO.C,Q2*%
X171750000Y-63050000D03*
D50*
X169450000Y-69350000D03*
D49*
X169450000Y-63050000D03*
X167150000Y-63050000D03*
%TD*%
D14*
%TO.C,C32*%
X189702500Y-64345000D03*
X189702500Y-66070000D03*
%TD*%
D41*
%TO.C,U9*%
X146900000Y-84700000D03*
X147400000Y-84700000D03*
X147900000Y-84700000D03*
X148400000Y-84700000D03*
X148900000Y-84700000D03*
X148900000Y-80300000D03*
X148400000Y-80300000D03*
X147900000Y-80300000D03*
X147400000Y-80300000D03*
X146900000Y-80300000D03*
%TD*%
D24*
%TO.C,C8*%
X208000000Y-100362500D03*
X208000000Y-98637500D03*
%TD*%
%TO.C,C19*%
X153700000Y-103462500D03*
X153700000Y-101737500D03*
%TD*%
D14*
%TO.C,C34*%
X191502500Y-64345000D03*
X191502500Y-66070000D03*
%TD*%
D47*
%TO.C,C28*%
X226962500Y-58500000D03*
X223837500Y-58500000D03*
%TD*%
D16*
%TO.C,D3*%
X225100000Y-79250000D03*
X225100000Y-77150000D03*
%TD*%
D51*
%TO.C,J13*%
X167200000Y-58400000D03*
D52*
X165675000Y-59875000D03*
X165675000Y-56925000D03*
%TD*%
D41*
%TO.C,U10*%
X147700000Y-100700000D03*
X148200000Y-100700000D03*
X148700000Y-100700000D03*
X149200000Y-100700000D03*
X149700000Y-100700000D03*
X149700000Y-96300000D03*
X149200000Y-96300000D03*
X148700000Y-96300000D03*
X148200000Y-96300000D03*
X147700000Y-96300000D03*
%TD*%
D30*
%TO.C,L2*%
X223912500Y-61700000D03*
X226887500Y-61700000D03*
%TD*%
D31*
%TO.C,C30*%
X187352500Y-67570000D03*
X187352500Y-64445000D03*
%TD*%
D46*
%TO.C,U7*%
X194275000Y-87805000D03*
X194275000Y-86535000D03*
X194275000Y-85265000D03*
X194275000Y-83995000D03*
X194275000Y-82725000D03*
X194275000Y-81455000D03*
X194275000Y-80185000D03*
X194275000Y-78915000D03*
X189325000Y-78915000D03*
X189325000Y-80185000D03*
X189325000Y-81455000D03*
X189325000Y-82725000D03*
X189325000Y-83995000D03*
X189325000Y-85265000D03*
X189325000Y-86535000D03*
X189325000Y-87805000D03*
%TD*%
D14*
%TO.C,C33*%
X211400000Y-64237500D03*
X211400000Y-65962500D03*
%TD*%
D13*
%TO.C,C9*%
X214837500Y-98500000D03*
X216562500Y-98500000D03*
%TD*%
M02*
