M48
; DRILL file {KiCad (6.0.4-0)} date Wednesday, September 14, 2022 at 01:57:10 PM
; FORMAT={-:-/ absolute / inch / decimal}
; #@! TF.CreationDate,2022-09-14T13:57:10-06:00
; #@! TF.GenerationSoftware,Kicad,Pcbnew,(6.0.4-0)
; #@! TF.FileFunction,Plated,1,2,PTH
FMAT,2
INCH
; #@! TA.AperFunction,Plated,PTH,ViaDrill
T1C0.0157
; #@! TA.AperFunction,Plated,PTH,ComponentDrill
T2C0.0197
; #@! TA.AperFunction,Plated,PTH,ComponentDrill
T3C0.0295
; #@! TA.AperFunction,Plated,PTH,ComponentDrill
T4C0.0315
; #@! TA.AperFunction,Plated,PTH,ComponentDrill
T5C0.0394
; #@! TA.AperFunction,Plated,PTH,ComponentDrill
T6C0.0423
; #@! TA.AperFunction,Plated,PTH,ComponentDrill
T7C0.1260
%
G90
G05
T1
X5.1357Y-4.0127
X5.4646Y-3.3849
X5.4675Y-3.0049
X5.5197Y-3.3819
X5.5571Y-3.3445
X5.5591Y-4.063
X5.6024Y-3.3898
X5.6063Y-3.2165
X5.622Y-3.6732
X5.622Y-4.0709
X5.6422Y-3.3548
X5.6457Y-3.5
X5.6654Y-4.0709
X5.6844Y-3.3127
X5.685Y-3.2234
X5.685Y-3.689
X5.7205Y-2.9961
X5.7323Y-3.5315
X5.7362Y-3.3543
X5.7362Y-3.4055
X5.7638Y-3.8976
X5.7992Y-3.2244
X5.811Y-3.4882
X5.8329Y-3.9033
X5.8346Y-3.1063
X5.8441Y-4.0314
X5.8548Y-3.7052
X5.8622Y-3.3898
X5.8622Y-3.2835
X5.8624Y-3.6065
X5.874Y-3.8386
X5.8858Y-4.0197
X5.9291Y-3.1772
X5.9449Y-4.0787
X6.0354Y-3.063
X6.0945Y-3.9016
X6.1142Y-3.9528
X6.2047Y-3.9354
X6.2992Y-2.8898
X6.3346Y-2.9557
X6.3504Y-2.752
X6.378Y-3.2661
X6.3819Y-3.1953
X6.4213Y-4.0354
X6.4921Y-3.9055
X6.5551Y-3.1323
X6.5669Y-3.6496
X6.7904Y-3.7988
X7.0039Y-3.2307
X7.2323Y-3.7244
X7.2392Y-3.8972
X7.3228Y-3.2598
X7.3228Y-3.3465
X7.3661Y-3.1063
X7.3661Y-3.6181
X7.374Y-3.7677
X7.4252Y-4.0984
X7.4882Y-4.1654
X7.5Y-3.5315
X7.6457Y-2.9803
X7.6457Y-4.0276
X7.6496Y-3.5669
X7.7126Y-3.2559
X7.7156Y-3.2126
X7.7717Y-4.3976
X7.7756Y-3.2559
X7.7795Y-3.5276
X7.7992Y-3.2126
X7.8976Y-2.2323
X7.9921Y-4.3976
X8.0787Y-3.7205
X8.1929Y-4.0079
X8.1929Y-4.0591
X8.1969Y-3.7244
X8.2598Y-3.8071
X8.2717Y-4.248
X8.2717Y-4.3228
X8.5426Y-3.9222
X8.5512Y-3.9606
X8.5512Y-4.0512
X8.622Y-4.2087
X8.6693Y-4.0236
X8.7677Y-2.2913
X8.7953Y-3.9843
X8.7953Y-4.2047
X8.8543Y-3.9843
X9.0118Y-2.3622
T3
X7.0551Y-2.8543
X7.1339Y-2.8543
X8.378Y-4.4862
X8.4567Y-4.4862
X8.6811Y-4.4862
X8.7598Y-4.4862
T4
X7.9992Y-3.1213
X7.9992Y-3.2213
X7.9992Y-3.3213
X7.9992Y-3.4213
X7.9992Y-3.5213
X7.9992Y-3.6213
X7.9992Y-3.7213
X8.5992Y-3.1213
X8.5992Y-3.2213
X8.5992Y-3.3213
X8.5992Y-3.4213
X8.5992Y-3.5213
X8.5992Y-3.6213
X8.5992Y-3.7213
T5
X4.7283Y-3.6781
X4.7283Y-3.7781
X4.8819Y-3.6795
X4.8819Y-3.7795
X5.1575Y-3.685
X5.1575Y-3.8583
X5.2575Y-3.685
X5.2575Y-3.8583
T6
X7.6282Y-2.3265
X7.6282Y-2.4265
X7.6282Y-2.5265
X7.6282Y-2.6265
X8.5394Y-2.3291
X8.5394Y-2.4291
X8.5394Y-2.5291
X8.5394Y-2.6291
T7
X4.4882Y-2.126
X4.4882Y-4.5669
X9.0945Y-2.126
X9.0945Y-4.5669
T2
G00X7.71Y-4.4589
M15
G01X7.71Y-4.4864
M16
G05
G00X7.71Y-4.6085
M15
G01X7.71Y-4.636
M16
G05
G00X8.0502Y-4.4589
M15
G01X8.0502Y-4.4864
M16
G05
G00X8.0502Y-4.6085
M15
G01X8.0502Y-4.636
M16
G05
T0
M30
