%TF.GenerationSoftware,KiCad,Pcbnew,(6.0.4-0)*%
%TF.CreationDate,2022-10-07T09:19:10-06:00*%
%TF.ProjectId,howland,686f776c-616e-4642-9e6b-696361645f70,rev?*%
%TF.SameCoordinates,Original*%
%TF.FileFunction,Soldermask,Top*%
%TF.FilePolarity,Negative*%
%FSLAX46Y46*%
G04 Gerber Fmt 4.6, Leading zero omitted, Abs format (unit mm)*
G04 Created by KiCad (PCBNEW (6.0.4-0)) date 2022-10-07 09:19:10*
%MOMM*%
%LPD*%
G01*
G04 APERTURE LIST*
G04 Aperture macros list*
%AMRoundRect*
0 Rectangle with rounded corners*
0 $1 Rounding radius*
0 $2 $3 $4 $5 $6 $7 $8 $9 X,Y pos of 4 corners*
0 Add a 4 corners polygon primitive as box body*
4,1,4,$2,$3,$4,$5,$6,$7,$8,$9,$2,$3,0*
0 Add four circle primitives for the rounded corners*
1,1,$1+$1,$2,$3*
1,1,$1+$1,$4,$5*
1,1,$1+$1,$6,$7*
1,1,$1+$1,$8,$9*
0 Add four rect primitives between the rounded corners*
20,1,$1+$1,$2,$3,$4,$5,0*
20,1,$1+$1,$4,$5,$6,$7,0*
20,1,$1+$1,$6,$7,$8,$9,0*
20,1,$1+$1,$8,$9,$2,$3,0*%
%AMFreePoly0*
4,1,41,0.586777,0.930194,0.656366,0.874698,0.694986,0.794504,0.700000,0.750000,0.700000,-0.750000,0.680194,-0.836777,0.624698,-0.906366,0.544504,-0.944986,0.500000,-0.950000,0.000000,-0.950000,-0.023504,-0.944635,-0.083606,-0.943534,-0.139582,-0.934468,-0.274897,-0.892193,-0.326080,-0.867780,-0.444090,-0.789225,-0.486362,-0.751429,-0.577582,-0.642910,-0.607548,-0.594768,-0.664643,-0.465009,
-0.679893,-0.410393,-0.697476,-0.275933,-0.697084,-0.275882,-0.700000,-0.250000,-0.700000,0.250000,-0.697921,0.259109,-0.697582,0.286880,-0.675771,0.426957,-0.659192,0.481183,-0.598944,0.609508,-0.567811,0.656904,-0.473967,0.763162,-0.430783,0.799915,-0.310888,0.875563,-0.259125,0.898717,-0.122818,0.937674,-0.066635,0.945370,-0.042411,0.945222,0.000000,0.950000,0.500000,0.950000,
0.586777,0.930194,0.586777,0.930194,$1*%
%AMFreePoly1*
4,1,41,0.022678,0.944824,0.075125,0.944504,0.131210,0.936123,0.267031,0.895504,0.318507,0.871718,0.437469,0.794611,0.480202,0.757333,0.572740,0.649936,0.603290,0.602165,0.661967,0.473113,0.677883,0.418686,0.697980,0.278353,0.700000,0.250000,0.700000,-0.250000,0.699985,-0.252439,0.699836,-0.264655,0.697079,-0.295398,0.673559,-0.435199,0.656318,-0.489221,0.594506,-0.616800,
0.562797,-0.663810,0.467662,-0.768914,0.424032,-0.805137,0.303222,-0.879314,0.251181,-0.901834,0.114408,-0.939123,0.058135,-0.946132,0.037663,-0.945757,0.000000,-0.950000,-0.500000,-0.950000,-0.586777,-0.930194,-0.656366,-0.874698,-0.694986,-0.794504,-0.700000,-0.750000,-0.700000,0.750000,-0.680194,0.836777,-0.624698,0.906366,-0.544504,0.944986,-0.500000,0.950000,0.000000,0.950000,
0.022678,0.944824,0.022678,0.944824,$1*%
G04 Aperture macros list end*
%ADD10RoundRect,0.350000X-0.512500X-0.150000X0.512500X-0.150000X0.512500X0.150000X-0.512500X0.150000X0*%
%ADD11RoundRect,0.200000X0.725000X-0.225000X0.725000X0.225000X-0.725000X0.225000X-0.725000X-0.225000X0*%
%ADD12RoundRect,0.350000X0.512500X0.150000X-0.512500X0.150000X-0.512500X-0.150000X0.512500X-0.150000X0*%
%ADD13RoundRect,0.437500X0.250000X0.237500X-0.250000X0.237500X-0.250000X-0.237500X0.250000X-0.237500X0*%
%ADD14RoundRect,0.450000X0.262500X0.450000X-0.262500X0.450000X-0.262500X-0.450000X0.262500X-0.450000X0*%
%ADD15RoundRect,0.450000X-0.450000X0.262500X-0.450000X-0.262500X0.450000X-0.262500X0.450000X0.262500X0*%
%ADD16RoundRect,0.450000X-0.262500X-0.450000X0.262500X-0.450000X0.262500X0.450000X-0.262500X0.450000X0*%
%ADD17FreePoly0,90.000000*%
%ADD18FreePoly1,90.000000*%
%ADD19RoundRect,0.200000X0.500000X0.500000X-0.500000X0.500000X-0.500000X-0.500000X0.500000X-0.500000X0*%
%ADD20C,1.400000*%
%ADD21RoundRect,0.200000X-0.500000X0.500000X-0.500000X-0.500000X0.500000X-0.500000X0.500000X0.500000X0*%
%ADD22RoundRect,0.437500X-0.300000X-0.237500X0.300000X-0.237500X0.300000X0.237500X-0.300000X0.237500X0*%
%ADD23RoundRect,0.437500X0.237500X-0.300000X0.237500X0.300000X-0.237500X0.300000X-0.237500X-0.300000X0*%
%ADD24C,1.100000*%
%ADD25C,4.800000*%
%ADD26RoundRect,0.347500X0.147500X0.172500X-0.147500X0.172500X-0.147500X-0.172500X0.147500X-0.172500X0*%
%ADD27RoundRect,0.450000X0.325000X0.450000X-0.325000X0.450000X-0.325000X-0.450000X0.325000X-0.450000X0*%
%ADD28RoundRect,0.347500X-0.172500X0.147500X-0.172500X-0.147500X0.172500X-0.147500X0.172500X0.147500X0*%
%ADD29RoundRect,0.347500X-0.147500X-0.172500X0.147500X-0.172500X0.147500X0.172500X-0.147500X0.172500X0*%
%ADD30RoundRect,0.350000X-0.625000X0.150000X-0.625000X-0.150000X0.625000X-0.150000X0.625000X0.150000X0*%
%ADD31RoundRect,0.450000X-0.650000X0.350000X-0.650000X-0.350000X0.650000X-0.350000X0.650000X0.350000X0*%
%ADD32FreePoly0,270.000000*%
%ADD33FreePoly1,270.000000*%
%ADD34RoundRect,0.437500X0.237500X-0.287500X0.237500X0.287500X-0.237500X0.287500X-0.237500X-0.287500X0*%
%ADD35RoundRect,0.350000X0.625000X-0.150000X0.625000X0.150000X-0.625000X0.150000X-0.625000X-0.150000X0*%
%ADD36RoundRect,0.450000X0.650000X-0.350000X0.650000X0.350000X-0.650000X0.350000X-0.650000X-0.350000X0*%
%ADD37RoundRect,0.200000X0.225000X0.725000X-0.225000X0.725000X-0.225000X-0.725000X0.225000X-0.725000X0*%
%ADD38RoundRect,0.200000X0.325000X-0.780000X0.325000X0.780000X-0.325000X0.780000X-0.325000X-0.780000X0*%
%ADD39RoundRect,0.437500X0.300000X0.237500X-0.300000X0.237500X-0.300000X-0.237500X0.300000X-0.237500X0*%
G04 APERTURE END LIST*
D10*
%TO.C,U6*%
X113112500Y-82200000D03*
X113112500Y-83150000D03*
X113112500Y-84100000D03*
X115387500Y-84100000D03*
X115387500Y-82200000D03*
%TD*%
D11*
%TO.C,U5*%
X117950000Y-86025000D03*
X117950000Y-85375000D03*
X117950000Y-84725000D03*
X117950000Y-84075000D03*
X122350000Y-84075000D03*
X122350000Y-84725000D03*
X122350000Y-85375000D03*
X122350000Y-86025000D03*
%TD*%
D12*
%TO.C,U4*%
X127212500Y-83800000D03*
X127212500Y-82850000D03*
X127212500Y-81900000D03*
X129487500Y-81900000D03*
X129487500Y-82850000D03*
X129487500Y-83800000D03*
%TD*%
D13*
%TO.C,R16*%
X110262500Y-85750000D03*
X108437500Y-85750000D03*
%TD*%
D14*
%TO.C,R15*%
X110662500Y-94950000D03*
X108837500Y-94950000D03*
%TD*%
D15*
%TO.C,R14*%
X108050000Y-82337500D03*
X108050000Y-84162500D03*
%TD*%
D14*
%TO.C,R13*%
X98050000Y-62250000D03*
X96225000Y-62250000D03*
%TD*%
%TO.C,R12*%
X115162500Y-86350000D03*
X113337500Y-86350000D03*
%TD*%
D16*
%TO.C,R11*%
X126662500Y-85850000D03*
X124837500Y-85850000D03*
%TD*%
D15*
%TO.C,R10*%
X124950000Y-83762500D03*
X124950000Y-81937500D03*
%TD*%
D17*
%TO.C,JP3*%
X110450000Y-83900000D03*
D18*
X110450000Y-82600000D03*
%TD*%
D19*
%TO.C,J6*%
X94350000Y-63550000D03*
X91550000Y-63550000D03*
X91550000Y-60750000D03*
X94350000Y-60750000D03*
D20*
X92950000Y-62150000D03*
%TD*%
D21*
%TO.C,J5*%
X110250000Y-97350000D03*
X110250000Y-100150000D03*
X107450000Y-100150000D03*
X107450000Y-97350000D03*
D20*
X108850000Y-98750000D03*
%TD*%
D22*
%TO.C,C9*%
X113987500Y-80450000D03*
X115712500Y-80450000D03*
%TD*%
%TO.C,C8*%
X119272500Y-82410000D03*
X117547500Y-82410000D03*
%TD*%
D23*
%TO.C,C7*%
X131450000Y-81950000D03*
X131450000Y-83675000D03*
%TD*%
D24*
%TO.C,MH1*%
X101350000Y-84000000D03*
X103000000Y-82350000D03*
X104166726Y-85166726D03*
X104166726Y-82833274D03*
D25*
X103000000Y-84000000D03*
D24*
X104650000Y-84000000D03*
X101833274Y-82833274D03*
X101833274Y-85166726D03*
X103000000Y-85650000D03*
%TD*%
D25*
%TO.C,MH2*%
X136000000Y-84000000D03*
D24*
X137166726Y-82833274D03*
X134350000Y-84000000D03*
X137650000Y-84000000D03*
X137166726Y-85166726D03*
X136000000Y-82350000D03*
X136000000Y-85650000D03*
X134833274Y-85166726D03*
X134833274Y-82833274D03*
%TD*%
%TO.C,MH3*%
X101833274Y-98166726D03*
D25*
X103000000Y-97000000D03*
D24*
X104166726Y-98166726D03*
X101833274Y-95833274D03*
X104166726Y-95833274D03*
X103000000Y-95350000D03*
X104650000Y-97000000D03*
X101350000Y-97000000D03*
X103000000Y-98650000D03*
%TD*%
D25*
%TO.C,MH4*%
X136000000Y-97000000D03*
D24*
X134833274Y-95833274D03*
X134350000Y-97000000D03*
X137650000Y-97000000D03*
X136000000Y-95350000D03*
X137166726Y-98166726D03*
X137166726Y-95833274D03*
X134833274Y-98166726D03*
X136000000Y-98650000D03*
%TD*%
D26*
%TO.C,R3*%
X111250000Y-90550000D03*
X110280000Y-90550000D03*
%TD*%
%TO.C,R4*%
X111235000Y-91650000D03*
X110265000Y-91650000D03*
%TD*%
D27*
%TO.C,L1*%
X122660000Y-98450000D03*
X120610000Y-98450000D03*
%TD*%
D28*
%TO.C,C1*%
X112650000Y-89565000D03*
X112650000Y-90535000D03*
%TD*%
%TO.C,C2*%
X112650000Y-91650000D03*
X112650000Y-92620000D03*
%TD*%
%TO.C,C3*%
X114050000Y-90590000D03*
X114050000Y-91560000D03*
%TD*%
D29*
%TO.C,C4*%
X124165000Y-88350000D03*
X125135000Y-88350000D03*
%TD*%
D30*
%TO.C,J1*%
X105250000Y-89050000D03*
X105250000Y-90050000D03*
X105250000Y-91050000D03*
X105250000Y-92050000D03*
D31*
X101375000Y-93350000D03*
X101375000Y-87750000D03*
%TD*%
D32*
%TO.C,JP1*%
X107950000Y-88100000D03*
D33*
X107950000Y-89400000D03*
%TD*%
D32*
%TO.C,JP2*%
X107950000Y-91600000D03*
D33*
X107950000Y-92900000D03*
%TD*%
D34*
%TO.C,R1*%
X132050000Y-97375000D03*
X132050000Y-95625000D03*
%TD*%
%TO.C,R2*%
X130400000Y-97375000D03*
X130400000Y-95625000D03*
%TD*%
D35*
%TO.C,J2*%
X133750000Y-92000000D03*
X133750000Y-91000000D03*
X133750000Y-90000000D03*
X133750000Y-89000000D03*
D36*
X137625000Y-87700000D03*
X137625000Y-93300000D03*
%TD*%
D37*
%TO.C,U3*%
X118225000Y-90750000D03*
X117575000Y-90750000D03*
X116925000Y-90750000D03*
X116275000Y-90750000D03*
X116275000Y-95150000D03*
X116925000Y-95150000D03*
X117575000Y-95150000D03*
X118225000Y-95150000D03*
%TD*%
D38*
%TO.C,U1*%
X123200000Y-93000000D03*
X124150000Y-93000000D03*
X125100000Y-93000000D03*
X125100000Y-90300000D03*
X124150000Y-90300000D03*
X123200000Y-90300000D03*
%TD*%
D39*
%TO.C,C6*%
X119112500Y-87850000D03*
X117387500Y-87850000D03*
%TD*%
M02*
