%TF.GenerationSoftware,KiCad,Pcbnew,(6.0.4-0)*%
%TF.CreationDate,2023-01-30T17:36:24-07:00*%
%TF.ProjectId,howland,686f776c-616e-4642-9e6b-696361645f70,rev?*%
%TF.SameCoordinates,Original*%
%TF.FileFunction,Legend,Top*%
%TF.FilePolarity,Positive*%
%FSLAX46Y46*%
G04 Gerber Fmt 4.6, Leading zero omitted, Abs format (unit mm)*
G04 Created by KiCad (PCBNEW (6.0.4-0)) date 2023-01-30 17:36:24*
%MOMM*%
%LPD*%
G01*
G04 APERTURE LIST*
G04 Aperture macros list*
%AMRoundRect*
0 Rectangle with rounded corners*
0 $1 Rounding radius*
0 $2 $3 $4 $5 $6 $7 $8 $9 X,Y pos of 4 corners*
0 Add a 4 corners polygon primitive as box body*
4,1,4,$2,$3,$4,$5,$6,$7,$8,$9,$2,$3,0*
0 Add four circle primitives for the rounded corners*
1,1,$1+$1,$2,$3*
1,1,$1+$1,$4,$5*
1,1,$1+$1,$6,$7*
1,1,$1+$1,$8,$9*
0 Add four rect primitives between the rounded corners*
20,1,$1+$1,$2,$3,$4,$5,0*
20,1,$1+$1,$4,$5,$6,$7,0*
20,1,$1+$1,$6,$7,$8,$9,0*
20,1,$1+$1,$8,$9,$2,$3,0*%
%AMFreePoly0*
4,1,41,0.586777,0.930194,0.656366,0.874698,0.694986,0.794504,0.700000,0.750000,0.700000,-0.750000,0.680194,-0.836777,0.624698,-0.906366,0.544504,-0.944986,0.500000,-0.950000,0.000000,-0.950000,-0.023504,-0.944635,-0.083606,-0.943534,-0.139582,-0.934468,-0.274897,-0.892193,-0.326080,-0.867780,-0.444090,-0.789225,-0.486362,-0.751429,-0.577582,-0.642910,-0.607548,-0.594768,-0.664643,-0.465009,
-0.679893,-0.410393,-0.697476,-0.275933,-0.697084,-0.275882,-0.700000,-0.250000,-0.700000,0.250000,-0.697921,0.259109,-0.697582,0.286880,-0.675771,0.426957,-0.659192,0.481183,-0.598944,0.609508,-0.567811,0.656904,-0.473967,0.763162,-0.430783,0.799915,-0.310888,0.875563,-0.259125,0.898717,-0.122818,0.937674,-0.066635,0.945370,-0.042411,0.945222,0.000000,0.950000,0.500000,0.950000,
0.586777,0.930194,0.586777,0.930194,$1*%
%AMFreePoly1*
4,1,41,0.022678,0.944824,0.075125,0.944504,0.131210,0.936123,0.267031,0.895504,0.318507,0.871718,0.437469,0.794611,0.480202,0.757333,0.572740,0.649936,0.603290,0.602165,0.661967,0.473113,0.677883,0.418686,0.697980,0.278353,0.700000,0.250000,0.700000,-0.250000,0.699985,-0.252439,0.699836,-0.264655,0.697079,-0.295398,0.673559,-0.435199,0.656318,-0.489221,0.594506,-0.616800,
0.562797,-0.663810,0.467662,-0.768914,0.424032,-0.805137,0.303222,-0.879314,0.251181,-0.901834,0.114408,-0.939123,0.058135,-0.946132,0.037663,-0.945757,0.000000,-0.950000,-0.500000,-0.950000,-0.586777,-0.930194,-0.656366,-0.874698,-0.694986,-0.794504,-0.700000,-0.750000,-0.700000,0.750000,-0.680194,0.836777,-0.624698,0.906366,-0.544504,0.944986,-0.500000,0.950000,0.000000,0.950000,
0.022678,0.944824,0.022678,0.944824,$1*%
G04 Aperture macros list end*
%ADD10C,0.150000*%
%ADD11C,0.152000*%
%ADD12C,0.120000*%
%ADD13C,0.254000*%
%ADD14RoundRect,0.350000X0.150000X-0.825000X0.150000X0.825000X-0.150000X0.825000X-0.150000X-0.825000X0*%
%ADD15RoundRect,0.340000X0.170000X-0.140000X0.170000X0.140000X-0.170000X0.140000X-0.170000X-0.140000X0*%
%ADD16C,1.100000*%
%ADD17C,4.800000*%
%ADD18RoundRect,0.347500X0.147500X0.172500X-0.147500X0.172500X-0.147500X-0.172500X0.147500X-0.172500X0*%
%ADD19RoundRect,0.450000X0.325000X0.450000X-0.325000X0.450000X-0.325000X-0.450000X0.325000X-0.450000X0*%
%ADD20RoundRect,0.347500X-0.172500X0.147500X-0.172500X-0.147500X0.172500X-0.147500X0.172500X0.147500X0*%
%ADD21RoundRect,0.347500X-0.147500X-0.172500X0.147500X-0.172500X0.147500X0.172500X-0.147500X0.172500X0*%
%ADD22RoundRect,0.350000X-0.625000X0.150000X-0.625000X-0.150000X0.625000X-0.150000X0.625000X0.150000X0*%
%ADD23RoundRect,0.450000X-0.650000X0.350000X-0.650000X-0.350000X0.650000X-0.350000X0.650000X0.350000X0*%
%ADD24FreePoly0,270.000000*%
%ADD25FreePoly1,270.000000*%
%ADD26RoundRect,0.437500X0.237500X-0.287500X0.237500X0.287500X-0.237500X0.287500X-0.237500X-0.287500X0*%
%ADD27RoundRect,0.350000X0.625000X-0.150000X0.625000X0.150000X-0.625000X0.150000X-0.625000X-0.150000X0*%
%ADD28RoundRect,0.450000X0.650000X-0.350000X0.650000X0.350000X-0.650000X0.350000X-0.650000X-0.350000X0*%
%ADD29RoundRect,0.200000X0.225000X0.725000X-0.225000X0.725000X-0.225000X-0.725000X0.225000X-0.725000X0*%
%ADD30RoundRect,0.350000X-0.512500X-0.150000X0.512500X-0.150000X0.512500X0.150000X-0.512500X0.150000X0*%
%ADD31C,1.400000*%
%ADD32RoundRect,0.200000X-0.500000X0.500000X-0.500000X-0.500000X0.500000X-0.500000X0.500000X0.500000X0*%
%ADD33RoundRect,0.200000X0.325000X-0.780000X0.325000X0.780000X-0.325000X0.780000X-0.325000X-0.780000X0*%
%ADD34RoundRect,0.437500X0.250000X0.237500X-0.250000X0.237500X-0.250000X-0.237500X0.250000X-0.237500X0*%
%ADD35RoundRect,0.450000X-0.262500X-0.450000X0.262500X-0.450000X0.262500X0.450000X-0.262500X0.450000X0*%
%ADD36C,1.840000*%
%ADD37RoundRect,0.350000X0.825000X0.150000X-0.825000X0.150000X-0.825000X-0.150000X0.825000X-0.150000X0*%
%ADD38RoundRect,0.437500X-0.300000X-0.237500X0.300000X-0.237500X0.300000X0.237500X-0.300000X0.237500X0*%
%ADD39RoundRect,0.450000X0.262500X0.450000X-0.262500X0.450000X-0.262500X-0.450000X0.262500X-0.450000X0*%
%ADD40RoundRect,0.450000X-0.450000X0.262500X-0.450000X-0.262500X0.450000X-0.262500X0.450000X0.262500X0*%
%ADD41RoundRect,0.437500X0.300000X0.237500X-0.300000X0.237500X-0.300000X-0.237500X0.300000X-0.237500X0*%
%ADD42FreePoly0,90.000000*%
%ADD43FreePoly1,90.000000*%
%ADD44RoundRect,0.350000X0.512500X0.150000X-0.512500X0.150000X-0.512500X-0.150000X0.512500X-0.150000X0*%
G04 APERTURE END LIST*
D10*
X105326190Y-86402380D02*
X105326190Y-85402380D01*
X105802380Y-86402380D02*
X105802380Y-85402380D01*
X106373809Y-86402380D01*
X106373809Y-85402380D01*
X112085595Y-100397380D02*
X112085595Y-99397380D01*
X112514166Y-100397380D02*
X112514166Y-99873571D01*
X112466547Y-99778333D01*
X112371309Y-99730714D01*
X112228452Y-99730714D01*
X112133214Y-99778333D01*
X112085595Y-99825952D01*
X113133214Y-100397380D02*
X113037976Y-100349761D01*
X112990357Y-100302142D01*
X112942738Y-100206904D01*
X112942738Y-99921190D01*
X112990357Y-99825952D01*
X113037976Y-99778333D01*
X113133214Y-99730714D01*
X113276071Y-99730714D01*
X113371309Y-99778333D01*
X113418928Y-99825952D01*
X113466547Y-99921190D01*
X113466547Y-100206904D01*
X113418928Y-100302142D01*
X113371309Y-100349761D01*
X113276071Y-100397380D01*
X113133214Y-100397380D01*
X113799880Y-99730714D02*
X113990357Y-100397380D01*
X114180833Y-99921190D01*
X114371309Y-100397380D01*
X114561785Y-99730714D01*
X115085595Y-100397380D02*
X114990357Y-100349761D01*
X114942738Y-100254523D01*
X114942738Y-99397380D01*
X115895119Y-100397380D02*
X115895119Y-99873571D01*
X115847500Y-99778333D01*
X115752261Y-99730714D01*
X115561785Y-99730714D01*
X115466547Y-99778333D01*
X115895119Y-100349761D02*
X115799880Y-100397380D01*
X115561785Y-100397380D01*
X115466547Y-100349761D01*
X115418928Y-100254523D01*
X115418928Y-100159285D01*
X115466547Y-100064047D01*
X115561785Y-100016428D01*
X115799880Y-100016428D01*
X115895119Y-99968809D01*
X116371309Y-99730714D02*
X116371309Y-100397380D01*
X116371309Y-99825952D02*
X116418928Y-99778333D01*
X116514166Y-99730714D01*
X116657023Y-99730714D01*
X116752261Y-99778333D01*
X116799880Y-99873571D01*
X116799880Y-100397380D01*
X117704642Y-100397380D02*
X117704642Y-99397380D01*
X117704642Y-100349761D02*
X117609404Y-100397380D01*
X117418928Y-100397380D01*
X117323690Y-100349761D01*
X117276071Y-100302142D01*
X117228452Y-100206904D01*
X117228452Y-99921190D01*
X117276071Y-99825952D01*
X117323690Y-99778333D01*
X117418928Y-99730714D01*
X117609404Y-99730714D01*
X117704642Y-99778333D01*
X119371309Y-100397380D02*
X119371309Y-99397380D01*
X119371309Y-100349761D02*
X119276071Y-100397380D01*
X119085595Y-100397380D01*
X118990357Y-100349761D01*
X118942738Y-100302142D01*
X118895119Y-100206904D01*
X118895119Y-99921190D01*
X118942738Y-99825952D01*
X118990357Y-99778333D01*
X119085595Y-99730714D01*
X119276071Y-99730714D01*
X119371309Y-99778333D01*
X119847500Y-100397380D02*
X119847500Y-99730714D01*
X119847500Y-99397380D02*
X119799880Y-99445000D01*
X119847500Y-99492619D01*
X119895119Y-99445000D01*
X119847500Y-99397380D01*
X119847500Y-99492619D01*
X120466547Y-100397380D02*
X120371309Y-100349761D01*
X120323690Y-100302142D01*
X120276071Y-100206904D01*
X120276071Y-99921190D01*
X120323690Y-99825952D01*
X120371309Y-99778333D01*
X120466547Y-99730714D01*
X120609404Y-99730714D01*
X120704642Y-99778333D01*
X120752261Y-99825952D01*
X120799880Y-99921190D01*
X120799880Y-100206904D01*
X120752261Y-100302142D01*
X120704642Y-100349761D01*
X120609404Y-100397380D01*
X120466547Y-100397380D01*
X121657023Y-100397380D02*
X121657023Y-99397380D01*
X121657023Y-100349761D02*
X121561785Y-100397380D01*
X121371309Y-100397380D01*
X121276071Y-100349761D01*
X121228452Y-100302142D01*
X121180833Y-100206904D01*
X121180833Y-99921190D01*
X121228452Y-99825952D01*
X121276071Y-99778333D01*
X121371309Y-99730714D01*
X121561785Y-99730714D01*
X121657023Y-99778333D01*
X122514166Y-100349761D02*
X122418928Y-100397380D01*
X122228452Y-100397380D01*
X122133214Y-100349761D01*
X122085595Y-100254523D01*
X122085595Y-99873571D01*
X122133214Y-99778333D01*
X122228452Y-99730714D01*
X122418928Y-99730714D01*
X122514166Y-99778333D01*
X122561785Y-99873571D01*
X122561785Y-99968809D01*
X122085595Y-100064047D01*
X112371309Y-101007380D02*
X112371309Y-101721666D01*
X112323690Y-101864523D01*
X112228452Y-101959761D01*
X112085595Y-102007380D01*
X111990357Y-102007380D01*
X113276071Y-102007380D02*
X113276071Y-101483571D01*
X113228452Y-101388333D01*
X113133214Y-101340714D01*
X112942738Y-101340714D01*
X112847500Y-101388333D01*
X113276071Y-101959761D02*
X113180833Y-102007380D01*
X112942738Y-102007380D01*
X112847500Y-101959761D01*
X112799880Y-101864523D01*
X112799880Y-101769285D01*
X112847500Y-101674047D01*
X112942738Y-101626428D01*
X113180833Y-101626428D01*
X113276071Y-101578809D01*
X113752261Y-101340714D02*
X113752261Y-102007380D01*
X113752261Y-101435952D02*
X113799880Y-101388333D01*
X113895119Y-101340714D01*
X114037976Y-101340714D01*
X114133214Y-101388333D01*
X114180833Y-101483571D01*
X114180833Y-102007380D01*
X115371309Y-101102619D02*
X115418928Y-101055000D01*
X115514166Y-101007380D01*
X115752261Y-101007380D01*
X115847500Y-101055000D01*
X115895119Y-101102619D01*
X115942738Y-101197857D01*
X115942738Y-101293095D01*
X115895119Y-101435952D01*
X115323690Y-102007380D01*
X115942738Y-102007380D01*
X116561785Y-101007380D02*
X116657023Y-101007380D01*
X116752261Y-101055000D01*
X116799880Y-101102619D01*
X116847500Y-101197857D01*
X116895119Y-101388333D01*
X116895119Y-101626428D01*
X116847500Y-101816904D01*
X116799880Y-101912142D01*
X116752261Y-101959761D01*
X116657023Y-102007380D01*
X116561785Y-102007380D01*
X116466547Y-101959761D01*
X116418928Y-101912142D01*
X116371309Y-101816904D01*
X116323690Y-101626428D01*
X116323690Y-101388333D01*
X116371309Y-101197857D01*
X116418928Y-101102619D01*
X116466547Y-101055000D01*
X116561785Y-101007380D01*
X117276071Y-101102619D02*
X117323690Y-101055000D01*
X117418928Y-101007380D01*
X117657023Y-101007380D01*
X117752261Y-101055000D01*
X117799880Y-101102619D01*
X117847500Y-101197857D01*
X117847500Y-101293095D01*
X117799880Y-101435952D01*
X117228452Y-102007380D01*
X117847500Y-102007380D01*
X118180833Y-101007380D02*
X118799880Y-101007380D01*
X118466547Y-101388333D01*
X118609404Y-101388333D01*
X118704642Y-101435952D01*
X118752261Y-101483571D01*
X118799880Y-101578809D01*
X118799880Y-101816904D01*
X118752261Y-101912142D01*
X118704642Y-101959761D01*
X118609404Y-102007380D01*
X118323690Y-102007380D01*
X118228452Y-101959761D01*
X118180833Y-101912142D01*
X133050000Y-93802380D02*
X133240476Y-93802380D01*
X133335714Y-93850000D01*
X133430952Y-93945238D01*
X133478571Y-94135714D01*
X133478571Y-94469047D01*
X133430952Y-94659523D01*
X133335714Y-94754761D01*
X133240476Y-94802380D01*
X133050000Y-94802380D01*
X132954761Y-94754761D01*
X132859523Y-94659523D01*
X132811904Y-94469047D01*
X132811904Y-94135714D01*
X132859523Y-93945238D01*
X132954761Y-93850000D01*
X133050000Y-93802380D01*
X133907142Y-93802380D02*
X133907142Y-94611904D01*
X133954761Y-94707142D01*
X134002380Y-94754761D01*
X134097619Y-94802380D01*
X134288095Y-94802380D01*
X134383333Y-94754761D01*
X134430952Y-94707142D01*
X134478571Y-94611904D01*
X134478571Y-93802380D01*
X134811904Y-93802380D02*
X135383333Y-93802380D01*
X135097619Y-94802380D02*
X135097619Y-93802380D01*
%TO.C,U1*%
X122902380Y-102011904D02*
X123711904Y-102011904D01*
X123807142Y-101964285D01*
X123854761Y-101916666D01*
X123902380Y-101821428D01*
X123902380Y-101630952D01*
X123854761Y-101535714D01*
X123807142Y-101488095D01*
X123711904Y-101440476D01*
X122902380Y-101440476D01*
X123902380Y-100440476D02*
X123902380Y-101011904D01*
X123902380Y-100726190D02*
X122902380Y-100726190D01*
X123045238Y-100821428D01*
X123140476Y-100916666D01*
X123188095Y-101011904D01*
%TO.C,C1*%
X122507142Y-95816666D02*
X122554761Y-95864285D01*
X122602380Y-96007142D01*
X122602380Y-96102380D01*
X122554761Y-96245238D01*
X122459523Y-96340476D01*
X122364285Y-96388095D01*
X122173809Y-96435714D01*
X122030952Y-96435714D01*
X121840476Y-96388095D01*
X121745238Y-96340476D01*
X121650000Y-96245238D01*
X121602380Y-96102380D01*
X121602380Y-96007142D01*
X121650000Y-95864285D01*
X121697619Y-95816666D01*
X122602380Y-94864285D02*
X122602380Y-95435714D01*
X122602380Y-95150000D02*
X121602380Y-95150000D01*
X121745238Y-95245238D01*
X121840476Y-95340476D01*
X121888095Y-95435714D01*
%TO.C,MH1*%
X100316666Y-80502380D02*
X100316666Y-79502380D01*
X100650000Y-80216666D01*
X100983333Y-79502380D01*
X100983333Y-80502380D01*
X101459523Y-80502380D02*
X101459523Y-79502380D01*
X101459523Y-79978571D02*
X102030952Y-79978571D01*
X102030952Y-80502380D02*
X102030952Y-79502380D01*
X103030952Y-80502380D02*
X102459523Y-80502380D01*
X102745238Y-80502380D02*
X102745238Y-79502380D01*
X102650000Y-79645238D01*
X102554761Y-79740476D01*
X102459523Y-79788095D01*
%TO.C,MH2*%
X138602380Y-82183333D02*
X137602380Y-82183333D01*
X138316666Y-81850000D01*
X137602380Y-81516666D01*
X138602380Y-81516666D01*
X138602380Y-81040476D02*
X137602380Y-81040476D01*
X138078571Y-81040476D02*
X138078571Y-80469047D01*
X138602380Y-80469047D02*
X137602380Y-80469047D01*
X137697619Y-80040476D02*
X137650000Y-79992857D01*
X137602380Y-79897619D01*
X137602380Y-79659523D01*
X137650000Y-79564285D01*
X137697619Y-79516666D01*
X137792857Y-79469047D01*
X137888095Y-79469047D01*
X138030952Y-79516666D01*
X138602380Y-80088095D01*
X138602380Y-79469047D01*
%TO.C,MH3*%
X101616666Y-100902380D02*
X101616666Y-99902380D01*
X101950000Y-100616666D01*
X102283333Y-99902380D01*
X102283333Y-100902380D01*
X102759523Y-100902380D02*
X102759523Y-99902380D01*
X102759523Y-100378571D02*
X103330952Y-100378571D01*
X103330952Y-100902380D02*
X103330952Y-99902380D01*
X103711904Y-99902380D02*
X104330952Y-99902380D01*
X103997619Y-100283333D01*
X104140476Y-100283333D01*
X104235714Y-100330952D01*
X104283333Y-100378571D01*
X104330952Y-100473809D01*
X104330952Y-100711904D01*
X104283333Y-100807142D01*
X104235714Y-100854761D01*
X104140476Y-100902380D01*
X103854761Y-100902380D01*
X103759523Y-100854761D01*
X103711904Y-100807142D01*
%TO.C,MH4*%
X134816666Y-100602380D02*
X134816666Y-99602380D01*
X135150000Y-100316666D01*
X135483333Y-99602380D01*
X135483333Y-100602380D01*
X135959523Y-100602380D02*
X135959523Y-99602380D01*
X135959523Y-100078571D02*
X136530952Y-100078571D01*
X136530952Y-100602380D02*
X136530952Y-99602380D01*
X137435714Y-99935714D02*
X137435714Y-100602380D01*
X137197619Y-99554761D02*
X136959523Y-100269047D01*
X137578571Y-100269047D01*
%TO.C,R3*%
X111083333Y-89902380D02*
X110750000Y-89426190D01*
X110511904Y-89902380D02*
X110511904Y-88902380D01*
X110892857Y-88902380D01*
X110988095Y-88950000D01*
X111035714Y-88997619D01*
X111083333Y-89092857D01*
X111083333Y-89235714D01*
X111035714Y-89330952D01*
X110988095Y-89378571D01*
X110892857Y-89426190D01*
X110511904Y-89426190D01*
X111416666Y-88902380D02*
X112035714Y-88902380D01*
X111702380Y-89283333D01*
X111845238Y-89283333D01*
X111940476Y-89330952D01*
X111988095Y-89378571D01*
X112035714Y-89473809D01*
X112035714Y-89711904D01*
X111988095Y-89807142D01*
X111940476Y-89854761D01*
X111845238Y-89902380D01*
X111559523Y-89902380D01*
X111464285Y-89854761D01*
X111416666Y-89807142D01*
%TO.C,R4*%
X110583333Y-93272380D02*
X110250000Y-92796190D01*
X110011904Y-93272380D02*
X110011904Y-92272380D01*
X110392857Y-92272380D01*
X110488095Y-92320000D01*
X110535714Y-92367619D01*
X110583333Y-92462857D01*
X110583333Y-92605714D01*
X110535714Y-92700952D01*
X110488095Y-92748571D01*
X110392857Y-92796190D01*
X110011904Y-92796190D01*
X111440476Y-92605714D02*
X111440476Y-93272380D01*
X111202380Y-92224761D02*
X110964285Y-92939047D01*
X111583333Y-92939047D01*
%TO.C,L1*%
X118783333Y-99202380D02*
X118307142Y-99202380D01*
X118307142Y-98202380D01*
X119640476Y-99202380D02*
X119069047Y-99202380D01*
X119354761Y-99202380D02*
X119354761Y-98202380D01*
X119259523Y-98345238D01*
X119164285Y-98440476D01*
X119069047Y-98488095D01*
%TO.C,C2*%
X113207142Y-88416666D02*
X113254761Y-88464285D01*
X113302380Y-88607142D01*
X113302380Y-88702380D01*
X113254761Y-88845238D01*
X113159523Y-88940476D01*
X113064285Y-88988095D01*
X112873809Y-89035714D01*
X112730952Y-89035714D01*
X112540476Y-88988095D01*
X112445238Y-88940476D01*
X112350000Y-88845238D01*
X112302380Y-88702380D01*
X112302380Y-88607142D01*
X112350000Y-88464285D01*
X112397619Y-88416666D01*
X112397619Y-88035714D02*
X112350000Y-87988095D01*
X112302380Y-87892857D01*
X112302380Y-87654761D01*
X112350000Y-87559523D01*
X112397619Y-87511904D01*
X112492857Y-87464285D01*
X112588095Y-87464285D01*
X112730952Y-87511904D01*
X113302380Y-88083333D01*
X113302380Y-87464285D01*
%TO.C,C3*%
X114207142Y-93616666D02*
X114254761Y-93664285D01*
X114302380Y-93807142D01*
X114302380Y-93902380D01*
X114254761Y-94045238D01*
X114159523Y-94140476D01*
X114064285Y-94188095D01*
X113873809Y-94235714D01*
X113730952Y-94235714D01*
X113540476Y-94188095D01*
X113445238Y-94140476D01*
X113350000Y-94045238D01*
X113302380Y-93902380D01*
X113302380Y-93807142D01*
X113350000Y-93664285D01*
X113397619Y-93616666D01*
X113302380Y-93283333D02*
X113302380Y-92664285D01*
X113683333Y-92997619D01*
X113683333Y-92854761D01*
X113730952Y-92759523D01*
X113778571Y-92711904D01*
X113873809Y-92664285D01*
X114111904Y-92664285D01*
X114207142Y-92711904D01*
X114254761Y-92759523D01*
X114302380Y-92854761D01*
X114302380Y-93140476D01*
X114254761Y-93235714D01*
X114207142Y-93283333D01*
%TO.C,C4*%
X114435714Y-89483333D02*
X114473809Y-89521428D01*
X114511904Y-89635714D01*
X114511904Y-89711904D01*
X114473809Y-89826190D01*
X114397619Y-89902380D01*
X114321428Y-89940476D01*
X114169047Y-89978571D01*
X114054761Y-89978571D01*
X113902380Y-89940476D01*
X113826190Y-89902380D01*
X113750000Y-89826190D01*
X113711904Y-89711904D01*
X113711904Y-89635714D01*
X113750000Y-89521428D01*
X113788095Y-89483333D01*
X113978571Y-88797619D02*
X114511904Y-88797619D01*
X113673809Y-88988095D02*
X114245238Y-89178571D01*
X114245238Y-88683333D01*
%TO.C,C5*%
X126683333Y-89007142D02*
X126635714Y-89054761D01*
X126492857Y-89102380D01*
X126397619Y-89102380D01*
X126254761Y-89054761D01*
X126159523Y-88959523D01*
X126111904Y-88864285D01*
X126064285Y-88673809D01*
X126064285Y-88530952D01*
X126111904Y-88340476D01*
X126159523Y-88245238D01*
X126254761Y-88150000D01*
X126397619Y-88102380D01*
X126492857Y-88102380D01*
X126635714Y-88150000D01*
X126683333Y-88197619D01*
X127588095Y-88102380D02*
X127111904Y-88102380D01*
X127064285Y-88578571D01*
X127111904Y-88530952D01*
X127207142Y-88483333D01*
X127445238Y-88483333D01*
X127540476Y-88530952D01*
X127588095Y-88578571D01*
X127635714Y-88673809D01*
X127635714Y-88911904D01*
X127588095Y-89007142D01*
X127540476Y-89054761D01*
X127445238Y-89102380D01*
X127207142Y-89102380D01*
X127111904Y-89054761D01*
X127064285Y-89007142D01*
%TO.C,J1*%
X105302380Y-95783333D02*
X106016666Y-95783333D01*
X106159523Y-95830952D01*
X106254761Y-95926190D01*
X106302380Y-96069047D01*
X106302380Y-96164285D01*
X106302380Y-94783333D02*
X106302380Y-95354761D01*
X106302380Y-95069047D02*
X105302380Y-95069047D01*
X105445238Y-95164285D01*
X105540476Y-95259523D01*
X105588095Y-95354761D01*
%TO.C,JP1*%
X109511904Y-89316666D02*
X110083333Y-89316666D01*
X110197619Y-89354761D01*
X110273809Y-89430952D01*
X110311904Y-89545238D01*
X110311904Y-89621428D01*
X110311904Y-88935714D02*
X109511904Y-88935714D01*
X109511904Y-88630952D01*
X109550000Y-88554761D01*
X109588095Y-88516666D01*
X109664285Y-88478571D01*
X109778571Y-88478571D01*
X109854761Y-88516666D01*
X109892857Y-88554761D01*
X109930952Y-88630952D01*
X109930952Y-88935714D01*
X110311904Y-87716666D02*
X110311904Y-88173809D01*
X110311904Y-87945238D02*
X109511904Y-87945238D01*
X109626190Y-88021428D01*
X109702380Y-88097619D01*
X109740476Y-88173809D01*
%TO.C,JP2*%
X106702380Y-96083333D02*
X107416666Y-96083333D01*
X107559523Y-96130952D01*
X107654761Y-96226190D01*
X107702380Y-96369047D01*
X107702380Y-96464285D01*
X107702380Y-95607142D02*
X106702380Y-95607142D01*
X106702380Y-95226190D01*
X106750000Y-95130952D01*
X106797619Y-95083333D01*
X106892857Y-95035714D01*
X107035714Y-95035714D01*
X107130952Y-95083333D01*
X107178571Y-95130952D01*
X107226190Y-95226190D01*
X107226190Y-95607142D01*
X106797619Y-94654761D02*
X106750000Y-94607142D01*
X106702380Y-94511904D01*
X106702380Y-94273809D01*
X106750000Y-94178571D01*
X106797619Y-94130952D01*
X106892857Y-94083333D01*
X106988095Y-94083333D01*
X107130952Y-94130952D01*
X107702380Y-94702380D01*
X107702380Y-94083333D01*
%TO.C,R1*%
X132502380Y-99316666D02*
X132026190Y-99650000D01*
X132502380Y-99888095D02*
X131502380Y-99888095D01*
X131502380Y-99507142D01*
X131550000Y-99411904D01*
X131597619Y-99364285D01*
X131692857Y-99316666D01*
X131835714Y-99316666D01*
X131930952Y-99364285D01*
X131978571Y-99411904D01*
X132026190Y-99507142D01*
X132026190Y-99888095D01*
X132502380Y-98364285D02*
X132502380Y-98935714D01*
X132502380Y-98650000D02*
X131502380Y-98650000D01*
X131645238Y-98745238D01*
X131740476Y-98840476D01*
X131788095Y-98935714D01*
%TO.C,R2*%
X130902380Y-99316666D02*
X130426190Y-99650000D01*
X130902380Y-99888095D02*
X129902380Y-99888095D01*
X129902380Y-99507142D01*
X129950000Y-99411904D01*
X129997619Y-99364285D01*
X130092857Y-99316666D01*
X130235714Y-99316666D01*
X130330952Y-99364285D01*
X130378571Y-99411904D01*
X130426190Y-99507142D01*
X130426190Y-99888095D01*
X129997619Y-98935714D02*
X129950000Y-98888095D01*
X129902380Y-98792857D01*
X129902380Y-98554761D01*
X129950000Y-98459523D01*
X129997619Y-98411904D01*
X130092857Y-98364285D01*
X130188095Y-98364285D01*
X130330952Y-98411904D01*
X130902380Y-98983333D01*
X130902380Y-98364285D01*
%TO.C,J2*%
X131222380Y-90833333D02*
X131936666Y-90833333D01*
X132079523Y-90880952D01*
X132174761Y-90976190D01*
X132222380Y-91119047D01*
X132222380Y-91214285D01*
X131317619Y-90404761D02*
X131270000Y-90357142D01*
X131222380Y-90261904D01*
X131222380Y-90023809D01*
X131270000Y-89928571D01*
X131317619Y-89880952D01*
X131412857Y-89833333D01*
X131508095Y-89833333D01*
X131650952Y-89880952D01*
X132222380Y-90452380D01*
X132222380Y-89833333D01*
%TO.C,U3*%
X119202380Y-93711904D02*
X120011904Y-93711904D01*
X120107142Y-93664285D01*
X120154761Y-93616666D01*
X120202380Y-93521428D01*
X120202380Y-93330952D01*
X120154761Y-93235714D01*
X120107142Y-93188095D01*
X120011904Y-93140476D01*
X119202380Y-93140476D01*
X119202380Y-92759523D02*
X119202380Y-92140476D01*
X119583333Y-92473809D01*
X119583333Y-92330952D01*
X119630952Y-92235714D01*
X119678571Y-92188095D01*
X119773809Y-92140476D01*
X120011904Y-92140476D01*
X120107142Y-92188095D01*
X120154761Y-92235714D01*
X120202380Y-92330952D01*
X120202380Y-92616666D01*
X120154761Y-92711904D01*
X120107142Y-92759523D01*
%TO.C,U6*%
X111388095Y-79902380D02*
X111388095Y-80711904D01*
X111435714Y-80807142D01*
X111483333Y-80854761D01*
X111578571Y-80902380D01*
X111769047Y-80902380D01*
X111864285Y-80854761D01*
X111911904Y-80807142D01*
X111959523Y-80711904D01*
X111959523Y-79902380D01*
X112864285Y-79902380D02*
X112673809Y-79902380D01*
X112578571Y-79950000D01*
X112530952Y-79997619D01*
X112435714Y-80140476D01*
X112388095Y-80330952D01*
X112388095Y-80711904D01*
X112435714Y-80807142D01*
X112483333Y-80854761D01*
X112578571Y-80902380D01*
X112769047Y-80902380D01*
X112864285Y-80854761D01*
X112911904Y-80807142D01*
X112959523Y-80711904D01*
X112959523Y-80473809D01*
X112911904Y-80378571D01*
X112864285Y-80330952D01*
X112769047Y-80283333D01*
X112578571Y-80283333D01*
X112483333Y-80330952D01*
X112435714Y-80378571D01*
X112388095Y-80473809D01*
D11*
%TO.C,J3*%
X111424071Y-98509514D02*
X112240500Y-98509514D01*
X112403785Y-98563942D01*
X112512642Y-98672800D01*
X112567071Y-98836085D01*
X112567071Y-98944942D01*
X111424071Y-98074085D02*
X111424071Y-97366514D01*
X111859500Y-97747514D01*
X111859500Y-97584228D01*
X111913928Y-97475371D01*
X111968357Y-97420942D01*
X112077214Y-97366514D01*
X112349357Y-97366514D01*
X112458214Y-97420942D01*
X112512642Y-97475371D01*
X112567071Y-97584228D01*
X112567071Y-97910800D01*
X112512642Y-98019657D01*
X112458214Y-98074085D01*
D10*
%TO.C,U2*%
X120202380Y-95611904D02*
X121011904Y-95611904D01*
X121107142Y-95564285D01*
X121154761Y-95516666D01*
X121202380Y-95421428D01*
X121202380Y-95230952D01*
X121154761Y-95135714D01*
X121107142Y-95088095D01*
X121011904Y-95040476D01*
X120202380Y-95040476D01*
X120297619Y-94611904D02*
X120250000Y-94564285D01*
X120202380Y-94469047D01*
X120202380Y-94230952D01*
X120250000Y-94135714D01*
X120297619Y-94088095D01*
X120392857Y-94040476D01*
X120488095Y-94040476D01*
X120630952Y-94088095D01*
X121202380Y-94659523D01*
X121202380Y-94040476D01*
%TO.C,R10*%
X110135714Y-87411904D02*
X109869047Y-87030952D01*
X109678571Y-87411904D02*
X109678571Y-86611904D01*
X109983333Y-86611904D01*
X110059523Y-86650000D01*
X110097619Y-86688095D01*
X110135714Y-86764285D01*
X110135714Y-86878571D01*
X110097619Y-86954761D01*
X110059523Y-86992857D01*
X109983333Y-87030952D01*
X109678571Y-87030952D01*
X110897619Y-87411904D02*
X110440476Y-87411904D01*
X110669047Y-87411904D02*
X110669047Y-86611904D01*
X110592857Y-86726190D01*
X110516666Y-86802380D01*
X110440476Y-86840476D01*
X111392857Y-86611904D02*
X111469047Y-86611904D01*
X111545238Y-86650000D01*
X111583333Y-86688095D01*
X111621428Y-86764285D01*
X111659523Y-86916666D01*
X111659523Y-87107142D01*
X111621428Y-87259523D01*
X111583333Y-87335714D01*
X111545238Y-87373809D01*
X111469047Y-87411904D01*
X111392857Y-87411904D01*
X111316666Y-87373809D01*
X111278571Y-87335714D01*
X111240476Y-87259523D01*
X111202380Y-87107142D01*
X111202380Y-86916666D01*
X111240476Y-86764285D01*
X111278571Y-86688095D01*
X111316666Y-86650000D01*
X111392857Y-86611904D01*
%TO.C,R6*%
X130683333Y-79902380D02*
X130350000Y-79426190D01*
X130111904Y-79902380D02*
X130111904Y-78902380D01*
X130492857Y-78902380D01*
X130588095Y-78950000D01*
X130635714Y-78997619D01*
X130683333Y-79092857D01*
X130683333Y-79235714D01*
X130635714Y-79330952D01*
X130588095Y-79378571D01*
X130492857Y-79426190D01*
X130111904Y-79426190D01*
X131540476Y-78902380D02*
X131350000Y-78902380D01*
X131254761Y-78950000D01*
X131207142Y-78997619D01*
X131111904Y-79140476D01*
X131064285Y-79330952D01*
X131064285Y-79711904D01*
X131111904Y-79807142D01*
X131159523Y-79854761D01*
X131254761Y-79902380D01*
X131445238Y-79902380D01*
X131540476Y-79854761D01*
X131588095Y-79807142D01*
X131635714Y-79711904D01*
X131635714Y-79473809D01*
X131588095Y-79378571D01*
X131540476Y-79330952D01*
X131445238Y-79283333D01*
X131254761Y-79283333D01*
X131159523Y-79330952D01*
X131111904Y-79378571D01*
X131064285Y-79473809D01*
%TO.C,RV1*%
X123702380Y-80545238D02*
X123226190Y-80878571D01*
X123702380Y-81116666D02*
X122702380Y-81116666D01*
X122702380Y-80735714D01*
X122750000Y-80640476D01*
X122797619Y-80592857D01*
X122892857Y-80545238D01*
X123035714Y-80545238D01*
X123130952Y-80592857D01*
X123178571Y-80640476D01*
X123226190Y-80735714D01*
X123226190Y-81116666D01*
X122702380Y-80259523D02*
X123702380Y-79926190D01*
X122702380Y-79592857D01*
X123702380Y-78735714D02*
X123702380Y-79307142D01*
X123702380Y-79021428D02*
X122702380Y-79021428D01*
X122845238Y-79116666D01*
X122940476Y-79211904D01*
X122988095Y-79307142D01*
%TO.C,U5*%
X122088095Y-87202380D02*
X122088095Y-88011904D01*
X122135714Y-88107142D01*
X122183333Y-88154761D01*
X122278571Y-88202380D01*
X122469047Y-88202380D01*
X122564285Y-88154761D01*
X122611904Y-88107142D01*
X122659523Y-88011904D01*
X122659523Y-87202380D01*
X123611904Y-87202380D02*
X123135714Y-87202380D01*
X123088095Y-87678571D01*
X123135714Y-87630952D01*
X123230952Y-87583333D01*
X123469047Y-87583333D01*
X123564285Y-87630952D01*
X123611904Y-87678571D01*
X123659523Y-87773809D01*
X123659523Y-88011904D01*
X123611904Y-88107142D01*
X123564285Y-88154761D01*
X123469047Y-88202380D01*
X123230952Y-88202380D01*
X123135714Y-88154761D01*
X123088095Y-88107142D01*
%TO.C,C8*%
X119983333Y-89707142D02*
X119935714Y-89754761D01*
X119792857Y-89802380D01*
X119697619Y-89802380D01*
X119554761Y-89754761D01*
X119459523Y-89659523D01*
X119411904Y-89564285D01*
X119364285Y-89373809D01*
X119364285Y-89230952D01*
X119411904Y-89040476D01*
X119459523Y-88945238D01*
X119554761Y-88850000D01*
X119697619Y-88802380D01*
X119792857Y-88802380D01*
X119935714Y-88850000D01*
X119983333Y-88897619D01*
X120554761Y-89230952D02*
X120459523Y-89183333D01*
X120411904Y-89135714D01*
X120364285Y-89040476D01*
X120364285Y-88992857D01*
X120411904Y-88897619D01*
X120459523Y-88850000D01*
X120554761Y-88802380D01*
X120745238Y-88802380D01*
X120840476Y-88850000D01*
X120888095Y-88897619D01*
X120935714Y-88992857D01*
X120935714Y-89040476D01*
X120888095Y-89135714D01*
X120840476Y-89183333D01*
X120745238Y-89230952D01*
X120554761Y-89230952D01*
X120459523Y-89278571D01*
X120411904Y-89326190D01*
X120364285Y-89421428D01*
X120364285Y-89611904D01*
X120411904Y-89707142D01*
X120459523Y-89754761D01*
X120554761Y-89802380D01*
X120745238Y-89802380D01*
X120840476Y-89754761D01*
X120888095Y-89707142D01*
X120935714Y-89611904D01*
X120935714Y-89421428D01*
X120888095Y-89326190D01*
X120840476Y-89278571D01*
X120745238Y-89230952D01*
%TO.C,R9*%
X112783333Y-95602380D02*
X112450000Y-95126190D01*
X112211904Y-95602380D02*
X112211904Y-94602380D01*
X112592857Y-94602380D01*
X112688095Y-94650000D01*
X112735714Y-94697619D01*
X112783333Y-94792857D01*
X112783333Y-94935714D01*
X112735714Y-95030952D01*
X112688095Y-95078571D01*
X112592857Y-95126190D01*
X112211904Y-95126190D01*
X113259523Y-95602380D02*
X113450000Y-95602380D01*
X113545238Y-95554761D01*
X113592857Y-95507142D01*
X113688095Y-95364285D01*
X113735714Y-95173809D01*
X113735714Y-94792857D01*
X113688095Y-94697619D01*
X113640476Y-94650000D01*
X113545238Y-94602380D01*
X113354761Y-94602380D01*
X113259523Y-94650000D01*
X113211904Y-94697619D01*
X113164285Y-94792857D01*
X113164285Y-95030952D01*
X113211904Y-95126190D01*
X113259523Y-95173809D01*
X113354761Y-95221428D01*
X113545238Y-95221428D01*
X113640476Y-95173809D01*
X113688095Y-95126190D01*
X113735714Y-95030952D01*
%TO.C,R8*%
X106902380Y-81916666D02*
X106426190Y-82250000D01*
X106902380Y-82488095D02*
X105902380Y-82488095D01*
X105902380Y-82107142D01*
X105950000Y-82011904D01*
X105997619Y-81964285D01*
X106092857Y-81916666D01*
X106235714Y-81916666D01*
X106330952Y-81964285D01*
X106378571Y-82011904D01*
X106426190Y-82107142D01*
X106426190Y-82488095D01*
X106330952Y-81345238D02*
X106283333Y-81440476D01*
X106235714Y-81488095D01*
X106140476Y-81535714D01*
X106092857Y-81535714D01*
X105997619Y-81488095D01*
X105950000Y-81440476D01*
X105902380Y-81345238D01*
X105902380Y-81154761D01*
X105950000Y-81059523D01*
X105997619Y-81011904D01*
X106092857Y-80964285D01*
X106140476Y-80964285D01*
X106235714Y-81011904D01*
X106283333Y-81059523D01*
X106330952Y-81154761D01*
X106330952Y-81345238D01*
X106378571Y-81440476D01*
X106426190Y-81488095D01*
X106521428Y-81535714D01*
X106711904Y-81535714D01*
X106807142Y-81488095D01*
X106854761Y-81440476D01*
X106902380Y-81345238D01*
X106902380Y-81154761D01*
X106854761Y-81059523D01*
X106807142Y-81011904D01*
X106711904Y-80964285D01*
X106521428Y-80964285D01*
X106426190Y-81011904D01*
X106378571Y-81059523D01*
X106330952Y-81154761D01*
%TO.C,R5*%
X129683333Y-87502380D02*
X129350000Y-87026190D01*
X129111904Y-87502380D02*
X129111904Y-86502380D01*
X129492857Y-86502380D01*
X129588095Y-86550000D01*
X129635714Y-86597619D01*
X129683333Y-86692857D01*
X129683333Y-86835714D01*
X129635714Y-86930952D01*
X129588095Y-86978571D01*
X129492857Y-87026190D01*
X129111904Y-87026190D01*
X130588095Y-86502380D02*
X130111904Y-86502380D01*
X130064285Y-86978571D01*
X130111904Y-86930952D01*
X130207142Y-86883333D01*
X130445238Y-86883333D01*
X130540476Y-86930952D01*
X130588095Y-86978571D01*
X130635714Y-87073809D01*
X130635714Y-87311904D01*
X130588095Y-87407142D01*
X130540476Y-87454761D01*
X130445238Y-87502380D01*
X130207142Y-87502380D01*
X130111904Y-87454761D01*
X130064285Y-87407142D01*
%TO.C,R7*%
X114883333Y-88402380D02*
X114550000Y-87926190D01*
X114311904Y-88402380D02*
X114311904Y-87402380D01*
X114692857Y-87402380D01*
X114788095Y-87450000D01*
X114835714Y-87497619D01*
X114883333Y-87592857D01*
X114883333Y-87735714D01*
X114835714Y-87830952D01*
X114788095Y-87878571D01*
X114692857Y-87926190D01*
X114311904Y-87926190D01*
X115216666Y-87402380D02*
X115883333Y-87402380D01*
X115454761Y-88402380D01*
%TO.C,C6*%
X114383333Y-97807142D02*
X114335714Y-97854761D01*
X114192857Y-97902380D01*
X114097619Y-97902380D01*
X113954761Y-97854761D01*
X113859523Y-97759523D01*
X113811904Y-97664285D01*
X113764285Y-97473809D01*
X113764285Y-97330952D01*
X113811904Y-97140476D01*
X113859523Y-97045238D01*
X113954761Y-96950000D01*
X114097619Y-96902380D01*
X114192857Y-96902380D01*
X114335714Y-96950000D01*
X114383333Y-96997619D01*
X115240476Y-96902380D02*
X115050000Y-96902380D01*
X114954761Y-96950000D01*
X114907142Y-96997619D01*
X114811904Y-97140476D01*
X114764285Y-97330952D01*
X114764285Y-97711904D01*
X114811904Y-97807142D01*
X114859523Y-97854761D01*
X114954761Y-97902380D01*
X115145238Y-97902380D01*
X115240476Y-97854761D01*
X115288095Y-97807142D01*
X115335714Y-97711904D01*
X115335714Y-97473809D01*
X115288095Y-97378571D01*
X115240476Y-97330952D01*
X115145238Y-97283333D01*
X114954761Y-97283333D01*
X114859523Y-97330952D01*
X114811904Y-97378571D01*
X114764285Y-97473809D01*
%TO.C,JP3*%
X110011904Y-81116666D02*
X110583333Y-81116666D01*
X110697619Y-81154761D01*
X110773809Y-81230952D01*
X110811904Y-81345238D01*
X110811904Y-81421428D01*
X110811904Y-80735714D02*
X110011904Y-80735714D01*
X110011904Y-80430952D01*
X110050000Y-80354761D01*
X110088095Y-80316666D01*
X110164285Y-80278571D01*
X110278571Y-80278571D01*
X110354761Y-80316666D01*
X110392857Y-80354761D01*
X110430952Y-80430952D01*
X110430952Y-80735714D01*
X110011904Y-80011904D02*
X110011904Y-79516666D01*
X110316666Y-79783333D01*
X110316666Y-79669047D01*
X110354761Y-79592857D01*
X110392857Y-79554761D01*
X110469047Y-79516666D01*
X110659523Y-79516666D01*
X110735714Y-79554761D01*
X110773809Y-79592857D01*
X110811904Y-79669047D01*
X110811904Y-79897619D01*
X110773809Y-79973809D01*
X110735714Y-80011904D01*
%TO.C,C9*%
X117283333Y-80307142D02*
X117235714Y-80354761D01*
X117092857Y-80402380D01*
X116997619Y-80402380D01*
X116854761Y-80354761D01*
X116759523Y-80259523D01*
X116711904Y-80164285D01*
X116664285Y-79973809D01*
X116664285Y-79830952D01*
X116711904Y-79640476D01*
X116759523Y-79545238D01*
X116854761Y-79450000D01*
X116997619Y-79402380D01*
X117092857Y-79402380D01*
X117235714Y-79450000D01*
X117283333Y-79497619D01*
X117759523Y-80402380D02*
X117950000Y-80402380D01*
X118045238Y-80354761D01*
X118092857Y-80307142D01*
X118188095Y-80164285D01*
X118235714Y-79973809D01*
X118235714Y-79592857D01*
X118188095Y-79497619D01*
X118140476Y-79450000D01*
X118045238Y-79402380D01*
X117854761Y-79402380D01*
X117759523Y-79450000D01*
X117711904Y-79497619D01*
X117664285Y-79592857D01*
X117664285Y-79830952D01*
X117711904Y-79926190D01*
X117759523Y-79973809D01*
X117854761Y-80021428D01*
X118045238Y-80021428D01*
X118140476Y-79973809D01*
X118188095Y-79926190D01*
X118235714Y-79830952D01*
%TO.C,U4*%
X130788095Y-86102380D02*
X130788095Y-86911904D01*
X130835714Y-87007142D01*
X130883333Y-87054761D01*
X130978571Y-87102380D01*
X131169047Y-87102380D01*
X131264285Y-87054761D01*
X131311904Y-87007142D01*
X131359523Y-86911904D01*
X131359523Y-86102380D01*
X132264285Y-86435714D02*
X132264285Y-87102380D01*
X132026190Y-86054761D02*
X131788095Y-86769047D01*
X132407142Y-86769047D01*
%TO.C,C7*%
X134520833Y-79407142D02*
X134473214Y-79454761D01*
X134330357Y-79502380D01*
X134235119Y-79502380D01*
X134092261Y-79454761D01*
X133997023Y-79359523D01*
X133949404Y-79264285D01*
X133901785Y-79073809D01*
X133901785Y-78930952D01*
X133949404Y-78740476D01*
X133997023Y-78645238D01*
X134092261Y-78550000D01*
X134235119Y-78502380D01*
X134330357Y-78502380D01*
X134473214Y-78550000D01*
X134520833Y-78597619D01*
X134854166Y-78502380D02*
X135520833Y-78502380D01*
X135092261Y-79502380D01*
D12*
%TO.C,U1*%
X124290000Y-98050000D02*
X124290000Y-96100000D01*
X129410000Y-98050000D02*
X129410000Y-96100000D01*
X124290000Y-98050000D02*
X124290000Y-101500000D01*
X129410000Y-98050000D02*
X129410000Y-100000000D01*
%TO.C,C1*%
X123810000Y-96257836D02*
X123810000Y-96042164D01*
X123090000Y-96257836D02*
X123090000Y-96042164D01*
%TO.C,L1*%
X121896252Y-99160000D02*
X121373748Y-99160000D01*
X121896252Y-97740000D02*
X121373748Y-97740000D01*
%TO.C,J1*%
X102535000Y-87440000D02*
X105035000Y-87440000D01*
X100565000Y-88610000D02*
X100565000Y-92490000D01*
X102535000Y-93660000D02*
X105035000Y-93660000D01*
X105035000Y-87440000D02*
X105035000Y-88490000D01*
X105035000Y-93660000D02*
X105035000Y-92610000D01*
X105035000Y-88490000D02*
X106025000Y-88490000D01*
%TO.C,JP1*%
X108250000Y-90150000D02*
X107650000Y-90150000D01*
X106950000Y-89450000D02*
X106950000Y-88050000D01*
X108950000Y-88050000D02*
X108950000Y-89450000D01*
X107650000Y-87350000D02*
X108250000Y-87350000D01*
X106950000Y-89450000D02*
G75*
G03*
X107650000Y-90150000I700000J0D01*
G01*
X107650000Y-87350000D02*
G75*
G03*
X106950000Y-88050000I-1J-699999D01*
G01*
X108250000Y-90150000D02*
G75*
G03*
X108950000Y-89450000I0J700000D01*
G01*
X108950000Y-88050000D02*
G75*
G03*
X108250000Y-87350000I-699999J1D01*
G01*
%TO.C,JP2*%
X108250000Y-93650000D02*
X107650000Y-93650000D01*
X107650000Y-90850000D02*
X108250000Y-90850000D01*
X106950000Y-92950000D02*
X106950000Y-91550000D01*
X108950000Y-91550000D02*
X108950000Y-92950000D01*
X106950000Y-92950000D02*
G75*
G03*
X107650000Y-93650000I700000J0D01*
G01*
X107650000Y-90850000D02*
G75*
G03*
X106950000Y-91550000I-1J-699999D01*
G01*
X108950000Y-91550000D02*
G75*
G03*
X108250000Y-90850000I-699999J1D01*
G01*
X108250000Y-93650000D02*
G75*
G03*
X108950000Y-92950000I0J700000D01*
G01*
%TO.C,R1*%
X131540000Y-96671267D02*
X131540000Y-96328733D01*
X132560000Y-96671267D02*
X132560000Y-96328733D01*
%TO.C,R2*%
X129890000Y-96671267D02*
X129890000Y-96328733D01*
X130910000Y-96671267D02*
X130910000Y-96328733D01*
%TO.C,J2*%
X136465000Y-87390000D02*
X133965000Y-87390000D01*
X136465000Y-93610000D02*
X133965000Y-93610000D01*
X133965000Y-93610000D02*
X133965000Y-92560000D01*
X133965000Y-87390000D02*
X133965000Y-88440000D01*
X138435000Y-92440000D02*
X138435000Y-88560000D01*
X133965000Y-92560000D02*
X132975000Y-92560000D01*
%TO.C,U3*%
X115630000Y-93950000D02*
X115630000Y-91950000D01*
X118870000Y-92950000D02*
X118870000Y-89950000D01*
%TO.C,U6*%
X114250000Y-84710000D02*
X113450000Y-84710000D01*
X114250000Y-81590000D02*
X112450000Y-81590000D01*
X114250000Y-84710000D02*
X115050000Y-84710000D01*
X114250000Y-81590000D02*
X115050000Y-81590000D01*
D13*
%TO.C,J3*%
X109519000Y-96972000D02*
X108181000Y-96972000D01*
X108181000Y-100528000D02*
X109519000Y-100528000D01*
X107072000Y-98081000D02*
X107072000Y-99419000D01*
X110628000Y-99419000D02*
X110628000Y-98081000D01*
X109817000Y-98750000D02*
G75*
G03*
X109817000Y-98750000I-967000J0D01*
G01*
D12*
%TO.C,U2*%
X120940000Y-90750000D02*
X120940000Y-93700000D01*
X124160000Y-92550000D02*
X124160000Y-90750000D01*
%TO.C,R10*%
X109604724Y-85227500D02*
X109095276Y-85227500D01*
X109604724Y-86272500D02*
X109095276Y-86272500D01*
%TO.C,R6*%
X130822936Y-81885000D02*
X131277064Y-81885000D01*
X130822936Y-80415000D02*
X131277064Y-80415000D01*
%TO.C,RV1*%
X124150000Y-80335000D02*
X124150000Y-87285000D01*
X128890000Y-87285000D02*
X128245000Y-87285000D01*
X128890000Y-80335000D02*
X128890000Y-87285000D01*
X127255000Y-87285000D02*
X124150000Y-87285000D01*
X127255000Y-80335000D02*
X124150000Y-80335000D01*
X128890000Y-80335000D02*
X128245000Y-80335000D01*
%TO.C,U5*%
X120150000Y-86810000D02*
X123600000Y-86810000D01*
X120150000Y-81690000D02*
X122100000Y-81690000D01*
X120150000Y-81690000D02*
X118200000Y-81690000D01*
X120150000Y-86810000D02*
X118200000Y-86810000D01*
%TO.C,C8*%
X118103733Y-88460000D02*
X118396267Y-88460000D01*
X118103733Y-87440000D02*
X118396267Y-87440000D01*
%TO.C,R9*%
X109977064Y-94215000D02*
X109522936Y-94215000D01*
X109977064Y-95685000D02*
X109522936Y-95685000D01*
%TO.C,R8*%
X107315000Y-83022936D02*
X107315000Y-83477064D01*
X108785000Y-83022936D02*
X108785000Y-83477064D01*
%TO.C,R5*%
X129777064Y-87915000D02*
X129322936Y-87915000D01*
X129777064Y-89385000D02*
X129322936Y-89385000D01*
%TO.C,R7*%
X114477064Y-85615000D02*
X114022936Y-85615000D01*
X114477064Y-87085000D02*
X114022936Y-87085000D01*
%TO.C,C6*%
X117496267Y-97860000D02*
X117203733Y-97860000D01*
X117496267Y-96840000D02*
X117203733Y-96840000D01*
%TO.C,JP3*%
X110150000Y-81850000D02*
X110750000Y-81850000D01*
X110750000Y-84650000D02*
X110150000Y-84650000D01*
X109450000Y-83950000D02*
X109450000Y-82550000D01*
X111450000Y-82550000D02*
X111450000Y-83950000D01*
X110750000Y-84650000D02*
G75*
G03*
X111450000Y-83950000I1J699999D01*
G01*
X110150000Y-81850000D02*
G75*
G03*
X109450000Y-82550000I0J-700000D01*
G01*
X111450000Y-82550000D02*
G75*
G03*
X110750000Y-81850000I-700000J0D01*
G01*
X109450000Y-83950000D02*
G75*
G03*
X110150000Y-84650000I699999J-1D01*
G01*
%TO.C,C9*%
X114703733Y-79940000D02*
X114996267Y-79940000D01*
X114703733Y-80960000D02*
X114996267Y-80960000D01*
%TO.C,U4*%
X131350000Y-85747500D02*
X133150000Y-85747500D01*
X131350000Y-82627500D02*
X132150000Y-82627500D01*
X131350000Y-85747500D02*
X130550000Y-85747500D01*
X131350000Y-82627500D02*
X130550000Y-82627500D01*
%TO.C,C7*%
X134896267Y-80040000D02*
X134603733Y-80040000D01*
X134896267Y-81060000D02*
X134603733Y-81060000D01*
%TD*%
%LPC*%
D14*
%TO.C,U1*%
X124945000Y-100525000D03*
X126215000Y-100525000D03*
X127485000Y-100525000D03*
X128755000Y-100525000D03*
X128755000Y-95575000D03*
X127485000Y-95575000D03*
X126215000Y-95575000D03*
X124945000Y-95575000D03*
%TD*%
D15*
%TO.C,C1*%
X123450000Y-96630000D03*
X123450000Y-95670000D03*
%TD*%
D16*
%TO.C,MH1*%
X101350000Y-84000000D03*
X103000000Y-82350000D03*
X104166726Y-85166726D03*
X104166726Y-82833274D03*
D17*
X103000000Y-84000000D03*
D16*
X104650000Y-84000000D03*
X101833274Y-82833274D03*
X101833274Y-85166726D03*
X103000000Y-85650000D03*
%TD*%
D17*
%TO.C,MH2*%
X136000000Y-84000000D03*
D16*
X137166726Y-82833274D03*
X134350000Y-84000000D03*
X137650000Y-84000000D03*
X137166726Y-85166726D03*
X136000000Y-82350000D03*
X136000000Y-85650000D03*
X134833274Y-85166726D03*
X134833274Y-82833274D03*
%TD*%
%TO.C,MH3*%
X101833274Y-98166726D03*
D17*
X103000000Y-97000000D03*
D16*
X104166726Y-98166726D03*
X101833274Y-95833274D03*
X104166726Y-95833274D03*
X103000000Y-95350000D03*
X104650000Y-97000000D03*
X101350000Y-97000000D03*
X103000000Y-98650000D03*
%TD*%
D17*
%TO.C,MH4*%
X136000000Y-97000000D03*
D16*
X134833274Y-95833274D03*
X134350000Y-97000000D03*
X137650000Y-97000000D03*
X136000000Y-95350000D03*
X137166726Y-98166726D03*
X137166726Y-95833274D03*
X134833274Y-98166726D03*
X136000000Y-98650000D03*
%TD*%
D18*
%TO.C,R3*%
X111250000Y-90550000D03*
X110280000Y-90550000D03*
%TD*%
%TO.C,R4*%
X111235000Y-91650000D03*
X110265000Y-91650000D03*
%TD*%
D19*
%TO.C,L1*%
X122660000Y-98450000D03*
X120610000Y-98450000D03*
%TD*%
D20*
%TO.C,C2*%
X112650000Y-89565000D03*
X112650000Y-90535000D03*
%TD*%
%TO.C,C3*%
X112650000Y-91650000D03*
X112650000Y-92620000D03*
%TD*%
%TO.C,C4*%
X114050000Y-90590000D03*
X114050000Y-91560000D03*
%TD*%
D21*
%TO.C,C5*%
X124165000Y-88350000D03*
X125135000Y-88350000D03*
%TD*%
D22*
%TO.C,J1*%
X105250000Y-89050000D03*
X105250000Y-90050000D03*
X105250000Y-91050000D03*
X105250000Y-92050000D03*
D23*
X101375000Y-93350000D03*
X101375000Y-87750000D03*
%TD*%
D24*
%TO.C,JP1*%
X107950000Y-88100000D03*
D25*
X107950000Y-89400000D03*
%TD*%
D24*
%TO.C,JP2*%
X107950000Y-91600000D03*
D25*
X107950000Y-92900000D03*
%TD*%
D26*
%TO.C,R1*%
X132050000Y-97375000D03*
X132050000Y-95625000D03*
%TD*%
%TO.C,R2*%
X130400000Y-97375000D03*
X130400000Y-95625000D03*
%TD*%
D27*
%TO.C,J2*%
X133750000Y-92000000D03*
X133750000Y-91000000D03*
X133750000Y-90000000D03*
X133750000Y-89000000D03*
D28*
X137625000Y-87700000D03*
X137625000Y-93300000D03*
%TD*%
D29*
%TO.C,U3*%
X118225000Y-90750000D03*
X117575000Y-90750000D03*
X116925000Y-90750000D03*
X116275000Y-90750000D03*
X116275000Y-95150000D03*
X116925000Y-95150000D03*
X117575000Y-95150000D03*
X118225000Y-95150000D03*
%TD*%
D30*
%TO.C,U6*%
X113112500Y-82200000D03*
X113112500Y-83150000D03*
X113112500Y-84100000D03*
X115387500Y-84100000D03*
X115387500Y-82200000D03*
%TD*%
D31*
%TO.C,J3*%
X108850000Y-98750000D03*
D32*
X110250000Y-97350000D03*
X107450000Y-100150000D03*
X107450000Y-97350000D03*
X110250000Y-100150000D03*
%TD*%
D33*
%TO.C,U2*%
X121600000Y-93000000D03*
X122550000Y-93000000D03*
X123500000Y-93000000D03*
X123500000Y-90300000D03*
X122550000Y-90300000D03*
X121600000Y-90300000D03*
%TD*%
D34*
%TO.C,R10*%
X110262500Y-85750000D03*
X108437500Y-85750000D03*
%TD*%
D35*
%TO.C,R6*%
X130137500Y-81150000D03*
X131962500Y-81150000D03*
%TD*%
D36*
%TO.C,RV1*%
X127750000Y-86350000D03*
X125210000Y-83810000D03*
X127750000Y-81270000D03*
%TD*%
D37*
%TO.C,U5*%
X122625000Y-86155000D03*
X122625000Y-84885000D03*
X122625000Y-83615000D03*
X122625000Y-82345000D03*
X117675000Y-82345000D03*
X117675000Y-83615000D03*
X117675000Y-84885000D03*
X117675000Y-86155000D03*
%TD*%
D38*
%TO.C,C8*%
X117387500Y-87950000D03*
X119112500Y-87950000D03*
%TD*%
D39*
%TO.C,R9*%
X110662500Y-94950000D03*
X108837500Y-94950000D03*
%TD*%
D40*
%TO.C,R8*%
X108050000Y-82337500D03*
X108050000Y-84162500D03*
%TD*%
D39*
%TO.C,R5*%
X130462500Y-88650000D03*
X128637500Y-88650000D03*
%TD*%
%TO.C,R7*%
X115162500Y-86350000D03*
X113337500Y-86350000D03*
%TD*%
D41*
%TO.C,C6*%
X118212500Y-97350000D03*
X116487500Y-97350000D03*
%TD*%
D42*
%TO.C,JP3*%
X110450000Y-83900000D03*
D43*
X110450000Y-82600000D03*
%TD*%
D38*
%TO.C,C9*%
X113987500Y-80450000D03*
X115712500Y-80450000D03*
%TD*%
D44*
%TO.C,U4*%
X132487500Y-85137500D03*
X132487500Y-84187500D03*
X132487500Y-83237500D03*
X130212500Y-83237500D03*
X130212500Y-84187500D03*
X130212500Y-85137500D03*
%TD*%
D41*
%TO.C,C7*%
X135612500Y-80550000D03*
X133887500Y-80550000D03*
%TD*%
M02*
