%TF.GenerationSoftware,KiCad,Pcbnew,(6.0.4-0)*%
%TF.CreationDate,2023-08-08T10:08:01-06:00*%
%TF.ProjectId,howland,686f776c-616e-4642-9e6b-696361645f70,rev?*%
%TF.SameCoordinates,Original*%
%TF.FileFunction,Legend,Bot*%
%TF.FilePolarity,Positive*%
%FSLAX46Y46*%
G04 Gerber Fmt 4.6, Leading zero omitted, Abs format (unit mm)*
G04 Created by KiCad (PCBNEW (6.0.4-0)) date 2023-08-08 10:08:01*
%MOMM*%
%LPD*%
G01*
G04 APERTURE LIST*
G04 Aperture macros list*
%AMRoundRect*
0 Rectangle with rounded corners*
0 $1 Rounding radius*
0 $2 $3 $4 $5 $6 $7 $8 $9 X,Y pos of 4 corners*
0 Add a 4 corners polygon primitive as box body*
4,1,4,$2,$3,$4,$5,$6,$7,$8,$9,$2,$3,0*
0 Add four circle primitives for the rounded corners*
1,1,$1+$1,$2,$3*
1,1,$1+$1,$4,$5*
1,1,$1+$1,$6,$7*
1,1,$1+$1,$8,$9*
0 Add four rect primitives between the rounded corners*
20,1,$1+$1,$2,$3,$4,$5,0*
20,1,$1+$1,$4,$5,$6,$7,0*
20,1,$1+$1,$6,$7,$8,$9,0*
20,1,$1+$1,$8,$9,$2,$3,0*%
G04 Aperture macros list end*
%ADD10C,0.150000*%
%ADD11C,0.120000*%
%ADD12C,1.100000*%
%ADD13C,4.800000*%
%ADD14C,1.840000*%
%ADD15RoundRect,0.350000X-0.625000X0.150000X-0.625000X-0.150000X0.625000X-0.150000X0.625000X0.150000X0*%
%ADD16RoundRect,0.450000X-0.650000X0.350000X-0.650000X-0.350000X0.650000X-0.350000X0.650000X0.350000X0*%
G04 APERTURE END LIST*
D10*
%TO.C,J3*%
X131222380Y-90166666D02*
X131936666Y-90166666D01*
X132079523Y-90119047D01*
X132174761Y-90023809D01*
X132222380Y-89880952D01*
X132222380Y-89785714D01*
X131222380Y-90547619D02*
X131222380Y-91166666D01*
X131603333Y-90833333D01*
X131603333Y-90976190D01*
X131650952Y-91071428D01*
X131698571Y-91119047D01*
X131793809Y-91166666D01*
X132031904Y-91166666D01*
X132127142Y-91119047D01*
X132174761Y-91071428D01*
X132222380Y-90976190D01*
X132222380Y-90690476D01*
X132174761Y-90595238D01*
X132127142Y-90547619D01*
D11*
X136465000Y-87390000D02*
X133965000Y-87390000D01*
X133965000Y-87390000D02*
X133965000Y-88440000D01*
X133965000Y-88440000D02*
X132975000Y-88440000D01*
X136465000Y-93610000D02*
X133965000Y-93610000D01*
X138435000Y-88560000D02*
X138435000Y-92440000D01*
X133965000Y-93610000D02*
X133965000Y-92560000D01*
%TD*%
%LPC*%
D12*
%TO.C,MH1*%
X101350000Y-84000000D03*
X103000000Y-82350000D03*
X104166726Y-85166726D03*
X104166726Y-82833274D03*
D13*
X103000000Y-84000000D03*
D12*
X104650000Y-84000000D03*
X101833274Y-82833274D03*
X101833274Y-85166726D03*
X103000000Y-85650000D03*
%TD*%
D13*
%TO.C,MH2*%
X136000000Y-84000000D03*
D12*
X137166726Y-82833274D03*
X134350000Y-84000000D03*
X137650000Y-84000000D03*
X137166726Y-85166726D03*
X136000000Y-82350000D03*
X136000000Y-85650000D03*
X134833274Y-85166726D03*
X134833274Y-82833274D03*
%TD*%
%TO.C,MH3*%
X101833274Y-98166726D03*
D13*
X103000000Y-97000000D03*
D12*
X104166726Y-98166726D03*
X101833274Y-95833274D03*
X104166726Y-95833274D03*
X103000000Y-95350000D03*
X104650000Y-97000000D03*
X101350000Y-97000000D03*
X103000000Y-98650000D03*
%TD*%
D13*
%TO.C,MH4*%
X136000000Y-97000000D03*
D12*
X134833274Y-95833274D03*
X134350000Y-97000000D03*
X137650000Y-97000000D03*
X136000000Y-95350000D03*
X137166726Y-98166726D03*
X137166726Y-95833274D03*
X134833274Y-98166726D03*
X136000000Y-98650000D03*
%TD*%
D14*
%TO.C,RV1*%
X127550000Y-86350000D03*
X125010000Y-83810000D03*
X127550000Y-81270000D03*
%TD*%
D15*
%TO.C,J3*%
X133750000Y-89000000D03*
X133750000Y-90000000D03*
X133750000Y-91000000D03*
X133750000Y-92000000D03*
D16*
X137625000Y-87700000D03*
X137625000Y-93300000D03*
%TD*%
M02*
