%TF.GenerationSoftware,KiCad,Pcbnew,(6.0.4-0)*%
%TF.CreationDate,2023-08-08T10:08:01-06:00*%
%TF.ProjectId,howland,686f776c-616e-4642-9e6b-696361645f70,rev?*%
%TF.SameCoordinates,Original*%
%TF.FileFunction,Copper,L4,Bot*%
%TF.FilePolarity,Positive*%
%FSLAX46Y46*%
G04 Gerber Fmt 4.6, Leading zero omitted, Abs format (unit mm)*
G04 Created by KiCad (PCBNEW (6.0.4-0)) date 2023-08-08 10:08:01*
%MOMM*%
%LPD*%
G01*
G04 APERTURE LIST*
G04 Aperture macros list*
%AMRoundRect*
0 Rectangle with rounded corners*
0 $1 Rounding radius*
0 $2 $3 $4 $5 $6 $7 $8 $9 X,Y pos of 4 corners*
0 Add a 4 corners polygon primitive as box body*
4,1,4,$2,$3,$4,$5,$6,$7,$8,$9,$2,$3,0*
0 Add four circle primitives for the rounded corners*
1,1,$1+$1,$2,$3*
1,1,$1+$1,$4,$5*
1,1,$1+$1,$6,$7*
1,1,$1+$1,$8,$9*
0 Add four rect primitives between the rounded corners*
20,1,$1+$1,$2,$3,$4,$5,0*
20,1,$1+$1,$4,$5,$6,$7,0*
20,1,$1+$1,$6,$7,$8,$9,0*
20,1,$1+$1,$8,$9,$2,$3,0*%
G04 Aperture macros list end*
%TA.AperFunction,ComponentPad*%
%ADD10C,0.700000*%
%TD*%
%TA.AperFunction,ComponentPad*%
%ADD11C,4.400000*%
%TD*%
%TA.AperFunction,ComponentPad*%
%ADD12C,1.440000*%
%TD*%
%TA.AperFunction,SMDPad,CuDef*%
%ADD13RoundRect,0.150000X-0.625000X0.150000X-0.625000X-0.150000X0.625000X-0.150000X0.625000X0.150000X0*%
%TD*%
%TA.AperFunction,SMDPad,CuDef*%
%ADD14RoundRect,0.250000X-0.650000X0.350000X-0.650000X-0.350000X0.650000X-0.350000X0.650000X0.350000X0*%
%TD*%
%TA.AperFunction,ViaPad*%
%ADD15C,0.600000*%
%TD*%
%TA.AperFunction,Conductor*%
%ADD16C,0.250000*%
%TD*%
G04 APERTURE END LIST*
D10*
%TO.P,MH1,1,Pin_1*%
%TO.N,GNDPWR*%
X101350000Y-84000000D03*
X103000000Y-82350000D03*
X104166726Y-85166726D03*
X104166726Y-82833274D03*
D11*
X103000000Y-84000000D03*
D10*
X104650000Y-84000000D03*
X101833274Y-82833274D03*
X101833274Y-85166726D03*
X103000000Y-85650000D03*
%TD*%
D11*
%TO.P,MH2,1,Pin_1*%
%TO.N,GNDPWR*%
X136000000Y-84000000D03*
D10*
X137166726Y-82833274D03*
X134350000Y-84000000D03*
X137650000Y-84000000D03*
X137166726Y-85166726D03*
X136000000Y-82350000D03*
X136000000Y-85650000D03*
X134833274Y-85166726D03*
X134833274Y-82833274D03*
%TD*%
%TO.P,MH3,1,Pin_1*%
%TO.N,GNDPWR*%
X101833274Y-98166726D03*
D11*
X103000000Y-97000000D03*
D10*
X104166726Y-98166726D03*
X101833274Y-95833274D03*
X104166726Y-95833274D03*
X103000000Y-95350000D03*
X104650000Y-97000000D03*
X101350000Y-97000000D03*
X103000000Y-98650000D03*
%TD*%
D11*
%TO.P,MH4,1,Pin_1*%
%TO.N,GNDPWR*%
X136000000Y-97000000D03*
D10*
X134833274Y-95833274D03*
X134350000Y-97000000D03*
X137650000Y-97000000D03*
X136000000Y-95350000D03*
X137166726Y-98166726D03*
X137166726Y-95833274D03*
X134833274Y-98166726D03*
X136000000Y-98650000D03*
%TD*%
D12*
%TO.P,RV1,1,1*%
%TO.N,Net-(R7-Pad2)*%
X127550000Y-86350000D03*
%TO.P,RV1,2,2*%
%TO.N,Net-(RV1-Pad2)*%
X125010000Y-83810000D03*
%TO.P,RV1,3,3*%
%TO.N,Net-(R8-Pad1)*%
X127550000Y-81270000D03*
%TD*%
D13*
%TO.P,J3,1,gnd*%
%TO.N,GND*%
X133750000Y-89000000D03*
%TO.P,J3,2,VCC*%
%TO.N,VD*%
X133750000Y-90000000D03*
%TO.P,J3,3,SDA*%
%TO.N,/sda-tx*%
X133750000Y-91000000D03*
%TO.P,J3,4,SCL*%
%TO.N,/scl-rx*%
X133750000Y-92000000D03*
D14*
%TO.P,J3,MP*%
%TO.N,N/C*%
X137625000Y-87700000D03*
X137625000Y-93300000D03*
%TD*%
D15*
%TO.N,GND*%
X127650000Y-83850000D03*
X131050000Y-86650000D03*
X136950000Y-80550000D03*
X132908411Y-81708411D03*
X135250000Y-88700989D03*
X112250000Y-80250000D03*
X132050000Y-92200000D03*
X112650000Y-88750000D03*
X137250000Y-89250000D03*
X123350000Y-94750000D03*
X116150000Y-89150000D03*
X112650000Y-93650000D03*
X127650000Y-91550000D03*
X134450000Y-93050000D03*
%TO.N,+3V3*%
X116950000Y-80450000D03*
X121250000Y-87850000D03*
X121250000Y-96950000D03*
X122800000Y-80200000D03*
%TO.N,VD*%
X135450000Y-91250000D03*
X122465000Y-96965000D03*
X122950000Y-88450000D03*
%TO.N,/Channel1/buffer/out+*%
X120150000Y-93250000D03*
X119550000Y-90550000D03*
%TO.N,/scl-rx*%
X132000000Y-89000000D03*
%TO.N,/sda-tx*%
X128750000Y-93850000D03*
X135450000Y-89950000D03*
X126350000Y-89950000D03*
X132050000Y-94249990D03*
%TD*%
D16*
%TO.N,GND*%
X131050000Y-86650000D02*
X128250000Y-83850000D01*
X128250000Y-83850000D02*
X127650000Y-83850000D01*
X135250000Y-88750000D02*
X135250000Y-88700989D01*
X134450000Y-93050000D02*
X135385717Y-93050000D01*
X134000000Y-88750000D02*
X135250000Y-88750000D01*
X135385717Y-93050000D02*
X137250000Y-91185717D01*
X137250000Y-91185717D02*
X137250000Y-89250000D01*
X133750000Y-89000000D02*
X134000000Y-88750000D01*
%TO.N,VD*%
X135725489Y-89325489D02*
X136074511Y-89674511D01*
X136074511Y-90625489D02*
X135450000Y-91250000D01*
X136074511Y-89674511D02*
X136074511Y-90625489D01*
X134400000Y-90000000D02*
X135074511Y-89325489D01*
X135074511Y-89325489D02*
X135725489Y-89325489D01*
%TO.N,/scl-rx*%
X132923522Y-88076478D02*
X135576478Y-88076478D01*
X135576478Y-88076478D02*
X136625489Y-89125489D01*
X133750000Y-92000000D02*
X135800000Y-92000000D01*
X136625489Y-89125489D02*
X136625489Y-91125489D01*
X132000000Y-89000000D02*
X132923522Y-88076478D01*
X136625489Y-91125489D02*
X136650000Y-91150000D01*
X135800000Y-92000000D02*
X136650000Y-91150000D01*
%TO.N,/sda-tx*%
X133100000Y-91000000D02*
X132050000Y-89950000D01*
X128750000Y-93850000D02*
X131650010Y-93850000D01*
X132050000Y-89950000D02*
X126350000Y-89950000D01*
X134350000Y-91050000D02*
X135450000Y-89950000D01*
X131650010Y-93850000D02*
X132050000Y-94249990D01*
%TD*%
%TA.AperFunction,Conductor*%
%TO.N,GNDPWR*%
G36*
X138433621Y-78778502D02*
G01*
X138480114Y-78832158D01*
X138491500Y-78884500D01*
X138491500Y-82434491D01*
X138471498Y-82502612D01*
X138417842Y-82549105D01*
X138347568Y-82559209D01*
X138282988Y-82529715D01*
X138257553Y-82499480D01*
X138237763Y-82466609D01*
X138233481Y-82460377D01*
X138097991Y-82286647D01*
X138086199Y-82278178D01*
X138074486Y-82284725D01*
X136372020Y-83987190D01*
X136364408Y-84001131D01*
X136364539Y-84002966D01*
X136368790Y-84009580D01*
X138073285Y-85714074D01*
X138086408Y-85721240D01*
X138096709Y-85713851D01*
X138200751Y-85586055D01*
X138205159Y-85579921D01*
X138258938Y-85494686D01*
X138312205Y-85447748D01*
X138382392Y-85437059D01*
X138447217Y-85466014D01*
X138486096Y-85525418D01*
X138491500Y-85561922D01*
X138491500Y-86468949D01*
X138471498Y-86537070D01*
X138417842Y-86583563D01*
X138352657Y-86594293D01*
X138325400Y-86591500D01*
X137397831Y-86591500D01*
X137329710Y-86571498D01*
X137283217Y-86517842D01*
X137273113Y-86447568D01*
X137302607Y-86382988D01*
X137334546Y-86356546D01*
X137498042Y-86261580D01*
X137504349Y-86257390D01*
X137714305Y-86098889D01*
X137722761Y-86087496D01*
X137716045Y-86075256D01*
X136012810Y-84372020D01*
X135998869Y-84364408D01*
X135997034Y-84364539D01*
X135990420Y-84368790D01*
X134285818Y-86073393D01*
X134278703Y-86086423D01*
X134286227Y-86096854D01*
X134425483Y-86209020D01*
X134431657Y-86213408D01*
X134702271Y-86382178D01*
X134708931Y-86385794D01*
X134997852Y-86520827D01*
X135004905Y-86523620D01*
X135307970Y-86622970D01*
X135315282Y-86624888D01*
X135628092Y-86687109D01*
X135635590Y-86688137D01*
X135953610Y-86712328D01*
X135961173Y-86712446D01*
X136253762Y-86699416D01*
X136322705Y-86716367D01*
X136371539Y-86767901D01*
X136384760Y-86837656D01*
X136366628Y-86891407D01*
X136309189Y-86984590D01*
X136282885Y-87027262D01*
X136272729Y-87057881D01*
X136243311Y-87146576D01*
X136227203Y-87195139D01*
X136226503Y-87201975D01*
X136226502Y-87201978D01*
X136225074Y-87215918D01*
X136216500Y-87299600D01*
X136216500Y-87516405D01*
X136196498Y-87584526D01*
X136142842Y-87631019D01*
X136072568Y-87641123D01*
X136007988Y-87611629D01*
X136001405Y-87605500D01*
X135996248Y-87600343D01*
X135993051Y-87597863D01*
X135984029Y-87590158D01*
X135979878Y-87586260D01*
X135951799Y-87559892D01*
X135944853Y-87556073D01*
X135944850Y-87556071D01*
X135934044Y-87550130D01*
X135917525Y-87539279D01*
X135917061Y-87538919D01*
X135901519Y-87526864D01*
X135894250Y-87523719D01*
X135894246Y-87523716D01*
X135860941Y-87509304D01*
X135850291Y-87504087D01*
X135811538Y-87482783D01*
X135791915Y-87477745D01*
X135773212Y-87471341D01*
X135761898Y-87466445D01*
X135761897Y-87466445D01*
X135754623Y-87463297D01*
X135746800Y-87462058D01*
X135746790Y-87462055D01*
X135710954Y-87456379D01*
X135699334Y-87453973D01*
X135664189Y-87444950D01*
X135664188Y-87444950D01*
X135656508Y-87442978D01*
X135636254Y-87442978D01*
X135616543Y-87441427D01*
X135614012Y-87441026D01*
X135596535Y-87438258D01*
X135588643Y-87439004D01*
X135552517Y-87442419D01*
X135540659Y-87442978D01*
X133002285Y-87442978D01*
X132991101Y-87442451D01*
X132983613Y-87440777D01*
X132975690Y-87441026D01*
X132915555Y-87442916D01*
X132911597Y-87442978D01*
X132883666Y-87442978D01*
X132879751Y-87443473D01*
X132879747Y-87443473D01*
X132879689Y-87443481D01*
X132879660Y-87443484D01*
X132867818Y-87444417D01*
X132823632Y-87445805D01*
X132806266Y-87450850D01*
X132804180Y-87451456D01*
X132784828Y-87455464D01*
X132777757Y-87456358D01*
X132764725Y-87458004D01*
X132757356Y-87460921D01*
X132757354Y-87460922D01*
X132723619Y-87474278D01*
X132712391Y-87478123D01*
X132669929Y-87490460D01*
X132663107Y-87494494D01*
X132663101Y-87494497D01*
X132652490Y-87500772D01*
X132634740Y-87509468D01*
X132623278Y-87514006D01*
X132623273Y-87514009D01*
X132615905Y-87516926D01*
X132598492Y-87529577D01*
X132580147Y-87542905D01*
X132570229Y-87549421D01*
X132558985Y-87556071D01*
X132532159Y-87571936D01*
X132517835Y-87586260D01*
X132502803Y-87599099D01*
X132486415Y-87611006D01*
X132477739Y-87621494D01*
X132458234Y-87645071D01*
X132450244Y-87653851D01*
X131938908Y-88165187D01*
X131876596Y-88199213D01*
X131862986Y-88201402D01*
X131854210Y-88202324D01*
X131832288Y-88204628D01*
X131832286Y-88204628D01*
X131825288Y-88205364D01*
X131653579Y-88263818D01*
X131608365Y-88291634D01*
X131505095Y-88355166D01*
X131505092Y-88355168D01*
X131499088Y-88358862D01*
X131494053Y-88363793D01*
X131494050Y-88363795D01*
X131374610Y-88480760D01*
X131369493Y-88485771D01*
X131271235Y-88638238D01*
X131268826Y-88644858D01*
X131268824Y-88644861D01*
X131212923Y-88798448D01*
X131209197Y-88808685D01*
X131186463Y-88988640D01*
X131204163Y-89169160D01*
X131203557Y-89169219D01*
X131198534Y-89235089D01*
X131155720Y-89291723D01*
X131089083Y-89316220D01*
X131080687Y-89316500D01*
X126897338Y-89316500D01*
X126829824Y-89296885D01*
X126775652Y-89262507D01*
X126706666Y-89218727D01*
X126677463Y-89208328D01*
X126542425Y-89160243D01*
X126542420Y-89160242D01*
X126535790Y-89157881D01*
X126528802Y-89157048D01*
X126528799Y-89157047D01*
X126374431Y-89138640D01*
X126355680Y-89136404D01*
X126348677Y-89137140D01*
X126348676Y-89137140D01*
X126182288Y-89154628D01*
X126182286Y-89154629D01*
X126175288Y-89155364D01*
X126003579Y-89213818D01*
X125997575Y-89217512D01*
X125855095Y-89305166D01*
X125855092Y-89305168D01*
X125849088Y-89308862D01*
X125844053Y-89313793D01*
X125844050Y-89313795D01*
X125724525Y-89430843D01*
X125719493Y-89435771D01*
X125621235Y-89588238D01*
X125618826Y-89594858D01*
X125618824Y-89594861D01*
X125588622Y-89677841D01*
X125559197Y-89758685D01*
X125536463Y-89938640D01*
X125554163Y-90119160D01*
X125611418Y-90291273D01*
X125615065Y-90297295D01*
X125615066Y-90297297D01*
X125663181Y-90376744D01*
X125705380Y-90446424D01*
X125831382Y-90576902D01*
X125983159Y-90676222D01*
X125989763Y-90678678D01*
X125989765Y-90678679D01*
X126146558Y-90736990D01*
X126146560Y-90736990D01*
X126153168Y-90739448D01*
X126236995Y-90750633D01*
X126325980Y-90762507D01*
X126325984Y-90762507D01*
X126332961Y-90763438D01*
X126339972Y-90762800D01*
X126339976Y-90762800D01*
X126482459Y-90749832D01*
X126513600Y-90746998D01*
X126520302Y-90744820D01*
X126520304Y-90744820D01*
X126679409Y-90693124D01*
X126679412Y-90693123D01*
X126686108Y-90690947D01*
X126836540Y-90601271D01*
X126901058Y-90583500D01*
X127232682Y-90583500D01*
X127300803Y-90603502D01*
X127347296Y-90657158D01*
X127357400Y-90727432D01*
X127327906Y-90792012D01*
X127298707Y-90816815D01*
X127149088Y-90908862D01*
X127144053Y-90913793D01*
X127144050Y-90913795D01*
X127024525Y-91030843D01*
X127019493Y-91035771D01*
X126921235Y-91188238D01*
X126918826Y-91194858D01*
X126918824Y-91194861D01*
X126864243Y-91344820D01*
X126859197Y-91358685D01*
X126836463Y-91538640D01*
X126854163Y-91719160D01*
X126911418Y-91891273D01*
X126915065Y-91897295D01*
X126915066Y-91897297D01*
X126982525Y-92008685D01*
X127005380Y-92046424D01*
X127131382Y-92176902D01*
X127283159Y-92276222D01*
X127289763Y-92278678D01*
X127289765Y-92278679D01*
X127446558Y-92336990D01*
X127446560Y-92336990D01*
X127453168Y-92339448D01*
X127536995Y-92350633D01*
X127625980Y-92362507D01*
X127625984Y-92362507D01*
X127632961Y-92363438D01*
X127639972Y-92362800D01*
X127639976Y-92362800D01*
X127782459Y-92349832D01*
X127813600Y-92346998D01*
X127820302Y-92344820D01*
X127820304Y-92344820D01*
X127979409Y-92293124D01*
X127979412Y-92293123D01*
X127986108Y-92290947D01*
X128082513Y-92233478D01*
X128135860Y-92201677D01*
X128135862Y-92201676D01*
X128141912Y-92198069D01*
X128273266Y-92072982D01*
X128373643Y-91921902D01*
X128438055Y-91752338D01*
X128439035Y-91745366D01*
X128462748Y-91576639D01*
X128462748Y-91576636D01*
X128463299Y-91572717D01*
X128463616Y-91550000D01*
X128443397Y-91369745D01*
X128441080Y-91363091D01*
X128386064Y-91205106D01*
X128386062Y-91205103D01*
X128383745Y-91198448D01*
X128287626Y-91044624D01*
X128171588Y-90927773D01*
X128164778Y-90920915D01*
X128164774Y-90920912D01*
X128159815Y-90915918D01*
X128148697Y-90908862D01*
X128006666Y-90818727D01*
X128007415Y-90817546D01*
X127960660Y-90774908D01*
X127942394Y-90706302D01*
X127964118Y-90638711D01*
X128018937Y-90593595D01*
X128068353Y-90583500D01*
X131735406Y-90583500D01*
X131803527Y-90603502D01*
X131824501Y-90620405D01*
X132424661Y-91220565D01*
X132458687Y-91282877D01*
X132453622Y-91353692D01*
X132411075Y-91410528D01*
X132344555Y-91435339D01*
X132293299Y-91428359D01*
X132242425Y-91410243D01*
X132242420Y-91410242D01*
X132235790Y-91407881D01*
X132228802Y-91407048D01*
X132228799Y-91407047D01*
X132098835Y-91391550D01*
X132055680Y-91386404D01*
X132048677Y-91387140D01*
X132048676Y-91387140D01*
X131882288Y-91404628D01*
X131882286Y-91404629D01*
X131875288Y-91405364D01*
X131703579Y-91463818D01*
X131697575Y-91467512D01*
X131555095Y-91555166D01*
X131555092Y-91555168D01*
X131549088Y-91558862D01*
X131544053Y-91563793D01*
X131544050Y-91563795D01*
X131427717Y-91677717D01*
X131419493Y-91685771D01*
X131321235Y-91838238D01*
X131318826Y-91844858D01*
X131318824Y-91844861D01*
X131270946Y-91976405D01*
X131259197Y-92008685D01*
X131236463Y-92188640D01*
X131254163Y-92369160D01*
X131311418Y-92541273D01*
X131315065Y-92547295D01*
X131315066Y-92547297D01*
X131387459Y-92666832D01*
X131405380Y-92696424D01*
X131410269Y-92701487D01*
X131410270Y-92701488D01*
X131462054Y-92755111D01*
X131531382Y-92826902D01*
X131607271Y-92876562D01*
X131669849Y-92917512D01*
X131683159Y-92926222D01*
X131689763Y-92928678D01*
X131689765Y-92928679D01*
X131846260Y-92986879D01*
X131858615Y-92996109D01*
X131869699Y-92992820D01*
X131886725Y-92993926D01*
X132025979Y-93012507D01*
X132025984Y-93012507D01*
X132032961Y-93013438D01*
X132039972Y-93012800D01*
X132039976Y-93012800D01*
X132182459Y-92999832D01*
X132213600Y-92996998D01*
X132220302Y-92994820D01*
X132220304Y-92994820D01*
X132379409Y-92943124D01*
X132379412Y-92943123D01*
X132386108Y-92940947D01*
X132524104Y-92858685D01*
X132535860Y-92851677D01*
X132535862Y-92851676D01*
X132541912Y-92848069D01*
X132602114Y-92790740D01*
X132652907Y-92742370D01*
X132716032Y-92709878D01*
X132786703Y-92716671D01*
X132803932Y-92725159D01*
X132861399Y-92759145D01*
X132869010Y-92761356D01*
X132869012Y-92761357D01*
X132921231Y-92776528D01*
X133021169Y-92805562D01*
X133027574Y-92806066D01*
X133027579Y-92806067D01*
X133056042Y-92808307D01*
X133056050Y-92808307D01*
X133058498Y-92808500D01*
X133522618Y-92808500D01*
X133590739Y-92828502D01*
X133637232Y-92882158D01*
X133647624Y-92950292D01*
X133636463Y-93038640D01*
X133654163Y-93219160D01*
X133711418Y-93391273D01*
X133715065Y-93397295D01*
X133715066Y-93397297D01*
X133797376Y-93533207D01*
X133805380Y-93546424D01*
X133810269Y-93551487D01*
X133810270Y-93551488D01*
X133817119Y-93558580D01*
X133931382Y-93676902D01*
X134083159Y-93776222D01*
X134089763Y-93778678D01*
X134089765Y-93778679D01*
X134246558Y-93836990D01*
X134246560Y-93836990D01*
X134253168Y-93839448D01*
X134336995Y-93850633D01*
X134425980Y-93862507D01*
X134425984Y-93862507D01*
X134432961Y-93863438D01*
X134439972Y-93862800D01*
X134439976Y-93862800D01*
X134582459Y-93849832D01*
X134613600Y-93846998D01*
X134620302Y-93844820D01*
X134620304Y-93844820D01*
X134779409Y-93793124D01*
X134779412Y-93793123D01*
X134786108Y-93790947D01*
X134936540Y-93701271D01*
X135001058Y-93683500D01*
X135306950Y-93683500D01*
X135318133Y-93684027D01*
X135325626Y-93685702D01*
X135333552Y-93685453D01*
X135333553Y-93685453D01*
X135393703Y-93683562D01*
X135397662Y-93683500D01*
X135425573Y-93683500D01*
X135429508Y-93683003D01*
X135429573Y-93682995D01*
X135441410Y-93682062D01*
X135473668Y-93681048D01*
X135477687Y-93680922D01*
X135485606Y-93680673D01*
X135505060Y-93675021D01*
X135524417Y-93671013D01*
X135536647Y-93669468D01*
X135536648Y-93669468D01*
X135544514Y-93668474D01*
X135551885Y-93665555D01*
X135551887Y-93665555D01*
X135585629Y-93652196D01*
X135596859Y-93648351D01*
X135631700Y-93638229D01*
X135631701Y-93638229D01*
X135639310Y-93636018D01*
X135646129Y-93631985D01*
X135646134Y-93631983D01*
X135656745Y-93625707D01*
X135674493Y-93617012D01*
X135693334Y-93609552D01*
X135729104Y-93583564D01*
X135739024Y-93577048D01*
X135770252Y-93558580D01*
X135770255Y-93558578D01*
X135777079Y-93554542D01*
X135791400Y-93540221D01*
X135806434Y-93527380D01*
X135816411Y-93520131D01*
X135822824Y-93515472D01*
X135851015Y-93481395D01*
X135859005Y-93472616D01*
X136001405Y-93330216D01*
X136063717Y-93296190D01*
X136134532Y-93301255D01*
X136191368Y-93343802D01*
X136216179Y-93410322D01*
X136216500Y-93419311D01*
X136216500Y-93700400D01*
X136216837Y-93703646D01*
X136216837Y-93703650D01*
X136226121Y-93793124D01*
X136227474Y-93806166D01*
X136229655Y-93812702D01*
X136229655Y-93812704D01*
X136271203Y-93937238D01*
X136283450Y-93973946D01*
X136287304Y-93980174D01*
X136287305Y-93980176D01*
X136294172Y-93991273D01*
X136368067Y-94110686D01*
X136386905Y-94179135D01*
X136365744Y-94246905D01*
X136311303Y-94292476D01*
X136252683Y-94302717D01*
X136017990Y-94287335D01*
X136010424Y-94287295D01*
X135691964Y-94304821D01*
X135684450Y-94305690D01*
X135370405Y-94361348D01*
X135363044Y-94363115D01*
X135057980Y-94456092D01*
X135050860Y-94458740D01*
X134759182Y-94587690D01*
X134752445Y-94591167D01*
X134478355Y-94754233D01*
X134472091Y-94758490D01*
X134286385Y-94901762D01*
X134277917Y-94913423D01*
X134284520Y-94925309D01*
X135987190Y-96627980D01*
X136001131Y-96635592D01*
X136002966Y-96635461D01*
X136009580Y-96631210D01*
X137714559Y-94926230D01*
X137721571Y-94913389D01*
X137713777Y-94902701D01*
X137551298Y-94774613D01*
X137545075Y-94770288D01*
X137334665Y-94642105D01*
X137286896Y-94589582D01*
X137275106Y-94519571D01*
X137303038Y-94454300D01*
X137361824Y-94414492D01*
X137400218Y-94408500D01*
X138325400Y-94408500D01*
X138328641Y-94408164D01*
X138328655Y-94408163D01*
X138352498Y-94405689D01*
X138422319Y-94418555D01*
X138474101Y-94467126D01*
X138491500Y-94531016D01*
X138491500Y-95434491D01*
X138471498Y-95502612D01*
X138417842Y-95549105D01*
X138347568Y-95559209D01*
X138282988Y-95529715D01*
X138257553Y-95499480D01*
X138237763Y-95466609D01*
X138233481Y-95460377D01*
X138097991Y-95286647D01*
X138086199Y-95278178D01*
X138074486Y-95284725D01*
X136372020Y-96987190D01*
X136364408Y-97001131D01*
X136364539Y-97002966D01*
X136368790Y-97009580D01*
X138073285Y-98714074D01*
X138086408Y-98721240D01*
X138096709Y-98713851D01*
X138200751Y-98586055D01*
X138205159Y-98579921D01*
X138258938Y-98494686D01*
X138312205Y-98447748D01*
X138382392Y-98437059D01*
X138447217Y-98466014D01*
X138486096Y-98525418D01*
X138491500Y-98561922D01*
X138491500Y-101615500D01*
X138471498Y-101683621D01*
X138417842Y-101730114D01*
X138365500Y-101741500D01*
X100634500Y-101741500D01*
X100566379Y-101721498D01*
X100519886Y-101667842D01*
X100508500Y-101615500D01*
X100508500Y-99086423D01*
X101278703Y-99086423D01*
X101286227Y-99096854D01*
X101425483Y-99209020D01*
X101431657Y-99213408D01*
X101702271Y-99382178D01*
X101708931Y-99385794D01*
X101997852Y-99520827D01*
X102004905Y-99523620D01*
X102307970Y-99622970D01*
X102315282Y-99624888D01*
X102628092Y-99687109D01*
X102635590Y-99688137D01*
X102953610Y-99712328D01*
X102961173Y-99712446D01*
X103279785Y-99698257D01*
X103287326Y-99697465D01*
X103601924Y-99645101D01*
X103609302Y-99643411D01*
X103915355Y-99553625D01*
X103922450Y-99551071D01*
X104215496Y-99425169D01*
X104222263Y-99421765D01*
X104498042Y-99261580D01*
X104504349Y-99257390D01*
X104714305Y-99098889D01*
X104722761Y-99087496D01*
X104722172Y-99086423D01*
X134278703Y-99086423D01*
X134286227Y-99096854D01*
X134425483Y-99209020D01*
X134431657Y-99213408D01*
X134702271Y-99382178D01*
X134708931Y-99385794D01*
X134997852Y-99520827D01*
X135004905Y-99523620D01*
X135307970Y-99622970D01*
X135315282Y-99624888D01*
X135628092Y-99687109D01*
X135635590Y-99688137D01*
X135953610Y-99712328D01*
X135961173Y-99712446D01*
X136279785Y-99698257D01*
X136287326Y-99697465D01*
X136601924Y-99645101D01*
X136609302Y-99643411D01*
X136915355Y-99553625D01*
X136922450Y-99551071D01*
X137215496Y-99425169D01*
X137222263Y-99421765D01*
X137498042Y-99261580D01*
X137504349Y-99257390D01*
X137714305Y-99098889D01*
X137722761Y-99087496D01*
X137716045Y-99075256D01*
X136012810Y-97372020D01*
X135998869Y-97364408D01*
X135997034Y-97364539D01*
X135990420Y-97368790D01*
X134285818Y-99073393D01*
X134278703Y-99086423D01*
X104722172Y-99086423D01*
X104716045Y-99075256D01*
X103012810Y-97372020D01*
X102998869Y-97364408D01*
X102997034Y-97364539D01*
X102990420Y-97368790D01*
X101285818Y-99073393D01*
X101278703Y-99086423D01*
X100508500Y-99086423D01*
X100508500Y-98568320D01*
X100528502Y-98500199D01*
X100582158Y-98453706D01*
X100652432Y-98443602D01*
X100717012Y-98473096D01*
X100743120Y-98504463D01*
X100746296Y-98509866D01*
X100750519Y-98516150D01*
X100901463Y-98713934D01*
X100912989Y-98722396D01*
X100925054Y-98715735D01*
X102627980Y-97012810D01*
X102634357Y-97001131D01*
X103364408Y-97001131D01*
X103364539Y-97002966D01*
X103368790Y-97009580D01*
X105073285Y-98714074D01*
X105086408Y-98721240D01*
X105096709Y-98713851D01*
X105200751Y-98586055D01*
X105205164Y-98579914D01*
X105375349Y-98310187D01*
X105379005Y-98303536D01*
X105515544Y-98015335D01*
X105518375Y-98008295D01*
X105619306Y-97705767D01*
X105621270Y-97698433D01*
X105685122Y-97385989D01*
X105686194Y-97378465D01*
X105712173Y-97059051D01*
X105712378Y-97054576D01*
X105712927Y-97002221D01*
X105712817Y-96997789D01*
X105709251Y-96938640D01*
X120436463Y-96938640D01*
X120454163Y-97119160D01*
X120511418Y-97291273D01*
X120515065Y-97297295D01*
X120515066Y-97297297D01*
X120568780Y-97385989D01*
X120605380Y-97446424D01*
X120731382Y-97576902D01*
X120883159Y-97676222D01*
X120889763Y-97678678D01*
X120889765Y-97678679D01*
X121046558Y-97736990D01*
X121046560Y-97736990D01*
X121053168Y-97739448D01*
X121136995Y-97750633D01*
X121225980Y-97762507D01*
X121225984Y-97762507D01*
X121232961Y-97763438D01*
X121239972Y-97762800D01*
X121239976Y-97762800D01*
X121382459Y-97749832D01*
X121413600Y-97746998D01*
X121420302Y-97744820D01*
X121420304Y-97744820D01*
X121579409Y-97693124D01*
X121579412Y-97693123D01*
X121586108Y-97690947D01*
X121712237Y-97615759D01*
X121735860Y-97601677D01*
X121735862Y-97601676D01*
X121741912Y-97598069D01*
X121760920Y-97579968D01*
X121824045Y-97547476D01*
X121894716Y-97554269D01*
X121938444Y-97583682D01*
X121946382Y-97591902D01*
X121984242Y-97616677D01*
X122092227Y-97687340D01*
X122098159Y-97691222D01*
X122104763Y-97693678D01*
X122104765Y-97693679D01*
X122261558Y-97751990D01*
X122261560Y-97751990D01*
X122268168Y-97754448D01*
X122335544Y-97763438D01*
X122440980Y-97777507D01*
X122440984Y-97777507D01*
X122447961Y-97778438D01*
X122454972Y-97777800D01*
X122454976Y-97777800D01*
X122597459Y-97764832D01*
X122628600Y-97761998D01*
X122635302Y-97759820D01*
X122635304Y-97759820D01*
X122794409Y-97708124D01*
X122794412Y-97708123D01*
X122801108Y-97705947D01*
X122956912Y-97613069D01*
X123088266Y-97487982D01*
X123188643Y-97336902D01*
X123253055Y-97167338D01*
X123268903Y-97054576D01*
X123277748Y-96991639D01*
X123277748Y-96991636D01*
X123278299Y-96987717D01*
X123278471Y-96975383D01*
X133287388Y-96975383D01*
X133303245Y-97293914D01*
X133304076Y-97301443D01*
X133358085Y-97615759D01*
X133359818Y-97623146D01*
X133451196Y-97928695D01*
X133453799Y-97935808D01*
X133581227Y-98228173D01*
X133584669Y-98234929D01*
X133746296Y-98509865D01*
X133750519Y-98516150D01*
X133901463Y-98713934D01*
X133912989Y-98722396D01*
X133925054Y-98715735D01*
X135627980Y-97012810D01*
X135635592Y-96998869D01*
X135635461Y-96997034D01*
X135631210Y-96990420D01*
X133926445Y-95285656D01*
X133913510Y-95278592D01*
X133902949Y-95286252D01*
X133782766Y-95437072D01*
X133778410Y-95443270D01*
X133611059Y-95714764D01*
X133607479Y-95721440D01*
X133473956Y-96011074D01*
X133471206Y-96018125D01*
X133373444Y-96321708D01*
X133371561Y-96329041D01*
X133310979Y-96642170D01*
X133309992Y-96649670D01*
X133287467Y-96967802D01*
X133287388Y-96975383D01*
X123278471Y-96975383D01*
X123278616Y-96965000D01*
X123258397Y-96784745D01*
X123247017Y-96752066D01*
X123201064Y-96620106D01*
X123201062Y-96620103D01*
X123198745Y-96613448D01*
X123102626Y-96459624D01*
X123010832Y-96367187D01*
X122979778Y-96335915D01*
X122979774Y-96335912D01*
X122974815Y-96330918D01*
X122963697Y-96323862D01*
X122915538Y-96293300D01*
X122821666Y-96233727D01*
X122765755Y-96213818D01*
X122657425Y-96175243D01*
X122657420Y-96175242D01*
X122650790Y-96172881D01*
X122643802Y-96172048D01*
X122643799Y-96172047D01*
X122503889Y-96155364D01*
X122470680Y-96151404D01*
X122463677Y-96152140D01*
X122463676Y-96152140D01*
X122297288Y-96169628D01*
X122297286Y-96169629D01*
X122290288Y-96170364D01*
X122118579Y-96228818D01*
X122112575Y-96232512D01*
X121970090Y-96320169D01*
X121970087Y-96320171D01*
X121964088Y-96323862D01*
X121953925Y-96333815D01*
X121891262Y-96367187D01*
X121820503Y-96361384D01*
X121776359Y-96332578D01*
X121772847Y-96329041D01*
X121759815Y-96315918D01*
X121748697Y-96308862D01*
X121630302Y-96233727D01*
X121606666Y-96218727D01*
X121577463Y-96208328D01*
X121442425Y-96160243D01*
X121442420Y-96160242D01*
X121435790Y-96157881D01*
X121428802Y-96157048D01*
X121428799Y-96157047D01*
X121305698Y-96142368D01*
X121255680Y-96136404D01*
X121248677Y-96137140D01*
X121248676Y-96137140D01*
X121082288Y-96154628D01*
X121082286Y-96154629D01*
X121075288Y-96155364D01*
X120903579Y-96213818D01*
X120871218Y-96233727D01*
X120755095Y-96305166D01*
X120755092Y-96305168D01*
X120749088Y-96308862D01*
X120744053Y-96313793D01*
X120744050Y-96313795D01*
X120634208Y-96421361D01*
X120619493Y-96435771D01*
X120521235Y-96588238D01*
X120518826Y-96594858D01*
X120518824Y-96594861D01*
X120461606Y-96752066D01*
X120459197Y-96758685D01*
X120436463Y-96938640D01*
X105709251Y-96938640D01*
X105693529Y-96677853D01*
X105692621Y-96670351D01*
X105635319Y-96356593D01*
X105633518Y-96349260D01*
X105538935Y-96044655D01*
X105536263Y-96037583D01*
X105405781Y-95746570D01*
X105402264Y-95739843D01*
X105237771Y-95466621D01*
X105233481Y-95460377D01*
X105097991Y-95286647D01*
X105086199Y-95278178D01*
X105074486Y-95284725D01*
X103372020Y-96987190D01*
X103364408Y-97001131D01*
X102634357Y-97001131D01*
X102635592Y-96998869D01*
X102635461Y-96997034D01*
X102631210Y-96990420D01*
X100926445Y-95285656D01*
X100913510Y-95278592D01*
X100902949Y-95286252D01*
X100782766Y-95437072D01*
X100778410Y-95443270D01*
X100741760Y-95502727D01*
X100688988Y-95550220D01*
X100618916Y-95561644D01*
X100553792Y-95533370D01*
X100514293Y-95474376D01*
X100508500Y-95436611D01*
X100508500Y-94913423D01*
X101277917Y-94913423D01*
X101284520Y-94925309D01*
X102987190Y-96627980D01*
X103001131Y-96635592D01*
X103002966Y-96635461D01*
X103009580Y-96631210D01*
X104714559Y-94926230D01*
X104721571Y-94913389D01*
X104713777Y-94902701D01*
X104551298Y-94774613D01*
X104545075Y-94770288D01*
X104493125Y-94738640D01*
X122536463Y-94738640D01*
X122554163Y-94919160D01*
X122611418Y-95091273D01*
X122615065Y-95097295D01*
X122615066Y-95097297D01*
X122625978Y-95115314D01*
X122705380Y-95246424D01*
X122831382Y-95376902D01*
X122837278Y-95380760D01*
X122968469Y-95466609D01*
X122983159Y-95476222D01*
X122989763Y-95478678D01*
X122989765Y-95478679D01*
X123146558Y-95536990D01*
X123146560Y-95536990D01*
X123153168Y-95539448D01*
X123233899Y-95550220D01*
X123325980Y-95562507D01*
X123325984Y-95562507D01*
X123332961Y-95563438D01*
X123339972Y-95562800D01*
X123339976Y-95562800D01*
X123482459Y-95549832D01*
X123513600Y-95546998D01*
X123520302Y-95544820D01*
X123520304Y-95544820D01*
X123679409Y-95493124D01*
X123679412Y-95493123D01*
X123686108Y-95490947D01*
X123841912Y-95398069D01*
X123973266Y-95272982D01*
X124073643Y-95121902D01*
X124115423Y-95011917D01*
X124135555Y-94958920D01*
X124135556Y-94958918D01*
X124138055Y-94952338D01*
X124141724Y-94926230D01*
X124162748Y-94776639D01*
X124162748Y-94776636D01*
X124163299Y-94772717D01*
X124163616Y-94750000D01*
X124143397Y-94569745D01*
X124141080Y-94563091D01*
X124086064Y-94405106D01*
X124086062Y-94405103D01*
X124083745Y-94398448D01*
X123987626Y-94244624D01*
X123973941Y-94230843D01*
X123864778Y-94120915D01*
X123864774Y-94120912D01*
X123859815Y-94115918D01*
X123848697Y-94108862D01*
X123747782Y-94044820D01*
X123706666Y-94018727D01*
X123677463Y-94008328D01*
X123542425Y-93960243D01*
X123542420Y-93960242D01*
X123535790Y-93957881D01*
X123528802Y-93957048D01*
X123528799Y-93957047D01*
X123405698Y-93942368D01*
X123355680Y-93936404D01*
X123348677Y-93937140D01*
X123348676Y-93937140D01*
X123182288Y-93954628D01*
X123182286Y-93954629D01*
X123175288Y-93955364D01*
X123003579Y-94013818D01*
X122997575Y-94017512D01*
X122855095Y-94105166D01*
X122855092Y-94105168D01*
X122849088Y-94108862D01*
X122844053Y-94113793D01*
X122844050Y-94113795D01*
X122758781Y-94197297D01*
X122719493Y-94235771D01*
X122621235Y-94388238D01*
X122618826Y-94394858D01*
X122618824Y-94394861D01*
X122580094Y-94501271D01*
X122559197Y-94558685D01*
X122536463Y-94738640D01*
X104493125Y-94738640D01*
X104272702Y-94604357D01*
X104266025Y-94600822D01*
X103975686Y-94468813D01*
X103968616Y-94466099D01*
X103664537Y-94369932D01*
X103657186Y-94368085D01*
X103343746Y-94309142D01*
X103336237Y-94308194D01*
X103017989Y-94287335D01*
X103010424Y-94287295D01*
X102691964Y-94304821D01*
X102684450Y-94305690D01*
X102370405Y-94361348D01*
X102363044Y-94363115D01*
X102057980Y-94456092D01*
X102050860Y-94458740D01*
X101759182Y-94587690D01*
X101752445Y-94591167D01*
X101478355Y-94754233D01*
X101472091Y-94758490D01*
X101286385Y-94901762D01*
X101277917Y-94913423D01*
X100508500Y-94913423D01*
X100508500Y-93638640D01*
X111836463Y-93638640D01*
X111854163Y-93819160D01*
X111911418Y-93991273D01*
X111915065Y-93997295D01*
X111915066Y-93997297D01*
X111982632Y-94108862D01*
X112005380Y-94146424D01*
X112131382Y-94276902D01*
X112283159Y-94376222D01*
X112289763Y-94378678D01*
X112289765Y-94378679D01*
X112446558Y-94436990D01*
X112446560Y-94436990D01*
X112453168Y-94439448D01*
X112536995Y-94450633D01*
X112625980Y-94462507D01*
X112625984Y-94462507D01*
X112632961Y-94463438D01*
X112639972Y-94462800D01*
X112639976Y-94462800D01*
X112782459Y-94449832D01*
X112813600Y-94446998D01*
X112820302Y-94444820D01*
X112820304Y-94444820D01*
X112979409Y-94393124D01*
X112979412Y-94393123D01*
X112986108Y-94390947D01*
X113123337Y-94309142D01*
X113135860Y-94301677D01*
X113135862Y-94301676D01*
X113141912Y-94298069D01*
X113273266Y-94172982D01*
X113373643Y-94021902D01*
X113422814Y-93892459D01*
X113435555Y-93858920D01*
X113435556Y-93858918D01*
X113438055Y-93852338D01*
X113440963Y-93831646D01*
X113462748Y-93676639D01*
X113462748Y-93676636D01*
X113463299Y-93672717D01*
X113463616Y-93650000D01*
X113443397Y-93469745D01*
X113440085Y-93460233D01*
X113386064Y-93305106D01*
X113386062Y-93305103D01*
X113383745Y-93298448D01*
X113346373Y-93238640D01*
X119336463Y-93238640D01*
X119354163Y-93419160D01*
X119411418Y-93591273D01*
X119415065Y-93597295D01*
X119415066Y-93597297D01*
X119501258Y-93739617D01*
X119505380Y-93746424D01*
X119510269Y-93751487D01*
X119510270Y-93751488D01*
X119568852Y-93812151D01*
X119631382Y-93876902D01*
X119669242Y-93901677D01*
X119758741Y-93960243D01*
X119783159Y-93976222D01*
X119789763Y-93978678D01*
X119789765Y-93978679D01*
X119946558Y-94036990D01*
X119946560Y-94036990D01*
X119953168Y-94039448D01*
X120036995Y-94050633D01*
X120125980Y-94062507D01*
X120125984Y-94062507D01*
X120132961Y-94063438D01*
X120139972Y-94062800D01*
X120139976Y-94062800D01*
X120282459Y-94049832D01*
X120313600Y-94046998D01*
X120320302Y-94044820D01*
X120320304Y-94044820D01*
X120479409Y-93993124D01*
X120479412Y-93993123D01*
X120486108Y-93990947D01*
X120582513Y-93933478D01*
X120635860Y-93901677D01*
X120635862Y-93901676D01*
X120641912Y-93898069D01*
X120704318Y-93838640D01*
X127936463Y-93838640D01*
X127954163Y-94019160D01*
X128011418Y-94191273D01*
X128015065Y-94197295D01*
X128015066Y-94197297D01*
X128080711Y-94305690D01*
X128105380Y-94346424D01*
X128110269Y-94351487D01*
X128110270Y-94351488D01*
X128171113Y-94414492D01*
X128231382Y-94476902D01*
X128237278Y-94480760D01*
X128373234Y-94569727D01*
X128383159Y-94576222D01*
X128389763Y-94578678D01*
X128389765Y-94578679D01*
X128546558Y-94636990D01*
X128546560Y-94636990D01*
X128553168Y-94639448D01*
X128636995Y-94650633D01*
X128725980Y-94662507D01*
X128725984Y-94662507D01*
X128732961Y-94663438D01*
X128739972Y-94662800D01*
X128739976Y-94662800D01*
X128882459Y-94649832D01*
X128913600Y-94646998D01*
X128920302Y-94644820D01*
X128920304Y-94644820D01*
X129079409Y-94593124D01*
X129079412Y-94593123D01*
X129086108Y-94590947D01*
X129236540Y-94501271D01*
X129301058Y-94483500D01*
X131184696Y-94483500D01*
X131252817Y-94503502D01*
X131299310Y-94557158D01*
X131304253Y-94569726D01*
X131311418Y-94591263D01*
X131315065Y-94597285D01*
X131315066Y-94597287D01*
X131354565Y-94662507D01*
X131405380Y-94746414D01*
X131410269Y-94751477D01*
X131410270Y-94751478D01*
X131434568Y-94776639D01*
X131531382Y-94876892D01*
X131587155Y-94913389D01*
X131646676Y-94952338D01*
X131683159Y-94976212D01*
X131689763Y-94978668D01*
X131689765Y-94978669D01*
X131846558Y-95036980D01*
X131846560Y-95036980D01*
X131853168Y-95039438D01*
X131936995Y-95050623D01*
X132025980Y-95062497D01*
X132025984Y-95062497D01*
X132032961Y-95063428D01*
X132039972Y-95062790D01*
X132039976Y-95062790D01*
X132182459Y-95049822D01*
X132213600Y-95046988D01*
X132220302Y-95044810D01*
X132220304Y-95044810D01*
X132379409Y-94993114D01*
X132379412Y-94993113D01*
X132386108Y-94990937D01*
X132516196Y-94913389D01*
X132535860Y-94901667D01*
X132535862Y-94901666D01*
X132541912Y-94898059D01*
X132673266Y-94772972D01*
X132773643Y-94621892D01*
X132819463Y-94501271D01*
X132835555Y-94458910D01*
X132835556Y-94458908D01*
X132838055Y-94452328D01*
X132840211Y-94436990D01*
X132862748Y-94276629D01*
X132862748Y-94276626D01*
X132863299Y-94272707D01*
X132863616Y-94249990D01*
X132843397Y-94069735D01*
X132834721Y-94044820D01*
X132786064Y-93905096D01*
X132786062Y-93905093D01*
X132783745Y-93898438D01*
X132687626Y-93744614D01*
X132646947Y-93703650D01*
X132564778Y-93620905D01*
X132564774Y-93620902D01*
X132559815Y-93615908D01*
X132542454Y-93604890D01*
X132458305Y-93551488D01*
X132406666Y-93518717D01*
X132377463Y-93508318D01*
X132242425Y-93460233D01*
X132242420Y-93460232D01*
X132235790Y-93457871D01*
X132228802Y-93457038D01*
X132228799Y-93457037D01*
X132204297Y-93454116D01*
X132187666Y-93452133D01*
X132122394Y-93424206D01*
X132116332Y-93418869D01*
X132092359Y-93396357D01*
X132089517Y-93393602D01*
X132069780Y-93373865D01*
X132066583Y-93371385D01*
X132057561Y-93363680D01*
X132031110Y-93338841D01*
X132025331Y-93333414D01*
X132018385Y-93329595D01*
X132018382Y-93329593D01*
X132007576Y-93323652D01*
X131991057Y-93312801D01*
X131990593Y-93312441D01*
X131975051Y-93300386D01*
X131967782Y-93297241D01*
X131967778Y-93297238D01*
X131934473Y-93282826D01*
X131923823Y-93277609D01*
X131885070Y-93256305D01*
X131865447Y-93251267D01*
X131846744Y-93244863D01*
X131835437Y-93239970D01*
X131835436Y-93239970D01*
X131828155Y-93236819D01*
X131828601Y-93235788D01*
X131813665Y-93226250D01*
X131793471Y-93230663D01*
X131771006Y-93227018D01*
X131737719Y-93218471D01*
X131737715Y-93218470D01*
X131730040Y-93216500D01*
X131709786Y-93216500D01*
X131690075Y-93214949D01*
X131677896Y-93213020D01*
X131670067Y-93211780D01*
X131662175Y-93212526D01*
X131626049Y-93215941D01*
X131614191Y-93216500D01*
X129297338Y-93216500D01*
X129229824Y-93196885D01*
X129196583Y-93175790D01*
X129106666Y-93118727D01*
X129077463Y-93108328D01*
X128942425Y-93060243D01*
X128942420Y-93060242D01*
X128935790Y-93057881D01*
X128928802Y-93057048D01*
X128928799Y-93057047D01*
X128774431Y-93038640D01*
X128755680Y-93036404D01*
X128748677Y-93037140D01*
X128748676Y-93037140D01*
X128582288Y-93054628D01*
X128582286Y-93054629D01*
X128575288Y-93055364D01*
X128403579Y-93113818D01*
X128367895Y-93135771D01*
X128255095Y-93205166D01*
X128255092Y-93205168D01*
X128249088Y-93208862D01*
X128244053Y-93213793D01*
X128244050Y-93213795D01*
X128124525Y-93330843D01*
X128119493Y-93335771D01*
X128021235Y-93488238D01*
X128018826Y-93494858D01*
X128018824Y-93494861D01*
X127974367Y-93617006D01*
X127959197Y-93658685D01*
X127936463Y-93838640D01*
X120704318Y-93838640D01*
X120773266Y-93772982D01*
X120873643Y-93621902D01*
X120927017Y-93481395D01*
X120935555Y-93458920D01*
X120935556Y-93458918D01*
X120938055Y-93452338D01*
X120939370Y-93442982D01*
X120962748Y-93276639D01*
X120962748Y-93276636D01*
X120963299Y-93272717D01*
X120963616Y-93250000D01*
X120943397Y-93069745D01*
X120940088Y-93060243D01*
X120886064Y-92905106D01*
X120886062Y-92905103D01*
X120883745Y-92898448D01*
X120856823Y-92855364D01*
X120791359Y-92750598D01*
X120787626Y-92744624D01*
X120773941Y-92730843D01*
X120664778Y-92620915D01*
X120664774Y-92620912D01*
X120659815Y-92615918D01*
X120648697Y-92608862D01*
X120551685Y-92547297D01*
X120506666Y-92518727D01*
X120477463Y-92508328D01*
X120342425Y-92460243D01*
X120342420Y-92460242D01*
X120335790Y-92457881D01*
X120328802Y-92457048D01*
X120328799Y-92457047D01*
X120205698Y-92442368D01*
X120155680Y-92436404D01*
X120148677Y-92437140D01*
X120148676Y-92437140D01*
X119982288Y-92454628D01*
X119982286Y-92454629D01*
X119975288Y-92455364D01*
X119803579Y-92513818D01*
X119797575Y-92517512D01*
X119655095Y-92605166D01*
X119655092Y-92605168D01*
X119649088Y-92608862D01*
X119644053Y-92613793D01*
X119644050Y-92613795D01*
X119524525Y-92730843D01*
X119519493Y-92735771D01*
X119421235Y-92888238D01*
X119418826Y-92894858D01*
X119418824Y-92894861D01*
X119375536Y-93013795D01*
X119359197Y-93058685D01*
X119336463Y-93238640D01*
X113346373Y-93238640D01*
X113330364Y-93213020D01*
X113291359Y-93150598D01*
X113287626Y-93144624D01*
X113259561Y-93116362D01*
X113164778Y-93020915D01*
X113164774Y-93020912D01*
X113159815Y-93015918D01*
X113148697Y-93008862D01*
X113100538Y-92978300D01*
X113006666Y-92918727D01*
X112949716Y-92898448D01*
X112842425Y-92860243D01*
X112842420Y-92860242D01*
X112835790Y-92857881D01*
X112828802Y-92857048D01*
X112828799Y-92857047D01*
X112705698Y-92842368D01*
X112655680Y-92836404D01*
X112648677Y-92837140D01*
X112648676Y-92837140D01*
X112482288Y-92854628D01*
X112482286Y-92854629D01*
X112475288Y-92855364D01*
X112303579Y-92913818D01*
X112297575Y-92917512D01*
X112155095Y-93005166D01*
X112155092Y-93005168D01*
X112149088Y-93008862D01*
X112144053Y-93013793D01*
X112144050Y-93013795D01*
X112024525Y-93130843D01*
X112019493Y-93135771D01*
X111921235Y-93288238D01*
X111918826Y-93294858D01*
X111918824Y-93294861D01*
X111876800Y-93410322D01*
X111859197Y-93458685D01*
X111836463Y-93638640D01*
X100508500Y-93638640D01*
X100508500Y-90538640D01*
X118736463Y-90538640D01*
X118754163Y-90719160D01*
X118811418Y-90891273D01*
X118815065Y-90897295D01*
X118815066Y-90897297D01*
X118901264Y-91039627D01*
X118905380Y-91046424D01*
X119031382Y-91176902D01*
X119055171Y-91192469D01*
X119167152Y-91265747D01*
X119183159Y-91276222D01*
X119189763Y-91278678D01*
X119189765Y-91278679D01*
X119346558Y-91336990D01*
X119346560Y-91336990D01*
X119353168Y-91339448D01*
X119436995Y-91350633D01*
X119525980Y-91362507D01*
X119525984Y-91362507D01*
X119532961Y-91363438D01*
X119539972Y-91362800D01*
X119539976Y-91362800D01*
X119682459Y-91349832D01*
X119713600Y-91346998D01*
X119720302Y-91344820D01*
X119720304Y-91344820D01*
X119879409Y-91293124D01*
X119879412Y-91293123D01*
X119886108Y-91290947D01*
X120028987Y-91205774D01*
X120035860Y-91201677D01*
X120035862Y-91201676D01*
X120041912Y-91198069D01*
X120173266Y-91072982D01*
X120273643Y-90921902D01*
X120322984Y-90792012D01*
X120335555Y-90758920D01*
X120335556Y-90758918D01*
X120338055Y-90752338D01*
X120340212Y-90736990D01*
X120362748Y-90576639D01*
X120362748Y-90576636D01*
X120363299Y-90572717D01*
X120363616Y-90550000D01*
X120343397Y-90369745D01*
X120341080Y-90363091D01*
X120286064Y-90205106D01*
X120286062Y-90205103D01*
X120283745Y-90198448D01*
X120187626Y-90044624D01*
X120107005Y-89963438D01*
X120064778Y-89920915D01*
X120064774Y-89920912D01*
X120059815Y-89915918D01*
X120048697Y-89908862D01*
X119991185Y-89872364D01*
X119906666Y-89818727D01*
X119858784Y-89801677D01*
X119742425Y-89760243D01*
X119742420Y-89760242D01*
X119735790Y-89757881D01*
X119728802Y-89757048D01*
X119728799Y-89757047D01*
X119605698Y-89742368D01*
X119555680Y-89736404D01*
X119548677Y-89737140D01*
X119548676Y-89737140D01*
X119382288Y-89754628D01*
X119382286Y-89754629D01*
X119375288Y-89755364D01*
X119203579Y-89813818D01*
X119197575Y-89817512D01*
X119055095Y-89905166D01*
X119055092Y-89905168D01*
X119049088Y-89908862D01*
X119044053Y-89913793D01*
X119044050Y-89913795D01*
X118924525Y-90030843D01*
X118919493Y-90035771D01*
X118821235Y-90188238D01*
X118818826Y-90194858D01*
X118818824Y-90194861D01*
X118761606Y-90352066D01*
X118759197Y-90358685D01*
X118736463Y-90538640D01*
X100508500Y-90538640D01*
X100508500Y-88738640D01*
X111836463Y-88738640D01*
X111854163Y-88919160D01*
X111911418Y-89091273D01*
X111915065Y-89097295D01*
X111915066Y-89097297D01*
X112001720Y-89240380D01*
X112005380Y-89246424D01*
X112131382Y-89376902D01*
X112283159Y-89476222D01*
X112289763Y-89478678D01*
X112289765Y-89478679D01*
X112446558Y-89536990D01*
X112446560Y-89536990D01*
X112453168Y-89539448D01*
X112536995Y-89550633D01*
X112625980Y-89562507D01*
X112625984Y-89562507D01*
X112632961Y-89563438D01*
X112639972Y-89562800D01*
X112639976Y-89562800D01*
X112782459Y-89549832D01*
X112813600Y-89546998D01*
X112820302Y-89544820D01*
X112820304Y-89544820D01*
X112979409Y-89493124D01*
X112979412Y-89493123D01*
X112986108Y-89490947D01*
X113141912Y-89398069D01*
X113273266Y-89272982D01*
X113362522Y-89138640D01*
X115336463Y-89138640D01*
X115354163Y-89319160D01*
X115411418Y-89491273D01*
X115415065Y-89497295D01*
X115415066Y-89497297D01*
X115494085Y-89627773D01*
X115505380Y-89646424D01*
X115631382Y-89776902D01*
X115783159Y-89876222D01*
X115789763Y-89878678D01*
X115789765Y-89878679D01*
X115946558Y-89936990D01*
X115946560Y-89936990D01*
X115953168Y-89939448D01*
X116036995Y-89950633D01*
X116125980Y-89962507D01*
X116125984Y-89962507D01*
X116132961Y-89963438D01*
X116139972Y-89962800D01*
X116139976Y-89962800D01*
X116282459Y-89949832D01*
X116313600Y-89946998D01*
X116320302Y-89944820D01*
X116320304Y-89944820D01*
X116479409Y-89893124D01*
X116479412Y-89893123D01*
X116486108Y-89890947D01*
X116609296Y-89817512D01*
X116635860Y-89801677D01*
X116635862Y-89801676D01*
X116641912Y-89798069D01*
X116773266Y-89672982D01*
X116873643Y-89521902D01*
X116922529Y-89393211D01*
X116935555Y-89358920D01*
X116935556Y-89358918D01*
X116938055Y-89352338D01*
X116939035Y-89345366D01*
X116962748Y-89176639D01*
X116962748Y-89176636D01*
X116963299Y-89172717D01*
X116963506Y-89157881D01*
X116963561Y-89153962D01*
X116963561Y-89153957D01*
X116963616Y-89150000D01*
X116943397Y-88969745D01*
X116941080Y-88963091D01*
X116886064Y-88805106D01*
X116886062Y-88805103D01*
X116883745Y-88798448D01*
X116787626Y-88644624D01*
X116782486Y-88639448D01*
X116664778Y-88520915D01*
X116664774Y-88520912D01*
X116659815Y-88515918D01*
X116648697Y-88508862D01*
X116591741Y-88472717D01*
X116506666Y-88418727D01*
X116449716Y-88398448D01*
X116342425Y-88360243D01*
X116342420Y-88360242D01*
X116335790Y-88357881D01*
X116328802Y-88357048D01*
X116328799Y-88357047D01*
X116205698Y-88342368D01*
X116155680Y-88336404D01*
X116148677Y-88337140D01*
X116148676Y-88337140D01*
X115982288Y-88354628D01*
X115982286Y-88354629D01*
X115975288Y-88355364D01*
X115803579Y-88413818D01*
X115797575Y-88417512D01*
X115655095Y-88505166D01*
X115655092Y-88505168D01*
X115649088Y-88508862D01*
X115644053Y-88513793D01*
X115644050Y-88513795D01*
X115529630Y-88625844D01*
X115519493Y-88635771D01*
X115421235Y-88788238D01*
X115418826Y-88794858D01*
X115418824Y-88794861D01*
X115361606Y-88952066D01*
X115359197Y-88958685D01*
X115336463Y-89138640D01*
X113362522Y-89138640D01*
X113373643Y-89121902D01*
X113428784Y-88976744D01*
X113435555Y-88958920D01*
X113435556Y-88958918D01*
X113438055Y-88952338D01*
X113441052Y-88931016D01*
X113462748Y-88776639D01*
X113462748Y-88776636D01*
X113463299Y-88772717D01*
X113463616Y-88750000D01*
X113443397Y-88569745D01*
X113441080Y-88563091D01*
X113386064Y-88405106D01*
X113386062Y-88405103D01*
X113383745Y-88398448D01*
X113356700Y-88355166D01*
X113291359Y-88250598D01*
X113287626Y-88244624D01*
X113265062Y-88221902D01*
X113164778Y-88120915D01*
X113164774Y-88120912D01*
X113159815Y-88115918D01*
X113148697Y-88108862D01*
X113100538Y-88078300D01*
X113006666Y-88018727D01*
X112973494Y-88006915D01*
X112842425Y-87960243D01*
X112842420Y-87960242D01*
X112835790Y-87957881D01*
X112828802Y-87957048D01*
X112828799Y-87957047D01*
X112700001Y-87941689D01*
X112655680Y-87936404D01*
X112648677Y-87937140D01*
X112648676Y-87937140D01*
X112482288Y-87954628D01*
X112482286Y-87954629D01*
X112475288Y-87955364D01*
X112303579Y-88013818D01*
X112241109Y-88052250D01*
X112155095Y-88105166D01*
X112155092Y-88105168D01*
X112149088Y-88108862D01*
X112144053Y-88113793D01*
X112144050Y-88113795D01*
X112024525Y-88230843D01*
X112019493Y-88235771D01*
X111921235Y-88388238D01*
X111918826Y-88394858D01*
X111918824Y-88394861D01*
X111879946Y-88501677D01*
X111859197Y-88558685D01*
X111836463Y-88738640D01*
X100508500Y-88738640D01*
X100508500Y-87838640D01*
X120436463Y-87838640D01*
X120454163Y-88019160D01*
X120511418Y-88191273D01*
X120515065Y-88197295D01*
X120515066Y-88197297D01*
X120599817Y-88337238D01*
X120605380Y-88346424D01*
X120610269Y-88351487D01*
X120610270Y-88351488D01*
X120649845Y-88392469D01*
X120731382Y-88476902D01*
X120791005Y-88515918D01*
X120863093Y-88563091D01*
X120883159Y-88576222D01*
X120889763Y-88578678D01*
X120889765Y-88578679D01*
X121046558Y-88636990D01*
X121046560Y-88636990D01*
X121053168Y-88639448D01*
X121136732Y-88650598D01*
X121225980Y-88662507D01*
X121225984Y-88662507D01*
X121232961Y-88663438D01*
X121239972Y-88662800D01*
X121239976Y-88662800D01*
X121382459Y-88649832D01*
X121413600Y-88646998D01*
X121420302Y-88644820D01*
X121420304Y-88644820D01*
X121579409Y-88593124D01*
X121579412Y-88593123D01*
X121586108Y-88590947D01*
X121711970Y-88515918D01*
X121735860Y-88501677D01*
X121735862Y-88501676D01*
X121741912Y-88498069D01*
X121873266Y-88372982D01*
X121911217Y-88315861D01*
X121965574Y-88270192D01*
X122035994Y-88261160D01*
X122100118Y-88291634D01*
X122137587Y-88351938D01*
X122141170Y-88401382D01*
X122136463Y-88438640D01*
X122154163Y-88619160D01*
X122211418Y-88791273D01*
X122215065Y-88797295D01*
X122215066Y-88797297D01*
X122296049Y-88931016D01*
X122305380Y-88946424D01*
X122310269Y-88951487D01*
X122310270Y-88951488D01*
X122334660Y-88976744D01*
X122431382Y-89076902D01*
X122437278Y-89080760D01*
X122558741Y-89160243D01*
X122583159Y-89176222D01*
X122589763Y-89178678D01*
X122589765Y-89178679D01*
X122746558Y-89236990D01*
X122746560Y-89236990D01*
X122753168Y-89239448D01*
X122832250Y-89250000D01*
X122925980Y-89262507D01*
X122925984Y-89262507D01*
X122932961Y-89263438D01*
X122939972Y-89262800D01*
X122939976Y-89262800D01*
X123082459Y-89249832D01*
X123113600Y-89246998D01*
X123120302Y-89244820D01*
X123120304Y-89244820D01*
X123279409Y-89193124D01*
X123279412Y-89193123D01*
X123286108Y-89190947D01*
X123401932Y-89121902D01*
X123435860Y-89101677D01*
X123435862Y-89101676D01*
X123441912Y-89098069D01*
X123573266Y-88972982D01*
X123673643Y-88821902D01*
X123715423Y-88711917D01*
X123735555Y-88658920D01*
X123735556Y-88658918D01*
X123738055Y-88652338D01*
X123739736Y-88640380D01*
X123762748Y-88476639D01*
X123762748Y-88476636D01*
X123763299Y-88472717D01*
X123763616Y-88450000D01*
X123743397Y-88269745D01*
X123740542Y-88261547D01*
X123686064Y-88105106D01*
X123686062Y-88105103D01*
X123683745Y-88098448D01*
X123633171Y-88017512D01*
X123591359Y-87950598D01*
X123587626Y-87944624D01*
X123582664Y-87939627D01*
X123464778Y-87820915D01*
X123464774Y-87820912D01*
X123459815Y-87815918D01*
X123448697Y-87808862D01*
X123400538Y-87778300D01*
X123306666Y-87718727D01*
X123277463Y-87708328D01*
X123142425Y-87660243D01*
X123142420Y-87660242D01*
X123135790Y-87657881D01*
X123128802Y-87657048D01*
X123128799Y-87657047D01*
X122995254Y-87641123D01*
X122955680Y-87636404D01*
X122948677Y-87637140D01*
X122948676Y-87637140D01*
X122782288Y-87654628D01*
X122782286Y-87654629D01*
X122775288Y-87655364D01*
X122603579Y-87713818D01*
X122597575Y-87717512D01*
X122455095Y-87805166D01*
X122455092Y-87805168D01*
X122449088Y-87808862D01*
X122444053Y-87813793D01*
X122444050Y-87813795D01*
X122324525Y-87930843D01*
X122319493Y-87935771D01*
X122315680Y-87941688D01*
X122315679Y-87941689D01*
X122290956Y-87980052D01*
X122237241Y-88026476D01*
X122166954Y-88036490D01*
X122102411Y-88006915D01*
X122064104Y-87947140D01*
X122060271Y-87894261D01*
X122063299Y-87872717D01*
X122063616Y-87850000D01*
X122043397Y-87669745D01*
X122040088Y-87660243D01*
X121986064Y-87505106D01*
X121986062Y-87505103D01*
X121983745Y-87498448D01*
X121971045Y-87478123D01*
X121891359Y-87350598D01*
X121887626Y-87344624D01*
X121844978Y-87301677D01*
X121764778Y-87220915D01*
X121764774Y-87220912D01*
X121759815Y-87215918D01*
X121748697Y-87208862D01*
X121650549Y-87146576D01*
X121606666Y-87118727D01*
X121577463Y-87108328D01*
X121442425Y-87060243D01*
X121442420Y-87060242D01*
X121435790Y-87057881D01*
X121428802Y-87057048D01*
X121428799Y-87057047D01*
X121305698Y-87042368D01*
X121255680Y-87036404D01*
X121248677Y-87037140D01*
X121248676Y-87037140D01*
X121082288Y-87054628D01*
X121082286Y-87054629D01*
X121075288Y-87055364D01*
X120903579Y-87113818D01*
X120897575Y-87117512D01*
X120755095Y-87205166D01*
X120755092Y-87205168D01*
X120749088Y-87208862D01*
X120744053Y-87213793D01*
X120744050Y-87213795D01*
X120653144Y-87302817D01*
X120619493Y-87335771D01*
X120521235Y-87488238D01*
X120518826Y-87494858D01*
X120518824Y-87494861D01*
X120467307Y-87636404D01*
X120459197Y-87658685D01*
X120436463Y-87838640D01*
X100508500Y-87838640D01*
X100508500Y-86086423D01*
X101278703Y-86086423D01*
X101286227Y-86096854D01*
X101425483Y-86209020D01*
X101431657Y-86213408D01*
X101702271Y-86382178D01*
X101708931Y-86385794D01*
X101997852Y-86520827D01*
X102004905Y-86523620D01*
X102307970Y-86622970D01*
X102315282Y-86624888D01*
X102628092Y-86687109D01*
X102635590Y-86688137D01*
X102953610Y-86712328D01*
X102961173Y-86712446D01*
X103279785Y-86698257D01*
X103287326Y-86697465D01*
X103601924Y-86645101D01*
X103609302Y-86643411D01*
X103915355Y-86553625D01*
X103922450Y-86551071D01*
X104215496Y-86425169D01*
X104222263Y-86421765D01*
X104345816Y-86350000D01*
X126316807Y-86350000D01*
X126335542Y-86564142D01*
X126336966Y-86569455D01*
X126336966Y-86569457D01*
X126385751Y-86751522D01*
X126391178Y-86771777D01*
X126393500Y-86776757D01*
X126393501Y-86776759D01*
X126446963Y-86891407D01*
X126482024Y-86966596D01*
X126605319Y-87142681D01*
X126757319Y-87294681D01*
X126933403Y-87417976D01*
X126938381Y-87420297D01*
X126938384Y-87420299D01*
X127118058Y-87504082D01*
X127128223Y-87508822D01*
X127133531Y-87510244D01*
X127133533Y-87510245D01*
X127330543Y-87563034D01*
X127330545Y-87563034D01*
X127335858Y-87564458D01*
X127550000Y-87583193D01*
X127764142Y-87564458D01*
X127769455Y-87563034D01*
X127769457Y-87563034D01*
X127966467Y-87510245D01*
X127966469Y-87510244D01*
X127971777Y-87508822D01*
X127981942Y-87504082D01*
X128161616Y-87420299D01*
X128161619Y-87420297D01*
X128166597Y-87417976D01*
X128342681Y-87294681D01*
X128494681Y-87142681D01*
X128617976Y-86966596D01*
X128653038Y-86891407D01*
X128706499Y-86776759D01*
X128706500Y-86776757D01*
X128708822Y-86771777D01*
X128714250Y-86751522D01*
X128763034Y-86569457D01*
X128763034Y-86569455D01*
X128764458Y-86564142D01*
X128783193Y-86350000D01*
X128764458Y-86135858D01*
X128754007Y-86096854D01*
X128710245Y-85933533D01*
X128710244Y-85933531D01*
X128708822Y-85928223D01*
X128617976Y-85733404D01*
X128494681Y-85557319D01*
X128342681Y-85405319D01*
X128166597Y-85282024D01*
X128161619Y-85279703D01*
X128161616Y-85279701D01*
X127976759Y-85193501D01*
X127976758Y-85193500D01*
X127971777Y-85191178D01*
X127966469Y-85189756D01*
X127966467Y-85189755D01*
X127769457Y-85136966D01*
X127769455Y-85136966D01*
X127764142Y-85135542D01*
X127550000Y-85116807D01*
X127335858Y-85135542D01*
X127330545Y-85136966D01*
X127330543Y-85136966D01*
X127133533Y-85189755D01*
X127133531Y-85189756D01*
X127128223Y-85191178D01*
X127123243Y-85193500D01*
X127123241Y-85193501D01*
X126938385Y-85279701D01*
X126938382Y-85279703D01*
X126933404Y-85282024D01*
X126757319Y-85405319D01*
X126605319Y-85557319D01*
X126482024Y-85733404D01*
X126391178Y-85928223D01*
X126389756Y-85933531D01*
X126389755Y-85933533D01*
X126345993Y-86096854D01*
X126335542Y-86135858D01*
X126316807Y-86350000D01*
X104345816Y-86350000D01*
X104498042Y-86261580D01*
X104504349Y-86257390D01*
X104714305Y-86098889D01*
X104722761Y-86087496D01*
X104716045Y-86075256D01*
X103012810Y-84372020D01*
X102998869Y-84364408D01*
X102997034Y-84364539D01*
X102990420Y-84368790D01*
X101285818Y-86073393D01*
X101278703Y-86086423D01*
X100508500Y-86086423D01*
X100508500Y-85568320D01*
X100528502Y-85500199D01*
X100582158Y-85453706D01*
X100652432Y-85443602D01*
X100717012Y-85473096D01*
X100743120Y-85504463D01*
X100746296Y-85509866D01*
X100750519Y-85516150D01*
X100901463Y-85713934D01*
X100912989Y-85722396D01*
X100925054Y-85715735D01*
X102627980Y-84012810D01*
X102634357Y-84001131D01*
X103364408Y-84001131D01*
X103364539Y-84002966D01*
X103368790Y-84009580D01*
X105073285Y-85714074D01*
X105086408Y-85721240D01*
X105096709Y-85713851D01*
X105200751Y-85586055D01*
X105205164Y-85579914D01*
X105375349Y-85310187D01*
X105379005Y-85303536D01*
X105515544Y-85015335D01*
X105518375Y-85008295D01*
X105619306Y-84705767D01*
X105621270Y-84698433D01*
X105685122Y-84385989D01*
X105686194Y-84378465D01*
X105712173Y-84059051D01*
X105712378Y-84054576D01*
X105712927Y-84002221D01*
X105712817Y-83997789D01*
X105701496Y-83810000D01*
X123776807Y-83810000D01*
X123795542Y-84024142D01*
X123851178Y-84231777D01*
X123853500Y-84236757D01*
X123853501Y-84236759D01*
X123923089Y-84385989D01*
X123942024Y-84426596D01*
X124065319Y-84602681D01*
X124217319Y-84754681D01*
X124393403Y-84877976D01*
X124398381Y-84880297D01*
X124398384Y-84880299D01*
X124502170Y-84928695D01*
X124588223Y-84968822D01*
X124593531Y-84970244D01*
X124593533Y-84970245D01*
X124790543Y-85023034D01*
X124790545Y-85023034D01*
X124795858Y-85024458D01*
X125010000Y-85043193D01*
X125224142Y-85024458D01*
X125229455Y-85023034D01*
X125229457Y-85023034D01*
X125426467Y-84970245D01*
X125426469Y-84970244D01*
X125431777Y-84968822D01*
X125517830Y-84928695D01*
X125621616Y-84880299D01*
X125621619Y-84880297D01*
X125626597Y-84877976D01*
X125802681Y-84754681D01*
X125954681Y-84602681D01*
X126077976Y-84426596D01*
X126096912Y-84385989D01*
X126166499Y-84236759D01*
X126166500Y-84236757D01*
X126168822Y-84231777D01*
X126224458Y-84024142D01*
X126240687Y-83838640D01*
X126836463Y-83838640D01*
X126854163Y-84019160D01*
X126911418Y-84191273D01*
X126915065Y-84197295D01*
X126915066Y-84197297D01*
X126978139Y-84301443D01*
X127005380Y-84346424D01*
X127010269Y-84351487D01*
X127010270Y-84351488D01*
X127026979Y-84368790D01*
X127131382Y-84476902D01*
X127283159Y-84576222D01*
X127289763Y-84578678D01*
X127289765Y-84578679D01*
X127446558Y-84636990D01*
X127446560Y-84636990D01*
X127453168Y-84639448D01*
X127536995Y-84650633D01*
X127625980Y-84662507D01*
X127625984Y-84662507D01*
X127632961Y-84663438D01*
X127639972Y-84662800D01*
X127639976Y-84662800D01*
X127782459Y-84649832D01*
X127813600Y-84646998D01*
X127820302Y-84644820D01*
X127820304Y-84644820D01*
X127979409Y-84593124D01*
X127979412Y-84593123D01*
X127986108Y-84590947D01*
X127986336Y-84591648D01*
X128051302Y-84582476D01*
X128115807Y-84612133D01*
X128122148Y-84618052D01*
X130214750Y-86710655D01*
X130248776Y-86772967D01*
X130251054Y-86787453D01*
X130254163Y-86819160D01*
X130311418Y-86991273D01*
X130315065Y-86997295D01*
X130315066Y-86997297D01*
X130400381Y-87138169D01*
X130405380Y-87146424D01*
X130410269Y-87151487D01*
X130410270Y-87151488D01*
X130470440Y-87213795D01*
X130531382Y-87276902D01*
X130683159Y-87376222D01*
X130689763Y-87378678D01*
X130689765Y-87378679D01*
X130846558Y-87436990D01*
X130846560Y-87436990D01*
X130853168Y-87439448D01*
X130936995Y-87450633D01*
X131025980Y-87462507D01*
X131025984Y-87462507D01*
X131032961Y-87463438D01*
X131039972Y-87462800D01*
X131039976Y-87462800D01*
X131202392Y-87448018D01*
X131213600Y-87446998D01*
X131220302Y-87444820D01*
X131220304Y-87444820D01*
X131379409Y-87393124D01*
X131379412Y-87393123D01*
X131386108Y-87390947D01*
X131486933Y-87330843D01*
X131535860Y-87301677D01*
X131535862Y-87301676D01*
X131541912Y-87298069D01*
X131673266Y-87172982D01*
X131773643Y-87021902D01*
X131838055Y-86852338D01*
X131839035Y-86845366D01*
X131862748Y-86676639D01*
X131862748Y-86676636D01*
X131863299Y-86672717D01*
X131863616Y-86650000D01*
X131843397Y-86469745D01*
X131803604Y-86355475D01*
X131786064Y-86305106D01*
X131786062Y-86305103D01*
X131783745Y-86298448D01*
X131687626Y-86144624D01*
X131642209Y-86098889D01*
X131564778Y-86020915D01*
X131564774Y-86020912D01*
X131559815Y-86015918D01*
X131406666Y-85918727D01*
X131235790Y-85857881D01*
X131186007Y-85851945D01*
X131120733Y-85824018D01*
X131111830Y-85815926D01*
X129943542Y-84647637D01*
X129271288Y-83975383D01*
X133287388Y-83975383D01*
X133303245Y-84293914D01*
X133304076Y-84301443D01*
X133358085Y-84615759D01*
X133359818Y-84623146D01*
X133451196Y-84928695D01*
X133453799Y-84935808D01*
X133581227Y-85228173D01*
X133584669Y-85234929D01*
X133746296Y-85509865D01*
X133750519Y-85516150D01*
X133901463Y-85713934D01*
X133912989Y-85722396D01*
X133925054Y-85715735D01*
X135627980Y-84012810D01*
X135635592Y-83998869D01*
X135635461Y-83997034D01*
X135631210Y-83990420D01*
X133926445Y-82285656D01*
X133913510Y-82278592D01*
X133902949Y-82286252D01*
X133782766Y-82437072D01*
X133778410Y-82443270D01*
X133611059Y-82714764D01*
X133607479Y-82721440D01*
X133473956Y-83011074D01*
X133471206Y-83018125D01*
X133373444Y-83321708D01*
X133371561Y-83329041D01*
X133310979Y-83642170D01*
X133309992Y-83649670D01*
X133287467Y-83967802D01*
X133287388Y-83975383D01*
X129271288Y-83975383D01*
X128753652Y-83457747D01*
X128746112Y-83449461D01*
X128742000Y-83442982D01*
X128692348Y-83396356D01*
X128689507Y-83393602D01*
X128669770Y-83373865D01*
X128666573Y-83371385D01*
X128657551Y-83363680D01*
X128631100Y-83338841D01*
X128625321Y-83333414D01*
X128618375Y-83329595D01*
X128618372Y-83329593D01*
X128607566Y-83323652D01*
X128591047Y-83312801D01*
X128590583Y-83312441D01*
X128575041Y-83300386D01*
X128567772Y-83297241D01*
X128567768Y-83297238D01*
X128534463Y-83282826D01*
X128523813Y-83277609D01*
X128485060Y-83256305D01*
X128465437Y-83251267D01*
X128446734Y-83244863D01*
X128435420Y-83239967D01*
X128435419Y-83239967D01*
X128428145Y-83236819D01*
X128420322Y-83235580D01*
X128420312Y-83235577D01*
X128384476Y-83229901D01*
X128372856Y-83227495D01*
X128337711Y-83218472D01*
X128337710Y-83218472D01*
X128330030Y-83216500D01*
X128309776Y-83216500D01*
X128290065Y-83214949D01*
X128277886Y-83213020D01*
X128270057Y-83211780D01*
X128262165Y-83212526D01*
X128226039Y-83215941D01*
X128214181Y-83216500D01*
X128197338Y-83216500D01*
X128129824Y-83196885D01*
X128096583Y-83175790D01*
X128006666Y-83118727D01*
X127977463Y-83108328D01*
X127842425Y-83060243D01*
X127842420Y-83060242D01*
X127835790Y-83057881D01*
X127828802Y-83057048D01*
X127828799Y-83057047D01*
X127705698Y-83042368D01*
X127655680Y-83036404D01*
X127648677Y-83037140D01*
X127648676Y-83037140D01*
X127482288Y-83054628D01*
X127482286Y-83054629D01*
X127475288Y-83055364D01*
X127303579Y-83113818D01*
X127297575Y-83117512D01*
X127155095Y-83205166D01*
X127155092Y-83205168D01*
X127149088Y-83208862D01*
X127144053Y-83213793D01*
X127144050Y-83213795D01*
X127024525Y-83330843D01*
X127019493Y-83335771D01*
X126921235Y-83488238D01*
X126859197Y-83658685D01*
X126836463Y-83838640D01*
X126240687Y-83838640D01*
X126243193Y-83810000D01*
X126224458Y-83595858D01*
X126168822Y-83388223D01*
X126162127Y-83373865D01*
X126080299Y-83198385D01*
X126080297Y-83198382D01*
X126077976Y-83193404D01*
X125954681Y-83017319D01*
X125802681Y-82865319D01*
X125626597Y-82742024D01*
X125621619Y-82739703D01*
X125621616Y-82739701D01*
X125436759Y-82653501D01*
X125436758Y-82653500D01*
X125431777Y-82651178D01*
X125426469Y-82649756D01*
X125426467Y-82649755D01*
X125229457Y-82596966D01*
X125229455Y-82596966D01*
X125224142Y-82595542D01*
X125010000Y-82576807D01*
X124795858Y-82595542D01*
X124790545Y-82596966D01*
X124790543Y-82596966D01*
X124593533Y-82649755D01*
X124593531Y-82649756D01*
X124588223Y-82651178D01*
X124583243Y-82653500D01*
X124583241Y-82653501D01*
X124398385Y-82739701D01*
X124398382Y-82739703D01*
X124393404Y-82742024D01*
X124217319Y-82865319D01*
X124065319Y-83017319D01*
X123942024Y-83193404D01*
X123939703Y-83198382D01*
X123939701Y-83198385D01*
X123857873Y-83373865D01*
X123851178Y-83388223D01*
X123795542Y-83595858D01*
X123776807Y-83810000D01*
X105701496Y-83810000D01*
X105693529Y-83677853D01*
X105692621Y-83670351D01*
X105635319Y-83356593D01*
X105633518Y-83349260D01*
X105538935Y-83044655D01*
X105536263Y-83037583D01*
X105405781Y-82746570D01*
X105402264Y-82739843D01*
X105237771Y-82466621D01*
X105233481Y-82460377D01*
X105097991Y-82286647D01*
X105086199Y-82278178D01*
X105074486Y-82284725D01*
X103372020Y-83987190D01*
X103364408Y-84001131D01*
X102634357Y-84001131D01*
X102635592Y-83998869D01*
X102635461Y-83997034D01*
X102631210Y-83990420D01*
X100926445Y-82285656D01*
X100913510Y-82278592D01*
X100902949Y-82286252D01*
X100782766Y-82437072D01*
X100778410Y-82443270D01*
X100741760Y-82502727D01*
X100688988Y-82550220D01*
X100618916Y-82561644D01*
X100553792Y-82533370D01*
X100514293Y-82474376D01*
X100508500Y-82436611D01*
X100508500Y-81913423D01*
X101277917Y-81913423D01*
X101284520Y-81925309D01*
X102987190Y-83627980D01*
X103001131Y-83635592D01*
X103002966Y-83635461D01*
X103009580Y-83631210D01*
X104714559Y-81926230D01*
X104721571Y-81913389D01*
X104713777Y-81902701D01*
X104551298Y-81774613D01*
X104545075Y-81770288D01*
X104272702Y-81604357D01*
X104266025Y-81600822D01*
X103975686Y-81468813D01*
X103968616Y-81466099D01*
X103664537Y-81369932D01*
X103657186Y-81368085D01*
X103343746Y-81309142D01*
X103336237Y-81308194D01*
X103017989Y-81287335D01*
X103010424Y-81287295D01*
X102691964Y-81304821D01*
X102684450Y-81305690D01*
X102370405Y-81361348D01*
X102363044Y-81363115D01*
X102057980Y-81456092D01*
X102050860Y-81458740D01*
X101759182Y-81587690D01*
X101752445Y-81591167D01*
X101478355Y-81754233D01*
X101472091Y-81758490D01*
X101286385Y-81901762D01*
X101277917Y-81913423D01*
X100508500Y-81913423D01*
X100508500Y-81270000D01*
X126316807Y-81270000D01*
X126335542Y-81484142D01*
X126336966Y-81489455D01*
X126336966Y-81489457D01*
X126366807Y-81600822D01*
X126391178Y-81691777D01*
X126393500Y-81696757D01*
X126393501Y-81696759D01*
X126477816Y-81877571D01*
X126482024Y-81886596D01*
X126605319Y-82062681D01*
X126757319Y-82214681D01*
X126933403Y-82337976D01*
X126938381Y-82340297D01*
X126938384Y-82340299D01*
X126980822Y-82360088D01*
X127128223Y-82428822D01*
X127133531Y-82430244D01*
X127133533Y-82430245D01*
X127330543Y-82483034D01*
X127330545Y-82483034D01*
X127335858Y-82484458D01*
X127550000Y-82503193D01*
X127764142Y-82484458D01*
X127769455Y-82483034D01*
X127769457Y-82483034D01*
X127966467Y-82430245D01*
X127966469Y-82430244D01*
X127971777Y-82428822D01*
X128119178Y-82360088D01*
X128161616Y-82340299D01*
X128161619Y-82340297D01*
X128166597Y-82337976D01*
X128342681Y-82214681D01*
X128494681Y-82062681D01*
X128617976Y-81886596D01*
X128622185Y-81877571D01*
X128706363Y-81697051D01*
X132094874Y-81697051D01*
X132112574Y-81877571D01*
X132169829Y-82049684D01*
X132173476Y-82055706D01*
X132173477Y-82055708D01*
X132184389Y-82073725D01*
X132263791Y-82204835D01*
X132389793Y-82335313D01*
X132541570Y-82434633D01*
X132548174Y-82437089D01*
X132548176Y-82437090D01*
X132704969Y-82495401D01*
X132704971Y-82495401D01*
X132711579Y-82497859D01*
X132795406Y-82509044D01*
X132884391Y-82520918D01*
X132884395Y-82520918D01*
X132891372Y-82521849D01*
X132898383Y-82521211D01*
X132898387Y-82521211D01*
X133040870Y-82508243D01*
X133072011Y-82505409D01*
X133078713Y-82503231D01*
X133078715Y-82503231D01*
X133237820Y-82451535D01*
X133237823Y-82451534D01*
X133244519Y-82449358D01*
X133400323Y-82356480D01*
X133531677Y-82231393D01*
X133632054Y-82080313D01*
X133673834Y-81970328D01*
X133693966Y-81917331D01*
X133693967Y-81917329D01*
X133695450Y-81913423D01*
X134277917Y-81913423D01*
X134284520Y-81925309D01*
X135987190Y-83627980D01*
X136001131Y-83635592D01*
X136002966Y-83635461D01*
X136009580Y-83631210D01*
X137714559Y-81926230D01*
X137721571Y-81913389D01*
X137713777Y-81902701D01*
X137551298Y-81774613D01*
X137545075Y-81770288D01*
X137272702Y-81604357D01*
X137266026Y-81600822D01*
X137172246Y-81558183D01*
X137118513Y-81511779D01*
X137098397Y-81443692D01*
X137118286Y-81375538D01*
X137171864Y-81328956D01*
X137185461Y-81323649D01*
X137279409Y-81293124D01*
X137279412Y-81293123D01*
X137286108Y-81290947D01*
X137423560Y-81209009D01*
X137435860Y-81201677D01*
X137435862Y-81201676D01*
X137441912Y-81198069D01*
X137573266Y-81072982D01*
X137673643Y-80921902D01*
X137715423Y-80811917D01*
X137735555Y-80758920D01*
X137735556Y-80758918D01*
X137738055Y-80752338D01*
X137741498Y-80727841D01*
X137762748Y-80576639D01*
X137762748Y-80576636D01*
X137763299Y-80572717D01*
X137763616Y-80550000D01*
X137743397Y-80369745D01*
X137741080Y-80363091D01*
X137686064Y-80205106D01*
X137686062Y-80205103D01*
X137683745Y-80198448D01*
X137587626Y-80044624D01*
X137580339Y-80037286D01*
X137464778Y-79920915D01*
X137464774Y-79920912D01*
X137459815Y-79915918D01*
X137448697Y-79908862D01*
X137353499Y-79848448D01*
X137306666Y-79818727D01*
X137268582Y-79805166D01*
X137142425Y-79760243D01*
X137142420Y-79760242D01*
X137135790Y-79757881D01*
X137128802Y-79757048D01*
X137128799Y-79757047D01*
X137005698Y-79742368D01*
X136955680Y-79736404D01*
X136948677Y-79737140D01*
X136948676Y-79737140D01*
X136782288Y-79754628D01*
X136782286Y-79754629D01*
X136775288Y-79755364D01*
X136603579Y-79813818D01*
X136597575Y-79817512D01*
X136455095Y-79905166D01*
X136455092Y-79905168D01*
X136449088Y-79908862D01*
X136444053Y-79913793D01*
X136444050Y-79913795D01*
X136353911Y-80002066D01*
X136319493Y-80035771D01*
X136221235Y-80188238D01*
X136218826Y-80194858D01*
X136218824Y-80194861D01*
X136161606Y-80352066D01*
X136159197Y-80358685D01*
X136136463Y-80538640D01*
X136154163Y-80719160D01*
X136211418Y-80891273D01*
X136215065Y-80897295D01*
X136215066Y-80897297D01*
X136301720Y-81040380D01*
X136305380Y-81046424D01*
X136310269Y-81051487D01*
X136310270Y-81051488D01*
X136325357Y-81067111D01*
X136334813Y-81076902D01*
X136346627Y-81089136D01*
X136379560Y-81152033D01*
X136373261Y-81222749D01*
X136329729Y-81278834D01*
X136262786Y-81302481D01*
X136247750Y-81302394D01*
X136017989Y-81287335D01*
X136010424Y-81287295D01*
X135691964Y-81304821D01*
X135684450Y-81305690D01*
X135370405Y-81361348D01*
X135363044Y-81363115D01*
X135057980Y-81456092D01*
X135050860Y-81458740D01*
X134759182Y-81587690D01*
X134752445Y-81591167D01*
X134478355Y-81754233D01*
X134472091Y-81758490D01*
X134286385Y-81901762D01*
X134277917Y-81913423D01*
X133695450Y-81913423D01*
X133696466Y-81910749D01*
X133699227Y-81891101D01*
X133721159Y-81735050D01*
X133721159Y-81735047D01*
X133721710Y-81731128D01*
X133722027Y-81708411D01*
X133701808Y-81528156D01*
X133699491Y-81521502D01*
X133644475Y-81363517D01*
X133644473Y-81363514D01*
X133642156Y-81356859D01*
X133546037Y-81203035D01*
X133537246Y-81194182D01*
X133423189Y-81079326D01*
X133423185Y-81079323D01*
X133418226Y-81074329D01*
X133407108Y-81067273D01*
X133321271Y-81012800D01*
X133265077Y-80977138D01*
X133235874Y-80966739D01*
X133100836Y-80918654D01*
X133100831Y-80918653D01*
X133094201Y-80916292D01*
X133087213Y-80915459D01*
X133087210Y-80915458D01*
X132964109Y-80900779D01*
X132914091Y-80894815D01*
X132907088Y-80895551D01*
X132907087Y-80895551D01*
X132740699Y-80913039D01*
X132740697Y-80913040D01*
X132733699Y-80913775D01*
X132561990Y-80972229D01*
X132528026Y-80993124D01*
X132413506Y-81063577D01*
X132413503Y-81063579D01*
X132407499Y-81067273D01*
X132402464Y-81072204D01*
X132402461Y-81072206D01*
X132293735Y-81178679D01*
X132277904Y-81194182D01*
X132179646Y-81346649D01*
X132177237Y-81353269D01*
X132177235Y-81353272D01*
X132131597Y-81478662D01*
X132117608Y-81517096D01*
X132094874Y-81697051D01*
X128706363Y-81697051D01*
X128706499Y-81696759D01*
X128706500Y-81696757D01*
X128708822Y-81691777D01*
X128733194Y-81600822D01*
X128763034Y-81489457D01*
X128763034Y-81489455D01*
X128764458Y-81484142D01*
X128783193Y-81270000D01*
X128764458Y-81055858D01*
X128761930Y-81046424D01*
X128710245Y-80853533D01*
X128710244Y-80853531D01*
X128708822Y-80848223D01*
X128682266Y-80791273D01*
X128620299Y-80658385D01*
X128620297Y-80658382D01*
X128617976Y-80653404D01*
X128494681Y-80477319D01*
X128342681Y-80325319D01*
X128166597Y-80202024D01*
X128161619Y-80199703D01*
X128161616Y-80199701D01*
X127976759Y-80113501D01*
X127976758Y-80113500D01*
X127971777Y-80111178D01*
X127966469Y-80109756D01*
X127966467Y-80109755D01*
X127769457Y-80056966D01*
X127769455Y-80056966D01*
X127764142Y-80055542D01*
X127550000Y-80036807D01*
X127335858Y-80055542D01*
X127330545Y-80056966D01*
X127330543Y-80056966D01*
X127133533Y-80109755D01*
X127133531Y-80109756D01*
X127128223Y-80111178D01*
X127123243Y-80113500D01*
X127123241Y-80113501D01*
X126938385Y-80199701D01*
X126938382Y-80199703D01*
X126933404Y-80202024D01*
X126757319Y-80325319D01*
X126605319Y-80477319D01*
X126482024Y-80653404D01*
X126479703Y-80658382D01*
X126479701Y-80658385D01*
X126417734Y-80791273D01*
X126391178Y-80848223D01*
X126389756Y-80853531D01*
X126389755Y-80853533D01*
X126338070Y-81046424D01*
X126335542Y-81055858D01*
X126316807Y-81270000D01*
X100508500Y-81270000D01*
X100508500Y-80238640D01*
X111436463Y-80238640D01*
X111454163Y-80419160D01*
X111511418Y-80591273D01*
X111515065Y-80597295D01*
X111515066Y-80597297D01*
X111594126Y-80727841D01*
X111605380Y-80746424D01*
X111731382Y-80876902D01*
X111762549Y-80897297D01*
X111873587Y-80969958D01*
X111883159Y-80976222D01*
X111889763Y-80978678D01*
X111889765Y-80978679D01*
X112046558Y-81036990D01*
X112046560Y-81036990D01*
X112053168Y-81039448D01*
X112136319Y-81050543D01*
X112225980Y-81062507D01*
X112225984Y-81062507D01*
X112232961Y-81063438D01*
X112239972Y-81062800D01*
X112239976Y-81062800D01*
X112382459Y-81049832D01*
X112413600Y-81046998D01*
X112420302Y-81044820D01*
X112420304Y-81044820D01*
X112579409Y-80993124D01*
X112579412Y-80993123D01*
X112586108Y-80990947D01*
X112701932Y-80921902D01*
X112735860Y-80901677D01*
X112735862Y-80901676D01*
X112741912Y-80898069D01*
X112873266Y-80772982D01*
X112973643Y-80621902D01*
X113038055Y-80452338D01*
X113039980Y-80438640D01*
X116136463Y-80438640D01*
X116154163Y-80619160D01*
X116211418Y-80791273D01*
X116215065Y-80797295D01*
X116215066Y-80797297D01*
X116299879Y-80937340D01*
X116305380Y-80946424D01*
X116310269Y-80951487D01*
X116310270Y-80951488D01*
X116338690Y-80980917D01*
X116431382Y-81076902D01*
X116583159Y-81176222D01*
X116589763Y-81178678D01*
X116589765Y-81178679D01*
X116746558Y-81236990D01*
X116746560Y-81236990D01*
X116753168Y-81239448D01*
X116836995Y-81250633D01*
X116925980Y-81262507D01*
X116925984Y-81262507D01*
X116932961Y-81263438D01*
X116939972Y-81262800D01*
X116939976Y-81262800D01*
X117082459Y-81249832D01*
X117113600Y-81246998D01*
X117120302Y-81244820D01*
X117120304Y-81244820D01*
X117279409Y-81193124D01*
X117279412Y-81193123D01*
X117286108Y-81190947D01*
X117441912Y-81098069D01*
X117573266Y-80972982D01*
X117673643Y-80821902D01*
X117715423Y-80711917D01*
X117735555Y-80658920D01*
X117735556Y-80658918D01*
X117738055Y-80652338D01*
X117739035Y-80645366D01*
X117762748Y-80476639D01*
X117762748Y-80476636D01*
X117763299Y-80472717D01*
X117763616Y-80450000D01*
X117743397Y-80269745D01*
X117741080Y-80263091D01*
X117715154Y-80188640D01*
X121986463Y-80188640D01*
X122004163Y-80369160D01*
X122061418Y-80541273D01*
X122065065Y-80547295D01*
X122065066Y-80547297D01*
X122128681Y-80652338D01*
X122155380Y-80696424D01*
X122281382Y-80826902D01*
X122350045Y-80871834D01*
X122386439Y-80895649D01*
X122433159Y-80926222D01*
X122439763Y-80928678D01*
X122439765Y-80928679D01*
X122596558Y-80986990D01*
X122596560Y-80986990D01*
X122603168Y-80989448D01*
X122686995Y-81000633D01*
X122775980Y-81012507D01*
X122775984Y-81012507D01*
X122782961Y-81013438D01*
X122789972Y-81012800D01*
X122789976Y-81012800D01*
X122932459Y-80999832D01*
X122963600Y-80996998D01*
X122970302Y-80994820D01*
X122970304Y-80994820D01*
X123129409Y-80943124D01*
X123129412Y-80943123D01*
X123136108Y-80940947D01*
X123252046Y-80871834D01*
X123285860Y-80851677D01*
X123285862Y-80851676D01*
X123291912Y-80848069D01*
X123423266Y-80722982D01*
X123523643Y-80571902D01*
X123581665Y-80419160D01*
X123585555Y-80408920D01*
X123585556Y-80408918D01*
X123588055Y-80402338D01*
X123591652Y-80376744D01*
X123612748Y-80226639D01*
X123612748Y-80226636D01*
X123613299Y-80222717D01*
X123613616Y-80200000D01*
X123593397Y-80019745D01*
X123591080Y-80013091D01*
X123536064Y-79855106D01*
X123536062Y-79855103D01*
X123533745Y-79848448D01*
X123460258Y-79730843D01*
X123441359Y-79700598D01*
X123437626Y-79694624D01*
X123401139Y-79657881D01*
X123314778Y-79570915D01*
X123314774Y-79570912D01*
X123309815Y-79565918D01*
X123298697Y-79558862D01*
X123224140Y-79511547D01*
X123156666Y-79468727D01*
X123117071Y-79454628D01*
X122992425Y-79410243D01*
X122992420Y-79410242D01*
X122985790Y-79407881D01*
X122978802Y-79407048D01*
X122978799Y-79407047D01*
X122855698Y-79392368D01*
X122805680Y-79386404D01*
X122798677Y-79387140D01*
X122798676Y-79387140D01*
X122632288Y-79404628D01*
X122632286Y-79404629D01*
X122625288Y-79405364D01*
X122453579Y-79463818D01*
X122447575Y-79467512D01*
X122305095Y-79555166D01*
X122305092Y-79555168D01*
X122299088Y-79558862D01*
X122294053Y-79563793D01*
X122294050Y-79563795D01*
X122197973Y-79657881D01*
X122169493Y-79685771D01*
X122071235Y-79838238D01*
X122068826Y-79844858D01*
X122068824Y-79844861D01*
X122034332Y-79939627D01*
X122009197Y-80008685D01*
X121986463Y-80188640D01*
X117715154Y-80188640D01*
X117686064Y-80105106D01*
X117686062Y-80105103D01*
X117683745Y-80098448D01*
X117587626Y-79944624D01*
X117559120Y-79915918D01*
X117464778Y-79820915D01*
X117464774Y-79820912D01*
X117459815Y-79815918D01*
X117452928Y-79811547D01*
X117363237Y-79754628D01*
X117306666Y-79718727D01*
X117238977Y-79694624D01*
X117142425Y-79660243D01*
X117142420Y-79660242D01*
X117135790Y-79657881D01*
X117128802Y-79657048D01*
X117128799Y-79657047D01*
X117005698Y-79642368D01*
X116955680Y-79636404D01*
X116948677Y-79637140D01*
X116948676Y-79637140D01*
X116782288Y-79654628D01*
X116782286Y-79654629D01*
X116775288Y-79655364D01*
X116603579Y-79713818D01*
X116567895Y-79735771D01*
X116455095Y-79805166D01*
X116455092Y-79805168D01*
X116449088Y-79808862D01*
X116444053Y-79813793D01*
X116444050Y-79813795D01*
X116343621Y-79912143D01*
X116319493Y-79935771D01*
X116221235Y-80088238D01*
X116218826Y-80094858D01*
X116218824Y-80094861D01*
X116172288Y-80222717D01*
X116159197Y-80258685D01*
X116136463Y-80438640D01*
X113039980Y-80438640D01*
X113040963Y-80431646D01*
X113062748Y-80276639D01*
X113062748Y-80276636D01*
X113063299Y-80272717D01*
X113063616Y-80250000D01*
X113043397Y-80069745D01*
X113041080Y-80063091D01*
X112986064Y-79905106D01*
X112986062Y-79905103D01*
X112983745Y-79898448D01*
X112952502Y-79848448D01*
X112891359Y-79750598D01*
X112887626Y-79744624D01*
X112882664Y-79739627D01*
X112764778Y-79620915D01*
X112764774Y-79620912D01*
X112759815Y-79615918D01*
X112748697Y-79608862D01*
X112664085Y-79555166D01*
X112606666Y-79518727D01*
X112577463Y-79508328D01*
X112442425Y-79460243D01*
X112442420Y-79460242D01*
X112435790Y-79457881D01*
X112428802Y-79457048D01*
X112428799Y-79457047D01*
X112305698Y-79442368D01*
X112255680Y-79436404D01*
X112248677Y-79437140D01*
X112248676Y-79437140D01*
X112082288Y-79454628D01*
X112082286Y-79454629D01*
X112075288Y-79455364D01*
X111903579Y-79513818D01*
X111897575Y-79517512D01*
X111755095Y-79605166D01*
X111755092Y-79605168D01*
X111749088Y-79608862D01*
X111744053Y-79613793D01*
X111744050Y-79613795D01*
X111624525Y-79730843D01*
X111619493Y-79735771D01*
X111521235Y-79888238D01*
X111518826Y-79894858D01*
X111518824Y-79894861D01*
X111464315Y-80044624D01*
X111459197Y-80058685D01*
X111436463Y-80238640D01*
X100508500Y-80238640D01*
X100508500Y-78884500D01*
X100528502Y-78816379D01*
X100582158Y-78769886D01*
X100634500Y-78758500D01*
X138365500Y-78758500D01*
X138433621Y-78778502D01*
G37*
%TD.AperFunction*%
%TD*%
%TA.AperFunction,Conductor*%
%TO.N,GND*%
G36*
X135780334Y-92653502D02*
G01*
X135826827Y-92707158D01*
X135836931Y-92777432D01*
X135807437Y-92842012D01*
X135772599Y-92870087D01*
X135759258Y-92877372D01*
X135759254Y-92877375D01*
X135755305Y-92879531D01*
X135751705Y-92882226D01*
X135641908Y-92964420D01*
X135641904Y-92964424D01*
X135638306Y-92967117D01*
X135495906Y-93109517D01*
X135479242Y-93126983D01*
X135478780Y-93127491D01*
X135477461Y-93128940D01*
X135416817Y-93165856D01*
X135386208Y-93170116D01*
X135385994Y-93170119D01*
X135385825Y-93170122D01*
X135385662Y-93170125D01*
X135385419Y-93170131D01*
X135385406Y-93170131D01*
X135383952Y-93170165D01*
X135377569Y-93170316D01*
X135351416Y-93171138D01*
X135341543Y-93171060D01*
X135331122Y-93170569D01*
X135330412Y-93170552D01*
X135330376Y-93170551D01*
X135307679Y-93170017D01*
X135307665Y-93170017D01*
X135306950Y-93170000D01*
X135001058Y-93170000D01*
X134941310Y-93178078D01*
X134868887Y-93187870D01*
X134868882Y-93187871D01*
X134864696Y-93188437D01*
X134860622Y-93189559D01*
X134860618Y-93189560D01*
X134804269Y-93205081D01*
X134804267Y-93205082D01*
X134800178Y-93206208D01*
X134673605Y-93260196D01*
X134669969Y-93262363D01*
X134669966Y-93262365D01*
X134642464Y-93278760D01*
X134584788Y-93313142D01*
X134559212Y-93324744D01*
X134523132Y-93336467D01*
X134495617Y-93342114D01*
X134467512Y-93344672D01*
X134457862Y-93345550D01*
X134429778Y-93344962D01*
X134392184Y-93339946D01*
X134364929Y-93333151D01*
X134361292Y-93331799D01*
X134329385Y-93319932D01*
X134304315Y-93307268D01*
X134272572Y-93286496D01*
X134250933Y-93268595D01*
X134224590Y-93241316D01*
X134207453Y-93219063D01*
X134187804Y-93186617D01*
X134176023Y-93161121D01*
X134164053Y-93125139D01*
X134158212Y-93097661D01*
X134154512Y-93059923D01*
X134154904Y-93031837D01*
X134156528Y-93018980D01*
X134157075Y-93014651D01*
X134156066Y-92936119D01*
X134175192Y-92867747D01*
X134228246Y-92820568D01*
X134282056Y-92808500D01*
X134441502Y-92808500D01*
X134443950Y-92808307D01*
X134443958Y-92808307D01*
X134472421Y-92806067D01*
X134472426Y-92806066D01*
X134478831Y-92805562D01*
X134578769Y-92776528D01*
X134630988Y-92761357D01*
X134630990Y-92761356D01*
X134638601Y-92759145D01*
X134726506Y-92707158D01*
X134774980Y-92678491D01*
X134774983Y-92678489D01*
X134781807Y-92674453D01*
X134787415Y-92668845D01*
X134793675Y-92663989D01*
X134794844Y-92665496D01*
X134848167Y-92636379D01*
X134874950Y-92633500D01*
X135712213Y-92633500D01*
X135780334Y-92653502D01*
G37*
%TD.AperFunction*%
%TA.AperFunction,Conductor*%
G36*
X132066102Y-91904785D02*
G01*
X132107337Y-91909702D01*
X132122200Y-91912387D01*
X132224011Y-91937163D01*
X132227225Y-91937601D01*
X132227232Y-91937602D01*
X132251167Y-91940861D01*
X132275267Y-91944143D01*
X132278503Y-91944247D01*
X132278509Y-91944247D01*
X132310844Y-91945281D01*
X132344528Y-91946358D01*
X132411974Y-91968528D01*
X132456728Y-92023642D01*
X132466500Y-92072294D01*
X132466500Y-92186232D01*
X132446498Y-92254353D01*
X132413524Y-92288914D01*
X132298788Y-92370508D01*
X132295526Y-92373614D01*
X132295524Y-92373616D01*
X132239740Y-92426738D01*
X132217371Y-92443718D01*
X132184785Y-92463144D01*
X132159212Y-92474744D01*
X132123134Y-92486466D01*
X132095627Y-92492113D01*
X132057850Y-92495551D01*
X132029775Y-92494962D01*
X131992186Y-92489947D01*
X131964930Y-92483151D01*
X131929386Y-92469932D01*
X131904314Y-92457267D01*
X131872574Y-92436497D01*
X131850934Y-92418596D01*
X131824588Y-92391314D01*
X131807453Y-92369063D01*
X131806753Y-92367906D01*
X131787804Y-92336618D01*
X131776023Y-92311121D01*
X131764053Y-92275138D01*
X131758212Y-92247661D01*
X131754512Y-92209924D01*
X131754905Y-92181837D01*
X131759659Y-92144205D01*
X131766264Y-92116901D01*
X131779233Y-92081270D01*
X131791723Y-92056111D01*
X131812267Y-92024233D01*
X131830015Y-92002470D01*
X131857116Y-91975930D01*
X131879247Y-91958640D01*
X131911551Y-91938766D01*
X131936971Y-91926805D01*
X131972869Y-91914585D01*
X132000301Y-91908553D01*
X132002731Y-91908298D01*
X132038018Y-91904589D01*
X132066102Y-91904785D01*
G37*
%TD.AperFunction*%
%TA.AperFunction,Conductor*%
G36*
X127713290Y-91239577D02*
G01*
X127726209Y-91247963D01*
X127728110Y-91249370D01*
X127731520Y-91252290D01*
X127735309Y-91254694D01*
X127735319Y-91254702D01*
X127824105Y-91311047D01*
X127845997Y-91328648D01*
X127872717Y-91355555D01*
X127890163Y-91377568D01*
X127905712Y-91402451D01*
X127910259Y-91409728D01*
X127922395Y-91435056D01*
X127934870Y-91470879D01*
X127941093Y-91498270D01*
X127945587Y-91538337D01*
X127945146Y-91569917D01*
X127939535Y-91609840D01*
X127932549Y-91637048D01*
X127919082Y-91672500D01*
X127906244Y-91697480D01*
X127885258Y-91729067D01*
X127867203Y-91750584D01*
X127839737Y-91776740D01*
X127817363Y-91793723D01*
X127784790Y-91813141D01*
X127759213Y-91824744D01*
X127723130Y-91836468D01*
X127695618Y-91842114D01*
X127657861Y-91845550D01*
X127629778Y-91844962D01*
X127592184Y-91839946D01*
X127564929Y-91833151D01*
X127561292Y-91831799D01*
X127529385Y-91819932D01*
X127504315Y-91807268D01*
X127472572Y-91786496D01*
X127450933Y-91768595D01*
X127424590Y-91741316D01*
X127407453Y-91719063D01*
X127387804Y-91686617D01*
X127376023Y-91661121D01*
X127364053Y-91625139D01*
X127358212Y-91597661D01*
X127354512Y-91559924D01*
X127354905Y-91531837D01*
X127359659Y-91494205D01*
X127366264Y-91466901D01*
X127379233Y-91431270D01*
X127391722Y-91406112D01*
X127412268Y-91374232D01*
X127430020Y-91352465D01*
X127457116Y-91325931D01*
X127479250Y-91308638D01*
X127565725Y-91255437D01*
X127567775Y-91254176D01*
X127577267Y-91247287D01*
X127644146Y-91223462D01*
X127713290Y-91239577D01*
G37*
%TD.AperFunction*%
%TA.AperFunction,Conductor*%
G36*
X137436668Y-88828502D02*
G01*
X137483161Y-88882158D01*
X137493125Y-88930486D01*
X137494346Y-88930425D01*
X137494346Y-88930429D01*
X137495203Y-88947740D01*
X137481182Y-89006025D01*
X137502979Y-89035667D01*
X137508229Y-89054609D01*
X137524929Y-89140381D01*
X137524933Y-89140395D01*
X137525792Y-89144808D01*
X137534871Y-89170879D01*
X137541092Y-89198263D01*
X137545587Y-89238336D01*
X137545146Y-89269914D01*
X137539535Y-89309842D01*
X137532549Y-89337050D01*
X137519083Y-89372499D01*
X137506242Y-89397483D01*
X137489936Y-89422025D01*
X137435578Y-89467695D01*
X137365159Y-89476727D01*
X137301035Y-89446253D01*
X137263566Y-89385949D01*
X137258989Y-89352297D01*
X137258989Y-89204257D01*
X137259516Y-89193074D01*
X137261191Y-89185581D01*
X137259051Y-89117490D01*
X137258989Y-89113533D01*
X137258989Y-89085633D01*
X137259021Y-89085633D01*
X137272457Y-89026310D01*
X137250367Y-88995414D01*
X137247253Y-88982145D01*
X137246926Y-88982229D01*
X137244957Y-88974557D01*
X137243963Y-88966692D01*
X137242788Y-88963725D01*
X137245152Y-88894875D01*
X137285562Y-88836501D01*
X137351117Y-88809241D01*
X137364759Y-88808500D01*
X137368547Y-88808500D01*
X137436668Y-88828502D01*
G37*
%TD.AperFunction*%
%TD*%
M02*
