%TF.GenerationSoftware,KiCad,Pcbnew,(6.0.4-0)*%
%TF.CreationDate,2022-10-07T09:19:10-06:00*%
%TF.ProjectId,howland,686f776c-616e-4642-9e6b-696361645f70,rev?*%
%TF.SameCoordinates,Original*%
%TF.FileFunction,Paste,Top*%
%TF.FilePolarity,Positive*%
%FSLAX46Y46*%
G04 Gerber Fmt 4.6, Leading zero omitted, Abs format (unit mm)*
G04 Created by KiCad (PCBNEW (6.0.4-0)) date 2022-10-07 09:19:10*
%MOMM*%
%LPD*%
G01*
G04 APERTURE LIST*
G04 Aperture macros list*
%AMRoundRect*
0 Rectangle with rounded corners*
0 $1 Rounding radius*
0 $2 $3 $4 $5 $6 $7 $8 $9 X,Y pos of 4 corners*
0 Add a 4 corners polygon primitive as box body*
4,1,4,$2,$3,$4,$5,$6,$7,$8,$9,$2,$3,0*
0 Add four circle primitives for the rounded corners*
1,1,$1+$1,$2,$3*
1,1,$1+$1,$4,$5*
1,1,$1+$1,$6,$7*
1,1,$1+$1,$8,$9*
0 Add four rect primitives between the rounded corners*
20,1,$1+$1,$2,$3,$4,$5,0*
20,1,$1+$1,$4,$5,$6,$7,0*
20,1,$1+$1,$6,$7,$8,$9,0*
20,1,$1+$1,$8,$9,$2,$3,0*%
G04 Aperture macros list end*
%ADD10RoundRect,0.150000X-0.512500X-0.150000X0.512500X-0.150000X0.512500X0.150000X-0.512500X0.150000X0*%
%ADD11R,1.450000X0.450000*%
%ADD12RoundRect,0.150000X0.512500X0.150000X-0.512500X0.150000X-0.512500X-0.150000X0.512500X-0.150000X0*%
%ADD13RoundRect,0.237500X0.250000X0.237500X-0.250000X0.237500X-0.250000X-0.237500X0.250000X-0.237500X0*%
%ADD14RoundRect,0.250000X0.262500X0.450000X-0.262500X0.450000X-0.262500X-0.450000X0.262500X-0.450000X0*%
%ADD15RoundRect,0.250000X-0.450000X0.262500X-0.450000X-0.262500X0.450000X-0.262500X0.450000X0.262500X0*%
%ADD16RoundRect,0.250000X-0.262500X-0.450000X0.262500X-0.450000X0.262500X0.450000X-0.262500X0.450000X0*%
%ADD17R,1.000000X1.000000*%
%ADD18C,1.000000*%
%ADD19RoundRect,0.237500X-0.300000X-0.237500X0.300000X-0.237500X0.300000X0.237500X-0.300000X0.237500X0*%
%ADD20RoundRect,0.237500X0.237500X-0.300000X0.237500X0.300000X-0.237500X0.300000X-0.237500X-0.300000X0*%
%ADD21RoundRect,0.147500X0.147500X0.172500X-0.147500X0.172500X-0.147500X-0.172500X0.147500X-0.172500X0*%
%ADD22RoundRect,0.250000X0.325000X0.450000X-0.325000X0.450000X-0.325000X-0.450000X0.325000X-0.450000X0*%
%ADD23RoundRect,0.147500X-0.172500X0.147500X-0.172500X-0.147500X0.172500X-0.147500X0.172500X0.147500X0*%
%ADD24RoundRect,0.147500X-0.147500X-0.172500X0.147500X-0.172500X0.147500X0.172500X-0.147500X0.172500X0*%
%ADD25RoundRect,0.150000X-0.625000X0.150000X-0.625000X-0.150000X0.625000X-0.150000X0.625000X0.150000X0*%
%ADD26RoundRect,0.250000X-0.650000X0.350000X-0.650000X-0.350000X0.650000X-0.350000X0.650000X0.350000X0*%
%ADD27RoundRect,0.237500X0.237500X-0.287500X0.237500X0.287500X-0.237500X0.287500X-0.237500X-0.287500X0*%
%ADD28RoundRect,0.150000X0.625000X-0.150000X0.625000X0.150000X-0.625000X0.150000X-0.625000X-0.150000X0*%
%ADD29RoundRect,0.250000X0.650000X-0.350000X0.650000X0.350000X-0.650000X0.350000X-0.650000X-0.350000X0*%
%ADD30R,0.450000X1.450000*%
%ADD31R,0.650000X1.560000*%
%ADD32RoundRect,0.237500X0.300000X0.237500X-0.300000X0.237500X-0.300000X-0.237500X0.300000X-0.237500X0*%
G04 APERTURE END LIST*
D10*
%TO.C,U6*%
X113112500Y-82200000D03*
X113112500Y-83150000D03*
X113112500Y-84100000D03*
X115387500Y-84100000D03*
X115387500Y-82200000D03*
%TD*%
D11*
%TO.C,U5*%
X117950000Y-86025000D03*
X117950000Y-85375000D03*
X117950000Y-84725000D03*
X117950000Y-84075000D03*
X122350000Y-84075000D03*
X122350000Y-84725000D03*
X122350000Y-85375000D03*
X122350000Y-86025000D03*
%TD*%
D12*
%TO.C,U4*%
X127212500Y-83800000D03*
X127212500Y-82850000D03*
X127212500Y-81900000D03*
X129487500Y-81900000D03*
X129487500Y-82850000D03*
X129487500Y-83800000D03*
%TD*%
D13*
%TO.C,R16*%
X110262500Y-85750000D03*
X108437500Y-85750000D03*
%TD*%
D14*
%TO.C,R15*%
X110662500Y-94950000D03*
X108837500Y-94950000D03*
%TD*%
D15*
%TO.C,R14*%
X108050000Y-82337500D03*
X108050000Y-84162500D03*
%TD*%
D14*
%TO.C,R13*%
X98050000Y-62250000D03*
X96225000Y-62250000D03*
%TD*%
%TO.C,R12*%
X115162500Y-86350000D03*
X113337500Y-86350000D03*
%TD*%
D16*
%TO.C,R11*%
X126662500Y-85850000D03*
X124837500Y-85850000D03*
%TD*%
D15*
%TO.C,R10*%
X124950000Y-83762500D03*
X124950000Y-81937500D03*
%TD*%
D17*
%TO.C,J6*%
X94350000Y-63550000D03*
X91550000Y-63550000D03*
X91550000Y-60750000D03*
X94350000Y-60750000D03*
D18*
X92950000Y-62150000D03*
%TD*%
D17*
%TO.C,J5*%
X110250000Y-97350000D03*
X110250000Y-100150000D03*
X107450000Y-100150000D03*
X107450000Y-97350000D03*
D18*
X108850000Y-98750000D03*
%TD*%
D19*
%TO.C,C9*%
X113987500Y-80450000D03*
X115712500Y-80450000D03*
%TD*%
%TO.C,C8*%
X119272500Y-82410000D03*
X117547500Y-82410000D03*
%TD*%
D20*
%TO.C,C7*%
X131450000Y-81950000D03*
X131450000Y-83675000D03*
%TD*%
D21*
%TO.C,R3*%
X111250000Y-90550000D03*
X110280000Y-90550000D03*
%TD*%
%TO.C,R4*%
X111235000Y-91650000D03*
X110265000Y-91650000D03*
%TD*%
D22*
%TO.C,L1*%
X122660000Y-98450000D03*
X120610000Y-98450000D03*
%TD*%
D23*
%TO.C,C1*%
X112650000Y-89565000D03*
X112650000Y-90535000D03*
%TD*%
%TO.C,C2*%
X112650000Y-91650000D03*
X112650000Y-92620000D03*
%TD*%
%TO.C,C3*%
X114050000Y-90590000D03*
X114050000Y-91560000D03*
%TD*%
D24*
%TO.C,C4*%
X124165000Y-88350000D03*
X125135000Y-88350000D03*
%TD*%
D25*
%TO.C,J1*%
X105250000Y-89050000D03*
X105250000Y-90050000D03*
X105250000Y-91050000D03*
X105250000Y-92050000D03*
D26*
X101375000Y-93350000D03*
X101375000Y-87750000D03*
%TD*%
D27*
%TO.C,R1*%
X132050000Y-97375000D03*
X132050000Y-95625000D03*
%TD*%
%TO.C,R2*%
X130400000Y-97375000D03*
X130400000Y-95625000D03*
%TD*%
D28*
%TO.C,J2*%
X133750000Y-92000000D03*
X133750000Y-91000000D03*
X133750000Y-90000000D03*
X133750000Y-89000000D03*
D29*
X137625000Y-87700000D03*
X137625000Y-93300000D03*
%TD*%
D30*
%TO.C,U3*%
X118225000Y-90750000D03*
X117575000Y-90750000D03*
X116925000Y-90750000D03*
X116275000Y-90750000D03*
X116275000Y-95150000D03*
X116925000Y-95150000D03*
X117575000Y-95150000D03*
X118225000Y-95150000D03*
%TD*%
D31*
%TO.C,U1*%
X123200000Y-93000000D03*
X124150000Y-93000000D03*
X125100000Y-93000000D03*
X125100000Y-90300000D03*
X124150000Y-90300000D03*
X123200000Y-90300000D03*
%TD*%
D32*
%TO.C,C6*%
X119112500Y-87850000D03*
X117387500Y-87850000D03*
%TD*%
M02*
