%TF.GenerationSoftware,KiCad,Pcbnew,(6.0.4-0)*%
%TF.CreationDate,2023-02-24T14:50:30-07:00*%
%TF.ProjectId,howland,686f776c-616e-4642-9e6b-696361645f70,rev?*%
%TF.SameCoordinates,Original*%
%TF.FileFunction,Copper,L3,Inr*%
%TF.FilePolarity,Positive*%
%FSLAX46Y46*%
G04 Gerber Fmt 4.6, Leading zero omitted, Abs format (unit mm)*
G04 Created by KiCad (PCBNEW (6.0.4-0)) date 2023-02-24 14:50:30*
%MOMM*%
%LPD*%
G01*
G04 APERTURE LIST*
%TA.AperFunction,ComponentPad*%
%ADD10C,0.700000*%
%TD*%
%TA.AperFunction,ComponentPad*%
%ADD11C,4.400000*%
%TD*%
%TA.AperFunction,ComponentPad*%
%ADD12C,1.440000*%
%TD*%
%TA.AperFunction,ViaPad*%
%ADD13C,0.600000*%
%TD*%
G04 APERTURE END LIST*
D10*
%TO.N,GNDPWR*%
%TO.C,MH1*%
X101350000Y-84000000D03*
X103000000Y-82350000D03*
X104166726Y-85166726D03*
X104166726Y-82833274D03*
D11*
X103000000Y-84000000D03*
D10*
X104650000Y-84000000D03*
X101833274Y-82833274D03*
X101833274Y-85166726D03*
X103000000Y-85650000D03*
%TD*%
D11*
%TO.N,GNDPWR*%
%TO.C,MH2*%
X136000000Y-84000000D03*
D10*
X137166726Y-82833274D03*
X134350000Y-84000000D03*
X137650000Y-84000000D03*
X137166726Y-85166726D03*
X136000000Y-82350000D03*
X136000000Y-85650000D03*
X134833274Y-85166726D03*
X134833274Y-82833274D03*
%TD*%
%TO.N,GNDPWR*%
%TO.C,MH3*%
X101833274Y-98166726D03*
D11*
X103000000Y-97000000D03*
D10*
X104166726Y-98166726D03*
X101833274Y-95833274D03*
X104166726Y-95833274D03*
X103000000Y-95350000D03*
X104650000Y-97000000D03*
X101350000Y-97000000D03*
X103000000Y-98650000D03*
%TD*%
D11*
%TO.N,GNDPWR*%
%TO.C,MH4*%
X136000000Y-97000000D03*
D10*
X134833274Y-95833274D03*
X134350000Y-97000000D03*
X137650000Y-97000000D03*
X136000000Y-95350000D03*
X137166726Y-98166726D03*
X137166726Y-95833274D03*
X134833274Y-98166726D03*
X136000000Y-98650000D03*
%TD*%
D12*
%TO.N,Net-(R7-Pad2)*%
%TO.C,RV1*%
X127550000Y-86350000D03*
%TO.N,Net-(RV1-Pad2)*%
X125010000Y-83810000D03*
%TO.N,Net-(R8-Pad1)*%
X127550000Y-81270000D03*
%TD*%
D13*
%TO.N,GND*%
X136950000Y-80550000D03*
X132908411Y-81708411D03*
X112250000Y-80250000D03*
X132050000Y-92200000D03*
X112650000Y-88750000D03*
X123350000Y-94750000D03*
X116150000Y-89150000D03*
X112650000Y-93650000D03*
X127650000Y-91550000D03*
%TO.N,+3V3*%
X130650000Y-85150000D03*
X133887500Y-80550000D03*
X116950000Y-80450000D03*
X121250000Y-87850000D03*
X121250000Y-96950000D03*
X122800000Y-80200000D03*
%TO.N,VD*%
X132000000Y-91200000D03*
X135450000Y-91250000D03*
X122465000Y-96965000D03*
X122950000Y-88450000D03*
%TO.N,/Channel1/buffer/out+*%
X120150000Y-93250000D03*
X119550000Y-90550000D03*
%TO.N,/sda-tx*%
X128750000Y-93850000D03*
X135450000Y-89950000D03*
X126350000Y-89950000D03*
X132050000Y-94249990D03*
%TD*%
%TA.AperFunction,Conductor*%
%TO.N,GND*%
G36*
X138433621Y-78778502D02*
G01*
X138480114Y-78832158D01*
X138491500Y-78884500D01*
X138491500Y-82433521D01*
X138471498Y-82501642D01*
X138417842Y-82548135D01*
X138347568Y-82558239D01*
X138282988Y-82528745D01*
X138257557Y-82498515D01*
X138236226Y-82463084D01*
X138233899Y-82460100D01*
X138233894Y-82460093D01*
X138037726Y-82208558D01*
X138037724Y-82208556D01*
X138035390Y-82205563D01*
X137805070Y-81974034D01*
X137548603Y-81771852D01*
X137269705Y-81601945D01*
X137266261Y-81600379D01*
X137266257Y-81600377D01*
X137022300Y-81489457D01*
X136972414Y-81466775D01*
X136661037Y-81368300D01*
X136443492Y-81327390D01*
X136343809Y-81308645D01*
X136343807Y-81308645D01*
X136340086Y-81307945D01*
X136014208Y-81286586D01*
X136010428Y-81286794D01*
X136010427Y-81286794D01*
X135934967Y-81290947D01*
X135688124Y-81304532D01*
X135684397Y-81305193D01*
X135684393Y-81305193D01*
X135527341Y-81333027D01*
X135366557Y-81361522D01*
X135362941Y-81362624D01*
X135362933Y-81362626D01*
X135057789Y-81455627D01*
X135054167Y-81456731D01*
X134755477Y-81588781D01*
X134730041Y-81603914D01*
X134478074Y-81753817D01*
X134478068Y-81753821D01*
X134474814Y-81755757D01*
X134471812Y-81758073D01*
X134299384Y-81891101D01*
X134216244Y-81955243D01*
X133983513Y-82184347D01*
X133981149Y-82187314D01*
X133981146Y-82187317D01*
X133790551Y-82426499D01*
X133779991Y-82439751D01*
X133608626Y-82717757D01*
X133471902Y-83014336D01*
X133470741Y-83017940D01*
X133470741Y-83017941D01*
X133462196Y-83044477D01*
X133371797Y-83325192D01*
X133371079Y-83328903D01*
X133371078Y-83328907D01*
X133310482Y-83642105D01*
X133310481Y-83642114D01*
X133309763Y-83645824D01*
X133309496Y-83649600D01*
X133309495Y-83649605D01*
X133297751Y-83815475D01*
X133286698Y-83971585D01*
X133302936Y-84297759D01*
X133303577Y-84301490D01*
X133303578Y-84301498D01*
X133356000Y-84606576D01*
X133358241Y-84619619D01*
X133359329Y-84623258D01*
X133359330Y-84623261D01*
X133435507Y-84877976D01*
X133451814Y-84932504D01*
X133453327Y-84935975D01*
X133453329Y-84935981D01*
X133508500Y-85062563D01*
X133582297Y-85231881D01*
X133584220Y-85235152D01*
X133584222Y-85235156D01*
X133653110Y-85352338D01*
X133747802Y-85513414D01*
X133750103Y-85516429D01*
X133943631Y-85770012D01*
X133943636Y-85770017D01*
X133945931Y-85773025D01*
X134007931Y-85836670D01*
X134130517Y-85962507D01*
X134173814Y-86006953D01*
X134246635Y-86065607D01*
X134425196Y-86209431D01*
X134425201Y-86209435D01*
X134428149Y-86211809D01*
X134705253Y-86384627D01*
X135001112Y-86522903D01*
X135311440Y-86624634D01*
X135631742Y-86688346D01*
X135635514Y-86688633D01*
X135635522Y-86688634D01*
X135953602Y-86712829D01*
X135953607Y-86712829D01*
X135957379Y-86713116D01*
X136283633Y-86698586D01*
X136343425Y-86688634D01*
X136602037Y-86645590D01*
X136602042Y-86645589D01*
X136605778Y-86644967D01*
X136919149Y-86553034D01*
X136922616Y-86551544D01*
X136922620Y-86551543D01*
X137215721Y-86425616D01*
X137215723Y-86425615D01*
X137219205Y-86424119D01*
X137501601Y-86260091D01*
X137762245Y-86063324D01*
X137997363Y-85836670D01*
X138203549Y-85583410D01*
X138258939Y-85495622D01*
X138312205Y-85448685D01*
X138382392Y-85437996D01*
X138447217Y-85466951D01*
X138486096Y-85526355D01*
X138491500Y-85562859D01*
X138491500Y-95433521D01*
X138471498Y-95501642D01*
X138417842Y-95548135D01*
X138347568Y-95558239D01*
X138282988Y-95528745D01*
X138257557Y-95498515D01*
X138236226Y-95463084D01*
X138233899Y-95460100D01*
X138233894Y-95460093D01*
X138037726Y-95208558D01*
X138037724Y-95208556D01*
X138035390Y-95205563D01*
X137805070Y-94974034D01*
X137548603Y-94771852D01*
X137269705Y-94601945D01*
X137266261Y-94600379D01*
X137266257Y-94600377D01*
X137155667Y-94550095D01*
X136972414Y-94466775D01*
X136661037Y-94368300D01*
X136443492Y-94327390D01*
X136343809Y-94308645D01*
X136343807Y-94308645D01*
X136340086Y-94307945D01*
X136014208Y-94286586D01*
X136010428Y-94286794D01*
X136010427Y-94286794D01*
X135912897Y-94292162D01*
X135688124Y-94304532D01*
X135684397Y-94305193D01*
X135684393Y-94305193D01*
X135527340Y-94333027D01*
X135366557Y-94361522D01*
X135362941Y-94362624D01*
X135362933Y-94362626D01*
X135057789Y-94455627D01*
X135054167Y-94456731D01*
X134755477Y-94588781D01*
X134656548Y-94647637D01*
X134478074Y-94753817D01*
X134478068Y-94753821D01*
X134474814Y-94755757D01*
X134471812Y-94758073D01*
X134290365Y-94898059D01*
X134216244Y-94955243D01*
X133983513Y-95184347D01*
X133981149Y-95187314D01*
X133981146Y-95187317D01*
X133964220Y-95208558D01*
X133779991Y-95439751D01*
X133608626Y-95717757D01*
X133471902Y-96014336D01*
X133470741Y-96017940D01*
X133470741Y-96017941D01*
X133462196Y-96044477D01*
X133371797Y-96325192D01*
X133371079Y-96328903D01*
X133371078Y-96328907D01*
X133310482Y-96642105D01*
X133310481Y-96642114D01*
X133309763Y-96645824D01*
X133309496Y-96649600D01*
X133309495Y-96649605D01*
X133288534Y-96945653D01*
X133286698Y-96971585D01*
X133288003Y-96997790D01*
X133294378Y-97125844D01*
X133302936Y-97297759D01*
X133303577Y-97301490D01*
X133303578Y-97301498D01*
X133357116Y-97613069D01*
X133358241Y-97619619D01*
X133359329Y-97623258D01*
X133359330Y-97623261D01*
X133401013Y-97762637D01*
X133451814Y-97932504D01*
X133582297Y-98231881D01*
X133584220Y-98235152D01*
X133584222Y-98235156D01*
X133626584Y-98307215D01*
X133747802Y-98513414D01*
X133750103Y-98516429D01*
X133943631Y-98770012D01*
X133943636Y-98770017D01*
X133945931Y-98773025D01*
X134173814Y-99006953D01*
X134246635Y-99065607D01*
X134425196Y-99209431D01*
X134425201Y-99209435D01*
X134428149Y-99211809D01*
X134705253Y-99384627D01*
X135001112Y-99522903D01*
X135311440Y-99624634D01*
X135631742Y-99688346D01*
X135635514Y-99688633D01*
X135635522Y-99688634D01*
X135953602Y-99712829D01*
X135953607Y-99712829D01*
X135957379Y-99713116D01*
X136283633Y-99698586D01*
X136343425Y-99688634D01*
X136602037Y-99645590D01*
X136602042Y-99645589D01*
X136605778Y-99644967D01*
X136919149Y-99553034D01*
X136922616Y-99551544D01*
X136922620Y-99551543D01*
X137215721Y-99425616D01*
X137215723Y-99425615D01*
X137219205Y-99424119D01*
X137501601Y-99260091D01*
X137762245Y-99063324D01*
X137997363Y-98836670D01*
X138203549Y-98583410D01*
X138258939Y-98495622D01*
X138312205Y-98448685D01*
X138382392Y-98437996D01*
X138447217Y-98466951D01*
X138486096Y-98526355D01*
X138491500Y-98562859D01*
X138491500Y-101615500D01*
X138471498Y-101683621D01*
X138417842Y-101730114D01*
X138365500Y-101741500D01*
X100634500Y-101741500D01*
X100566379Y-101721498D01*
X100519886Y-101667842D01*
X100508500Y-101615500D01*
X100508500Y-98569306D01*
X100528502Y-98501185D01*
X100582158Y-98454692D01*
X100652432Y-98444588D01*
X100717012Y-98474082D01*
X100743122Y-98505453D01*
X100747802Y-98513414D01*
X100750103Y-98516429D01*
X100943631Y-98770012D01*
X100943636Y-98770017D01*
X100945931Y-98773025D01*
X101173814Y-99006953D01*
X101246635Y-99065607D01*
X101425196Y-99209431D01*
X101425201Y-99209435D01*
X101428149Y-99211809D01*
X101705253Y-99384627D01*
X102001112Y-99522903D01*
X102311440Y-99624634D01*
X102631742Y-99688346D01*
X102635514Y-99688633D01*
X102635522Y-99688634D01*
X102953602Y-99712829D01*
X102953607Y-99712829D01*
X102957379Y-99713116D01*
X103283633Y-99698586D01*
X103343425Y-99688634D01*
X103602037Y-99645590D01*
X103602042Y-99645589D01*
X103605778Y-99644967D01*
X103919149Y-99553034D01*
X103922616Y-99551544D01*
X103922620Y-99551543D01*
X104215721Y-99425616D01*
X104215723Y-99425615D01*
X104219205Y-99424119D01*
X104501601Y-99260091D01*
X104762245Y-99063324D01*
X104997363Y-98836670D01*
X105203549Y-98583410D01*
X105255429Y-98501185D01*
X105375788Y-98310428D01*
X105375790Y-98310425D01*
X105377815Y-98307215D01*
X105517638Y-98012084D01*
X105544188Y-97932504D01*
X105619790Y-97705897D01*
X105619792Y-97705891D01*
X105620992Y-97702293D01*
X105686381Y-97382329D01*
X105689599Y-97342773D01*
X105712674Y-97059061D01*
X105712856Y-97056826D01*
X105713451Y-97000000D01*
X105712711Y-96987717D01*
X105709752Y-96938640D01*
X120436463Y-96938640D01*
X120454163Y-97119160D01*
X120511418Y-97291273D01*
X120515065Y-97297295D01*
X120515066Y-97297297D01*
X120568823Y-97386060D01*
X120605380Y-97446424D01*
X120731382Y-97576902D01*
X120883159Y-97676222D01*
X120889763Y-97678678D01*
X120889765Y-97678679D01*
X121046558Y-97736990D01*
X121046560Y-97736990D01*
X121053168Y-97739448D01*
X121136995Y-97750633D01*
X121225980Y-97762507D01*
X121225984Y-97762507D01*
X121232961Y-97763438D01*
X121239972Y-97762800D01*
X121239976Y-97762800D01*
X121382459Y-97749832D01*
X121413600Y-97746998D01*
X121420302Y-97744820D01*
X121420304Y-97744820D01*
X121579409Y-97693124D01*
X121579412Y-97693123D01*
X121586108Y-97690947D01*
X121712044Y-97615874D01*
X121735860Y-97601677D01*
X121735862Y-97601676D01*
X121741912Y-97598069D01*
X121760920Y-97579968D01*
X121824045Y-97547476D01*
X121894716Y-97554269D01*
X121938444Y-97583682D01*
X121946382Y-97591902D01*
X121961320Y-97601677D01*
X122092227Y-97687340D01*
X122098159Y-97691222D01*
X122104763Y-97693678D01*
X122104765Y-97693679D01*
X122261558Y-97751990D01*
X122261560Y-97751990D01*
X122268168Y-97754448D01*
X122335544Y-97763438D01*
X122440980Y-97777507D01*
X122440984Y-97777507D01*
X122447961Y-97778438D01*
X122454972Y-97777800D01*
X122454976Y-97777800D01*
X122597459Y-97764832D01*
X122628600Y-97761998D01*
X122635302Y-97759820D01*
X122635304Y-97759820D01*
X122794409Y-97708124D01*
X122794412Y-97708123D01*
X122801108Y-97705947D01*
X122939815Y-97623261D01*
X122950860Y-97616677D01*
X122950862Y-97616676D01*
X122956912Y-97613069D01*
X123088266Y-97487982D01*
X123188643Y-97336902D01*
X123253055Y-97167338D01*
X123268272Y-97059061D01*
X123277748Y-96991639D01*
X123277748Y-96991636D01*
X123278299Y-96987717D01*
X123278616Y-96965000D01*
X123258397Y-96784745D01*
X123247017Y-96752066D01*
X123201064Y-96620106D01*
X123201062Y-96620103D01*
X123198745Y-96613448D01*
X123102626Y-96459624D01*
X123010832Y-96367187D01*
X122979778Y-96335915D01*
X122979774Y-96335912D01*
X122974815Y-96330918D01*
X122965793Y-96325192D01*
X122915538Y-96293300D01*
X122821666Y-96233727D01*
X122765755Y-96213818D01*
X122657425Y-96175243D01*
X122657420Y-96175242D01*
X122650790Y-96172881D01*
X122643802Y-96172048D01*
X122643799Y-96172047D01*
X122503889Y-96155364D01*
X122470680Y-96151404D01*
X122463677Y-96152140D01*
X122463676Y-96152140D01*
X122297288Y-96169628D01*
X122297286Y-96169629D01*
X122290288Y-96170364D01*
X122118579Y-96228818D01*
X122112575Y-96232512D01*
X121970090Y-96320169D01*
X121970087Y-96320171D01*
X121964088Y-96323862D01*
X121953925Y-96333815D01*
X121891262Y-96367187D01*
X121820503Y-96361384D01*
X121776359Y-96332578D01*
X121774711Y-96330918D01*
X121759815Y-96315918D01*
X121748697Y-96308862D01*
X121630302Y-96233727D01*
X121606666Y-96218727D01*
X121577463Y-96208328D01*
X121442425Y-96160243D01*
X121442420Y-96160242D01*
X121435790Y-96157881D01*
X121428802Y-96157048D01*
X121428799Y-96157047D01*
X121305698Y-96142368D01*
X121255680Y-96136404D01*
X121248677Y-96137140D01*
X121248676Y-96137140D01*
X121082288Y-96154628D01*
X121082286Y-96154629D01*
X121075288Y-96155364D01*
X120903579Y-96213818D01*
X120871218Y-96233727D01*
X120755095Y-96305166D01*
X120755092Y-96305168D01*
X120749088Y-96308862D01*
X120744053Y-96313793D01*
X120744050Y-96313795D01*
X120634208Y-96421361D01*
X120619493Y-96435771D01*
X120521235Y-96588238D01*
X120518826Y-96594858D01*
X120518824Y-96594861D01*
X120488639Y-96677793D01*
X120459197Y-96758685D01*
X120436463Y-96938640D01*
X105709752Y-96938640D01*
X105694026Y-96677793D01*
X105694026Y-96677789D01*
X105693798Y-96674015D01*
X105688650Y-96645824D01*
X105635805Y-96356473D01*
X105635804Y-96356469D01*
X105635125Y-96352751D01*
X105629898Y-96335915D01*
X105539404Y-96044477D01*
X105538282Y-96040863D01*
X105404670Y-95742869D01*
X105236226Y-95463084D01*
X105233899Y-95460100D01*
X105233894Y-95460093D01*
X105037726Y-95208558D01*
X105037724Y-95208556D01*
X105035390Y-95205563D01*
X104805070Y-94974034D01*
X104548603Y-94771852D01*
X104269705Y-94601945D01*
X104266261Y-94600379D01*
X104266257Y-94600377D01*
X104155667Y-94550095D01*
X103972414Y-94466775D01*
X103661037Y-94368300D01*
X103443492Y-94327390D01*
X103343809Y-94308645D01*
X103343807Y-94308645D01*
X103340086Y-94307945D01*
X103014208Y-94286586D01*
X103010428Y-94286794D01*
X103010427Y-94286794D01*
X102912897Y-94292162D01*
X102688124Y-94304532D01*
X102684397Y-94305193D01*
X102684393Y-94305193D01*
X102527340Y-94333027D01*
X102366557Y-94361522D01*
X102362941Y-94362624D01*
X102362933Y-94362626D01*
X102057789Y-94455627D01*
X102054167Y-94456731D01*
X101755477Y-94588781D01*
X101656548Y-94647637D01*
X101478074Y-94753817D01*
X101478068Y-94753821D01*
X101474814Y-94755757D01*
X101471812Y-94758073D01*
X101290365Y-94898059D01*
X101216244Y-94955243D01*
X100983513Y-95184347D01*
X100981149Y-95187314D01*
X100981146Y-95187317D01*
X100964220Y-95208558D01*
X100779991Y-95439751D01*
X100778000Y-95442981D01*
X100741760Y-95501773D01*
X100688988Y-95549266D01*
X100618916Y-95560690D01*
X100553792Y-95532416D01*
X100514293Y-95473422D01*
X100508500Y-95435657D01*
X100508500Y-93238640D01*
X119336463Y-93238640D01*
X119354163Y-93419160D01*
X119411418Y-93591273D01*
X119415065Y-93597295D01*
X119415066Y-93597297D01*
X119501258Y-93739617D01*
X119505380Y-93746424D01*
X119631382Y-93876902D01*
X119783159Y-93976222D01*
X119789763Y-93978678D01*
X119789765Y-93978679D01*
X119946558Y-94036990D01*
X119946560Y-94036990D01*
X119953168Y-94039448D01*
X120036995Y-94050633D01*
X120125980Y-94062507D01*
X120125984Y-94062507D01*
X120132961Y-94063438D01*
X120139972Y-94062800D01*
X120139976Y-94062800D01*
X120282459Y-94049832D01*
X120313600Y-94046998D01*
X120320302Y-94044820D01*
X120320304Y-94044820D01*
X120479409Y-93993124D01*
X120479412Y-93993123D01*
X120486108Y-93990947D01*
X120582513Y-93933478D01*
X120635860Y-93901677D01*
X120635862Y-93901676D01*
X120641912Y-93898069D01*
X120704318Y-93838640D01*
X127936463Y-93838640D01*
X127954163Y-94019160D01*
X128011418Y-94191273D01*
X128015065Y-94197295D01*
X128015066Y-94197297D01*
X128080410Y-94305193D01*
X128105380Y-94346424D01*
X128110269Y-94351487D01*
X128110270Y-94351488D01*
X128127612Y-94369446D01*
X128231382Y-94476902D01*
X128383159Y-94576222D01*
X128389763Y-94578678D01*
X128389765Y-94578679D01*
X128546558Y-94636990D01*
X128546560Y-94636990D01*
X128553168Y-94639448D01*
X128636995Y-94650633D01*
X128725980Y-94662507D01*
X128725984Y-94662507D01*
X128732961Y-94663438D01*
X128739972Y-94662800D01*
X128739976Y-94662800D01*
X128882459Y-94649832D01*
X128913600Y-94646998D01*
X128920302Y-94644820D01*
X128920304Y-94644820D01*
X129079409Y-94593124D01*
X129079412Y-94593123D01*
X129086108Y-94590947D01*
X129241912Y-94498069D01*
X129373266Y-94372982D01*
X129462529Y-94238630D01*
X131236463Y-94238630D01*
X131254163Y-94419150D01*
X131311418Y-94591263D01*
X131315065Y-94597285D01*
X131315066Y-94597287D01*
X131354565Y-94662507D01*
X131405380Y-94746414D01*
X131531382Y-94876892D01*
X131683159Y-94976212D01*
X131689763Y-94978668D01*
X131689765Y-94978669D01*
X131846558Y-95036980D01*
X131846560Y-95036980D01*
X131853168Y-95039438D01*
X131936995Y-95050623D01*
X132025980Y-95062497D01*
X132025984Y-95062497D01*
X132032961Y-95063428D01*
X132039972Y-95062790D01*
X132039976Y-95062790D01*
X132182459Y-95049822D01*
X132213600Y-95046988D01*
X132220302Y-95044810D01*
X132220304Y-95044810D01*
X132379409Y-94993114D01*
X132379412Y-94993113D01*
X132386108Y-94990937D01*
X132541912Y-94898059D01*
X132673266Y-94772972D01*
X132773643Y-94621892D01*
X132819309Y-94501677D01*
X132835555Y-94458910D01*
X132835556Y-94458908D01*
X132838055Y-94452328D01*
X132839035Y-94445356D01*
X132862748Y-94276629D01*
X132862748Y-94276626D01*
X132863299Y-94272707D01*
X132863616Y-94249990D01*
X132843397Y-94069735D01*
X132839631Y-94058920D01*
X132786064Y-93905096D01*
X132786062Y-93905093D01*
X132783745Y-93898438D01*
X132687626Y-93744614D01*
X132595722Y-93652066D01*
X132564778Y-93620905D01*
X132564774Y-93620902D01*
X132559815Y-93615908D01*
X132548697Y-93608852D01*
X132500538Y-93578290D01*
X132406666Y-93518717D01*
X132349744Y-93498448D01*
X132242425Y-93460233D01*
X132242420Y-93460232D01*
X132235790Y-93457871D01*
X132228802Y-93457038D01*
X132228799Y-93457037D01*
X132105698Y-93442358D01*
X132055680Y-93436394D01*
X132048677Y-93437130D01*
X132048676Y-93437130D01*
X131882288Y-93454618D01*
X131882286Y-93454619D01*
X131875288Y-93455354D01*
X131703579Y-93513808D01*
X131697575Y-93517502D01*
X131555095Y-93605156D01*
X131555092Y-93605158D01*
X131549088Y-93608852D01*
X131544053Y-93613783D01*
X131544050Y-93613785D01*
X131504959Y-93652066D01*
X131419493Y-93735761D01*
X131321235Y-93888228D01*
X131318826Y-93894848D01*
X131318824Y-93894851D01*
X131261606Y-94052056D01*
X131259197Y-94058675D01*
X131236463Y-94238630D01*
X129462529Y-94238630D01*
X129473643Y-94221902D01*
X129528788Y-94076734D01*
X129535555Y-94058920D01*
X129535556Y-94058918D01*
X129538055Y-94052338D01*
X129540212Y-94036990D01*
X129562748Y-93876639D01*
X129562748Y-93876636D01*
X129563299Y-93872717D01*
X129563616Y-93850000D01*
X129543397Y-93669745D01*
X129541080Y-93663091D01*
X129486064Y-93505106D01*
X129486062Y-93505103D01*
X129483745Y-93498448D01*
X129387626Y-93344624D01*
X129320114Y-93276639D01*
X129264778Y-93220915D01*
X129264774Y-93220912D01*
X129259815Y-93215918D01*
X129248697Y-93208862D01*
X129200538Y-93178300D01*
X129106666Y-93118727D01*
X129077463Y-93108328D01*
X128942425Y-93060243D01*
X128942420Y-93060242D01*
X128935790Y-93057881D01*
X128928802Y-93057048D01*
X128928799Y-93057047D01*
X128805698Y-93042368D01*
X128755680Y-93036404D01*
X128748677Y-93037140D01*
X128748676Y-93037140D01*
X128582288Y-93054628D01*
X128582286Y-93054629D01*
X128575288Y-93055364D01*
X128403579Y-93113818D01*
X128397575Y-93117512D01*
X128255095Y-93205166D01*
X128255092Y-93205168D01*
X128249088Y-93208862D01*
X128244053Y-93213793D01*
X128244050Y-93213795D01*
X128124525Y-93330843D01*
X128119493Y-93335771D01*
X128021235Y-93488238D01*
X128018826Y-93494858D01*
X128018824Y-93494861D01*
X127972948Y-93620905D01*
X127959197Y-93658685D01*
X127936463Y-93838640D01*
X120704318Y-93838640D01*
X120773266Y-93772982D01*
X120873643Y-93621902D01*
X120938055Y-93452338D01*
X120940296Y-93436394D01*
X120962748Y-93276639D01*
X120962748Y-93276636D01*
X120963299Y-93272717D01*
X120963616Y-93250000D01*
X120943397Y-93069745D01*
X120940088Y-93060243D01*
X120886064Y-92905106D01*
X120886062Y-92905103D01*
X120883745Y-92898448D01*
X120787626Y-92744624D01*
X120773941Y-92730843D01*
X120664778Y-92620915D01*
X120664774Y-92620912D01*
X120659815Y-92615918D01*
X120648697Y-92608862D01*
X120600538Y-92578300D01*
X120506666Y-92518727D01*
X120477463Y-92508328D01*
X120342425Y-92460243D01*
X120342420Y-92460242D01*
X120335790Y-92457881D01*
X120328802Y-92457048D01*
X120328799Y-92457047D01*
X120205698Y-92442368D01*
X120155680Y-92436404D01*
X120148677Y-92437140D01*
X120148676Y-92437140D01*
X119982288Y-92454628D01*
X119982286Y-92454629D01*
X119975288Y-92455364D01*
X119803579Y-92513818D01*
X119797575Y-92517512D01*
X119655095Y-92605166D01*
X119655092Y-92605168D01*
X119649088Y-92608862D01*
X119644053Y-92613793D01*
X119644050Y-92613795D01*
X119524525Y-92730843D01*
X119519493Y-92735771D01*
X119421235Y-92888238D01*
X119418826Y-92894858D01*
X119418824Y-92894861D01*
X119367307Y-93036404D01*
X119359197Y-93058685D01*
X119336463Y-93238640D01*
X100508500Y-93238640D01*
X100508500Y-90538640D01*
X118736463Y-90538640D01*
X118754163Y-90719160D01*
X118811418Y-90891273D01*
X118815065Y-90897295D01*
X118815066Y-90897297D01*
X118889223Y-91019745D01*
X118905380Y-91046424D01*
X118910269Y-91051487D01*
X118910270Y-91051488D01*
X118925357Y-91067111D01*
X119031382Y-91176902D01*
X119069242Y-91201677D01*
X119143088Y-91250000D01*
X119183159Y-91276222D01*
X119189763Y-91278678D01*
X119189765Y-91278679D01*
X119346558Y-91336990D01*
X119346560Y-91336990D01*
X119353168Y-91339448D01*
X119436995Y-91350633D01*
X119525980Y-91362507D01*
X119525984Y-91362507D01*
X119532961Y-91363438D01*
X119539972Y-91362800D01*
X119539976Y-91362800D01*
X119682459Y-91349832D01*
X119713600Y-91346998D01*
X119720302Y-91344820D01*
X119720304Y-91344820D01*
X119879409Y-91293124D01*
X119879412Y-91293123D01*
X119886108Y-91290947D01*
X119985586Y-91231646D01*
X120035860Y-91201677D01*
X120035862Y-91201676D01*
X120041912Y-91198069D01*
X120051813Y-91188640D01*
X131186463Y-91188640D01*
X131204163Y-91369160D01*
X131261418Y-91541273D01*
X131265065Y-91547295D01*
X131265066Y-91547297D01*
X131275978Y-91565314D01*
X131355380Y-91696424D01*
X131481382Y-91826902D01*
X131633159Y-91926222D01*
X131639763Y-91928678D01*
X131639765Y-91928679D01*
X131796558Y-91986990D01*
X131796560Y-91986990D01*
X131803168Y-91989448D01*
X131886995Y-92000633D01*
X131975980Y-92012507D01*
X131975984Y-92012507D01*
X131982961Y-92013438D01*
X131989972Y-92012800D01*
X131989976Y-92012800D01*
X132132459Y-91999832D01*
X132163600Y-91996998D01*
X132170302Y-91994820D01*
X132170304Y-91994820D01*
X132329409Y-91943124D01*
X132329412Y-91943123D01*
X132336108Y-91940947D01*
X132491912Y-91848069D01*
X132623266Y-91722982D01*
X132723643Y-91571902D01*
X132781665Y-91419160D01*
X132785555Y-91408920D01*
X132785556Y-91408918D01*
X132788055Y-91402338D01*
X132789035Y-91395366D01*
X132811061Y-91238640D01*
X134636463Y-91238640D01*
X134654163Y-91419160D01*
X134711418Y-91591273D01*
X134715065Y-91597295D01*
X134715066Y-91597297D01*
X134794126Y-91727841D01*
X134805380Y-91746424D01*
X134931382Y-91876902D01*
X135083159Y-91976222D01*
X135089763Y-91978678D01*
X135089765Y-91978679D01*
X135246558Y-92036990D01*
X135246560Y-92036990D01*
X135253168Y-92039448D01*
X135336995Y-92050633D01*
X135425980Y-92062507D01*
X135425984Y-92062507D01*
X135432961Y-92063438D01*
X135439972Y-92062800D01*
X135439976Y-92062800D01*
X135582459Y-92049832D01*
X135613600Y-92046998D01*
X135620302Y-92044820D01*
X135620304Y-92044820D01*
X135779409Y-91993124D01*
X135779412Y-91993123D01*
X135786108Y-91990947D01*
X135941912Y-91898069D01*
X136073266Y-91772982D01*
X136173643Y-91621902D01*
X136238055Y-91452338D01*
X136239035Y-91445366D01*
X136262748Y-91276639D01*
X136262748Y-91276636D01*
X136263299Y-91272717D01*
X136263616Y-91250000D01*
X136243397Y-91069745D01*
X136241080Y-91063091D01*
X136186064Y-90905106D01*
X136186062Y-90905103D01*
X136183745Y-90898448D01*
X136152502Y-90848448D01*
X136091359Y-90750598D01*
X136087626Y-90744624D01*
X136033012Y-90689627D01*
X136032667Y-90689280D01*
X135998860Y-90626849D01*
X136004172Y-90556052D01*
X136035181Y-90509251D01*
X136068159Y-90477846D01*
X136068162Y-90477843D01*
X136073266Y-90472982D01*
X136173643Y-90321902D01*
X136238055Y-90152338D01*
X136239035Y-90145366D01*
X136262748Y-89976639D01*
X136262748Y-89976636D01*
X136263299Y-89972717D01*
X136263616Y-89950000D01*
X136243397Y-89769745D01*
X136240088Y-89760243D01*
X136186064Y-89605106D01*
X136186062Y-89605103D01*
X136183745Y-89598448D01*
X136087626Y-89444624D01*
X136073941Y-89430843D01*
X135964778Y-89320915D01*
X135964774Y-89320912D01*
X135959815Y-89315918D01*
X135948697Y-89308862D01*
X135847782Y-89244820D01*
X135806666Y-89218727D01*
X135777463Y-89208328D01*
X135642425Y-89160243D01*
X135642420Y-89160242D01*
X135635790Y-89157881D01*
X135628802Y-89157048D01*
X135628799Y-89157047D01*
X135505698Y-89142368D01*
X135455680Y-89136404D01*
X135448677Y-89137140D01*
X135448676Y-89137140D01*
X135282288Y-89154628D01*
X135282286Y-89154629D01*
X135275288Y-89155364D01*
X135103579Y-89213818D01*
X135097575Y-89217512D01*
X134955095Y-89305166D01*
X134955092Y-89305168D01*
X134949088Y-89308862D01*
X134944053Y-89313793D01*
X134944050Y-89313795D01*
X134824525Y-89430843D01*
X134819493Y-89435771D01*
X134721235Y-89588238D01*
X134718826Y-89594858D01*
X134718824Y-89594861D01*
X134667307Y-89736404D01*
X134659197Y-89758685D01*
X134636463Y-89938640D01*
X134654163Y-90119160D01*
X134711418Y-90291273D01*
X134715065Y-90297295D01*
X134715066Y-90297297D01*
X134782038Y-90407881D01*
X134805380Y-90446424D01*
X134831027Y-90472982D01*
X134868932Y-90512234D01*
X134901864Y-90575131D01*
X134895564Y-90645847D01*
X134866453Y-90689784D01*
X134829630Y-90725844D01*
X134819493Y-90735771D01*
X134721235Y-90888238D01*
X134718826Y-90894858D01*
X134718824Y-90894861D01*
X134661606Y-91052066D01*
X134659197Y-91058685D01*
X134636463Y-91238640D01*
X132811061Y-91238640D01*
X132812748Y-91226639D01*
X132812748Y-91226636D01*
X132813299Y-91222717D01*
X132813616Y-91200000D01*
X132793397Y-91019745D01*
X132791080Y-91013091D01*
X132736064Y-90855106D01*
X132736062Y-90855103D01*
X132733745Y-90848448D01*
X132637626Y-90694624D01*
X132615521Y-90672364D01*
X132514778Y-90570915D01*
X132514774Y-90570912D01*
X132509815Y-90565918D01*
X132498697Y-90558862D01*
X132371027Y-90477841D01*
X132356666Y-90468727D01*
X132294032Y-90446424D01*
X132192425Y-90410243D01*
X132192420Y-90410242D01*
X132185790Y-90407881D01*
X132178802Y-90407048D01*
X132178799Y-90407047D01*
X132055698Y-90392368D01*
X132005680Y-90386404D01*
X131998677Y-90387140D01*
X131998676Y-90387140D01*
X131832288Y-90404628D01*
X131832286Y-90404629D01*
X131825288Y-90405364D01*
X131653579Y-90463818D01*
X131630785Y-90477841D01*
X131505095Y-90555166D01*
X131505092Y-90555168D01*
X131499088Y-90558862D01*
X131494053Y-90563793D01*
X131494050Y-90563795D01*
X131379244Y-90676222D01*
X131369493Y-90685771D01*
X131271235Y-90838238D01*
X131268826Y-90844858D01*
X131268824Y-90844861D01*
X131211606Y-91002066D01*
X131209197Y-91008685D01*
X131186463Y-91188640D01*
X120051813Y-91188640D01*
X120173266Y-91072982D01*
X120273643Y-90921902D01*
X120315423Y-90811917D01*
X120335555Y-90758920D01*
X120335556Y-90758918D01*
X120338055Y-90752338D01*
X120339736Y-90740380D01*
X120362748Y-90576639D01*
X120362748Y-90576636D01*
X120363299Y-90572717D01*
X120363616Y-90550000D01*
X120343397Y-90369745D01*
X120341080Y-90363091D01*
X120286064Y-90205106D01*
X120286062Y-90205103D01*
X120283745Y-90198448D01*
X120187626Y-90044624D01*
X120120114Y-89976639D01*
X120082380Y-89938640D01*
X125536463Y-89938640D01*
X125554163Y-90119160D01*
X125611418Y-90291273D01*
X125615065Y-90297295D01*
X125615066Y-90297297D01*
X125682038Y-90407881D01*
X125705380Y-90446424D01*
X125710269Y-90451487D01*
X125710270Y-90451488D01*
X125726918Y-90468727D01*
X125831382Y-90576902D01*
X125983159Y-90676222D01*
X125989763Y-90678678D01*
X125989765Y-90678679D01*
X126146558Y-90736990D01*
X126146560Y-90736990D01*
X126153168Y-90739448D01*
X126236732Y-90750598D01*
X126325980Y-90762507D01*
X126325984Y-90762507D01*
X126332961Y-90763438D01*
X126339972Y-90762800D01*
X126339976Y-90762800D01*
X126482459Y-90749832D01*
X126513600Y-90746998D01*
X126520302Y-90744820D01*
X126520304Y-90744820D01*
X126679409Y-90693124D01*
X126679412Y-90693123D01*
X126686108Y-90690947D01*
X126841912Y-90598069D01*
X126973266Y-90472982D01*
X127073643Y-90321902D01*
X127138055Y-90152338D01*
X127139035Y-90145366D01*
X127162748Y-89976639D01*
X127162748Y-89976636D01*
X127163299Y-89972717D01*
X127163616Y-89950000D01*
X127143397Y-89769745D01*
X127140088Y-89760243D01*
X127086064Y-89605106D01*
X127086062Y-89605103D01*
X127083745Y-89598448D01*
X126987626Y-89444624D01*
X126973941Y-89430843D01*
X126864778Y-89320915D01*
X126864774Y-89320912D01*
X126859815Y-89315918D01*
X126848697Y-89308862D01*
X126747782Y-89244820D01*
X126706666Y-89218727D01*
X126677463Y-89208328D01*
X126542425Y-89160243D01*
X126542420Y-89160242D01*
X126535790Y-89157881D01*
X126528802Y-89157048D01*
X126528799Y-89157047D01*
X126405698Y-89142368D01*
X126355680Y-89136404D01*
X126348677Y-89137140D01*
X126348676Y-89137140D01*
X126182288Y-89154628D01*
X126182286Y-89154629D01*
X126175288Y-89155364D01*
X126003579Y-89213818D01*
X125997575Y-89217512D01*
X125855095Y-89305166D01*
X125855092Y-89305168D01*
X125849088Y-89308862D01*
X125844053Y-89313793D01*
X125844050Y-89313795D01*
X125724525Y-89430843D01*
X125719493Y-89435771D01*
X125621235Y-89588238D01*
X125618826Y-89594858D01*
X125618824Y-89594861D01*
X125567307Y-89736404D01*
X125559197Y-89758685D01*
X125536463Y-89938640D01*
X120082380Y-89938640D01*
X120064778Y-89920915D01*
X120064774Y-89920912D01*
X120059815Y-89915918D01*
X120048697Y-89908862D01*
X120000538Y-89878300D01*
X119906666Y-89818727D01*
X119877463Y-89808328D01*
X119742425Y-89760243D01*
X119742420Y-89760242D01*
X119735790Y-89757881D01*
X119728802Y-89757048D01*
X119728799Y-89757047D01*
X119605698Y-89742368D01*
X119555680Y-89736404D01*
X119548677Y-89737140D01*
X119548676Y-89737140D01*
X119382288Y-89754628D01*
X119382286Y-89754629D01*
X119375288Y-89755364D01*
X119203579Y-89813818D01*
X119197575Y-89817512D01*
X119055095Y-89905166D01*
X119055092Y-89905168D01*
X119049088Y-89908862D01*
X119044053Y-89913793D01*
X119044050Y-89913795D01*
X118924525Y-90030843D01*
X118919493Y-90035771D01*
X118821235Y-90188238D01*
X118818826Y-90194858D01*
X118818824Y-90194861D01*
X118774983Y-90315314D01*
X118759197Y-90358685D01*
X118736463Y-90538640D01*
X100508500Y-90538640D01*
X100508500Y-87838640D01*
X120436463Y-87838640D01*
X120454163Y-88019160D01*
X120511418Y-88191273D01*
X120515065Y-88197295D01*
X120515066Y-88197297D01*
X120563181Y-88276744D01*
X120605380Y-88346424D01*
X120731382Y-88476902D01*
X120883159Y-88576222D01*
X120889763Y-88578678D01*
X120889765Y-88578679D01*
X121046558Y-88636990D01*
X121046560Y-88636990D01*
X121053168Y-88639448D01*
X121136995Y-88650633D01*
X121225980Y-88662507D01*
X121225984Y-88662507D01*
X121232961Y-88663438D01*
X121239972Y-88662800D01*
X121239976Y-88662800D01*
X121382459Y-88649832D01*
X121413600Y-88646998D01*
X121420302Y-88644820D01*
X121420304Y-88644820D01*
X121579409Y-88593124D01*
X121579412Y-88593123D01*
X121586108Y-88590947D01*
X121741912Y-88498069D01*
X121873266Y-88372982D01*
X121911217Y-88315861D01*
X121965574Y-88270192D01*
X122035994Y-88261160D01*
X122100118Y-88291634D01*
X122137587Y-88351938D01*
X122141170Y-88401382D01*
X122136463Y-88438640D01*
X122154163Y-88619160D01*
X122211418Y-88791273D01*
X122215065Y-88797295D01*
X122215066Y-88797297D01*
X122225978Y-88815314D01*
X122305380Y-88946424D01*
X122431382Y-89076902D01*
X122437278Y-89080760D01*
X122558741Y-89160243D01*
X122583159Y-89176222D01*
X122589763Y-89178678D01*
X122589765Y-89178679D01*
X122746558Y-89236990D01*
X122746560Y-89236990D01*
X122753168Y-89239448D01*
X122836995Y-89250633D01*
X122925980Y-89262507D01*
X122925984Y-89262507D01*
X122932961Y-89263438D01*
X122939972Y-89262800D01*
X122939976Y-89262800D01*
X123082459Y-89249832D01*
X123113600Y-89246998D01*
X123120302Y-89244820D01*
X123120304Y-89244820D01*
X123279409Y-89193124D01*
X123279412Y-89193123D01*
X123286108Y-89190947D01*
X123441912Y-89098069D01*
X123573266Y-88972982D01*
X123673643Y-88821902D01*
X123715423Y-88711917D01*
X123735555Y-88658920D01*
X123735556Y-88658918D01*
X123738055Y-88652338D01*
X123740212Y-88636990D01*
X123762748Y-88476639D01*
X123762748Y-88476636D01*
X123763299Y-88472717D01*
X123763616Y-88450000D01*
X123743397Y-88269745D01*
X123741080Y-88263091D01*
X123686064Y-88105106D01*
X123686062Y-88105103D01*
X123683745Y-88098448D01*
X123587626Y-87944624D01*
X123573941Y-87930843D01*
X123464778Y-87820915D01*
X123464774Y-87820912D01*
X123459815Y-87815918D01*
X123448697Y-87808862D01*
X123400538Y-87778300D01*
X123306666Y-87718727D01*
X123277463Y-87708328D01*
X123142425Y-87660243D01*
X123142420Y-87660242D01*
X123135790Y-87657881D01*
X123128802Y-87657048D01*
X123128799Y-87657047D01*
X123005698Y-87642368D01*
X122955680Y-87636404D01*
X122948677Y-87637140D01*
X122948676Y-87637140D01*
X122782288Y-87654628D01*
X122782286Y-87654629D01*
X122775288Y-87655364D01*
X122603579Y-87713818D01*
X122597575Y-87717512D01*
X122455095Y-87805166D01*
X122455092Y-87805168D01*
X122449088Y-87808862D01*
X122444053Y-87813793D01*
X122444050Y-87813795D01*
X122324525Y-87930843D01*
X122319493Y-87935771D01*
X122315680Y-87941688D01*
X122315679Y-87941689D01*
X122290956Y-87980052D01*
X122237241Y-88026476D01*
X122166954Y-88036490D01*
X122102411Y-88006915D01*
X122064104Y-87947140D01*
X122060271Y-87894261D01*
X122063299Y-87872717D01*
X122063616Y-87850000D01*
X122043397Y-87669745D01*
X122040088Y-87660243D01*
X121986064Y-87505106D01*
X121986062Y-87505103D01*
X121983745Y-87498448D01*
X121887626Y-87344624D01*
X121873941Y-87330843D01*
X121764778Y-87220915D01*
X121764774Y-87220912D01*
X121759815Y-87215918D01*
X121748697Y-87208862D01*
X121650549Y-87146576D01*
X121606666Y-87118727D01*
X121577463Y-87108328D01*
X121442425Y-87060243D01*
X121442420Y-87060242D01*
X121435790Y-87057881D01*
X121428802Y-87057048D01*
X121428799Y-87057047D01*
X121305698Y-87042368D01*
X121255680Y-87036404D01*
X121248677Y-87037140D01*
X121248676Y-87037140D01*
X121082288Y-87054628D01*
X121082286Y-87054629D01*
X121075288Y-87055364D01*
X120903579Y-87113818D01*
X120897575Y-87117512D01*
X120755095Y-87205166D01*
X120755092Y-87205168D01*
X120749088Y-87208862D01*
X120744053Y-87213793D01*
X120744050Y-87213795D01*
X120624525Y-87330843D01*
X120619493Y-87335771D01*
X120521235Y-87488238D01*
X120518826Y-87494858D01*
X120518824Y-87494861D01*
X120486848Y-87582714D01*
X120459197Y-87658685D01*
X120436463Y-87838640D01*
X100508500Y-87838640D01*
X100508500Y-85569306D01*
X100528502Y-85501185D01*
X100582158Y-85454692D01*
X100652432Y-85444588D01*
X100717012Y-85474082D01*
X100743122Y-85505453D01*
X100747802Y-85513414D01*
X100750103Y-85516429D01*
X100943631Y-85770012D01*
X100943636Y-85770017D01*
X100945931Y-85773025D01*
X101007931Y-85836670D01*
X101130517Y-85962507D01*
X101173814Y-86006953D01*
X101246635Y-86065607D01*
X101425196Y-86209431D01*
X101425201Y-86209435D01*
X101428149Y-86211809D01*
X101705253Y-86384627D01*
X102001112Y-86522903D01*
X102311440Y-86624634D01*
X102631742Y-86688346D01*
X102635514Y-86688633D01*
X102635522Y-86688634D01*
X102953602Y-86712829D01*
X102953607Y-86712829D01*
X102957379Y-86713116D01*
X103283633Y-86698586D01*
X103343425Y-86688634D01*
X103602037Y-86645590D01*
X103602042Y-86645589D01*
X103605778Y-86644967D01*
X103919149Y-86553034D01*
X103922616Y-86551544D01*
X103922620Y-86551543D01*
X104215721Y-86425616D01*
X104215723Y-86425615D01*
X104219205Y-86424119D01*
X104346811Y-86350000D01*
X126316807Y-86350000D01*
X126335542Y-86564142D01*
X126336966Y-86569455D01*
X126336966Y-86569457D01*
X126368823Y-86688346D01*
X126391178Y-86771777D01*
X126482024Y-86966596D01*
X126605319Y-87142681D01*
X126757319Y-87294681D01*
X126933403Y-87417976D01*
X126938381Y-87420297D01*
X126938384Y-87420299D01*
X127105976Y-87498448D01*
X127128223Y-87508822D01*
X127133531Y-87510244D01*
X127133533Y-87510245D01*
X127330543Y-87563034D01*
X127330545Y-87563034D01*
X127335858Y-87564458D01*
X127550000Y-87583193D01*
X127764142Y-87564458D01*
X127769455Y-87563034D01*
X127769457Y-87563034D01*
X127966467Y-87510245D01*
X127966469Y-87510244D01*
X127971777Y-87508822D01*
X127994024Y-87498448D01*
X128161616Y-87420299D01*
X128161619Y-87420297D01*
X128166597Y-87417976D01*
X128342681Y-87294681D01*
X128494681Y-87142681D01*
X128617976Y-86966596D01*
X128708822Y-86771777D01*
X128731178Y-86688346D01*
X128763034Y-86569457D01*
X128763034Y-86569455D01*
X128764458Y-86564142D01*
X128783193Y-86350000D01*
X128764458Y-86135858D01*
X128745634Y-86065607D01*
X128710245Y-85933533D01*
X128710244Y-85933531D01*
X128708822Y-85928223D01*
X128685719Y-85878679D01*
X128620299Y-85738385D01*
X128620297Y-85738382D01*
X128617976Y-85733404D01*
X128494681Y-85557319D01*
X128342681Y-85405319D01*
X128166597Y-85282024D01*
X128161619Y-85279703D01*
X128161616Y-85279701D01*
X127976759Y-85193501D01*
X127976758Y-85193500D01*
X127971777Y-85191178D01*
X127966469Y-85189756D01*
X127966467Y-85189755D01*
X127775704Y-85138640D01*
X129836463Y-85138640D01*
X129854163Y-85319160D01*
X129911418Y-85491273D01*
X129915065Y-85497295D01*
X129915066Y-85497297D01*
X129968999Y-85586351D01*
X130005380Y-85646424D01*
X130131382Y-85776902D01*
X130283159Y-85876222D01*
X130289763Y-85878678D01*
X130289765Y-85878679D01*
X130446558Y-85936990D01*
X130446560Y-85936990D01*
X130453168Y-85939448D01*
X130536995Y-85950633D01*
X130625980Y-85962507D01*
X130625984Y-85962507D01*
X130632961Y-85963438D01*
X130639972Y-85962800D01*
X130639976Y-85962800D01*
X130782459Y-85949832D01*
X130813600Y-85946998D01*
X130820302Y-85944820D01*
X130820304Y-85944820D01*
X130979409Y-85893124D01*
X130979412Y-85893123D01*
X130986108Y-85890947D01*
X131141912Y-85798069D01*
X131273266Y-85672982D01*
X131373643Y-85521902D01*
X131438055Y-85352338D01*
X131439035Y-85345366D01*
X131462748Y-85176639D01*
X131462748Y-85176636D01*
X131463299Y-85172717D01*
X131463616Y-85150000D01*
X131443397Y-84969745D01*
X131441080Y-84963091D01*
X131386064Y-84805106D01*
X131386062Y-84805103D01*
X131383745Y-84798448D01*
X131287626Y-84644624D01*
X131241494Y-84598169D01*
X131164778Y-84520915D01*
X131164774Y-84520912D01*
X131159815Y-84515918D01*
X131148697Y-84508862D01*
X131026164Y-84431101D01*
X131006666Y-84418727D01*
X130977463Y-84408328D01*
X130842425Y-84360243D01*
X130842420Y-84360242D01*
X130835790Y-84357881D01*
X130828802Y-84357048D01*
X130828799Y-84357047D01*
X130705698Y-84342368D01*
X130655680Y-84336404D01*
X130648677Y-84337140D01*
X130648676Y-84337140D01*
X130482288Y-84354628D01*
X130482286Y-84354629D01*
X130475288Y-84355364D01*
X130303579Y-84413818D01*
X130289457Y-84422506D01*
X130155095Y-84505166D01*
X130155092Y-84505168D01*
X130149088Y-84508862D01*
X130144053Y-84513793D01*
X130144050Y-84513795D01*
X130024525Y-84630843D01*
X130019493Y-84635771D01*
X129921235Y-84788238D01*
X129918826Y-84794858D01*
X129918824Y-84794861D01*
X129861606Y-84952066D01*
X129859197Y-84958685D01*
X129836463Y-85138640D01*
X127775704Y-85138640D01*
X127769457Y-85136966D01*
X127769455Y-85136966D01*
X127764142Y-85135542D01*
X127550000Y-85116807D01*
X127335858Y-85135542D01*
X127330545Y-85136966D01*
X127330543Y-85136966D01*
X127133533Y-85189755D01*
X127133531Y-85189756D01*
X127128223Y-85191178D01*
X127123243Y-85193500D01*
X127123241Y-85193501D01*
X126938385Y-85279701D01*
X126938382Y-85279703D01*
X126933404Y-85282024D01*
X126757319Y-85405319D01*
X126605319Y-85557319D01*
X126482024Y-85733404D01*
X126479703Y-85738382D01*
X126479701Y-85738385D01*
X126414281Y-85878679D01*
X126391178Y-85928223D01*
X126389756Y-85933531D01*
X126389755Y-85933533D01*
X126354366Y-86065607D01*
X126335542Y-86135858D01*
X126316807Y-86350000D01*
X104346811Y-86350000D01*
X104501601Y-86260091D01*
X104762245Y-86063324D01*
X104997363Y-85836670D01*
X105203549Y-85583410D01*
X105257882Y-85497297D01*
X105375788Y-85310428D01*
X105375790Y-85310425D01*
X105377815Y-85307215D01*
X105517638Y-85012084D01*
X105518840Y-85008482D01*
X105619790Y-84705897D01*
X105619792Y-84705891D01*
X105620992Y-84702293D01*
X105686381Y-84382329D01*
X105688178Y-84360243D01*
X105712674Y-84059061D01*
X105712856Y-84056826D01*
X105713451Y-84000000D01*
X105711510Y-83967796D01*
X105701997Y-83810000D01*
X123776807Y-83810000D01*
X123795542Y-84024142D01*
X123796966Y-84029455D01*
X123796966Y-84029457D01*
X123804899Y-84059061D01*
X123851178Y-84231777D01*
X123853500Y-84236757D01*
X123853501Y-84236759D01*
X123938355Y-84418727D01*
X123942024Y-84426596D01*
X124065319Y-84602681D01*
X124217319Y-84754681D01*
X124393403Y-84877976D01*
X124398381Y-84880297D01*
X124398384Y-84880299D01*
X124566484Y-84958685D01*
X124588223Y-84968822D01*
X124593531Y-84970244D01*
X124593533Y-84970245D01*
X124790543Y-85023034D01*
X124790545Y-85023034D01*
X124795858Y-85024458D01*
X125010000Y-85043193D01*
X125224142Y-85024458D01*
X125229455Y-85023034D01*
X125229457Y-85023034D01*
X125426467Y-84970245D01*
X125426469Y-84970244D01*
X125431777Y-84968822D01*
X125453516Y-84958685D01*
X125621616Y-84880299D01*
X125621619Y-84880297D01*
X125626597Y-84877976D01*
X125802681Y-84754681D01*
X125954681Y-84602681D01*
X126077976Y-84426596D01*
X126081646Y-84418727D01*
X126166499Y-84236759D01*
X126166500Y-84236757D01*
X126168822Y-84231777D01*
X126215102Y-84059061D01*
X126223034Y-84029457D01*
X126223034Y-84029455D01*
X126224458Y-84024142D01*
X126243193Y-83810000D01*
X126224458Y-83595858D01*
X126168822Y-83388223D01*
X126150597Y-83349140D01*
X126080299Y-83198385D01*
X126080297Y-83198382D01*
X126077976Y-83193404D01*
X125954681Y-83017319D01*
X125802681Y-82865319D01*
X125626597Y-82742024D01*
X125621619Y-82739703D01*
X125621616Y-82739701D01*
X125436759Y-82653501D01*
X125436758Y-82653500D01*
X125431777Y-82651178D01*
X125426469Y-82649756D01*
X125426467Y-82649755D01*
X125229457Y-82596966D01*
X125229455Y-82596966D01*
X125224142Y-82595542D01*
X125010000Y-82576807D01*
X124795858Y-82595542D01*
X124790545Y-82596966D01*
X124790543Y-82596966D01*
X124593533Y-82649755D01*
X124593531Y-82649756D01*
X124588223Y-82651178D01*
X124583243Y-82653500D01*
X124583241Y-82653501D01*
X124398385Y-82739701D01*
X124398382Y-82739703D01*
X124393404Y-82742024D01*
X124217319Y-82865319D01*
X124065319Y-83017319D01*
X123942024Y-83193404D01*
X123939703Y-83198382D01*
X123939701Y-83198385D01*
X123869403Y-83349140D01*
X123851178Y-83388223D01*
X123795542Y-83595858D01*
X123776807Y-83810000D01*
X105701997Y-83810000D01*
X105694026Y-83677793D01*
X105694026Y-83677789D01*
X105693798Y-83674015D01*
X105688650Y-83645824D01*
X105635805Y-83356473D01*
X105635804Y-83356469D01*
X105635125Y-83352751D01*
X105627722Y-83328907D01*
X105539404Y-83044477D01*
X105538282Y-83040863D01*
X105404670Y-82742869D01*
X105236226Y-82463084D01*
X105233899Y-82460100D01*
X105233894Y-82460093D01*
X105037726Y-82208558D01*
X105037724Y-82208556D01*
X105035390Y-82205563D01*
X104805070Y-81974034D01*
X104548603Y-81771852D01*
X104269705Y-81601945D01*
X104266261Y-81600379D01*
X104266257Y-81600377D01*
X104022300Y-81489457D01*
X103972414Y-81466775D01*
X103661037Y-81368300D01*
X103443492Y-81327390D01*
X103343809Y-81308645D01*
X103343807Y-81308645D01*
X103340086Y-81307945D01*
X103014208Y-81286586D01*
X103010428Y-81286794D01*
X103010427Y-81286794D01*
X102934967Y-81290947D01*
X102688124Y-81304532D01*
X102684397Y-81305193D01*
X102684393Y-81305193D01*
X102527341Y-81333027D01*
X102366557Y-81361522D01*
X102362941Y-81362624D01*
X102362933Y-81362626D01*
X102057789Y-81455627D01*
X102054167Y-81456731D01*
X101755477Y-81588781D01*
X101730041Y-81603914D01*
X101478074Y-81753817D01*
X101478068Y-81753821D01*
X101474814Y-81755757D01*
X101471812Y-81758073D01*
X101299384Y-81891101D01*
X101216244Y-81955243D01*
X100983513Y-82184347D01*
X100981149Y-82187314D01*
X100981146Y-82187317D01*
X100790551Y-82426499D01*
X100779991Y-82439751D01*
X100778000Y-82442981D01*
X100741760Y-82501773D01*
X100688988Y-82549266D01*
X100618916Y-82560690D01*
X100553792Y-82532416D01*
X100514293Y-82473422D01*
X100508500Y-82435657D01*
X100508500Y-81270000D01*
X126316807Y-81270000D01*
X126335542Y-81484142D01*
X126336966Y-81489455D01*
X126336966Y-81489457D01*
X126363169Y-81587245D01*
X126391178Y-81691777D01*
X126482024Y-81886596D01*
X126605319Y-82062681D01*
X126757319Y-82214681D01*
X126933403Y-82337976D01*
X126938381Y-82340297D01*
X126938384Y-82340299D01*
X127123241Y-82426499D01*
X127128223Y-82428822D01*
X127133531Y-82430244D01*
X127133533Y-82430245D01*
X127330543Y-82483034D01*
X127330545Y-82483034D01*
X127335858Y-82484458D01*
X127550000Y-82503193D01*
X127764142Y-82484458D01*
X127769455Y-82483034D01*
X127769457Y-82483034D01*
X127966467Y-82430245D01*
X127966469Y-82430244D01*
X127971777Y-82428822D01*
X127976759Y-82426499D01*
X128161616Y-82340299D01*
X128161619Y-82340297D01*
X128166597Y-82337976D01*
X128342681Y-82214681D01*
X128494681Y-82062681D01*
X128617976Y-81886596D01*
X128708822Y-81691777D01*
X128736832Y-81587245D01*
X128763034Y-81489457D01*
X128763034Y-81489455D01*
X128764458Y-81484142D01*
X128783193Y-81270000D01*
X128764458Y-81055858D01*
X128748858Y-80997637D01*
X128710245Y-80853533D01*
X128710244Y-80853531D01*
X128708822Y-80848223D01*
X128682266Y-80791273D01*
X128620299Y-80658385D01*
X128620297Y-80658382D01*
X128617976Y-80653404D01*
X128537618Y-80538640D01*
X133073963Y-80538640D01*
X133091663Y-80719160D01*
X133148918Y-80891273D01*
X133152565Y-80897295D01*
X133152566Y-80897297D01*
X133222517Y-81012800D01*
X133242880Y-81046424D01*
X133247769Y-81051487D01*
X133247770Y-81051488D01*
X133324621Y-81131068D01*
X133368882Y-81176902D01*
X133374778Y-81180760D01*
X133511151Y-81270000D01*
X133520659Y-81276222D01*
X133527263Y-81278678D01*
X133527265Y-81278679D01*
X133684058Y-81336990D01*
X133684060Y-81336990D01*
X133690668Y-81339448D01*
X133774495Y-81350633D01*
X133863480Y-81362507D01*
X133863484Y-81362507D01*
X133870461Y-81363438D01*
X133877472Y-81362800D01*
X133877476Y-81362800D01*
X134019959Y-81349832D01*
X134051100Y-81346998D01*
X134057802Y-81344820D01*
X134057804Y-81344820D01*
X134216909Y-81293124D01*
X134216912Y-81293123D01*
X134223608Y-81290947D01*
X134379412Y-81198069D01*
X134510766Y-81072982D01*
X134611143Y-80921902D01*
X134652923Y-80811917D01*
X134673055Y-80758920D01*
X134673056Y-80758918D01*
X134675555Y-80752338D01*
X134678998Y-80727841D01*
X134700248Y-80576639D01*
X134700248Y-80576636D01*
X134700799Y-80572717D01*
X134701116Y-80550000D01*
X134680897Y-80369745D01*
X134678580Y-80363091D01*
X134623564Y-80205106D01*
X134623562Y-80205103D01*
X134621245Y-80198448D01*
X134525126Y-80044624D01*
X134517839Y-80037286D01*
X134402278Y-79920915D01*
X134402274Y-79920912D01*
X134397315Y-79915918D01*
X134386197Y-79908862D01*
X134290999Y-79848448D01*
X134244166Y-79818727D01*
X134206082Y-79805166D01*
X134079925Y-79760243D01*
X134079920Y-79760242D01*
X134073290Y-79757881D01*
X134066302Y-79757048D01*
X134066299Y-79757047D01*
X133943198Y-79742368D01*
X133893180Y-79736404D01*
X133886177Y-79737140D01*
X133886176Y-79737140D01*
X133719788Y-79754628D01*
X133719786Y-79754629D01*
X133712788Y-79755364D01*
X133541079Y-79813818D01*
X133535075Y-79817512D01*
X133392595Y-79905166D01*
X133392592Y-79905168D01*
X133386588Y-79908862D01*
X133381553Y-79913793D01*
X133381550Y-79913795D01*
X133291411Y-80002066D01*
X133256993Y-80035771D01*
X133158735Y-80188238D01*
X133156326Y-80194858D01*
X133156324Y-80194861D01*
X133099106Y-80352066D01*
X133096697Y-80358685D01*
X133073963Y-80538640D01*
X128537618Y-80538640D01*
X128494681Y-80477319D01*
X128342681Y-80325319D01*
X128166597Y-80202024D01*
X128161619Y-80199703D01*
X128161616Y-80199701D01*
X127976759Y-80113501D01*
X127976758Y-80113500D01*
X127971777Y-80111178D01*
X127966469Y-80109756D01*
X127966467Y-80109755D01*
X127769457Y-80056966D01*
X127769455Y-80056966D01*
X127764142Y-80055542D01*
X127550000Y-80036807D01*
X127335858Y-80055542D01*
X127330545Y-80056966D01*
X127330543Y-80056966D01*
X127133533Y-80109755D01*
X127133531Y-80109756D01*
X127128223Y-80111178D01*
X127123243Y-80113500D01*
X127123241Y-80113501D01*
X126938385Y-80199701D01*
X126938382Y-80199703D01*
X126933404Y-80202024D01*
X126757319Y-80325319D01*
X126605319Y-80477319D01*
X126482024Y-80653404D01*
X126479703Y-80658382D01*
X126479701Y-80658385D01*
X126417734Y-80791273D01*
X126391178Y-80848223D01*
X126389756Y-80853531D01*
X126389755Y-80853533D01*
X126351142Y-80997637D01*
X126335542Y-81055858D01*
X126316807Y-81270000D01*
X100508500Y-81270000D01*
X100508500Y-80438640D01*
X116136463Y-80438640D01*
X116154163Y-80619160D01*
X116211418Y-80791273D01*
X116215065Y-80797295D01*
X116215066Y-80797297D01*
X116299879Y-80937340D01*
X116305380Y-80946424D01*
X116431382Y-81076902D01*
X116583159Y-81176222D01*
X116589763Y-81178678D01*
X116589765Y-81178679D01*
X116746558Y-81236990D01*
X116746560Y-81236990D01*
X116753168Y-81239448D01*
X116836995Y-81250633D01*
X116925980Y-81262507D01*
X116925984Y-81262507D01*
X116932961Y-81263438D01*
X116939972Y-81262800D01*
X116939976Y-81262800D01*
X117082459Y-81249832D01*
X117113600Y-81246998D01*
X117120302Y-81244820D01*
X117120304Y-81244820D01*
X117279409Y-81193124D01*
X117279412Y-81193123D01*
X117286108Y-81190947D01*
X117441912Y-81098069D01*
X117573266Y-80972982D01*
X117673643Y-80821902D01*
X117715423Y-80711917D01*
X117735555Y-80658920D01*
X117735556Y-80658918D01*
X117738055Y-80652338D01*
X117739035Y-80645366D01*
X117762748Y-80476639D01*
X117762748Y-80476636D01*
X117763299Y-80472717D01*
X117763616Y-80450000D01*
X117743397Y-80269745D01*
X117741080Y-80263091D01*
X117715154Y-80188640D01*
X121986463Y-80188640D01*
X122004163Y-80369160D01*
X122061418Y-80541273D01*
X122065065Y-80547295D01*
X122065066Y-80547297D01*
X122128681Y-80652338D01*
X122155380Y-80696424D01*
X122281382Y-80826902D01*
X122433159Y-80926222D01*
X122439763Y-80928678D01*
X122439765Y-80928679D01*
X122596558Y-80986990D01*
X122596560Y-80986990D01*
X122603168Y-80989448D01*
X122686995Y-81000633D01*
X122775980Y-81012507D01*
X122775984Y-81012507D01*
X122782961Y-81013438D01*
X122789972Y-81012800D01*
X122789976Y-81012800D01*
X122932459Y-80999832D01*
X122963600Y-80996998D01*
X122970302Y-80994820D01*
X122970304Y-80994820D01*
X123129409Y-80943124D01*
X123129412Y-80943123D01*
X123136108Y-80940947D01*
X123232513Y-80883478D01*
X123285860Y-80851677D01*
X123285862Y-80851676D01*
X123291912Y-80848069D01*
X123423266Y-80722982D01*
X123523643Y-80571902D01*
X123588055Y-80402338D01*
X123591652Y-80376744D01*
X123612748Y-80226639D01*
X123612748Y-80226636D01*
X123613299Y-80222717D01*
X123613616Y-80200000D01*
X123593397Y-80019745D01*
X123591080Y-80013091D01*
X123536064Y-79855106D01*
X123536062Y-79855103D01*
X123533745Y-79848448D01*
X123463733Y-79736404D01*
X123441359Y-79700598D01*
X123437626Y-79694624D01*
X123401139Y-79657881D01*
X123314778Y-79570915D01*
X123314774Y-79570912D01*
X123309815Y-79565918D01*
X123298697Y-79558862D01*
X123250538Y-79528300D01*
X123156666Y-79468727D01*
X123127463Y-79458328D01*
X122992425Y-79410243D01*
X122992420Y-79410242D01*
X122985790Y-79407881D01*
X122978802Y-79407048D01*
X122978799Y-79407047D01*
X122855698Y-79392368D01*
X122805680Y-79386404D01*
X122798677Y-79387140D01*
X122798676Y-79387140D01*
X122632288Y-79404628D01*
X122632286Y-79404629D01*
X122625288Y-79405364D01*
X122453579Y-79463818D01*
X122447575Y-79467512D01*
X122305095Y-79555166D01*
X122305092Y-79555168D01*
X122299088Y-79558862D01*
X122294053Y-79563793D01*
X122294050Y-79563795D01*
X122197973Y-79657881D01*
X122169493Y-79685771D01*
X122071235Y-79838238D01*
X122068826Y-79844858D01*
X122068824Y-79844861D01*
X122034332Y-79939627D01*
X122009197Y-80008685D01*
X121986463Y-80188640D01*
X117715154Y-80188640D01*
X117686064Y-80105106D01*
X117686062Y-80105103D01*
X117683745Y-80098448D01*
X117587626Y-79944624D01*
X117559120Y-79915918D01*
X117464778Y-79820915D01*
X117464774Y-79820912D01*
X117459815Y-79815918D01*
X117452928Y-79811547D01*
X117363237Y-79754628D01*
X117306666Y-79718727D01*
X117238977Y-79694624D01*
X117142425Y-79660243D01*
X117142420Y-79660242D01*
X117135790Y-79657881D01*
X117128802Y-79657048D01*
X117128799Y-79657047D01*
X117005698Y-79642368D01*
X116955680Y-79636404D01*
X116948677Y-79637140D01*
X116948676Y-79637140D01*
X116782288Y-79654628D01*
X116782286Y-79654629D01*
X116775288Y-79655364D01*
X116603579Y-79713818D01*
X116597575Y-79717512D01*
X116455095Y-79805166D01*
X116455092Y-79805168D01*
X116449088Y-79808862D01*
X116444053Y-79813793D01*
X116444050Y-79813795D01*
X116343621Y-79912143D01*
X116319493Y-79935771D01*
X116221235Y-80088238D01*
X116218826Y-80094858D01*
X116218824Y-80094861D01*
X116172288Y-80222717D01*
X116159197Y-80258685D01*
X116136463Y-80438640D01*
X100508500Y-80438640D01*
X100508500Y-78884500D01*
X100528502Y-78816379D01*
X100582158Y-78769886D01*
X100634500Y-78758500D01*
X138365500Y-78758500D01*
X138433621Y-78778502D01*
G37*
%TD.AperFunction*%
%TD*%
M02*
