%TF.GenerationSoftware,KiCad,Pcbnew,(6.0.4-0)*%
%TF.CreationDate,2022-07-06T09:33:38-06:00*%
%TF.ProjectId,sq_lockin_v5,73715f6c-6f63-46b6-996e-5f76352e6b69,rev?*%
%TF.SameCoordinates,Original*%
%TF.FileFunction,Paste,Top*%
%TF.FilePolarity,Positive*%
%FSLAX46Y46*%
G04 Gerber Fmt 4.6, Leading zero omitted, Abs format (unit mm)*
G04 Created by KiCad (PCBNEW (6.0.4-0)) date 2022-07-06 09:33:38*
%MOMM*%
%LPD*%
G01*
G04 APERTURE LIST*
G04 Aperture macros list*
%AMRoundRect*
0 Rectangle with rounded corners*
0 $1 Rounding radius*
0 $2 $3 $4 $5 $6 $7 $8 $9 X,Y pos of 4 corners*
0 Add a 4 corners polygon primitive as box body*
4,1,4,$2,$3,$4,$5,$6,$7,$8,$9,$2,$3,0*
0 Add four circle primitives for the rounded corners*
1,1,$1+$1,$2,$3*
1,1,$1+$1,$4,$5*
1,1,$1+$1,$6,$7*
1,1,$1+$1,$8,$9*
0 Add four rect primitives between the rounded corners*
20,1,$1+$1,$2,$3,$4,$5,0*
20,1,$1+$1,$4,$5,$6,$7,0*
20,1,$1+$1,$6,$7,$8,$9,0*
20,1,$1+$1,$8,$9,$2,$3,0*%
G04 Aperture macros list end*
%ADD10RoundRect,0.250001X0.624999X-0.462499X0.624999X0.462499X-0.624999X0.462499X-0.624999X-0.462499X0*%
%ADD11RoundRect,0.250000X-0.450000X0.325000X-0.450000X-0.325000X0.450000X-0.325000X0.450000X0.325000X0*%
%ADD12RoundRect,0.237500X-0.237500X0.287500X-0.237500X-0.287500X0.237500X-0.287500X0.237500X0.287500X0*%
%ADD13RoundRect,0.237500X0.237500X-0.287500X0.237500X0.287500X-0.237500X0.287500X-0.237500X-0.287500X0*%
%ADD14R,1.060000X0.650000*%
%ADD15C,5.000000*%
%ADD16R,1.575000X1.575000*%
%ADD17C,1.575000*%
%ADD18R,0.800000X0.900000*%
%ADD19RoundRect,0.237500X0.287500X0.237500X-0.287500X0.237500X-0.287500X-0.237500X0.287500X-0.237500X0*%
%ADD20RoundRect,0.237500X0.237500X-0.300000X0.237500X0.300000X-0.237500X0.300000X-0.237500X-0.300000X0*%
%ADD21RoundRect,0.237500X-0.237500X0.300000X-0.237500X-0.300000X0.237500X-0.300000X0.237500X0.300000X0*%
%ADD22RoundRect,0.150000X-0.675000X-0.150000X0.675000X-0.150000X0.675000X0.150000X-0.675000X0.150000X0*%
%ADD23RoundRect,0.237500X-0.300000X-0.237500X0.300000X-0.237500X0.300000X0.237500X-0.300000X0.237500X0*%
%ADD24RoundRect,0.237500X0.300000X0.237500X-0.300000X0.237500X-0.300000X-0.237500X0.300000X-0.237500X0*%
%ADD25RoundRect,0.150000X-0.825000X-0.150000X0.825000X-0.150000X0.825000X0.150000X-0.825000X0.150000X0*%
%ADD26R,0.600000X0.450000*%
%ADD27RoundRect,0.150000X-0.150000X0.825000X-0.150000X-0.825000X0.150000X-0.825000X0.150000X0.825000X0*%
%ADD28RoundRect,0.250001X-0.462499X-1.074999X0.462499X-1.074999X0.462499X1.074999X-0.462499X1.074999X0*%
%ADD29RoundRect,0.250000X0.650000X-0.412500X0.650000X0.412500X-0.650000X0.412500X-0.650000X-0.412500X0*%
%ADD30RoundRect,0.150000X0.625000X-0.150000X0.625000X0.150000X-0.625000X0.150000X-0.625000X-0.150000X0*%
%ADD31RoundRect,0.250000X0.650000X-0.350000X0.650000X0.350000X-0.650000X0.350000X-0.650000X-0.350000X0*%
%ADD32RoundRect,0.140000X0.170000X-0.140000X0.170000X0.140000X-0.170000X0.140000X-0.170000X-0.140000X0*%
%ADD33RoundRect,0.140000X0.140000X0.170000X-0.140000X0.170000X-0.140000X-0.170000X0.140000X-0.170000X0*%
%ADD34R,1.000000X1.050000*%
%ADD35R,1.050000X2.200000*%
%ADD36R,0.300000X1.400000*%
%ADD37R,0.400000X0.650000*%
%ADD38RoundRect,0.150000X-0.587500X-0.150000X0.587500X-0.150000X0.587500X0.150000X-0.587500X0.150000X0*%
%ADD39RoundRect,0.140000X-0.140000X-0.170000X0.140000X-0.170000X0.140000X0.170000X-0.140000X0.170000X0*%
%ADD40RoundRect,0.150000X0.825000X0.150000X-0.825000X0.150000X-0.825000X-0.150000X0.825000X-0.150000X0*%
%ADD41RoundRect,0.250000X0.412500X0.650000X-0.412500X0.650000X-0.412500X-0.650000X0.412500X-0.650000X0*%
%ADD42RoundRect,0.237500X0.250000X0.237500X-0.250000X0.237500X-0.250000X-0.237500X0.250000X-0.237500X0*%
%ADD43RoundRect,0.250000X-1.100000X0.412500X-1.100000X-0.412500X1.100000X-0.412500X1.100000X0.412500X0*%
%ADD44R,0.450000X0.600000*%
G04 APERTURE END LIST*
D10*
%TO.C,R1*%
X137200000Y-79300000D03*
X137200000Y-76325000D03*
%TD*%
%TO.C,R5*%
X130900000Y-82600000D03*
X130900000Y-79625000D03*
%TD*%
%TO.C,R4*%
X137100000Y-93400000D03*
X137100000Y-90425000D03*
%TD*%
D11*
%TO.C,R2*%
X137175000Y-81675000D03*
X137175000Y-83725000D03*
%TD*%
D12*
%TO.C,R6*%
X131000000Y-88750000D03*
X131000000Y-90500000D03*
%TD*%
D13*
%TO.C,C2*%
X161700000Y-72900000D03*
X161700000Y-71150000D03*
%TD*%
%TO.C,C3*%
X155900000Y-73000000D03*
X155900000Y-71250000D03*
%TD*%
D14*
%TO.C,U2*%
X160000000Y-72050000D03*
X160000000Y-71100000D03*
X160000000Y-70150000D03*
X157800000Y-70150000D03*
X157800000Y-72050000D03*
%TD*%
D13*
%TO.C,R7*%
X131000000Y-86675000D03*
X131000000Y-84925000D03*
%TD*%
D11*
%TO.C,R3*%
X137200000Y-85650000D03*
X137200000Y-87700000D03*
%TD*%
D13*
%TO.C,C4*%
X141300000Y-74300000D03*
X141300000Y-72550000D03*
%TD*%
%TO.C,C6*%
X147000000Y-74400000D03*
X147000000Y-72650000D03*
%TD*%
D15*
%TO.C,J2*%
X116400000Y-74900000D03*
X116400000Y-99900000D03*
D16*
X117820000Y-92920000D03*
D17*
X117820000Y-90160000D03*
X117820000Y-87400000D03*
X117820000Y-84640000D03*
X117820000Y-81880000D03*
X114980000Y-91540000D03*
X114980000Y-88780000D03*
X114980000Y-86020000D03*
X114980000Y-83260000D03*
%TD*%
D12*
%TO.C,R8*%
X128000000Y-88250000D03*
X128000000Y-90000000D03*
%TD*%
D18*
%TO.C,U3*%
X143320000Y-74475000D03*
X145220000Y-74475000D03*
X144270000Y-72475000D03*
%TD*%
D19*
%TO.C,R14*%
X166100000Y-83760000D03*
X164350000Y-83760000D03*
%TD*%
D20*
%TO.C,C19*%
X168000000Y-83697500D03*
X168000000Y-81972500D03*
%TD*%
%TO.C,C20*%
X167800000Y-79597500D03*
X167800000Y-77872500D03*
%TD*%
D21*
%TO.C,C21*%
X177700000Y-78922500D03*
X177700000Y-80647500D03*
%TD*%
D19*
%TO.C,R13*%
X166100000Y-81860000D03*
X164350000Y-81860000D03*
%TD*%
D22*
%TO.C,U15*%
X170125000Y-79675000D03*
X170125000Y-80945000D03*
X170125000Y-82215000D03*
X170125000Y-83485000D03*
X175375000Y-83485000D03*
X175375000Y-82215000D03*
X175375000Y-80945000D03*
X175375000Y-79675000D03*
%TD*%
D20*
%TO.C,C23*%
X173775000Y-96527500D03*
X173775000Y-94802500D03*
%TD*%
%TO.C,C22*%
X173975000Y-100627500D03*
X173975000Y-98902500D03*
%TD*%
D19*
%TO.C,R16*%
X172075000Y-100690000D03*
X170325000Y-100690000D03*
%TD*%
%TO.C,R15*%
X172075000Y-98790000D03*
X170325000Y-98790000D03*
%TD*%
D21*
%TO.C,C24*%
X183675000Y-95852500D03*
X183675000Y-97577500D03*
%TD*%
D22*
%TO.C,U16*%
X176100000Y-96605000D03*
X176100000Y-97875000D03*
X176100000Y-99145000D03*
X176100000Y-100415000D03*
X181350000Y-100415000D03*
X181350000Y-99145000D03*
X181350000Y-97875000D03*
X181350000Y-96605000D03*
%TD*%
D23*
%TO.C,C16*%
X158837500Y-99660000D03*
X160562500Y-99660000D03*
%TD*%
D24*
%TO.C,C17*%
X169962500Y-92500000D03*
X168237500Y-92500000D03*
%TD*%
D12*
%TO.C,R9*%
X160300000Y-95125000D03*
X160300000Y-96875000D03*
%TD*%
D13*
%TO.C,R10*%
X167400000Y-101635000D03*
X167400000Y-99885000D03*
%TD*%
D19*
%TO.C,R11*%
X160975000Y-101960000D03*
X159225000Y-101960000D03*
%TD*%
D12*
%TO.C,R12*%
X157900000Y-103985000D03*
X157900000Y-105735000D03*
%TD*%
D25*
%TO.C,U13*%
X162425000Y-94155000D03*
X162425000Y-95425000D03*
X162425000Y-96695000D03*
X162425000Y-97965000D03*
X167375000Y-97965000D03*
X167375000Y-96695000D03*
X167375000Y-95425000D03*
X167375000Y-94155000D03*
%TD*%
D23*
%TO.C,C18*%
X163162500Y-101960000D03*
X164887500Y-101960000D03*
%TD*%
D26*
%TO.C,D1*%
X168650000Y-75300000D03*
X170750000Y-75300000D03*
%TD*%
%TO.C,D2*%
X168650000Y-72900000D03*
X170750000Y-72900000D03*
%TD*%
D27*
%TO.C,U11*%
X158605000Y-77885000D03*
X157335000Y-77885000D03*
X156065000Y-77885000D03*
X154795000Y-77885000D03*
X154795000Y-82835000D03*
X156065000Y-82835000D03*
X157335000Y-82835000D03*
X158605000Y-82835000D03*
%TD*%
D20*
%TO.C,C15*%
X160700000Y-82922500D03*
X160700000Y-81197500D03*
%TD*%
D27*
%TO.C,U12*%
X158605000Y-92585000D03*
X157335000Y-92585000D03*
X156065000Y-92585000D03*
X154795000Y-92585000D03*
X154795000Y-97535000D03*
X156065000Y-97535000D03*
X157335000Y-97535000D03*
X158605000Y-97535000D03*
%TD*%
D14*
%TO.C,U14*%
X160500000Y-103710000D03*
X160500000Y-104660000D03*
X160500000Y-105610000D03*
X162700000Y-105610000D03*
X162700000Y-103710000D03*
%TD*%
D28*
%TO.C,L1*%
X200412500Y-61600000D03*
X203387500Y-61600000D03*
%TD*%
D29*
%TO.C,C28*%
X213500000Y-67362500D03*
X213500000Y-64237500D03*
%TD*%
D30*
%TO.C,J12*%
X221800000Y-102200000D03*
X221800000Y-101200000D03*
X221800000Y-100200000D03*
X221800000Y-99200000D03*
D31*
X225675000Y-97900000D03*
X225675000Y-103500000D03*
%TD*%
D32*
%TO.C,C14*%
X146000000Y-101480000D03*
X146000000Y-100520000D03*
%TD*%
D23*
%TO.C,C10*%
X187437500Y-77200000D03*
X189162500Y-77200000D03*
%TD*%
D33*
%TO.C,C1*%
X140180000Y-85000000D03*
X139220000Y-85000000D03*
%TD*%
D23*
%TO.C,C11*%
X194337500Y-77200000D03*
X196062500Y-77200000D03*
%TD*%
D34*
%TO.C,J13*%
X184000000Y-70950000D03*
D35*
X182525000Y-72475000D03*
X185475000Y-72475000D03*
%TD*%
D36*
%TO.C,U8*%
X144300000Y-87400000D03*
X143800000Y-87400000D03*
X143300000Y-87400000D03*
X142800000Y-87400000D03*
X142300000Y-87400000D03*
X142300000Y-91800000D03*
X142800000Y-91800000D03*
X143300000Y-91800000D03*
X143800000Y-91800000D03*
X144300000Y-91800000D03*
%TD*%
D37*
%TO.C,U1*%
X140850000Y-81850000D03*
X140200000Y-81850000D03*
X139550000Y-81850000D03*
X139550000Y-83750000D03*
X140200000Y-83750000D03*
X140850000Y-83750000D03*
%TD*%
D25*
%TO.C,U6*%
X210125000Y-100565000D03*
X210125000Y-101835000D03*
X210125000Y-103105000D03*
X210125000Y-104375000D03*
X215075000Y-104375000D03*
X215075000Y-103105000D03*
X215075000Y-101835000D03*
X215075000Y-100565000D03*
%TD*%
D23*
%TO.C,C5*%
X188737500Y-102700000D03*
X190462500Y-102700000D03*
%TD*%
D38*
%TO.C,Q1*%
X182965000Y-65757500D03*
X182965000Y-67657500D03*
X184840000Y-66707500D03*
%TD*%
D39*
%TO.C,C12*%
X145820000Y-87500000D03*
X146780000Y-87500000D03*
%TD*%
D40*
%TO.C,U4*%
X193975000Y-100745000D03*
X193975000Y-99475000D03*
X193975000Y-98205000D03*
X193975000Y-96935000D03*
X193975000Y-95665000D03*
X193975000Y-94395000D03*
X193975000Y-93125000D03*
X193975000Y-91855000D03*
X189025000Y-91855000D03*
X189025000Y-93125000D03*
X189025000Y-94395000D03*
X189025000Y-95665000D03*
X189025000Y-96935000D03*
X189025000Y-98205000D03*
X189025000Y-99475000D03*
X189025000Y-100745000D03*
%TD*%
D23*
%TO.C,C7*%
X196637500Y-100900000D03*
X198362500Y-100900000D03*
%TD*%
D39*
%TO.C,C13*%
X146820000Y-86300000D03*
X147780000Y-86300000D03*
%TD*%
D21*
%TO.C,C32*%
X209500000Y-64237500D03*
X209500000Y-65962500D03*
%TD*%
D41*
%TO.C,C25*%
X203462500Y-58500000D03*
X200337500Y-58500000D03*
%TD*%
D42*
%TO.C,R17*%
X185015000Y-64107500D03*
X183190000Y-64107500D03*
%TD*%
D43*
%TO.C,C33*%
X179702500Y-64345000D03*
X179702500Y-67470000D03*
%TD*%
D21*
%TO.C,C29*%
X189702500Y-64345000D03*
X189702500Y-66070000D03*
%TD*%
D36*
%TO.C,U9*%
X146900000Y-84700000D03*
X147400000Y-84700000D03*
X147900000Y-84700000D03*
X148400000Y-84700000D03*
X148900000Y-84700000D03*
X148900000Y-80300000D03*
X148400000Y-80300000D03*
X147900000Y-80300000D03*
X147400000Y-80300000D03*
X146900000Y-80300000D03*
%TD*%
D20*
%TO.C,C8*%
X208000000Y-100362500D03*
X208000000Y-98637500D03*
%TD*%
D21*
%TO.C,C31*%
X191502500Y-64345000D03*
X191502500Y-66070000D03*
%TD*%
D41*
%TO.C,C26*%
X226962500Y-58500000D03*
X223837500Y-58500000D03*
%TD*%
D44*
%TO.C,D3*%
X225100000Y-79250000D03*
X225100000Y-77150000D03*
%TD*%
D36*
%TO.C,U10*%
X147700000Y-100700000D03*
X148200000Y-100700000D03*
X148700000Y-100700000D03*
X149200000Y-100700000D03*
X149700000Y-100700000D03*
X149700000Y-96300000D03*
X149200000Y-96300000D03*
X148700000Y-96300000D03*
X148200000Y-96300000D03*
X147700000Y-96300000D03*
%TD*%
D28*
%TO.C,L2*%
X223912500Y-61700000D03*
X226887500Y-61700000D03*
%TD*%
D29*
%TO.C,C27*%
X187352500Y-67570000D03*
X187352500Y-64445000D03*
%TD*%
D25*
%TO.C,U7*%
X189325000Y-78915000D03*
X189325000Y-80185000D03*
X189325000Y-81455000D03*
X189325000Y-82725000D03*
X189325000Y-83995000D03*
X189325000Y-85265000D03*
X189325000Y-86535000D03*
X189325000Y-87805000D03*
X194275000Y-87805000D03*
X194275000Y-86535000D03*
X194275000Y-85265000D03*
X194275000Y-83995000D03*
X194275000Y-82725000D03*
X194275000Y-81455000D03*
X194275000Y-80185000D03*
X194275000Y-78915000D03*
%TD*%
D21*
%TO.C,C30*%
X211400000Y-64237500D03*
X211400000Y-65962500D03*
%TD*%
D23*
%TO.C,C9*%
X214837500Y-98500000D03*
X216562500Y-98500000D03*
%TD*%
M02*
