%TF.GenerationSoftware,KiCad,Pcbnew,(6.0.4-0)*%
%TF.CreationDate,2022-07-06T09:33:38-06:00*%
%TF.ProjectId,sq_lockin_v5,73715f6c-6f63-46b6-996e-5f76352e6b69,rev?*%
%TF.SameCoordinates,Original*%
%TF.FileFunction,Copper,L2,Bot*%
%TF.FilePolarity,Positive*%
%FSLAX46Y46*%
G04 Gerber Fmt 4.6, Leading zero omitted, Abs format (unit mm)*
G04 Created by KiCad (PCBNEW (6.0.4-0)) date 2022-07-06 09:33:38*
%MOMM*%
%LPD*%
G01*
G04 APERTURE LIST*
G04 Aperture macros list*
%AMRoundRect*
0 Rectangle with rounded corners*
0 $1 Rounding radius*
0 $2 $3 $4 $5 $6 $7 $8 $9 X,Y pos of 4 corners*
0 Add a 4 corners polygon primitive as box body*
4,1,4,$2,$3,$4,$5,$6,$7,$8,$9,$2,$3,0*
0 Add four circle primitives for the rounded corners*
1,1,$1+$1,$2,$3*
1,1,$1+$1,$4,$5*
1,1,$1+$1,$6,$7*
1,1,$1+$1,$8,$9*
0 Add four rect primitives between the rounded corners*
20,1,$1+$1,$2,$3,$4,$5,0*
20,1,$1+$1,$4,$5,$6,$7,0*
20,1,$1+$1,$6,$7,$8,$9,0*
20,1,$1+$1,$8,$9,$2,$3,0*%
G04 Aperture macros list end*
%TA.AperFunction,ComponentPad*%
%ADD10R,1.700000X1.700000*%
%TD*%
%TA.AperFunction,ComponentPad*%
%ADD11O,1.700000X1.700000*%
%TD*%
%TA.AperFunction,ComponentPad*%
%ADD12RoundRect,0.250000X0.625000X-0.350000X0.625000X0.350000X-0.625000X0.350000X-0.625000X-0.350000X0*%
%TD*%
%TA.AperFunction,ComponentPad*%
%ADD13O,1.750000X1.200000*%
%TD*%
%TA.AperFunction,ComponentPad*%
%ADD14C,5.000000*%
%TD*%
%TA.AperFunction,ComponentPad*%
%ADD15R,1.575000X1.575000*%
%TD*%
%TA.AperFunction,ComponentPad*%
%ADD16C,1.575000*%
%TD*%
%TA.AperFunction,ComponentPad*%
%ADD17R,2.250000X1.750000*%
%TD*%
%TA.AperFunction,ComponentPad*%
%ADD18O,2.250000X1.750000*%
%TD*%
%TA.AperFunction,ComponentPad*%
%ADD19C,6.400000*%
%TD*%
%TA.AperFunction,ComponentPad*%
%ADD20O,5.000000X1.500000*%
%TD*%
%TA.AperFunction,ViaPad*%
%ADD21C,0.800000*%
%TD*%
%TA.AperFunction,Conductor*%
%ADD22C,0.250000*%
%TD*%
%TA.AperFunction,Conductor*%
%ADD23C,0.200000*%
%TD*%
G04 APERTURE END LIST*
D10*
%TO.P,J6,1,Pin_1*%
%TO.N,Net-(J6-Pad1)*%
X131000000Y-93600000D03*
D11*
%TO.P,J6,2,Pin_2*%
%TO.N,/I-*%
X133540000Y-93600000D03*
%TD*%
D12*
%TO.P,J9,1,+*%
%TO.N,Net-(D2-Pad2)*%
X174100000Y-72900000D03*
D13*
%TO.P,J9,2,-*%
%TO.N,GND*%
X174100000Y-70900000D03*
%TD*%
D10*
%TO.P,J10,1,Pin_1*%
%TO.N,Net-(C2-Pad1)*%
X165600000Y-72900000D03*
D11*
%TO.P,J10,2,Pin_2*%
%TO.N,GND*%
X165600000Y-70360000D03*
%TD*%
D10*
%TO.P,J11,1,Pin_1*%
%TO.N,Net-(J11-Pad1)*%
X131000000Y-98000000D03*
D11*
%TO.P,J11,2,Pin_2*%
%TO.N,/I-*%
X133540000Y-98000000D03*
%TD*%
D14*
%TO.P,J2,0,PAD*%
%TO.N,unconnected-(J2-Pad0)*%
X116400000Y-74900000D03*
X116400000Y-99900000D03*
D15*
%TO.P,J2,1,1*%
%TO.N,/I+*%
X117820000Y-92920000D03*
D16*
%TO.P,J2,2,2*%
%TO.N,/I-*%
X117820000Y-90160000D03*
%TO.P,J2,3,3*%
%TO.N,unconnected-(J2-Pad3)*%
X117820000Y-87400000D03*
%TO.P,J2,4,4*%
%TO.N,/V+*%
X117820000Y-84640000D03*
%TO.P,J2,5,5*%
%TO.N,/V-*%
X117820000Y-81880000D03*
%TO.P,J2,6,6*%
%TO.N,unconnected-(J2-Pad6)*%
X114980000Y-91540000D03*
%TO.P,J2,7,7*%
%TO.N,unconnected-(J2-Pad7)*%
X114980000Y-88780000D03*
%TO.P,J2,8,8*%
%TO.N,unconnected-(J2-Pad8)*%
X114980000Y-86020000D03*
%TO.P,J2,9,9*%
%TO.N,unconnected-(J2-Pad9)*%
X114980000Y-83260000D03*
%TD*%
D10*
%TO.P,J3,1,Pin_1*%
%TO.N,/V-*%
X124000000Y-82000000D03*
D11*
%TO.P,J3,2,Pin_2*%
%TO.N,/I-*%
X124000000Y-84540000D03*
%TD*%
D10*
%TO.P,J4,1,Pin_1*%
%TO.N,/I+*%
X124000000Y-96000000D03*
D11*
%TO.P,J4,2,Pin_2*%
%TO.N,/V+*%
X124000000Y-93460000D03*
%TD*%
D17*
%TO.P,PS2,1,-Vin*%
%TO.N,GNDPWR*%
X216900000Y-59160000D03*
D18*
%TO.P,PS2,2,+Vin*%
%TO.N,Net-(L2-Pad1)*%
X216900000Y-61700000D03*
%TO.P,PS2,3,0V*%
%TO.N,GNDD*%
X216900000Y-64240000D03*
%TO.P,PS2,4,+Vout*%
%TO.N,/power/digital*%
X216900000Y-66780000D03*
%TD*%
D19*
%TO.P,H2,1*%
%TO.N,N/C*%
X114000000Y-54000000D03*
%TD*%
D20*
%TO.P,U5,1,P26*%
%TO.N,Net-(U4-Pad2)*%
X201910000Y-79280000D03*
%TO.P,U5,2,P27*%
%TO.N,Net-(U4-Pad3)*%
X201910000Y-81820000D03*
%TO.P,U5,3,P28*%
%TO.N,Net-(U4-Pad4)*%
X201910000Y-84360000D03*
%TO.P,U5,4,P29*%
%TO.N,Net-(U5-Pad4)*%
X201910000Y-86900000D03*
%TO.P,U5,5,P6*%
%TO.N,Net-(U4-Pad7)*%
X201910000Y-89440000D03*
%TO.P,U5,6,P7*%
%TO.N,Net-(U4-Pad6)*%
X201910000Y-91980000D03*
%TO.P,U5,7,P0*%
%TO.N,/tx*%
X201910000Y-94520000D03*
%TO.P,U5,8,P1*%
%TO.N,/rx*%
X219690000Y-94520000D03*
%TO.P,U5,9,P2*%
%TO.N,Net-(U4-Pad5)*%
X219690000Y-91980000D03*
%TO.P,U5,10,P4*%
%TO.N,unconnected-(U5-Pad10)*%
X219690000Y-89440000D03*
%TO.P,U5,11,P3*%
%TO.N,unconnected-(U5-Pad11)*%
X219690000Y-86900000D03*
%TO.P,U5,12,3V3*%
%TO.N,/MC3.3*%
X219690000Y-84360000D03*
%TO.P,U5,13,GND*%
%TO.N,GNDD*%
X219690000Y-81820000D03*
%TO.P,U5,14,5V*%
%TO.N,+5VD*%
X219690000Y-79280000D03*
%TD*%
D17*
%TO.P,PS1,1,-Vin*%
%TO.N,GNDPWR*%
X193757500Y-59092500D03*
D18*
%TO.P,PS1,2,+Vin*%
%TO.N,Net-(L1-Pad1)*%
X193757500Y-61632500D03*
%TO.P,PS1,3,0V*%
%TO.N,GND*%
X193757500Y-64172500D03*
%TO.P,PS1,4,+Vout*%
%TO.N,Net-(C27-Pad1)*%
X193757500Y-66712500D03*
%TD*%
D19*
%TO.P,H4,1*%
%TO.N,N/C*%
X114000000Y-116000000D03*
%TD*%
%TO.P,H1,1*%
%TO.N,N/C*%
X231000000Y-116000000D03*
%TD*%
%TO.P,H3,1*%
%TO.N,N/C*%
X231000000Y-54000000D03*
%TD*%
D21*
%TO.N,GND*%
X164900000Y-99200000D03*
X150600000Y-80700000D03*
X153300000Y-77800000D03*
X146089980Y-99500000D03*
X145600000Y-89700000D03*
X162100000Y-81160000D03*
X139200000Y-85900000D03*
X145700000Y-85200000D03*
X183700000Y-94600000D03*
%TO.N,Net-(C2-Pad1)*%
X160000000Y-73400000D03*
X161300000Y-69900000D03*
%TO.N,/vref*%
X166500000Y-79560000D03*
X172475000Y-96490000D03*
X145300000Y-76100000D03*
X142300000Y-86100000D03*
%TO.N,+3V3*%
X177900000Y-82060000D03*
X183875000Y-98990000D03*
X140200000Y-85900000D03*
X157600000Y-99960000D03*
X188600000Y-104100000D03*
X163100000Y-100560000D03*
X162000000Y-82960000D03*
X145700000Y-86500000D03*
X148905378Y-91605378D03*
X144400000Y-81875500D03*
X144382604Y-84142300D03*
X166800000Y-92700000D03*
X160900000Y-75075500D03*
X142400000Y-81700000D03*
%TO.N,/Sheet624B5D4E/ctrl+*%
X144400000Y-93700000D03*
X148200000Y-78900000D03*
X148900000Y-86100000D03*
X143900000Y-103400000D03*
%TO.N,/Sheet624B5D4E/in+*%
X148900011Y-83400000D03*
X147300000Y-81900000D03*
%TO.N,/sheet624D2E58/ctrl+*%
X149500000Y-102100000D03*
X148712299Y-94112299D03*
%TO.N,/sheet6256EE2A/out+*%
X143312452Y-85212452D03*
X138875000Y-76325000D03*
%TO.N,/sheet6256EE2A/ctrl+*%
X142800000Y-103400000D03*
X142800000Y-93300000D03*
X143400000Y-88900000D03*
%TO.N,/V-*%
X130447018Y-101922420D03*
X149200000Y-97500000D03*
X148155378Y-99144622D03*
%TO.N,/V+*%
X146300000Y-95300000D03*
X144500000Y-95300000D03*
X130500000Y-103000000D03*
%TO.N,/Sheet6275CBF8/in+*%
X148440261Y-102398005D03*
X154800000Y-99100000D03*
%TO.N,Net-(U4-Pad5)*%
X223900000Y-92000000D03*
X196500000Y-95700000D03*
%TO.N,/MC3.3*%
X194200000Y-102300000D03*
X194200000Y-75700000D03*
%TO.N,Net-(J5-Pad1)*%
X141200000Y-103200000D03*
X141150008Y-84950008D03*
X190200000Y-105800000D03*
X187400000Y-80200000D03*
%TO.N,GNDPWR*%
X216983177Y-99624299D03*
X222700000Y-58200000D03*
X220200000Y-102200000D03*
X228900000Y-60000000D03*
X200600000Y-56700000D03*
%TO.N,Net-(J12-Pad4)*%
X217200000Y-100600000D03*
X217200000Y-102900000D03*
%TO.N,/tx*%
X205200000Y-94500000D03*
X209800000Y-96700000D03*
X208200000Y-94600000D03*
X208100000Y-101800000D03*
%TO.N,/rx*%
X208100000Y-103100000D03*
%TD*%
D22*
%TO.N,GND*%
X150600000Y-80500000D02*
X153300000Y-77800000D01*
X150600000Y-80700000D02*
X150600000Y-80500000D01*
%TO.N,Net-(C2-Pad1)*%
X161300000Y-72100000D02*
X160000000Y-73400000D01*
X161300000Y-69900000D02*
X161300000Y-72100000D01*
%TO.N,/vref*%
X166500000Y-79560000D02*
X169000000Y-79560000D01*
X145300000Y-84249502D02*
X145300000Y-76100000D01*
X169000000Y-79560000D02*
X172475000Y-83035000D01*
X142300000Y-86100000D02*
X143449502Y-86100000D01*
X143449502Y-86100000D02*
X145300000Y-84249502D01*
X172475000Y-83035000D02*
X172475000Y-96490000D01*
%TO.N,/I-*%
X133540000Y-93600000D02*
X124480000Y-84540000D01*
%TO.N,+3V3*%
X144400000Y-84124904D02*
X144382604Y-84142300D01*
X157600000Y-99960000D02*
X157260000Y-99960000D01*
X145700000Y-88400000D02*
X145700000Y-86500000D01*
X162500000Y-99960000D02*
X163100000Y-100560000D01*
X157260000Y-99960000D02*
X145700000Y-88400000D01*
X144400000Y-81875500D02*
X144400000Y-84124904D01*
X158175489Y-86824511D02*
X146024511Y-86824511D01*
X146024511Y-86824511D02*
X145700000Y-86500000D01*
X177900000Y-93200000D02*
X183690000Y-98990000D01*
X160900000Y-81860000D02*
X162000000Y-82960000D01*
X188600000Y-104100000D02*
X183875000Y-99375000D01*
X162000000Y-83000000D02*
X158175489Y-86824511D01*
X166500000Y-100560000D02*
X166500000Y-93000000D01*
X162000000Y-82960000D02*
X162000000Y-83000000D01*
X166500000Y-100560000D02*
X163100000Y-100560000D01*
X142400000Y-81700000D02*
X140200000Y-83900000D01*
X140200000Y-83900000D02*
X140200000Y-85900000D01*
X177900000Y-82060000D02*
X177900000Y-93200000D01*
X157600000Y-99960000D02*
X162500000Y-99960000D01*
X183690000Y-98990000D02*
X183875000Y-98990000D01*
X160900000Y-75075500D02*
X160900000Y-81860000D01*
X166500000Y-93000000D02*
X166800000Y-92700000D01*
X183875000Y-99375000D02*
X183875000Y-98990000D01*
%TO.N,/Sheet624B5D4E/ctrl+*%
X148300000Y-78800000D02*
X148200000Y-78900000D01*
X143775489Y-94324511D02*
X144400000Y-93700000D01*
X149624511Y-85375489D02*
X149624511Y-79424511D01*
X143900000Y-103400000D02*
X143775489Y-103275489D01*
X149000000Y-78800000D02*
X148300000Y-78800000D01*
X148900000Y-86100000D02*
X149624511Y-85375489D01*
X143775489Y-103275489D02*
X143775489Y-94324511D01*
X149624511Y-79424511D02*
X149000000Y-78800000D01*
%TO.N,/Sheet624B5D4E/in+*%
X147500000Y-81900000D02*
X148900000Y-83300000D01*
X147300000Y-81900000D02*
X147500000Y-81900000D01*
%TO.N,/sheet624D2E58/ctrl+*%
X149924511Y-95324511D02*
X148712299Y-94112299D01*
X149924511Y-101675489D02*
X149924511Y-95324511D01*
X149500000Y-102100000D02*
X149924511Y-101675489D01*
D23*
%TO.N,/sheet6256EE2A/out+*%
X143312452Y-85212452D02*
X143312452Y-80762452D01*
X143312452Y-80762452D02*
X138875000Y-76325000D01*
D22*
%TO.N,/sheet6256EE2A/ctrl+*%
X143400000Y-92700000D02*
X142800000Y-93300000D01*
X143400000Y-88900000D02*
X143400000Y-92700000D01*
X142800000Y-103400000D02*
X142800000Y-93300000D01*
D23*
%TO.N,/V-*%
X126624598Y-98100000D02*
X130447018Y-101922420D01*
X149200000Y-97500000D02*
X149200000Y-98100000D01*
X122700000Y-82000000D02*
X121300000Y-83400000D01*
X149200000Y-98100000D02*
X148155378Y-99144622D01*
X121300000Y-87000000D02*
X126400000Y-92100000D01*
X126400000Y-92100000D02*
X126400000Y-98100000D01*
X126400000Y-98100000D02*
X126624598Y-98100000D01*
X121300000Y-83400000D02*
X121300000Y-87000000D01*
X124000000Y-82000000D02*
X122700000Y-82000000D01*
D22*
%TO.N,/V+*%
X118000000Y-84690000D02*
X124000000Y-90690000D01*
X124000000Y-90690000D02*
X124000000Y-93460000D01*
X124000000Y-93460000D02*
X125174511Y-94634511D01*
D23*
X146300000Y-95300000D02*
X144500000Y-95300000D01*
D22*
X125174511Y-94634511D02*
X125174511Y-97674511D01*
X125174511Y-97674511D02*
X130500000Y-103000000D01*
D23*
%TO.N,/Sheet6275CBF8/in+*%
X154800000Y-99100000D02*
X151100489Y-102799511D01*
X148841767Y-102799511D02*
X148440261Y-102398005D01*
X148841767Y-102799511D02*
X151100489Y-102799511D01*
D22*
%TO.N,Net-(U4-Pad5)*%
X212400000Y-95700000D02*
X216100000Y-92000000D01*
X216100000Y-92000000D02*
X223900000Y-92000000D01*
X196500000Y-95700000D02*
X212400000Y-95700000D01*
%TO.N,/MC3.3*%
X193200000Y-102300000D02*
X194200000Y-102300000D01*
X193000000Y-102100000D02*
X193200000Y-102300000D01*
X194200000Y-75700000D02*
X193000000Y-76900000D01*
X193000000Y-76900000D02*
X193000000Y-102100000D01*
%TO.N,Net-(J5-Pad1)*%
X187400000Y-80200000D02*
X191500000Y-84300000D01*
X141200000Y-85000000D02*
X141200000Y-103200000D01*
X141150008Y-84950008D02*
X141200000Y-85000000D01*
X191500000Y-104500000D02*
X190200000Y-105800000D01*
X191500000Y-84300000D02*
X191500000Y-104500000D01*
%TO.N,GNDPWR*%
X224500000Y-60000000D02*
X222700000Y-58200000D01*
X200600000Y-56700000D02*
X203060000Y-59160000D01*
X216983177Y-99624299D02*
X217624299Y-99624299D01*
X228900000Y-60000000D02*
X224500000Y-60000000D01*
X203060000Y-59160000D02*
X216900000Y-59160000D01*
X217624299Y-99624299D02*
X220200000Y-102200000D01*
%TO.N,Net-(J12-Pad4)*%
X217200000Y-100600000D02*
X217200000Y-102900000D01*
%TO.N,/tx*%
X209800000Y-100100000D02*
X209800000Y-96700000D01*
X205200000Y-94500000D02*
X208100000Y-94500000D01*
X208100000Y-101800000D02*
X209800000Y-100100000D01*
X208100000Y-94500000D02*
X208200000Y-94600000D01*
%TO.N,/rx*%
X208100000Y-103100000D02*
X216680000Y-94520000D01*
X216680000Y-94520000D02*
X218420000Y-94520000D01*
%TD*%
%TA.AperFunction,Conductor*%
%TO.N,GNDD*%
G36*
X229227076Y-50528502D02*
G01*
X229273569Y-50582158D01*
X229283673Y-50652432D01*
X229254179Y-50717012D01*
X229216158Y-50746767D01*
X229146147Y-50782439D01*
X229146140Y-50782443D01*
X229143206Y-50783938D01*
X228817207Y-50995643D01*
X228515124Y-51240266D01*
X228240266Y-51515124D01*
X227995643Y-51817207D01*
X227783938Y-52143206D01*
X227782443Y-52146140D01*
X227782439Y-52146147D01*
X227712366Y-52283673D01*
X227607468Y-52489547D01*
X227468167Y-52852438D01*
X227367562Y-53227901D01*
X227306754Y-53611824D01*
X227286411Y-54000000D01*
X227306754Y-54388176D01*
X227367562Y-54772099D01*
X227468167Y-55147562D01*
X227607468Y-55510453D01*
X227608966Y-55513393D01*
X227720468Y-55732227D01*
X227783938Y-55856794D01*
X227995643Y-56182793D01*
X228240266Y-56484876D01*
X228515124Y-56759734D01*
X228817207Y-57004357D01*
X228819970Y-57006152D01*
X228819971Y-57006152D01*
X228911007Y-57065271D01*
X229143205Y-57216062D01*
X229146139Y-57217557D01*
X229146146Y-57217561D01*
X229462726Y-57378866D01*
X229489547Y-57392532D01*
X229710547Y-57477366D01*
X229837360Y-57526045D01*
X229852438Y-57531833D01*
X230227901Y-57632438D01*
X230421214Y-57663056D01*
X230608576Y-57692732D01*
X230608584Y-57692733D01*
X230611824Y-57693246D01*
X231000000Y-57713589D01*
X231388176Y-57693246D01*
X231391416Y-57692733D01*
X231391424Y-57692732D01*
X231578786Y-57663056D01*
X231772099Y-57632438D01*
X232147562Y-57531833D01*
X232162641Y-57526045D01*
X232289453Y-57477366D01*
X232510453Y-57392532D01*
X232537274Y-57378866D01*
X232853854Y-57217561D01*
X232853861Y-57217557D01*
X232856795Y-57216062D01*
X233088994Y-57065271D01*
X233180029Y-57006152D01*
X233180030Y-57006152D01*
X233182793Y-57004357D01*
X233484876Y-56759734D01*
X233759734Y-56484876D01*
X234004357Y-56182793D01*
X234216062Y-55856794D01*
X234253233Y-55783842D01*
X234301981Y-55732227D01*
X234370896Y-55715161D01*
X234438098Y-55738062D01*
X234482250Y-55793659D01*
X234491500Y-55841045D01*
X234491500Y-114158955D01*
X234471498Y-114227076D01*
X234417842Y-114273569D01*
X234347568Y-114283673D01*
X234282988Y-114254179D01*
X234253233Y-114216158D01*
X234217561Y-114146147D01*
X234217557Y-114146140D01*
X234216062Y-114143206D01*
X234004357Y-113817207D01*
X233759734Y-113515124D01*
X233484876Y-113240266D01*
X233182793Y-112995643D01*
X232856795Y-112783938D01*
X232853861Y-112782443D01*
X232853854Y-112782439D01*
X232513393Y-112608966D01*
X232510453Y-112607468D01*
X232147562Y-112468167D01*
X231772099Y-112367562D01*
X231568207Y-112335268D01*
X231391424Y-112307268D01*
X231391416Y-112307267D01*
X231388176Y-112306754D01*
X231000000Y-112286411D01*
X230611824Y-112306754D01*
X230608584Y-112307267D01*
X230608576Y-112307268D01*
X230431793Y-112335268D01*
X230227901Y-112367562D01*
X229852438Y-112468167D01*
X229489547Y-112607468D01*
X229486607Y-112608966D01*
X229146147Y-112782439D01*
X229146140Y-112782443D01*
X229143206Y-112783938D01*
X228817207Y-112995643D01*
X228515124Y-113240266D01*
X228240266Y-113515124D01*
X227995643Y-113817207D01*
X227783938Y-114143206D01*
X227782443Y-114146140D01*
X227782439Y-114146147D01*
X227712366Y-114283673D01*
X227607468Y-114489547D01*
X227468167Y-114852438D01*
X227367562Y-115227901D01*
X227306754Y-115611824D01*
X227286411Y-116000000D01*
X227306754Y-116388176D01*
X227367562Y-116772099D01*
X227468167Y-117147562D01*
X227607468Y-117510453D01*
X227608966Y-117513393D01*
X227720468Y-117732227D01*
X227783938Y-117856794D01*
X227995643Y-118182793D01*
X228240266Y-118484876D01*
X228515124Y-118759734D01*
X228817207Y-119004357D01*
X229143205Y-119216062D01*
X229146139Y-119217557D01*
X229146146Y-119217561D01*
X229216157Y-119253233D01*
X229267772Y-119301981D01*
X229284838Y-119370896D01*
X229261937Y-119438098D01*
X229206340Y-119482250D01*
X229158954Y-119491500D01*
X192605538Y-119491500D01*
X192537417Y-119471498D01*
X192490924Y-119417842D01*
X192479538Y-119365444D01*
X192480867Y-116384886D01*
X192486931Y-102788154D01*
X192506963Y-102720044D01*
X192560640Y-102673575D01*
X192630918Y-102663503D01*
X192695486Y-102693024D01*
X192705853Y-102703635D01*
X192708000Y-102707018D01*
X192713777Y-102712443D01*
X192713778Y-102712444D01*
X192757667Y-102753658D01*
X192760509Y-102756413D01*
X192780231Y-102776135D01*
X192783373Y-102778572D01*
X192783433Y-102778619D01*
X192792445Y-102786317D01*
X192818036Y-102810347D01*
X192824679Y-102816586D01*
X192831622Y-102820403D01*
X192842431Y-102826345D01*
X192858953Y-102837198D01*
X192874959Y-102849614D01*
X192882237Y-102852764D01*
X192882238Y-102852764D01*
X192915537Y-102867174D01*
X192926187Y-102872391D01*
X192964940Y-102893695D01*
X192972615Y-102895666D01*
X192972616Y-102895666D01*
X192984562Y-102898733D01*
X193003267Y-102905137D01*
X193021855Y-102913181D01*
X193029678Y-102914420D01*
X193029688Y-102914423D01*
X193065524Y-102920099D01*
X193077144Y-102922505D01*
X193112289Y-102931528D01*
X193119970Y-102933500D01*
X193140224Y-102933500D01*
X193159934Y-102935051D01*
X193179943Y-102938220D01*
X193187835Y-102937474D01*
X193223961Y-102934059D01*
X193235819Y-102933500D01*
X193491800Y-102933500D01*
X193559921Y-102953502D01*
X193579147Y-102969843D01*
X193579420Y-102969540D01*
X193584332Y-102973963D01*
X193588747Y-102978866D01*
X193743248Y-103091118D01*
X193749276Y-103093802D01*
X193749278Y-103093803D01*
X193818690Y-103124707D01*
X193917712Y-103168794D01*
X194011113Y-103188647D01*
X194098056Y-103207128D01*
X194098061Y-103207128D01*
X194104513Y-103208500D01*
X194295487Y-103208500D01*
X194301939Y-103207128D01*
X194301944Y-103207128D01*
X194388887Y-103188647D01*
X194482288Y-103168794D01*
X194581310Y-103124707D01*
X194650722Y-103093803D01*
X194650724Y-103093802D01*
X194656752Y-103091118D01*
X194811253Y-102978866D01*
X194847851Y-102938220D01*
X194934621Y-102841852D01*
X194934622Y-102841851D01*
X194939040Y-102836944D01*
X195018974Y-102698495D01*
X195031223Y-102677279D01*
X195031224Y-102677278D01*
X195034527Y-102671556D01*
X195093542Y-102489928D01*
X195099873Y-102429697D01*
X195112814Y-102306565D01*
X195113504Y-102300000D01*
X195106027Y-102228861D01*
X195094232Y-102116635D01*
X195094232Y-102116633D01*
X195093542Y-102110072D01*
X195034527Y-101928444D01*
X194939040Y-101763056D01*
X194811253Y-101621134D01*
X194680375Y-101526045D01*
X194662094Y-101512763D01*
X194662093Y-101512762D01*
X194656752Y-101508882D01*
X194650724Y-101506198D01*
X194650722Y-101506197D01*
X194488319Y-101433891D01*
X194488318Y-101433891D01*
X194482288Y-101431206D01*
X194388887Y-101411353D01*
X194301944Y-101392872D01*
X194301939Y-101392872D01*
X194295487Y-101391500D01*
X194104513Y-101391500D01*
X194098061Y-101392872D01*
X194098056Y-101392872D01*
X194011112Y-101411353D01*
X193917712Y-101431206D01*
X193810748Y-101478829D01*
X193740382Y-101488263D01*
X193676085Y-101458157D01*
X193638271Y-101398068D01*
X193633500Y-101363722D01*
X193633500Y-95700000D01*
X195586496Y-95700000D01*
X195587186Y-95706565D01*
X195594747Y-95778500D01*
X195606458Y-95889928D01*
X195665473Y-96071556D01*
X195760960Y-96236944D01*
X195765378Y-96241851D01*
X195765379Y-96241852D01*
X195847452Y-96333003D01*
X195888747Y-96378866D01*
X196043248Y-96491118D01*
X196049276Y-96493802D01*
X196049278Y-96493803D01*
X196100560Y-96516635D01*
X196217712Y-96568794D01*
X196311112Y-96588647D01*
X196398056Y-96607128D01*
X196398061Y-96607128D01*
X196404513Y-96608500D01*
X196595487Y-96608500D01*
X196601939Y-96607128D01*
X196601944Y-96607128D01*
X196688888Y-96588647D01*
X196782288Y-96568794D01*
X196899440Y-96516635D01*
X196950722Y-96493803D01*
X196950724Y-96493802D01*
X196956752Y-96491118D01*
X197111253Y-96378866D01*
X197115668Y-96373963D01*
X197120580Y-96369540D01*
X197121705Y-96370789D01*
X197175014Y-96337949D01*
X197208200Y-96333500D01*
X208790406Y-96333500D01*
X208858527Y-96353502D01*
X208905020Y-96407158D01*
X208915124Y-96477432D01*
X208910238Y-96498438D01*
X208908498Y-96503792D01*
X208908497Y-96503797D01*
X208906458Y-96510072D01*
X208886496Y-96700000D01*
X208906458Y-96889928D01*
X208965473Y-97071556D01*
X209060960Y-97236944D01*
X209134137Y-97318215D01*
X209164853Y-97382221D01*
X209166500Y-97402524D01*
X209166500Y-99785406D01*
X209146498Y-99853527D01*
X209129595Y-99874501D01*
X208149500Y-100854595D01*
X208087188Y-100888621D01*
X208060405Y-100891500D01*
X208004513Y-100891500D01*
X207998061Y-100892872D01*
X207998056Y-100892872D01*
X207911113Y-100911353D01*
X207817712Y-100931206D01*
X207811682Y-100933891D01*
X207811681Y-100933891D01*
X207649278Y-101006197D01*
X207649276Y-101006198D01*
X207643248Y-101008882D01*
X207488747Y-101121134D01*
X207360960Y-101263056D01*
X207320063Y-101333891D01*
X207286011Y-101392872D01*
X207265473Y-101428444D01*
X207206458Y-101610072D01*
X207186496Y-101800000D01*
X207206458Y-101989928D01*
X207265473Y-102171556D01*
X207360960Y-102336944D01*
X207365378Y-102341851D01*
X207365379Y-102341852D01*
X207386843Y-102365690D01*
X207417561Y-102429697D01*
X207408796Y-102500151D01*
X207386843Y-102534310D01*
X207360960Y-102563056D01*
X207302967Y-102663503D01*
X207274711Y-102712444D01*
X207265473Y-102728444D01*
X207206458Y-102910072D01*
X207205769Y-102916631D01*
X207205768Y-102916634D01*
X207191879Y-103048782D01*
X207186496Y-103100000D01*
X207187186Y-103106565D01*
X207205129Y-103277279D01*
X207206458Y-103289928D01*
X207265473Y-103471556D01*
X207360960Y-103636944D01*
X207365378Y-103641851D01*
X207365379Y-103641852D01*
X207479678Y-103768794D01*
X207488747Y-103778866D01*
X207643248Y-103891118D01*
X207649276Y-103893802D01*
X207649278Y-103893803D01*
X207811681Y-103966109D01*
X207817712Y-103968794D01*
X207911113Y-103988647D01*
X207998056Y-104007128D01*
X207998061Y-104007128D01*
X208004513Y-104008500D01*
X208195487Y-104008500D01*
X208201939Y-104007128D01*
X208201944Y-104007128D01*
X208288888Y-103988647D01*
X208382288Y-103968794D01*
X208388319Y-103966109D01*
X208550722Y-103893803D01*
X208550724Y-103893802D01*
X208556752Y-103891118D01*
X208711253Y-103778866D01*
X208720322Y-103768794D01*
X208834621Y-103641852D01*
X208834622Y-103641851D01*
X208839040Y-103636944D01*
X208934527Y-103471556D01*
X208993542Y-103289928D01*
X208994872Y-103277279D01*
X209006129Y-103170166D01*
X209010907Y-103124706D01*
X209037920Y-103059050D01*
X209047122Y-103048782D01*
X212471605Y-99624299D01*
X216069673Y-99624299D01*
X216070363Y-99630864D01*
X216076529Y-99689526D01*
X216089635Y-99814227D01*
X216148650Y-99995855D01*
X216244137Y-100161243D01*
X216248555Y-100166150D01*
X216248556Y-100166151D01*
X216300666Y-100224025D01*
X216331384Y-100288032D01*
X216326863Y-100347271D01*
X216306458Y-100410072D01*
X216286496Y-100600000D01*
X216306458Y-100789928D01*
X216365473Y-100971556D01*
X216460960Y-101136944D01*
X216534137Y-101218215D01*
X216564853Y-101282221D01*
X216566500Y-101302524D01*
X216566500Y-102197476D01*
X216546498Y-102265597D01*
X216534142Y-102281779D01*
X216460960Y-102363056D01*
X216441821Y-102396206D01*
X216374565Y-102512697D01*
X216365473Y-102528444D01*
X216306458Y-102710072D01*
X216305768Y-102716633D01*
X216305768Y-102716635D01*
X216292302Y-102844755D01*
X216286496Y-102900000D01*
X216287186Y-102906565D01*
X216303955Y-103066109D01*
X216306458Y-103089928D01*
X216365473Y-103271556D01*
X216460960Y-103436944D01*
X216588747Y-103578866D01*
X216743248Y-103691118D01*
X216749276Y-103693802D01*
X216749278Y-103693803D01*
X216911681Y-103766109D01*
X216917712Y-103768794D01*
X216983365Y-103782749D01*
X217098056Y-103807128D01*
X217098061Y-103807128D01*
X217104513Y-103808500D01*
X217295487Y-103808500D01*
X217301939Y-103807128D01*
X217301944Y-103807128D01*
X217416635Y-103782749D01*
X217482288Y-103768794D01*
X217488319Y-103766109D01*
X217650722Y-103693803D01*
X217650724Y-103693802D01*
X217656752Y-103691118D01*
X217811253Y-103578866D01*
X217939040Y-103436944D01*
X218034527Y-103271556D01*
X218093542Y-103089928D01*
X218096046Y-103066109D01*
X218112814Y-102906565D01*
X218113504Y-102900000D01*
X218107698Y-102844755D01*
X218094232Y-102716635D01*
X218094232Y-102716633D01*
X218093542Y-102710072D01*
X218034527Y-102528444D01*
X218025436Y-102512697D01*
X217958179Y-102396206D01*
X217939040Y-102363056D01*
X217865863Y-102281785D01*
X217835147Y-102217779D01*
X217833500Y-102197476D01*
X217833500Y-101302524D01*
X217853502Y-101234403D01*
X217865858Y-101218221D01*
X217939040Y-101136944D01*
X217942339Y-101131231D01*
X217942342Y-101131226D01*
X217967477Y-101087690D01*
X218018860Y-101038697D01*
X218088573Y-101025261D01*
X218154484Y-101051648D01*
X218165691Y-101061595D01*
X219252878Y-102148782D01*
X219286904Y-102211094D01*
X219289092Y-102224703D01*
X219295092Y-102281787D01*
X219305369Y-102379563D01*
X219306458Y-102389928D01*
X219365473Y-102571556D01*
X219460960Y-102736944D01*
X219465378Y-102741851D01*
X219465379Y-102741852D01*
X219582921Y-102872396D01*
X219588747Y-102878866D01*
X219687843Y-102950864D01*
X219731724Y-102982745D01*
X219743248Y-102991118D01*
X219749276Y-102993802D01*
X219749278Y-102993803D01*
X219911681Y-103066109D01*
X219917712Y-103068794D01*
X220004479Y-103087237D01*
X220098056Y-103107128D01*
X220098061Y-103107128D01*
X220104513Y-103108500D01*
X220295487Y-103108500D01*
X220301939Y-103107128D01*
X220301944Y-103107128D01*
X220395521Y-103087237D01*
X220482288Y-103068794D01*
X220488319Y-103066109D01*
X220650722Y-102993803D01*
X220650724Y-102993802D01*
X220656752Y-102991118D01*
X220668277Y-102982745D01*
X220712157Y-102950864D01*
X220811253Y-102878866D01*
X220817079Y-102872396D01*
X220934621Y-102741852D01*
X220934622Y-102741851D01*
X220939040Y-102736944D01*
X221034527Y-102571556D01*
X221093542Y-102389928D01*
X221094632Y-102379563D01*
X221112814Y-102206565D01*
X221113504Y-102200000D01*
X221104040Y-102109958D01*
X221094232Y-102016635D01*
X221094232Y-102016633D01*
X221093542Y-102010072D01*
X221034527Y-101828444D01*
X220939040Y-101663056D01*
X220897243Y-101616635D01*
X220815675Y-101526045D01*
X220815674Y-101526044D01*
X220811253Y-101521134D01*
X220656752Y-101408882D01*
X220650724Y-101406198D01*
X220650722Y-101406197D01*
X220488319Y-101333891D01*
X220488318Y-101333891D01*
X220482288Y-101331206D01*
X220388888Y-101311353D01*
X220301944Y-101292872D01*
X220301939Y-101292872D01*
X220295487Y-101291500D01*
X220239595Y-101291500D01*
X220171474Y-101271498D01*
X220150500Y-101254595D01*
X218127951Y-99232046D01*
X218120411Y-99223760D01*
X218116299Y-99217281D01*
X218066647Y-99170655D01*
X218063806Y-99167901D01*
X218044069Y-99148164D01*
X218040872Y-99145684D01*
X218031850Y-99137979D01*
X218005399Y-99113140D01*
X217999620Y-99107713D01*
X217992674Y-99103894D01*
X217992671Y-99103892D01*
X217981865Y-99097951D01*
X217965346Y-99087100D01*
X217959347Y-99082447D01*
X217949340Y-99074685D01*
X217942071Y-99071540D01*
X217942067Y-99071537D01*
X217908762Y-99057125D01*
X217898112Y-99051908D01*
X217859359Y-99030604D01*
X217839736Y-99025566D01*
X217821033Y-99019162D01*
X217809719Y-99014266D01*
X217809718Y-99014266D01*
X217802444Y-99011118D01*
X217794621Y-99009879D01*
X217794611Y-99009876D01*
X217758775Y-99004200D01*
X217747155Y-99001794D01*
X217712010Y-98992771D01*
X217712009Y-98992771D01*
X217704329Y-98990799D01*
X217691376Y-98990799D01*
X217623255Y-98970797D01*
X217604027Y-98954454D01*
X217603754Y-98954758D01*
X217598852Y-98950344D01*
X217594430Y-98945433D01*
X217439929Y-98833181D01*
X217433901Y-98830497D01*
X217433899Y-98830496D01*
X217271496Y-98758190D01*
X217271495Y-98758190D01*
X217265465Y-98755505D01*
X217172065Y-98735652D01*
X217085121Y-98717171D01*
X217085116Y-98717171D01*
X217078664Y-98715799D01*
X216887690Y-98715799D01*
X216881238Y-98717171D01*
X216881233Y-98717171D01*
X216794290Y-98735652D01*
X216700889Y-98755505D01*
X216694859Y-98758190D01*
X216694858Y-98758190D01*
X216532455Y-98830496D01*
X216532453Y-98830497D01*
X216526425Y-98833181D01*
X216371924Y-98945433D01*
X216367503Y-98950343D01*
X216367502Y-98950344D01*
X216258380Y-99071537D01*
X216244137Y-99087355D01*
X216148650Y-99252743D01*
X216089635Y-99434371D01*
X216069673Y-99624299D01*
X212471605Y-99624299D01*
X216782692Y-95313212D01*
X216845004Y-95279186D01*
X216915819Y-95284251D01*
X216971750Y-95325604D01*
X217006462Y-95370843D01*
X217006469Y-95370851D01*
X217009877Y-95375292D01*
X217176036Y-95526485D01*
X217180783Y-95529463D01*
X217180786Y-95529465D01*
X217309229Y-95610036D01*
X217366344Y-95645864D01*
X217574783Y-95729656D01*
X217794767Y-95775213D01*
X217799378Y-95775479D01*
X217799379Y-95775479D01*
X217849952Y-95778395D01*
X217849956Y-95778395D01*
X217851775Y-95778500D01*
X221496999Y-95778500D01*
X221499786Y-95778251D01*
X221499792Y-95778251D01*
X221569929Y-95771991D01*
X221663762Y-95763617D01*
X221669176Y-95762136D01*
X221669181Y-95762135D01*
X221796912Y-95727191D01*
X221880451Y-95704337D01*
X221885509Y-95701925D01*
X221885513Y-95701923D01*
X222003042Y-95645864D01*
X222083218Y-95607622D01*
X222265654Y-95476529D01*
X222421992Y-95315201D01*
X222547290Y-95128738D01*
X222637588Y-94923033D01*
X222640986Y-94908882D01*
X222688722Y-94710046D01*
X222688722Y-94710045D01*
X222690032Y-94704589D01*
X222702963Y-94480310D01*
X222675975Y-94257285D01*
X222609918Y-94042565D01*
X222606941Y-94036796D01*
X222509454Y-93847919D01*
X222509454Y-93847918D01*
X222506882Y-93842936D01*
X222370123Y-93664708D01*
X222203964Y-93513515D01*
X222199217Y-93510537D01*
X222199214Y-93510535D01*
X222018405Y-93397115D01*
X222013656Y-93394136D01*
X221946250Y-93367039D01*
X221890510Y-93323075D01*
X221867384Y-93255950D01*
X221884221Y-93186979D01*
X221939005Y-93136408D01*
X221998664Y-93107952D01*
X222083218Y-93067622D01*
X222265654Y-92936529D01*
X222368067Y-92830847D01*
X222418089Y-92779229D01*
X222418091Y-92779226D01*
X222421992Y-92775201D01*
X222479766Y-92689224D01*
X222534362Y-92643839D01*
X222584348Y-92633500D01*
X223191800Y-92633500D01*
X223259921Y-92653502D01*
X223279147Y-92669843D01*
X223279420Y-92669540D01*
X223284332Y-92673963D01*
X223288747Y-92678866D01*
X223294156Y-92682796D01*
X223414935Y-92770547D01*
X223443248Y-92791118D01*
X223449276Y-92793802D01*
X223449278Y-92793803D01*
X223550930Y-92839061D01*
X223617712Y-92868794D01*
X223711112Y-92888647D01*
X223798056Y-92907128D01*
X223798061Y-92907128D01*
X223804513Y-92908500D01*
X223995487Y-92908500D01*
X224001939Y-92907128D01*
X224001944Y-92907128D01*
X224088887Y-92888647D01*
X224182288Y-92868794D01*
X224249070Y-92839061D01*
X224350722Y-92793803D01*
X224350724Y-92793802D01*
X224356752Y-92791118D01*
X224385066Y-92770547D01*
X224496996Y-92689224D01*
X224511253Y-92678866D01*
X224535370Y-92652081D01*
X224634621Y-92541852D01*
X224634622Y-92541851D01*
X224639040Y-92536944D01*
X224734527Y-92371556D01*
X224793542Y-92189928D01*
X224813504Y-92000000D01*
X224793542Y-91810072D01*
X224734527Y-91628444D01*
X224639040Y-91463056D01*
X224622881Y-91445109D01*
X224515675Y-91326045D01*
X224515674Y-91326044D01*
X224511253Y-91321134D01*
X224356752Y-91208882D01*
X224350724Y-91206198D01*
X224350722Y-91206197D01*
X224188319Y-91133891D01*
X224188318Y-91133891D01*
X224182288Y-91131206D01*
X224088888Y-91111353D01*
X224001944Y-91092872D01*
X224001939Y-91092872D01*
X223995487Y-91091500D01*
X223804513Y-91091500D01*
X223798061Y-91092872D01*
X223798056Y-91092872D01*
X223711112Y-91111353D01*
X223617712Y-91131206D01*
X223611682Y-91133891D01*
X223611681Y-91133891D01*
X223449278Y-91206197D01*
X223449276Y-91206198D01*
X223443248Y-91208882D01*
X223288747Y-91321134D01*
X223284332Y-91326037D01*
X223279420Y-91330460D01*
X223278295Y-91329211D01*
X223224986Y-91362051D01*
X223191800Y-91366500D01*
X222615900Y-91366500D01*
X222547779Y-91346498D01*
X222509516Y-91308016D01*
X222509452Y-91307915D01*
X222506882Y-91302936D01*
X222370123Y-91124708D01*
X222203964Y-90973515D01*
X222199217Y-90970537D01*
X222199214Y-90970535D01*
X222018405Y-90857115D01*
X222013656Y-90854136D01*
X221946250Y-90827039D01*
X221890510Y-90783075D01*
X221867384Y-90715950D01*
X221884221Y-90646979D01*
X221939005Y-90596408D01*
X221998664Y-90567952D01*
X222083218Y-90527622D01*
X222265654Y-90396529D01*
X222421992Y-90235201D01*
X222547290Y-90048738D01*
X222637588Y-89843033D01*
X222690032Y-89624589D01*
X222702963Y-89400310D01*
X222675975Y-89177285D01*
X222609918Y-88962565D01*
X222544798Y-88836396D01*
X222509454Y-88767919D01*
X222509454Y-88767918D01*
X222506882Y-88762936D01*
X222370123Y-88584708D01*
X222203964Y-88433515D01*
X222199217Y-88430537D01*
X222199214Y-88430535D01*
X222018405Y-88317115D01*
X222013656Y-88314136D01*
X221946250Y-88287039D01*
X221890510Y-88243075D01*
X221867384Y-88175950D01*
X221884221Y-88106979D01*
X221939005Y-88056408D01*
X221998664Y-88027952D01*
X222083218Y-87987622D01*
X222265654Y-87856529D01*
X222421992Y-87695201D01*
X222547290Y-87508738D01*
X222637588Y-87303033D01*
X222690032Y-87084589D01*
X222702963Y-86860310D01*
X222675975Y-86637285D01*
X222609918Y-86422565D01*
X222544798Y-86296396D01*
X222509454Y-86227919D01*
X222509454Y-86227918D01*
X222506882Y-86222936D01*
X222370123Y-86044708D01*
X222203964Y-85893515D01*
X222199217Y-85890537D01*
X222199214Y-85890535D01*
X222018405Y-85777115D01*
X222013656Y-85774136D01*
X221946250Y-85747039D01*
X221890510Y-85703075D01*
X221867384Y-85635950D01*
X221884221Y-85566979D01*
X221939005Y-85516408D01*
X221998664Y-85487952D01*
X222083218Y-85447622D01*
X222265654Y-85316529D01*
X222421992Y-85155201D01*
X222547290Y-84968738D01*
X222637588Y-84763033D01*
X222690032Y-84544589D01*
X222702963Y-84320310D01*
X222675975Y-84097285D01*
X222609918Y-83882565D01*
X222544798Y-83756396D01*
X222509454Y-83687919D01*
X222509454Y-83687918D01*
X222506882Y-83682936D01*
X222370123Y-83504708D01*
X222203964Y-83353515D01*
X222199217Y-83350537D01*
X222199214Y-83350535D01*
X222018405Y-83237115D01*
X222013656Y-83234136D01*
X221945622Y-83206786D01*
X221889880Y-83162822D01*
X221866755Y-83095697D01*
X221883592Y-83026726D01*
X221938376Y-82976155D01*
X222077903Y-82909603D01*
X222087516Y-82903918D01*
X222260767Y-82779425D01*
X222269233Y-82772117D01*
X222417692Y-82618918D01*
X222424735Y-82610221D01*
X222543719Y-82433156D01*
X222549105Y-82423358D01*
X222634857Y-82228010D01*
X222638422Y-82217418D01*
X222668624Y-82091616D01*
X222667919Y-82077530D01*
X222659040Y-82074000D01*
X216721589Y-82074000D01*
X216707607Y-82078105D01*
X216706114Y-82087728D01*
X216706166Y-82087973D01*
X216768898Y-82291883D01*
X216773119Y-82302229D01*
X216870971Y-82491814D01*
X216876957Y-82501245D01*
X217006832Y-82670501D01*
X217014393Y-82678724D01*
X217172194Y-82822312D01*
X217181094Y-82829067D01*
X217361815Y-82942434D01*
X217371781Y-82947511D01*
X217434358Y-82972667D01*
X217490103Y-83016633D01*
X217513228Y-83083758D01*
X217496391Y-83152729D01*
X217441607Y-83203300D01*
X217296782Y-83272378D01*
X217114346Y-83403471D01*
X216958008Y-83564799D01*
X216832710Y-83751262D01*
X216742412Y-83956967D01*
X216689968Y-84175411D01*
X216677037Y-84399690D01*
X216704025Y-84622715D01*
X216770082Y-84837435D01*
X216772652Y-84842415D01*
X216772654Y-84842419D01*
X216837852Y-84968738D01*
X216873118Y-85037064D01*
X217009877Y-85215292D01*
X217176036Y-85366485D01*
X217180783Y-85369463D01*
X217180786Y-85369465D01*
X217361595Y-85482885D01*
X217366344Y-85485864D01*
X217433750Y-85512961D01*
X217489490Y-85556925D01*
X217512616Y-85624050D01*
X217495779Y-85693021D01*
X217440995Y-85743592D01*
X217296782Y-85812378D01*
X217114346Y-85943471D01*
X216958008Y-86104799D01*
X216832710Y-86291262D01*
X216742412Y-86496967D01*
X216689968Y-86715411D01*
X216677037Y-86939690D01*
X216704025Y-87162715D01*
X216770082Y-87377435D01*
X216772652Y-87382415D01*
X216772654Y-87382419D01*
X216837852Y-87508738D01*
X216873118Y-87577064D01*
X217009877Y-87755292D01*
X217176036Y-87906485D01*
X217180783Y-87909463D01*
X217180786Y-87909465D01*
X217361595Y-88022885D01*
X217366344Y-88025864D01*
X217433750Y-88052961D01*
X217489490Y-88096925D01*
X217512616Y-88164050D01*
X217495779Y-88233021D01*
X217440995Y-88283592D01*
X217296782Y-88352378D01*
X217114346Y-88483471D01*
X216958008Y-88644799D01*
X216832710Y-88831262D01*
X216742412Y-89036967D01*
X216689968Y-89255411D01*
X216677037Y-89479690D01*
X216704025Y-89702715D01*
X216770082Y-89917435D01*
X216772652Y-89922415D01*
X216772654Y-89922419D01*
X216837852Y-90048738D01*
X216873118Y-90117064D01*
X217009877Y-90295292D01*
X217176036Y-90446485D01*
X217180783Y-90449463D01*
X217180786Y-90449465D01*
X217361595Y-90562885D01*
X217366344Y-90565864D01*
X217433750Y-90592961D01*
X217489490Y-90636925D01*
X217512616Y-90704050D01*
X217495779Y-90773021D01*
X217440995Y-90823592D01*
X217296782Y-90892378D01*
X217114346Y-91023471D01*
X216958008Y-91184799D01*
X216954881Y-91189453D01*
X216873355Y-91310776D01*
X216818759Y-91356161D01*
X216768773Y-91366500D01*
X216178767Y-91366500D01*
X216167584Y-91365973D01*
X216160091Y-91364298D01*
X216152165Y-91364547D01*
X216152164Y-91364547D01*
X216092014Y-91366438D01*
X216088055Y-91366500D01*
X216060144Y-91366500D01*
X216056210Y-91366997D01*
X216056209Y-91366997D01*
X216056144Y-91367005D01*
X216044307Y-91367938D01*
X216012490Y-91368938D01*
X216008029Y-91369078D01*
X216000110Y-91369327D01*
X215982454Y-91374456D01*
X215980658Y-91374978D01*
X215961306Y-91378986D01*
X215954235Y-91379880D01*
X215941203Y-91381526D01*
X215933834Y-91384443D01*
X215933832Y-91384444D01*
X215900097Y-91397800D01*
X215888869Y-91401645D01*
X215846407Y-91413982D01*
X215839585Y-91418016D01*
X215839579Y-91418019D01*
X215828968Y-91424294D01*
X215811218Y-91432990D01*
X215799756Y-91437528D01*
X215799751Y-91437531D01*
X215792383Y-91440448D01*
X215785968Y-91445109D01*
X215756625Y-91466427D01*
X215746707Y-91472943D01*
X215728019Y-91483995D01*
X215708637Y-91495458D01*
X215694313Y-91509782D01*
X215679281Y-91522621D01*
X215662893Y-91534528D01*
X215634712Y-91568593D01*
X215626722Y-91577373D01*
X212174500Y-95029595D01*
X212112188Y-95063621D01*
X212085405Y-95066500D01*
X209177102Y-95066500D01*
X209108981Y-95046498D01*
X209062488Y-94992842D01*
X209052384Y-94922568D01*
X209057269Y-94901564D01*
X209091502Y-94796206D01*
X209093542Y-94789928D01*
X209102512Y-94704589D01*
X209112814Y-94606565D01*
X209113504Y-94600000D01*
X209093542Y-94410072D01*
X209034527Y-94228444D01*
X208939040Y-94063056D01*
X208931362Y-94054528D01*
X208815675Y-93926045D01*
X208815674Y-93926044D01*
X208811253Y-93921134D01*
X208697501Y-93838488D01*
X208662094Y-93812763D01*
X208662093Y-93812762D01*
X208656752Y-93808882D01*
X208650724Y-93806198D01*
X208650722Y-93806197D01*
X208488319Y-93733891D01*
X208488318Y-93733891D01*
X208482288Y-93731206D01*
X208388888Y-93711353D01*
X208301944Y-93692872D01*
X208301939Y-93692872D01*
X208295487Y-93691500D01*
X208104513Y-93691500D01*
X208098061Y-93692872D01*
X208098056Y-93692872D01*
X208011112Y-93711353D01*
X207917712Y-93731206D01*
X207911682Y-93733891D01*
X207911681Y-93733891D01*
X207749278Y-93806197D01*
X207749276Y-93806198D01*
X207743248Y-93808882D01*
X207737907Y-93812762D01*
X207737906Y-93812763D01*
X207697065Y-93842436D01*
X207630197Y-93866294D01*
X207623004Y-93866500D01*
X205908200Y-93866500D01*
X205840079Y-93846498D01*
X205820853Y-93830157D01*
X205820580Y-93830460D01*
X205815668Y-93826037D01*
X205811253Y-93821134D01*
X205685079Y-93729463D01*
X205662094Y-93712763D01*
X205662093Y-93712762D01*
X205656752Y-93708882D01*
X205650724Y-93706198D01*
X205650722Y-93706197D01*
X205488319Y-93633891D01*
X205488318Y-93633891D01*
X205482288Y-93631206D01*
X205388887Y-93611353D01*
X205301944Y-93592872D01*
X205301939Y-93592872D01*
X205295487Y-93591500D01*
X205104513Y-93591500D01*
X205098061Y-93592872D01*
X205098056Y-93592872D01*
X205011113Y-93611353D01*
X204917712Y-93631206D01*
X204911685Y-93633889D01*
X204911677Y-93633892D01*
X204745122Y-93708047D01*
X204674756Y-93717481D01*
X204610459Y-93687374D01*
X204593916Y-93669650D01*
X204593538Y-93669158D01*
X204593536Y-93669155D01*
X204590123Y-93664708D01*
X204423964Y-93513515D01*
X204419217Y-93510537D01*
X204419214Y-93510535D01*
X204238405Y-93397115D01*
X204233656Y-93394136D01*
X204166250Y-93367039D01*
X204110510Y-93323075D01*
X204087384Y-93255950D01*
X204104221Y-93186979D01*
X204159005Y-93136408D01*
X204218664Y-93107952D01*
X204303218Y-93067622D01*
X204485654Y-92936529D01*
X204588067Y-92830847D01*
X204638089Y-92779229D01*
X204638091Y-92779226D01*
X204641992Y-92775201D01*
X204767290Y-92588738D01*
X204857588Y-92383033D01*
X204858970Y-92377279D01*
X204908722Y-92170046D01*
X204908722Y-92170045D01*
X204910032Y-92164589D01*
X204922963Y-91940310D01*
X204895975Y-91717285D01*
X204829918Y-91502565D01*
X204824169Y-91491425D01*
X204729454Y-91307919D01*
X204729454Y-91307918D01*
X204726882Y-91302936D01*
X204590123Y-91124708D01*
X204423964Y-90973515D01*
X204419217Y-90970537D01*
X204419214Y-90970535D01*
X204238405Y-90857115D01*
X204233656Y-90854136D01*
X204166250Y-90827039D01*
X204110510Y-90783075D01*
X204087384Y-90715950D01*
X204104221Y-90646979D01*
X204159005Y-90596408D01*
X204218664Y-90567952D01*
X204303218Y-90527622D01*
X204485654Y-90396529D01*
X204641992Y-90235201D01*
X204767290Y-90048738D01*
X204857588Y-89843033D01*
X204910032Y-89624589D01*
X204922963Y-89400310D01*
X204895975Y-89177285D01*
X204829918Y-88962565D01*
X204764798Y-88836396D01*
X204729454Y-88767919D01*
X204729454Y-88767918D01*
X204726882Y-88762936D01*
X204590123Y-88584708D01*
X204423964Y-88433515D01*
X204419217Y-88430537D01*
X204419214Y-88430535D01*
X204238405Y-88317115D01*
X204233656Y-88314136D01*
X204166250Y-88287039D01*
X204110510Y-88243075D01*
X204087384Y-88175950D01*
X204104221Y-88106979D01*
X204159005Y-88056408D01*
X204218664Y-88027952D01*
X204303218Y-87987622D01*
X204485654Y-87856529D01*
X204641992Y-87695201D01*
X204767290Y-87508738D01*
X204857588Y-87303033D01*
X204910032Y-87084589D01*
X204922963Y-86860310D01*
X204895975Y-86637285D01*
X204829918Y-86422565D01*
X204764798Y-86296396D01*
X204729454Y-86227919D01*
X204729454Y-86227918D01*
X204726882Y-86222936D01*
X204590123Y-86044708D01*
X204423964Y-85893515D01*
X204419217Y-85890537D01*
X204419214Y-85890535D01*
X204238405Y-85777115D01*
X204233656Y-85774136D01*
X204166250Y-85747039D01*
X204110510Y-85703075D01*
X204087384Y-85635950D01*
X204104221Y-85566979D01*
X204159005Y-85516408D01*
X204218664Y-85487952D01*
X204303218Y-85447622D01*
X204485654Y-85316529D01*
X204641992Y-85155201D01*
X204767290Y-84968738D01*
X204857588Y-84763033D01*
X204910032Y-84544589D01*
X204922963Y-84320310D01*
X204895975Y-84097285D01*
X204829918Y-83882565D01*
X204764798Y-83756396D01*
X204729454Y-83687919D01*
X204729454Y-83687918D01*
X204726882Y-83682936D01*
X204590123Y-83504708D01*
X204423964Y-83353515D01*
X204419217Y-83350537D01*
X204419214Y-83350535D01*
X204238405Y-83237115D01*
X204233656Y-83234136D01*
X204166250Y-83207039D01*
X204110510Y-83163075D01*
X204087384Y-83095950D01*
X204104221Y-83026979D01*
X204159005Y-82976408D01*
X204303218Y-82907622D01*
X204485654Y-82776529D01*
X204588067Y-82670847D01*
X204638089Y-82619229D01*
X204638091Y-82619226D01*
X204641992Y-82615201D01*
X204767290Y-82428738D01*
X204857588Y-82223033D01*
X204892521Y-82077530D01*
X204908722Y-82010046D01*
X204908722Y-82010045D01*
X204910032Y-82004589D01*
X204922963Y-81780310D01*
X204895975Y-81557285D01*
X204829918Y-81342565D01*
X204764925Y-81216642D01*
X204729454Y-81147919D01*
X204729454Y-81147918D01*
X204726882Y-81142936D01*
X204590123Y-80964708D01*
X204423964Y-80813515D01*
X204419217Y-80810537D01*
X204419214Y-80810535D01*
X204238405Y-80697115D01*
X204233656Y-80694136D01*
X204166250Y-80667039D01*
X204110510Y-80623075D01*
X204087384Y-80555950D01*
X204104221Y-80486979D01*
X204159005Y-80436408D01*
X204218664Y-80407952D01*
X204303218Y-80367622D01*
X204485654Y-80236529D01*
X204641992Y-80075201D01*
X204767290Y-79888738D01*
X204857588Y-79683033D01*
X204910032Y-79464589D01*
X204918386Y-79319690D01*
X216677037Y-79319690D01*
X216704025Y-79542715D01*
X216770082Y-79757435D01*
X216772652Y-79762415D01*
X216772654Y-79762419D01*
X216837852Y-79888738D01*
X216873118Y-79957064D01*
X217009877Y-80135292D01*
X217176036Y-80286485D01*
X217180783Y-80289463D01*
X217180786Y-80289465D01*
X217361595Y-80402885D01*
X217366344Y-80405864D01*
X217434378Y-80433214D01*
X217490120Y-80477178D01*
X217513245Y-80544303D01*
X217496408Y-80613274D01*
X217441624Y-80663845D01*
X217302097Y-80730397D01*
X217292484Y-80736082D01*
X217119233Y-80860575D01*
X217110767Y-80867883D01*
X216962308Y-81021082D01*
X216955265Y-81029779D01*
X216836281Y-81206844D01*
X216830895Y-81216642D01*
X216745143Y-81411990D01*
X216741578Y-81422582D01*
X216711376Y-81548384D01*
X216712081Y-81562470D01*
X216720960Y-81566000D01*
X222658411Y-81566000D01*
X222672393Y-81561895D01*
X222673886Y-81552272D01*
X222673834Y-81552027D01*
X222611102Y-81348117D01*
X222606881Y-81337771D01*
X222509029Y-81148186D01*
X222503043Y-81138755D01*
X222373168Y-80969499D01*
X222365607Y-80961276D01*
X222207806Y-80817688D01*
X222198906Y-80810933D01*
X222018185Y-80697566D01*
X222008219Y-80692489D01*
X221945642Y-80667333D01*
X221889897Y-80623367D01*
X221866772Y-80556242D01*
X221883609Y-80487271D01*
X221938393Y-80436700D01*
X221998664Y-80407952D01*
X222083218Y-80367622D01*
X222265654Y-80236529D01*
X222421992Y-80075201D01*
X222547290Y-79888738D01*
X222637588Y-79683033D01*
X222690032Y-79464589D01*
X222702963Y-79240310D01*
X222675975Y-79017285D01*
X222609918Y-78802565D01*
X222544798Y-78676396D01*
X222509454Y-78607919D01*
X222509454Y-78607918D01*
X222506882Y-78602936D01*
X222370123Y-78424708D01*
X222203964Y-78273515D01*
X222199217Y-78270537D01*
X222199214Y-78270535D01*
X222018405Y-78157115D01*
X222013656Y-78154136D01*
X221805217Y-78070344D01*
X221585233Y-78024787D01*
X221580622Y-78024521D01*
X221580621Y-78024521D01*
X221530048Y-78021605D01*
X221530044Y-78021605D01*
X221528225Y-78021500D01*
X217883001Y-78021500D01*
X217880214Y-78021749D01*
X217880208Y-78021749D01*
X217810071Y-78028009D01*
X217716238Y-78036383D01*
X217710824Y-78037864D01*
X217710819Y-78037865D01*
X217596262Y-78069205D01*
X217499549Y-78095663D01*
X217494491Y-78098075D01*
X217494487Y-78098077D01*
X217398165Y-78144021D01*
X217296782Y-78192378D01*
X217114346Y-78323471D01*
X216958008Y-78484799D01*
X216832710Y-78671262D01*
X216742412Y-78876967D01*
X216689968Y-79095411D01*
X216677037Y-79319690D01*
X204918386Y-79319690D01*
X204922963Y-79240310D01*
X204895975Y-79017285D01*
X204829918Y-78802565D01*
X204764798Y-78676396D01*
X204729454Y-78607919D01*
X204729454Y-78607918D01*
X204726882Y-78602936D01*
X204590123Y-78424708D01*
X204423964Y-78273515D01*
X204419217Y-78270537D01*
X204419214Y-78270535D01*
X204238405Y-78157115D01*
X204233656Y-78154136D01*
X204025217Y-78070344D01*
X203805233Y-78024787D01*
X203800622Y-78024521D01*
X203800621Y-78024521D01*
X203750048Y-78021605D01*
X203750044Y-78021605D01*
X203748225Y-78021500D01*
X200103001Y-78021500D01*
X200100214Y-78021749D01*
X200100208Y-78021749D01*
X200030071Y-78028009D01*
X199936238Y-78036383D01*
X199930824Y-78037864D01*
X199930819Y-78037865D01*
X199816262Y-78069205D01*
X199719549Y-78095663D01*
X199714491Y-78098075D01*
X199714487Y-78098077D01*
X199618165Y-78144021D01*
X199516782Y-78192378D01*
X199334346Y-78323471D01*
X199178008Y-78484799D01*
X199052710Y-78671262D01*
X198962412Y-78876967D01*
X198909968Y-79095411D01*
X198897037Y-79319690D01*
X198924025Y-79542715D01*
X198990082Y-79757435D01*
X198992652Y-79762415D01*
X198992654Y-79762419D01*
X199057852Y-79888738D01*
X199093118Y-79957064D01*
X199229877Y-80135292D01*
X199396036Y-80286485D01*
X199400783Y-80289463D01*
X199400786Y-80289465D01*
X199581595Y-80402885D01*
X199586344Y-80405864D01*
X199653750Y-80432961D01*
X199709490Y-80476925D01*
X199732616Y-80544050D01*
X199715779Y-80613021D01*
X199660995Y-80663592D01*
X199516782Y-80732378D01*
X199334346Y-80863471D01*
X199269339Y-80930553D01*
X199231598Y-80969499D01*
X199178008Y-81024799D01*
X199052710Y-81211262D01*
X198962412Y-81416967D01*
X198961103Y-81422418D01*
X198961102Y-81422422D01*
X198927387Y-81562857D01*
X198909968Y-81635411D01*
X198897037Y-81859690D01*
X198924025Y-82082715D01*
X198990082Y-82297435D01*
X198992652Y-82302415D01*
X198992654Y-82302419D01*
X199060253Y-82433390D01*
X199093118Y-82497064D01*
X199229877Y-82675292D01*
X199396036Y-82826485D01*
X199400783Y-82829463D01*
X199400786Y-82829465D01*
X199580876Y-82942434D01*
X199586344Y-82945864D01*
X199653750Y-82972961D01*
X199709490Y-83016925D01*
X199732616Y-83084050D01*
X199715779Y-83153021D01*
X199660995Y-83203592D01*
X199516782Y-83272378D01*
X199334346Y-83403471D01*
X199178008Y-83564799D01*
X199052710Y-83751262D01*
X198962412Y-83956967D01*
X198909968Y-84175411D01*
X198897037Y-84399690D01*
X198924025Y-84622715D01*
X198990082Y-84837435D01*
X198992652Y-84842415D01*
X198992654Y-84842419D01*
X199057852Y-84968738D01*
X199093118Y-85037064D01*
X199229877Y-85215292D01*
X199396036Y-85366485D01*
X199400783Y-85369463D01*
X199400786Y-85369465D01*
X199581595Y-85482885D01*
X199586344Y-85485864D01*
X199653750Y-85512961D01*
X199709490Y-85556925D01*
X199732616Y-85624050D01*
X199715779Y-85693021D01*
X199660995Y-85743592D01*
X199516782Y-85812378D01*
X199334346Y-85943471D01*
X199178008Y-86104799D01*
X199052710Y-86291262D01*
X198962412Y-86496967D01*
X198909968Y-86715411D01*
X198897037Y-86939690D01*
X198924025Y-87162715D01*
X198990082Y-87377435D01*
X198992652Y-87382415D01*
X198992654Y-87382419D01*
X199057852Y-87508738D01*
X199093118Y-87577064D01*
X199229877Y-87755292D01*
X199396036Y-87906485D01*
X199400783Y-87909463D01*
X199400786Y-87909465D01*
X199581595Y-88022885D01*
X199586344Y-88025864D01*
X199653750Y-88052961D01*
X199709490Y-88096925D01*
X199732616Y-88164050D01*
X199715779Y-88233021D01*
X199660995Y-88283592D01*
X199516782Y-88352378D01*
X199334346Y-88483471D01*
X199178008Y-88644799D01*
X199052710Y-88831262D01*
X198962412Y-89036967D01*
X198909968Y-89255411D01*
X198897037Y-89479690D01*
X198924025Y-89702715D01*
X198990082Y-89917435D01*
X198992652Y-89922415D01*
X198992654Y-89922419D01*
X199057852Y-90048738D01*
X199093118Y-90117064D01*
X199229877Y-90295292D01*
X199396036Y-90446485D01*
X199400783Y-90449463D01*
X199400786Y-90449465D01*
X199581595Y-90562885D01*
X199586344Y-90565864D01*
X199653750Y-90592961D01*
X199709490Y-90636925D01*
X199732616Y-90704050D01*
X199715779Y-90773021D01*
X199660995Y-90823592D01*
X199516782Y-90892378D01*
X199334346Y-91023471D01*
X199178008Y-91184799D01*
X199052710Y-91371262D01*
X198962412Y-91576967D01*
X198961103Y-91582418D01*
X198961102Y-91582422D01*
X198930012Y-91711923D01*
X198909968Y-91795411D01*
X198909645Y-91801016D01*
X198897794Y-92006565D01*
X198897037Y-92019690D01*
X198924025Y-92242715D01*
X198990082Y-92457435D01*
X198992652Y-92462415D01*
X198992654Y-92462419D01*
X199057852Y-92588738D01*
X199093118Y-92657064D01*
X199229877Y-92835292D01*
X199396036Y-92986485D01*
X199400783Y-92989463D01*
X199400786Y-92989465D01*
X199581595Y-93102885D01*
X199586344Y-93105864D01*
X199653750Y-93132961D01*
X199709490Y-93176925D01*
X199732616Y-93244050D01*
X199715779Y-93313021D01*
X199660995Y-93363592D01*
X199516782Y-93432378D01*
X199334346Y-93563471D01*
X199270036Y-93629834D01*
X199185100Y-93717481D01*
X199178008Y-93724799D01*
X199101612Y-93838488D01*
X199057292Y-93904444D01*
X199052710Y-93911262D01*
X198962412Y-94116967D01*
X198961103Y-94122418D01*
X198961102Y-94122422D01*
X198930012Y-94251923D01*
X198909968Y-94335411D01*
X198897037Y-94559690D01*
X198924025Y-94782715D01*
X198961169Y-94903453D01*
X198962082Y-94974441D01*
X198924469Y-95034656D01*
X198860273Y-95064977D01*
X198840739Y-95066500D01*
X197208200Y-95066500D01*
X197140079Y-95046498D01*
X197120853Y-95030157D01*
X197120580Y-95030460D01*
X197115668Y-95026037D01*
X197111253Y-95021134D01*
X196956752Y-94908882D01*
X196950724Y-94906198D01*
X196950722Y-94906197D01*
X196788319Y-94833891D01*
X196788318Y-94833891D01*
X196782288Y-94831206D01*
X196688887Y-94811353D01*
X196601944Y-94792872D01*
X196601939Y-94792872D01*
X196595487Y-94791500D01*
X196404513Y-94791500D01*
X196398061Y-94792872D01*
X196398056Y-94792872D01*
X196311113Y-94811353D01*
X196217712Y-94831206D01*
X196211682Y-94833891D01*
X196211681Y-94833891D01*
X196049278Y-94906197D01*
X196049276Y-94906198D01*
X196043248Y-94908882D01*
X195888747Y-95021134D01*
X195884326Y-95026044D01*
X195884325Y-95026045D01*
X195849271Y-95064977D01*
X195760960Y-95163056D01*
X195665473Y-95328444D01*
X195606458Y-95510072D01*
X195586496Y-95700000D01*
X193633500Y-95700000D01*
X193633500Y-77214594D01*
X193653502Y-77146473D01*
X193670405Y-77125499D01*
X194150499Y-76645405D01*
X194212811Y-76611379D01*
X194239594Y-76608500D01*
X194295487Y-76608500D01*
X194301939Y-76607128D01*
X194301944Y-76607128D01*
X194388888Y-76588647D01*
X194482288Y-76568794D01*
X194488319Y-76566109D01*
X194650722Y-76493803D01*
X194650724Y-76493802D01*
X194656752Y-76491118D01*
X194811253Y-76378866D01*
X194939040Y-76236944D01*
X195034527Y-76071556D01*
X195093542Y-75889928D01*
X195113504Y-75700000D01*
X195093542Y-75510072D01*
X195034527Y-75328444D01*
X194939040Y-75163056D01*
X194811253Y-75021134D01*
X194656752Y-74908882D01*
X194650724Y-74906198D01*
X194650722Y-74906197D01*
X194488319Y-74833891D01*
X194488318Y-74833891D01*
X194482288Y-74831206D01*
X194388888Y-74811353D01*
X194301944Y-74792872D01*
X194301939Y-74792872D01*
X194295487Y-74791500D01*
X194104513Y-74791500D01*
X194098061Y-74792872D01*
X194098056Y-74792872D01*
X194011112Y-74811353D01*
X193917712Y-74831206D01*
X193911682Y-74833891D01*
X193911681Y-74833891D01*
X193749278Y-74906197D01*
X193749276Y-74906198D01*
X193743248Y-74908882D01*
X193588747Y-75021134D01*
X193460960Y-75163056D01*
X193365473Y-75328444D01*
X193306458Y-75510072D01*
X193305768Y-75516633D01*
X193305768Y-75516635D01*
X193289093Y-75675292D01*
X193262080Y-75740949D01*
X193252878Y-75751217D01*
X192713884Y-76290211D01*
X192651572Y-76324237D01*
X192580757Y-76319172D01*
X192523921Y-76276625D01*
X192499110Y-76210105D01*
X192498789Y-76201060D01*
X192498845Y-76077279D01*
X192502472Y-67943781D01*
X192522504Y-67875669D01*
X192576181Y-67829200D01*
X192646459Y-67819128D01*
X192708364Y-67846404D01*
X192721044Y-67856801D01*
X192725680Y-67859440D01*
X192725683Y-67859442D01*
X192836908Y-67922755D01*
X192925090Y-67972951D01*
X193145789Y-68053061D01*
X193151038Y-68054010D01*
X193151041Y-68054011D01*
X193232115Y-68068671D01*
X193376830Y-68094840D01*
X193380969Y-68095035D01*
X193380976Y-68095036D01*
X193399940Y-68095930D01*
X193399949Y-68095930D01*
X193401429Y-68096000D01*
X194066450Y-68096000D01*
X194147799Y-68089097D01*
X194236137Y-68081602D01*
X194236141Y-68081601D01*
X194241448Y-68081151D01*
X194246603Y-68079813D01*
X194246609Y-68079812D01*
X194463535Y-68023509D01*
X194463534Y-68023509D01*
X194468706Y-68022167D01*
X194473572Y-68019975D01*
X194473575Y-68019974D01*
X194677917Y-67927924D01*
X194677920Y-67927923D01*
X194682778Y-67925734D01*
X194877541Y-67794612D01*
X194894096Y-67778820D01*
X195043570Y-67636228D01*
X195047427Y-67632549D01*
X195187578Y-67444179D01*
X195209054Y-67401940D01*
X195291569Y-67239644D01*
X195291569Y-67239643D01*
X195293987Y-67234888D01*
X195363611Y-67010660D01*
X195394461Y-66777907D01*
X195392084Y-66714593D01*
X215263039Y-66714593D01*
X215271848Y-66949216D01*
X215272943Y-66954434D01*
X215297794Y-67072871D01*
X215320062Y-67179001D01*
X215406302Y-67397377D01*
X215528104Y-67598100D01*
X215681985Y-67775432D01*
X215686117Y-67778820D01*
X215859416Y-67920917D01*
X215859422Y-67920921D01*
X215863544Y-67924301D01*
X215868180Y-67926940D01*
X215868183Y-67926942D01*
X215952210Y-67974773D01*
X216067590Y-68040451D01*
X216288289Y-68120561D01*
X216293538Y-68121510D01*
X216293541Y-68121511D01*
X216374615Y-68136171D01*
X216519330Y-68162340D01*
X216523469Y-68162535D01*
X216523476Y-68162536D01*
X216542440Y-68163430D01*
X216542449Y-68163430D01*
X216543929Y-68163500D01*
X217208950Y-68163500D01*
X217290299Y-68156597D01*
X217378637Y-68149102D01*
X217378641Y-68149101D01*
X217383948Y-68148651D01*
X217389103Y-68147313D01*
X217389109Y-68147312D01*
X217587075Y-68095930D01*
X217611206Y-68089667D01*
X217616072Y-68087475D01*
X217616075Y-68087474D01*
X217820417Y-67995424D01*
X217820420Y-67995423D01*
X217825278Y-67993234D01*
X217855406Y-67972951D01*
X217898733Y-67943781D01*
X218020041Y-67862112D01*
X218025609Y-67856801D01*
X218186070Y-67703728D01*
X218189927Y-67700049D01*
X218330078Y-67511679D01*
X218366815Y-67439424D01*
X218434069Y-67307144D01*
X218434069Y-67307143D01*
X218436487Y-67302388D01*
X218506111Y-67078160D01*
X218523202Y-66949216D01*
X218536261Y-66850690D01*
X218536261Y-66850687D01*
X218536961Y-66845407D01*
X218528152Y-66610784D01*
X218510358Y-66525978D01*
X218481035Y-66386226D01*
X218481034Y-66386223D01*
X218479938Y-66380999D01*
X218393698Y-66162623D01*
X218271896Y-65961900D01*
X218118015Y-65784568D01*
X218107938Y-65776306D01*
X217940584Y-65639083D01*
X217940578Y-65639079D01*
X217936456Y-65635699D01*
X217931820Y-65633060D01*
X217931817Y-65633058D01*
X217905481Y-65618067D01*
X217856175Y-65566985D01*
X217842313Y-65497354D01*
X217868296Y-65431283D01*
X217897446Y-65404045D01*
X218015302Y-65324699D01*
X218023585Y-65318040D01*
X218185686Y-65163404D01*
X218192738Y-65155434D01*
X218326468Y-64975693D01*
X218332067Y-64966663D01*
X218433604Y-64766955D01*
X218437604Y-64757104D01*
X218504039Y-64543148D01*
X218506322Y-64532764D01*
X218509080Y-64511957D01*
X218506884Y-64497793D01*
X218493697Y-64494000D01*
X215308263Y-64494000D01*
X215294732Y-64497973D01*
X215293207Y-64508580D01*
X215319445Y-64633629D01*
X215322505Y-64643826D01*
X215404789Y-64852184D01*
X215409523Y-64861721D01*
X215525742Y-65053244D01*
X215532006Y-65061834D01*
X215678835Y-65231039D01*
X215686465Y-65238459D01*
X215859700Y-65380503D01*
X215868462Y-65386524D01*
X215894498Y-65401345D01*
X215943804Y-65452428D01*
X215957665Y-65522058D01*
X215931681Y-65588129D01*
X215902532Y-65615367D01*
X215779959Y-65697888D01*
X215776102Y-65701567D01*
X215776100Y-65701569D01*
X215759853Y-65717068D01*
X215610073Y-65859951D01*
X215469922Y-66048321D01*
X215467506Y-66053072D01*
X215467504Y-66053076D01*
X215397832Y-66190112D01*
X215363513Y-66257612D01*
X215293889Y-66481840D01*
X215293188Y-66487129D01*
X215276092Y-66616116D01*
X215263039Y-66714593D01*
X195392084Y-66714593D01*
X195385652Y-66543284D01*
X195337438Y-66313499D01*
X195251198Y-66095123D01*
X195129396Y-65894400D01*
X194975515Y-65717068D01*
X194948489Y-65694908D01*
X194798084Y-65571583D01*
X194798078Y-65571579D01*
X194793956Y-65568199D01*
X194789320Y-65565560D01*
X194789317Y-65565558D01*
X194763466Y-65550843D01*
X194714159Y-65499760D01*
X194700298Y-65430130D01*
X194726281Y-65364059D01*
X194755431Y-65336821D01*
X194877541Y-65254612D01*
X195047427Y-65092549D01*
X195187578Y-64904179D01*
X195293987Y-64694888D01*
X195363611Y-64470660D01*
X195394461Y-64237907D01*
X195385652Y-64003284D01*
X195337438Y-63773499D01*
X195251198Y-63555123D01*
X195129396Y-63354400D01*
X194975515Y-63177068D01*
X194948968Y-63155301D01*
X194798084Y-63031583D01*
X194798078Y-63031579D01*
X194793956Y-63028199D01*
X194789320Y-63025560D01*
X194789317Y-63025558D01*
X194763466Y-63010843D01*
X194714159Y-62959760D01*
X194700298Y-62890130D01*
X194726281Y-62824059D01*
X194755431Y-62796821D01*
X194790196Y-62773416D01*
X194877541Y-62714612D01*
X194894096Y-62698820D01*
X195043570Y-62556228D01*
X195047427Y-62552549D01*
X195187578Y-62364179D01*
X195209054Y-62321940D01*
X195291569Y-62159644D01*
X195291569Y-62159643D01*
X195293987Y-62154888D01*
X195363611Y-61930660D01*
X195394461Y-61697907D01*
X195385652Y-61463284D01*
X195337438Y-61233499D01*
X195251198Y-61015123D01*
X195220199Y-60964039D01*
X195132164Y-60818961D01*
X195132162Y-60818958D01*
X195129396Y-60814400D01*
X194988694Y-60652255D01*
X194959155Y-60587698D01*
X194969209Y-60517417D01*
X195015663Y-60463728D01*
X195039631Y-60451695D01*
X195120795Y-60421268D01*
X195120796Y-60421267D01*
X195129205Y-60418115D01*
X195245761Y-60330761D01*
X195333115Y-60214205D01*
X195384245Y-60077816D01*
X195391000Y-60015634D01*
X195391000Y-58169366D01*
X195384245Y-58107184D01*
X195333115Y-57970795D01*
X195245761Y-57854239D01*
X195129205Y-57766885D01*
X194992816Y-57715755D01*
X194930634Y-57709000D01*
X192633093Y-57709000D01*
X192564972Y-57688998D01*
X192518479Y-57635342D01*
X192507093Y-57582944D01*
X192507487Y-56700000D01*
X199686496Y-56700000D01*
X199706458Y-56889928D01*
X199765473Y-57071556D01*
X199860960Y-57236944D01*
X199988747Y-57378866D01*
X200143248Y-57491118D01*
X200149276Y-57493802D01*
X200149278Y-57493803D01*
X200236616Y-57532688D01*
X200317712Y-57568794D01*
X200411113Y-57588647D01*
X200498056Y-57607128D01*
X200498061Y-57607128D01*
X200504513Y-57608500D01*
X200560406Y-57608500D01*
X200628527Y-57628502D01*
X200649501Y-57645405D01*
X202556343Y-59552247D01*
X202563887Y-59560537D01*
X202568000Y-59567018D01*
X202573777Y-59572443D01*
X202617667Y-59613658D01*
X202620509Y-59616413D01*
X202640230Y-59636134D01*
X202643425Y-59638612D01*
X202652447Y-59646318D01*
X202684679Y-59676586D01*
X202691628Y-59680406D01*
X202702432Y-59686346D01*
X202718956Y-59697199D01*
X202734959Y-59709613D01*
X202775543Y-59727176D01*
X202786173Y-59732383D01*
X202824940Y-59753695D01*
X202832617Y-59755666D01*
X202832622Y-59755668D01*
X202844558Y-59758732D01*
X202863266Y-59765137D01*
X202881855Y-59773181D01*
X202889680Y-59774420D01*
X202889682Y-59774421D01*
X202925519Y-59780097D01*
X202937140Y-59782504D01*
X202972289Y-59791528D01*
X202979970Y-59793500D01*
X203000231Y-59793500D01*
X203019940Y-59795051D01*
X203039943Y-59798219D01*
X203047835Y-59797473D01*
X203053062Y-59796979D01*
X203083954Y-59794059D01*
X203095811Y-59793500D01*
X215140500Y-59793500D01*
X215208621Y-59813502D01*
X215255114Y-59867158D01*
X215266500Y-59919500D01*
X215266500Y-60083134D01*
X215273255Y-60145316D01*
X215324385Y-60281705D01*
X215411739Y-60398261D01*
X215528295Y-60485615D01*
X215536704Y-60488767D01*
X215536705Y-60488768D01*
X215620422Y-60520152D01*
X215677187Y-60562793D01*
X215701887Y-60629355D01*
X215686680Y-60698704D01*
X215663164Y-60729304D01*
X215613935Y-60776266D01*
X215613930Y-60776271D01*
X215610073Y-60779951D01*
X215606891Y-60784228D01*
X215606890Y-60784229D01*
X215599767Y-60793803D01*
X215469922Y-60968321D01*
X215467506Y-60973072D01*
X215467504Y-60973076D01*
X215397832Y-61110112D01*
X215363513Y-61177612D01*
X215293889Y-61401840D01*
X215293188Y-61407129D01*
X215276092Y-61536116D01*
X215263039Y-61634593D01*
X215271848Y-61869216D01*
X215272943Y-61874434D01*
X215297794Y-61992871D01*
X215320062Y-62099001D01*
X215406302Y-62317377D01*
X215528104Y-62518100D01*
X215681985Y-62695432D01*
X215686117Y-62698820D01*
X215859416Y-62840917D01*
X215859422Y-62840921D01*
X215863544Y-62844301D01*
X215868180Y-62846940D01*
X215868183Y-62846942D01*
X215894519Y-62861933D01*
X215943825Y-62913015D01*
X215957687Y-62982646D01*
X215931704Y-63048717D01*
X215902554Y-63075955D01*
X215784698Y-63155301D01*
X215776415Y-63161960D01*
X215614314Y-63316596D01*
X215607262Y-63324566D01*
X215473532Y-63504307D01*
X215467933Y-63513337D01*
X215366396Y-63713045D01*
X215362396Y-63722896D01*
X215295961Y-63936852D01*
X215293678Y-63947236D01*
X215290920Y-63968043D01*
X215293116Y-63982207D01*
X215306303Y-63986000D01*
X218491737Y-63986000D01*
X218505268Y-63982027D01*
X218506793Y-63971420D01*
X218480555Y-63846371D01*
X218477495Y-63836174D01*
X218395211Y-63627816D01*
X218390477Y-63618279D01*
X218274258Y-63426756D01*
X218267994Y-63418166D01*
X218121165Y-63248961D01*
X218113535Y-63241541D01*
X217940300Y-63099497D01*
X217931538Y-63093476D01*
X217905502Y-63078655D01*
X217856196Y-63027572D01*
X217842335Y-62957942D01*
X217868319Y-62891871D01*
X217897468Y-62864633D01*
X217927668Y-62844301D01*
X218020041Y-62782112D01*
X218025609Y-62776801D01*
X218186070Y-62623728D01*
X218189927Y-62620049D01*
X218330078Y-62431679D01*
X218366815Y-62359424D01*
X218434069Y-62227144D01*
X218434069Y-62227143D01*
X218436487Y-62222388D01*
X218506111Y-61998160D01*
X218523202Y-61869216D01*
X218536261Y-61770690D01*
X218536261Y-61770687D01*
X218536961Y-61765407D01*
X218528152Y-61530784D01*
X218510358Y-61445978D01*
X218481035Y-61306226D01*
X218481034Y-61306223D01*
X218479938Y-61300999D01*
X218393698Y-61082623D01*
X218321739Y-60964039D01*
X218274664Y-60886461D01*
X218274662Y-60886458D01*
X218271896Y-60881900D01*
X218131194Y-60719755D01*
X218101655Y-60655198D01*
X218111709Y-60584917D01*
X218158163Y-60531228D01*
X218182131Y-60519195D01*
X218263295Y-60488768D01*
X218263296Y-60488767D01*
X218271705Y-60485615D01*
X218388261Y-60398261D01*
X218475615Y-60281705D01*
X218526745Y-60145316D01*
X218533500Y-60083134D01*
X218533500Y-58236866D01*
X218529495Y-58200000D01*
X221786496Y-58200000D01*
X221806458Y-58389928D01*
X221865473Y-58571556D01*
X221960960Y-58736944D01*
X222088747Y-58878866D01*
X222243248Y-58991118D01*
X222249276Y-58993802D01*
X222249278Y-58993803D01*
X222411681Y-59066109D01*
X222417712Y-59068794D01*
X222511112Y-59088647D01*
X222598056Y-59107128D01*
X222598061Y-59107128D01*
X222604513Y-59108500D01*
X222660406Y-59108500D01*
X222728527Y-59128502D01*
X222749501Y-59145405D01*
X223996343Y-60392247D01*
X224003887Y-60400537D01*
X224008000Y-60407018D01*
X224013777Y-60412443D01*
X224057667Y-60453658D01*
X224060509Y-60456413D01*
X224080230Y-60476134D01*
X224083425Y-60478612D01*
X224092447Y-60486318D01*
X224124679Y-60516586D01*
X224131628Y-60520406D01*
X224142432Y-60526346D01*
X224158956Y-60537199D01*
X224174959Y-60549613D01*
X224215543Y-60567176D01*
X224226173Y-60572383D01*
X224264940Y-60593695D01*
X224272617Y-60595666D01*
X224272622Y-60595668D01*
X224284558Y-60598732D01*
X224303266Y-60605137D01*
X224321855Y-60613181D01*
X224329680Y-60614420D01*
X224329682Y-60614421D01*
X224365519Y-60620097D01*
X224377140Y-60622504D01*
X224412289Y-60631528D01*
X224419970Y-60633500D01*
X224440231Y-60633500D01*
X224459940Y-60635051D01*
X224479943Y-60638219D01*
X224487835Y-60637473D01*
X224493062Y-60636979D01*
X224523954Y-60634059D01*
X224535811Y-60633500D01*
X228191800Y-60633500D01*
X228259921Y-60653502D01*
X228279147Y-60669843D01*
X228279420Y-60669540D01*
X228284332Y-60673963D01*
X228288747Y-60678866D01*
X228443248Y-60791118D01*
X228449276Y-60793802D01*
X228449278Y-60793803D01*
X228611681Y-60866109D01*
X228617712Y-60868794D01*
X228711113Y-60888647D01*
X228798056Y-60907128D01*
X228798061Y-60907128D01*
X228804513Y-60908500D01*
X228995487Y-60908500D01*
X229001939Y-60907128D01*
X229001944Y-60907128D01*
X229088887Y-60888647D01*
X229182288Y-60868794D01*
X229188319Y-60866109D01*
X229350722Y-60793803D01*
X229350724Y-60793802D01*
X229356752Y-60791118D01*
X229511253Y-60678866D01*
X229547852Y-60638219D01*
X229634621Y-60541852D01*
X229634622Y-60541851D01*
X229639040Y-60536944D01*
X229716002Y-60403642D01*
X229731223Y-60377279D01*
X229731224Y-60377278D01*
X229734527Y-60371556D01*
X229793542Y-60189928D01*
X229813504Y-60000000D01*
X229793542Y-59810072D01*
X229734527Y-59628444D01*
X229639040Y-59463056D01*
X229511253Y-59321134D01*
X229356752Y-59208882D01*
X229350724Y-59206198D01*
X229350722Y-59206197D01*
X229188319Y-59133891D01*
X229188318Y-59133891D01*
X229182288Y-59131206D01*
X229088888Y-59111353D01*
X229001944Y-59092872D01*
X229001939Y-59092872D01*
X228995487Y-59091500D01*
X228804513Y-59091500D01*
X228798061Y-59092872D01*
X228798056Y-59092872D01*
X228711112Y-59111353D01*
X228617712Y-59131206D01*
X228611682Y-59133891D01*
X228611681Y-59133891D01*
X228449278Y-59206197D01*
X228449276Y-59206198D01*
X228443248Y-59208882D01*
X228288747Y-59321134D01*
X228284332Y-59326037D01*
X228279420Y-59330460D01*
X228278295Y-59329211D01*
X228224986Y-59362051D01*
X228191800Y-59366500D01*
X224814595Y-59366500D01*
X224746474Y-59346498D01*
X224725500Y-59329595D01*
X223647122Y-58251217D01*
X223613096Y-58188905D01*
X223610907Y-58175292D01*
X223610066Y-58167285D01*
X223593542Y-58010072D01*
X223534527Y-57828444D01*
X223439040Y-57663056D01*
X223411472Y-57632438D01*
X223315675Y-57526045D01*
X223315674Y-57526044D01*
X223311253Y-57521134D01*
X223156752Y-57408882D01*
X223150724Y-57406198D01*
X223150722Y-57406197D01*
X222988319Y-57333891D01*
X222988318Y-57333891D01*
X222982288Y-57331206D01*
X222888887Y-57311353D01*
X222801944Y-57292872D01*
X222801939Y-57292872D01*
X222795487Y-57291500D01*
X222604513Y-57291500D01*
X222598061Y-57292872D01*
X222598056Y-57292872D01*
X222511113Y-57311353D01*
X222417712Y-57331206D01*
X222411682Y-57333891D01*
X222411681Y-57333891D01*
X222249278Y-57406197D01*
X222249276Y-57406198D01*
X222243248Y-57408882D01*
X222088747Y-57521134D01*
X222084326Y-57526044D01*
X222084325Y-57526045D01*
X221988529Y-57632438D01*
X221960960Y-57663056D01*
X221865473Y-57828444D01*
X221806458Y-58010072D01*
X221805768Y-58016633D01*
X221805768Y-58016635D01*
X221790073Y-58165969D01*
X221786496Y-58200000D01*
X218529495Y-58200000D01*
X218526745Y-58174684D01*
X218475615Y-58038295D01*
X218388261Y-57921739D01*
X218271705Y-57834385D01*
X218135316Y-57783255D01*
X218073134Y-57776500D01*
X215726866Y-57776500D01*
X215664684Y-57783255D01*
X215528295Y-57834385D01*
X215411739Y-57921739D01*
X215324385Y-58038295D01*
X215273255Y-58174684D01*
X215266500Y-58236866D01*
X215266500Y-58400500D01*
X215246498Y-58468621D01*
X215192842Y-58515114D01*
X215140500Y-58526500D01*
X203374595Y-58526500D01*
X203306474Y-58506498D01*
X203285500Y-58489595D01*
X201547122Y-56751217D01*
X201513096Y-56688905D01*
X201510907Y-56675292D01*
X201494232Y-56516635D01*
X201494232Y-56516633D01*
X201493542Y-56510072D01*
X201434527Y-56328444D01*
X201339040Y-56163056D01*
X201211253Y-56021134D01*
X201056752Y-55908882D01*
X201050724Y-55906198D01*
X201050722Y-55906197D01*
X200888319Y-55833891D01*
X200888318Y-55833891D01*
X200882288Y-55831206D01*
X200788887Y-55811353D01*
X200701944Y-55792872D01*
X200701939Y-55792872D01*
X200695487Y-55791500D01*
X200504513Y-55791500D01*
X200498061Y-55792872D01*
X200498056Y-55792872D01*
X200411112Y-55811353D01*
X200317712Y-55831206D01*
X200311682Y-55833891D01*
X200311681Y-55833891D01*
X200149278Y-55906197D01*
X200149276Y-55906198D01*
X200143248Y-55908882D01*
X199988747Y-56021134D01*
X199860960Y-56163056D01*
X199765473Y-56328444D01*
X199706458Y-56510072D01*
X199686496Y-56700000D01*
X192507487Y-56700000D01*
X192510192Y-50634444D01*
X192530224Y-50566332D01*
X192583901Y-50519863D01*
X192636192Y-50508500D01*
X229158955Y-50508500D01*
X229227076Y-50528502D01*
G37*
%TD.AperFunction*%
%TD*%
%TA.AperFunction,Conductor*%
%TO.N,GND*%
G36*
X191886949Y-50528502D02*
G01*
X191933442Y-50582158D01*
X191944826Y-50634929D01*
X191870535Y-72315438D01*
X191832440Y-83432779D01*
X191812205Y-83500831D01*
X191758390Y-83547139D01*
X191688082Y-83557002D01*
X191623603Y-83527288D01*
X191617346Y-83521442D01*
X190114702Y-82018797D01*
X188347122Y-80251217D01*
X188313096Y-80188905D01*
X188310907Y-80175292D01*
X188294232Y-80016635D01*
X188294232Y-80016633D01*
X188293542Y-80010072D01*
X188234527Y-79828444D01*
X188139040Y-79663056D01*
X188011253Y-79521134D01*
X187856752Y-79408882D01*
X187850724Y-79406198D01*
X187850722Y-79406197D01*
X187688319Y-79333891D01*
X187688318Y-79333891D01*
X187682288Y-79331206D01*
X187588887Y-79311353D01*
X187501944Y-79292872D01*
X187501939Y-79292872D01*
X187495487Y-79291500D01*
X187304513Y-79291500D01*
X187298061Y-79292872D01*
X187298056Y-79292872D01*
X187211113Y-79311353D01*
X187117712Y-79331206D01*
X187111682Y-79333891D01*
X187111681Y-79333891D01*
X186949278Y-79406197D01*
X186949276Y-79406198D01*
X186943248Y-79408882D01*
X186788747Y-79521134D01*
X186660960Y-79663056D01*
X186565473Y-79828444D01*
X186506458Y-80010072D01*
X186486496Y-80200000D01*
X186487186Y-80206565D01*
X186503353Y-80360381D01*
X186506458Y-80389928D01*
X186565473Y-80571556D01*
X186568776Y-80577278D01*
X186568777Y-80577279D01*
X186577355Y-80592136D01*
X186660960Y-80736944D01*
X186665378Y-80741851D01*
X186665379Y-80741852D01*
X186725677Y-80808820D01*
X186788747Y-80878866D01*
X186887843Y-80950864D01*
X186910053Y-80967000D01*
X186943248Y-80991118D01*
X186949276Y-80993802D01*
X186949278Y-80993803D01*
X187111681Y-81066109D01*
X187117712Y-81068794D01*
X187211113Y-81088647D01*
X187298056Y-81107128D01*
X187298061Y-81107128D01*
X187304513Y-81108500D01*
X187360406Y-81108500D01*
X187428527Y-81128502D01*
X187449501Y-81145405D01*
X190829595Y-84525499D01*
X190863621Y-84587811D01*
X190866500Y-84614594D01*
X190866500Y-104185405D01*
X190846498Y-104253526D01*
X190829595Y-104274501D01*
X190249499Y-104854596D01*
X190187187Y-104888621D01*
X190160404Y-104891500D01*
X190104513Y-104891500D01*
X190098061Y-104892872D01*
X190098056Y-104892872D01*
X190011112Y-104911353D01*
X189917712Y-104931206D01*
X189911682Y-104933891D01*
X189911681Y-104933891D01*
X189749278Y-105006197D01*
X189749276Y-105006198D01*
X189743248Y-105008882D01*
X189588747Y-105121134D01*
X189460960Y-105263056D01*
X189365473Y-105428444D01*
X189306458Y-105610072D01*
X189286496Y-105800000D01*
X189306458Y-105989928D01*
X189365473Y-106171556D01*
X189460960Y-106336944D01*
X189588747Y-106478866D01*
X189743248Y-106591118D01*
X189749276Y-106593802D01*
X189749278Y-106593803D01*
X189911681Y-106666109D01*
X189917712Y-106668794D01*
X190011112Y-106688647D01*
X190098056Y-106707128D01*
X190098061Y-106707128D01*
X190104513Y-106708500D01*
X190295487Y-106708500D01*
X190301939Y-106707128D01*
X190301944Y-106707128D01*
X190388887Y-106688647D01*
X190482288Y-106668794D01*
X190488319Y-106666109D01*
X190650722Y-106593803D01*
X190650724Y-106593802D01*
X190656752Y-106591118D01*
X190811253Y-106478866D01*
X190939040Y-106336944D01*
X191034527Y-106171556D01*
X191093542Y-105989928D01*
X191110907Y-105824706D01*
X191137920Y-105759050D01*
X191147122Y-105748782D01*
X191541924Y-105353980D01*
X191604236Y-105319954D01*
X191675051Y-105325019D01*
X191731887Y-105367566D01*
X191756698Y-105434086D01*
X191757018Y-105443499D01*
X191752688Y-106707128D01*
X191709310Y-119365932D01*
X191689075Y-119433984D01*
X191635260Y-119480292D01*
X191583311Y-119491500D01*
X115841046Y-119491500D01*
X115772925Y-119471498D01*
X115726432Y-119417842D01*
X115716328Y-119347568D01*
X115745822Y-119282988D01*
X115783843Y-119253233D01*
X115853854Y-119217561D01*
X115853861Y-119217557D01*
X115856795Y-119216062D01*
X116182793Y-119004357D01*
X116484876Y-118759734D01*
X116759734Y-118484876D01*
X117004357Y-118182793D01*
X117216062Y-117856794D01*
X117282486Y-117726431D01*
X117391034Y-117513393D01*
X117392532Y-117510453D01*
X117531833Y-117147562D01*
X117632438Y-116772099D01*
X117693246Y-116388176D01*
X117713589Y-116000000D01*
X117693246Y-115611824D01*
X117632438Y-115227901D01*
X117531833Y-114852438D01*
X117392532Y-114489547D01*
X117288228Y-114284839D01*
X117217561Y-114146147D01*
X117217557Y-114146140D01*
X117216062Y-114143206D01*
X117004357Y-113817207D01*
X116759734Y-113515124D01*
X116484876Y-113240266D01*
X116182793Y-112995643D01*
X115856795Y-112783938D01*
X115853861Y-112782443D01*
X115853854Y-112782439D01*
X115513393Y-112608966D01*
X115510453Y-112607468D01*
X115147562Y-112468167D01*
X114772099Y-112367562D01*
X114568207Y-112335268D01*
X114391424Y-112307268D01*
X114391416Y-112307267D01*
X114388176Y-112306754D01*
X114000000Y-112286411D01*
X113611824Y-112306754D01*
X113608584Y-112307267D01*
X113608576Y-112307268D01*
X113431793Y-112335268D01*
X113227901Y-112367562D01*
X112852438Y-112468167D01*
X112489547Y-112607468D01*
X112486607Y-112608966D01*
X112146147Y-112782439D01*
X112146140Y-112782443D01*
X112143206Y-112783938D01*
X111817207Y-112995643D01*
X111515124Y-113240266D01*
X111240266Y-113515124D01*
X110995643Y-113817207D01*
X110783938Y-114143206D01*
X110782443Y-114146140D01*
X110782439Y-114146147D01*
X110746767Y-114216158D01*
X110698019Y-114267773D01*
X110629104Y-114284839D01*
X110561902Y-114261938D01*
X110517750Y-114206341D01*
X110508500Y-114158955D01*
X110508500Y-99805341D01*
X113387888Y-99805341D01*
X113387983Y-99808971D01*
X113387983Y-99808972D01*
X113394174Y-100045405D01*
X113396970Y-100152171D01*
X113445856Y-100495660D01*
X113533897Y-100831253D01*
X113659927Y-101154503D01*
X113672619Y-101178474D01*
X113805883Y-101430166D01*
X113822275Y-101461126D01*
X113824325Y-101464109D01*
X113824327Y-101464112D01*
X114016733Y-101744064D01*
X114016739Y-101744071D01*
X114018790Y-101747056D01*
X114246866Y-102008505D01*
X114293359Y-102050810D01*
X114459268Y-102201775D01*
X114503481Y-102242006D01*
X114785233Y-102444466D01*
X115088388Y-102613200D01*
X115408928Y-102745972D01*
X115412422Y-102746967D01*
X115412424Y-102746968D01*
X115739103Y-102840025D01*
X115739108Y-102840026D01*
X115742604Y-102841022D01*
X115939304Y-102873233D01*
X116081412Y-102896504D01*
X116081419Y-102896505D01*
X116084993Y-102897090D01*
X116258275Y-102905262D01*
X116427931Y-102913263D01*
X116427932Y-102913263D01*
X116431558Y-102913434D01*
X116440415Y-102912830D01*
X116774073Y-102890084D01*
X116774081Y-102890083D01*
X116777704Y-102889836D01*
X116781279Y-102889173D01*
X116781282Y-102889173D01*
X117115279Y-102827270D01*
X117115283Y-102827269D01*
X117118844Y-102826609D01*
X117304282Y-102769561D01*
X117446978Y-102725662D01*
X117450456Y-102724592D01*
X117768145Y-102585136D01*
X117883414Y-102517779D01*
X118064560Y-102411926D01*
X118064562Y-102411925D01*
X118067700Y-102410091D01*
X118230722Y-102287691D01*
X118342244Y-102203958D01*
X118342248Y-102203955D01*
X118345151Y-102201775D01*
X118596819Y-101962950D01*
X118819370Y-101696783D01*
X119009853Y-101406799D01*
X119091957Y-101243554D01*
X119164117Y-101100080D01*
X119164120Y-101100072D01*
X119165744Y-101096844D01*
X119170364Y-101084219D01*
X119283729Y-100774437D01*
X119283730Y-100774433D01*
X119284977Y-100771026D01*
X119285822Y-100767504D01*
X119285825Y-100767496D01*
X119365124Y-100437191D01*
X119365125Y-100437187D01*
X119365971Y-100433662D01*
X119369581Y-100403829D01*
X119407316Y-100092004D01*
X119407316Y-100091997D01*
X119407652Y-100089225D01*
X119409992Y-100014788D01*
X119413511Y-99902797D01*
X119413599Y-99900000D01*
X119413049Y-99890460D01*
X119393836Y-99557246D01*
X119393835Y-99557241D01*
X119393627Y-99553626D01*
X119365151Y-99390467D01*
X119334600Y-99215415D01*
X119334598Y-99215408D01*
X119333976Y-99211842D01*
X119327261Y-99189170D01*
X119286887Y-99052872D01*
X119235437Y-98879180D01*
X119234013Y-98875841D01*
X119100740Y-98563386D01*
X119100738Y-98563383D01*
X119099316Y-98560048D01*
X119066099Y-98501811D01*
X118929208Y-98261816D01*
X118927417Y-98258676D01*
X118910850Y-98236122D01*
X118797268Y-98081500D01*
X118722018Y-97979060D01*
X118718020Y-97974757D01*
X118524478Y-97766481D01*
X118485842Y-97724904D01*
X118222019Y-97499578D01*
X117934047Y-97306069D01*
X117885706Y-97281118D01*
X117628961Y-97148602D01*
X117625741Y-97146940D01*
X117301189Y-97024302D01*
X117297668Y-97023418D01*
X117297663Y-97023416D01*
X117075906Y-96967715D01*
X116964692Y-96939780D01*
X116942476Y-96936855D01*
X116624315Y-96894968D01*
X116624307Y-96894967D01*
X116620711Y-96894494D01*
X116476045Y-96892221D01*
X116277446Y-96889101D01*
X116277442Y-96889101D01*
X116273804Y-96889044D01*
X116270190Y-96889405D01*
X116270184Y-96889405D01*
X116046790Y-96911703D01*
X115928569Y-96923503D01*
X115589583Y-96997414D01*
X115586156Y-96998587D01*
X115586150Y-96998589D01*
X115278589Y-97103891D01*
X115261339Y-97109797D01*
X114948188Y-97259163D01*
X114945109Y-97261094D01*
X114945108Y-97261095D01*
X114890694Y-97295229D01*
X114654279Y-97443532D01*
X114651443Y-97445804D01*
X114651436Y-97445809D01*
X114513953Y-97555954D01*
X114383509Y-97660459D01*
X114380958Y-97663037D01*
X114180831Y-97865271D01*
X114139466Y-97907071D01*
X114137225Y-97909929D01*
X113950712Y-98147799D01*
X113925386Y-98180098D01*
X113923493Y-98183187D01*
X113923491Y-98183190D01*
X113877233Y-98258676D01*
X113744105Y-98475921D01*
X113742580Y-98479206D01*
X113742578Y-98479210D01*
X113608832Y-98767343D01*
X113598027Y-98790620D01*
X113562470Y-98898134D01*
X113495500Y-99100633D01*
X113489087Y-99120023D01*
X113488351Y-99123578D01*
X113488350Y-99123581D01*
X113422907Y-99439593D01*
X113418730Y-99459764D01*
X113410353Y-99553626D01*
X113390796Y-99772763D01*
X113387888Y-99805341D01*
X110508500Y-99805341D01*
X110508500Y-91540000D01*
X113679049Y-91540000D01*
X113698813Y-91765908D01*
X113757506Y-91984951D01*
X113792559Y-92060122D01*
X113851017Y-92185488D01*
X113851020Y-92185493D01*
X113853343Y-92190475D01*
X113900730Y-92258150D01*
X113966479Y-92352049D01*
X113983414Y-92376235D01*
X114143765Y-92536586D01*
X114148274Y-92539743D01*
X114148276Y-92539745D01*
X114325020Y-92663504D01*
X114325026Y-92663508D01*
X114329524Y-92666657D01*
X114535049Y-92762494D01*
X114540353Y-92763915D01*
X114540358Y-92763917D01*
X114689740Y-92803944D01*
X114754092Y-92821187D01*
X114980000Y-92840951D01*
X115205908Y-92821187D01*
X115270260Y-92803944D01*
X115419642Y-92763917D01*
X115419647Y-92763915D01*
X115424951Y-92762494D01*
X115630476Y-92666657D01*
X115634974Y-92663508D01*
X115634980Y-92663504D01*
X115811724Y-92539745D01*
X115811726Y-92539743D01*
X115816235Y-92536586D01*
X115976586Y-92376235D01*
X115993522Y-92352049D01*
X116059270Y-92258150D01*
X116106657Y-92190475D01*
X116108980Y-92185493D01*
X116108983Y-92185488D01*
X116167441Y-92060122D01*
X116202494Y-91984951D01*
X116261187Y-91765908D01*
X116280951Y-91540000D01*
X116261187Y-91314092D01*
X116202494Y-91095049D01*
X116135978Y-90952404D01*
X116108983Y-90894512D01*
X116108980Y-90894507D01*
X116106657Y-90889525D01*
X115976586Y-90703765D01*
X115816235Y-90543414D01*
X115811724Y-90540255D01*
X115634980Y-90416496D01*
X115634974Y-90416492D01*
X115630476Y-90413343D01*
X115424951Y-90317506D01*
X115419647Y-90316085D01*
X115419642Y-90316083D01*
X115291349Y-90281707D01*
X115230727Y-90244755D01*
X115199705Y-90180894D01*
X115202203Y-90160000D01*
X116519049Y-90160000D01*
X116538813Y-90385908D01*
X116597506Y-90604951D01*
X116599831Y-90609936D01*
X116691017Y-90805488D01*
X116691020Y-90805493D01*
X116693343Y-90810475D01*
X116823414Y-90996235D01*
X116983765Y-91156586D01*
X116988274Y-91159743D01*
X116988276Y-91159745D01*
X117165020Y-91283504D01*
X117165026Y-91283508D01*
X117169524Y-91286657D01*
X117174509Y-91288981D01*
X117174508Y-91288981D01*
X117375049Y-91382494D01*
X117374379Y-91383931D01*
X117425668Y-91421693D01*
X117451006Y-91488014D01*
X117436465Y-91557506D01*
X117386663Y-91608105D01*
X117325402Y-91624000D01*
X116984366Y-91624000D01*
X116922184Y-91630755D01*
X116785795Y-91681885D01*
X116669239Y-91769239D01*
X116581885Y-91885795D01*
X116530755Y-92022184D01*
X116524000Y-92084366D01*
X116524000Y-93755634D01*
X116530755Y-93817816D01*
X116581885Y-93954205D01*
X116669239Y-94070761D01*
X116785795Y-94158115D01*
X116922184Y-94209245D01*
X116984366Y-94216000D01*
X118655634Y-94216000D01*
X118717816Y-94209245D01*
X118854205Y-94158115D01*
X118970761Y-94070761D01*
X119058115Y-93954205D01*
X119109245Y-93817816D01*
X119116000Y-93755634D01*
X119116000Y-92084366D01*
X119109245Y-92022184D01*
X119058115Y-91885795D01*
X118970761Y-91769239D01*
X118854205Y-91681885D01*
X118717816Y-91630755D01*
X118655634Y-91624000D01*
X118314598Y-91624000D01*
X118246477Y-91603998D01*
X118199984Y-91550342D01*
X118189880Y-91480068D01*
X118219374Y-91415488D01*
X118265522Y-91383718D01*
X118264951Y-91382494D01*
X118465492Y-91288981D01*
X118465491Y-91288981D01*
X118470476Y-91286657D01*
X118474974Y-91283508D01*
X118474980Y-91283504D01*
X118651724Y-91159745D01*
X118651726Y-91159743D01*
X118656235Y-91156586D01*
X118816586Y-90996235D01*
X118946657Y-90810475D01*
X118948980Y-90805493D01*
X118948983Y-90805488D01*
X119040169Y-90609936D01*
X119042494Y-90604951D01*
X119101187Y-90385908D01*
X119120951Y-90160000D01*
X119101187Y-89934092D01*
X119042494Y-89715049D01*
X118958258Y-89534403D01*
X118948983Y-89514512D01*
X118948980Y-89514507D01*
X118946657Y-89509525D01*
X118816586Y-89323765D01*
X118656235Y-89163414D01*
X118651724Y-89160255D01*
X118474980Y-89036496D01*
X118474974Y-89036492D01*
X118470476Y-89033343D01*
X118264951Y-88937506D01*
X118259647Y-88936085D01*
X118259642Y-88936083D01*
X118131349Y-88901707D01*
X118070727Y-88864755D01*
X118039705Y-88800894D01*
X118048134Y-88730400D01*
X118093337Y-88675653D01*
X118131349Y-88658293D01*
X118259642Y-88623917D01*
X118259647Y-88623915D01*
X118264951Y-88622494D01*
X118470476Y-88526657D01*
X118474974Y-88523508D01*
X118474980Y-88523504D01*
X118651724Y-88399745D01*
X118651726Y-88399743D01*
X118656235Y-88396586D01*
X118816586Y-88236235D01*
X118859814Y-88174500D01*
X118907640Y-88106197D01*
X118946657Y-88050475D01*
X118948980Y-88045493D01*
X118948983Y-88045488D01*
X119040169Y-87849936D01*
X119042494Y-87844951D01*
X119101187Y-87625908D01*
X119120951Y-87400000D01*
X119101187Y-87174092D01*
X119044638Y-86963050D01*
X119046328Y-86892074D01*
X119086122Y-86833278D01*
X119151386Y-86805330D01*
X119221400Y-86817103D01*
X119255440Y-86841344D01*
X123329595Y-90915499D01*
X123363621Y-90977811D01*
X123366500Y-91004594D01*
X123366500Y-92181692D01*
X123346498Y-92249813D01*
X123298683Y-92293453D01*
X123273607Y-92306507D01*
X123269474Y-92309610D01*
X123269471Y-92309612D01*
X123107523Y-92431206D01*
X123094965Y-92440635D01*
X122940629Y-92602138D01*
X122937715Y-92606410D01*
X122937714Y-92606411D01*
X122927671Y-92621134D01*
X122814743Y-92786680D01*
X122778145Y-92865524D01*
X122725034Y-92979943D01*
X122720688Y-92989305D01*
X122660989Y-93204570D01*
X122637251Y-93426695D01*
X122637548Y-93431848D01*
X122637548Y-93431851D01*
X122649013Y-93630694D01*
X122650110Y-93649715D01*
X122651247Y-93654761D01*
X122651248Y-93654767D01*
X122670624Y-93740743D01*
X122699222Y-93867639D01*
X122783266Y-94074616D01*
X122831134Y-94152729D01*
X122864067Y-94206471D01*
X122899987Y-94265088D01*
X123046250Y-94433938D01*
X123050230Y-94437242D01*
X123054981Y-94441187D01*
X123094616Y-94500090D01*
X123096113Y-94571071D01*
X123058997Y-94631593D01*
X123018725Y-94656112D01*
X122932872Y-94688297D01*
X122903295Y-94699385D01*
X122786739Y-94786739D01*
X122699385Y-94903295D01*
X122648255Y-95039684D01*
X122641500Y-95101866D01*
X122641500Y-96898134D01*
X122648255Y-96960316D01*
X122699385Y-97096705D01*
X122786739Y-97213261D01*
X122903295Y-97300615D01*
X123039684Y-97351745D01*
X123101866Y-97358500D01*
X124415011Y-97358500D01*
X124483132Y-97378502D01*
X124529625Y-97432158D01*
X124541011Y-97484500D01*
X124541011Y-97595744D01*
X124540484Y-97606927D01*
X124538809Y-97614420D01*
X124539058Y-97622346D01*
X124539058Y-97622347D01*
X124540949Y-97682497D01*
X124541011Y-97686456D01*
X124541011Y-97714367D01*
X124541508Y-97718301D01*
X124541508Y-97718302D01*
X124541516Y-97718367D01*
X124542449Y-97730204D01*
X124543838Y-97774400D01*
X124546198Y-97782522D01*
X124549489Y-97793850D01*
X124553498Y-97813211D01*
X124556037Y-97833308D01*
X124558956Y-97840679D01*
X124558956Y-97840681D01*
X124572315Y-97874423D01*
X124576160Y-97885653D01*
X124583213Y-97909929D01*
X124588493Y-97928104D01*
X124592526Y-97934923D01*
X124592528Y-97934928D01*
X124598804Y-97945539D01*
X124607499Y-97963287D01*
X124614959Y-97982128D01*
X124619621Y-97988544D01*
X124619621Y-97988545D01*
X124640947Y-98017898D01*
X124647463Y-98027818D01*
X124669969Y-98065873D01*
X124684290Y-98080194D01*
X124697130Y-98095227D01*
X124709039Y-98111618D01*
X124728428Y-98127658D01*
X124743116Y-98139809D01*
X124751895Y-98147799D01*
X129552878Y-102948783D01*
X129586904Y-103011095D01*
X129589093Y-103024706D01*
X129606458Y-103189928D01*
X129665473Y-103371556D01*
X129760960Y-103536944D01*
X129765378Y-103541851D01*
X129765379Y-103541852D01*
X129808667Y-103589928D01*
X129888747Y-103678866D01*
X130043248Y-103791118D01*
X130049276Y-103793802D01*
X130049278Y-103793803D01*
X130209386Y-103865087D01*
X130217712Y-103868794D01*
X130311112Y-103888647D01*
X130398056Y-103907128D01*
X130398061Y-103907128D01*
X130404513Y-103908500D01*
X130595487Y-103908500D01*
X130601939Y-103907128D01*
X130601944Y-103907128D01*
X130688887Y-103888647D01*
X130782288Y-103868794D01*
X130790614Y-103865087D01*
X130950722Y-103793803D01*
X130950724Y-103793802D01*
X130956752Y-103791118D01*
X131111253Y-103678866D01*
X131191333Y-103589928D01*
X131234621Y-103541852D01*
X131234622Y-103541851D01*
X131239040Y-103536944D01*
X131334527Y-103371556D01*
X131393542Y-103189928D01*
X131413504Y-103000000D01*
X131401952Y-102890084D01*
X131394232Y-102816635D01*
X131394232Y-102816633D01*
X131393542Y-102810072D01*
X131334527Y-102628444D01*
X131247856Y-102478326D01*
X131231118Y-102409331D01*
X131247855Y-102352329D01*
X131281545Y-102293976D01*
X131340560Y-102112348D01*
X131351218Y-102010948D01*
X131359832Y-101928985D01*
X131360522Y-101922420D01*
X131357212Y-101890931D01*
X131341250Y-101739055D01*
X131341250Y-101739053D01*
X131340560Y-101732492D01*
X131281545Y-101550864D01*
X131268252Y-101527839D01*
X131211068Y-101428794D01*
X131186058Y-101385476D01*
X131151628Y-101347237D01*
X131062693Y-101248465D01*
X131062692Y-101248464D01*
X131058271Y-101243554D01*
X130935703Y-101154503D01*
X130909112Y-101135183D01*
X130909111Y-101135182D01*
X130903770Y-101131302D01*
X130897742Y-101128618D01*
X130897740Y-101128617D01*
X130735337Y-101056311D01*
X130735336Y-101056311D01*
X130729306Y-101053626D01*
X130619623Y-101030312D01*
X130548962Y-101015292D01*
X130548957Y-101015292D01*
X130542505Y-101013920D01*
X130451257Y-101013920D01*
X130383136Y-100993918D01*
X130362162Y-100977015D01*
X128283281Y-98898134D01*
X129641500Y-98898134D01*
X129648255Y-98960316D01*
X129699385Y-99096705D01*
X129786739Y-99213261D01*
X129903295Y-99300615D01*
X130039684Y-99351745D01*
X130101866Y-99358500D01*
X131898134Y-99358500D01*
X131960316Y-99351745D01*
X132096705Y-99300615D01*
X132213261Y-99213261D01*
X132300615Y-99096705D01*
X132340617Y-98990000D01*
X132344598Y-98979382D01*
X132387240Y-98922618D01*
X132453802Y-98897918D01*
X132523150Y-98913126D01*
X132557817Y-98941114D01*
X132586250Y-98973938D01*
X132758126Y-99116632D01*
X132951000Y-99229338D01*
X133159692Y-99309030D01*
X133164760Y-99310061D01*
X133164763Y-99310062D01*
X133245559Y-99326500D01*
X133378597Y-99353567D01*
X133383772Y-99353757D01*
X133383774Y-99353757D01*
X133596673Y-99361564D01*
X133596677Y-99361564D01*
X133601837Y-99361753D01*
X133606957Y-99361097D01*
X133606959Y-99361097D01*
X133818288Y-99334025D01*
X133818289Y-99334025D01*
X133823416Y-99333368D01*
X133846308Y-99326500D01*
X134032429Y-99270661D01*
X134032434Y-99270659D01*
X134037384Y-99269174D01*
X134237994Y-99170896D01*
X134419860Y-99041173D01*
X134578096Y-98883489D01*
X134689507Y-98728444D01*
X134705435Y-98706277D01*
X134708453Y-98702077D01*
X134757534Y-98602770D01*
X134805136Y-98506453D01*
X134805137Y-98506451D01*
X134807430Y-98501811D01*
X134872370Y-98288069D01*
X134901529Y-98066590D01*
X134901713Y-98059046D01*
X134903074Y-98003365D01*
X134903074Y-98003361D01*
X134903156Y-98000000D01*
X134884852Y-97777361D01*
X134830431Y-97560702D01*
X134741354Y-97355840D01*
X134652597Y-97218642D01*
X134622822Y-97172617D01*
X134622820Y-97172614D01*
X134620014Y-97168277D01*
X134469670Y-97003051D01*
X134465619Y-96999852D01*
X134465615Y-96999848D01*
X134298414Y-96867800D01*
X134298410Y-96867798D01*
X134294359Y-96864598D01*
X134288849Y-96861556D01*
X134215624Y-96821134D01*
X134098789Y-96756638D01*
X134093920Y-96754914D01*
X134093916Y-96754912D01*
X133893087Y-96683795D01*
X133893083Y-96683794D01*
X133888212Y-96682069D01*
X133883119Y-96681162D01*
X133883116Y-96681161D01*
X133673373Y-96643800D01*
X133673367Y-96643799D01*
X133668284Y-96642894D01*
X133594452Y-96641992D01*
X133450081Y-96640228D01*
X133450079Y-96640228D01*
X133444911Y-96640165D01*
X133224091Y-96673955D01*
X133011756Y-96743357D01*
X132813607Y-96846507D01*
X132809474Y-96849610D01*
X132809471Y-96849612D01*
X132650762Y-96968774D01*
X132634965Y-96980635D01*
X132578537Y-97039684D01*
X132554283Y-97065064D01*
X132492759Y-97100494D01*
X132421846Y-97097037D01*
X132364060Y-97055791D01*
X132345207Y-97022243D01*
X132303767Y-96911703D01*
X132300615Y-96903295D01*
X132213261Y-96786739D01*
X132096705Y-96699385D01*
X131960316Y-96648255D01*
X131898134Y-96641500D01*
X130101866Y-96641500D01*
X130039684Y-96648255D01*
X129903295Y-96699385D01*
X129786739Y-96786739D01*
X129699385Y-96903295D01*
X129648255Y-97039684D01*
X129641500Y-97101866D01*
X129641500Y-98898134D01*
X128283281Y-98898134D01*
X127088913Y-97703766D01*
X127078046Y-97691375D01*
X127063611Y-97672563D01*
X127058585Y-97666013D01*
X127052035Y-97660987D01*
X127046194Y-97655146D01*
X127048574Y-97652766D01*
X127015943Y-97608110D01*
X127008500Y-97565446D01*
X127008500Y-92148136D01*
X127009578Y-92131690D01*
X127012672Y-92108188D01*
X127013750Y-92100000D01*
X127008500Y-92060122D01*
X127008500Y-92060115D01*
X126999261Y-91989936D01*
X126993916Y-91949338D01*
X126992838Y-91941150D01*
X126979473Y-91908882D01*
X126947298Y-91831206D01*
X126934684Y-91800754D01*
X126931524Y-91793124D01*
X126858477Y-91697928D01*
X126858474Y-91697925D01*
X126833987Y-91666013D01*
X126827432Y-91660983D01*
X126808621Y-91646548D01*
X126796230Y-91635681D01*
X121945405Y-86784856D01*
X121911379Y-86722544D01*
X121908500Y-86695761D01*
X121908500Y-83704239D01*
X121928502Y-83636118D01*
X121945405Y-83615144D01*
X122498111Y-83062438D01*
X122560423Y-83028412D01*
X122631238Y-83033477D01*
X122688074Y-83076024D01*
X122696599Y-83089272D01*
X122699385Y-83096705D01*
X122704769Y-83103888D01*
X122704769Y-83103889D01*
X122734355Y-83143365D01*
X122786739Y-83213261D01*
X122903295Y-83300615D01*
X122911704Y-83303767D01*
X122911705Y-83303768D01*
X123020451Y-83344535D01*
X123077216Y-83387176D01*
X123101916Y-83453738D01*
X123086709Y-83523087D01*
X123067316Y-83549568D01*
X122977635Y-83643414D01*
X122940629Y-83682138D01*
X122937715Y-83686410D01*
X122937714Y-83686411D01*
X122852556Y-83811249D01*
X122814743Y-83866680D01*
X122720688Y-84069305D01*
X122660989Y-84284570D01*
X122637251Y-84506695D01*
X122637548Y-84511848D01*
X122637548Y-84511851D01*
X122647926Y-84691835D01*
X122650110Y-84729715D01*
X122651247Y-84734761D01*
X122651248Y-84734767D01*
X122673699Y-84834388D01*
X122699222Y-84947639D01*
X122732295Y-85029089D01*
X122772871Y-85129015D01*
X122783266Y-85154616D01*
X122830200Y-85231206D01*
X122876155Y-85306197D01*
X122899987Y-85345088D01*
X122903367Y-85348990D01*
X122911304Y-85358153D01*
X123046250Y-85513938D01*
X123218126Y-85656632D01*
X123411000Y-85769338D01*
X123619692Y-85849030D01*
X123624760Y-85850061D01*
X123624763Y-85850062D01*
X123685869Y-85862494D01*
X123838597Y-85893567D01*
X123843772Y-85893757D01*
X123843774Y-85893757D01*
X124056673Y-85901564D01*
X124056677Y-85901564D01*
X124061837Y-85901753D01*
X124066957Y-85901097D01*
X124066959Y-85901097D01*
X124278288Y-85874025D01*
X124278289Y-85874025D01*
X124283416Y-85873368D01*
X124319661Y-85862494D01*
X124492429Y-85810661D01*
X124492434Y-85810659D01*
X124497384Y-85809174D01*
X124655394Y-85731766D01*
X124725366Y-85719760D01*
X124790723Y-85747490D01*
X124799919Y-85755823D01*
X131070500Y-92026405D01*
X131104526Y-92088717D01*
X131099461Y-92159532D01*
X131056914Y-92216368D01*
X130990394Y-92241179D01*
X130981405Y-92241500D01*
X130101866Y-92241500D01*
X130039684Y-92248255D01*
X129903295Y-92299385D01*
X129786739Y-92386739D01*
X129699385Y-92503295D01*
X129648255Y-92639684D01*
X129641500Y-92701866D01*
X129641500Y-94498134D01*
X129648255Y-94560316D01*
X129699385Y-94696705D01*
X129786739Y-94813261D01*
X129903295Y-94900615D01*
X130039684Y-94951745D01*
X130101866Y-94958500D01*
X131898134Y-94958500D01*
X131960316Y-94951745D01*
X132096705Y-94900615D01*
X132213261Y-94813261D01*
X132300615Y-94696705D01*
X132320309Y-94644171D01*
X132344598Y-94579382D01*
X132387240Y-94522618D01*
X132453802Y-94497918D01*
X132523150Y-94513126D01*
X132557817Y-94541114D01*
X132586250Y-94573938D01*
X132758126Y-94716632D01*
X132951000Y-94829338D01*
X133159692Y-94909030D01*
X133164760Y-94910061D01*
X133164763Y-94910062D01*
X133250671Y-94927540D01*
X133378597Y-94953567D01*
X133383772Y-94953757D01*
X133383774Y-94953757D01*
X133596673Y-94961564D01*
X133596677Y-94961564D01*
X133601837Y-94961753D01*
X133606957Y-94961097D01*
X133606959Y-94961097D01*
X133818288Y-94934025D01*
X133818289Y-94934025D01*
X133823416Y-94933368D01*
X133828366Y-94931883D01*
X134032429Y-94870661D01*
X134032434Y-94870659D01*
X134037384Y-94869174D01*
X134237994Y-94770896D01*
X134419860Y-94641173D01*
X134578096Y-94483489D01*
X134617191Y-94429083D01*
X134705435Y-94306277D01*
X134708453Y-94302077D01*
X134711623Y-94295664D01*
X134805136Y-94106453D01*
X134805137Y-94106451D01*
X134807430Y-94101811D01*
X134864093Y-93915313D01*
X134870865Y-93893023D01*
X134870865Y-93893021D01*
X134872370Y-93888069D01*
X134901529Y-93666590D01*
X134902126Y-93642158D01*
X134903074Y-93603365D01*
X134903074Y-93603361D01*
X134903156Y-93600000D01*
X134884852Y-93377361D01*
X134830431Y-93160702D01*
X134741354Y-92955840D01*
X134653857Y-92820590D01*
X134622822Y-92772617D01*
X134622820Y-92772614D01*
X134620014Y-92768277D01*
X134469670Y-92603051D01*
X134465619Y-92599852D01*
X134465615Y-92599848D01*
X134298414Y-92467800D01*
X134298410Y-92467798D01*
X134294359Y-92464598D01*
X134285755Y-92459848D01*
X134185018Y-92404239D01*
X134098789Y-92356638D01*
X134093920Y-92354914D01*
X134093916Y-92354912D01*
X133893087Y-92283795D01*
X133893083Y-92283794D01*
X133888212Y-92282069D01*
X133883119Y-92281162D01*
X133883116Y-92281161D01*
X133673373Y-92243800D01*
X133673367Y-92243799D01*
X133668284Y-92242894D01*
X133594452Y-92241992D01*
X133450081Y-92240228D01*
X133450079Y-92240228D01*
X133444911Y-92240165D01*
X133224091Y-92273955D01*
X133211532Y-92278060D01*
X133140568Y-92280210D01*
X133083294Y-92247389D01*
X125394707Y-84558802D01*
X125360681Y-84496490D01*
X125358226Y-84480031D01*
X125346484Y-84337213D01*
X125344852Y-84317361D01*
X125290431Y-84100702D01*
X125201354Y-83895840D01*
X125156243Y-83826109D01*
X125082822Y-83712617D01*
X125082820Y-83712614D01*
X125080014Y-83708277D01*
X125076340Y-83704239D01*
X124932798Y-83546488D01*
X124901746Y-83482642D01*
X124910141Y-83412143D01*
X124955317Y-83357375D01*
X124981761Y-83343706D01*
X125088297Y-83303767D01*
X125096705Y-83300615D01*
X125213261Y-83213261D01*
X125300615Y-83096705D01*
X125351745Y-82960316D01*
X125358500Y-82898134D01*
X125358500Y-81101866D01*
X125351745Y-81039684D01*
X125300615Y-80903295D01*
X125213261Y-80786739D01*
X125096705Y-80699385D01*
X124960316Y-80648255D01*
X124898134Y-80641500D01*
X123101866Y-80641500D01*
X123039684Y-80648255D01*
X122903295Y-80699385D01*
X122786739Y-80786739D01*
X122699385Y-80903295D01*
X122648255Y-81039684D01*
X122641500Y-81101866D01*
X122641500Y-81284706D01*
X122621498Y-81352827D01*
X122567842Y-81399320D01*
X122548843Y-81406149D01*
X122541149Y-81407162D01*
X122393124Y-81468476D01*
X122297928Y-81541523D01*
X122297925Y-81541526D01*
X122266013Y-81566013D01*
X122260983Y-81572568D01*
X122246548Y-81591379D01*
X122235681Y-81603770D01*
X120903766Y-82935685D01*
X120891375Y-82946552D01*
X120866013Y-82966013D01*
X120841526Y-82997925D01*
X120841523Y-82997928D01*
X120841517Y-82997936D01*
X120809571Y-83039569D01*
X120768476Y-83093124D01*
X120708640Y-83237581D01*
X120707162Y-83241150D01*
X120691500Y-83360115D01*
X120691500Y-83360120D01*
X120686250Y-83400000D01*
X120687328Y-83408188D01*
X120690422Y-83431690D01*
X120691500Y-83448136D01*
X120691500Y-86181405D01*
X120671498Y-86249526D01*
X120617842Y-86296019D01*
X120547568Y-86306123D01*
X120482988Y-86276629D01*
X120476405Y-86270500D01*
X119140370Y-84934465D01*
X119106344Y-84872153D01*
X119103944Y-84834392D01*
X119120951Y-84640000D01*
X119101187Y-84414092D01*
X119042494Y-84195049D01*
X118981670Y-84064610D01*
X118948983Y-83994512D01*
X118948980Y-83994507D01*
X118946657Y-83989525D01*
X118842115Y-83840224D01*
X118819745Y-83808276D01*
X118819743Y-83808273D01*
X118816586Y-83803765D01*
X118656235Y-83643414D01*
X118649740Y-83638866D01*
X118474980Y-83516496D01*
X118474974Y-83516492D01*
X118470476Y-83513343D01*
X118264951Y-83417506D01*
X118259647Y-83416085D01*
X118259642Y-83416083D01*
X118131349Y-83381707D01*
X118070727Y-83344755D01*
X118039705Y-83280894D01*
X118048134Y-83210400D01*
X118093337Y-83155653D01*
X118131349Y-83138293D01*
X118259642Y-83103917D01*
X118259647Y-83103915D01*
X118264951Y-83102494D01*
X118470476Y-83006657D01*
X118474974Y-83003508D01*
X118474980Y-83003504D01*
X118651724Y-82879745D01*
X118651726Y-82879743D01*
X118656235Y-82876586D01*
X118816586Y-82716235D01*
X118843210Y-82678213D01*
X118896615Y-82601942D01*
X118946657Y-82530475D01*
X118948980Y-82525493D01*
X118948983Y-82525488D01*
X119040169Y-82329936D01*
X119042494Y-82324951D01*
X119101187Y-82105908D01*
X119120951Y-81880000D01*
X119101187Y-81654092D01*
X119042494Y-81435049D01*
X118995714Y-81334729D01*
X118948983Y-81234512D01*
X118948980Y-81234507D01*
X118946657Y-81229525D01*
X118854890Y-81098469D01*
X118819745Y-81048276D01*
X118819743Y-81048273D01*
X118816586Y-81043765D01*
X118656235Y-80883414D01*
X118649740Y-80878866D01*
X118474980Y-80756496D01*
X118474974Y-80756492D01*
X118470476Y-80753343D01*
X118264951Y-80657506D01*
X118259647Y-80656085D01*
X118259642Y-80656083D01*
X118095193Y-80612019D01*
X118045908Y-80598813D01*
X117820000Y-80579049D01*
X117594092Y-80598813D01*
X117375049Y-80657506D01*
X117291998Y-80696233D01*
X117174512Y-80751017D01*
X117174509Y-80751019D01*
X117169525Y-80753343D01*
X117111577Y-80793919D01*
X116988276Y-80880255D01*
X116988273Y-80880257D01*
X116983765Y-80883414D01*
X116823414Y-81043765D01*
X116820257Y-81048273D01*
X116820255Y-81048276D01*
X116785110Y-81098469D01*
X116693343Y-81229525D01*
X116691020Y-81234507D01*
X116691017Y-81234512D01*
X116644286Y-81334729D01*
X116597506Y-81435049D01*
X116538813Y-81654092D01*
X116519049Y-81880000D01*
X116538813Y-82105908D01*
X116597506Y-82324951D01*
X116599831Y-82329936D01*
X116691017Y-82525488D01*
X116691020Y-82525493D01*
X116693343Y-82530475D01*
X116743385Y-82601942D01*
X116796791Y-82678213D01*
X116823414Y-82716235D01*
X116983765Y-82876586D01*
X116988274Y-82879743D01*
X116988276Y-82879745D01*
X117165020Y-83003504D01*
X117165026Y-83003508D01*
X117169524Y-83006657D01*
X117375049Y-83102494D01*
X117380353Y-83103915D01*
X117380358Y-83103917D01*
X117508651Y-83138293D01*
X117569273Y-83175245D01*
X117600295Y-83239106D01*
X117591866Y-83309600D01*
X117546663Y-83364347D01*
X117508651Y-83381707D01*
X117488241Y-83387176D01*
X117375049Y-83417506D01*
X117285895Y-83459079D01*
X117174512Y-83511017D01*
X117174509Y-83511019D01*
X117169525Y-83513343D01*
X117090469Y-83568699D01*
X116988276Y-83640255D01*
X116988273Y-83640257D01*
X116983765Y-83643414D01*
X116823414Y-83803765D01*
X116820257Y-83808273D01*
X116820255Y-83808276D01*
X116797885Y-83840224D01*
X116693343Y-83989525D01*
X116691020Y-83994507D01*
X116691017Y-83994512D01*
X116658330Y-84064610D01*
X116597506Y-84195049D01*
X116538813Y-84414092D01*
X116519049Y-84640000D01*
X116538813Y-84865908D01*
X116597506Y-85084951D01*
X116629991Y-85154616D01*
X116691017Y-85285488D01*
X116691020Y-85285493D01*
X116693343Y-85290475D01*
X116731584Y-85345088D01*
X116814287Y-85463200D01*
X116823414Y-85476235D01*
X116983765Y-85636586D01*
X116988274Y-85639743D01*
X116988276Y-85639745D01*
X117165020Y-85763504D01*
X117165026Y-85763508D01*
X117169524Y-85766657D01*
X117375049Y-85862494D01*
X117380353Y-85863915D01*
X117380358Y-85863917D01*
X117508651Y-85898293D01*
X117569273Y-85935245D01*
X117600295Y-85999106D01*
X117591866Y-86069600D01*
X117546663Y-86124347D01*
X117508651Y-86141707D01*
X117375049Y-86177506D01*
X117278876Y-86222352D01*
X117174512Y-86271017D01*
X117174507Y-86271020D01*
X117169525Y-86273343D01*
X117117071Y-86310072D01*
X116988276Y-86400255D01*
X116988273Y-86400257D01*
X116983765Y-86403414D01*
X116823414Y-86563765D01*
X116820257Y-86568273D01*
X116820255Y-86568276D01*
X116792034Y-86608580D01*
X116693343Y-86749525D01*
X116691020Y-86754507D01*
X116691017Y-86754512D01*
X116650527Y-86841344D01*
X116597506Y-86955049D01*
X116538813Y-87174092D01*
X116519049Y-87400000D01*
X116538813Y-87625908D01*
X116597506Y-87844951D01*
X116599831Y-87849936D01*
X116691017Y-88045488D01*
X116691020Y-88045493D01*
X116693343Y-88050475D01*
X116732360Y-88106197D01*
X116780187Y-88174500D01*
X116823414Y-88236235D01*
X116983765Y-88396586D01*
X116988274Y-88399743D01*
X116988276Y-88399745D01*
X117165020Y-88523504D01*
X117165026Y-88523508D01*
X117169524Y-88526657D01*
X117375049Y-88622494D01*
X117380353Y-88623915D01*
X117380358Y-88623917D01*
X117508651Y-88658293D01*
X117569273Y-88695245D01*
X117600295Y-88759106D01*
X117591866Y-88829600D01*
X117546663Y-88884347D01*
X117508651Y-88901707D01*
X117375049Y-88937506D01*
X117278876Y-88982352D01*
X117174512Y-89031017D01*
X117174509Y-89031019D01*
X117169525Y-89033343D01*
X117088714Y-89089928D01*
X116988276Y-89160255D01*
X116988273Y-89160257D01*
X116983765Y-89163414D01*
X116823414Y-89323765D01*
X116693343Y-89509525D01*
X116691020Y-89514507D01*
X116691017Y-89514512D01*
X116681742Y-89534403D01*
X116597506Y-89715049D01*
X116538813Y-89934092D01*
X116519049Y-90160000D01*
X115202203Y-90160000D01*
X115208134Y-90110400D01*
X115253337Y-90055653D01*
X115291349Y-90038293D01*
X115419642Y-90003917D01*
X115419647Y-90003915D01*
X115424951Y-90002494D01*
X115630476Y-89906657D01*
X115634974Y-89903508D01*
X115634980Y-89903504D01*
X115811724Y-89779745D01*
X115811726Y-89779743D01*
X115816235Y-89776586D01*
X115976586Y-89616235D01*
X116106657Y-89430475D01*
X116108980Y-89425493D01*
X116108983Y-89425488D01*
X116180762Y-89271556D01*
X116202494Y-89224951D01*
X116261187Y-89005908D01*
X116280951Y-88780000D01*
X116261187Y-88554092D01*
X116202494Y-88335049D01*
X116127629Y-88174500D01*
X116108983Y-88134512D01*
X116108980Y-88134507D01*
X116106657Y-88129525D01*
X115976586Y-87943765D01*
X115816235Y-87783414D01*
X115811724Y-87780255D01*
X115634980Y-87656496D01*
X115634974Y-87656492D01*
X115630476Y-87653343D01*
X115424951Y-87557506D01*
X115419647Y-87556085D01*
X115419642Y-87556083D01*
X115291349Y-87521707D01*
X115230727Y-87484755D01*
X115199705Y-87420894D01*
X115208134Y-87350400D01*
X115253337Y-87295653D01*
X115291349Y-87278293D01*
X115419642Y-87243917D01*
X115419647Y-87243915D01*
X115424951Y-87242494D01*
X115630476Y-87146657D01*
X115634974Y-87143508D01*
X115634980Y-87143504D01*
X115811724Y-87019745D01*
X115811726Y-87019743D01*
X115816235Y-87016586D01*
X115976586Y-86856235D01*
X116106657Y-86670475D01*
X116108980Y-86665493D01*
X116108983Y-86665488D01*
X116186150Y-86500000D01*
X116202494Y-86464951D01*
X116261187Y-86245908D01*
X116280951Y-86020000D01*
X116261187Y-85794092D01*
X116202494Y-85575049D01*
X116150338Y-85463200D01*
X116108983Y-85374512D01*
X116108980Y-85374507D01*
X116106657Y-85369525D01*
X115982963Y-85192872D01*
X115979745Y-85188276D01*
X115979743Y-85188273D01*
X115976586Y-85183765D01*
X115816235Y-85023414D01*
X115805997Y-85016245D01*
X115634980Y-84896496D01*
X115634974Y-84896492D01*
X115630476Y-84893343D01*
X115424951Y-84797506D01*
X115419647Y-84796085D01*
X115419642Y-84796083D01*
X115291349Y-84761707D01*
X115230727Y-84724755D01*
X115199705Y-84660894D01*
X115208134Y-84590400D01*
X115253337Y-84535653D01*
X115291349Y-84518293D01*
X115419642Y-84483917D01*
X115419647Y-84483915D01*
X115424951Y-84482494D01*
X115630476Y-84386657D01*
X115634974Y-84383508D01*
X115634980Y-84383504D01*
X115811724Y-84259745D01*
X115811726Y-84259743D01*
X115816235Y-84256586D01*
X115976586Y-84096235D01*
X116014907Y-84041508D01*
X116077714Y-83951810D01*
X116106657Y-83910475D01*
X116108980Y-83905493D01*
X116108983Y-83905488D01*
X116171436Y-83771556D01*
X116202494Y-83704951D01*
X116261187Y-83485908D01*
X116280951Y-83260000D01*
X116261187Y-83034092D01*
X116202494Y-82815049D01*
X116154313Y-82711724D01*
X116108983Y-82614512D01*
X116108980Y-82614507D01*
X116106657Y-82609525D01*
X115985814Y-82436944D01*
X115979745Y-82428276D01*
X115979743Y-82428273D01*
X115976586Y-82423765D01*
X115816235Y-82263414D01*
X115811724Y-82260255D01*
X115634980Y-82136496D01*
X115634974Y-82136492D01*
X115630476Y-82133343D01*
X115424951Y-82037506D01*
X115419647Y-82036085D01*
X115419642Y-82036083D01*
X115243407Y-81988861D01*
X115205908Y-81978813D01*
X114980000Y-81959049D01*
X114754092Y-81978813D01*
X114535049Y-82037506D01*
X114475170Y-82065428D01*
X114334512Y-82131017D01*
X114334509Y-82131019D01*
X114329525Y-82133343D01*
X114247303Y-82190916D01*
X114148276Y-82260255D01*
X114148273Y-82260257D01*
X114143765Y-82263414D01*
X113983414Y-82423765D01*
X113980257Y-82428273D01*
X113980255Y-82428276D01*
X113974186Y-82436944D01*
X113853343Y-82609525D01*
X113851020Y-82614507D01*
X113851017Y-82614512D01*
X113805687Y-82711724D01*
X113757506Y-82815049D01*
X113698813Y-83034092D01*
X113679049Y-83260000D01*
X113698813Y-83485908D01*
X113757506Y-83704951D01*
X113788564Y-83771556D01*
X113851017Y-83905488D01*
X113851020Y-83905493D01*
X113853343Y-83910475D01*
X113882286Y-83951810D01*
X113945094Y-84041508D01*
X113983414Y-84096235D01*
X114143765Y-84256586D01*
X114148274Y-84259743D01*
X114148276Y-84259745D01*
X114325020Y-84383504D01*
X114325026Y-84383508D01*
X114329524Y-84386657D01*
X114535049Y-84482494D01*
X114540353Y-84483915D01*
X114540358Y-84483917D01*
X114668651Y-84518293D01*
X114729273Y-84555245D01*
X114760295Y-84619106D01*
X114751866Y-84689600D01*
X114706663Y-84744347D01*
X114668651Y-84761707D01*
X114535049Y-84797506D01*
X114455955Y-84834388D01*
X114334512Y-84891017D01*
X114334509Y-84891019D01*
X114329525Y-84893343D01*
X114239224Y-84956573D01*
X114148276Y-85020255D01*
X114148273Y-85020257D01*
X114143765Y-85023414D01*
X113983414Y-85183765D01*
X113980257Y-85188273D01*
X113980255Y-85188276D01*
X113977037Y-85192872D01*
X113853343Y-85369525D01*
X113851020Y-85374507D01*
X113851017Y-85374512D01*
X113809662Y-85463200D01*
X113757506Y-85575049D01*
X113698813Y-85794092D01*
X113679049Y-86020000D01*
X113698813Y-86245908D01*
X113757506Y-86464951D01*
X113773850Y-86500000D01*
X113851017Y-86665488D01*
X113851020Y-86665493D01*
X113853343Y-86670475D01*
X113983414Y-86856235D01*
X114143765Y-87016586D01*
X114148274Y-87019743D01*
X114148276Y-87019745D01*
X114325020Y-87143504D01*
X114325026Y-87143508D01*
X114329524Y-87146657D01*
X114535049Y-87242494D01*
X114540353Y-87243915D01*
X114540358Y-87243917D01*
X114668651Y-87278293D01*
X114729273Y-87315245D01*
X114760295Y-87379106D01*
X114751866Y-87449600D01*
X114706663Y-87504347D01*
X114668651Y-87521707D01*
X114535049Y-87557506D01*
X114478209Y-87584011D01*
X114334512Y-87651017D01*
X114334509Y-87651019D01*
X114329525Y-87653343D01*
X114225620Y-87726098D01*
X114148276Y-87780255D01*
X114148273Y-87780257D01*
X114143765Y-87783414D01*
X113983414Y-87943765D01*
X113853343Y-88129525D01*
X113851020Y-88134507D01*
X113851017Y-88134512D01*
X113832371Y-88174500D01*
X113757506Y-88335049D01*
X113698813Y-88554092D01*
X113679049Y-88780000D01*
X113698813Y-89005908D01*
X113757506Y-89224951D01*
X113779238Y-89271556D01*
X113851017Y-89425488D01*
X113851020Y-89425493D01*
X113853343Y-89430475D01*
X113983414Y-89616235D01*
X114143765Y-89776586D01*
X114148274Y-89779743D01*
X114148276Y-89779745D01*
X114325020Y-89903504D01*
X114325026Y-89903508D01*
X114329524Y-89906657D01*
X114535049Y-90002494D01*
X114540353Y-90003915D01*
X114540358Y-90003917D01*
X114668651Y-90038293D01*
X114729273Y-90075245D01*
X114760295Y-90139106D01*
X114751866Y-90209600D01*
X114706663Y-90264347D01*
X114668651Y-90281707D01*
X114535049Y-90317506D01*
X114438876Y-90362352D01*
X114334512Y-90411017D01*
X114334509Y-90411019D01*
X114329525Y-90413343D01*
X114225620Y-90486098D01*
X114148276Y-90540255D01*
X114148273Y-90540257D01*
X114143765Y-90543414D01*
X113983414Y-90703765D01*
X113853343Y-90889525D01*
X113851020Y-90894507D01*
X113851017Y-90894512D01*
X113824022Y-90952404D01*
X113757506Y-91095049D01*
X113698813Y-91314092D01*
X113679049Y-91540000D01*
X110508500Y-91540000D01*
X110508500Y-74805341D01*
X113387888Y-74805341D01*
X113387983Y-74808971D01*
X113387983Y-74808972D01*
X113390367Y-74900000D01*
X113396970Y-75152171D01*
X113445856Y-75495660D01*
X113533897Y-75831253D01*
X113659927Y-76154503D01*
X113661624Y-76157708D01*
X113795113Y-76409825D01*
X113822275Y-76461126D01*
X113824325Y-76464109D01*
X113824327Y-76464112D01*
X114016733Y-76744064D01*
X114016739Y-76744071D01*
X114018790Y-76747056D01*
X114246866Y-77008505D01*
X114368082Y-77118803D01*
X114459268Y-77201775D01*
X114503481Y-77242006D01*
X114785233Y-77444466D01*
X115088388Y-77613200D01*
X115408928Y-77745972D01*
X115412422Y-77746967D01*
X115412424Y-77746968D01*
X115739103Y-77840025D01*
X115739108Y-77840026D01*
X115742604Y-77841022D01*
X115939304Y-77873233D01*
X116081412Y-77896504D01*
X116081419Y-77896505D01*
X116084993Y-77897090D01*
X116258276Y-77905262D01*
X116427931Y-77913263D01*
X116427932Y-77913263D01*
X116431558Y-77913434D01*
X116440415Y-77912830D01*
X116774073Y-77890084D01*
X116774081Y-77890083D01*
X116777704Y-77889836D01*
X116781279Y-77889173D01*
X116781282Y-77889173D01*
X117115279Y-77827270D01*
X117115283Y-77827269D01*
X117118844Y-77826609D01*
X117450456Y-77724592D01*
X117768145Y-77585136D01*
X118012511Y-77442341D01*
X118064560Y-77411926D01*
X118064562Y-77411925D01*
X118067700Y-77410091D01*
X118070609Y-77407907D01*
X118342244Y-77203958D01*
X118342248Y-77203955D01*
X118345151Y-77201775D01*
X118596819Y-76962950D01*
X118819370Y-76696783D01*
X119009853Y-76406799D01*
X119050994Y-76325000D01*
X137961496Y-76325000D01*
X137981458Y-76514928D01*
X138040473Y-76696556D01*
X138135960Y-76861944D01*
X138263747Y-77003866D01*
X138418248Y-77116118D01*
X138424276Y-77118802D01*
X138424278Y-77118803D01*
X138586681Y-77191109D01*
X138592712Y-77193794D01*
X138686112Y-77213647D01*
X138773056Y-77232128D01*
X138773061Y-77232128D01*
X138779513Y-77233500D01*
X138870761Y-77233500D01*
X138938882Y-77253502D01*
X138959856Y-77270405D01*
X142285929Y-80596478D01*
X142319955Y-80658790D01*
X142314890Y-80729605D01*
X142272343Y-80786441D01*
X142223033Y-80808819D01*
X142117712Y-80831206D01*
X142111682Y-80833891D01*
X142111681Y-80833891D01*
X141949278Y-80906197D01*
X141949276Y-80906198D01*
X141943248Y-80908882D01*
X141937907Y-80912762D01*
X141937906Y-80912763D01*
X141907805Y-80934633D01*
X141788747Y-81021134D01*
X141784326Y-81026044D01*
X141784325Y-81026045D01*
X141692073Y-81128502D01*
X141660960Y-81163056D01*
X141627429Y-81221134D01*
X141597621Y-81272763D01*
X141565473Y-81328444D01*
X141506458Y-81510072D01*
X141505768Y-81516633D01*
X141505768Y-81516635D01*
X141499889Y-81572568D01*
X141490746Y-81659569D01*
X141489093Y-81675293D01*
X141462080Y-81740950D01*
X141452878Y-81751218D01*
X140630140Y-82573955D01*
X139807747Y-83396348D01*
X139799461Y-83403888D01*
X139792982Y-83408000D01*
X139750032Y-83453738D01*
X139746357Y-83457651D01*
X139743602Y-83460493D01*
X139723865Y-83480230D01*
X139721385Y-83483427D01*
X139713682Y-83492447D01*
X139683414Y-83524679D01*
X139679595Y-83531625D01*
X139679593Y-83531628D01*
X139673652Y-83542434D01*
X139662801Y-83558953D01*
X139650386Y-83574959D01*
X139647241Y-83582228D01*
X139647238Y-83582232D01*
X139632826Y-83615537D01*
X139627609Y-83626187D01*
X139606305Y-83664940D01*
X139604334Y-83672615D01*
X139604334Y-83672616D01*
X139601267Y-83684562D01*
X139594863Y-83703266D01*
X139590817Y-83712617D01*
X139586819Y-83721855D01*
X139585580Y-83729678D01*
X139585577Y-83729688D01*
X139579901Y-83765524D01*
X139577495Y-83777144D01*
X139569502Y-83808276D01*
X139566500Y-83819970D01*
X139566500Y-83840224D01*
X139564949Y-83859934D01*
X139561780Y-83879943D01*
X139564493Y-83908638D01*
X139565941Y-83923961D01*
X139566500Y-83935819D01*
X139566500Y-85197476D01*
X139546498Y-85265597D01*
X139534142Y-85281779D01*
X139460960Y-85363056D01*
X139427429Y-85421134D01*
X139371942Y-85517240D01*
X139365473Y-85528444D01*
X139306458Y-85710072D01*
X139305768Y-85716633D01*
X139305768Y-85716635D01*
X139289295Y-85873368D01*
X139286496Y-85900000D01*
X139287186Y-85906565D01*
X139299831Y-86026872D01*
X139306458Y-86089928D01*
X139365473Y-86271556D01*
X139460960Y-86436944D01*
X139465378Y-86441851D01*
X139465379Y-86441852D01*
X139511825Y-86493435D01*
X139588747Y-86578866D01*
X139594722Y-86583207D01*
X139722037Y-86675707D01*
X139743248Y-86691118D01*
X139749276Y-86693802D01*
X139749278Y-86693803D01*
X139885634Y-86754512D01*
X139917712Y-86768794D01*
X140011112Y-86788647D01*
X140098056Y-86807128D01*
X140098061Y-86807128D01*
X140104513Y-86808500D01*
X140295487Y-86808500D01*
X140301939Y-86807128D01*
X140301944Y-86807128D01*
X140414303Y-86783245D01*
X140485094Y-86788647D01*
X140541727Y-86831464D01*
X140566220Y-86898102D01*
X140566500Y-86906492D01*
X140566500Y-102497476D01*
X140546498Y-102565597D01*
X140534142Y-102581779D01*
X140460960Y-102663056D01*
X140365473Y-102828444D01*
X140306458Y-103010072D01*
X140305768Y-103016633D01*
X140305768Y-103016635D01*
X140304920Y-103024708D01*
X140286496Y-103200000D01*
X140287186Y-103206565D01*
X140305129Y-103377279D01*
X140306458Y-103389928D01*
X140365473Y-103571556D01*
X140460960Y-103736944D01*
X140465378Y-103741851D01*
X140465379Y-103741852D01*
X140579678Y-103868794D01*
X140588747Y-103878866D01*
X140743248Y-103991118D01*
X140749276Y-103993802D01*
X140749278Y-103993803D01*
X140872766Y-104048783D01*
X140917712Y-104068794D01*
X141011113Y-104088647D01*
X141098056Y-104107128D01*
X141098061Y-104107128D01*
X141104513Y-104108500D01*
X141295487Y-104108500D01*
X141301939Y-104107128D01*
X141301944Y-104107128D01*
X141388887Y-104088647D01*
X141482288Y-104068794D01*
X141527234Y-104048783D01*
X141650722Y-103993803D01*
X141650724Y-103993802D01*
X141656752Y-103991118D01*
X141811253Y-103878866D01*
X141820322Y-103868794D01*
X141826929Y-103861457D01*
X141887375Y-103824218D01*
X141958359Y-103825571D01*
X142017343Y-103865087D01*
X142029682Y-103882769D01*
X142060960Y-103936944D01*
X142065378Y-103941851D01*
X142065379Y-103941852D01*
X142179678Y-104068794D01*
X142188747Y-104078866D01*
X142250000Y-104123369D01*
X142335385Y-104185405D01*
X142343248Y-104191118D01*
X142349276Y-104193802D01*
X142349278Y-104193803D01*
X142483419Y-104253526D01*
X142517712Y-104268794D01*
X142586263Y-104283365D01*
X142698056Y-104307128D01*
X142698061Y-104307128D01*
X142704513Y-104308500D01*
X142895487Y-104308500D01*
X142901939Y-104307128D01*
X142901944Y-104307128D01*
X143013737Y-104283365D01*
X143082288Y-104268794D01*
X143116581Y-104253526D01*
X143250722Y-104193803D01*
X143250724Y-104193802D01*
X143256752Y-104191118D01*
X143275940Y-104177177D01*
X143342808Y-104153319D01*
X143411959Y-104169400D01*
X143424060Y-104177177D01*
X143443248Y-104191118D01*
X143449276Y-104193802D01*
X143449278Y-104193803D01*
X143583419Y-104253526D01*
X143617712Y-104268794D01*
X143686263Y-104283365D01*
X143798056Y-104307128D01*
X143798061Y-104307128D01*
X143804513Y-104308500D01*
X143995487Y-104308500D01*
X144001939Y-104307128D01*
X144001944Y-104307128D01*
X144113737Y-104283365D01*
X144182288Y-104268794D01*
X144216581Y-104253526D01*
X144350722Y-104193803D01*
X144350724Y-104193802D01*
X144356752Y-104191118D01*
X144364616Y-104185405D01*
X144450000Y-104123369D01*
X144511253Y-104078866D01*
X144520322Y-104068794D01*
X144634621Y-103941852D01*
X144634622Y-103941851D01*
X144639040Y-103936944D01*
X144734527Y-103771556D01*
X144793542Y-103589928D01*
X144794872Y-103577279D01*
X144812814Y-103406565D01*
X144813504Y-103400000D01*
X144803533Y-103305133D01*
X144794232Y-103216635D01*
X144794232Y-103216633D01*
X144793542Y-103210072D01*
X144734527Y-103028444D01*
X144708911Y-102984075D01*
X144683381Y-102939857D01*
X144639040Y-102863056D01*
X144597243Y-102816635D01*
X144515675Y-102726045D01*
X144515674Y-102726044D01*
X144511253Y-102721134D01*
X144505911Y-102717253D01*
X144505909Y-102717251D01*
X144460928Y-102684571D01*
X144417574Y-102628349D01*
X144408989Y-102582635D01*
X144408989Y-96334500D01*
X144428991Y-96266379D01*
X144482647Y-96219886D01*
X144534989Y-96208500D01*
X144595487Y-96208500D01*
X144601939Y-96207128D01*
X144601944Y-96207128D01*
X144688887Y-96188647D01*
X144782288Y-96168794D01*
X144788319Y-96166109D01*
X144950722Y-96093803D01*
X144950724Y-96093802D01*
X144956752Y-96091118D01*
X145111253Y-95978866D01*
X145134493Y-95953056D01*
X145137074Y-95950189D01*
X145197520Y-95912950D01*
X145230710Y-95908500D01*
X145569290Y-95908500D01*
X145637411Y-95928502D01*
X145662926Y-95950189D01*
X145665508Y-95953056D01*
X145688747Y-95978866D01*
X145843248Y-96091118D01*
X145849276Y-96093802D01*
X145849278Y-96093803D01*
X146011681Y-96166109D01*
X146017712Y-96168794D01*
X146111112Y-96188647D01*
X146198056Y-96207128D01*
X146198061Y-96207128D01*
X146204513Y-96208500D01*
X146395487Y-96208500D01*
X146401939Y-96207128D01*
X146401944Y-96207128D01*
X146488887Y-96188647D01*
X146582288Y-96168794D01*
X146588319Y-96166109D01*
X146750722Y-96093803D01*
X146750724Y-96093802D01*
X146756752Y-96091118D01*
X146911253Y-95978866D01*
X146929344Y-95958774D01*
X147034621Y-95841852D01*
X147034622Y-95841851D01*
X147039040Y-95836944D01*
X147134527Y-95671556D01*
X147193542Y-95489928D01*
X147213504Y-95300000D01*
X147210227Y-95268822D01*
X147194232Y-95116635D01*
X147194232Y-95116633D01*
X147193542Y-95110072D01*
X147134527Y-94928444D01*
X147110833Y-94887404D01*
X147068026Y-94813261D01*
X147039040Y-94763056D01*
X146981711Y-94699385D01*
X146915675Y-94626045D01*
X146915674Y-94626044D01*
X146911253Y-94621134D01*
X146775658Y-94522618D01*
X146762094Y-94512763D01*
X146762093Y-94512762D01*
X146756752Y-94508882D01*
X146750724Y-94506198D01*
X146750722Y-94506197D01*
X146588319Y-94433891D01*
X146588318Y-94433891D01*
X146582288Y-94431206D01*
X146488887Y-94411353D01*
X146401944Y-94392872D01*
X146401939Y-94392872D01*
X146395487Y-94391500D01*
X146204513Y-94391500D01*
X146198061Y-94392872D01*
X146198056Y-94392872D01*
X146111113Y-94411353D01*
X146017712Y-94431206D01*
X146011682Y-94433891D01*
X146011681Y-94433891D01*
X145849278Y-94506197D01*
X145849276Y-94506198D01*
X145843248Y-94508882D01*
X145837907Y-94512762D01*
X145837906Y-94512763D01*
X145749162Y-94577240D01*
X145688747Y-94621134D01*
X145684334Y-94626036D01*
X145684332Y-94626037D01*
X145662926Y-94649811D01*
X145602480Y-94687050D01*
X145569290Y-94691500D01*
X145230710Y-94691500D01*
X145162589Y-94671498D01*
X145137074Y-94649811D01*
X145115668Y-94626037D01*
X145115666Y-94626036D01*
X145111253Y-94621134D01*
X145032140Y-94563655D01*
X144988786Y-94507433D01*
X144982711Y-94436697D01*
X145012565Y-94377409D01*
X145134621Y-94241852D01*
X145134622Y-94241851D01*
X145139040Y-94236944D01*
X145201809Y-94128225D01*
X145231223Y-94077279D01*
X145231224Y-94077278D01*
X145234527Y-94071556D01*
X145293542Y-93889928D01*
X145296490Y-93861885D01*
X145312814Y-93706565D01*
X145313504Y-93700000D01*
X145312814Y-93693435D01*
X145294232Y-93516635D01*
X145294232Y-93516633D01*
X145293542Y-93510072D01*
X145234527Y-93328444D01*
X145139040Y-93163056D01*
X145132646Y-93155954D01*
X145015675Y-93026045D01*
X145015674Y-93026044D01*
X145011253Y-93021134D01*
X144856752Y-92908882D01*
X144850724Y-92906198D01*
X144850722Y-92906197D01*
X144688319Y-92833891D01*
X144688318Y-92833891D01*
X144682288Y-92831206D01*
X144586173Y-92810776D01*
X144501944Y-92792872D01*
X144501939Y-92792872D01*
X144495487Y-92791500D01*
X144304513Y-92791500D01*
X144298060Y-92792872D01*
X144298047Y-92792873D01*
X144188415Y-92816177D01*
X144117625Y-92810776D01*
X144060992Y-92767960D01*
X144036777Y-92704790D01*
X144034059Y-92676040D01*
X144033500Y-92664181D01*
X144033500Y-89602524D01*
X144053502Y-89534403D01*
X144065858Y-89518221D01*
X144139040Y-89436944D01*
X144234527Y-89271556D01*
X144293542Y-89089928D01*
X144299158Y-89036500D01*
X144312814Y-88906565D01*
X144313504Y-88900000D01*
X144311277Y-88878813D01*
X144294232Y-88716635D01*
X144294232Y-88716633D01*
X144293542Y-88710072D01*
X144234527Y-88528444D01*
X144139040Y-88363056D01*
X144118605Y-88340360D01*
X144015675Y-88226045D01*
X144015674Y-88226044D01*
X144011253Y-88221134D01*
X143856752Y-88108882D01*
X143850724Y-88106198D01*
X143850722Y-88106197D01*
X143688319Y-88033891D01*
X143688318Y-88033891D01*
X143682288Y-88031206D01*
X143588887Y-88011353D01*
X143501944Y-87992872D01*
X143501939Y-87992872D01*
X143495487Y-87991500D01*
X143304513Y-87991500D01*
X143298061Y-87992872D01*
X143298056Y-87992872D01*
X143211112Y-88011353D01*
X143117712Y-88031206D01*
X143111682Y-88033891D01*
X143111681Y-88033891D01*
X142949278Y-88106197D01*
X142949276Y-88106198D01*
X142943248Y-88108882D01*
X142788747Y-88221134D01*
X142784326Y-88226044D01*
X142784325Y-88226045D01*
X142681396Y-88340360D01*
X142660960Y-88363056D01*
X142565473Y-88528444D01*
X142506458Y-88710072D01*
X142505768Y-88716633D01*
X142505768Y-88716635D01*
X142488723Y-88878813D01*
X142486496Y-88900000D01*
X142487186Y-88906565D01*
X142500843Y-89036500D01*
X142506458Y-89089928D01*
X142565473Y-89271556D01*
X142660960Y-89436944D01*
X142734137Y-89518215D01*
X142764853Y-89582221D01*
X142766500Y-89602524D01*
X142766500Y-92276291D01*
X142746498Y-92344412D01*
X142692842Y-92390905D01*
X142666696Y-92399538D01*
X142517712Y-92431206D01*
X142511682Y-92433891D01*
X142511681Y-92433891D01*
X142349278Y-92506197D01*
X142349276Y-92506198D01*
X142343248Y-92508882D01*
X142337907Y-92512762D01*
X142337906Y-92512763D01*
X142308841Y-92533880D01*
X142188747Y-92621134D01*
X142184326Y-92626044D01*
X142184325Y-92626045D01*
X142164971Y-92647540D01*
X142060960Y-92763056D01*
X142060037Y-92764654D01*
X142005215Y-92806929D01*
X141934479Y-92813006D01*
X141871687Y-92779874D01*
X141836775Y-92718055D01*
X141833500Y-92689515D01*
X141833500Y-87080801D01*
X141853502Y-87012680D01*
X141907158Y-86966187D01*
X141977432Y-86956083D01*
X142005375Y-86964144D01*
X142005400Y-86964068D01*
X142007665Y-86964804D01*
X142010747Y-86965693D01*
X142017712Y-86968794D01*
X142111112Y-86988647D01*
X142198056Y-87007128D01*
X142198061Y-87007128D01*
X142204513Y-87008500D01*
X142395487Y-87008500D01*
X142401939Y-87007128D01*
X142401944Y-87007128D01*
X142488888Y-86988647D01*
X142582288Y-86968794D01*
X142595187Y-86963051D01*
X142750722Y-86893803D01*
X142750724Y-86893802D01*
X142756752Y-86891118D01*
X142766500Y-86884036D01*
X142897791Y-86788647D01*
X142911253Y-86778866D01*
X142915668Y-86773963D01*
X142920580Y-86769540D01*
X142921705Y-86770789D01*
X142975014Y-86737949D01*
X143008200Y-86733500D01*
X143370735Y-86733500D01*
X143381918Y-86734027D01*
X143389411Y-86735702D01*
X143397337Y-86735453D01*
X143397338Y-86735453D01*
X143457488Y-86733562D01*
X143461447Y-86733500D01*
X143489358Y-86733500D01*
X143493293Y-86733003D01*
X143493358Y-86732995D01*
X143505195Y-86732062D01*
X143537453Y-86731048D01*
X143541472Y-86730922D01*
X143549391Y-86730673D01*
X143568845Y-86725021D01*
X143588202Y-86721013D01*
X143600432Y-86719468D01*
X143600433Y-86719468D01*
X143608299Y-86718474D01*
X143615670Y-86715555D01*
X143615672Y-86715555D01*
X143649414Y-86702196D01*
X143660644Y-86698351D01*
X143695485Y-86688229D01*
X143695486Y-86688229D01*
X143703095Y-86686018D01*
X143709914Y-86681985D01*
X143709919Y-86681983D01*
X143720530Y-86675707D01*
X143738278Y-86667012D01*
X143757119Y-86659552D01*
X143792889Y-86633564D01*
X143802809Y-86627048D01*
X143834037Y-86608580D01*
X143834040Y-86608578D01*
X143840864Y-86604542D01*
X143855185Y-86590221D01*
X143870219Y-86577380D01*
X143880196Y-86570131D01*
X143886609Y-86565472D01*
X143914800Y-86531395D01*
X143922790Y-86522616D01*
X143945406Y-86500000D01*
X144786496Y-86500000D01*
X144787186Y-86506565D01*
X144792736Y-86559366D01*
X144806458Y-86689928D01*
X144865473Y-86871556D01*
X144960960Y-87036944D01*
X145034137Y-87118215D01*
X145064853Y-87182221D01*
X145066500Y-87202524D01*
X145066500Y-88321233D01*
X145065973Y-88332416D01*
X145064298Y-88339909D01*
X145064547Y-88347835D01*
X145064547Y-88347836D01*
X145066438Y-88407986D01*
X145066500Y-88411945D01*
X145066500Y-88439856D01*
X145066997Y-88443790D01*
X145066997Y-88443791D01*
X145067005Y-88443856D01*
X145067938Y-88455693D01*
X145069327Y-88499889D01*
X145074978Y-88519339D01*
X145078987Y-88538700D01*
X145081526Y-88558797D01*
X145084445Y-88566168D01*
X145084445Y-88566170D01*
X145097804Y-88599912D01*
X145101649Y-88611142D01*
X145111771Y-88645983D01*
X145113982Y-88653593D01*
X145118015Y-88660412D01*
X145118017Y-88660417D01*
X145124293Y-88671028D01*
X145132988Y-88688776D01*
X145140448Y-88707617D01*
X145145110Y-88714033D01*
X145145110Y-88714034D01*
X145166436Y-88743387D01*
X145172952Y-88753307D01*
X145176382Y-88759106D01*
X145195458Y-88791362D01*
X145209779Y-88805683D01*
X145222619Y-88820716D01*
X145234528Y-88837107D01*
X145240634Y-88842158D01*
X145268605Y-88865298D01*
X145277384Y-88873288D01*
X147958256Y-91554160D01*
X147992282Y-91616472D01*
X147994471Y-91630085D01*
X148008171Y-91760431D01*
X148011836Y-91795306D01*
X148070851Y-91976934D01*
X148074154Y-91982656D01*
X148074155Y-91982657D01*
X148078358Y-91989936D01*
X148166338Y-92142322D01*
X148170756Y-92147229D01*
X148170757Y-92147230D01*
X148256893Y-92242894D01*
X148294125Y-92284244D01*
X148376939Y-92344412D01*
X148441750Y-92391500D01*
X148448626Y-92396496D01*
X148454654Y-92399180D01*
X148454656Y-92399181D01*
X148601586Y-92464598D01*
X148623090Y-92474172D01*
X148716490Y-92494025D01*
X148803434Y-92512506D01*
X148803439Y-92512506D01*
X148809891Y-92513878D01*
X148865784Y-92513878D01*
X148933905Y-92533880D01*
X148954879Y-92550783D01*
X154469441Y-98065346D01*
X154503467Y-98127658D01*
X154498402Y-98198473D01*
X154455855Y-98255309D01*
X154431594Y-98269548D01*
X154349281Y-98306195D01*
X154349274Y-98306199D01*
X154343248Y-98308882D01*
X154188747Y-98421134D01*
X154184326Y-98426044D01*
X154184325Y-98426045D01*
X154066506Y-98556897D01*
X154060960Y-98563056D01*
X153965473Y-98728444D01*
X153906458Y-98910072D01*
X153905768Y-98916633D01*
X153905768Y-98916635D01*
X153900156Y-98970032D01*
X153886496Y-99100000D01*
X153886684Y-99101786D01*
X153867184Y-99168196D01*
X153850281Y-99189170D01*
X150885345Y-102154106D01*
X150823033Y-102188132D01*
X150796250Y-102191011D01*
X150581221Y-102191011D01*
X150513100Y-102171009D01*
X150466607Y-102117353D01*
X150456503Y-102047079D01*
X150471861Y-102003448D01*
X150474124Y-102000530D01*
X150491687Y-101959946D01*
X150496894Y-101949316D01*
X150518206Y-101910549D01*
X150520177Y-101902872D01*
X150520179Y-101902867D01*
X150523243Y-101890931D01*
X150529649Y-101872219D01*
X150534544Y-101860908D01*
X150537692Y-101853634D01*
X150538932Y-101845806D01*
X150538934Y-101845799D01*
X150544610Y-101809965D01*
X150547016Y-101798345D01*
X150556039Y-101763200D01*
X150556039Y-101763199D01*
X150558011Y-101755519D01*
X150558011Y-101735265D01*
X150559562Y-101715554D01*
X150561491Y-101703375D01*
X150562731Y-101695546D01*
X150558570Y-101651527D01*
X150558011Y-101639670D01*
X150558011Y-95403279D01*
X150558538Y-95392096D01*
X150560213Y-95384603D01*
X150558073Y-95316512D01*
X150558011Y-95312555D01*
X150558011Y-95284655D01*
X150557507Y-95280664D01*
X150556574Y-95268822D01*
X150555434Y-95232547D01*
X150555185Y-95224622D01*
X150549532Y-95205163D01*
X150545523Y-95185804D01*
X150545357Y-95184494D01*
X150542985Y-95165714D01*
X150540069Y-95158348D01*
X150540067Y-95158342D01*
X150526711Y-95124609D01*
X150522866Y-95113379D01*
X150512741Y-95078528D01*
X150512741Y-95078527D01*
X150510530Y-95070918D01*
X150500216Y-95053477D01*
X150491519Y-95035724D01*
X150486983Y-95024269D01*
X150484063Y-95016894D01*
X150458074Y-94981123D01*
X150451558Y-94971203D01*
X150445969Y-94961753D01*
X150429053Y-94933149D01*
X150414732Y-94918828D01*
X150401891Y-94903794D01*
X150401617Y-94903417D01*
X150389983Y-94887404D01*
X150355906Y-94859213D01*
X150347127Y-94851223D01*
X149659421Y-94163517D01*
X149625395Y-94101205D01*
X149623206Y-94087592D01*
X149620683Y-94063581D01*
X149605841Y-93922371D01*
X149546826Y-93740743D01*
X149451339Y-93575355D01*
X149437242Y-93559698D01*
X149327974Y-93438344D01*
X149327973Y-93438343D01*
X149323552Y-93433433D01*
X149169051Y-93321181D01*
X149163023Y-93318497D01*
X149163021Y-93318496D01*
X149000618Y-93246190D01*
X149000617Y-93246190D01*
X148994587Y-93243505D01*
X148901187Y-93223652D01*
X148814243Y-93205171D01*
X148814238Y-93205171D01*
X148807786Y-93203799D01*
X148616812Y-93203799D01*
X148610360Y-93205171D01*
X148610355Y-93205171D01*
X148523411Y-93223652D01*
X148430011Y-93243505D01*
X148423981Y-93246190D01*
X148423980Y-93246190D01*
X148261577Y-93318496D01*
X148261575Y-93318497D01*
X148255547Y-93321181D01*
X148101046Y-93433433D01*
X148096625Y-93438343D01*
X148096624Y-93438344D01*
X147987357Y-93559698D01*
X147973259Y-93575355D01*
X147877772Y-93740743D01*
X147818757Y-93922371D01*
X147818067Y-93928932D01*
X147818067Y-93928934D01*
X147810333Y-94002524D01*
X147798795Y-94112299D01*
X147799485Y-94118864D01*
X147817086Y-94286324D01*
X147818757Y-94302227D01*
X147877772Y-94483855D01*
X147973259Y-94649243D01*
X147977677Y-94654150D01*
X147977678Y-94654151D01*
X148080091Y-94767892D01*
X148101046Y-94791165D01*
X148255547Y-94903417D01*
X148261575Y-94906101D01*
X148261577Y-94906102D01*
X148423980Y-94978408D01*
X148430011Y-94981093D01*
X148523411Y-95000946D01*
X148610355Y-95019427D01*
X148610360Y-95019427D01*
X148616812Y-95020799D01*
X148672705Y-95020799D01*
X148740826Y-95040801D01*
X148761800Y-95057704D01*
X149254106Y-95550010D01*
X149288132Y-95612322D01*
X149291011Y-95639105D01*
X149291011Y-96465500D01*
X149271009Y-96533621D01*
X149217353Y-96580114D01*
X149165011Y-96591500D01*
X149104513Y-96591500D01*
X149098061Y-96592872D01*
X149098056Y-96592872D01*
X149011112Y-96611353D01*
X148917712Y-96631206D01*
X148911682Y-96633891D01*
X148911681Y-96633891D01*
X148749278Y-96706197D01*
X148749276Y-96706198D01*
X148743248Y-96708882D01*
X148588747Y-96821134D01*
X148584326Y-96826044D01*
X148584325Y-96826045D01*
X148470501Y-96952460D01*
X148460960Y-96963056D01*
X148426788Y-97022243D01*
X148383798Y-97096705D01*
X148365473Y-97128444D01*
X148306458Y-97310072D01*
X148305768Y-97316633D01*
X148305768Y-97316635D01*
X148301619Y-97356109D01*
X148286496Y-97500000D01*
X148287186Y-97506565D01*
X148303632Y-97663037D01*
X148306458Y-97689928D01*
X148365473Y-97871556D01*
X148370315Y-97879942D01*
X148391224Y-97916158D01*
X148407961Y-97985153D01*
X148384740Y-98052245D01*
X148371199Y-98068252D01*
X148240234Y-98199217D01*
X148177922Y-98233243D01*
X148151139Y-98236122D01*
X148059891Y-98236122D01*
X148053439Y-98237494D01*
X148053434Y-98237494D01*
X147969624Y-98255309D01*
X147873090Y-98275828D01*
X147867060Y-98278513D01*
X147867059Y-98278513D01*
X147704656Y-98350819D01*
X147704654Y-98350820D01*
X147698626Y-98353504D01*
X147544125Y-98465756D01*
X147539704Y-98470666D01*
X147539703Y-98470667D01*
X147456219Y-98563386D01*
X147416338Y-98607678D01*
X147320851Y-98773066D01*
X147261836Y-98954694D01*
X147261146Y-98961255D01*
X147261146Y-98961257D01*
X147244459Y-99120023D01*
X147241874Y-99144622D01*
X147242564Y-99151187D01*
X147258888Y-99306498D01*
X147261836Y-99334550D01*
X147320851Y-99516178D01*
X147416338Y-99681566D01*
X147420756Y-99686473D01*
X147420757Y-99686474D01*
X147538425Y-99817158D01*
X147544125Y-99823488D01*
X147698626Y-99935740D01*
X147704654Y-99938424D01*
X147704656Y-99938425D01*
X147862048Y-100008500D01*
X147873090Y-100013416D01*
X147966490Y-100033269D01*
X148053434Y-100051750D01*
X148053439Y-100051750D01*
X148059891Y-100053122D01*
X148250865Y-100053122D01*
X148257317Y-100051750D01*
X148257322Y-100051750D01*
X148344266Y-100033269D01*
X148437666Y-100013416D01*
X148448708Y-100008500D01*
X148606100Y-99938425D01*
X148606102Y-99938424D01*
X148612130Y-99935740D01*
X148766631Y-99823488D01*
X148772331Y-99817158D01*
X148889999Y-99686474D01*
X148890000Y-99686473D01*
X148894418Y-99681566D01*
X148989905Y-99516178D01*
X149045178Y-99346065D01*
X149085252Y-99287461D01*
X149150648Y-99259824D01*
X149220605Y-99271931D01*
X149272911Y-99319937D01*
X149291011Y-99385003D01*
X149291011Y-101116745D01*
X149271009Y-101184866D01*
X149216260Y-101231852D01*
X149049278Y-101306197D01*
X149049276Y-101306198D01*
X149043248Y-101308882D01*
X148888747Y-101421134D01*
X148884326Y-101426044D01*
X148884325Y-101426045D01*
X148829046Y-101487439D01*
X148768600Y-101524679D01*
X148709213Y-101526376D01*
X148542205Y-101490877D01*
X148542200Y-101490877D01*
X148535748Y-101489505D01*
X148344774Y-101489505D01*
X148338322Y-101490877D01*
X148338317Y-101490877D01*
X148251373Y-101509358D01*
X148157973Y-101529211D01*
X148151943Y-101531896D01*
X148151942Y-101531896D01*
X147989539Y-101604202D01*
X147989537Y-101604203D01*
X147983509Y-101606887D01*
X147829008Y-101719139D01*
X147824587Y-101724049D01*
X147824586Y-101724050D01*
X147811076Y-101739055D01*
X147701221Y-101861061D01*
X147683976Y-101890931D01*
X147614684Y-102010948D01*
X147605734Y-102026449D01*
X147546719Y-102208077D01*
X147526757Y-102398005D01*
X147527447Y-102404570D01*
X147539346Y-102517779D01*
X147546719Y-102587933D01*
X147605734Y-102769561D01*
X147701221Y-102934949D01*
X147829008Y-103076871D01*
X147983509Y-103189123D01*
X147989537Y-103191807D01*
X147989539Y-103191808D01*
X148078029Y-103231206D01*
X148157973Y-103266799D01*
X148251374Y-103286652D01*
X148338317Y-103305133D01*
X148338322Y-103305133D01*
X148344774Y-103306505D01*
X148460799Y-103306505D01*
X148523799Y-103323386D01*
X148528338Y-103326007D01*
X148534891Y-103331035D01*
X148586525Y-103352422D01*
X148682917Y-103392349D01*
X148801882Y-103408011D01*
X148801887Y-103408011D01*
X148801896Y-103408012D01*
X148833579Y-103412183D01*
X148841767Y-103413261D01*
X148873460Y-103409089D01*
X148889903Y-103408011D01*
X151052353Y-103408011D01*
X151068796Y-103409089D01*
X151100489Y-103413261D01*
X151108678Y-103412183D01*
X151140363Y-103408012D01*
X151140373Y-103408011D01*
X151140374Y-103408011D01*
X151140390Y-103408009D01*
X151239946Y-103394902D01*
X151251153Y-103393427D01*
X151251155Y-103393426D01*
X151259340Y-103392349D01*
X151407365Y-103331035D01*
X151417334Y-103323386D01*
X151502561Y-103257988D01*
X151502564Y-103257985D01*
X151527923Y-103238526D01*
X151534476Y-103233498D01*
X151552452Y-103210072D01*
X151553941Y-103208132D01*
X151564808Y-103195741D01*
X154715144Y-100045405D01*
X154777456Y-100011379D01*
X154804239Y-100008500D01*
X154895487Y-100008500D01*
X154901939Y-100007128D01*
X154901944Y-100007128D01*
X154988887Y-99988647D01*
X155082288Y-99968794D01*
X155088319Y-99966109D01*
X155250722Y-99893803D01*
X155250724Y-99893802D01*
X155256752Y-99891118D01*
X155411253Y-99778866D01*
X155454032Y-99731355D01*
X155534621Y-99641852D01*
X155534622Y-99641851D01*
X155539040Y-99636944D01*
X155605850Y-99521226D01*
X155631222Y-99477281D01*
X155631223Y-99477278D01*
X155634527Y-99471556D01*
X155634966Y-99470206D01*
X155679697Y-99417578D01*
X155747624Y-99396927D01*
X155815933Y-99416278D01*
X155837921Y-99433826D01*
X156756348Y-100352253D01*
X156763888Y-100360539D01*
X156768000Y-100367018D01*
X156773778Y-100372443D01*
X156773778Y-100372444D01*
X156793637Y-100391093D01*
X156816503Y-100419943D01*
X156857658Y-100491226D01*
X156857661Y-100491231D01*
X156860960Y-100496944D01*
X156865378Y-100501851D01*
X156865379Y-100501852D01*
X156960848Y-100607881D01*
X156988747Y-100638866D01*
X157143248Y-100751118D01*
X157149276Y-100753802D01*
X157149278Y-100753803D01*
X157257538Y-100802003D01*
X157317712Y-100828794D01*
X157406869Y-100847745D01*
X157498056Y-100867128D01*
X157498061Y-100867128D01*
X157504513Y-100868500D01*
X157695487Y-100868500D01*
X157701939Y-100867128D01*
X157701944Y-100867128D01*
X157793131Y-100847745D01*
X157882288Y-100828794D01*
X157942462Y-100802003D01*
X158050722Y-100753803D01*
X158050724Y-100753802D01*
X158056752Y-100751118D01*
X158129501Y-100698263D01*
X158199084Y-100647707D01*
X158211253Y-100638866D01*
X158215668Y-100633963D01*
X158220580Y-100629540D01*
X158221705Y-100630789D01*
X158275014Y-100597949D01*
X158308200Y-100593500D01*
X162076566Y-100593500D01*
X162144687Y-100613502D01*
X162191180Y-100667158D01*
X162201876Y-100706328D01*
X162206458Y-100749928D01*
X162265473Y-100931556D01*
X162360960Y-101096944D01*
X162365378Y-101101851D01*
X162365379Y-101101852D01*
X162484325Y-101233955D01*
X162488747Y-101238866D01*
X162643248Y-101351118D01*
X162649276Y-101353802D01*
X162649278Y-101353803D01*
X162811681Y-101426109D01*
X162817712Y-101428794D01*
X162911113Y-101448647D01*
X162998056Y-101467128D01*
X162998061Y-101467128D01*
X163004513Y-101468500D01*
X163195487Y-101468500D01*
X163201939Y-101467128D01*
X163201944Y-101467128D01*
X163288888Y-101448647D01*
X163382288Y-101428794D01*
X163388319Y-101426109D01*
X163550722Y-101353803D01*
X163550724Y-101353802D01*
X163556752Y-101351118D01*
X163711253Y-101238866D01*
X163715668Y-101233963D01*
X163720580Y-101229540D01*
X163721705Y-101230789D01*
X163775014Y-101197949D01*
X163808200Y-101193500D01*
X166428207Y-101193500D01*
X166451816Y-101195732D01*
X166452119Y-101195790D01*
X166452123Y-101195790D01*
X166459906Y-101197275D01*
X166515951Y-101193749D01*
X166523862Y-101193500D01*
X166539856Y-101193500D01*
X166555730Y-101191494D01*
X166563590Y-101190752D01*
X166591049Y-101189024D01*
X166611737Y-101187723D01*
X166611738Y-101187723D01*
X166619650Y-101187225D01*
X166627191Y-101184775D01*
X166627487Y-101184679D01*
X166650631Y-101179506D01*
X166650935Y-101179468D01*
X166650940Y-101179467D01*
X166658797Y-101178474D01*
X166666162Y-101175558D01*
X166666166Y-101175557D01*
X166711011Y-101157801D01*
X166718430Y-101155129D01*
X166771875Y-101137764D01*
X166778572Y-101133514D01*
X166778831Y-101133350D01*
X166799958Y-101122585D01*
X166800246Y-101122471D01*
X166800251Y-101122468D01*
X166807617Y-101119552D01*
X166814025Y-101114896D01*
X166814031Y-101114893D01*
X166853052Y-101086542D01*
X166859589Y-101082099D01*
X166907018Y-101052000D01*
X166912659Y-101045993D01*
X166930446Y-101030312D01*
X166930691Y-101030134D01*
X166930693Y-101030132D01*
X166937107Y-101025472D01*
X166946664Y-101013920D01*
X166972903Y-100982204D01*
X166978134Y-100976270D01*
X167011158Y-100941102D01*
X167011160Y-100941099D01*
X167016586Y-100935321D01*
X167020558Y-100928097D01*
X167033881Y-100908494D01*
X167034080Y-100908254D01*
X167034084Y-100908247D01*
X167039133Y-100902144D01*
X167063047Y-100851324D01*
X167066629Y-100844292D01*
X167093695Y-100795060D01*
X167095665Y-100787385D01*
X167095668Y-100787379D01*
X167095744Y-100787081D01*
X167103776Y-100764772D01*
X167103906Y-100764497D01*
X167103909Y-100764489D01*
X167107283Y-100757318D01*
X167117806Y-100702151D01*
X167119532Y-100694429D01*
X167126535Y-100667158D01*
X167133500Y-100640030D01*
X167133500Y-100631793D01*
X167135732Y-100608184D01*
X167135790Y-100607881D01*
X167135790Y-100607877D01*
X167137275Y-100600094D01*
X167133749Y-100544049D01*
X167133500Y-100536138D01*
X167133500Y-93627819D01*
X167153502Y-93559698D01*
X167208251Y-93512712D01*
X167250722Y-93493803D01*
X167250724Y-93493802D01*
X167256752Y-93491118D01*
X167284404Y-93471028D01*
X167366829Y-93411142D01*
X167411253Y-93378866D01*
X167482364Y-93299889D01*
X167534621Y-93241852D01*
X167534622Y-93241851D01*
X167539040Y-93236944D01*
X167634527Y-93071556D01*
X167693542Y-92889928D01*
X167700917Y-92819764D01*
X167712814Y-92706565D01*
X167713504Y-92700000D01*
X167703314Y-92603051D01*
X167694232Y-92516635D01*
X167694232Y-92516633D01*
X167693542Y-92510072D01*
X167634527Y-92328444D01*
X167539040Y-92163056D01*
X167518171Y-92139878D01*
X167415675Y-92026045D01*
X167415674Y-92026044D01*
X167411253Y-92021134D01*
X167256752Y-91908882D01*
X167250724Y-91906198D01*
X167250722Y-91906197D01*
X167088319Y-91833891D01*
X167088318Y-91833891D01*
X167082288Y-91831206D01*
X166988888Y-91811353D01*
X166901944Y-91792872D01*
X166901939Y-91792872D01*
X166895487Y-91791500D01*
X166704513Y-91791500D01*
X166698061Y-91792872D01*
X166698056Y-91792872D01*
X166611112Y-91811353D01*
X166517712Y-91831206D01*
X166511682Y-91833891D01*
X166511681Y-91833891D01*
X166349278Y-91906197D01*
X166349276Y-91906198D01*
X166343248Y-91908882D01*
X166188747Y-92021134D01*
X166184326Y-92026044D01*
X166184325Y-92026045D01*
X166081830Y-92139878D01*
X166060960Y-92163056D01*
X165965473Y-92328444D01*
X165906458Y-92510072D01*
X165905768Y-92516633D01*
X165905768Y-92516635D01*
X165896686Y-92603051D01*
X165886496Y-92700000D01*
X165893673Y-92768277D01*
X165893678Y-92768328D01*
X165889440Y-92815797D01*
X165886819Y-92821855D01*
X165885580Y-92829679D01*
X165885578Y-92829685D01*
X165879901Y-92865524D01*
X165877495Y-92877144D01*
X165875898Y-92883365D01*
X165866500Y-92919970D01*
X165866500Y-92940224D01*
X165864949Y-92959934D01*
X165861780Y-92979943D01*
X165862526Y-92987835D01*
X165865941Y-93023961D01*
X165866500Y-93035819D01*
X165866500Y-99800500D01*
X165846498Y-99868621D01*
X165792842Y-99915114D01*
X165740500Y-99926500D01*
X163808200Y-99926500D01*
X163740079Y-99906498D01*
X163720853Y-99890157D01*
X163720580Y-99890460D01*
X163715668Y-99886037D01*
X163711253Y-99881134D01*
X163637255Y-99827371D01*
X163562094Y-99772763D01*
X163562093Y-99772762D01*
X163556752Y-99768882D01*
X163550724Y-99766198D01*
X163550722Y-99766197D01*
X163388319Y-99693891D01*
X163388318Y-99693891D01*
X163382288Y-99691206D01*
X163277187Y-99668866D01*
X163201944Y-99652872D01*
X163201939Y-99652872D01*
X163195487Y-99651500D01*
X163139595Y-99651500D01*
X163071474Y-99631498D01*
X163050500Y-99614595D01*
X163003652Y-99567747D01*
X162996112Y-99559461D01*
X162992000Y-99552982D01*
X162942348Y-99506356D01*
X162939507Y-99503602D01*
X162919770Y-99483865D01*
X162916573Y-99481385D01*
X162907551Y-99473680D01*
X162892732Y-99459764D01*
X162875321Y-99443414D01*
X162868375Y-99439595D01*
X162868372Y-99439593D01*
X162857566Y-99433652D01*
X162841047Y-99422801D01*
X162832637Y-99416278D01*
X162825041Y-99410386D01*
X162817772Y-99407241D01*
X162817768Y-99407238D01*
X162784463Y-99392826D01*
X162773813Y-99387609D01*
X162735060Y-99366305D01*
X162715437Y-99361267D01*
X162696734Y-99354863D01*
X162685420Y-99349967D01*
X162685419Y-99349967D01*
X162678145Y-99346819D01*
X162670322Y-99345580D01*
X162670312Y-99345577D01*
X162634476Y-99339901D01*
X162622856Y-99337495D01*
X162587711Y-99328472D01*
X162587710Y-99328472D01*
X162580030Y-99326500D01*
X162559776Y-99326500D01*
X162540065Y-99324949D01*
X162527886Y-99323020D01*
X162520057Y-99321780D01*
X162512165Y-99322526D01*
X162476039Y-99325941D01*
X162464181Y-99326500D01*
X158308200Y-99326500D01*
X158240079Y-99306498D01*
X158220853Y-99290157D01*
X158220580Y-99290460D01*
X158215668Y-99286037D01*
X158211253Y-99281134D01*
X158136374Y-99226731D01*
X158062094Y-99172763D01*
X158062093Y-99172762D01*
X158056752Y-99168882D01*
X158050724Y-99166198D01*
X158050722Y-99166197D01*
X157888319Y-99093891D01*
X157888318Y-99093891D01*
X157882288Y-99091206D01*
X157788887Y-99071353D01*
X157701944Y-99052872D01*
X157701939Y-99052872D01*
X157695487Y-99051500D01*
X157504513Y-99051500D01*
X157498061Y-99052872D01*
X157498056Y-99052872D01*
X157399046Y-99073918D01*
X157359390Y-99082347D01*
X157288600Y-99076945D01*
X157244099Y-99048195D01*
X149852500Y-91656595D01*
X149818474Y-91594283D01*
X149816285Y-91580670D01*
X149813851Y-91557506D01*
X149798920Y-91415450D01*
X149739905Y-91233822D01*
X149644418Y-91068434D01*
X149516631Y-90926512D01*
X149362130Y-90814260D01*
X149356102Y-90811576D01*
X149356100Y-90811575D01*
X149193697Y-90739269D01*
X149193696Y-90739269D01*
X149187666Y-90736584D01*
X149094265Y-90716731D01*
X149007322Y-90698250D01*
X149007317Y-90698250D01*
X149000865Y-90696878D01*
X148944973Y-90696878D01*
X148876852Y-90676876D01*
X148855878Y-90659973D01*
X146370405Y-88174500D01*
X146336379Y-88112188D01*
X146333500Y-88085405D01*
X146333500Y-87584011D01*
X146353502Y-87515890D01*
X146407158Y-87469397D01*
X146459500Y-87458011D01*
X158096722Y-87458011D01*
X158107905Y-87458538D01*
X158115398Y-87460213D01*
X158123324Y-87459964D01*
X158123325Y-87459964D01*
X158183475Y-87458073D01*
X158187434Y-87458011D01*
X158215345Y-87458011D01*
X158219280Y-87457514D01*
X158219345Y-87457506D01*
X158231182Y-87456573D01*
X158263440Y-87455559D01*
X158267459Y-87455433D01*
X158275378Y-87455184D01*
X158294832Y-87449532D01*
X158314189Y-87445524D01*
X158326419Y-87443979D01*
X158326420Y-87443979D01*
X158334286Y-87442985D01*
X158341657Y-87440066D01*
X158341659Y-87440066D01*
X158375401Y-87426707D01*
X158386631Y-87422862D01*
X158421472Y-87412740D01*
X158421473Y-87412740D01*
X158429082Y-87410529D01*
X158435901Y-87406496D01*
X158435906Y-87406494D01*
X158446517Y-87400218D01*
X158464265Y-87391523D01*
X158483106Y-87384063D01*
X158518876Y-87358075D01*
X158528796Y-87351559D01*
X158560024Y-87333091D01*
X158560027Y-87333089D01*
X158566851Y-87329053D01*
X158581172Y-87314732D01*
X158596206Y-87301891D01*
X158606183Y-87294642D01*
X158612596Y-87289983D01*
X158640787Y-87255906D01*
X158648777Y-87247127D01*
X161990499Y-83905405D01*
X162052811Y-83871379D01*
X162079594Y-83868500D01*
X162095487Y-83868500D01*
X162101939Y-83867128D01*
X162101944Y-83867128D01*
X162188887Y-83848647D01*
X162282288Y-83828794D01*
X162288319Y-83826109D01*
X162450722Y-83753803D01*
X162450724Y-83753802D01*
X162456752Y-83751118D01*
X162611253Y-83638866D01*
X162661226Y-83583365D01*
X162734621Y-83501852D01*
X162734622Y-83501851D01*
X162739040Y-83496944D01*
X162818036Y-83360120D01*
X162831223Y-83337279D01*
X162831224Y-83337278D01*
X162834527Y-83331556D01*
X162893542Y-83149928D01*
X162898528Y-83102494D01*
X162912814Y-82966565D01*
X162913504Y-82960000D01*
X162900376Y-82835097D01*
X162894232Y-82776635D01*
X162894232Y-82776633D01*
X162893542Y-82770072D01*
X162834527Y-82588444D01*
X162821525Y-82565923D01*
X162749892Y-82441852D01*
X162739040Y-82423056D01*
X162655195Y-82329936D01*
X162615675Y-82286045D01*
X162615674Y-82286044D01*
X162611253Y-82281134D01*
X162456752Y-82168882D01*
X162450724Y-82166198D01*
X162450722Y-82166197D01*
X162288319Y-82093891D01*
X162288318Y-82093891D01*
X162282288Y-82091206D01*
X162161013Y-82065428D01*
X162101944Y-82052872D01*
X162101939Y-82052872D01*
X162095487Y-82051500D01*
X162039595Y-82051500D01*
X161971474Y-82031498D01*
X161950499Y-82014595D01*
X161570404Y-81634499D01*
X161536379Y-81572187D01*
X161533500Y-81545404D01*
X161533500Y-79560000D01*
X165586496Y-79560000D01*
X165587186Y-79566565D01*
X165605321Y-79739106D01*
X165606458Y-79749928D01*
X165665473Y-79931556D01*
X165760960Y-80096944D01*
X165888747Y-80238866D01*
X166043248Y-80351118D01*
X166049276Y-80353802D01*
X166049278Y-80353803D01*
X166211681Y-80426109D01*
X166217712Y-80428794D01*
X166311113Y-80448647D01*
X166398056Y-80467128D01*
X166398061Y-80467128D01*
X166404513Y-80468500D01*
X166595487Y-80468500D01*
X166601939Y-80467128D01*
X166601944Y-80467128D01*
X166688887Y-80448647D01*
X166782288Y-80428794D01*
X166788319Y-80426109D01*
X166950722Y-80353803D01*
X166950724Y-80353802D01*
X166956752Y-80351118D01*
X167111253Y-80238866D01*
X167115668Y-80233963D01*
X167120580Y-80229540D01*
X167121705Y-80230789D01*
X167175014Y-80197949D01*
X167208200Y-80193500D01*
X168685406Y-80193500D01*
X168753527Y-80213502D01*
X168774501Y-80230405D01*
X171804595Y-83260500D01*
X171838621Y-83322812D01*
X171841500Y-83349595D01*
X171841500Y-95787476D01*
X171821498Y-95855597D01*
X171809142Y-95871779D01*
X171735960Y-95953056D01*
X171721059Y-95978866D01*
X171654700Y-96093803D01*
X171640473Y-96118444D01*
X171581458Y-96300072D01*
X171580768Y-96306633D01*
X171580768Y-96306635D01*
X171564071Y-96465500D01*
X171561496Y-96490000D01*
X171562186Y-96496565D01*
X171578421Y-96651029D01*
X171581458Y-96679928D01*
X171640473Y-96861556D01*
X171643776Y-96867278D01*
X171643777Y-96867279D01*
X171659763Y-96894968D01*
X171735960Y-97026944D01*
X171740378Y-97031851D01*
X171740379Y-97031852D01*
X171803420Y-97101866D01*
X171863747Y-97168866D01*
X172018248Y-97281118D01*
X172024276Y-97283802D01*
X172024278Y-97283803D01*
X172178795Y-97352598D01*
X172192712Y-97358794D01*
X172285430Y-97378502D01*
X172373056Y-97397128D01*
X172373061Y-97397128D01*
X172379513Y-97398500D01*
X172570487Y-97398500D01*
X172576939Y-97397128D01*
X172576944Y-97397128D01*
X172664570Y-97378502D01*
X172757288Y-97358794D01*
X172771205Y-97352598D01*
X172925722Y-97283803D01*
X172925724Y-97283802D01*
X172931752Y-97281118D01*
X173086253Y-97168866D01*
X173146580Y-97101866D01*
X173209621Y-97031852D01*
X173209622Y-97031851D01*
X173214040Y-97026944D01*
X173290237Y-96894968D01*
X173306223Y-96867279D01*
X173306224Y-96867278D01*
X173309527Y-96861556D01*
X173368542Y-96679928D01*
X173371580Y-96651029D01*
X173387814Y-96496565D01*
X173388504Y-96490000D01*
X173385929Y-96465500D01*
X173369232Y-96306635D01*
X173369232Y-96306633D01*
X173368542Y-96300072D01*
X173309527Y-96118444D01*
X173295301Y-96093803D01*
X173228941Y-95978866D01*
X173214040Y-95953056D01*
X173140863Y-95871785D01*
X173110147Y-95807779D01*
X173108500Y-95787476D01*
X173108500Y-83113767D01*
X173109027Y-83102584D01*
X173110702Y-83095091D01*
X173108785Y-83034092D01*
X173108562Y-83027014D01*
X173108500Y-83023055D01*
X173108500Y-82995144D01*
X173107995Y-82991144D01*
X173107062Y-82979301D01*
X173106645Y-82966013D01*
X173105673Y-82935110D01*
X173100022Y-82915658D01*
X173096014Y-82896306D01*
X173094467Y-82884063D01*
X173093474Y-82876203D01*
X173090556Y-82868832D01*
X173077200Y-82835097D01*
X173073355Y-82823870D01*
X173068491Y-82807128D01*
X173061018Y-82781407D01*
X173054315Y-82770072D01*
X173050707Y-82763972D01*
X173042012Y-82746224D01*
X173034552Y-82727383D01*
X173008564Y-82691613D01*
X173002048Y-82681693D01*
X172983580Y-82650465D01*
X172983578Y-82650462D01*
X172979542Y-82643638D01*
X172965221Y-82629317D01*
X172952380Y-82614283D01*
X172948178Y-82608500D01*
X172940472Y-82597893D01*
X172906395Y-82569702D01*
X172897616Y-82561712D01*
X172395904Y-82060000D01*
X176986496Y-82060000D01*
X176987186Y-82066565D01*
X176994205Y-82133343D01*
X177006458Y-82249928D01*
X177065473Y-82431556D01*
X177160960Y-82596944D01*
X177234137Y-82678215D01*
X177264853Y-82742221D01*
X177266500Y-82762524D01*
X177266500Y-93121233D01*
X177265973Y-93132416D01*
X177264298Y-93139909D01*
X177264547Y-93147835D01*
X177264547Y-93147836D01*
X177266438Y-93207986D01*
X177266500Y-93211945D01*
X177266500Y-93239856D01*
X177266997Y-93243790D01*
X177266997Y-93243791D01*
X177267005Y-93243856D01*
X177267938Y-93255693D01*
X177269327Y-93299889D01*
X177274733Y-93318496D01*
X177274978Y-93319339D01*
X177278987Y-93338700D01*
X177281526Y-93358797D01*
X177284445Y-93366168D01*
X177284445Y-93366170D01*
X177297804Y-93399912D01*
X177301649Y-93411142D01*
X177308125Y-93433433D01*
X177313982Y-93453593D01*
X177318015Y-93460412D01*
X177318017Y-93460417D01*
X177324293Y-93471028D01*
X177332988Y-93488776D01*
X177340448Y-93507617D01*
X177345110Y-93514033D01*
X177345110Y-93514034D01*
X177366436Y-93543387D01*
X177372952Y-93553307D01*
X177383089Y-93570447D01*
X177395458Y-93591362D01*
X177409779Y-93605683D01*
X177422619Y-93620716D01*
X177434528Y-93637107D01*
X177455875Y-93654767D01*
X177468605Y-93665298D01*
X177477384Y-93673288D01*
X182958832Y-99154736D01*
X182989570Y-99204894D01*
X183040473Y-99361556D01*
X183135960Y-99526944D01*
X183140378Y-99531851D01*
X183140379Y-99531852D01*
X183249346Y-99652872D01*
X183263747Y-99668866D01*
X183328646Y-99716019D01*
X183363036Y-99753813D01*
X183366422Y-99759539D01*
X183366426Y-99759544D01*
X183370458Y-99766362D01*
X183384779Y-99780683D01*
X183397619Y-99795716D01*
X183409528Y-99812107D01*
X183427979Y-99827371D01*
X183443605Y-99840298D01*
X183452384Y-99848288D01*
X187652878Y-104048783D01*
X187686904Y-104111095D01*
X187689093Y-104124708D01*
X187704837Y-104274501D01*
X187706458Y-104289928D01*
X187765473Y-104471556D01*
X187860960Y-104636944D01*
X187865378Y-104641851D01*
X187865379Y-104641852D01*
X187922989Y-104705834D01*
X187988747Y-104778866D01*
X188143248Y-104891118D01*
X188149276Y-104893802D01*
X188149278Y-104893803D01*
X188239318Y-104933891D01*
X188317712Y-104968794D01*
X188411112Y-104988647D01*
X188498056Y-105007128D01*
X188498061Y-105007128D01*
X188504513Y-105008500D01*
X188695487Y-105008500D01*
X188701939Y-105007128D01*
X188701944Y-105007128D01*
X188788888Y-104988647D01*
X188882288Y-104968794D01*
X188960682Y-104933891D01*
X189050722Y-104893803D01*
X189050724Y-104893802D01*
X189056752Y-104891118D01*
X189211253Y-104778866D01*
X189277011Y-104705834D01*
X189334621Y-104641852D01*
X189334622Y-104641851D01*
X189339040Y-104636944D01*
X189434527Y-104471556D01*
X189493542Y-104289928D01*
X189495164Y-104274501D01*
X189512814Y-104106565D01*
X189513504Y-104100000D01*
X189496882Y-103941852D01*
X189494232Y-103916635D01*
X189494232Y-103916633D01*
X189493542Y-103910072D01*
X189434527Y-103728444D01*
X189339040Y-103563056D01*
X189211253Y-103421134D01*
X189087243Y-103331035D01*
X189062094Y-103312763D01*
X189062093Y-103312762D01*
X189056752Y-103308882D01*
X189050724Y-103306198D01*
X189050722Y-103306197D01*
X188888319Y-103233891D01*
X188888318Y-103233891D01*
X188882288Y-103231206D01*
X188766362Y-103206565D01*
X188701944Y-103192872D01*
X188701939Y-103192872D01*
X188695487Y-103191500D01*
X188639594Y-103191500D01*
X188571473Y-103171498D01*
X188550499Y-103154595D01*
X184775880Y-99379975D01*
X184741854Y-99317663D01*
X184745142Y-99251945D01*
X184768542Y-99179928D01*
X184769296Y-99172763D01*
X184787814Y-98996565D01*
X184788504Y-98990000D01*
X184780103Y-98910072D01*
X184769232Y-98806635D01*
X184769232Y-98806633D01*
X184768542Y-98800072D01*
X184709527Y-98618444D01*
X184614040Y-98453056D01*
X184585298Y-98421134D01*
X184490675Y-98316045D01*
X184490674Y-98316044D01*
X184486253Y-98311134D01*
X184331752Y-98198882D01*
X184325724Y-98196198D01*
X184325722Y-98196197D01*
X184163319Y-98123891D01*
X184163318Y-98123891D01*
X184157288Y-98121206D01*
X184054695Y-98099399D01*
X183976944Y-98082872D01*
X183976939Y-98082872D01*
X183970487Y-98081500D01*
X183779513Y-98081500D01*
X183762219Y-98085176D01*
X183691429Y-98079774D01*
X183646928Y-98051024D01*
X178570405Y-92974500D01*
X178536379Y-92912188D01*
X178533500Y-92885405D01*
X178533500Y-82762524D01*
X178553502Y-82694403D01*
X178565858Y-82678221D01*
X178639040Y-82596944D01*
X178734527Y-82431556D01*
X178793542Y-82249928D01*
X178805796Y-82133343D01*
X178812814Y-82066565D01*
X178813504Y-82060000D01*
X178796688Y-81900000D01*
X178794232Y-81876635D01*
X178794232Y-81876633D01*
X178793542Y-81870072D01*
X178734527Y-81688444D01*
X178639040Y-81523056D01*
X178621697Y-81503794D01*
X178515675Y-81386045D01*
X178515674Y-81386044D01*
X178511253Y-81381134D01*
X178356752Y-81268882D01*
X178350724Y-81266198D01*
X178350722Y-81266197D01*
X178188319Y-81193891D01*
X178188318Y-81193891D01*
X178182288Y-81191206D01*
X178088888Y-81171353D01*
X178001944Y-81152872D01*
X178001939Y-81152872D01*
X177995487Y-81151500D01*
X177804513Y-81151500D01*
X177798061Y-81152872D01*
X177798056Y-81152872D01*
X177711112Y-81171353D01*
X177617712Y-81191206D01*
X177611682Y-81193891D01*
X177611681Y-81193891D01*
X177449278Y-81266197D01*
X177449276Y-81266198D01*
X177443248Y-81268882D01*
X177288747Y-81381134D01*
X177284326Y-81386044D01*
X177284325Y-81386045D01*
X177178304Y-81503794D01*
X177160960Y-81523056D01*
X177065473Y-81688444D01*
X177006458Y-81870072D01*
X177005768Y-81876633D01*
X177005768Y-81876635D01*
X177003312Y-81900000D01*
X176986496Y-82060000D01*
X172395904Y-82060000D01*
X169503652Y-79167747D01*
X169496112Y-79159461D01*
X169492000Y-79152982D01*
X169442348Y-79106356D01*
X169439507Y-79103602D01*
X169419770Y-79083865D01*
X169416573Y-79081385D01*
X169407551Y-79073680D01*
X169375321Y-79043414D01*
X169368375Y-79039595D01*
X169368372Y-79039593D01*
X169357566Y-79033652D01*
X169341047Y-79022801D01*
X169335048Y-79018148D01*
X169325041Y-79010386D01*
X169317772Y-79007241D01*
X169317768Y-79007238D01*
X169284463Y-78992826D01*
X169273813Y-78987609D01*
X169235060Y-78966305D01*
X169215437Y-78961267D01*
X169196734Y-78954863D01*
X169185420Y-78949967D01*
X169185419Y-78949967D01*
X169178145Y-78946819D01*
X169170322Y-78945580D01*
X169170312Y-78945577D01*
X169134476Y-78939901D01*
X169122856Y-78937495D01*
X169087711Y-78928472D01*
X169087710Y-78928472D01*
X169080030Y-78926500D01*
X169059776Y-78926500D01*
X169040065Y-78924949D01*
X169027886Y-78923020D01*
X169020057Y-78921780D01*
X169012165Y-78922526D01*
X168976039Y-78925941D01*
X168964181Y-78926500D01*
X167208200Y-78926500D01*
X167140079Y-78906498D01*
X167120853Y-78890157D01*
X167120580Y-78890460D01*
X167115668Y-78886037D01*
X167111253Y-78881134D01*
X166956752Y-78768882D01*
X166950724Y-78766198D01*
X166950722Y-78766197D01*
X166788319Y-78693891D01*
X166788318Y-78693891D01*
X166782288Y-78691206D01*
X166688888Y-78671353D01*
X166601944Y-78652872D01*
X166601939Y-78652872D01*
X166595487Y-78651500D01*
X166404513Y-78651500D01*
X166398061Y-78652872D01*
X166398056Y-78652872D01*
X166311112Y-78671353D01*
X166217712Y-78691206D01*
X166211682Y-78693891D01*
X166211681Y-78693891D01*
X166049278Y-78766197D01*
X166049276Y-78766198D01*
X166043248Y-78768882D01*
X165888747Y-78881134D01*
X165884326Y-78886044D01*
X165884325Y-78886045D01*
X165775203Y-79007238D01*
X165760960Y-79023056D01*
X165665473Y-79188444D01*
X165606458Y-79370072D01*
X165605768Y-79376633D01*
X165605768Y-79376635D01*
X165593704Y-79491418D01*
X165586496Y-79560000D01*
X161533500Y-79560000D01*
X161533500Y-75778024D01*
X161553502Y-75709903D01*
X161565858Y-75693721D01*
X161639040Y-75612444D01*
X161729244Y-75456206D01*
X161731223Y-75452779D01*
X161731224Y-75452778D01*
X161734527Y-75447056D01*
X161793542Y-75265428D01*
X161813504Y-75075500D01*
X161812814Y-75068935D01*
X161794232Y-74892135D01*
X161794232Y-74892133D01*
X161793542Y-74885572D01*
X161734527Y-74703944D01*
X161639040Y-74538556D01*
X161568096Y-74459764D01*
X161515675Y-74401545D01*
X161515674Y-74401544D01*
X161511253Y-74396634D01*
X161412157Y-74324636D01*
X161362094Y-74288263D01*
X161362093Y-74288262D01*
X161356752Y-74284382D01*
X161350724Y-74281698D01*
X161350722Y-74281697D01*
X161188319Y-74209391D01*
X161188318Y-74209391D01*
X161182288Y-74206706D01*
X161088888Y-74186853D01*
X161001944Y-74168372D01*
X161001939Y-74168372D01*
X160995487Y-74167000D01*
X160814897Y-74167000D01*
X160746776Y-74146998D01*
X160700283Y-74093342D01*
X160690179Y-74023068D01*
X160721260Y-73956691D01*
X160734621Y-73941852D01*
X160734622Y-73941851D01*
X160739040Y-73936944D01*
X160819183Y-73798134D01*
X164241500Y-73798134D01*
X164248255Y-73860316D01*
X164299385Y-73996705D01*
X164386739Y-74113261D01*
X164503295Y-74200615D01*
X164639684Y-74251745D01*
X164701866Y-74258500D01*
X166498134Y-74258500D01*
X166560316Y-74251745D01*
X166696705Y-74200615D01*
X166813261Y-74113261D01*
X166900615Y-73996705D01*
X166951745Y-73860316D01*
X166958500Y-73798134D01*
X166958500Y-73300400D01*
X172716500Y-73300400D01*
X172716837Y-73303646D01*
X172716837Y-73303650D01*
X172725182Y-73384074D01*
X172727474Y-73406166D01*
X172783450Y-73573946D01*
X172876522Y-73724348D01*
X173001697Y-73849305D01*
X173007927Y-73853145D01*
X173007928Y-73853146D01*
X173145090Y-73937694D01*
X173152262Y-73942115D01*
X173196208Y-73956691D01*
X173313611Y-73995632D01*
X173313613Y-73995632D01*
X173320139Y-73997797D01*
X173326975Y-73998497D01*
X173326978Y-73998498D01*
X173370031Y-74002909D01*
X173424600Y-74008500D01*
X174775400Y-74008500D01*
X174778646Y-74008163D01*
X174778650Y-74008163D01*
X174874308Y-73998238D01*
X174874312Y-73998237D01*
X174881166Y-73997526D01*
X174887702Y-73995345D01*
X174887704Y-73995345D01*
X175019806Y-73951272D01*
X175048946Y-73941550D01*
X175199348Y-73848478D01*
X175324305Y-73723303D01*
X175406519Y-73589928D01*
X175413275Y-73578968D01*
X175413276Y-73578966D01*
X175417115Y-73572738D01*
X175449228Y-73475921D01*
X175470632Y-73411389D01*
X175470632Y-73411387D01*
X175472797Y-73404861D01*
X175483500Y-73300400D01*
X175483500Y-72499600D01*
X175482361Y-72488621D01*
X175473238Y-72400692D01*
X175473237Y-72400688D01*
X175472526Y-72393834D01*
X175452918Y-72335060D01*
X175418868Y-72233002D01*
X175416550Y-72226054D01*
X175323478Y-72075652D01*
X175198303Y-71950695D01*
X175192069Y-71946852D01*
X175146310Y-71918645D01*
X175098817Y-71865873D01*
X175087395Y-71795801D01*
X175115669Y-71730677D01*
X175134597Y-71712298D01*
X175137856Y-71709738D01*
X175146506Y-71701501D01*
X175277212Y-71550877D01*
X175284147Y-71541153D01*
X175384010Y-71368533D01*
X175388984Y-71357669D01*
X175454407Y-71169273D01*
X175454648Y-71168284D01*
X175453180Y-71157992D01*
X175439615Y-71154000D01*
X172764598Y-71154000D01*
X172751067Y-71157973D01*
X172749712Y-71167399D01*
X172771194Y-71256537D01*
X172775083Y-71267832D01*
X172857629Y-71449382D01*
X172863576Y-71459724D01*
X172978968Y-71622397D01*
X172986761Y-71631425D01*
X173077757Y-71718535D01*
X173113133Y-71780090D01*
X173109614Y-71851000D01*
X173068317Y-71908750D01*
X173056947Y-71916685D01*
X173000652Y-71951522D01*
X172875695Y-72076697D01*
X172871855Y-72082927D01*
X172871854Y-72082928D01*
X172807265Y-72187711D01*
X172782885Y-72227262D01*
X172727203Y-72395139D01*
X172716500Y-72499600D01*
X172716500Y-73300400D01*
X166958500Y-73300400D01*
X166958500Y-72001866D01*
X166951745Y-71939684D01*
X166900615Y-71803295D01*
X166813261Y-71686739D01*
X166696705Y-71599385D01*
X166577687Y-71554767D01*
X166520923Y-71512125D01*
X166496223Y-71445564D01*
X166511430Y-71376215D01*
X166532977Y-71347535D01*
X166634052Y-71246812D01*
X166640730Y-71238965D01*
X166765003Y-71066020D01*
X166770313Y-71057183D01*
X166864670Y-70866267D01*
X166868469Y-70856672D01*
X166930377Y-70652910D01*
X166932555Y-70642837D01*
X166933986Y-70631962D01*
X166933948Y-70631716D01*
X172745352Y-70631716D01*
X172746820Y-70642008D01*
X172760385Y-70646000D01*
X173827885Y-70646000D01*
X173843124Y-70641525D01*
X173844329Y-70640135D01*
X173846000Y-70632452D01*
X173846000Y-70627885D01*
X174354000Y-70627885D01*
X174358475Y-70643124D01*
X174359865Y-70644329D01*
X174367548Y-70646000D01*
X175435402Y-70646000D01*
X175448933Y-70642027D01*
X175450288Y-70632601D01*
X175428806Y-70543463D01*
X175424917Y-70532168D01*
X175342371Y-70350618D01*
X175336424Y-70340276D01*
X175221032Y-70177603D01*
X175213239Y-70168575D01*
X175069169Y-70030658D01*
X175059804Y-70023262D01*
X174892259Y-69915079D01*
X174881655Y-69909583D01*
X174696688Y-69835039D01*
X174685230Y-69831645D01*
X174488072Y-69793143D01*
X174479209Y-69792066D01*
X174476500Y-69792000D01*
X174372115Y-69792000D01*
X174356876Y-69796475D01*
X174355671Y-69797865D01*
X174354000Y-69805548D01*
X174354000Y-70627885D01*
X173846000Y-70627885D01*
X173846000Y-69810115D01*
X173841525Y-69794876D01*
X173840135Y-69793671D01*
X173832452Y-69792000D01*
X173775168Y-69792000D01*
X173769192Y-69792285D01*
X173620506Y-69806471D01*
X173608772Y-69808730D01*
X173417401Y-69864872D01*
X173406325Y-69869302D01*
X173229022Y-69960619D01*
X173218976Y-69967069D01*
X173062143Y-70090262D01*
X173053494Y-70098499D01*
X172922788Y-70249123D01*
X172915853Y-70258847D01*
X172815990Y-70431467D01*
X172811016Y-70442331D01*
X172745593Y-70630727D01*
X172745352Y-70631716D01*
X166933948Y-70631716D01*
X166931775Y-70617778D01*
X166918617Y-70614000D01*
X164283225Y-70614000D01*
X164269694Y-70617973D01*
X164268257Y-70627966D01*
X164298565Y-70762446D01*
X164301645Y-70772275D01*
X164381770Y-70969603D01*
X164386413Y-70978794D01*
X164497694Y-71160388D01*
X164503777Y-71168699D01*
X164643213Y-71329667D01*
X164650577Y-71336879D01*
X164655522Y-71340985D01*
X164695156Y-71399889D01*
X164696653Y-71470870D01*
X164659537Y-71531392D01*
X164619264Y-71555910D01*
X164511705Y-71596232D01*
X164511704Y-71596233D01*
X164503295Y-71599385D01*
X164386739Y-71686739D01*
X164299385Y-71803295D01*
X164248255Y-71939684D01*
X164241500Y-72001866D01*
X164241500Y-73798134D01*
X160819183Y-73798134D01*
X160821537Y-73794056D01*
X160831223Y-73777279D01*
X160831224Y-73777278D01*
X160834527Y-73771556D01*
X160893542Y-73589928D01*
X160896683Y-73560048D01*
X160910907Y-73424707D01*
X160937920Y-73359050D01*
X160947122Y-73348782D01*
X161692247Y-72603657D01*
X161700537Y-72596113D01*
X161707018Y-72592000D01*
X161753659Y-72542332D01*
X161756413Y-72539491D01*
X161776135Y-72519769D01*
X161778612Y-72516576D01*
X161786317Y-72507555D01*
X161811159Y-72481100D01*
X161816586Y-72475321D01*
X161820407Y-72468371D01*
X161826346Y-72457568D01*
X161837202Y-72441041D01*
X161844757Y-72431302D01*
X161844758Y-72431300D01*
X161849614Y-72425040D01*
X161867174Y-72384460D01*
X161872391Y-72373812D01*
X161889875Y-72342009D01*
X161889876Y-72342007D01*
X161893695Y-72335060D01*
X161898733Y-72315437D01*
X161905137Y-72296734D01*
X161910033Y-72285420D01*
X161910033Y-72285419D01*
X161913181Y-72278145D01*
X161914420Y-72270322D01*
X161914423Y-72270312D01*
X161920099Y-72234476D01*
X161922505Y-72222856D01*
X161931528Y-72187711D01*
X161931528Y-72187710D01*
X161933500Y-72180030D01*
X161933500Y-72159776D01*
X161935051Y-72140065D01*
X161936980Y-72127886D01*
X161938220Y-72120057D01*
X161934059Y-72076038D01*
X161933500Y-72064181D01*
X161933500Y-70602524D01*
X161953502Y-70534403D01*
X161965858Y-70518221D01*
X162039040Y-70436944D01*
X162134527Y-70271556D01*
X162192159Y-70094183D01*
X164264389Y-70094183D01*
X164265912Y-70102607D01*
X164278292Y-70106000D01*
X165327885Y-70106000D01*
X165343124Y-70101525D01*
X165344329Y-70100135D01*
X165346000Y-70092452D01*
X165346000Y-70087885D01*
X165854000Y-70087885D01*
X165858475Y-70103124D01*
X165859865Y-70104329D01*
X165867548Y-70106000D01*
X166918344Y-70106000D01*
X166931875Y-70102027D01*
X166933180Y-70092947D01*
X166891214Y-69925875D01*
X166887894Y-69916124D01*
X166802972Y-69720814D01*
X166798105Y-69711739D01*
X166682426Y-69532926D01*
X166676136Y-69524757D01*
X166532806Y-69367240D01*
X166525273Y-69360215D01*
X166358139Y-69228222D01*
X166349552Y-69222517D01*
X166163117Y-69119599D01*
X166153705Y-69115369D01*
X165952959Y-69044280D01*
X165942988Y-69041646D01*
X165871837Y-69028972D01*
X165858540Y-69030432D01*
X165854000Y-69044989D01*
X165854000Y-70087885D01*
X165346000Y-70087885D01*
X165346000Y-69043102D01*
X165342082Y-69029758D01*
X165327806Y-69027771D01*
X165289324Y-69033660D01*
X165279288Y-69036051D01*
X165076868Y-69102212D01*
X165067359Y-69106209D01*
X164878463Y-69204542D01*
X164869738Y-69210036D01*
X164699433Y-69337905D01*
X164691726Y-69344748D01*
X164544590Y-69498717D01*
X164538104Y-69506727D01*
X164418098Y-69682649D01*
X164413000Y-69691623D01*
X164323338Y-69884783D01*
X164319775Y-69894470D01*
X164264389Y-70094183D01*
X162192159Y-70094183D01*
X162193542Y-70089928D01*
X162199772Y-70030658D01*
X162212814Y-69906565D01*
X162213504Y-69900000D01*
X162193542Y-69710072D01*
X162134527Y-69528444D01*
X162039040Y-69363056D01*
X162022556Y-69344748D01*
X161915675Y-69226045D01*
X161915674Y-69226044D01*
X161911253Y-69221134D01*
X161756752Y-69108882D01*
X161750724Y-69106198D01*
X161750722Y-69106197D01*
X161588319Y-69033891D01*
X161588318Y-69033891D01*
X161582288Y-69031206D01*
X161488888Y-69011353D01*
X161401944Y-68992872D01*
X161401939Y-68992872D01*
X161395487Y-68991500D01*
X161204513Y-68991500D01*
X161198061Y-68992872D01*
X161198056Y-68992872D01*
X161111112Y-69011353D01*
X161017712Y-69031206D01*
X161011682Y-69033891D01*
X161011681Y-69033891D01*
X160849278Y-69106197D01*
X160849276Y-69106198D01*
X160843248Y-69108882D01*
X160688747Y-69221134D01*
X160684326Y-69226044D01*
X160684325Y-69226045D01*
X160577445Y-69344748D01*
X160560960Y-69363056D01*
X160465473Y-69528444D01*
X160406458Y-69710072D01*
X160386496Y-69900000D01*
X160387186Y-69906565D01*
X160400229Y-70030658D01*
X160406458Y-70089928D01*
X160465473Y-70271556D01*
X160560960Y-70436944D01*
X160634137Y-70518215D01*
X160664853Y-70582221D01*
X160666500Y-70602524D01*
X160666500Y-71785405D01*
X160646498Y-71853526D01*
X160629595Y-71874501D01*
X160049499Y-72454596D01*
X159987187Y-72488621D01*
X159960404Y-72491500D01*
X159904513Y-72491500D01*
X159898061Y-72492872D01*
X159898056Y-72492872D01*
X159811113Y-72511353D01*
X159717712Y-72531206D01*
X159711682Y-72533891D01*
X159711681Y-72533891D01*
X159549278Y-72606197D01*
X159549276Y-72606198D01*
X159543248Y-72608882D01*
X159388747Y-72721134D01*
X159260960Y-72863056D01*
X159165473Y-73028444D01*
X159106458Y-73210072D01*
X159105768Y-73216633D01*
X159105768Y-73216635D01*
X159097302Y-73297183D01*
X159086496Y-73400000D01*
X159087186Y-73406565D01*
X159103318Y-73560048D01*
X159106458Y-73589928D01*
X159165473Y-73771556D01*
X159168776Y-73777278D01*
X159168777Y-73777279D01*
X159178463Y-73794056D01*
X159260960Y-73936944D01*
X159265378Y-73941851D01*
X159265379Y-73941852D01*
X159278740Y-73956691D01*
X159388747Y-74078866D01*
X159440653Y-74116578D01*
X159510053Y-74167000D01*
X159543248Y-74191118D01*
X159549276Y-74193802D01*
X159549278Y-74193803D01*
X159679419Y-74251745D01*
X159717712Y-74268794D01*
X159809306Y-74288263D01*
X159898056Y-74307128D01*
X159898061Y-74307128D01*
X159904513Y-74308500D01*
X160085103Y-74308500D01*
X160153224Y-74328502D01*
X160199717Y-74382158D01*
X160209821Y-74452432D01*
X160178740Y-74518809D01*
X160160960Y-74538556D01*
X160065473Y-74703944D01*
X160006458Y-74885572D01*
X160005768Y-74892133D01*
X160005768Y-74892135D01*
X159987186Y-75068935D01*
X159986496Y-75075500D01*
X160006458Y-75265428D01*
X160065473Y-75447056D01*
X160068776Y-75452778D01*
X160068777Y-75452779D01*
X160070756Y-75456206D01*
X160160960Y-75612444D01*
X160234137Y-75693715D01*
X160264853Y-75757721D01*
X160266500Y-75778024D01*
X160266500Y-81781233D01*
X160265973Y-81792416D01*
X160264298Y-81799909D01*
X160264547Y-81807835D01*
X160264547Y-81807836D01*
X160266438Y-81867986D01*
X160266500Y-81871945D01*
X160266500Y-81899856D01*
X160266997Y-81903790D01*
X160266997Y-81903791D01*
X160267005Y-81903856D01*
X160267938Y-81915693D01*
X160269327Y-81959889D01*
X160274686Y-81978334D01*
X160274978Y-81979339D01*
X160278987Y-81998700D01*
X160281526Y-82018797D01*
X160284445Y-82026169D01*
X160297801Y-82059902D01*
X160301647Y-82071135D01*
X160313982Y-82113593D01*
X160318015Y-82120412D01*
X160318017Y-82120417D01*
X160324293Y-82131028D01*
X160332988Y-82148776D01*
X160340448Y-82167617D01*
X160345110Y-82174033D01*
X160345110Y-82174034D01*
X160366436Y-82203387D01*
X160372952Y-82213307D01*
X160390729Y-82243365D01*
X160395458Y-82251362D01*
X160409779Y-82265683D01*
X160422619Y-82280716D01*
X160434528Y-82297107D01*
X160440634Y-82302158D01*
X160468605Y-82325298D01*
X160477384Y-82333288D01*
X161035001Y-82890905D01*
X161069027Y-82953217D01*
X161063962Y-83024032D01*
X161035003Y-83069092D01*
X157949989Y-86154106D01*
X157887677Y-86188132D01*
X157860894Y-86191011D01*
X150009083Y-86191011D01*
X149940962Y-86171009D01*
X149894469Y-86117353D01*
X149884365Y-86047079D01*
X149913859Y-85982499D01*
X149919988Y-85975916D01*
X150016758Y-85879146D01*
X150025048Y-85871602D01*
X150031529Y-85867489D01*
X150078170Y-85817821D01*
X150080924Y-85814980D01*
X150100645Y-85795259D01*
X150103123Y-85792064D01*
X150110829Y-85783042D01*
X150126146Y-85766731D01*
X150141097Y-85750810D01*
X150150857Y-85733057D01*
X150161710Y-85716534D01*
X150169264Y-85706795D01*
X150174124Y-85700530D01*
X150191687Y-85659946D01*
X150196894Y-85649316D01*
X150218206Y-85610549D01*
X150220177Y-85602872D01*
X150220179Y-85602867D01*
X150223243Y-85590931D01*
X150229649Y-85572219D01*
X150233615Y-85563056D01*
X150237692Y-85553634D01*
X150238932Y-85545806D01*
X150238934Y-85545799D01*
X150244610Y-85509965D01*
X150247016Y-85498345D01*
X150256039Y-85463200D01*
X150256039Y-85463199D01*
X150258011Y-85455519D01*
X150258011Y-85435265D01*
X150259562Y-85415554D01*
X150261491Y-85403375D01*
X150262731Y-85395546D01*
X150258570Y-85351527D01*
X150258011Y-85339670D01*
X150258011Y-79503278D01*
X150258538Y-79492095D01*
X150260213Y-79484602D01*
X150258073Y-79416511D01*
X150258011Y-79412554D01*
X150258011Y-79384655D01*
X150257507Y-79380664D01*
X150256574Y-79368822D01*
X150255434Y-79332547D01*
X150255185Y-79324622D01*
X150252973Y-79317008D01*
X150252972Y-79317003D01*
X150249534Y-79305170D01*
X150245523Y-79285806D01*
X150243978Y-79273575D01*
X150242985Y-79265714D01*
X150240068Y-79258347D01*
X150240067Y-79258342D01*
X150226709Y-79224603D01*
X150222865Y-79213376D01*
X150212741Y-79178533D01*
X150210529Y-79170918D01*
X150200218Y-79153483D01*
X150191523Y-79135735D01*
X150184063Y-79116894D01*
X150158075Y-79081124D01*
X150151559Y-79071204D01*
X150133091Y-79039976D01*
X150133089Y-79039973D01*
X150129053Y-79033149D01*
X150114732Y-79018828D01*
X150101891Y-79003794D01*
X150094643Y-78993818D01*
X150089983Y-78987404D01*
X150055918Y-78959223D01*
X150047137Y-78951233D01*
X149503647Y-78407742D01*
X149496113Y-78399463D01*
X149492000Y-78392982D01*
X149442348Y-78346356D01*
X149439507Y-78343602D01*
X149419770Y-78323865D01*
X149416573Y-78321385D01*
X149407551Y-78313680D01*
X149381100Y-78288841D01*
X149375321Y-78283414D01*
X149368375Y-78279595D01*
X149368372Y-78279593D01*
X149357566Y-78273652D01*
X149341047Y-78262801D01*
X149340583Y-78262441D01*
X149325041Y-78250386D01*
X149317772Y-78247241D01*
X149317768Y-78247238D01*
X149284463Y-78232826D01*
X149273813Y-78227609D01*
X149235060Y-78206305D01*
X149215437Y-78201267D01*
X149196734Y-78194863D01*
X149185420Y-78189967D01*
X149185419Y-78189967D01*
X149178145Y-78186819D01*
X149170322Y-78185580D01*
X149170312Y-78185577D01*
X149134476Y-78179901D01*
X149122856Y-78177495D01*
X149087711Y-78168472D01*
X149087710Y-78168472D01*
X149080030Y-78166500D01*
X149059776Y-78166500D01*
X149040065Y-78164949D01*
X149027886Y-78163020D01*
X149020057Y-78161780D01*
X149012165Y-78162526D01*
X148976039Y-78165941D01*
X148964181Y-78166500D01*
X148776996Y-78166500D01*
X148708875Y-78146498D01*
X148702935Y-78142436D01*
X148662094Y-78112763D01*
X148662093Y-78112762D01*
X148656752Y-78108882D01*
X148650724Y-78106198D01*
X148650722Y-78106197D01*
X148488319Y-78033891D01*
X148488318Y-78033891D01*
X148482288Y-78031206D01*
X148388888Y-78011353D01*
X148301944Y-77992872D01*
X148301939Y-77992872D01*
X148295487Y-77991500D01*
X148104513Y-77991500D01*
X148098061Y-77992872D01*
X148098056Y-77992872D01*
X148011112Y-78011353D01*
X147917712Y-78031206D01*
X147911682Y-78033891D01*
X147911681Y-78033891D01*
X147749278Y-78106197D01*
X147749276Y-78106198D01*
X147743248Y-78108882D01*
X147588747Y-78221134D01*
X147584326Y-78226044D01*
X147584325Y-78226045D01*
X147541460Y-78273652D01*
X147460960Y-78363056D01*
X147365473Y-78528444D01*
X147306458Y-78710072D01*
X147286496Y-78900000D01*
X147287186Y-78906565D01*
X147305533Y-79081124D01*
X147306458Y-79089928D01*
X147365473Y-79271556D01*
X147460960Y-79436944D01*
X147465378Y-79441851D01*
X147465379Y-79441852D01*
X147512741Y-79494453D01*
X147588747Y-79578866D01*
X147743248Y-79691118D01*
X147749276Y-79693802D01*
X147749278Y-79693803D01*
X147911681Y-79766109D01*
X147917712Y-79768794D01*
X148011113Y-79788647D01*
X148098056Y-79807128D01*
X148098061Y-79807128D01*
X148104513Y-79808500D01*
X148295487Y-79808500D01*
X148301939Y-79807128D01*
X148301944Y-79807128D01*
X148388887Y-79788647D01*
X148482288Y-79768794D01*
X148488319Y-79766109D01*
X148650722Y-79693803D01*
X148650724Y-79693802D01*
X148656752Y-79691118D01*
X148695376Y-79663056D01*
X148765725Y-79611945D01*
X148832593Y-79588086D01*
X148901745Y-79604167D01*
X148928881Y-79624786D01*
X148954106Y-79650011D01*
X148988132Y-79712323D01*
X148991011Y-79739106D01*
X148991011Y-82190916D01*
X148971009Y-82259037D01*
X148917353Y-82305530D01*
X148847079Y-82315634D01*
X148782499Y-82286140D01*
X148775915Y-82280011D01*
X148587111Y-82091206D01*
X148208946Y-81713041D01*
X148178209Y-81662883D01*
X148177133Y-81659569D01*
X148134527Y-81528444D01*
X148039040Y-81363056D01*
X147968494Y-81284706D01*
X147915675Y-81226045D01*
X147915674Y-81226044D01*
X147911253Y-81221134D01*
X147756752Y-81108882D01*
X147750724Y-81106198D01*
X147750722Y-81106197D01*
X147588319Y-81033891D01*
X147588318Y-81033891D01*
X147582288Y-81031206D01*
X147479662Y-81009392D01*
X147401944Y-80992872D01*
X147401939Y-80992872D01*
X147395487Y-80991500D01*
X147204513Y-80991500D01*
X147198061Y-80992872D01*
X147198056Y-80992872D01*
X147120338Y-81009392D01*
X147017712Y-81031206D01*
X147011682Y-81033891D01*
X147011681Y-81033891D01*
X146849278Y-81106197D01*
X146849276Y-81106198D01*
X146843248Y-81108882D01*
X146688747Y-81221134D01*
X146684326Y-81226044D01*
X146684325Y-81226045D01*
X146631507Y-81284706D01*
X146560960Y-81363056D01*
X146465473Y-81528444D01*
X146406458Y-81710072D01*
X146405768Y-81716633D01*
X146405768Y-81716635D01*
X146389445Y-81871945D01*
X146386496Y-81900000D01*
X146387186Y-81906565D01*
X146401193Y-82039831D01*
X146406458Y-82089928D01*
X146465473Y-82271556D01*
X146468776Y-82277278D01*
X146468777Y-82277279D01*
X146470762Y-82280717D01*
X146560960Y-82436944D01*
X146565378Y-82441851D01*
X146565379Y-82441852D01*
X146670994Y-82559149D01*
X146688747Y-82578866D01*
X146748533Y-82622303D01*
X146830276Y-82681693D01*
X146843248Y-82691118D01*
X146849276Y-82693802D01*
X146849278Y-82693803D01*
X147011681Y-82766109D01*
X147017712Y-82768794D01*
X147107932Y-82787971D01*
X147198056Y-82807128D01*
X147198061Y-82807128D01*
X147204513Y-82808500D01*
X147395487Y-82808500D01*
X147401939Y-82807128D01*
X147401944Y-82807128D01*
X147425150Y-82802195D01*
X147495941Y-82807597D01*
X147540443Y-82836347D01*
X147955194Y-83251099D01*
X147989219Y-83313411D01*
X147991408Y-83353363D01*
X147987197Y-83393433D01*
X147986507Y-83400000D01*
X147987197Y-83406565D01*
X147995275Y-83483419D01*
X148006469Y-83589928D01*
X148065484Y-83771556D01*
X148160971Y-83936944D01*
X148288758Y-84078866D01*
X148443259Y-84191118D01*
X148449287Y-84193802D01*
X148449289Y-84193803D01*
X148601715Y-84261667D01*
X148617723Y-84268794D01*
X148691943Y-84284570D01*
X148798067Y-84307128D01*
X148798072Y-84307128D01*
X148804524Y-84308500D01*
X148865011Y-84308500D01*
X148933132Y-84328502D01*
X148979625Y-84382158D01*
X148991011Y-84434500D01*
X148991011Y-85060894D01*
X148971009Y-85129015D01*
X148954106Y-85149989D01*
X148949500Y-85154595D01*
X148887188Y-85188621D01*
X148860405Y-85191500D01*
X148804513Y-85191500D01*
X148798061Y-85192872D01*
X148798056Y-85192872D01*
X148711112Y-85211353D01*
X148617712Y-85231206D01*
X148611682Y-85233891D01*
X148611681Y-85233891D01*
X148449278Y-85306197D01*
X148449276Y-85306198D01*
X148443248Y-85308882D01*
X148288747Y-85421134D01*
X148284326Y-85426044D01*
X148284325Y-85426045D01*
X148169444Y-85553634D01*
X148160960Y-85563056D01*
X148065473Y-85728444D01*
X148006458Y-85910072D01*
X148005769Y-85916631D01*
X148005768Y-85916634D01*
X147988789Y-86078182D01*
X147961776Y-86143838D01*
X147903554Y-86184468D01*
X147863479Y-86191011D01*
X146643396Y-86191011D01*
X146575275Y-86171009D01*
X146534277Y-86128011D01*
X146508910Y-86084074D01*
X146439040Y-85963056D01*
X146397242Y-85916634D01*
X146315675Y-85826045D01*
X146315674Y-85826044D01*
X146311253Y-85821134D01*
X146156752Y-85708882D01*
X146150724Y-85706198D01*
X146150722Y-85706197D01*
X145988319Y-85633891D01*
X145988318Y-85633891D01*
X145982288Y-85631206D01*
X145885105Y-85610549D01*
X145801944Y-85592872D01*
X145801939Y-85592872D01*
X145795487Y-85591500D01*
X145604513Y-85591500D01*
X145598061Y-85592872D01*
X145598056Y-85592872D01*
X145514895Y-85610549D01*
X145417712Y-85631206D01*
X145411682Y-85633891D01*
X145411681Y-85633891D01*
X145249278Y-85706197D01*
X145249276Y-85706198D01*
X145243248Y-85708882D01*
X145088747Y-85821134D01*
X145084326Y-85826044D01*
X145084325Y-85826045D01*
X145002759Y-85916634D01*
X144960960Y-85963056D01*
X144931244Y-86014525D01*
X144883231Y-86097687D01*
X144865473Y-86128444D01*
X144806458Y-86310072D01*
X144805768Y-86316633D01*
X144805768Y-86316635D01*
X144790738Y-86459640D01*
X144786496Y-86500000D01*
X143945406Y-86500000D01*
X145692247Y-84753159D01*
X145700537Y-84745615D01*
X145707018Y-84741502D01*
X145753659Y-84691834D01*
X145756413Y-84688993D01*
X145776134Y-84669272D01*
X145778612Y-84666077D01*
X145786318Y-84657055D01*
X145811158Y-84630603D01*
X145816586Y-84624823D01*
X145826346Y-84607070D01*
X145837199Y-84590547D01*
X145839321Y-84587811D01*
X145849613Y-84574543D01*
X145867176Y-84533959D01*
X145872383Y-84523329D01*
X145893695Y-84484562D01*
X145895666Y-84476885D01*
X145895668Y-84476880D01*
X145898732Y-84464944D01*
X145905138Y-84446232D01*
X145910034Y-84434919D01*
X145913181Y-84427647D01*
X145914461Y-84419569D01*
X145920097Y-84383983D01*
X145922504Y-84372362D01*
X145931528Y-84337213D01*
X145931528Y-84337212D01*
X145933500Y-84329532D01*
X145933500Y-84309271D01*
X145935051Y-84289560D01*
X145935842Y-84284570D01*
X145938219Y-84269559D01*
X145934059Y-84225548D01*
X145933500Y-84213691D01*
X145933500Y-76802524D01*
X145953502Y-76734403D01*
X145965858Y-76718221D01*
X146039040Y-76636944D01*
X146134527Y-76471556D01*
X146193542Y-76289928D01*
X146213504Y-76100000D01*
X146193542Y-75910072D01*
X146134527Y-75728444D01*
X146039040Y-75563056D01*
X145978357Y-75495660D01*
X145915675Y-75426045D01*
X145915674Y-75426044D01*
X145911253Y-75421134D01*
X145756752Y-75308882D01*
X145750724Y-75306198D01*
X145750722Y-75306197D01*
X145588319Y-75233891D01*
X145588318Y-75233891D01*
X145582288Y-75231206D01*
X145488887Y-75211353D01*
X145401944Y-75192872D01*
X145401939Y-75192872D01*
X145395487Y-75191500D01*
X145204513Y-75191500D01*
X145198061Y-75192872D01*
X145198056Y-75192872D01*
X145111113Y-75211353D01*
X145017712Y-75231206D01*
X145011682Y-75233891D01*
X145011681Y-75233891D01*
X144849278Y-75306197D01*
X144849276Y-75306198D01*
X144843248Y-75308882D01*
X144688747Y-75421134D01*
X144684326Y-75426044D01*
X144684325Y-75426045D01*
X144621644Y-75495660D01*
X144560960Y-75563056D01*
X144465473Y-75728444D01*
X144406458Y-75910072D01*
X144386496Y-76100000D01*
X144406458Y-76289928D01*
X144465473Y-76471556D01*
X144560960Y-76636944D01*
X144634137Y-76718215D01*
X144664853Y-76782221D01*
X144666500Y-76802524D01*
X144666500Y-80847752D01*
X144646498Y-80915873D01*
X144592842Y-80962366D01*
X144522568Y-80972470D01*
X144514306Y-80970999D01*
X144501951Y-80968373D01*
X144501942Y-80968372D01*
X144495487Y-80967000D01*
X144304513Y-80967000D01*
X144298061Y-80968372D01*
X144298056Y-80968372D01*
X144211113Y-80986853D01*
X144117712Y-81006706D01*
X144111685Y-81009389D01*
X144111677Y-81009392D01*
X144098202Y-81015392D01*
X144027835Y-81024827D01*
X143963537Y-80994721D01*
X143925724Y-80934633D01*
X143920952Y-80900286D01*
X143920952Y-80810588D01*
X143922030Y-80794142D01*
X143922060Y-80793919D01*
X143926202Y-80762452D01*
X143920952Y-80722572D01*
X143920952Y-80722567D01*
X143912387Y-80657506D01*
X143907343Y-80619193D01*
X143907342Y-80619191D01*
X143905290Y-80603602D01*
X143905290Y-80603601D01*
X143843976Y-80455576D01*
X143770930Y-80360381D01*
X143770926Y-80360377D01*
X143765882Y-80353803D01*
X143751468Y-80335018D01*
X143751465Y-80335015D01*
X143746439Y-80328465D01*
X143739884Y-80323435D01*
X143721073Y-80309000D01*
X143708682Y-80298133D01*
X139824719Y-76414170D01*
X139790693Y-76351858D01*
X139788159Y-76328284D01*
X139788504Y-76325000D01*
X139768542Y-76135072D01*
X139709527Y-75953444D01*
X139614040Y-75788056D01*
X139601778Y-75774437D01*
X139490675Y-75651045D01*
X139490674Y-75651044D01*
X139486253Y-75646134D01*
X139331752Y-75533882D01*
X139325724Y-75531198D01*
X139325722Y-75531197D01*
X139163319Y-75458891D01*
X139163318Y-75458891D01*
X139157288Y-75456206D01*
X139063888Y-75436353D01*
X138976944Y-75417872D01*
X138976939Y-75417872D01*
X138970487Y-75416500D01*
X138779513Y-75416500D01*
X138773061Y-75417872D01*
X138773056Y-75417872D01*
X138686112Y-75436353D01*
X138592712Y-75456206D01*
X138586682Y-75458891D01*
X138586681Y-75458891D01*
X138424278Y-75531197D01*
X138424276Y-75531198D01*
X138418248Y-75533882D01*
X138263747Y-75646134D01*
X138259326Y-75651044D01*
X138259325Y-75651045D01*
X138148223Y-75774437D01*
X138135960Y-75788056D01*
X138040473Y-75953444D01*
X137981458Y-76135072D01*
X137961496Y-76325000D01*
X119050994Y-76325000D01*
X119138446Y-76151121D01*
X119164117Y-76100080D01*
X119164120Y-76100072D01*
X119165744Y-76096844D01*
X119220316Y-75947721D01*
X119283729Y-75774437D01*
X119283730Y-75774433D01*
X119284977Y-75771026D01*
X119285822Y-75767504D01*
X119285825Y-75767496D01*
X119365124Y-75437191D01*
X119365125Y-75437187D01*
X119365971Y-75433662D01*
X119385570Y-75271706D01*
X119407316Y-75092004D01*
X119407316Y-75091997D01*
X119407652Y-75089225D01*
X119408084Y-75075500D01*
X119413511Y-74902797D01*
X119413599Y-74900000D01*
X119412405Y-74879294D01*
X119393836Y-74557246D01*
X119393835Y-74557241D01*
X119393627Y-74553626D01*
X119367085Y-74401545D01*
X119334600Y-74215415D01*
X119334598Y-74215408D01*
X119333976Y-74211842D01*
X119332049Y-74205334D01*
X119293132Y-74073955D01*
X119235437Y-73879180D01*
X119224040Y-73852460D01*
X119100740Y-73563386D01*
X119100738Y-73563383D01*
X119099316Y-73560048D01*
X119049569Y-73472831D01*
X118929208Y-73261816D01*
X118927417Y-73258676D01*
X118722018Y-72979060D01*
X118485842Y-72724904D01*
X118222019Y-72499578D01*
X117934047Y-72306069D01*
X117625741Y-72146940D01*
X117301189Y-72024302D01*
X117297668Y-72023418D01*
X117297663Y-72023416D01*
X117032069Y-71956704D01*
X116964692Y-71939780D01*
X116907762Y-71932285D01*
X116624315Y-71894968D01*
X116624307Y-71894967D01*
X116620711Y-71894494D01*
X116476045Y-71892221D01*
X116277446Y-71889101D01*
X116277442Y-71889101D01*
X116273804Y-71889044D01*
X116270190Y-71889405D01*
X116270184Y-71889405D01*
X116026843Y-71913694D01*
X115928569Y-71923503D01*
X115589583Y-71997414D01*
X115586156Y-71998587D01*
X115586150Y-71998589D01*
X115361068Y-72075652D01*
X115261339Y-72109797D01*
X114948188Y-72259163D01*
X114654279Y-72443532D01*
X114651443Y-72445804D01*
X114651436Y-72445809D01*
X114407384Y-72641332D01*
X114383509Y-72660459D01*
X114139466Y-72907071D01*
X114137225Y-72909929D01*
X114039370Y-73034729D01*
X113925386Y-73180098D01*
X113923493Y-73183187D01*
X113923491Y-73183190D01*
X113877233Y-73258676D01*
X113744105Y-73475921D01*
X113742580Y-73479206D01*
X113742578Y-73479210D01*
X113694231Y-73583365D01*
X113598027Y-73790620D01*
X113567586Y-73882666D01*
X113504323Y-74073955D01*
X113489087Y-74120023D01*
X113488351Y-74123578D01*
X113488350Y-74123581D01*
X113420248Y-74452432D01*
X113418730Y-74459764D01*
X113412136Y-74533648D01*
X113396377Y-74710229D01*
X113387888Y-74805341D01*
X110508500Y-74805341D01*
X110508500Y-55841045D01*
X110528502Y-55772924D01*
X110582158Y-55726431D01*
X110652432Y-55716327D01*
X110717012Y-55745821D01*
X110746767Y-55783842D01*
X110783938Y-55856794D01*
X110995643Y-56182793D01*
X111240266Y-56484876D01*
X111515124Y-56759734D01*
X111817207Y-57004357D01*
X112143205Y-57216062D01*
X112146139Y-57217557D01*
X112146146Y-57217561D01*
X112486607Y-57391034D01*
X112489547Y-57392532D01*
X112852438Y-57531833D01*
X113227901Y-57632438D01*
X113431793Y-57664732D01*
X113608576Y-57692732D01*
X113608584Y-57692733D01*
X113611824Y-57693246D01*
X114000000Y-57713589D01*
X114388176Y-57693246D01*
X114391416Y-57692733D01*
X114391424Y-57692732D01*
X114568207Y-57664732D01*
X114772099Y-57632438D01*
X115147562Y-57531833D01*
X115510453Y-57392532D01*
X115513393Y-57391034D01*
X115853854Y-57217561D01*
X115853861Y-57217557D01*
X115856795Y-57216062D01*
X116182793Y-57004357D01*
X116484876Y-56759734D01*
X116759734Y-56484876D01*
X117004357Y-56182793D01*
X117216062Y-55856794D01*
X117282486Y-55726431D01*
X117391034Y-55513393D01*
X117392532Y-55510453D01*
X117531833Y-55147562D01*
X117632438Y-54772099D01*
X117693246Y-54388176D01*
X117713589Y-54000000D01*
X117693246Y-53611824D01*
X117632438Y-53227901D01*
X117531833Y-52852438D01*
X117392532Y-52489547D01*
X117288228Y-52284839D01*
X117217561Y-52146147D01*
X117217557Y-52146140D01*
X117216062Y-52143206D01*
X117004357Y-51817207D01*
X116759734Y-51515124D01*
X116484876Y-51240266D01*
X116182793Y-50995643D01*
X115856795Y-50783938D01*
X115853861Y-50782443D01*
X115853854Y-50782439D01*
X115783843Y-50746767D01*
X115732228Y-50698019D01*
X115715162Y-50629104D01*
X115738063Y-50561902D01*
X115793660Y-50517750D01*
X115841046Y-50508500D01*
X191818828Y-50508500D01*
X191886949Y-50528502D01*
G37*
%TD.AperFunction*%
%TD*%
M02*
