%TF.GenerationSoftware,KiCad,Pcbnew,(6.0.4-0)*%
%TF.CreationDate,2022-07-13T07:01:54-06:00*%
%TF.ProjectId,level_translator,6c657665-6c5f-4747-9261-6e736c61746f,rev?*%
%TF.SameCoordinates,Original*%
%TF.FileFunction,Copper,L1,Top*%
%TF.FilePolarity,Positive*%
%FSLAX46Y46*%
G04 Gerber Fmt 4.6, Leading zero omitted, Abs format (unit mm)*
G04 Created by KiCad (PCBNEW (6.0.4-0)) date 2022-07-13 07:01:54*
%MOMM*%
%LPD*%
G01*
G04 APERTURE LIST*
G04 Aperture macros list*
%AMRoundRect*
0 Rectangle with rounded corners*
0 $1 Rounding radius*
0 $2 $3 $4 $5 $6 $7 $8 $9 X,Y pos of 4 corners*
0 Add a 4 corners polygon primitive as box body*
4,1,4,$2,$3,$4,$5,$6,$7,$8,$9,$2,$3,0*
0 Add four circle primitives for the rounded corners*
1,1,$1+$1,$2,$3*
1,1,$1+$1,$4,$5*
1,1,$1+$1,$6,$7*
1,1,$1+$1,$8,$9*
0 Add four rect primitives between the rounded corners*
20,1,$1+$1,$2,$3,$4,$5,0*
20,1,$1+$1,$4,$5,$6,$7,0*
20,1,$1+$1,$6,$7,$8,$9,0*
20,1,$1+$1,$8,$9,$2,$3,0*%
G04 Aperture macros list end*
%TA.AperFunction,SMDPad,CuDef*%
%ADD10RoundRect,0.250001X-0.462499X-1.074999X0.462499X-1.074999X0.462499X1.074999X-0.462499X1.074999X0*%
%TD*%
%TA.AperFunction,ComponentPad*%
%ADD11R,1.400000X1.800000*%
%TD*%
%TA.AperFunction,ComponentPad*%
%ADD12O,1.400000X1.800000*%
%TD*%
%TA.AperFunction,SMDPad,CuDef*%
%ADD13RoundRect,0.237500X-0.300000X-0.237500X0.300000X-0.237500X0.300000X0.237500X-0.300000X0.237500X0*%
%TD*%
%TA.AperFunction,SMDPad,CuDef*%
%ADD14RoundRect,0.250000X0.412500X0.650000X-0.412500X0.650000X-0.412500X-0.650000X0.412500X-0.650000X0*%
%TD*%
%TA.AperFunction,SMDPad,CuDef*%
%ADD15RoundRect,0.237500X0.300000X0.237500X-0.300000X0.237500X-0.300000X-0.237500X0.300000X-0.237500X0*%
%TD*%
%TA.AperFunction,SMDPad,CuDef*%
%ADD16RoundRect,0.150000X-0.825000X-0.150000X0.825000X-0.150000X0.825000X0.150000X-0.825000X0.150000X0*%
%TD*%
%TA.AperFunction,ComponentPad*%
%ADD17R,1.700000X1.700000*%
%TD*%
%TA.AperFunction,ComponentPad*%
%ADD18O,1.700000X1.700000*%
%TD*%
%TA.AperFunction,SMDPad,CuDef*%
%ADD19RoundRect,0.150000X-0.512500X-0.150000X0.512500X-0.150000X0.512500X0.150000X-0.512500X0.150000X0*%
%TD*%
%TA.AperFunction,ViaPad*%
%ADD20C,0.800000*%
%TD*%
%TA.AperFunction,Conductor*%
%ADD21C,0.250000*%
%TD*%
G04 APERTURE END LIST*
D10*
%TO.P,L1,1,1*%
%TO.N,Net-(L1-Pad1)*%
X154612500Y-76500000D03*
%TO.P,L1,2,2*%
%TO.N,VD*%
X157587500Y-76500000D03*
%TD*%
D11*
%TO.P,PS1,1,-Vin*%
%TO.N,GNDPWR*%
X161000000Y-79600000D03*
D12*
%TO.P,PS1,2,+Vin*%
%TO.N,Net-(L1-Pad1)*%
X163540000Y-79600000D03*
%TO.P,PS1,3,0V*%
%TO.N,GND*%
X166080000Y-79600000D03*
%TO.P,PS1,4,+Vout*%
%TO.N,Net-(C4-Pad1)*%
X168620000Y-79600000D03*
%TD*%
D13*
%TO.P,C6,1*%
%TO.N,+5V*%
X175337500Y-80900000D03*
%TO.P,C6,2*%
%TO.N,GND*%
X177062500Y-80900000D03*
%TD*%
%TO.P,C5,1*%
%TO.N,Net-(C4-Pad1)*%
X175237500Y-75300000D03*
%TO.P,C5,2*%
%TO.N,GND*%
X176962500Y-75300000D03*
%TD*%
D14*
%TO.P,C4,1*%
%TO.N,Net-(C4-Pad1)*%
X169262500Y-72700000D03*
%TO.P,C4,2*%
%TO.N,GND*%
X166137500Y-72700000D03*
%TD*%
%TO.P,C3,1*%
%TO.N,VD*%
X157500000Y-79900000D03*
%TO.P,C3,2*%
%TO.N,GNDPWR*%
X154375000Y-79900000D03*
%TD*%
D13*
%TO.P,C2,1*%
%TO.N,GND*%
X166737500Y-84300000D03*
%TO.P,C2,2*%
%TO.N,+5V*%
X168462500Y-84300000D03*
%TD*%
D15*
%TO.P,C1,1*%
%TO.N,GNDPWR*%
X162562500Y-84300000D03*
%TO.P,C1,2*%
%TO.N,VD*%
X160837500Y-84300000D03*
%TD*%
D16*
%TO.P,U1,1,VCC1*%
%TO.N,VD*%
X162135000Y-86055000D03*
%TO.P,U1,2,GND1*%
%TO.N,GNDPWR*%
X162135000Y-87325000D03*
%TO.P,U1,3,INA*%
%TO.N,Net-(J1-Pad3)*%
X162135000Y-88595000D03*
%TO.P,U1,4,INB*%
%TO.N,Net-(J1-Pad4)*%
X162135000Y-89865000D03*
%TO.P,U1,5,INC*%
%TO.N,Net-(J1-Pad5)*%
X162135000Y-91135000D03*
%TO.P,U1,6,OUTD*%
%TO.N,unconnected-(U1-Pad6)*%
X162135000Y-92405000D03*
%TO.P,U1,7,NC*%
%TO.N,unconnected-(U1-Pad7)*%
X162135000Y-93675000D03*
%TO.P,U1,8,GND1*%
%TO.N,GNDPWR*%
X162135000Y-94945000D03*
%TO.P,U1,9,GND2*%
%TO.N,GND*%
X167085000Y-94945000D03*
%TO.P,U1,10,NC*%
%TO.N,unconnected-(U1-Pad10)*%
X167085000Y-93675000D03*
%TO.P,U1,11,IND*%
%TO.N,GND*%
X167085000Y-92405000D03*
%TO.P,U1,12,OUTC*%
%TO.N,Net-(J2-Pad5)*%
X167085000Y-91135000D03*
%TO.P,U1,13,OUTB*%
%TO.N,Net-(J2-Pad4)*%
X167085000Y-89865000D03*
%TO.P,U1,14,OUTA*%
%TO.N,Net-(J2-Pad3)*%
X167085000Y-88595000D03*
%TO.P,U1,15,GND2*%
%TO.N,GND*%
X167085000Y-87325000D03*
%TO.P,U1,16,VCC2*%
%TO.N,+5V*%
X167085000Y-86055000D03*
%TD*%
D17*
%TO.P,J1,1,Pin_1*%
%TO.N,VD*%
X151100000Y-97500000D03*
D18*
%TO.P,J1,2,Pin_2*%
%TO.N,GNDPWR*%
X151100000Y-94960000D03*
%TO.P,J1,3,Pin_3*%
%TO.N,Net-(J1-Pad3)*%
X151100000Y-92420000D03*
%TO.P,J1,4,Pin_4*%
%TO.N,Net-(J1-Pad4)*%
X151100000Y-89880000D03*
%TO.P,J1,5,Pin_5*%
%TO.N,Net-(J1-Pad5)*%
X151100000Y-87340000D03*
%TD*%
D17*
%TO.P,J2,1,Pin_1*%
%TO.N,+5V*%
X176300000Y-97500000D03*
D18*
%TO.P,J2,2,Pin_2*%
%TO.N,GND*%
X176300000Y-94960000D03*
%TO.P,J2,3,Pin_3*%
%TO.N,Net-(J2-Pad3)*%
X176300000Y-92420000D03*
%TO.P,J2,4,Pin_4*%
%TO.N,Net-(J2-Pad4)*%
X176300000Y-89880000D03*
%TO.P,J2,5,Pin_5*%
%TO.N,Net-(J2-Pad5)*%
X176300000Y-87340000D03*
%TD*%
D19*
%TO.P,U2,1,IN*%
%TO.N,Net-(C4-Pad1)*%
X174262500Y-77050000D03*
%TO.P,U2,2,GND*%
%TO.N,GND*%
X174262500Y-78000000D03*
%TO.P,U2,3,EN*%
%TO.N,Net-(C4-Pad1)*%
X174262500Y-78950000D03*
%TO.P,U2,4,NC*%
%TO.N,unconnected-(U2-Pad4)*%
X176537500Y-78950000D03*
%TO.P,U2,5,OUT*%
%TO.N,+5V*%
X176537500Y-77050000D03*
%TD*%
D20*
%TO.N,Net-(C4-Pad1)*%
X172900000Y-79100000D03*
X172900000Y-77100000D03*
%TO.N,Net-(L1-Pad1)*%
X152600000Y-76500000D03*
%TO.N,GNDPWR*%
X152700000Y-79800000D03*
%TD*%
D21*
%TO.N,GND*%
X168875386Y-82100000D02*
X166700000Y-82100000D01*
X166737500Y-82137500D02*
X166700000Y-82100000D01*
X166700000Y-82100000D02*
X166400000Y-82100000D01*
X166737500Y-84300000D02*
X166737500Y-82137500D01*
X166737500Y-84300000D02*
X166300000Y-84300000D01*
X166300000Y-84300000D02*
X165500000Y-85100000D01*
X165500000Y-85100000D02*
X165500000Y-86200000D01*
X165500000Y-86200000D02*
X166625000Y-87325000D01*
X179600000Y-78100000D02*
X179600000Y-80100000D01*
X176962500Y-75462500D02*
X179600000Y-78100000D01*
X179600000Y-80100000D02*
X178800000Y-80900000D01*
X178800000Y-80900000D02*
X177062500Y-80900000D01*
%TO.N,+5V*%
X168462500Y-84300000D02*
X168462500Y-84677500D01*
X168462500Y-84677500D02*
X167085000Y-86055000D01*
X175337500Y-80900000D02*
X171862500Y-80900000D01*
X171862500Y-80900000D02*
X168462500Y-84300000D01*
X178000000Y-78512500D02*
X178000000Y-79400000D01*
X176537500Y-77050000D02*
X178000000Y-78512500D01*
X178000000Y-79400000D02*
X177299520Y-80100480D01*
X177299520Y-80100480D02*
X176137020Y-80100480D01*
X176137020Y-80100480D02*
X175337500Y-80900000D01*
%TO.N,GND*%
X174700000Y-78000000D02*
X175550480Y-77149520D01*
X175550480Y-77149520D02*
X175550480Y-76649520D01*
X175550480Y-76649520D02*
X176900000Y-75300000D01*
X166400000Y-82100000D02*
X166300000Y-82000000D01*
X166737500Y-84300000D02*
X166737500Y-82437500D01*
X166300000Y-82000000D02*
X166080000Y-81780000D01*
X166737500Y-82437500D02*
X166300000Y-82000000D01*
X166080000Y-81780000D02*
X166080000Y-79600000D01*
X172975386Y-78000000D02*
X168875386Y-82100000D01*
X174262500Y-78000000D02*
X172975386Y-78000000D01*
%TO.N,Net-(C4-Pad1)*%
X174262500Y-77050000D02*
X172950000Y-77050000D01*
X172950000Y-77050000D02*
X172900000Y-77100000D01*
X172900000Y-79100000D02*
X174112500Y-79100000D01*
X175237500Y-75300000D02*
X175237500Y-76075000D01*
X175237500Y-76075000D02*
X174262500Y-77050000D01*
X169262500Y-72700000D02*
X172637500Y-72700000D01*
X172637500Y-72700000D02*
X175237500Y-75300000D01*
X168620000Y-79600000D02*
X168620000Y-73342500D01*
X168620000Y-73342500D02*
X169262500Y-72700000D01*
%TO.N,GND*%
X166080000Y-72757500D02*
X166080000Y-79600000D01*
%TO.N,Net-(L1-Pad1)*%
X154612500Y-76500000D02*
X152600000Y-76500000D01*
%TO.N,GNDPWR*%
X152700000Y-79800000D02*
X154275000Y-79800000D01*
%TO.N,VD*%
X157500000Y-79900000D02*
X157500000Y-76587500D01*
%TO.N,GNDPWR*%
X162562500Y-84300000D02*
X161000000Y-82737500D01*
X161000000Y-82737500D02*
X161000000Y-79600000D01*
X163800000Y-87700000D02*
X163800000Y-87900000D01*
X163800000Y-87900000D02*
X163800000Y-94800000D01*
X162562500Y-84300000D02*
X163800000Y-85537500D01*
X163800000Y-85537500D02*
X163800000Y-87900000D01*
%TO.N,VD*%
X160837500Y-84300000D02*
X160837500Y-84757500D01*
X160837500Y-84757500D02*
X162135000Y-86055000D01*
X151100000Y-84500000D02*
X157600000Y-84500000D01*
X157600000Y-84500000D02*
X160637500Y-84500000D01*
X157500000Y-79900000D02*
X157500000Y-84400000D01*
X157500000Y-84400000D02*
X157600000Y-84500000D01*
X151100000Y-97500000D02*
X148000000Y-94400000D01*
X148000000Y-94400000D02*
X148000000Y-87600000D01*
X148000000Y-87600000D02*
X151100000Y-84500000D01*
%TO.N,GND*%
X165600000Y-94800000D02*
X165745000Y-94945000D01*
X176300000Y-94960000D02*
X167100000Y-94960000D01*
X165745000Y-94945000D02*
X167085000Y-94945000D01*
X165975000Y-87325000D02*
X165600000Y-87700000D01*
X165600000Y-87700000D02*
X165600000Y-94800000D01*
X167085000Y-87325000D02*
X165975000Y-87325000D01*
%TO.N,GNDPWR*%
X162135000Y-87325000D02*
X163425000Y-87325000D01*
X163800000Y-94800000D02*
X163655000Y-94945000D01*
X163655000Y-94945000D02*
X162135000Y-94945000D01*
X151100000Y-94960000D02*
X162120000Y-94960000D01*
X163425000Y-87325000D02*
X163800000Y-87700000D01*
%TO.N,Net-(J1-Pad3)*%
X160500000Y-88600000D02*
X162130000Y-88600000D01*
X149400000Y-89300000D02*
X150185489Y-88514511D01*
X150185489Y-88514511D02*
X160414511Y-88514511D01*
X149400000Y-90720000D02*
X149400000Y-89300000D01*
X160414511Y-88514511D02*
X160500000Y-88600000D01*
X151100000Y-92420000D02*
X149400000Y-90720000D01*
%TO.N,Net-(J1-Pad4)*%
X151100000Y-89880000D02*
X162120000Y-89880000D01*
%TO.N,Net-(J1-Pad5)*%
X151100000Y-87340000D02*
X149897919Y-87340000D01*
X148800000Y-88437919D02*
X148800000Y-92400000D01*
X151600000Y-93600000D02*
X154065000Y-91135000D01*
X154065000Y-91135000D02*
X162135000Y-91135000D01*
X148800000Y-92400000D02*
X150000000Y-93600000D01*
X149897919Y-87340000D02*
X148800000Y-88437919D01*
X150000000Y-93600000D02*
X151600000Y-93600000D01*
%TO.N,+5V*%
X167085000Y-86055000D02*
X167424031Y-85715969D01*
X179200000Y-94600000D02*
X176300000Y-97500000D01*
X176972697Y-85715969D02*
X179200000Y-87943272D01*
X179200000Y-87943272D02*
X179200000Y-94600000D01*
X167424031Y-85715969D02*
X176972697Y-85715969D01*
%TO.N,Net-(J2-Pad3)*%
X176786499Y-86165489D02*
X174734511Y-86165489D01*
X174734511Y-86165489D02*
X172300000Y-88600000D01*
X172300000Y-88600000D02*
X167090000Y-88600000D01*
X176300000Y-92420000D02*
X178349520Y-90370480D01*
X178349520Y-90370480D02*
X178349520Y-87728510D01*
X178349520Y-87728510D02*
X176786499Y-86165489D01*
%TO.N,Net-(J2-Pad4)*%
X176300000Y-89880000D02*
X167100000Y-89880000D01*
%TO.N,Net-(J2-Pad5)*%
X177900000Y-89941010D02*
X177900000Y-88200000D01*
X176706010Y-91135000D02*
X177900000Y-89941010D01*
X177160000Y-88200000D02*
X176300000Y-87340000D01*
X177900000Y-88200000D02*
X177160000Y-88200000D01*
X167085000Y-91135000D02*
X176706010Y-91135000D01*
%TD*%
M02*
