M48
; DRILL file {KiCad (6.0.4-0)} date Tuesday, February 21, 2023 at 01:55:30 PM
; FORMAT={-:-/ absolute / inch / decimal}
; #@! TF.CreationDate,2023-02-21T13:55:30-07:00
; #@! TF.GenerationSoftware,Kicad,Pcbnew,(6.0.4-0)
; #@! TF.FileFunction,Plated,1,2,PTH
FMAT,2
INCH
; #@! TA.AperFunction,Plated,PTH,ViaDrill
T1C0.0157
%
G90
G05
T1
X5.0825Y-4.8975
X5.1003Y-4.8624
X5.1102Y-4.9724
X5.1457Y-4.679
X5.1811Y-4.7913
X5.185Y-4.5039
X5.189Y-4.874
X5.1992Y-4.9841
X5.2044Y-4.7446
X5.2259Y-4.8604
X5.2356Y-4.8222
X5.311Y-5.0118
X5.315Y-4.626
X5.315Y-4.7638
X5.3463Y-4.8741
X5.3777Y-4.9803
X5.3881Y-4.6783
X5.3898Y-4.5669
X5.4331Y-5.063
X5.4488Y-4.5669
X5.4921Y-4.7299
X5.4982Y-4.9016
X5.5197Y-4.7835
X5.5709Y-4.9291
X5.6102Y-5.0236
T0
M30
