%TF.GenerationSoftware,KiCad,Pcbnew,(6.0.4-0)*%
%TF.CreationDate,2022-09-09T16:16:13-06:00*%
%TF.ProjectId,i2c_mux,6932635f-6d75-4782-9e6b-696361645f70,rev?*%
%TF.SameCoordinates,Original*%
%TF.FileFunction,Copper,L2,Bot*%
%TF.FilePolarity,Positive*%
%FSLAX46Y46*%
G04 Gerber Fmt 4.6, Leading zero omitted, Abs format (unit mm)*
G04 Created by KiCad (PCBNEW (6.0.4-0)) date 2022-09-09 16:16:13*
%MOMM*%
%LPD*%
G01*
G04 APERTURE LIST*
%TA.AperFunction,ComponentPad*%
%ADD10C,5.400000*%
%TD*%
%TA.AperFunction,ComponentPad*%
%ADD11C,1.240000*%
%TD*%
%TA.AperFunction,ComponentPad*%
%ADD12R,1.800000X1.400000*%
%TD*%
%TA.AperFunction,ComponentPad*%
%ADD13O,1.800000X1.400000*%
%TD*%
%TA.AperFunction,ViaPad*%
%ADD14C,0.800000*%
%TD*%
%TA.AperFunction,Conductor*%
%ADD15C,0.250000*%
%TD*%
G04 APERTURE END LIST*
D10*
%TO.P,H3,1*%
%TO.N,N/C*%
X140000000Y-125000000D03*
%TD*%
D11*
%TO.P,J11,1,In*%
%TO.N,VCC*%
X118800000Y-81600000D03*
%TO.P,J11,2,Ext*%
%TO.N,GND*%
X117530000Y-80330000D03*
X120070000Y-82870000D03*
X120070000Y-80330000D03*
X117530000Y-82870000D03*
%TD*%
D12*
%TO.P,PS1,1,-Vin*%
%TO.N,GNDPWR*%
X138000000Y-81400000D03*
D13*
%TO.P,PS1,2,+Vin*%
%TO.N,Net-(L1-Pad1)*%
X138000000Y-83940000D03*
%TO.P,PS1,3,0V*%
%TO.N,GND*%
X138000000Y-86480000D03*
%TO.P,PS1,4,+Vout*%
%TO.N,Net-(C3-Pad1)*%
X138000000Y-89020000D03*
%TD*%
D10*
%TO.P,H1,1*%
%TO.N,N/C*%
X105000000Y-65000000D03*
%TD*%
%TO.P,H2,1*%
%TO.N,N/C*%
X105000000Y-125000000D03*
%TD*%
D14*
%TO.N,VCC*%
X128800000Y-78700000D03*
X123800000Y-82300000D03*
%TO.N,GND*%
X105600000Y-77800000D03*
X94700000Y-89300000D03*
X94500000Y-71400000D03*
X94700000Y-125000000D03*
X94700000Y-98200000D03*
X94700000Y-107100000D03*
X101262299Y-76637701D03*
X94700000Y-116100000D03*
X108500000Y-71300000D03*
X94500000Y-80300000D03*
X110600000Y-78400000D03*
X101200000Y-75800000D03*
X94500000Y-62500000D03*
%TO.N,Net-(J1-Pad3)*%
X96300000Y-127000000D03*
X91600000Y-127000000D03*
%TO.N,Net-(J2-Pad3)*%
X96400000Y-89500000D03*
X98400000Y-89500000D03*
%TO.N,GNDPWR*%
X135875000Y-67600000D03*
X136100000Y-75300000D03*
X135900000Y-62000000D03*
%TO.N,VD*%
X136600000Y-65500000D03*
X136700000Y-74500000D03*
%TO.N,/Sheet626DA5AD/sda*%
X109800000Y-76500000D03*
X114700000Y-76500000D03*
%TO.N,/Sheet626DA5AD/scl*%
X110800000Y-77224500D03*
X114700000Y-77600000D03*
%TD*%
D15*
%TO.N,VCC*%
X123800000Y-82300000D02*
X127400000Y-78700000D01*
X127400000Y-78700000D02*
X128800000Y-78700000D01*
%TO.N,GND*%
X94700000Y-98200000D02*
X94700000Y-107100000D01*
X94700000Y-125000000D02*
X94700000Y-116100000D01*
X94500000Y-71400000D02*
X94500000Y-80300000D01*
X94700000Y-107100000D02*
X94700000Y-116100000D01*
X94700000Y-89300000D02*
X94700000Y-98200000D01*
X94500000Y-80300000D02*
X94500000Y-89100000D01*
X94500000Y-62500000D02*
X94500000Y-71400000D01*
X94500000Y-89100000D02*
X94700000Y-89300000D01*
%TO.N,Net-(J1-Pad3)*%
X96300000Y-127000000D02*
X91600000Y-127000000D01*
%TO.N,Net-(J2-Pad3)*%
X98400000Y-89500000D02*
X96400000Y-89500000D01*
%TO.N,GNDPWR*%
X136100000Y-75300000D02*
X135700001Y-74900001D01*
X135700001Y-67774999D02*
X135875000Y-67600000D01*
X135875000Y-67600000D02*
X135875000Y-62025000D01*
X135875000Y-62025000D02*
X135900000Y-62000000D01*
X135700001Y-74900001D02*
X135700001Y-67774999D01*
%TO.N,VD*%
X136600000Y-65500000D02*
X136600000Y-74400000D01*
X136600000Y-74400000D02*
X136700000Y-74500000D01*
%TO.N,/Sheet626DA5AD/sda*%
X109800000Y-76500000D02*
X114700000Y-76500000D01*
%TO.N,/Sheet626DA5AD/scl*%
X111175500Y-77600000D02*
X114700000Y-77600000D01*
X110800000Y-77224500D02*
X111175500Y-77600000D01*
%TD*%
%TA.AperFunction,Conductor*%
%TO.N,GND*%
G36*
X135942121Y-60528502D02*
G01*
X135988614Y-60582158D01*
X136000000Y-60634500D01*
X136000000Y-60965500D01*
X135979998Y-61033621D01*
X135926342Y-61080114D01*
X135874000Y-61091500D01*
X135804513Y-61091500D01*
X135798061Y-61092872D01*
X135798056Y-61092872D01*
X135711112Y-61111353D01*
X135617712Y-61131206D01*
X135611682Y-61133891D01*
X135611681Y-61133891D01*
X135449278Y-61206197D01*
X135449276Y-61206198D01*
X135443248Y-61208882D01*
X135288747Y-61321134D01*
X135160960Y-61463056D01*
X135065473Y-61628444D01*
X135006458Y-61810072D01*
X135005768Y-61816633D01*
X135005768Y-61816635D01*
X135000017Y-61871350D01*
X134986496Y-62000000D01*
X135006458Y-62189928D01*
X135065473Y-62371556D01*
X135160960Y-62536944D01*
X135165378Y-62541851D01*
X135165379Y-62541852D01*
X135209136Y-62590449D01*
X135239854Y-62654456D01*
X135241500Y-62674759D01*
X135241500Y-66897476D01*
X135221498Y-66965597D01*
X135209142Y-66981779D01*
X135135960Y-67063056D01*
X135040473Y-67228444D01*
X134981458Y-67410072D01*
X134980768Y-67416633D01*
X134980768Y-67416635D01*
X134974300Y-67478173D01*
X134961496Y-67600000D01*
X134962186Y-67606565D01*
X134978139Y-67758345D01*
X134981458Y-67789928D01*
X135040473Y-67971556D01*
X135043776Y-67977278D01*
X135043777Y-67977279D01*
X135049620Y-67987399D01*
X135066501Y-68050399D01*
X135066501Y-74821234D01*
X135065974Y-74832417D01*
X135064299Y-74839910D01*
X135064548Y-74847836D01*
X135064548Y-74847837D01*
X135066439Y-74907987D01*
X135066501Y-74911946D01*
X135066501Y-74939857D01*
X135066998Y-74943791D01*
X135066998Y-74943792D01*
X135067006Y-74943857D01*
X135067939Y-74955694D01*
X135069328Y-74999890D01*
X135074979Y-75019340D01*
X135078988Y-75038701D01*
X135081527Y-75058798D01*
X135084446Y-75066169D01*
X135084446Y-75066171D01*
X135097805Y-75099913D01*
X135101650Y-75111143D01*
X135113983Y-75153594D01*
X135118016Y-75160413D01*
X135118018Y-75160418D01*
X135124294Y-75171029D01*
X135132989Y-75188777D01*
X135140449Y-75207618D01*
X135145112Y-75214036D01*
X135163123Y-75238827D01*
X135183114Y-75300355D01*
X135186496Y-75300000D01*
X135206458Y-75489928D01*
X135265473Y-75671556D01*
X135360960Y-75836944D01*
X135488747Y-75978866D01*
X135643248Y-76091118D01*
X135649276Y-76093802D01*
X135649278Y-76093803D01*
X135741200Y-76134729D01*
X135817712Y-76168794D01*
X135893157Y-76184831D01*
X135900197Y-76186327D01*
X135962671Y-76220056D01*
X135996992Y-76282205D01*
X136000000Y-76309574D01*
X136000000Y-85000000D01*
X137179195Y-85000000D01*
X137238618Y-85017094D01*
X137239378Y-85015603D01*
X137244383Y-85018153D01*
X137249135Y-85021134D01*
X137415741Y-85088109D01*
X137430338Y-85093977D01*
X137486082Y-85137944D01*
X137509207Y-85205069D01*
X137492370Y-85274040D01*
X137440917Y-85322960D01*
X137416588Y-85332418D01*
X137382636Y-85341706D01*
X137372161Y-85345601D01*
X137187659Y-85433604D01*
X137178030Y-85439299D01*
X137012037Y-85558577D01*
X137003572Y-85565884D01*
X136861316Y-85712680D01*
X136854286Y-85721362D01*
X136740275Y-85891028D01*
X136734883Y-85900837D01*
X136652725Y-86087999D01*
X136649159Y-86098594D01*
X136622800Y-86208385D01*
X136623505Y-86222470D01*
X136632384Y-86226000D01*
X139367702Y-86226000D01*
X139381233Y-86222027D01*
X139382304Y-86214579D01*
X139324622Y-86027085D01*
X139320401Y-86016740D01*
X139226643Y-85835088D01*
X139220658Y-85825657D01*
X139096215Y-85663480D01*
X139088648Y-85655251D01*
X138937461Y-85517681D01*
X138928550Y-85510918D01*
X138755396Y-85402299D01*
X138745426Y-85397218D01*
X138569634Y-85326550D01*
X138513890Y-85282583D01*
X138490765Y-85215458D01*
X138507602Y-85146487D01*
X138559055Y-85097567D01*
X138583383Y-85088109D01*
X138617535Y-85078766D01*
X138617536Y-85078766D01*
X138622952Y-85077284D01*
X138759247Y-85012274D01*
X138813492Y-85000000D01*
X143365500Y-85000000D01*
X143433621Y-85020002D01*
X143480114Y-85073658D01*
X143491500Y-85126000D01*
X143491500Y-130365500D01*
X143471498Y-130433621D01*
X143417842Y-130480114D01*
X143365500Y-130491500D01*
X88634500Y-130491500D01*
X88566379Y-130471498D01*
X88519886Y-130417842D01*
X88508500Y-130365500D01*
X88508500Y-127000000D01*
X90686496Y-127000000D01*
X90706458Y-127189928D01*
X90765473Y-127371556D01*
X90860960Y-127536944D01*
X90988747Y-127678866D01*
X91143248Y-127791118D01*
X91149276Y-127793802D01*
X91149278Y-127793803D01*
X91311681Y-127866109D01*
X91317712Y-127868794D01*
X91411112Y-127888647D01*
X91498056Y-127907128D01*
X91498061Y-127907128D01*
X91504513Y-127908500D01*
X91695487Y-127908500D01*
X91701939Y-127907128D01*
X91701944Y-127907128D01*
X91788888Y-127888647D01*
X91882288Y-127868794D01*
X91888319Y-127866109D01*
X92050722Y-127793803D01*
X92050724Y-127793802D01*
X92056752Y-127791118D01*
X92211253Y-127678866D01*
X92215668Y-127673963D01*
X92220580Y-127669540D01*
X92221705Y-127670789D01*
X92275014Y-127637949D01*
X92308200Y-127633500D01*
X95591800Y-127633500D01*
X95659921Y-127653502D01*
X95679147Y-127669843D01*
X95679420Y-127669540D01*
X95684332Y-127673963D01*
X95688747Y-127678866D01*
X95843248Y-127791118D01*
X95849276Y-127793802D01*
X95849278Y-127793803D01*
X96011681Y-127866109D01*
X96017712Y-127868794D01*
X96111112Y-127888647D01*
X96198056Y-127907128D01*
X96198061Y-127907128D01*
X96204513Y-127908500D01*
X96395487Y-127908500D01*
X96401939Y-127907128D01*
X96401944Y-127907128D01*
X96488888Y-127888647D01*
X96582288Y-127868794D01*
X96588319Y-127866109D01*
X96750722Y-127793803D01*
X96750724Y-127793802D01*
X96756752Y-127791118D01*
X96911253Y-127678866D01*
X97039040Y-127536944D01*
X97134527Y-127371556D01*
X97193542Y-127189928D01*
X97213504Y-127000000D01*
X97193542Y-126810072D01*
X97134527Y-126628444D01*
X97039040Y-126463056D01*
X96938190Y-126351050D01*
X96915675Y-126326045D01*
X96915674Y-126326044D01*
X96911253Y-126321134D01*
X96756752Y-126208882D01*
X96750724Y-126206198D01*
X96750722Y-126206197D01*
X96588319Y-126133891D01*
X96588318Y-126133891D01*
X96582288Y-126131206D01*
X96488887Y-126111353D01*
X96401944Y-126092872D01*
X96401939Y-126092872D01*
X96395487Y-126091500D01*
X96204513Y-126091500D01*
X96198061Y-126092872D01*
X96198056Y-126092872D01*
X96111113Y-126111353D01*
X96017712Y-126131206D01*
X96011682Y-126133891D01*
X96011681Y-126133891D01*
X95849278Y-126206197D01*
X95849276Y-126206198D01*
X95843248Y-126208882D01*
X95688747Y-126321134D01*
X95684332Y-126326037D01*
X95679420Y-126330460D01*
X95678295Y-126329211D01*
X95624986Y-126362051D01*
X95591800Y-126366500D01*
X92308200Y-126366500D01*
X92240079Y-126346498D01*
X92220853Y-126330157D01*
X92220580Y-126330460D01*
X92215668Y-126326037D01*
X92211253Y-126321134D01*
X92056752Y-126208882D01*
X92050724Y-126206198D01*
X92050722Y-126206197D01*
X91888319Y-126133891D01*
X91888318Y-126133891D01*
X91882288Y-126131206D01*
X91788887Y-126111353D01*
X91701944Y-126092872D01*
X91701939Y-126092872D01*
X91695487Y-126091500D01*
X91504513Y-126091500D01*
X91498061Y-126092872D01*
X91498056Y-126092872D01*
X91411113Y-126111353D01*
X91317712Y-126131206D01*
X91311682Y-126133891D01*
X91311681Y-126133891D01*
X91149278Y-126206197D01*
X91149276Y-126206198D01*
X91143248Y-126208882D01*
X90988747Y-126321134D01*
X90984326Y-126326044D01*
X90984325Y-126326045D01*
X90961811Y-126351050D01*
X90860960Y-126463056D01*
X90765473Y-126628444D01*
X90706458Y-126810072D01*
X90686496Y-127000000D01*
X88508500Y-127000000D01*
X88508500Y-124955132D01*
X101786757Y-124955132D01*
X101801781Y-125313588D01*
X101856668Y-125668136D01*
X101950734Y-126014356D01*
X102002211Y-126144372D01*
X102072196Y-126321134D01*
X102082806Y-126347933D01*
X102084461Y-126351045D01*
X102084463Y-126351050D01*
X102092678Y-126366500D01*
X102251239Y-126664709D01*
X102253224Y-126667607D01*
X102253230Y-126667618D01*
X102451942Y-126957829D01*
X102451947Y-126957835D01*
X102453933Y-126960736D01*
X102688361Y-127232324D01*
X102951602Y-127476087D01*
X103240375Y-127688989D01*
X103551080Y-127868375D01*
X103634389Y-127904772D01*
X103876622Y-128010601D01*
X103876632Y-128010605D01*
X103879844Y-128012008D01*
X103883201Y-128013047D01*
X103883206Y-128013049D01*
X104018744Y-128055005D01*
X104222570Y-128118100D01*
X104574987Y-128185327D01*
X104771571Y-128200453D01*
X104929203Y-128212582D01*
X104929204Y-128212582D01*
X104932700Y-128212851D01*
X105150001Y-128205263D01*
X105287738Y-128200453D01*
X105287743Y-128200453D01*
X105291253Y-128200330D01*
X105294734Y-128199816D01*
X105642683Y-128148436D01*
X105642689Y-128148435D01*
X105646175Y-128147920D01*
X105649579Y-128147021D01*
X105649582Y-128147020D01*
X105989652Y-128057169D01*
X105989653Y-128057169D01*
X105993043Y-128056273D01*
X106327534Y-127926533D01*
X106645478Y-127760316D01*
X106942913Y-127559693D01*
X107216131Y-127327167D01*
X107351170Y-127183365D01*
X107459316Y-127068202D01*
X107459320Y-127068197D01*
X107461727Y-127065634D01*
X107463832Y-127062820D01*
X107463838Y-127062813D01*
X107674530Y-126781174D01*
X107676639Y-126778355D01*
X107858189Y-126468910D01*
X107860796Y-126463056D01*
X108002683Y-126144372D01*
X108004115Y-126141156D01*
X108112596Y-125799179D01*
X108182282Y-125447241D01*
X108212303Y-125089728D01*
X108213556Y-125000000D01*
X108211048Y-124955132D01*
X136786757Y-124955132D01*
X136801781Y-125313588D01*
X136856668Y-125668136D01*
X136950734Y-126014356D01*
X137002211Y-126144372D01*
X137072196Y-126321134D01*
X137082806Y-126347933D01*
X137084461Y-126351045D01*
X137084463Y-126351050D01*
X137092678Y-126366500D01*
X137251239Y-126664709D01*
X137253224Y-126667607D01*
X137253230Y-126667618D01*
X137451942Y-126957829D01*
X137451947Y-126957835D01*
X137453933Y-126960736D01*
X137688361Y-127232324D01*
X137951602Y-127476087D01*
X138240375Y-127688989D01*
X138551080Y-127868375D01*
X138634389Y-127904772D01*
X138876622Y-128010601D01*
X138876632Y-128010605D01*
X138879844Y-128012008D01*
X138883201Y-128013047D01*
X138883206Y-128013049D01*
X139018744Y-128055005D01*
X139222570Y-128118100D01*
X139574987Y-128185327D01*
X139771571Y-128200453D01*
X139929203Y-128212582D01*
X139929204Y-128212582D01*
X139932700Y-128212851D01*
X140150001Y-128205263D01*
X140287738Y-128200453D01*
X140287743Y-128200453D01*
X140291253Y-128200330D01*
X140294734Y-128199816D01*
X140642683Y-128148436D01*
X140642689Y-128148435D01*
X140646175Y-128147920D01*
X140649579Y-128147021D01*
X140649582Y-128147020D01*
X140989652Y-128057169D01*
X140989653Y-128057169D01*
X140993043Y-128056273D01*
X141327534Y-127926533D01*
X141645478Y-127760316D01*
X141942913Y-127559693D01*
X142216131Y-127327167D01*
X142351170Y-127183365D01*
X142459316Y-127068202D01*
X142459320Y-127068197D01*
X142461727Y-127065634D01*
X142463832Y-127062820D01*
X142463838Y-127062813D01*
X142674530Y-126781174D01*
X142676639Y-126778355D01*
X142858189Y-126468910D01*
X142860796Y-126463056D01*
X143002683Y-126144372D01*
X143004115Y-126141156D01*
X143112596Y-125799179D01*
X143182282Y-125447241D01*
X143212303Y-125089728D01*
X143213556Y-125000000D01*
X143193529Y-124641788D01*
X143186589Y-124600757D01*
X143134286Y-124291522D01*
X143134285Y-124291518D01*
X143133697Y-124288041D01*
X143034806Y-123943169D01*
X142986662Y-123826362D01*
X142899427Y-123614713D01*
X142899423Y-123614705D01*
X142898089Y-123611468D01*
X142725250Y-123297075D01*
X142518443Y-123003907D01*
X142280245Y-122735619D01*
X142013626Y-122495554D01*
X142010776Y-122493513D01*
X142010769Y-122493508D01*
X141724763Y-122288748D01*
X141724760Y-122288746D01*
X141721909Y-122286705D01*
X141408730Y-122111675D01*
X141077992Y-121972646D01*
X141074623Y-121971655D01*
X141074619Y-121971653D01*
X140922754Y-121926957D01*
X140733818Y-121871350D01*
X140450904Y-121821464D01*
X140383958Y-121809660D01*
X140383956Y-121809660D01*
X140380498Y-121809050D01*
X140376987Y-121808829D01*
X140376986Y-121808829D01*
X140025953Y-121786743D01*
X140025947Y-121786743D01*
X140022435Y-121786522D01*
X139921046Y-121791481D01*
X139667599Y-121803876D01*
X139667591Y-121803877D01*
X139664092Y-121804048D01*
X139660624Y-121804610D01*
X139660621Y-121804610D01*
X139313411Y-121860846D01*
X139313408Y-121860847D01*
X139309936Y-121861409D01*
X139306549Y-121862355D01*
X139306543Y-121862356D01*
X139022406Y-121941689D01*
X138964381Y-121957890D01*
X138798057Y-122025089D01*
X138634998Y-122090969D01*
X138634994Y-122090971D01*
X138631734Y-122092288D01*
X138628647Y-122093957D01*
X138628643Y-122093959D01*
X138592699Y-122113394D01*
X138316142Y-122262928D01*
X138021537Y-122467683D01*
X137751593Y-122704002D01*
X137509672Y-122968938D01*
X137298792Y-123259190D01*
X137121580Y-123571140D01*
X136980245Y-123900899D01*
X136876549Y-124244358D01*
X136811784Y-124597235D01*
X136786757Y-124955132D01*
X108211048Y-124955132D01*
X108193529Y-124641788D01*
X108186589Y-124600757D01*
X108134286Y-124291522D01*
X108134285Y-124291518D01*
X108133697Y-124288041D01*
X108034806Y-123943169D01*
X107986662Y-123826362D01*
X107899427Y-123614713D01*
X107899423Y-123614705D01*
X107898089Y-123611468D01*
X107725250Y-123297075D01*
X107518443Y-123003907D01*
X107280245Y-122735619D01*
X107013626Y-122495554D01*
X107010776Y-122493513D01*
X107010769Y-122493508D01*
X106724763Y-122288748D01*
X106724760Y-122288746D01*
X106721909Y-122286705D01*
X106408730Y-122111675D01*
X106077992Y-121972646D01*
X106074623Y-121971655D01*
X106074619Y-121971653D01*
X105922754Y-121926957D01*
X105733818Y-121871350D01*
X105450904Y-121821464D01*
X105383958Y-121809660D01*
X105383956Y-121809660D01*
X105380498Y-121809050D01*
X105376987Y-121808829D01*
X105376986Y-121808829D01*
X105025953Y-121786743D01*
X105025947Y-121786743D01*
X105022435Y-121786522D01*
X104921046Y-121791481D01*
X104667599Y-121803876D01*
X104667591Y-121803877D01*
X104664092Y-121804048D01*
X104660624Y-121804610D01*
X104660621Y-121804610D01*
X104313411Y-121860846D01*
X104313408Y-121860847D01*
X104309936Y-121861409D01*
X104306549Y-121862355D01*
X104306543Y-121862356D01*
X104022406Y-121941689D01*
X103964381Y-121957890D01*
X103798057Y-122025089D01*
X103634998Y-122090969D01*
X103634994Y-122090971D01*
X103631734Y-122092288D01*
X103628647Y-122093957D01*
X103628643Y-122093959D01*
X103592699Y-122113394D01*
X103316142Y-122262928D01*
X103021537Y-122467683D01*
X102751593Y-122704002D01*
X102509672Y-122968938D01*
X102298792Y-123259190D01*
X102121580Y-123571140D01*
X101980245Y-123900899D01*
X101876549Y-124244358D01*
X101811784Y-124597235D01*
X101786757Y-124955132D01*
X88508500Y-124955132D01*
X88508500Y-89500000D01*
X95486496Y-89500000D01*
X95506458Y-89689928D01*
X95565473Y-89871556D01*
X95660960Y-90036944D01*
X95665378Y-90041851D01*
X95665379Y-90041852D01*
X95770649Y-90158766D01*
X95788747Y-90178866D01*
X95943248Y-90291118D01*
X95949276Y-90293802D01*
X95949278Y-90293803D01*
X96111681Y-90366109D01*
X96117712Y-90368794D01*
X96211113Y-90388647D01*
X96298056Y-90407128D01*
X96298061Y-90407128D01*
X96304513Y-90408500D01*
X96495487Y-90408500D01*
X96501939Y-90407128D01*
X96501944Y-90407128D01*
X96588887Y-90388647D01*
X96682288Y-90368794D01*
X96688319Y-90366109D01*
X96850722Y-90293803D01*
X96850724Y-90293802D01*
X96856752Y-90291118D01*
X96943083Y-90228395D01*
X96989671Y-90194546D01*
X97011253Y-90178866D01*
X97015668Y-90173963D01*
X97020580Y-90169540D01*
X97021705Y-90170789D01*
X97075014Y-90137949D01*
X97108200Y-90133500D01*
X97691800Y-90133500D01*
X97759921Y-90153502D01*
X97779147Y-90169843D01*
X97779420Y-90169540D01*
X97784332Y-90173963D01*
X97788747Y-90178866D01*
X97810329Y-90194546D01*
X97856918Y-90228395D01*
X97943248Y-90291118D01*
X97949276Y-90293802D01*
X97949278Y-90293803D01*
X98111681Y-90366109D01*
X98117712Y-90368794D01*
X98211113Y-90388647D01*
X98298056Y-90407128D01*
X98298061Y-90407128D01*
X98304513Y-90408500D01*
X98495487Y-90408500D01*
X98501939Y-90407128D01*
X98501944Y-90407128D01*
X98588887Y-90388647D01*
X98682288Y-90368794D01*
X98688319Y-90366109D01*
X98850722Y-90293803D01*
X98850724Y-90293802D01*
X98856752Y-90291118D01*
X99011253Y-90178866D01*
X99029351Y-90158766D01*
X99134621Y-90041852D01*
X99134622Y-90041851D01*
X99139040Y-90036944D01*
X99234527Y-89871556D01*
X99293542Y-89689928D01*
X99313504Y-89500000D01*
X99293542Y-89310072D01*
X99234527Y-89128444D01*
X99193921Y-89058113D01*
X136587214Y-89058113D01*
X136613130Y-89272277D01*
X136614777Y-89277631D01*
X136614778Y-89277635D01*
X136652905Y-89401566D01*
X136676563Y-89478466D01*
X136775505Y-89670164D01*
X136795488Y-89696206D01*
X136903415Y-89836860D01*
X136903419Y-89836864D01*
X136906831Y-89841311D01*
X136968384Y-89897320D01*
X137062242Y-89982724D01*
X137062245Y-89982726D01*
X137066389Y-89986497D01*
X137071141Y-89989478D01*
X137244379Y-90098151D01*
X137244383Y-90098153D01*
X137249135Y-90101134D01*
X137449293Y-90181597D01*
X137660537Y-90225344D01*
X137665148Y-90225610D01*
X137665149Y-90225610D01*
X137713452Y-90228395D01*
X137713456Y-90228395D01*
X137715275Y-90228500D01*
X138254735Y-90228500D01*
X138257522Y-90228251D01*
X138257528Y-90228251D01*
X138324240Y-90222297D01*
X138414872Y-90214208D01*
X138577044Y-90169843D01*
X138617536Y-90158766D01*
X138617540Y-90158765D01*
X138622952Y-90157284D01*
X138817663Y-90064411D01*
X138992851Y-89938526D01*
X139142977Y-89783608D01*
X139263297Y-89604553D01*
X139350008Y-89407020D01*
X139400368Y-89197255D01*
X139412786Y-88981887D01*
X139386870Y-88767723D01*
X139323437Y-88561534D01*
X139224495Y-88369836D01*
X139173208Y-88302997D01*
X139096585Y-88203140D01*
X139096581Y-88203136D01*
X139093169Y-88198689D01*
X138986331Y-88101474D01*
X138937758Y-88057276D01*
X138937755Y-88057274D01*
X138933611Y-88053503D01*
X138928859Y-88050522D01*
X138755621Y-87941849D01*
X138755617Y-87941847D01*
X138750865Y-87938866D01*
X138569662Y-87866023D01*
X138513918Y-87822056D01*
X138490793Y-87754931D01*
X138507630Y-87685960D01*
X138559083Y-87637040D01*
X138583412Y-87627582D01*
X138617364Y-87618294D01*
X138627839Y-87614399D01*
X138812341Y-87526396D01*
X138821970Y-87520701D01*
X138987963Y-87401423D01*
X138996428Y-87394116D01*
X139138684Y-87247320D01*
X139145714Y-87238638D01*
X139259725Y-87068972D01*
X139265117Y-87059163D01*
X139347275Y-86872001D01*
X139350841Y-86861406D01*
X139377200Y-86751615D01*
X139376495Y-86737530D01*
X139367616Y-86734000D01*
X136632298Y-86734000D01*
X136618767Y-86737973D01*
X136617696Y-86745421D01*
X136675378Y-86932915D01*
X136679599Y-86943260D01*
X136773357Y-87124912D01*
X136779342Y-87134343D01*
X136903785Y-87296520D01*
X136911352Y-87304749D01*
X137062539Y-87442319D01*
X137071450Y-87449082D01*
X137244604Y-87557701D01*
X137254574Y-87562782D01*
X137430366Y-87633450D01*
X137486110Y-87677417D01*
X137509235Y-87744542D01*
X137492398Y-87813513D01*
X137440945Y-87862433D01*
X137416617Y-87871891D01*
X137382465Y-87881234D01*
X137377048Y-87882716D01*
X137182337Y-87975589D01*
X137007149Y-88101474D01*
X136857023Y-88256392D01*
X136736703Y-88435447D01*
X136649992Y-88632980D01*
X136617643Y-88767723D01*
X136605753Y-88817251D01*
X136599632Y-88842745D01*
X136587214Y-89058113D01*
X99193921Y-89058113D01*
X99139040Y-88963056D01*
X99011253Y-88821134D01*
X98856752Y-88708882D01*
X98850724Y-88706198D01*
X98850722Y-88706197D01*
X98688319Y-88633891D01*
X98688318Y-88633891D01*
X98682288Y-88631206D01*
X98588887Y-88611353D01*
X98501944Y-88592872D01*
X98501939Y-88592872D01*
X98495487Y-88591500D01*
X98304513Y-88591500D01*
X98298061Y-88592872D01*
X98298056Y-88592872D01*
X98211113Y-88611353D01*
X98117712Y-88631206D01*
X98111682Y-88633891D01*
X98111681Y-88633891D01*
X97949278Y-88706197D01*
X97949276Y-88706198D01*
X97943248Y-88708882D01*
X97937907Y-88712762D01*
X97937906Y-88712763D01*
X97810329Y-88805454D01*
X97788747Y-88821134D01*
X97784332Y-88826037D01*
X97779420Y-88830460D01*
X97778295Y-88829211D01*
X97724986Y-88862051D01*
X97691800Y-88866500D01*
X97108200Y-88866500D01*
X97040079Y-88846498D01*
X97020853Y-88830157D01*
X97020580Y-88830460D01*
X97015668Y-88826037D01*
X97011253Y-88821134D01*
X96989671Y-88805454D01*
X96862094Y-88712763D01*
X96862093Y-88712762D01*
X96856752Y-88708882D01*
X96850724Y-88706198D01*
X96850722Y-88706197D01*
X96688319Y-88633891D01*
X96688318Y-88633891D01*
X96682288Y-88631206D01*
X96588887Y-88611353D01*
X96501944Y-88592872D01*
X96501939Y-88592872D01*
X96495487Y-88591500D01*
X96304513Y-88591500D01*
X96298061Y-88592872D01*
X96298056Y-88592872D01*
X96211113Y-88611353D01*
X96117712Y-88631206D01*
X96111682Y-88633891D01*
X96111681Y-88633891D01*
X95949278Y-88706197D01*
X95949276Y-88706198D01*
X95943248Y-88708882D01*
X95788747Y-88821134D01*
X95660960Y-88963056D01*
X95565473Y-89128444D01*
X95506458Y-89310072D01*
X95486496Y-89500000D01*
X88508500Y-89500000D01*
X88508500Y-83825714D01*
X116938647Y-83825714D01*
X116948529Y-83838203D01*
X116984652Y-83862340D01*
X116994767Y-83867832D01*
X117174629Y-83945107D01*
X117185572Y-83948662D01*
X117376499Y-83991865D01*
X117387909Y-83993367D01*
X117583520Y-84001052D01*
X117595002Y-84000450D01*
X117788740Y-83972360D01*
X117799923Y-83969676D01*
X117985296Y-83906750D01*
X117995799Y-83902074D01*
X118112727Y-83836592D01*
X118122590Y-83826515D01*
X118122281Y-83825714D01*
X119478647Y-83825714D01*
X119488529Y-83838203D01*
X119524652Y-83862340D01*
X119534767Y-83867832D01*
X119714629Y-83945107D01*
X119725572Y-83948662D01*
X119916499Y-83991865D01*
X119927909Y-83993367D01*
X120123520Y-84001052D01*
X120135002Y-84000450D01*
X120328740Y-83972360D01*
X120339923Y-83969676D01*
X120525296Y-83906750D01*
X120535799Y-83902074D01*
X120652727Y-83836592D01*
X120662590Y-83826515D01*
X120659635Y-83818845D01*
X120082812Y-83242022D01*
X120068868Y-83234408D01*
X120067035Y-83234539D01*
X120060420Y-83238790D01*
X119484843Y-83814367D01*
X119478647Y-83825714D01*
X118122281Y-83825714D01*
X118119635Y-83818845D01*
X117542812Y-83242022D01*
X117528868Y-83234408D01*
X117527035Y-83234539D01*
X117520420Y-83238790D01*
X116944843Y-83814367D01*
X116938647Y-83825714D01*
X88508500Y-83825714D01*
X88508500Y-82846112D01*
X116397934Y-82846112D01*
X116410737Y-83041446D01*
X116412537Y-83052815D01*
X116460725Y-83242552D01*
X116464563Y-83253390D01*
X116546522Y-83431174D01*
X116552271Y-83441131D01*
X116561438Y-83454102D01*
X116572027Y-83462490D01*
X116585328Y-83455462D01*
X117157978Y-82882812D01*
X117165592Y-82868868D01*
X117165461Y-82867035D01*
X117161210Y-82860420D01*
X116583734Y-82282944D01*
X116571354Y-82276184D01*
X116565388Y-82280650D01*
X116486093Y-82431365D01*
X116481685Y-82442008D01*
X116423635Y-82628956D01*
X116421245Y-82640200D01*
X116398235Y-82834611D01*
X116397934Y-82846112D01*
X88508500Y-82846112D01*
X88508500Y-81914083D01*
X116938195Y-81914083D01*
X116941682Y-81922472D01*
X118474929Y-83455719D01*
X118487309Y-83462479D01*
X118493889Y-83457553D01*
X118562074Y-83335799D01*
X118566750Y-83325296D01*
X118629676Y-83139923D01*
X118632360Y-83128740D01*
X118660746Y-82932962D01*
X118661376Y-82925579D01*
X118662735Y-82873704D01*
X118662371Y-82862599D01*
X118663314Y-82862568D01*
X118676202Y-82796945D01*
X118725377Y-82745736D01*
X118792940Y-82729174D01*
X118796360Y-82729308D01*
X118817263Y-82730130D01*
X118884545Y-82752792D01*
X118928895Y-82808232D01*
X118938044Y-82847792D01*
X118950737Y-83041446D01*
X118952537Y-83052815D01*
X119000725Y-83242552D01*
X119004563Y-83253390D01*
X119086522Y-83431174D01*
X119092271Y-83441131D01*
X119101438Y-83454102D01*
X119112027Y-83462490D01*
X119125328Y-83455462D01*
X119709658Y-82871132D01*
X120434408Y-82871132D01*
X120434539Y-82872965D01*
X120438790Y-82879580D01*
X121014929Y-83455719D01*
X121027309Y-83462479D01*
X121033889Y-83457553D01*
X121102074Y-83335799D01*
X121106750Y-83325296D01*
X121169676Y-83139923D01*
X121172360Y-83128740D01*
X121200746Y-82932962D01*
X121201376Y-82925579D01*
X121202735Y-82873704D01*
X121202492Y-82866305D01*
X121184392Y-82669315D01*
X121182294Y-82657994D01*
X121129160Y-82469594D01*
X121125035Y-82458847D01*
X121046699Y-82300000D01*
X122886496Y-82300000D01*
X122906458Y-82489928D01*
X122965473Y-82671556D01*
X123060960Y-82836944D01*
X123065378Y-82841851D01*
X123065379Y-82841852D01*
X123102260Y-82882812D01*
X123188747Y-82978866D01*
X123343248Y-83091118D01*
X123349276Y-83093802D01*
X123349278Y-83093803D01*
X123452866Y-83139923D01*
X123517712Y-83168794D01*
X123611113Y-83188647D01*
X123698056Y-83207128D01*
X123698061Y-83207128D01*
X123704513Y-83208500D01*
X123895487Y-83208500D01*
X123901939Y-83207128D01*
X123901944Y-83207128D01*
X123988887Y-83188647D01*
X124082288Y-83168794D01*
X124147134Y-83139923D01*
X124250722Y-83093803D01*
X124250724Y-83093802D01*
X124256752Y-83091118D01*
X124411253Y-82978866D01*
X124497740Y-82882812D01*
X124534621Y-82841852D01*
X124534622Y-82841851D01*
X124539040Y-82836944D01*
X124634527Y-82671556D01*
X124693542Y-82489928D01*
X124710907Y-82324706D01*
X124737920Y-82259050D01*
X124747122Y-82248782D01*
X127625500Y-79370405D01*
X127687812Y-79336379D01*
X127714595Y-79333500D01*
X128091800Y-79333500D01*
X128159921Y-79353502D01*
X128179147Y-79369843D01*
X128179420Y-79369540D01*
X128184332Y-79373963D01*
X128188747Y-79378866D01*
X128343248Y-79491118D01*
X128349276Y-79493802D01*
X128349278Y-79493803D01*
X128511681Y-79566109D01*
X128517712Y-79568794D01*
X128611112Y-79588647D01*
X128698056Y-79607128D01*
X128698061Y-79607128D01*
X128704513Y-79608500D01*
X128895487Y-79608500D01*
X128901939Y-79607128D01*
X128901944Y-79607128D01*
X128988888Y-79588647D01*
X129082288Y-79568794D01*
X129088319Y-79566109D01*
X129250722Y-79493803D01*
X129250724Y-79493802D01*
X129256752Y-79491118D01*
X129411253Y-79378866D01*
X129415675Y-79373955D01*
X129534621Y-79241852D01*
X129534622Y-79241851D01*
X129539040Y-79236944D01*
X129634527Y-79071556D01*
X129693542Y-78889928D01*
X129713504Y-78700000D01*
X129693542Y-78510072D01*
X129634527Y-78328444D01*
X129539040Y-78163056D01*
X129529770Y-78152760D01*
X129415675Y-78026045D01*
X129415674Y-78026044D01*
X129411253Y-78021134D01*
X129256752Y-77908882D01*
X129250724Y-77906198D01*
X129250722Y-77906197D01*
X129088319Y-77833891D01*
X129088318Y-77833891D01*
X129082288Y-77831206D01*
X128988888Y-77811353D01*
X128901944Y-77792872D01*
X128901939Y-77792872D01*
X128895487Y-77791500D01*
X128704513Y-77791500D01*
X128698061Y-77792872D01*
X128698056Y-77792872D01*
X128611112Y-77811353D01*
X128517712Y-77831206D01*
X128511682Y-77833891D01*
X128511681Y-77833891D01*
X128349278Y-77906197D01*
X128349276Y-77906198D01*
X128343248Y-77908882D01*
X128337907Y-77912762D01*
X128337906Y-77912763D01*
X128256985Y-77971556D01*
X128188747Y-78021134D01*
X128184332Y-78026037D01*
X128179420Y-78030460D01*
X128178295Y-78029211D01*
X128124986Y-78062051D01*
X128091800Y-78066500D01*
X127478767Y-78066500D01*
X127467584Y-78065973D01*
X127460091Y-78064298D01*
X127452165Y-78064547D01*
X127452164Y-78064547D01*
X127392001Y-78066438D01*
X127388043Y-78066500D01*
X127360144Y-78066500D01*
X127356154Y-78067004D01*
X127344320Y-78067936D01*
X127300111Y-78069326D01*
X127292497Y-78071538D01*
X127292492Y-78071539D01*
X127280659Y-78074977D01*
X127261296Y-78078988D01*
X127241203Y-78081526D01*
X127233836Y-78084443D01*
X127233831Y-78084444D01*
X127200092Y-78097802D01*
X127188865Y-78101646D01*
X127146407Y-78113982D01*
X127139581Y-78118019D01*
X127128972Y-78124293D01*
X127111224Y-78132988D01*
X127092383Y-78140448D01*
X127085967Y-78145110D01*
X127085966Y-78145110D01*
X127056613Y-78166436D01*
X127046693Y-78172952D01*
X127015465Y-78191420D01*
X127015462Y-78191422D01*
X127008638Y-78195458D01*
X126994317Y-78209779D01*
X126979284Y-78222619D01*
X126962893Y-78234528D01*
X126957842Y-78240634D01*
X126934702Y-78268605D01*
X126926712Y-78277384D01*
X123849500Y-81354595D01*
X123787188Y-81388621D01*
X123760405Y-81391500D01*
X123704513Y-81391500D01*
X123698061Y-81392872D01*
X123698056Y-81392872D01*
X123611113Y-81411353D01*
X123517712Y-81431206D01*
X123511682Y-81433891D01*
X123511681Y-81433891D01*
X123349278Y-81506197D01*
X123349276Y-81506198D01*
X123343248Y-81508882D01*
X123337907Y-81512762D01*
X123337906Y-81512763D01*
X123287843Y-81549136D01*
X123188747Y-81621134D01*
X123184326Y-81626044D01*
X123184325Y-81626045D01*
X123138414Y-81677035D01*
X123060960Y-81763056D01*
X123013346Y-81845525D01*
X122978678Y-81905573D01*
X122965473Y-81928444D01*
X122906458Y-82110072D01*
X122905768Y-82116633D01*
X122905768Y-82116635D01*
X122891879Y-82248782D01*
X122886496Y-82300000D01*
X121046699Y-82300000D01*
X121038455Y-82283282D01*
X121037767Y-82282160D01*
X121029156Y-82275699D01*
X121016741Y-82282469D01*
X120442022Y-82857188D01*
X120434408Y-82871132D01*
X119709658Y-82871132D01*
X120654781Y-81926009D01*
X120661541Y-81913629D01*
X120655511Y-81905573D01*
X120589181Y-81863722D01*
X120578930Y-81858498D01*
X120397106Y-81785958D01*
X120386079Y-81782691D01*
X120194081Y-81744501D01*
X120182634Y-81743298D01*
X120057319Y-81741658D01*
X119989466Y-81720766D01*
X119943679Y-81666507D01*
X119933011Y-81612370D01*
X119933238Y-81603703D01*
X119933335Y-81600000D01*
X119932978Y-81596111D01*
X119932988Y-81596063D01*
X119932874Y-81592599D01*
X119933673Y-81592573D01*
X119946669Y-81526447D01*
X119995849Y-81475244D01*
X120063397Y-81458690D01*
X120123520Y-81461052D01*
X120135002Y-81460450D01*
X120328740Y-81432360D01*
X120339923Y-81429676D01*
X120525296Y-81366750D01*
X120535799Y-81362074D01*
X120652727Y-81296592D01*
X120662590Y-81286515D01*
X120659635Y-81278845D01*
X119711922Y-80331132D01*
X120434408Y-80331132D01*
X120434539Y-80332965D01*
X120438790Y-80339580D01*
X121014929Y-80915719D01*
X121027309Y-80922479D01*
X121033889Y-80917553D01*
X121102074Y-80795799D01*
X121106750Y-80785296D01*
X121169676Y-80599923D01*
X121172360Y-80588740D01*
X121200746Y-80392962D01*
X121201376Y-80385579D01*
X121202735Y-80333704D01*
X121202492Y-80326305D01*
X121184392Y-80129315D01*
X121182294Y-80117994D01*
X121129160Y-79929594D01*
X121125035Y-79918847D01*
X121038455Y-79743282D01*
X121037767Y-79742160D01*
X121029156Y-79735699D01*
X121016741Y-79742469D01*
X120442022Y-80317188D01*
X120434408Y-80331132D01*
X119711922Y-80331132D01*
X119123734Y-79742944D01*
X119111354Y-79736184D01*
X119105388Y-79740650D01*
X119026093Y-79891365D01*
X119021685Y-79902008D01*
X118963635Y-80088956D01*
X118961245Y-80100200D01*
X118938235Y-80294611D01*
X118937934Y-80306113D01*
X118939975Y-80337259D01*
X118924471Y-80406542D01*
X118873970Y-80456444D01*
X118812597Y-80471488D01*
X118811593Y-80471475D01*
X118786829Y-80471151D01*
X118718977Y-80450260D01*
X118673190Y-80396001D01*
X118662521Y-80341860D01*
X118662735Y-80333701D01*
X118662492Y-80326305D01*
X118644392Y-80129315D01*
X118642294Y-80117994D01*
X118589160Y-79929594D01*
X118585035Y-79918847D01*
X118498455Y-79743282D01*
X118497767Y-79742160D01*
X118489156Y-79735699D01*
X118476741Y-79742469D01*
X116944843Y-81274367D01*
X116938647Y-81285714D01*
X116948529Y-81298203D01*
X116984652Y-81322340D01*
X116994767Y-81327832D01*
X117174629Y-81405107D01*
X117185572Y-81408662D01*
X117376499Y-81451865D01*
X117387909Y-81453367D01*
X117546725Y-81459607D01*
X117614008Y-81482268D01*
X117658358Y-81537708D01*
X117667507Y-81577267D01*
X117669241Y-81603703D01*
X117669506Y-81607752D01*
X117654002Y-81677035D01*
X117603502Y-81726938D01*
X117542127Y-81741982D01*
X117446902Y-81740736D01*
X117435421Y-81741639D01*
X117242499Y-81774789D01*
X117231379Y-81777769D01*
X117047718Y-81845525D01*
X117037344Y-81850473D01*
X116947793Y-81903750D01*
X116938195Y-81914083D01*
X88508500Y-81914083D01*
X88508500Y-80306112D01*
X116397934Y-80306112D01*
X116410737Y-80501446D01*
X116412537Y-80512815D01*
X116460725Y-80702552D01*
X116464563Y-80713390D01*
X116546522Y-80891174D01*
X116552271Y-80901131D01*
X116561438Y-80914102D01*
X116572027Y-80922490D01*
X116585328Y-80915462D01*
X117157978Y-80342812D01*
X117165592Y-80328868D01*
X117165461Y-80327035D01*
X117161210Y-80320420D01*
X116583734Y-79742944D01*
X116571354Y-79736184D01*
X116565388Y-79740650D01*
X116486093Y-79891365D01*
X116481685Y-79902008D01*
X116423635Y-80088956D01*
X116421245Y-80100200D01*
X116398235Y-80294611D01*
X116397934Y-80306112D01*
X88508500Y-80306112D01*
X88508500Y-79374083D01*
X116938195Y-79374083D01*
X116941682Y-79382472D01*
X117517188Y-79957978D01*
X117531132Y-79965592D01*
X117532965Y-79965461D01*
X117539580Y-79961210D01*
X118114781Y-79386009D01*
X118121293Y-79374083D01*
X119478195Y-79374083D01*
X119481682Y-79382472D01*
X120057188Y-79957978D01*
X120071132Y-79965592D01*
X120072965Y-79965461D01*
X120079580Y-79961210D01*
X120654781Y-79386009D01*
X120661541Y-79373629D01*
X120655511Y-79365573D01*
X120589181Y-79323722D01*
X120578930Y-79318498D01*
X120397106Y-79245958D01*
X120386079Y-79242691D01*
X120194081Y-79204501D01*
X120182634Y-79203298D01*
X119986901Y-79200736D01*
X119975421Y-79201639D01*
X119782499Y-79234789D01*
X119771379Y-79237769D01*
X119587718Y-79305525D01*
X119577344Y-79310473D01*
X119487793Y-79363750D01*
X119478195Y-79374083D01*
X118121293Y-79374083D01*
X118121541Y-79373629D01*
X118115511Y-79365573D01*
X118049181Y-79323722D01*
X118038930Y-79318498D01*
X117857106Y-79245958D01*
X117846079Y-79242691D01*
X117654081Y-79204501D01*
X117642634Y-79203298D01*
X117446901Y-79200736D01*
X117435421Y-79201639D01*
X117242499Y-79234789D01*
X117231379Y-79237769D01*
X117047718Y-79305525D01*
X117037344Y-79310473D01*
X116947793Y-79363750D01*
X116938195Y-79374083D01*
X88508500Y-79374083D01*
X88508500Y-76500000D01*
X108886496Y-76500000D01*
X108906458Y-76689928D01*
X108965473Y-76871556D01*
X109060960Y-77036944D01*
X109065378Y-77041851D01*
X109065379Y-77041852D01*
X109084471Y-77063056D01*
X109188747Y-77178866D01*
X109343248Y-77291118D01*
X109349276Y-77293802D01*
X109349278Y-77293803D01*
X109511681Y-77366109D01*
X109517712Y-77368794D01*
X109611113Y-77388647D01*
X109698056Y-77407128D01*
X109698061Y-77407128D01*
X109704513Y-77408500D01*
X109812988Y-77408500D01*
X109881109Y-77428502D01*
X109927602Y-77482158D01*
X109932820Y-77495562D01*
X109965473Y-77596056D01*
X110060960Y-77761444D01*
X110065378Y-77766351D01*
X110065379Y-77766352D01*
X110123774Y-77831206D01*
X110188747Y-77903366D01*
X110343248Y-78015618D01*
X110349276Y-78018302D01*
X110349278Y-78018303D01*
X110497834Y-78084444D01*
X110517712Y-78093294D01*
X110604634Y-78111770D01*
X110698056Y-78131628D01*
X110698061Y-78131628D01*
X110704513Y-78133000D01*
X110789850Y-78133000D01*
X110850393Y-78149562D01*
X110850459Y-78149613D01*
X110891043Y-78167176D01*
X110901673Y-78172383D01*
X110940440Y-78193695D01*
X110948117Y-78195666D01*
X110948122Y-78195668D01*
X110960058Y-78198732D01*
X110978766Y-78205137D01*
X110997355Y-78213181D01*
X111005183Y-78214421D01*
X111005190Y-78214423D01*
X111041024Y-78220099D01*
X111052644Y-78222505D01*
X111087789Y-78231528D01*
X111095470Y-78233500D01*
X111115724Y-78233500D01*
X111135434Y-78235051D01*
X111155443Y-78238220D01*
X111163335Y-78237474D01*
X111199461Y-78234059D01*
X111211319Y-78233500D01*
X113991800Y-78233500D01*
X114059921Y-78253502D01*
X114079147Y-78269843D01*
X114079420Y-78269540D01*
X114084332Y-78273963D01*
X114088747Y-78278866D01*
X114110329Y-78294546D01*
X114165636Y-78334729D01*
X114243248Y-78391118D01*
X114249276Y-78393802D01*
X114249278Y-78393803D01*
X114411681Y-78466109D01*
X114417712Y-78468794D01*
X114511112Y-78488647D01*
X114598056Y-78507128D01*
X114598061Y-78507128D01*
X114604513Y-78508500D01*
X114795487Y-78508500D01*
X114801939Y-78507128D01*
X114801944Y-78507128D01*
X114888888Y-78488647D01*
X114982288Y-78468794D01*
X114988319Y-78466109D01*
X115150722Y-78393803D01*
X115150724Y-78393802D01*
X115156752Y-78391118D01*
X115311253Y-78278866D01*
X115347851Y-78238220D01*
X115434621Y-78141852D01*
X115434622Y-78141851D01*
X115439040Y-78136944D01*
X115509088Y-78015618D01*
X115531223Y-77977279D01*
X115531224Y-77977278D01*
X115534527Y-77971556D01*
X115593542Y-77789928D01*
X115613504Y-77600000D01*
X115612429Y-77589771D01*
X115594232Y-77416635D01*
X115594232Y-77416633D01*
X115593542Y-77410072D01*
X115534527Y-77228444D01*
X115467875Y-77112999D01*
X115451137Y-77044005D01*
X115467875Y-76987000D01*
X115531223Y-76877279D01*
X115531224Y-76877278D01*
X115534527Y-76871556D01*
X115593542Y-76689928D01*
X115613504Y-76500000D01*
X115593542Y-76310072D01*
X115534527Y-76128444D01*
X115439040Y-75963056D01*
X115311253Y-75821134D01*
X115156752Y-75708882D01*
X115150724Y-75706198D01*
X115150722Y-75706197D01*
X114988319Y-75633891D01*
X114988318Y-75633891D01*
X114982288Y-75631206D01*
X114888888Y-75611353D01*
X114801944Y-75592872D01*
X114801939Y-75592872D01*
X114795487Y-75591500D01*
X114604513Y-75591500D01*
X114598061Y-75592872D01*
X114598056Y-75592872D01*
X114511112Y-75611353D01*
X114417712Y-75631206D01*
X114411682Y-75633891D01*
X114411681Y-75633891D01*
X114249278Y-75706197D01*
X114249276Y-75706198D01*
X114243248Y-75708882D01*
X114088747Y-75821134D01*
X114084332Y-75826037D01*
X114079420Y-75830460D01*
X114078295Y-75829211D01*
X114024986Y-75862051D01*
X113991800Y-75866500D01*
X110508200Y-75866500D01*
X110440079Y-75846498D01*
X110420853Y-75830157D01*
X110420580Y-75830460D01*
X110415668Y-75826037D01*
X110411253Y-75821134D01*
X110256752Y-75708882D01*
X110250724Y-75706198D01*
X110250722Y-75706197D01*
X110088319Y-75633891D01*
X110088318Y-75633891D01*
X110082288Y-75631206D01*
X109988888Y-75611353D01*
X109901944Y-75592872D01*
X109901939Y-75592872D01*
X109895487Y-75591500D01*
X109704513Y-75591500D01*
X109698061Y-75592872D01*
X109698056Y-75592872D01*
X109611112Y-75611353D01*
X109517712Y-75631206D01*
X109511682Y-75633891D01*
X109511681Y-75633891D01*
X109349278Y-75706197D01*
X109349276Y-75706198D01*
X109343248Y-75708882D01*
X109188747Y-75821134D01*
X109060960Y-75963056D01*
X108965473Y-76128444D01*
X108906458Y-76310072D01*
X108886496Y-76500000D01*
X88508500Y-76500000D01*
X88508500Y-64955132D01*
X101786757Y-64955132D01*
X101801781Y-65313588D01*
X101856668Y-65668136D01*
X101950734Y-66014356D01*
X102082806Y-66347933D01*
X102251239Y-66664709D01*
X102253224Y-66667607D01*
X102253230Y-66667618D01*
X102451942Y-66957829D01*
X102451947Y-66957835D01*
X102453933Y-66960736D01*
X102688361Y-67232324D01*
X102951602Y-67476087D01*
X103240375Y-67688989D01*
X103551080Y-67868375D01*
X103554301Y-67869782D01*
X103876622Y-68010601D01*
X103876632Y-68010605D01*
X103879844Y-68012008D01*
X103883201Y-68013047D01*
X103883206Y-68013049D01*
X104018744Y-68055005D01*
X104222570Y-68118100D01*
X104574987Y-68185327D01*
X104771571Y-68200453D01*
X104929203Y-68212582D01*
X104929204Y-68212582D01*
X104932700Y-68212851D01*
X105150001Y-68205263D01*
X105287738Y-68200453D01*
X105287743Y-68200453D01*
X105291253Y-68200330D01*
X105294734Y-68199816D01*
X105642683Y-68148436D01*
X105642689Y-68148435D01*
X105646175Y-68147920D01*
X105649579Y-68147021D01*
X105649582Y-68147020D01*
X105989652Y-68057169D01*
X105989653Y-68057169D01*
X105993043Y-68056273D01*
X106327534Y-67926533D01*
X106645478Y-67760316D01*
X106942913Y-67559693D01*
X107216131Y-67327167D01*
X107308838Y-67228444D01*
X107459316Y-67068202D01*
X107459320Y-67068197D01*
X107461727Y-67065634D01*
X107463832Y-67062820D01*
X107463838Y-67062813D01*
X107674530Y-66781174D01*
X107676639Y-66778355D01*
X107858189Y-66468910D01*
X108004115Y-66141156D01*
X108112596Y-65799179D01*
X108182282Y-65447241D01*
X108212303Y-65089728D01*
X108213556Y-65000000D01*
X108193529Y-64641788D01*
X108186589Y-64600757D01*
X108134286Y-64291522D01*
X108134285Y-64291518D01*
X108133697Y-64288041D01*
X108034806Y-63943169D01*
X107986662Y-63826362D01*
X107899427Y-63614713D01*
X107899423Y-63614705D01*
X107898089Y-63611468D01*
X107725250Y-63297075D01*
X107518443Y-63003907D01*
X107280245Y-62735619D01*
X107013626Y-62495554D01*
X107010776Y-62493513D01*
X107010769Y-62493508D01*
X106724763Y-62288748D01*
X106724760Y-62288746D01*
X106721909Y-62286705D01*
X106408730Y-62111675D01*
X106077992Y-61972646D01*
X106074623Y-61971655D01*
X106074619Y-61971653D01*
X105922754Y-61926957D01*
X105733818Y-61871350D01*
X105423515Y-61816635D01*
X105383958Y-61809660D01*
X105383956Y-61809660D01*
X105380498Y-61809050D01*
X105376987Y-61808829D01*
X105376986Y-61808829D01*
X105025953Y-61786743D01*
X105025947Y-61786743D01*
X105022435Y-61786522D01*
X104921046Y-61791481D01*
X104667599Y-61803876D01*
X104667591Y-61803877D01*
X104664092Y-61804048D01*
X104660624Y-61804610D01*
X104660621Y-61804610D01*
X104313411Y-61860846D01*
X104313408Y-61860847D01*
X104309936Y-61861409D01*
X104306549Y-61862355D01*
X104306543Y-61862356D01*
X104022406Y-61941689D01*
X103964381Y-61957890D01*
X103876404Y-61993435D01*
X103634998Y-62090969D01*
X103634994Y-62090971D01*
X103631734Y-62092288D01*
X103628647Y-62093957D01*
X103628643Y-62093959D01*
X103592699Y-62113394D01*
X103316142Y-62262928D01*
X103021537Y-62467683D01*
X103018895Y-62469996D01*
X103018891Y-62469999D01*
X102881303Y-62590449D01*
X102751593Y-62704002D01*
X102509672Y-62968938D01*
X102298792Y-63259190D01*
X102121580Y-63571140D01*
X101980245Y-63900899D01*
X101876549Y-64244358D01*
X101811784Y-64597235D01*
X101786757Y-64955132D01*
X88508500Y-64955132D01*
X88508500Y-60634500D01*
X88528502Y-60566379D01*
X88582158Y-60519886D01*
X88634500Y-60508500D01*
X135874000Y-60508500D01*
X135942121Y-60528502D01*
G37*
%TD.AperFunction*%
%TD*%
M02*
