%TF.GenerationSoftware,KiCad,Pcbnew,(6.0.4-0)*%
%TF.CreationDate,2022-09-09T16:16:13-06:00*%
%TF.ProjectId,i2c_mux,6932635f-6d75-4782-9e6b-696361645f70,rev?*%
%TF.SameCoordinates,Original*%
%TF.FileFunction,Legend,Top*%
%TF.FilePolarity,Positive*%
%FSLAX46Y46*%
G04 Gerber Fmt 4.6, Leading zero omitted, Abs format (unit mm)*
G04 Created by KiCad (PCBNEW (6.0.4-0)) date 2022-09-09 16:16:13*
%MOMM*%
%LPD*%
G01*
G04 APERTURE LIST*
G04 Aperture macros list*
%AMRoundRect*
0 Rectangle with rounded corners*
0 $1 Rounding radius*
0 $2 $3 $4 $5 $6 $7 $8 $9 X,Y pos of 4 corners*
0 Add a 4 corners polygon primitive as box body*
4,1,4,$2,$3,$4,$5,$6,$7,$8,$9,$2,$3,0*
0 Add four circle primitives for the rounded corners*
1,1,$1+$1,$2,$3*
1,1,$1+$1,$4,$5*
1,1,$1+$1,$6,$7*
1,1,$1+$1,$8,$9*
0 Add four rect primitives between the rounded corners*
20,1,$1+$1,$2,$3,$4,$5,0*
20,1,$1+$1,$4,$5,$6,$7,0*
20,1,$1+$1,$6,$7,$8,$9,0*
20,1,$1+$1,$8,$9,$2,$3,0*%
%AMFreePoly0*
4,1,37,0.536062,0.786062,0.551000,0.750000,0.551000,-0.750000,0.536062,-0.786062,0.500000,-0.801000,0.000000,-0.801000,-0.012525,-0.795812,-0.080875,-0.794559,-0.095149,-0.792248,-0.230464,-0.749973,-0.243516,-0.743747,-0.361526,-0.665192,-0.372306,-0.655554,-0.463526,-0.547035,-0.471167,-0.534759,-0.528262,-0.405000,-0.532150,-0.391073,-0.549733,-0.256613,-0.548336,-0.256430,-0.551000,-0.250000,
-0.551000,0.250000,-0.550512,0.251179,-0.550356,0.263956,-0.528545,0.404033,-0.524317,0.417860,-0.464069,0.546185,-0.456130,0.558271,-0.362286,0.664529,-0.351274,0.673901,-0.231379,0.749549,-0.218180,0.755454,-0.081873,0.794411,-0.067546,0.796373,-0.011990,0.796033,0.000000,0.801000,0.500000,0.801000,0.536062,0.786062,0.536062,0.786062,$1*%
%AMFreePoly1*
4,1,37,0.012349,0.795885,0.074216,0.795507,0.088518,0.793370,0.224339,0.752751,0.237465,0.746685,0.356427,0.669578,0.367324,0.660073,0.459862,0.552676,0.467652,0.540494,0.526329,0.411442,0.530388,0.397563,0.550485,0.257230,0.551000,0.250000,0.551000,-0.250000,0.550996,-0.250622,0.550847,-0.262838,0.550144,-0.270677,0.526624,-0.410478,0.522228,-0.424254,0.460416,-0.551833,
0.452330,-0.563821,0.357195,-0.668925,0.346069,-0.678161,0.225259,-0.752338,0.211989,-0.758081,0.075216,-0.795370,0.060866,-0.797157,0.011464,-0.796251,0.000000,-0.801000,-0.500000,-0.801000,-0.536062,-0.786062,-0.551000,-0.750000,-0.551000,0.750000,-0.536062,0.786062,-0.500000,0.801000,0.000000,0.801000,0.012349,0.795885,0.012349,0.795885,$1*%
G04 Aperture macros list end*
%ADD10C,0.150000*%
%ADD11C,0.120000*%
%ADD12C,5.502000*%
%ADD13RoundRect,0.288500X-0.237500X0.287500X-0.237500X-0.287500X0.237500X-0.287500X0.237500X0.287500X0*%
%ADD14RoundRect,0.201000X-0.625000X0.150000X-0.625000X-0.150000X0.625000X-0.150000X0.625000X0.150000X0*%
%ADD15RoundRect,0.301000X-0.650000X0.350000X-0.650000X-0.350000X0.650000X-0.350000X0.650000X0.350000X0*%
%ADD16RoundRect,0.201000X0.625000X-0.150000X0.625000X0.150000X-0.625000X0.150000X-0.625000X-0.150000X0*%
%ADD17RoundRect,0.301000X0.650000X-0.350000X0.650000X0.350000X-0.650000X0.350000X-0.650000X-0.350000X0*%
%ADD18RoundRect,0.301001X-0.462499X-0.624999X0.462499X-0.624999X0.462499X0.624999X-0.462499X0.624999X0*%
%ADD19RoundRect,0.301001X0.624999X-0.462499X0.624999X0.462499X-0.624999X0.462499X-0.624999X-0.462499X0*%
%ADD20RoundRect,0.301000X0.925000X-0.412500X0.925000X0.412500X-0.925000X0.412500X-0.925000X-0.412500X0*%
%ADD21C,1.342000*%
%ADD22FreePoly0,180.000000*%
%ADD23FreePoly1,180.000000*%
%ADD24RoundRect,0.301001X0.462499X1.074999X-0.462499X1.074999X-0.462499X-1.074999X0.462499X-1.074999X0*%
%ADD25RoundRect,0.051000X-0.900000X0.700000X-0.900000X-0.700000X0.900000X-0.700000X0.900000X0.700000X0*%
%ADD26O,1.902000X1.502000*%
%ADD27RoundRect,0.051000X-0.450000X-0.400000X0.450000X-0.400000X0.450000X0.400000X-0.450000X0.400000X0*%
%ADD28RoundRect,0.288500X0.237500X-0.287500X0.237500X0.287500X-0.237500X0.287500X-0.237500X-0.287500X0*%
%ADD29RoundRect,0.051000X0.325000X-0.530000X0.325000X0.530000X-0.325000X0.530000X-0.325000X-0.530000X0*%
%ADD30RoundRect,0.288500X0.287500X0.237500X-0.287500X0.237500X-0.287500X-0.237500X0.287500X-0.237500X0*%
%ADD31RoundRect,0.288500X-0.287500X-0.237500X0.287500X-0.237500X0.287500X0.237500X-0.287500X0.237500X0*%
%ADD32RoundRect,0.201000X0.825000X0.150000X-0.825000X0.150000X-0.825000X-0.150000X0.825000X-0.150000X0*%
%ADD33RoundRect,0.186000X-0.135000X-0.185000X0.135000X-0.185000X0.135000X0.185000X-0.135000X0.185000X0*%
%ADD34RoundRect,0.186000X0.135000X0.185000X-0.135000X0.185000X-0.135000X-0.185000X0.135000X-0.185000X0*%
%ADD35RoundRect,0.186000X-0.185000X0.135000X-0.185000X-0.135000X0.185000X-0.135000X0.185000X0.135000X0*%
%ADD36RoundRect,0.186000X0.185000X-0.135000X0.185000X0.135000X-0.185000X0.135000X-0.185000X-0.135000X0*%
%ADD37RoundRect,0.151000X-0.637500X-0.100000X0.637500X-0.100000X0.637500X0.100000X-0.637500X0.100000X0*%
G04 APERTURE END LIST*
D10*
X122361904Y-72366666D02*
X122838095Y-72366666D01*
X122266666Y-72652380D02*
X122600000Y-71652380D01*
X122933333Y-72652380D01*
X122671428Y-74128571D02*
X122814285Y-74176190D01*
X122861904Y-74223809D01*
X122909523Y-74319047D01*
X122909523Y-74461904D01*
X122861904Y-74557142D01*
X122814285Y-74604761D01*
X122719047Y-74652380D01*
X122338095Y-74652380D01*
X122338095Y-73652380D01*
X122671428Y-73652380D01*
X122766666Y-73700000D01*
X122814285Y-73747619D01*
X122861904Y-73842857D01*
X122861904Y-73938095D01*
X122814285Y-74033333D01*
X122766666Y-74080952D01*
X122671428Y-74128571D01*
X122338095Y-74128571D01*
X111519047Y-64247380D02*
X111519047Y-63247380D01*
X111947619Y-63342619D02*
X111995238Y-63295000D01*
X112090476Y-63247380D01*
X112328571Y-63247380D01*
X112423809Y-63295000D01*
X112471428Y-63342619D01*
X112519047Y-63437857D01*
X112519047Y-63533095D01*
X112471428Y-63675952D01*
X111900000Y-64247380D01*
X112519047Y-64247380D01*
X113519047Y-64152142D02*
X113471428Y-64199761D01*
X113328571Y-64247380D01*
X113233333Y-64247380D01*
X113090476Y-64199761D01*
X112995238Y-64104523D01*
X112947619Y-64009285D01*
X112900000Y-63818809D01*
X112900000Y-63675952D01*
X112947619Y-63485476D01*
X112995238Y-63390238D01*
X113090476Y-63295000D01*
X113233333Y-63247380D01*
X113328571Y-63247380D01*
X113471428Y-63295000D01*
X113519047Y-63342619D01*
X114709523Y-64247380D02*
X114709523Y-63580714D01*
X114709523Y-63675952D02*
X114757142Y-63628333D01*
X114852380Y-63580714D01*
X114995238Y-63580714D01*
X115090476Y-63628333D01*
X115138095Y-63723571D01*
X115138095Y-64247380D01*
X115138095Y-63723571D02*
X115185714Y-63628333D01*
X115280952Y-63580714D01*
X115423809Y-63580714D01*
X115519047Y-63628333D01*
X115566666Y-63723571D01*
X115566666Y-64247380D01*
X116471428Y-63580714D02*
X116471428Y-64247380D01*
X116042857Y-63580714D02*
X116042857Y-64104523D01*
X116090476Y-64199761D01*
X116185714Y-64247380D01*
X116328571Y-64247380D01*
X116423809Y-64199761D01*
X116471428Y-64152142D01*
X116852380Y-64247380D02*
X117376190Y-63580714D01*
X116852380Y-63580714D02*
X117376190Y-64247380D01*
X111780952Y-65857380D02*
X111971428Y-65857380D01*
X112066666Y-65809761D01*
X112114285Y-65762142D01*
X112209523Y-65619285D01*
X112257142Y-65428809D01*
X112257142Y-65047857D01*
X112209523Y-64952619D01*
X112161904Y-64905000D01*
X112066666Y-64857380D01*
X111876190Y-64857380D01*
X111780952Y-64905000D01*
X111733333Y-64952619D01*
X111685714Y-65047857D01*
X111685714Y-65285952D01*
X111733333Y-65381190D01*
X111780952Y-65428809D01*
X111876190Y-65476428D01*
X112066666Y-65476428D01*
X112161904Y-65428809D01*
X112209523Y-65381190D01*
X112257142Y-65285952D01*
X113400000Y-64809761D02*
X112542857Y-66095476D01*
X113685714Y-64952619D02*
X113733333Y-64905000D01*
X113828571Y-64857380D01*
X114066666Y-64857380D01*
X114161904Y-64905000D01*
X114209523Y-64952619D01*
X114257142Y-65047857D01*
X114257142Y-65143095D01*
X114209523Y-65285952D01*
X113638095Y-65857380D01*
X114257142Y-65857380D01*
X114876190Y-64857380D02*
X114971428Y-64857380D01*
X115066666Y-64905000D01*
X115114285Y-64952619D01*
X115161904Y-65047857D01*
X115209523Y-65238333D01*
X115209523Y-65476428D01*
X115161904Y-65666904D01*
X115114285Y-65762142D01*
X115066666Y-65809761D01*
X114971428Y-65857380D01*
X114876190Y-65857380D01*
X114780952Y-65809761D01*
X114733333Y-65762142D01*
X114685714Y-65666904D01*
X114638095Y-65476428D01*
X114638095Y-65238333D01*
X114685714Y-65047857D01*
X114733333Y-64952619D01*
X114780952Y-64905000D01*
X114876190Y-64857380D01*
X115590476Y-64952619D02*
X115638095Y-64905000D01*
X115733333Y-64857380D01*
X115971428Y-64857380D01*
X116066666Y-64905000D01*
X116114285Y-64952619D01*
X116161904Y-65047857D01*
X116161904Y-65143095D01*
X116114285Y-65285952D01*
X115542857Y-65857380D01*
X116161904Y-65857380D01*
X116542857Y-64952619D02*
X116590476Y-64905000D01*
X116685714Y-64857380D01*
X116923809Y-64857380D01*
X117019047Y-64905000D01*
X117066666Y-64952619D01*
X117114285Y-65047857D01*
X117114285Y-65143095D01*
X117066666Y-65285952D01*
X116495238Y-65857380D01*
X117114285Y-65857380D01*
%TO.C,H3*%
X139238095Y-121752380D02*
X139238095Y-120752380D01*
X139238095Y-121228571D02*
X139809523Y-121228571D01*
X139809523Y-121752380D02*
X139809523Y-120752380D01*
X140190476Y-120752380D02*
X140809523Y-120752380D01*
X140476190Y-121133333D01*
X140619047Y-121133333D01*
X140714285Y-121180952D01*
X140761904Y-121228571D01*
X140809523Y-121323809D01*
X140809523Y-121561904D01*
X140761904Y-121657142D01*
X140714285Y-121704761D01*
X140619047Y-121752380D01*
X140333333Y-121752380D01*
X140238095Y-121704761D01*
X140190476Y-121657142D01*
%TO.C,C1*%
X110287142Y-73566666D02*
X110334761Y-73614285D01*
X110382380Y-73757142D01*
X110382380Y-73852380D01*
X110334761Y-73995238D01*
X110239523Y-74090476D01*
X110144285Y-74138095D01*
X109953809Y-74185714D01*
X109810952Y-74185714D01*
X109620476Y-74138095D01*
X109525238Y-74090476D01*
X109430000Y-73995238D01*
X109382380Y-73852380D01*
X109382380Y-73757142D01*
X109430000Y-73614285D01*
X109477619Y-73566666D01*
X110382380Y-72614285D02*
X110382380Y-73185714D01*
X110382380Y-72900000D02*
X109382380Y-72900000D01*
X109525238Y-72995238D01*
X109620476Y-73090476D01*
X109668095Y-73185714D01*
%TO.C,J2*%
X94532380Y-91076190D02*
X95246666Y-91076190D01*
X95389523Y-91123809D01*
X95484761Y-91219047D01*
X95532380Y-91361904D01*
X95532380Y-91457142D01*
X94627619Y-90647618D02*
X94580000Y-90599999D01*
X94532380Y-90504761D01*
X94532380Y-90266666D01*
X94580000Y-90171428D01*
X94627619Y-90123809D01*
X94722857Y-90076190D01*
X94818095Y-90076190D01*
X94960952Y-90123809D01*
X95532380Y-90695237D01*
X95532380Y-90076190D01*
%TO.C,J4*%
X94532380Y-82133333D02*
X95246666Y-82133333D01*
X95389523Y-82180952D01*
X95484761Y-82276190D01*
X95532380Y-82419047D01*
X95532380Y-82514285D01*
X94865714Y-81228571D02*
X95532380Y-81228571D01*
X94484761Y-81466666D02*
X95199047Y-81704761D01*
X95199047Y-81085714D01*
%TO.C,J6*%
X94532380Y-73190476D02*
X95246666Y-73190476D01*
X95389523Y-73238095D01*
X95484761Y-73333333D01*
X95532380Y-73476190D01*
X95532380Y-73571428D01*
X94532380Y-72285714D02*
X94532380Y-72476190D01*
X94580000Y-72571428D01*
X94627619Y-72619047D01*
X94770476Y-72714285D01*
X94960952Y-72761904D01*
X95341904Y-72761904D01*
X95437142Y-72714285D01*
X95484761Y-72666666D01*
X95532380Y-72571428D01*
X95532380Y-72380952D01*
X95484761Y-72285714D01*
X95437142Y-72238095D01*
X95341904Y-72190476D01*
X95103809Y-72190476D01*
X95008571Y-72238095D01*
X94960952Y-72285714D01*
X94913333Y-72380952D01*
X94913333Y-72571428D01*
X94960952Y-72666666D01*
X95008571Y-72714285D01*
X95103809Y-72761904D01*
%TO.C,J8*%
X94532380Y-64247619D02*
X95246666Y-64247619D01*
X95389523Y-64295238D01*
X95484761Y-64390476D01*
X95532380Y-64533333D01*
X95532380Y-64628571D01*
X94960952Y-63628571D02*
X94913333Y-63723809D01*
X94865714Y-63771428D01*
X94770476Y-63819047D01*
X94722857Y-63819047D01*
X94627619Y-63771428D01*
X94580000Y-63723809D01*
X94532380Y-63628571D01*
X94532380Y-63438095D01*
X94580000Y-63342857D01*
X94627619Y-63295238D01*
X94722857Y-63247619D01*
X94770476Y-63247619D01*
X94865714Y-63295238D01*
X94913333Y-63342857D01*
X94960952Y-63438095D01*
X94960952Y-63628571D01*
X95008571Y-63723809D01*
X95056190Y-63771428D01*
X95151428Y-63819047D01*
X95341904Y-63819047D01*
X95437142Y-63771428D01*
X95484761Y-63723809D01*
X95532380Y-63628571D01*
X95532380Y-63438095D01*
X95484761Y-63342857D01*
X95437142Y-63295238D01*
X95341904Y-63247619D01*
X95151428Y-63247619D01*
X95056190Y-63295238D01*
X95008571Y-63342857D01*
X94960952Y-63438095D01*
%TO.C,J10*%
X135952380Y-65809523D02*
X136666666Y-65809523D01*
X136809523Y-65857142D01*
X136904761Y-65952380D01*
X136952380Y-66095238D01*
X136952380Y-66190476D01*
X136952380Y-64809523D02*
X136952380Y-65380952D01*
X136952380Y-65095238D02*
X135952380Y-65095238D01*
X136095238Y-65190476D01*
X136190476Y-65285714D01*
X136238095Y-65380952D01*
X135952380Y-64190476D02*
X135952380Y-64095238D01*
X136000000Y-64000000D01*
X136047619Y-63952380D01*
X136142857Y-63904761D01*
X136333333Y-63857142D01*
X136571428Y-63857142D01*
X136761904Y-63904761D01*
X136857142Y-63952380D01*
X136904761Y-64000000D01*
X136952380Y-64095238D01*
X136952380Y-64190476D01*
X136904761Y-64285714D01*
X136857142Y-64333333D01*
X136761904Y-64380952D01*
X136571428Y-64428571D01*
X136333333Y-64428571D01*
X136142857Y-64380952D01*
X136047619Y-64333333D01*
X136000000Y-64285714D01*
X135952380Y-64190476D01*
%TO.C,C2*%
X130233333Y-80557142D02*
X130185714Y-80604761D01*
X130042857Y-80652380D01*
X129947619Y-80652380D01*
X129804761Y-80604761D01*
X129709523Y-80509523D01*
X129661904Y-80414285D01*
X129614285Y-80223809D01*
X129614285Y-80080952D01*
X129661904Y-79890476D01*
X129709523Y-79795238D01*
X129804761Y-79700000D01*
X129947619Y-79652380D01*
X130042857Y-79652380D01*
X130185714Y-79700000D01*
X130233333Y-79747619D01*
X130614285Y-79747619D02*
X130661904Y-79700000D01*
X130757142Y-79652380D01*
X130995238Y-79652380D01*
X131090476Y-79700000D01*
X131138095Y-79747619D01*
X131185714Y-79842857D01*
X131185714Y-79938095D01*
X131138095Y-80080952D01*
X130566666Y-80652380D01*
X131185714Y-80652380D01*
%TO.C,C3*%
X135757142Y-91866666D02*
X135804761Y-91914285D01*
X135852380Y-92057142D01*
X135852380Y-92152380D01*
X135804761Y-92295238D01*
X135709523Y-92390476D01*
X135614285Y-92438095D01*
X135423809Y-92485714D01*
X135280952Y-92485714D01*
X135090476Y-92438095D01*
X134995238Y-92390476D01*
X134900000Y-92295238D01*
X134852380Y-92152380D01*
X134852380Y-92057142D01*
X134900000Y-91914285D01*
X134947619Y-91866666D01*
X134852380Y-91533333D02*
X134852380Y-90914285D01*
X135233333Y-91247619D01*
X135233333Y-91104761D01*
X135280952Y-91009523D01*
X135328571Y-90961904D01*
X135423809Y-90914285D01*
X135661904Y-90914285D01*
X135757142Y-90961904D01*
X135804761Y-91009523D01*
X135852380Y-91104761D01*
X135852380Y-91390476D01*
X135804761Y-91485714D01*
X135757142Y-91533333D01*
%TO.C,C4*%
X133057142Y-90366666D02*
X133104761Y-90414285D01*
X133152380Y-90557142D01*
X133152380Y-90652380D01*
X133104761Y-90795238D01*
X133009523Y-90890476D01*
X132914285Y-90938095D01*
X132723809Y-90985714D01*
X132580952Y-90985714D01*
X132390476Y-90938095D01*
X132295238Y-90890476D01*
X132200000Y-90795238D01*
X132152380Y-90652380D01*
X132152380Y-90557142D01*
X132200000Y-90414285D01*
X132247619Y-90366666D01*
X132485714Y-89509523D02*
X133152380Y-89509523D01*
X132104761Y-89747619D02*
X132819047Y-89985714D01*
X132819047Y-89366666D01*
%TO.C,C6*%
X125607142Y-83966666D02*
X125654761Y-84014285D01*
X125702380Y-84157142D01*
X125702380Y-84252380D01*
X125654761Y-84395238D01*
X125559523Y-84490476D01*
X125464285Y-84538095D01*
X125273809Y-84585714D01*
X125130952Y-84585714D01*
X124940476Y-84538095D01*
X124845238Y-84490476D01*
X124750000Y-84395238D01*
X124702380Y-84252380D01*
X124702380Y-84157142D01*
X124750000Y-84014285D01*
X124797619Y-83966666D01*
X124702380Y-83109523D02*
X124702380Y-83300000D01*
X124750000Y-83395238D01*
X124797619Y-83442857D01*
X124940476Y-83538095D01*
X125130952Y-83585714D01*
X125511904Y-83585714D01*
X125607142Y-83538095D01*
X125654761Y-83490476D01*
X125702380Y-83395238D01*
X125702380Y-83204761D01*
X125654761Y-83109523D01*
X125607142Y-83061904D01*
X125511904Y-83014285D01*
X125273809Y-83014285D01*
X125178571Y-83061904D01*
X125130952Y-83109523D01*
X125083333Y-83204761D01*
X125083333Y-83395238D01*
X125130952Y-83490476D01*
X125178571Y-83538095D01*
X125273809Y-83585714D01*
%TO.C,C8*%
X117357142Y-90266666D02*
X117404761Y-90314285D01*
X117452380Y-90457142D01*
X117452380Y-90552380D01*
X117404761Y-90695238D01*
X117309523Y-90790476D01*
X117214285Y-90838095D01*
X117023809Y-90885714D01*
X116880952Y-90885714D01*
X116690476Y-90838095D01*
X116595238Y-90790476D01*
X116500000Y-90695238D01*
X116452380Y-90552380D01*
X116452380Y-90457142D01*
X116500000Y-90314285D01*
X116547619Y-90266666D01*
X116880952Y-89695238D02*
X116833333Y-89790476D01*
X116785714Y-89838095D01*
X116690476Y-89885714D01*
X116642857Y-89885714D01*
X116547619Y-89838095D01*
X116500000Y-89790476D01*
X116452380Y-89695238D01*
X116452380Y-89504761D01*
X116500000Y-89409523D01*
X116547619Y-89361904D01*
X116642857Y-89314285D01*
X116690476Y-89314285D01*
X116785714Y-89361904D01*
X116833333Y-89409523D01*
X116880952Y-89504761D01*
X116880952Y-89695238D01*
X116928571Y-89790476D01*
X116976190Y-89838095D01*
X117071428Y-89885714D01*
X117261904Y-89885714D01*
X117357142Y-89838095D01*
X117404761Y-89790476D01*
X117452380Y-89695238D01*
X117452380Y-89504761D01*
X117404761Y-89409523D01*
X117357142Y-89361904D01*
X117261904Y-89314285D01*
X117071428Y-89314285D01*
X116976190Y-89361904D01*
X116928571Y-89409523D01*
X116880952Y-89504761D01*
%TO.C,J11*%
X121690476Y-79552380D02*
X121690476Y-80266666D01*
X121642857Y-80409523D01*
X121547619Y-80504761D01*
X121404761Y-80552380D01*
X121309523Y-80552380D01*
X122690476Y-80552380D02*
X122119047Y-80552380D01*
X122404761Y-80552380D02*
X122404761Y-79552380D01*
X122309523Y-79695238D01*
X122214285Y-79790476D01*
X122119047Y-79838095D01*
X123642857Y-80552380D02*
X123071428Y-80552380D01*
X123357142Y-80552380D02*
X123357142Y-79552380D01*
X123261904Y-79695238D01*
X123166666Y-79790476D01*
X123071428Y-79838095D01*
%TO.C,JP1*%
X122466666Y-92152380D02*
X122466666Y-92866666D01*
X122419047Y-93009523D01*
X122323809Y-93104761D01*
X122180952Y-93152380D01*
X122085714Y-93152380D01*
X122942857Y-93152380D02*
X122942857Y-92152380D01*
X123323809Y-92152380D01*
X123419047Y-92200000D01*
X123466666Y-92247619D01*
X123514285Y-92342857D01*
X123514285Y-92485714D01*
X123466666Y-92580952D01*
X123419047Y-92628571D01*
X123323809Y-92676190D01*
X122942857Y-92676190D01*
X124466666Y-93152380D02*
X123895238Y-93152380D01*
X124180952Y-93152380D02*
X124180952Y-92152380D01*
X124085714Y-92295238D01*
X123990476Y-92390476D01*
X123895238Y-92438095D01*
%TO.C,L1*%
X130233333Y-83052380D02*
X129757142Y-83052380D01*
X129757142Y-82052380D01*
X131090476Y-83052380D02*
X130519047Y-83052380D01*
X130804761Y-83052380D02*
X130804761Y-82052380D01*
X130709523Y-82195238D01*
X130614285Y-82290476D01*
X130519047Y-82338095D01*
%TO.C,PS1*%
X137785714Y-78852380D02*
X137785714Y-77852380D01*
X138166666Y-77852380D01*
X138261904Y-77900000D01*
X138309523Y-77947619D01*
X138357142Y-78042857D01*
X138357142Y-78185714D01*
X138309523Y-78280952D01*
X138261904Y-78328571D01*
X138166666Y-78376190D01*
X137785714Y-78376190D01*
X138738095Y-78804761D02*
X138880952Y-78852380D01*
X139119047Y-78852380D01*
X139214285Y-78804761D01*
X139261904Y-78757142D01*
X139309523Y-78661904D01*
X139309523Y-78566666D01*
X139261904Y-78471428D01*
X139214285Y-78423809D01*
X139119047Y-78376190D01*
X138928571Y-78328571D01*
X138833333Y-78280952D01*
X138785714Y-78233333D01*
X138738095Y-78138095D01*
X138738095Y-78042857D01*
X138785714Y-77947619D01*
X138833333Y-77900000D01*
X138928571Y-77852380D01*
X139166666Y-77852380D01*
X139309523Y-77900000D01*
X140261904Y-78852380D02*
X139690476Y-78852380D01*
X139976190Y-78852380D02*
X139976190Y-77852380D01*
X139880952Y-77995238D01*
X139785714Y-78090476D01*
X139690476Y-78138095D01*
%TO.C,Q1*%
X124704761Y-86447619D02*
X124609523Y-86400000D01*
X124514285Y-86304761D01*
X124371428Y-86161904D01*
X124276190Y-86114285D01*
X124180952Y-86114285D01*
X124228571Y-86352380D02*
X124133333Y-86304761D01*
X124038095Y-86209523D01*
X123990476Y-86019047D01*
X123990476Y-85685714D01*
X124038095Y-85495238D01*
X124133333Y-85400000D01*
X124228571Y-85352380D01*
X124419047Y-85352380D01*
X124514285Y-85400000D01*
X124609523Y-85495238D01*
X124657142Y-85685714D01*
X124657142Y-86019047D01*
X124609523Y-86209523D01*
X124514285Y-86304761D01*
X124419047Y-86352380D01*
X124228571Y-86352380D01*
X125609523Y-86352380D02*
X125038095Y-86352380D01*
X125323809Y-86352380D02*
X125323809Y-85352380D01*
X125228571Y-85495238D01*
X125133333Y-85590476D01*
X125038095Y-85638095D01*
%TO.C,R21*%
X129352380Y-91842857D02*
X128876190Y-92176190D01*
X129352380Y-92414285D02*
X128352380Y-92414285D01*
X128352380Y-92033333D01*
X128400000Y-91938095D01*
X128447619Y-91890476D01*
X128542857Y-91842857D01*
X128685714Y-91842857D01*
X128780952Y-91890476D01*
X128828571Y-91938095D01*
X128876190Y-92033333D01*
X128876190Y-92414285D01*
X128447619Y-91461904D02*
X128400000Y-91414285D01*
X128352380Y-91319047D01*
X128352380Y-91080952D01*
X128400000Y-90985714D01*
X128447619Y-90938095D01*
X128542857Y-90890476D01*
X128638095Y-90890476D01*
X128780952Y-90938095D01*
X129352380Y-91509523D01*
X129352380Y-90890476D01*
X129352380Y-89938095D02*
X129352380Y-90509523D01*
X129352380Y-90223809D02*
X128352380Y-90223809D01*
X128495238Y-90319047D01*
X128590476Y-90414285D01*
X128638095Y-90509523D01*
%TO.C,U2*%
X118252380Y-91561904D02*
X119061904Y-91561904D01*
X119157142Y-91514285D01*
X119204761Y-91466666D01*
X119252380Y-91371428D01*
X119252380Y-91180952D01*
X119204761Y-91085714D01*
X119157142Y-91038095D01*
X119061904Y-90990476D01*
X118252380Y-90990476D01*
X118347619Y-90561904D02*
X118300000Y-90514285D01*
X118252380Y-90419047D01*
X118252380Y-90180952D01*
X118300000Y-90085714D01*
X118347619Y-90038095D01*
X118442857Y-89990476D01*
X118538095Y-89990476D01*
X118680952Y-90038095D01*
X119252380Y-90609523D01*
X119252380Y-89990476D01*
%TO.C,C7*%
X119933333Y-92957142D02*
X119885714Y-93004761D01*
X119742857Y-93052380D01*
X119647619Y-93052380D01*
X119504761Y-93004761D01*
X119409523Y-92909523D01*
X119361904Y-92814285D01*
X119314285Y-92623809D01*
X119314285Y-92480952D01*
X119361904Y-92290476D01*
X119409523Y-92195238D01*
X119504761Y-92100000D01*
X119647619Y-92052380D01*
X119742857Y-92052380D01*
X119885714Y-92100000D01*
X119933333Y-92147619D01*
X120266666Y-92052380D02*
X120933333Y-92052380D01*
X120504761Y-93052380D01*
%TO.C,C9*%
X133733333Y-69757142D02*
X133685714Y-69804761D01*
X133542857Y-69852380D01*
X133447619Y-69852380D01*
X133304761Y-69804761D01*
X133209523Y-69709523D01*
X133161904Y-69614285D01*
X133114285Y-69423809D01*
X133114285Y-69280952D01*
X133161904Y-69090476D01*
X133209523Y-68995238D01*
X133304761Y-68900000D01*
X133447619Y-68852380D01*
X133542857Y-68852380D01*
X133685714Y-68900000D01*
X133733333Y-68947619D01*
X134209523Y-69852380D02*
X134400000Y-69852380D01*
X134495238Y-69804761D01*
X134542857Y-69757142D01*
X134638095Y-69614285D01*
X134685714Y-69423809D01*
X134685714Y-69042857D01*
X134638095Y-68947619D01*
X134590476Y-68900000D01*
X134495238Y-68852380D01*
X134304761Y-68852380D01*
X134209523Y-68900000D01*
X134161904Y-68947619D01*
X134114285Y-69042857D01*
X134114285Y-69280952D01*
X134161904Y-69376190D01*
X134209523Y-69423809D01*
X134304761Y-69471428D01*
X134495238Y-69471428D01*
X134590476Y-69423809D01*
X134638095Y-69376190D01*
X134685714Y-69280952D01*
%TO.C,C11*%
X126657142Y-69957142D02*
X126609523Y-70004761D01*
X126466666Y-70052380D01*
X126371428Y-70052380D01*
X126228571Y-70004761D01*
X126133333Y-69909523D01*
X126085714Y-69814285D01*
X126038095Y-69623809D01*
X126038095Y-69480952D01*
X126085714Y-69290476D01*
X126133333Y-69195238D01*
X126228571Y-69100000D01*
X126371428Y-69052380D01*
X126466666Y-69052380D01*
X126609523Y-69100000D01*
X126657142Y-69147619D01*
X127609523Y-70052380D02*
X127038095Y-70052380D01*
X127323809Y-70052380D02*
X127323809Y-69052380D01*
X127228571Y-69195238D01*
X127133333Y-69290476D01*
X127038095Y-69338095D01*
X128561904Y-70052380D02*
X127990476Y-70052380D01*
X128276190Y-70052380D02*
X128276190Y-69052380D01*
X128180952Y-69195238D01*
X128085714Y-69290476D01*
X127990476Y-69338095D01*
%TO.C,C12*%
X124057142Y-77757142D02*
X124009523Y-77804761D01*
X123866666Y-77852380D01*
X123771428Y-77852380D01*
X123628571Y-77804761D01*
X123533333Y-77709523D01*
X123485714Y-77614285D01*
X123438095Y-77423809D01*
X123438095Y-77280952D01*
X123485714Y-77090476D01*
X123533333Y-76995238D01*
X123628571Y-76900000D01*
X123771428Y-76852380D01*
X123866666Y-76852380D01*
X124009523Y-76900000D01*
X124057142Y-76947619D01*
X125009523Y-77852380D02*
X124438095Y-77852380D01*
X124723809Y-77852380D02*
X124723809Y-76852380D01*
X124628571Y-76995238D01*
X124533333Y-77090476D01*
X124438095Y-77138095D01*
X125390476Y-76947619D02*
X125438095Y-76900000D01*
X125533333Y-76852380D01*
X125771428Y-76852380D01*
X125866666Y-76900000D01*
X125914285Y-76947619D01*
X125961904Y-77042857D01*
X125961904Y-77138095D01*
X125914285Y-77280952D01*
X125342857Y-77852380D01*
X125961904Y-77852380D01*
%TO.C,C10*%
X134357142Y-78757142D02*
X134309523Y-78804761D01*
X134166666Y-78852380D01*
X134071428Y-78852380D01*
X133928571Y-78804761D01*
X133833333Y-78709523D01*
X133785714Y-78614285D01*
X133738095Y-78423809D01*
X133738095Y-78280952D01*
X133785714Y-78090476D01*
X133833333Y-77995238D01*
X133928571Y-77900000D01*
X134071428Y-77852380D01*
X134166666Y-77852380D01*
X134309523Y-77900000D01*
X134357142Y-77947619D01*
X135309523Y-78852380D02*
X134738095Y-78852380D01*
X135023809Y-78852380D02*
X135023809Y-77852380D01*
X134928571Y-77995238D01*
X134833333Y-78090476D01*
X134738095Y-78138095D01*
X135928571Y-77852380D02*
X136023809Y-77852380D01*
X136119047Y-77900000D01*
X136166666Y-77947619D01*
X136214285Y-78042857D01*
X136261904Y-78233333D01*
X136261904Y-78471428D01*
X136214285Y-78661904D01*
X136166666Y-78757142D01*
X136119047Y-78804761D01*
X136023809Y-78852380D01*
X135928571Y-78852380D01*
X135833333Y-78804761D01*
X135785714Y-78757142D01*
X135738095Y-78661904D01*
X135690476Y-78471428D01*
X135690476Y-78233333D01*
X135738095Y-78042857D01*
X135785714Y-77947619D01*
X135833333Y-77900000D01*
X135928571Y-77852380D01*
%TO.C,J9*%
X135872380Y-74333333D02*
X136586666Y-74333333D01*
X136729523Y-74380952D01*
X136824761Y-74476190D01*
X136872380Y-74619047D01*
X136872380Y-74714285D01*
X136872380Y-73809523D02*
X136872380Y-73619047D01*
X136824761Y-73523809D01*
X136777142Y-73476190D01*
X136634285Y-73380952D01*
X136443809Y-73333333D01*
X136062857Y-73333333D01*
X135967619Y-73380952D01*
X135920000Y-73428571D01*
X135872380Y-73523809D01*
X135872380Y-73714285D01*
X135920000Y-73809523D01*
X135967619Y-73857142D01*
X136062857Y-73904761D01*
X136300952Y-73904761D01*
X136396190Y-73857142D01*
X136443809Y-73809523D01*
X136491428Y-73714285D01*
X136491428Y-73523809D01*
X136443809Y-73428571D01*
X136396190Y-73380952D01*
X136300952Y-73333333D01*
%TO.C,C5*%
X131557142Y-90816666D02*
X131604761Y-90864285D01*
X131652380Y-91007142D01*
X131652380Y-91102380D01*
X131604761Y-91245238D01*
X131509523Y-91340476D01*
X131414285Y-91388095D01*
X131223809Y-91435714D01*
X131080952Y-91435714D01*
X130890476Y-91388095D01*
X130795238Y-91340476D01*
X130700000Y-91245238D01*
X130652380Y-91102380D01*
X130652380Y-91007142D01*
X130700000Y-90864285D01*
X130747619Y-90816666D01*
X130652380Y-89911904D02*
X130652380Y-90388095D01*
X131128571Y-90435714D01*
X131080952Y-90388095D01*
X131033333Y-90292857D01*
X131033333Y-90054761D01*
X131080952Y-89959523D01*
X131128571Y-89911904D01*
X131223809Y-89864285D01*
X131461904Y-89864285D01*
X131557142Y-89911904D01*
X131604761Y-89959523D01*
X131652380Y-90054761D01*
X131652380Y-90292857D01*
X131604761Y-90388095D01*
X131557142Y-90435714D01*
%TO.C,H1*%
X104238095Y-61752380D02*
X104238095Y-60752380D01*
X104238095Y-61228571D02*
X104809523Y-61228571D01*
X104809523Y-61752380D02*
X104809523Y-60752380D01*
X105809523Y-61752380D02*
X105238095Y-61752380D01*
X105523809Y-61752380D02*
X105523809Y-60752380D01*
X105428571Y-60895238D01*
X105333333Y-60990476D01*
X105238095Y-61038095D01*
%TO.C,H2*%
X104238095Y-121752380D02*
X104238095Y-120752380D01*
X104238095Y-121228571D02*
X104809523Y-121228571D01*
X104809523Y-121752380D02*
X104809523Y-120752380D01*
X105238095Y-120847619D02*
X105285714Y-120800000D01*
X105380952Y-120752380D01*
X105619047Y-120752380D01*
X105714285Y-120800000D01*
X105761904Y-120847619D01*
X105809523Y-120942857D01*
X105809523Y-121038095D01*
X105761904Y-121180952D01*
X105190476Y-121752380D01*
X105809523Y-121752380D01*
%TO.C,U4*%
X130538095Y-75952380D02*
X130538095Y-76761904D01*
X130585714Y-76857142D01*
X130633333Y-76904761D01*
X130728571Y-76952380D01*
X130919047Y-76952380D01*
X131014285Y-76904761D01*
X131061904Y-76857142D01*
X131109523Y-76761904D01*
X131109523Y-75952380D01*
X132014285Y-76285714D02*
X132014285Y-76952380D01*
X131776190Y-75904761D02*
X131538095Y-76619047D01*
X132157142Y-76619047D01*
%TO.C,R18*%
X118557142Y-76852380D02*
X118223809Y-76376190D01*
X117985714Y-76852380D02*
X117985714Y-75852380D01*
X118366666Y-75852380D01*
X118461904Y-75900000D01*
X118509523Y-75947619D01*
X118557142Y-76042857D01*
X118557142Y-76185714D01*
X118509523Y-76280952D01*
X118461904Y-76328571D01*
X118366666Y-76376190D01*
X117985714Y-76376190D01*
X119509523Y-76852380D02*
X118938095Y-76852380D01*
X119223809Y-76852380D02*
X119223809Y-75852380D01*
X119128571Y-75995238D01*
X119033333Y-76090476D01*
X118938095Y-76138095D01*
X120080952Y-76280952D02*
X119985714Y-76233333D01*
X119938095Y-76185714D01*
X119890476Y-76090476D01*
X119890476Y-76042857D01*
X119938095Y-75947619D01*
X119985714Y-75900000D01*
X120080952Y-75852380D01*
X120271428Y-75852380D01*
X120366666Y-75900000D01*
X120414285Y-75947619D01*
X120461904Y-76042857D01*
X120461904Y-76090476D01*
X120414285Y-76185714D01*
X120366666Y-76233333D01*
X120271428Y-76280952D01*
X120080952Y-76280952D01*
X119985714Y-76328571D01*
X119938095Y-76376190D01*
X119890476Y-76471428D01*
X119890476Y-76661904D01*
X119938095Y-76757142D01*
X119985714Y-76804761D01*
X120080952Y-76852380D01*
X120271428Y-76852380D01*
X120366666Y-76804761D01*
X120414285Y-76757142D01*
X120461904Y-76661904D01*
X120461904Y-76471428D01*
X120414285Y-76376190D01*
X120366666Y-76328571D01*
X120271428Y-76280952D01*
%TO.C,R19*%
X135167142Y-62622380D02*
X134833809Y-62146190D01*
X134595714Y-62622380D02*
X134595714Y-61622380D01*
X134976666Y-61622380D01*
X135071904Y-61670000D01*
X135119523Y-61717619D01*
X135167142Y-61812857D01*
X135167142Y-61955714D01*
X135119523Y-62050952D01*
X135071904Y-62098571D01*
X134976666Y-62146190D01*
X134595714Y-62146190D01*
X136119523Y-62622380D02*
X135548095Y-62622380D01*
X135833809Y-62622380D02*
X135833809Y-61622380D01*
X135738571Y-61765238D01*
X135643333Y-61860476D01*
X135548095Y-61908095D01*
X136595714Y-62622380D02*
X136786190Y-62622380D01*
X136881428Y-62574761D01*
X136929047Y-62527142D01*
X137024285Y-62384285D01*
X137071904Y-62193809D01*
X137071904Y-61812857D01*
X137024285Y-61717619D01*
X136976666Y-61670000D01*
X136881428Y-61622380D01*
X136690952Y-61622380D01*
X136595714Y-61670000D01*
X136548095Y-61717619D01*
X136500476Y-61812857D01*
X136500476Y-62050952D01*
X136548095Y-62146190D01*
X136595714Y-62193809D01*
X136690952Y-62241428D01*
X136881428Y-62241428D01*
X136976666Y-62193809D01*
X137024285Y-62146190D01*
X137071904Y-62050952D01*
%TO.C,R14*%
X97252380Y-76242857D02*
X96776190Y-76576190D01*
X97252380Y-76814285D02*
X96252380Y-76814285D01*
X96252380Y-76433333D01*
X96300000Y-76338095D01*
X96347619Y-76290476D01*
X96442857Y-76242857D01*
X96585714Y-76242857D01*
X96680952Y-76290476D01*
X96728571Y-76338095D01*
X96776190Y-76433333D01*
X96776190Y-76814285D01*
X97252380Y-75290476D02*
X97252380Y-75861904D01*
X97252380Y-75576190D02*
X96252380Y-75576190D01*
X96395238Y-75671428D01*
X96490476Y-75766666D01*
X96538095Y-75861904D01*
X96585714Y-74433333D02*
X97252380Y-74433333D01*
X96204761Y-74671428D02*
X96919047Y-74909523D01*
X96919047Y-74290476D01*
%TO.C,R12*%
X97952380Y-72942857D02*
X97476190Y-73276190D01*
X97952380Y-73514285D02*
X96952380Y-73514285D01*
X96952380Y-73133333D01*
X97000000Y-73038095D01*
X97047619Y-72990476D01*
X97142857Y-72942857D01*
X97285714Y-72942857D01*
X97380952Y-72990476D01*
X97428571Y-73038095D01*
X97476190Y-73133333D01*
X97476190Y-73514285D01*
X97952380Y-71990476D02*
X97952380Y-72561904D01*
X97952380Y-72276190D02*
X96952380Y-72276190D01*
X97095238Y-72371428D01*
X97190476Y-72466666D01*
X97238095Y-72561904D01*
X97047619Y-71609523D02*
X97000000Y-71561904D01*
X96952380Y-71466666D01*
X96952380Y-71228571D01*
X97000000Y-71133333D01*
X97047619Y-71085714D01*
X97142857Y-71038095D01*
X97238095Y-71038095D01*
X97380952Y-71085714D01*
X97952380Y-71657142D01*
X97952380Y-71038095D01*
%TO.C,J3*%
X94532380Y-117904761D02*
X95246666Y-117904761D01*
X95389523Y-117952380D01*
X95484761Y-118047618D01*
X95532380Y-118190475D01*
X95532380Y-118285713D01*
X94532380Y-117523808D02*
X94532380Y-116904761D01*
X94913333Y-117238094D01*
X94913333Y-117095237D01*
X94960952Y-116999999D01*
X95008571Y-116952380D01*
X95103809Y-116904761D01*
X95341904Y-116904761D01*
X95437142Y-116952380D01*
X95484761Y-116999999D01*
X95532380Y-117095237D01*
X95532380Y-117380951D01*
X95484761Y-117476189D01*
X95437142Y-117523808D01*
%TO.C,U3*%
X130038095Y-66752380D02*
X130038095Y-67561904D01*
X130085714Y-67657142D01*
X130133333Y-67704761D01*
X130228571Y-67752380D01*
X130419047Y-67752380D01*
X130514285Y-67704761D01*
X130561904Y-67657142D01*
X130609523Y-67561904D01*
X130609523Y-66752380D01*
X130990476Y-66752380D02*
X131609523Y-66752380D01*
X131276190Y-67133333D01*
X131419047Y-67133333D01*
X131514285Y-67180952D01*
X131561904Y-67228571D01*
X131609523Y-67323809D01*
X131609523Y-67561904D01*
X131561904Y-67657142D01*
X131514285Y-67704761D01*
X131419047Y-67752380D01*
X131133333Y-67752380D01*
X131038095Y-67704761D01*
X130990476Y-67657142D01*
%TO.C,R2*%
X97633333Y-128452380D02*
X97300000Y-127976190D01*
X97061904Y-128452380D02*
X97061904Y-127452380D01*
X97442857Y-127452380D01*
X97538095Y-127500000D01*
X97585714Y-127547619D01*
X97633333Y-127642857D01*
X97633333Y-127785714D01*
X97585714Y-127880952D01*
X97538095Y-127928571D01*
X97442857Y-127976190D01*
X97061904Y-127976190D01*
X98014285Y-127547619D02*
X98061904Y-127500000D01*
X98157142Y-127452380D01*
X98395238Y-127452380D01*
X98490476Y-127500000D01*
X98538095Y-127547619D01*
X98585714Y-127642857D01*
X98585714Y-127738095D01*
X98538095Y-127880952D01*
X97966666Y-128452380D01*
X98585714Y-128452380D01*
%TO.C,R11*%
X97722380Y-100242857D02*
X97246190Y-100576190D01*
X97722380Y-100814285D02*
X96722380Y-100814285D01*
X96722380Y-100433333D01*
X96770000Y-100338095D01*
X96817619Y-100290476D01*
X96912857Y-100242857D01*
X97055714Y-100242857D01*
X97150952Y-100290476D01*
X97198571Y-100338095D01*
X97246190Y-100433333D01*
X97246190Y-100814285D01*
X97722380Y-99290476D02*
X97722380Y-99861904D01*
X97722380Y-99576190D02*
X96722380Y-99576190D01*
X96865238Y-99671428D01*
X96960476Y-99766666D01*
X97008095Y-99861904D01*
X97722380Y-98338095D02*
X97722380Y-98909523D01*
X97722380Y-98623809D02*
X96722380Y-98623809D01*
X96865238Y-98719047D01*
X96960476Y-98814285D01*
X97008095Y-98909523D01*
%TO.C,J1*%
X94532380Y-126847619D02*
X95246666Y-126847619D01*
X95389523Y-126895238D01*
X95484761Y-126990476D01*
X95532380Y-127133333D01*
X95532380Y-127228571D01*
X95532380Y-125847619D02*
X95532380Y-126419047D01*
X95532380Y-126133333D02*
X94532380Y-126133333D01*
X94675238Y-126228571D01*
X94770476Y-126323809D01*
X94818095Y-126419047D01*
%TO.C,R20*%
X136152380Y-70542857D02*
X135676190Y-70876190D01*
X136152380Y-71114285D02*
X135152380Y-71114285D01*
X135152380Y-70733333D01*
X135200000Y-70638095D01*
X135247619Y-70590476D01*
X135342857Y-70542857D01*
X135485714Y-70542857D01*
X135580952Y-70590476D01*
X135628571Y-70638095D01*
X135676190Y-70733333D01*
X135676190Y-71114285D01*
X135247619Y-70161904D02*
X135200000Y-70114285D01*
X135152380Y-70019047D01*
X135152380Y-69780952D01*
X135200000Y-69685714D01*
X135247619Y-69638095D01*
X135342857Y-69590476D01*
X135438095Y-69590476D01*
X135580952Y-69638095D01*
X136152380Y-70209523D01*
X136152380Y-69590476D01*
X135152380Y-68971428D02*
X135152380Y-68876190D01*
X135200000Y-68780952D01*
X135247619Y-68733333D01*
X135342857Y-68685714D01*
X135533333Y-68638095D01*
X135771428Y-68638095D01*
X135961904Y-68685714D01*
X136057142Y-68733333D01*
X136104761Y-68780952D01*
X136152380Y-68876190D01*
X136152380Y-68971428D01*
X136104761Y-69066666D01*
X136057142Y-69114285D01*
X135961904Y-69161904D01*
X135771428Y-69209523D01*
X135533333Y-69209523D01*
X135342857Y-69161904D01*
X135247619Y-69114285D01*
X135200000Y-69066666D01*
X135152380Y-68971428D01*
%TO.C,R16*%
X98067142Y-63752380D02*
X97733809Y-63276190D01*
X97495714Y-63752380D02*
X97495714Y-62752380D01*
X97876666Y-62752380D01*
X97971904Y-62800000D01*
X98019523Y-62847619D01*
X98067142Y-62942857D01*
X98067142Y-63085714D01*
X98019523Y-63180952D01*
X97971904Y-63228571D01*
X97876666Y-63276190D01*
X97495714Y-63276190D01*
X99019523Y-63752380D02*
X98448095Y-63752380D01*
X98733809Y-63752380D02*
X98733809Y-62752380D01*
X98638571Y-62895238D01*
X98543333Y-62990476D01*
X98448095Y-63038095D01*
X99876666Y-62752380D02*
X99686190Y-62752380D01*
X99590952Y-62800000D01*
X99543333Y-62847619D01*
X99448095Y-62990476D01*
X99400476Y-63180952D01*
X99400476Y-63561904D01*
X99448095Y-63657142D01*
X99495714Y-63704761D01*
X99590952Y-63752380D01*
X99781428Y-63752380D01*
X99876666Y-63704761D01*
X99924285Y-63657142D01*
X99971904Y-63561904D01*
X99971904Y-63323809D01*
X99924285Y-63228571D01*
X99876666Y-63180952D01*
X99781428Y-63133333D01*
X99590952Y-63133333D01*
X99495714Y-63180952D01*
X99448095Y-63228571D01*
X99400476Y-63323809D01*
%TO.C,R17*%
X118557142Y-78252380D02*
X118223809Y-77776190D01*
X117985714Y-78252380D02*
X117985714Y-77252380D01*
X118366666Y-77252380D01*
X118461904Y-77300000D01*
X118509523Y-77347619D01*
X118557142Y-77442857D01*
X118557142Y-77585714D01*
X118509523Y-77680952D01*
X118461904Y-77728571D01*
X118366666Y-77776190D01*
X117985714Y-77776190D01*
X119509523Y-78252380D02*
X118938095Y-78252380D01*
X119223809Y-78252380D02*
X119223809Y-77252380D01*
X119128571Y-77395238D01*
X119033333Y-77490476D01*
X118938095Y-77538095D01*
X119842857Y-77252380D02*
X120509523Y-77252380D01*
X120080952Y-78252380D01*
%TO.C,R8*%
X97422380Y-83956666D02*
X96946190Y-84290000D01*
X97422380Y-84528095D02*
X96422380Y-84528095D01*
X96422380Y-84147142D01*
X96470000Y-84051904D01*
X96517619Y-84004285D01*
X96612857Y-83956666D01*
X96755714Y-83956666D01*
X96850952Y-84004285D01*
X96898571Y-84051904D01*
X96946190Y-84147142D01*
X96946190Y-84528095D01*
X96850952Y-83385238D02*
X96803333Y-83480476D01*
X96755714Y-83528095D01*
X96660476Y-83575714D01*
X96612857Y-83575714D01*
X96517619Y-83528095D01*
X96470000Y-83480476D01*
X96422380Y-83385238D01*
X96422380Y-83194761D01*
X96470000Y-83099523D01*
X96517619Y-83051904D01*
X96612857Y-83004285D01*
X96660476Y-83004285D01*
X96755714Y-83051904D01*
X96803333Y-83099523D01*
X96850952Y-83194761D01*
X96850952Y-83385238D01*
X96898571Y-83480476D01*
X96946190Y-83528095D01*
X97041428Y-83575714D01*
X97231904Y-83575714D01*
X97327142Y-83528095D01*
X97374761Y-83480476D01*
X97422380Y-83385238D01*
X97422380Y-83194761D01*
X97374761Y-83099523D01*
X97327142Y-83051904D01*
X97231904Y-83004285D01*
X97041428Y-83004285D01*
X96946190Y-83051904D01*
X96898571Y-83099523D01*
X96850952Y-83194761D01*
%TO.C,R5*%
X95682380Y-115566666D02*
X95206190Y-115900000D01*
X95682380Y-116138095D02*
X94682380Y-116138095D01*
X94682380Y-115757142D01*
X94730000Y-115661904D01*
X94777619Y-115614285D01*
X94872857Y-115566666D01*
X95015714Y-115566666D01*
X95110952Y-115614285D01*
X95158571Y-115661904D01*
X95206190Y-115757142D01*
X95206190Y-116138095D01*
X94682380Y-114661904D02*
X94682380Y-115138095D01*
X95158571Y-115185714D01*
X95110952Y-115138095D01*
X95063333Y-115042857D01*
X95063333Y-114804761D01*
X95110952Y-114709523D01*
X95158571Y-114661904D01*
X95253809Y-114614285D01*
X95491904Y-114614285D01*
X95587142Y-114661904D01*
X95634761Y-114709523D01*
X95682380Y-114804761D01*
X95682380Y-115042857D01*
X95634761Y-115138095D01*
X95587142Y-115185714D01*
%TO.C,R10*%
X98152380Y-81342857D02*
X97676190Y-81676190D01*
X98152380Y-81914285D02*
X97152380Y-81914285D01*
X97152380Y-81533333D01*
X97200000Y-81438095D01*
X97247619Y-81390476D01*
X97342857Y-81342857D01*
X97485714Y-81342857D01*
X97580952Y-81390476D01*
X97628571Y-81438095D01*
X97676190Y-81533333D01*
X97676190Y-81914285D01*
X98152380Y-80390476D02*
X98152380Y-80961904D01*
X98152380Y-80676190D02*
X97152380Y-80676190D01*
X97295238Y-80771428D01*
X97390476Y-80866666D01*
X97438095Y-80961904D01*
X97152380Y-79771428D02*
X97152380Y-79676190D01*
X97200000Y-79580952D01*
X97247619Y-79533333D01*
X97342857Y-79485714D01*
X97533333Y-79438095D01*
X97771428Y-79438095D01*
X97961904Y-79485714D01*
X98057142Y-79533333D01*
X98104761Y-79580952D01*
X98152380Y-79676190D01*
X98152380Y-79771428D01*
X98104761Y-79866666D01*
X98057142Y-79914285D01*
X97961904Y-79961904D01*
X97771428Y-80009523D01*
X97533333Y-80009523D01*
X97342857Y-79961904D01*
X97247619Y-79914285D01*
X97200000Y-79866666D01*
X97152380Y-79771428D01*
%TO.C,R4*%
X100733333Y-92152380D02*
X100400000Y-91676190D01*
X100161904Y-92152380D02*
X100161904Y-91152380D01*
X100542857Y-91152380D01*
X100638095Y-91200000D01*
X100685714Y-91247619D01*
X100733333Y-91342857D01*
X100733333Y-91485714D01*
X100685714Y-91580952D01*
X100638095Y-91628571D01*
X100542857Y-91676190D01*
X100161904Y-91676190D01*
X101590476Y-91485714D02*
X101590476Y-92152380D01*
X101352380Y-91104761D02*
X101114285Y-91819047D01*
X101733333Y-91819047D01*
%TO.C,U1*%
X104638095Y-74002380D02*
X104638095Y-74811904D01*
X104685714Y-74907142D01*
X104733333Y-74954761D01*
X104828571Y-75002380D01*
X105019047Y-75002380D01*
X105114285Y-74954761D01*
X105161904Y-74907142D01*
X105209523Y-74811904D01*
X105209523Y-74002380D01*
X106209523Y-75002380D02*
X105638095Y-75002380D01*
X105923809Y-75002380D02*
X105923809Y-74002380D01*
X105828571Y-74145238D01*
X105733333Y-74240476D01*
X105638095Y-74288095D01*
%TO.C,R3*%
X98122380Y-119756666D02*
X97646190Y-120090000D01*
X98122380Y-120328095D02*
X97122380Y-120328095D01*
X97122380Y-119947142D01*
X97170000Y-119851904D01*
X97217619Y-119804285D01*
X97312857Y-119756666D01*
X97455714Y-119756666D01*
X97550952Y-119804285D01*
X97598571Y-119851904D01*
X97646190Y-119947142D01*
X97646190Y-120328095D01*
X97122380Y-119423333D02*
X97122380Y-118804285D01*
X97503333Y-119137619D01*
X97503333Y-118994761D01*
X97550952Y-118899523D01*
X97598571Y-118851904D01*
X97693809Y-118804285D01*
X97931904Y-118804285D01*
X98027142Y-118851904D01*
X98074761Y-118899523D01*
X98122380Y-118994761D01*
X98122380Y-119280476D01*
X98074761Y-119375714D01*
X98027142Y-119423333D01*
%TO.C,R7*%
X97222380Y-110856666D02*
X96746190Y-111190000D01*
X97222380Y-111428095D02*
X96222380Y-111428095D01*
X96222380Y-111047142D01*
X96270000Y-110951904D01*
X96317619Y-110904285D01*
X96412857Y-110856666D01*
X96555714Y-110856666D01*
X96650952Y-110904285D01*
X96698571Y-110951904D01*
X96746190Y-111047142D01*
X96746190Y-111428095D01*
X96222380Y-110523333D02*
X96222380Y-109856666D01*
X97222380Y-110285238D01*
%TO.C,R9*%
X95682380Y-106466666D02*
X95206190Y-106800000D01*
X95682380Y-107038095D02*
X94682380Y-107038095D01*
X94682380Y-106657142D01*
X94730000Y-106561904D01*
X94777619Y-106514285D01*
X94872857Y-106466666D01*
X95015714Y-106466666D01*
X95110952Y-106514285D01*
X95158571Y-106561904D01*
X95206190Y-106657142D01*
X95206190Y-107038095D01*
X95682380Y-105990476D02*
X95682380Y-105800000D01*
X95634761Y-105704761D01*
X95587142Y-105657142D01*
X95444285Y-105561904D01*
X95253809Y-105514285D01*
X94872857Y-105514285D01*
X94777619Y-105561904D01*
X94730000Y-105609523D01*
X94682380Y-105704761D01*
X94682380Y-105895238D01*
X94730000Y-105990476D01*
X94777619Y-106038095D01*
X94872857Y-106085714D01*
X95110952Y-106085714D01*
X95206190Y-106038095D01*
X95253809Y-105990476D01*
X95301428Y-105895238D01*
X95301428Y-105704761D01*
X95253809Y-105609523D01*
X95206190Y-105561904D01*
X95110952Y-105514285D01*
%TO.C,R1*%
X97533333Y-129852380D02*
X97200000Y-129376190D01*
X96961904Y-129852380D02*
X96961904Y-128852380D01*
X97342857Y-128852380D01*
X97438095Y-128900000D01*
X97485714Y-128947619D01*
X97533333Y-129042857D01*
X97533333Y-129185714D01*
X97485714Y-129280952D01*
X97438095Y-129328571D01*
X97342857Y-129376190D01*
X96961904Y-129376190D01*
X98485714Y-129852380D02*
X97914285Y-129852380D01*
X98200000Y-129852380D02*
X98200000Y-128852380D01*
X98104761Y-128995238D01*
X98009523Y-129090476D01*
X97914285Y-129138095D01*
%TO.C,R13*%
X95882380Y-97342857D02*
X95406190Y-97676190D01*
X95882380Y-97914285D02*
X94882380Y-97914285D01*
X94882380Y-97533333D01*
X94930000Y-97438095D01*
X94977619Y-97390476D01*
X95072857Y-97342857D01*
X95215714Y-97342857D01*
X95310952Y-97390476D01*
X95358571Y-97438095D01*
X95406190Y-97533333D01*
X95406190Y-97914285D01*
X95882380Y-96390476D02*
X95882380Y-96961904D01*
X95882380Y-96676190D02*
X94882380Y-96676190D01*
X95025238Y-96771428D01*
X95120476Y-96866666D01*
X95168095Y-96961904D01*
X94882380Y-96057142D02*
X94882380Y-95438095D01*
X95263333Y-95771428D01*
X95263333Y-95628571D01*
X95310952Y-95533333D01*
X95358571Y-95485714D01*
X95453809Y-95438095D01*
X95691904Y-95438095D01*
X95787142Y-95485714D01*
X95834761Y-95533333D01*
X95882380Y-95628571D01*
X95882380Y-95914285D01*
X95834761Y-96009523D01*
X95787142Y-96057142D01*
%TO.C,R6*%
X100733333Y-90852380D02*
X100400000Y-90376190D01*
X100161904Y-90852380D02*
X100161904Y-89852380D01*
X100542857Y-89852380D01*
X100638095Y-89900000D01*
X100685714Y-89947619D01*
X100733333Y-90042857D01*
X100733333Y-90185714D01*
X100685714Y-90280952D01*
X100638095Y-90328571D01*
X100542857Y-90376190D01*
X100161904Y-90376190D01*
X101590476Y-89852380D02*
X101400000Y-89852380D01*
X101304761Y-89900000D01*
X101257142Y-89947619D01*
X101161904Y-90090476D01*
X101114285Y-90280952D01*
X101114285Y-90661904D01*
X101161904Y-90757142D01*
X101209523Y-90804761D01*
X101304761Y-90852380D01*
X101495238Y-90852380D01*
X101590476Y-90804761D01*
X101638095Y-90757142D01*
X101685714Y-90661904D01*
X101685714Y-90423809D01*
X101638095Y-90328571D01*
X101590476Y-90280952D01*
X101495238Y-90233333D01*
X101304761Y-90233333D01*
X101209523Y-90280952D01*
X101161904Y-90328571D01*
X101114285Y-90423809D01*
%TO.C,J5*%
X94532380Y-108961904D02*
X95246666Y-108961904D01*
X95389523Y-109009523D01*
X95484761Y-109104761D01*
X95532380Y-109247618D01*
X95532380Y-109342856D01*
X94532380Y-108009523D02*
X94532380Y-108485713D01*
X95008571Y-108533332D01*
X94960952Y-108485713D01*
X94913333Y-108390475D01*
X94913333Y-108152380D01*
X94960952Y-108057142D01*
X95008571Y-108009523D01*
X95103809Y-107961904D01*
X95341904Y-107961904D01*
X95437142Y-108009523D01*
X95484761Y-108057142D01*
X95532380Y-108152380D01*
X95532380Y-108390475D01*
X95484761Y-108485713D01*
X95437142Y-108533332D01*
%TO.C,R15*%
X97622380Y-68442857D02*
X97146190Y-68776190D01*
X97622380Y-69014285D02*
X96622380Y-69014285D01*
X96622380Y-68633333D01*
X96670000Y-68538095D01*
X96717619Y-68490476D01*
X96812857Y-68442857D01*
X96955714Y-68442857D01*
X97050952Y-68490476D01*
X97098571Y-68538095D01*
X97146190Y-68633333D01*
X97146190Y-69014285D01*
X97622380Y-67490476D02*
X97622380Y-68061904D01*
X97622380Y-67776190D02*
X96622380Y-67776190D01*
X96765238Y-67871428D01*
X96860476Y-67966666D01*
X96908095Y-68061904D01*
X96622380Y-66585714D02*
X96622380Y-67061904D01*
X97098571Y-67109523D01*
X97050952Y-67061904D01*
X97003333Y-66966666D01*
X97003333Y-66728571D01*
X97050952Y-66633333D01*
X97098571Y-66585714D01*
X97193809Y-66538095D01*
X97431904Y-66538095D01*
X97527142Y-66585714D01*
X97574761Y-66633333D01*
X97622380Y-66728571D01*
X97622380Y-66966666D01*
X97574761Y-67061904D01*
X97527142Y-67109523D01*
%TO.C,J7*%
X94532380Y-100019047D02*
X95246666Y-100019047D01*
X95389523Y-100066666D01*
X95484761Y-100161904D01*
X95532380Y-100304761D01*
X95532380Y-100399999D01*
X94532380Y-99638094D02*
X94532380Y-98971428D01*
X95532380Y-99399999D01*
D11*
%TO.C,C1*%
X107990000Y-73228733D02*
X107990000Y-73571267D01*
X109010000Y-73228733D02*
X109010000Y-73571267D01*
%TO.C,J2*%
X90385000Y-87632857D02*
X92885000Y-87632857D01*
X88415000Y-88802857D02*
X88415000Y-92682857D01*
X90385000Y-93852857D02*
X92885000Y-93852857D01*
X92885000Y-93852857D02*
X92885000Y-92802857D01*
X92885000Y-88682857D02*
X93875000Y-88682857D01*
X92885000Y-87632857D02*
X92885000Y-88682857D01*
%TO.C,J4*%
X90385000Y-84910000D02*
X92885000Y-84910000D01*
X92885000Y-79740000D02*
X93875000Y-79740000D01*
X92885000Y-78690000D02*
X92885000Y-79740000D01*
X92885000Y-84910000D02*
X92885000Y-83860000D01*
X88415000Y-79860000D02*
X88415000Y-83740000D01*
X90385000Y-78690000D02*
X92885000Y-78690000D01*
%TO.C,J6*%
X92885000Y-75967143D02*
X92885000Y-74917143D01*
X92885000Y-70797143D02*
X93875000Y-70797143D01*
X92885000Y-69747143D02*
X92885000Y-70797143D01*
X90385000Y-75967143D02*
X92885000Y-75967143D01*
X90385000Y-69747143D02*
X92885000Y-69747143D01*
X88415000Y-70917143D02*
X88415000Y-74797143D01*
%TO.C,J8*%
X92885000Y-61854286D02*
X93875000Y-61854286D01*
X92885000Y-60804286D02*
X92885000Y-61854286D01*
X90385000Y-67024286D02*
X92885000Y-67024286D01*
X88415000Y-61974286D02*
X88415000Y-65854286D01*
X92885000Y-67024286D02*
X92885000Y-65974286D01*
X90385000Y-60804286D02*
X92885000Y-60804286D01*
%TO.C,J10*%
X141015000Y-61890000D02*
X138515000Y-61890000D01*
X141015000Y-68110000D02*
X138515000Y-68110000D01*
X142985000Y-66940000D02*
X142985000Y-63060000D01*
X138515000Y-68110000D02*
X138515000Y-67060000D01*
X138515000Y-67060000D02*
X137525000Y-67060000D01*
X138515000Y-61890000D02*
X138515000Y-62940000D01*
%TO.C,C2*%
X133197936Y-79090000D02*
X134402064Y-79090000D01*
X133197936Y-80910000D02*
X134402064Y-80910000D01*
%TO.C,C3*%
X133990000Y-88602064D02*
X133990000Y-87397936D01*
X135810000Y-88602064D02*
X135810000Y-87397936D01*
%TO.C,C4*%
X132190000Y-87228733D02*
X132190000Y-87571267D01*
X133210000Y-87228733D02*
X133210000Y-87571267D01*
%TO.C,C6*%
X126090000Y-82050000D02*
X126090000Y-86260000D01*
X126090000Y-86260000D02*
X129110000Y-86260000D01*
X129110000Y-86260000D02*
X129110000Y-82050000D01*
%TO.C,C8*%
X119210000Y-87728733D02*
X119210000Y-88071267D01*
X118190000Y-87728733D02*
X118190000Y-88071267D01*
%TO.C,J11*%
X120670000Y-82220000D02*
X120670000Y-80980000D01*
X116930000Y-82220000D02*
X116930000Y-80980000D01*
X119420000Y-79730000D02*
X118180000Y-79730000D01*
X119420000Y-83470000D02*
X118180000Y-83470000D01*
%TO.C,JP1*%
X125300000Y-90600000D02*
X126700000Y-90600000D01*
X127400000Y-91300000D02*
X127400000Y-91900000D01*
X124600000Y-91900000D02*
X124600000Y-91300000D01*
X126700000Y-92600000D02*
X125300000Y-92600000D01*
X127400000Y-91300000D02*
G75*
G03*
X126700000Y-90600000I-699999J1D01*
G01*
X126700000Y-92600000D02*
G75*
G03*
X127400000Y-91900000I1J699999D01*
G01*
X125300000Y-90600000D02*
G75*
G03*
X124600000Y-91300000I0J-700000D01*
G01*
X124600000Y-91900000D02*
G75*
G03*
X125300000Y-92600000I700000J0D01*
G01*
%TO.C,L1*%
X134202064Y-84860000D02*
X132997936Y-84860000D01*
X134202064Y-82140000D02*
X132997936Y-82140000D01*
%TO.C,PS1*%
X136750000Y-79330000D02*
X136750000Y-91100000D01*
X136550000Y-79130000D02*
X136550000Y-80330000D01*
X143090000Y-91100000D02*
X136750000Y-91100000D01*
X143090000Y-79330000D02*
X136750000Y-79330000D01*
X143090000Y-79330000D02*
X143090000Y-91100000D01*
X137750000Y-79130000D02*
X136550000Y-79130000D01*
%TO.C,Q1*%
X126760000Y-89980000D02*
X125300000Y-89980000D01*
X126760000Y-89980000D02*
X126760000Y-89050000D01*
X126760000Y-86820000D02*
X126760000Y-87750000D01*
X126760000Y-86820000D02*
X124600000Y-86820000D01*
%TO.C,R21*%
X128490000Y-88571267D02*
X128490000Y-88228733D01*
X129510000Y-88571267D02*
X129510000Y-88228733D01*
%TO.C,U2*%
X120000000Y-87210000D02*
X120000000Y-89660000D01*
X123220000Y-89010000D02*
X123220000Y-87210000D01*
%TO.C,C7*%
X121871267Y-90590000D02*
X121528733Y-90590000D01*
X121871267Y-91610000D02*
X121528733Y-91610000D01*
%TO.C,C9*%
X133728733Y-67190000D02*
X134071267Y-67190000D01*
X133728733Y-68210000D02*
X134071267Y-68210000D01*
%TO.C,C11*%
X127528733Y-68210000D02*
X127871267Y-68210000D01*
X127528733Y-67190000D02*
X127871267Y-67190000D01*
%TO.C,C12*%
X127728733Y-77610000D02*
X128071267Y-77610000D01*
X127728733Y-76590000D02*
X128071267Y-76590000D01*
%TO.C,C10*%
X134628733Y-77510000D02*
X134971267Y-77510000D01*
X134628733Y-76490000D02*
X134971267Y-76490000D01*
%TO.C,J9*%
X141115000Y-70890000D02*
X138615000Y-70890000D01*
X138615000Y-70890000D02*
X138615000Y-71940000D01*
X138615000Y-77110000D02*
X138615000Y-76060000D01*
X138615000Y-76060000D02*
X137625000Y-76060000D01*
X141115000Y-77110000D02*
X138615000Y-77110000D01*
X143085000Y-75940000D02*
X143085000Y-72060000D01*
%TO.C,C5*%
X131310000Y-87203733D02*
X131310000Y-87546267D01*
X130290000Y-87203733D02*
X130290000Y-87546267D01*
%TO.C,U4*%
X131300000Y-70540000D02*
X129350000Y-70540000D01*
X131300000Y-70540000D02*
X133250000Y-70540000D01*
X131300000Y-75660000D02*
X129350000Y-75660000D01*
X131300000Y-75660000D02*
X134750000Y-75660000D01*
%TO.C,R18*%
X116436359Y-76780000D02*
X116743641Y-76780000D01*
X116436359Y-76020000D02*
X116743641Y-76020000D01*
%TO.C,R19*%
X135963641Y-61380000D02*
X135656359Y-61380000D01*
X135963641Y-60620000D02*
X135656359Y-60620000D01*
%TO.C,R14*%
X95120000Y-74956359D02*
X95120000Y-75263641D01*
X95880000Y-74956359D02*
X95880000Y-75263641D01*
%TO.C,R12*%
X96680000Y-73253641D02*
X96680000Y-72946359D01*
X95920000Y-73253641D02*
X95920000Y-72946359D01*
%TO.C,J3*%
X92885000Y-120681428D02*
X92885000Y-119631428D01*
X90385000Y-114461428D02*
X92885000Y-114461428D01*
X92885000Y-115511428D02*
X93875000Y-115511428D01*
X92885000Y-114461428D02*
X92885000Y-115511428D01*
X88415000Y-115631428D02*
X88415000Y-119511428D01*
X90385000Y-120681428D02*
X92885000Y-120681428D01*
%TO.C,U3*%
X130800000Y-66460000D02*
X128850000Y-66460000D01*
X130800000Y-61340000D02*
X132750000Y-61340000D01*
X130800000Y-66460000D02*
X134250000Y-66460000D01*
X130800000Y-61340000D02*
X128850000Y-61340000D01*
%TO.C,R2*%
X95646359Y-128580000D02*
X95953641Y-128580000D01*
X95646359Y-127820000D02*
X95953641Y-127820000D01*
%TO.C,R11*%
X95720000Y-99446359D02*
X95720000Y-99753641D01*
X96480000Y-99446359D02*
X96480000Y-99753641D01*
%TO.C,J1*%
X90385000Y-129624286D02*
X92885000Y-129624286D01*
X92885000Y-123404286D02*
X92885000Y-124454286D01*
X88415000Y-124574286D02*
X88415000Y-128454286D01*
X92885000Y-124454286D02*
X93875000Y-124454286D01*
X90385000Y-123404286D02*
X92885000Y-123404286D01*
X92885000Y-129624286D02*
X92885000Y-128574286D01*
%TO.C,R20*%
X134920000Y-64836359D02*
X134920000Y-65143641D01*
X135680000Y-64836359D02*
X135680000Y-65143641D01*
%TO.C,R16*%
X96946359Y-65280000D02*
X97253641Y-65280000D01*
X96946359Y-64520000D02*
X97253641Y-64520000D01*
%TO.C,R17*%
X116436359Y-78080000D02*
X116743641Y-78080000D01*
X116436359Y-77320000D02*
X116743641Y-77320000D01*
%TO.C,R8*%
X96180000Y-83636359D02*
X96180000Y-83943641D01*
X95420000Y-83636359D02*
X95420000Y-83943641D01*
%TO.C,R5*%
X96780000Y-115553641D02*
X96780000Y-115246359D01*
X96020000Y-115553641D02*
X96020000Y-115246359D01*
%TO.C,R10*%
X96780000Y-81853641D02*
X96780000Y-81546359D01*
X96020000Y-81853641D02*
X96020000Y-81546359D01*
%TO.C,R4*%
X98736359Y-92080000D02*
X99043641Y-92080000D01*
X98736359Y-91320000D02*
X99043641Y-91320000D01*
%TO.C,U1*%
X105400000Y-75365000D02*
X107600000Y-75365000D01*
X105400000Y-83435000D02*
X103200000Y-83435000D01*
X105400000Y-83435000D02*
X107600000Y-83435000D01*
X105400000Y-75365000D02*
X101800000Y-75365000D01*
%TO.C,R3*%
X96120000Y-119436359D02*
X96120000Y-119743641D01*
X96880000Y-119436359D02*
X96880000Y-119743641D01*
%TO.C,R7*%
X95980000Y-110536359D02*
X95980000Y-110843641D01*
X95220000Y-110536359D02*
X95220000Y-110843641D01*
%TO.C,R9*%
X96020000Y-106453641D02*
X96020000Y-106146359D01*
X96780000Y-106453641D02*
X96780000Y-106146359D01*
%TO.C,R1*%
X95646359Y-129020000D02*
X95953641Y-129020000D01*
X95646359Y-129780000D02*
X95953641Y-129780000D01*
%TO.C,R13*%
X96220000Y-96853641D02*
X96220000Y-96546359D01*
X96980000Y-96853641D02*
X96980000Y-96546359D01*
%TO.C,R6*%
X98746359Y-90880000D02*
X99053641Y-90880000D01*
X98746359Y-90120000D02*
X99053641Y-90120000D01*
%TO.C,J5*%
X88415000Y-106688571D02*
X88415000Y-110568571D01*
X90385000Y-111738571D02*
X92885000Y-111738571D01*
X92885000Y-111738571D02*
X92885000Y-110688571D01*
X90385000Y-105518571D02*
X92885000Y-105518571D01*
X92885000Y-106568571D02*
X93875000Y-106568571D01*
X92885000Y-105518571D02*
X92885000Y-106568571D01*
%TO.C,R15*%
X96380000Y-67646359D02*
X96380000Y-67953641D01*
X95620000Y-67646359D02*
X95620000Y-67953641D01*
%TO.C,J7*%
X92885000Y-96575714D02*
X92885000Y-97625714D01*
X88415000Y-97745714D02*
X88415000Y-101625714D01*
X92885000Y-102795714D02*
X92885000Y-101745714D01*
X92885000Y-97625714D02*
X93875000Y-97625714D01*
X90385000Y-102795714D02*
X92885000Y-102795714D01*
X90385000Y-96575714D02*
X92885000Y-96575714D01*
%TD*%
%LPC*%
D12*
%TO.C,H3*%
X140000000Y-125000000D03*
%TD*%
D13*
%TO.C,C1*%
X108500000Y-72525000D03*
X108500000Y-74275000D03*
%TD*%
D14*
%TO.C,J2*%
X93100000Y-89242857D03*
X93100000Y-90242857D03*
X93100000Y-91242857D03*
X93100000Y-92242857D03*
D15*
X89225000Y-93542857D03*
X89225000Y-87942857D03*
%TD*%
D14*
%TO.C,J4*%
X93100000Y-80300000D03*
X93100000Y-81300000D03*
X93100000Y-82300000D03*
X93100000Y-83300000D03*
D15*
X89225000Y-84600000D03*
X89225000Y-79000000D03*
%TD*%
D14*
%TO.C,J6*%
X93100000Y-71357143D03*
X93100000Y-72357143D03*
X93100000Y-73357143D03*
X93100000Y-74357143D03*
D15*
X89225000Y-70057143D03*
X89225000Y-75657143D03*
%TD*%
D14*
%TO.C,J8*%
X93100000Y-62414286D03*
X93100000Y-63414286D03*
X93100000Y-64414286D03*
X93100000Y-65414286D03*
D15*
X89225000Y-61114286D03*
X89225000Y-66714286D03*
%TD*%
D16*
%TO.C,J10*%
X138300000Y-66500000D03*
X138300000Y-65500000D03*
X138300000Y-64500000D03*
X138300000Y-63500000D03*
D17*
X142175000Y-62200000D03*
X142175000Y-67800000D03*
%TD*%
D18*
%TO.C,C2*%
X132312500Y-80000000D03*
X135287500Y-80000000D03*
%TD*%
D19*
%TO.C,C3*%
X134900000Y-89487500D03*
X134900000Y-86512500D03*
%TD*%
D13*
%TO.C,C4*%
X132700000Y-86525000D03*
X132700000Y-88275000D03*
%TD*%
D20*
%TO.C,C6*%
X127600000Y-85337500D03*
X127600000Y-82262500D03*
%TD*%
D13*
%TO.C,C8*%
X118700000Y-87025000D03*
X118700000Y-88775000D03*
%TD*%
D21*
%TO.C,J11*%
X118800000Y-81600000D03*
X117530000Y-80330000D03*
X120070000Y-82870000D03*
X120070000Y-80330000D03*
X117530000Y-82870000D03*
%TD*%
D22*
%TO.C,JP1*%
X126650000Y-91600000D03*
D23*
X125350000Y-91600000D03*
%TD*%
D24*
%TO.C,L1*%
X135087500Y-83500000D03*
X132112500Y-83500000D03*
%TD*%
D25*
%TO.C,PS1*%
X138000000Y-81400000D03*
D26*
X138000000Y-83940000D03*
X138000000Y-86480000D03*
X138000000Y-89020000D03*
%TD*%
D27*
%TO.C,Q1*%
X125000000Y-87450000D03*
X125000000Y-89350000D03*
X127000000Y-88400000D03*
%TD*%
D28*
%TO.C,R21*%
X129000000Y-89275000D03*
X129000000Y-87525000D03*
%TD*%
D29*
%TO.C,U2*%
X120660000Y-89210000D03*
X121610000Y-89210000D03*
X122560000Y-89210000D03*
X122560000Y-87010000D03*
X120660000Y-87010000D03*
%TD*%
D30*
%TO.C,C7*%
X122575000Y-91100000D03*
X120825000Y-91100000D03*
%TD*%
D31*
%TO.C,C9*%
X133025000Y-67700000D03*
X134775000Y-67700000D03*
%TD*%
%TO.C,C11*%
X126825000Y-67700000D03*
X128575000Y-67700000D03*
%TD*%
%TO.C,C12*%
X127025000Y-77100000D03*
X128775000Y-77100000D03*
%TD*%
%TO.C,C10*%
X133925000Y-77000000D03*
X135675000Y-77000000D03*
%TD*%
D16*
%TO.C,J9*%
X138400000Y-75500000D03*
X138400000Y-74500000D03*
X138400000Y-73500000D03*
X138400000Y-72500000D03*
D17*
X142275000Y-76800000D03*
X142275000Y-71200000D03*
%TD*%
D13*
%TO.C,C5*%
X130800000Y-86500000D03*
X130800000Y-88250000D03*
%TD*%
D12*
%TO.C,H1*%
X105000000Y-65000000D03*
%TD*%
%TO.C,H2*%
X105000000Y-125000000D03*
%TD*%
D32*
%TO.C,U4*%
X133775000Y-75005000D03*
X133775000Y-73735000D03*
X133775000Y-72465000D03*
X133775000Y-71195000D03*
X128825000Y-71195000D03*
X128825000Y-72465000D03*
X128825000Y-73735000D03*
X128825000Y-75005000D03*
%TD*%
D33*
%TO.C,R18*%
X116080000Y-76400000D03*
X117100000Y-76400000D03*
%TD*%
D34*
%TO.C,R19*%
X136320000Y-61000000D03*
X135300000Y-61000000D03*
%TD*%
D35*
%TO.C,R14*%
X95500000Y-74600000D03*
X95500000Y-75620000D03*
%TD*%
D36*
%TO.C,R12*%
X96300000Y-73610000D03*
X96300000Y-72590000D03*
%TD*%
D14*
%TO.C,J3*%
X93100000Y-116071428D03*
X93100000Y-117071428D03*
X93100000Y-118071428D03*
X93100000Y-119071428D03*
D15*
X89225000Y-120371428D03*
X89225000Y-114771428D03*
%TD*%
D32*
%TO.C,U3*%
X133275000Y-65805000D03*
X133275000Y-64535000D03*
X133275000Y-63265000D03*
X133275000Y-61995000D03*
X128325000Y-61995000D03*
X128325000Y-63265000D03*
X128325000Y-64535000D03*
X128325000Y-65805000D03*
%TD*%
D33*
%TO.C,R2*%
X95290000Y-128200000D03*
X96310000Y-128200000D03*
%TD*%
D35*
%TO.C,R11*%
X96100000Y-99090000D03*
X96100000Y-100110000D03*
%TD*%
D14*
%TO.C,J1*%
X93100000Y-125014286D03*
X93100000Y-126014286D03*
X93100000Y-127014286D03*
X93100000Y-128014286D03*
D15*
X89225000Y-129314286D03*
X89225000Y-123714286D03*
%TD*%
D35*
%TO.C,R20*%
X135300000Y-64480000D03*
X135300000Y-65500000D03*
%TD*%
D33*
%TO.C,R16*%
X96590000Y-64900000D03*
X97610000Y-64900000D03*
%TD*%
%TO.C,R17*%
X116080000Y-77700000D03*
X117100000Y-77700000D03*
%TD*%
D35*
%TO.C,R8*%
X95800000Y-83280000D03*
X95800000Y-84300000D03*
%TD*%
D36*
%TO.C,R5*%
X96400000Y-115910000D03*
X96400000Y-114890000D03*
%TD*%
%TO.C,R10*%
X96400000Y-82210000D03*
X96400000Y-81190000D03*
%TD*%
D33*
%TO.C,R4*%
X98380000Y-91700000D03*
X99400000Y-91700000D03*
%TD*%
D37*
%TO.C,U1*%
X102537500Y-75825000D03*
X102537500Y-76475000D03*
X102537500Y-77125000D03*
X102537500Y-77775000D03*
X102537500Y-78425000D03*
X102537500Y-79075000D03*
X102537500Y-79725000D03*
X102537500Y-80375000D03*
X102537500Y-81025000D03*
X102537500Y-81675000D03*
X102537500Y-82325000D03*
X102537500Y-82975000D03*
X108262500Y-82975000D03*
X108262500Y-82325000D03*
X108262500Y-81675000D03*
X108262500Y-81025000D03*
X108262500Y-80375000D03*
X108262500Y-79725000D03*
X108262500Y-79075000D03*
X108262500Y-78425000D03*
X108262500Y-77775000D03*
X108262500Y-77125000D03*
X108262500Y-76475000D03*
X108262500Y-75825000D03*
%TD*%
D35*
%TO.C,R3*%
X96500000Y-119080000D03*
X96500000Y-120100000D03*
%TD*%
%TO.C,R7*%
X95600000Y-110180000D03*
X95600000Y-111200000D03*
%TD*%
D36*
%TO.C,R9*%
X96400000Y-106810000D03*
X96400000Y-105790000D03*
%TD*%
D33*
%TO.C,R1*%
X95290000Y-129400000D03*
X96310000Y-129400000D03*
%TD*%
D36*
%TO.C,R13*%
X96600000Y-97210000D03*
X96600000Y-96190000D03*
%TD*%
D33*
%TO.C,R6*%
X98390000Y-90500000D03*
X99410000Y-90500000D03*
%TD*%
D14*
%TO.C,J5*%
X93100000Y-107128571D03*
X93100000Y-108128571D03*
X93100000Y-109128571D03*
X93100000Y-110128571D03*
D15*
X89225000Y-111428571D03*
X89225000Y-105828571D03*
%TD*%
D35*
%TO.C,R15*%
X96000000Y-67290000D03*
X96000000Y-68310000D03*
%TD*%
D14*
%TO.C,J7*%
X93100000Y-98185714D03*
X93100000Y-99185714D03*
X93100000Y-100185714D03*
X93100000Y-101185714D03*
D15*
X89225000Y-102485714D03*
X89225000Y-96885714D03*
%TD*%
M02*
