M48
; DRILL file {KiCad (6.0.4-0)} date Friday, September 09, 2022 at 04:16:13 PM
; FORMAT={-:-/ absolute / inch / decimal}
; #@! TF.CreationDate,2022-09-09T16:16:13-06:00
; #@! TF.GenerationSoftware,Kicad,Pcbnew,(6.0.4-0)
; #@! TF.FileFunction,Plated,1,2,PTH
FMAT,2
INCH
; #@! TA.AperFunction,Plated,PTH,ViaDrill
T1C0.0157
; #@! TA.AperFunction,Plated,PTH,ComponentDrill
T2C0.0331
; #@! TA.AperFunction,Plated,PTH,ComponentDrill
T3C0.0394
; #@! TA.AperFunction,Plated,PTH,ComponentDrill
T4C0.1063
%
G90
G05
T1
X3.6063Y-5.0
X3.7205Y-2.4606
X3.7205Y-2.811
X3.7205Y-3.1614
X3.7283Y-3.5157
X3.7283Y-3.8661
X3.7283Y-4.2165
X3.7283Y-4.5709
X3.7283Y-4.9213
X3.7913Y-5.0
X3.7953Y-3.5236
X3.874Y-3.5236
X3.9843Y-2.9843
X3.9867Y-3.0172
X4.1575Y-3.063
X4.2717Y-2.8071
X4.3228Y-3.0118
X4.3543Y-3.0866
X4.3622Y-3.0403
X4.5157Y-3.0118
X4.5157Y-3.0551
X4.874Y-3.2402
X5.0709Y-3.0984
X5.3494Y-2.6614
X5.3504Y-2.4409
X5.3583Y-2.9646
X5.378Y-2.5787
X5.3819Y-2.9331
T2
X4.6272Y-3.1626
X4.6272Y-3.2626
X4.6772Y-3.2126
X4.7272Y-3.1626
X4.7272Y-3.2626
T3
X5.4331Y-3.2047
X5.4331Y-3.3047
X5.4331Y-3.4047
X5.4331Y-3.5047
T4
X4.1339Y-2.5591
X4.1339Y-4.9213
X5.5118Y-4.9213
T0
M30
