%TF.GenerationSoftware,KiCad,Pcbnew,(6.0.4-0)*%
%TF.CreationDate,2022-09-09T16:16:13-06:00*%
%TF.ProjectId,i2c_mux,6932635f-6d75-4782-9e6b-696361645f70,rev?*%
%TF.SameCoordinates,Original*%
%TF.FileFunction,Soldermask,Top*%
%TF.FilePolarity,Negative*%
%FSLAX46Y46*%
G04 Gerber Fmt 4.6, Leading zero omitted, Abs format (unit mm)*
G04 Created by KiCad (PCBNEW (6.0.4-0)) date 2022-09-09 16:16:13*
%MOMM*%
%LPD*%
G01*
G04 APERTURE LIST*
G04 Aperture macros list*
%AMRoundRect*
0 Rectangle with rounded corners*
0 $1 Rounding radius*
0 $2 $3 $4 $5 $6 $7 $8 $9 X,Y pos of 4 corners*
0 Add a 4 corners polygon primitive as box body*
4,1,4,$2,$3,$4,$5,$6,$7,$8,$9,$2,$3,0*
0 Add four circle primitives for the rounded corners*
1,1,$1+$1,$2,$3*
1,1,$1+$1,$4,$5*
1,1,$1+$1,$6,$7*
1,1,$1+$1,$8,$9*
0 Add four rect primitives between the rounded corners*
20,1,$1+$1,$2,$3,$4,$5,0*
20,1,$1+$1,$4,$5,$6,$7,0*
20,1,$1+$1,$6,$7,$8,$9,0*
20,1,$1+$1,$8,$9,$2,$3,0*%
%AMFreePoly0*
4,1,37,0.536062,0.786062,0.551000,0.750000,0.551000,-0.750000,0.536062,-0.786062,0.500000,-0.801000,0.000000,-0.801000,-0.012525,-0.795812,-0.080875,-0.794559,-0.095149,-0.792248,-0.230464,-0.749973,-0.243516,-0.743747,-0.361526,-0.665192,-0.372306,-0.655554,-0.463526,-0.547035,-0.471167,-0.534759,-0.528262,-0.405000,-0.532150,-0.391073,-0.549733,-0.256613,-0.548336,-0.256430,-0.551000,-0.250000,
-0.551000,0.250000,-0.550512,0.251179,-0.550356,0.263956,-0.528545,0.404033,-0.524317,0.417860,-0.464069,0.546185,-0.456130,0.558271,-0.362286,0.664529,-0.351274,0.673901,-0.231379,0.749549,-0.218180,0.755454,-0.081873,0.794411,-0.067546,0.796373,-0.011990,0.796033,0.000000,0.801000,0.500000,0.801000,0.536062,0.786062,0.536062,0.786062,$1*%
%AMFreePoly1*
4,1,37,0.012349,0.795885,0.074216,0.795507,0.088518,0.793370,0.224339,0.752751,0.237465,0.746685,0.356427,0.669578,0.367324,0.660073,0.459862,0.552676,0.467652,0.540494,0.526329,0.411442,0.530388,0.397563,0.550485,0.257230,0.551000,0.250000,0.551000,-0.250000,0.550996,-0.250622,0.550847,-0.262838,0.550144,-0.270677,0.526624,-0.410478,0.522228,-0.424254,0.460416,-0.551833,
0.452330,-0.563821,0.357195,-0.668925,0.346069,-0.678161,0.225259,-0.752338,0.211989,-0.758081,0.075216,-0.795370,0.060866,-0.797157,0.011464,-0.796251,0.000000,-0.801000,-0.500000,-0.801000,-0.536062,-0.786062,-0.551000,-0.750000,-0.551000,0.750000,-0.536062,0.786062,-0.500000,0.801000,0.000000,0.801000,0.012349,0.795885,0.012349,0.795885,$1*%
G04 Aperture macros list end*
%ADD10C,5.502000*%
%ADD11RoundRect,0.288500X-0.237500X0.287500X-0.237500X-0.287500X0.237500X-0.287500X0.237500X0.287500X0*%
%ADD12RoundRect,0.201000X-0.625000X0.150000X-0.625000X-0.150000X0.625000X-0.150000X0.625000X0.150000X0*%
%ADD13RoundRect,0.301000X-0.650000X0.350000X-0.650000X-0.350000X0.650000X-0.350000X0.650000X0.350000X0*%
%ADD14RoundRect,0.201000X0.625000X-0.150000X0.625000X0.150000X-0.625000X0.150000X-0.625000X-0.150000X0*%
%ADD15RoundRect,0.301000X0.650000X-0.350000X0.650000X0.350000X-0.650000X0.350000X-0.650000X-0.350000X0*%
%ADD16RoundRect,0.301001X-0.462499X-0.624999X0.462499X-0.624999X0.462499X0.624999X-0.462499X0.624999X0*%
%ADD17RoundRect,0.301001X0.624999X-0.462499X0.624999X0.462499X-0.624999X0.462499X-0.624999X-0.462499X0*%
%ADD18RoundRect,0.301000X0.925000X-0.412500X0.925000X0.412500X-0.925000X0.412500X-0.925000X-0.412500X0*%
%ADD19C,1.342000*%
%ADD20FreePoly0,180.000000*%
%ADD21FreePoly1,180.000000*%
%ADD22RoundRect,0.301001X0.462499X1.074999X-0.462499X1.074999X-0.462499X-1.074999X0.462499X-1.074999X0*%
%ADD23RoundRect,0.051000X-0.900000X0.700000X-0.900000X-0.700000X0.900000X-0.700000X0.900000X0.700000X0*%
%ADD24O,1.902000X1.502000*%
%ADD25RoundRect,0.051000X-0.450000X-0.400000X0.450000X-0.400000X0.450000X0.400000X-0.450000X0.400000X0*%
%ADD26RoundRect,0.288500X0.237500X-0.287500X0.237500X0.287500X-0.237500X0.287500X-0.237500X-0.287500X0*%
%ADD27RoundRect,0.051000X0.325000X-0.530000X0.325000X0.530000X-0.325000X0.530000X-0.325000X-0.530000X0*%
%ADD28RoundRect,0.288500X0.287500X0.237500X-0.287500X0.237500X-0.287500X-0.237500X0.287500X-0.237500X0*%
%ADD29RoundRect,0.288500X-0.287500X-0.237500X0.287500X-0.237500X0.287500X0.237500X-0.287500X0.237500X0*%
%ADD30RoundRect,0.201000X0.825000X0.150000X-0.825000X0.150000X-0.825000X-0.150000X0.825000X-0.150000X0*%
%ADD31RoundRect,0.186000X-0.135000X-0.185000X0.135000X-0.185000X0.135000X0.185000X-0.135000X0.185000X0*%
%ADD32RoundRect,0.186000X0.135000X0.185000X-0.135000X0.185000X-0.135000X-0.185000X0.135000X-0.185000X0*%
%ADD33RoundRect,0.186000X-0.185000X0.135000X-0.185000X-0.135000X0.185000X-0.135000X0.185000X0.135000X0*%
%ADD34RoundRect,0.186000X0.185000X-0.135000X0.185000X0.135000X-0.185000X0.135000X-0.185000X-0.135000X0*%
%ADD35RoundRect,0.151000X-0.637500X-0.100000X0.637500X-0.100000X0.637500X0.100000X-0.637500X0.100000X0*%
G04 APERTURE END LIST*
D10*
%TO.C,H3*%
X140000000Y-125000000D03*
%TD*%
D11*
%TO.C,C1*%
X108500000Y-72525000D03*
X108500000Y-74275000D03*
%TD*%
D12*
%TO.C,J2*%
X93100000Y-89242857D03*
X93100000Y-90242857D03*
X93100000Y-91242857D03*
X93100000Y-92242857D03*
D13*
X89225000Y-93542857D03*
X89225000Y-87942857D03*
%TD*%
D12*
%TO.C,J4*%
X93100000Y-80300000D03*
X93100000Y-81300000D03*
X93100000Y-82300000D03*
X93100000Y-83300000D03*
D13*
X89225000Y-84600000D03*
X89225000Y-79000000D03*
%TD*%
D12*
%TO.C,J6*%
X93100000Y-71357143D03*
X93100000Y-72357143D03*
X93100000Y-73357143D03*
X93100000Y-74357143D03*
D13*
X89225000Y-70057143D03*
X89225000Y-75657143D03*
%TD*%
D12*
%TO.C,J8*%
X93100000Y-62414286D03*
X93100000Y-63414286D03*
X93100000Y-64414286D03*
X93100000Y-65414286D03*
D13*
X89225000Y-61114286D03*
X89225000Y-66714286D03*
%TD*%
D14*
%TO.C,J10*%
X138300000Y-66500000D03*
X138300000Y-65500000D03*
X138300000Y-64500000D03*
X138300000Y-63500000D03*
D15*
X142175000Y-62200000D03*
X142175000Y-67800000D03*
%TD*%
D16*
%TO.C,C2*%
X132312500Y-80000000D03*
X135287500Y-80000000D03*
%TD*%
D17*
%TO.C,C3*%
X134900000Y-89487500D03*
X134900000Y-86512500D03*
%TD*%
D11*
%TO.C,C4*%
X132700000Y-86525000D03*
X132700000Y-88275000D03*
%TD*%
D18*
%TO.C,C6*%
X127600000Y-85337500D03*
X127600000Y-82262500D03*
%TD*%
D11*
%TO.C,C8*%
X118700000Y-87025000D03*
X118700000Y-88775000D03*
%TD*%
D19*
%TO.C,J11*%
X118800000Y-81600000D03*
X117530000Y-80330000D03*
X120070000Y-82870000D03*
X120070000Y-80330000D03*
X117530000Y-82870000D03*
%TD*%
D20*
%TO.C,JP1*%
X126650000Y-91600000D03*
D21*
X125350000Y-91600000D03*
%TD*%
D22*
%TO.C,L1*%
X135087500Y-83500000D03*
X132112500Y-83500000D03*
%TD*%
D23*
%TO.C,PS1*%
X138000000Y-81400000D03*
D24*
X138000000Y-83940000D03*
X138000000Y-86480000D03*
X138000000Y-89020000D03*
%TD*%
D25*
%TO.C,Q1*%
X125000000Y-87450000D03*
X125000000Y-89350000D03*
X127000000Y-88400000D03*
%TD*%
D26*
%TO.C,R21*%
X129000000Y-89275000D03*
X129000000Y-87525000D03*
%TD*%
D27*
%TO.C,U2*%
X120660000Y-89210000D03*
X121610000Y-89210000D03*
X122560000Y-89210000D03*
X122560000Y-87010000D03*
X120660000Y-87010000D03*
%TD*%
D28*
%TO.C,C7*%
X122575000Y-91100000D03*
X120825000Y-91100000D03*
%TD*%
D29*
%TO.C,C9*%
X133025000Y-67700000D03*
X134775000Y-67700000D03*
%TD*%
%TO.C,C11*%
X126825000Y-67700000D03*
X128575000Y-67700000D03*
%TD*%
%TO.C,C12*%
X127025000Y-77100000D03*
X128775000Y-77100000D03*
%TD*%
%TO.C,C10*%
X133925000Y-77000000D03*
X135675000Y-77000000D03*
%TD*%
D14*
%TO.C,J9*%
X138400000Y-75500000D03*
X138400000Y-74500000D03*
X138400000Y-73500000D03*
X138400000Y-72500000D03*
D15*
X142275000Y-76800000D03*
X142275000Y-71200000D03*
%TD*%
D11*
%TO.C,C5*%
X130800000Y-86500000D03*
X130800000Y-88250000D03*
%TD*%
D10*
%TO.C,H1*%
X105000000Y-65000000D03*
%TD*%
%TO.C,H2*%
X105000000Y-125000000D03*
%TD*%
D30*
%TO.C,U4*%
X133775000Y-75005000D03*
X133775000Y-73735000D03*
X133775000Y-72465000D03*
X133775000Y-71195000D03*
X128825000Y-71195000D03*
X128825000Y-72465000D03*
X128825000Y-73735000D03*
X128825000Y-75005000D03*
%TD*%
D31*
%TO.C,R18*%
X116080000Y-76400000D03*
X117100000Y-76400000D03*
%TD*%
D32*
%TO.C,R19*%
X136320000Y-61000000D03*
X135300000Y-61000000D03*
%TD*%
D33*
%TO.C,R14*%
X95500000Y-74600000D03*
X95500000Y-75620000D03*
%TD*%
D34*
%TO.C,R12*%
X96300000Y-73610000D03*
X96300000Y-72590000D03*
%TD*%
D12*
%TO.C,J3*%
X93100000Y-116071428D03*
X93100000Y-117071428D03*
X93100000Y-118071428D03*
X93100000Y-119071428D03*
D13*
X89225000Y-120371428D03*
X89225000Y-114771428D03*
%TD*%
D30*
%TO.C,U3*%
X133275000Y-65805000D03*
X133275000Y-64535000D03*
X133275000Y-63265000D03*
X133275000Y-61995000D03*
X128325000Y-61995000D03*
X128325000Y-63265000D03*
X128325000Y-64535000D03*
X128325000Y-65805000D03*
%TD*%
D31*
%TO.C,R2*%
X95290000Y-128200000D03*
X96310000Y-128200000D03*
%TD*%
D33*
%TO.C,R11*%
X96100000Y-99090000D03*
X96100000Y-100110000D03*
%TD*%
D12*
%TO.C,J1*%
X93100000Y-125014286D03*
X93100000Y-126014286D03*
X93100000Y-127014286D03*
X93100000Y-128014286D03*
D13*
X89225000Y-129314286D03*
X89225000Y-123714286D03*
%TD*%
D33*
%TO.C,R20*%
X135300000Y-64480000D03*
X135300000Y-65500000D03*
%TD*%
D31*
%TO.C,R16*%
X96590000Y-64900000D03*
X97610000Y-64900000D03*
%TD*%
%TO.C,R17*%
X116080000Y-77700000D03*
X117100000Y-77700000D03*
%TD*%
D33*
%TO.C,R8*%
X95800000Y-83280000D03*
X95800000Y-84300000D03*
%TD*%
D34*
%TO.C,R5*%
X96400000Y-115910000D03*
X96400000Y-114890000D03*
%TD*%
%TO.C,R10*%
X96400000Y-82210000D03*
X96400000Y-81190000D03*
%TD*%
D31*
%TO.C,R4*%
X98380000Y-91700000D03*
X99400000Y-91700000D03*
%TD*%
D35*
%TO.C,U1*%
X102537500Y-75825000D03*
X102537500Y-76475000D03*
X102537500Y-77125000D03*
X102537500Y-77775000D03*
X102537500Y-78425000D03*
X102537500Y-79075000D03*
X102537500Y-79725000D03*
X102537500Y-80375000D03*
X102537500Y-81025000D03*
X102537500Y-81675000D03*
X102537500Y-82325000D03*
X102537500Y-82975000D03*
X108262500Y-82975000D03*
X108262500Y-82325000D03*
X108262500Y-81675000D03*
X108262500Y-81025000D03*
X108262500Y-80375000D03*
X108262500Y-79725000D03*
X108262500Y-79075000D03*
X108262500Y-78425000D03*
X108262500Y-77775000D03*
X108262500Y-77125000D03*
X108262500Y-76475000D03*
X108262500Y-75825000D03*
%TD*%
D33*
%TO.C,R3*%
X96500000Y-119080000D03*
X96500000Y-120100000D03*
%TD*%
%TO.C,R7*%
X95600000Y-110180000D03*
X95600000Y-111200000D03*
%TD*%
D34*
%TO.C,R9*%
X96400000Y-106810000D03*
X96400000Y-105790000D03*
%TD*%
D31*
%TO.C,R1*%
X95290000Y-129400000D03*
X96310000Y-129400000D03*
%TD*%
D34*
%TO.C,R13*%
X96600000Y-97210000D03*
X96600000Y-96190000D03*
%TD*%
D31*
%TO.C,R6*%
X98390000Y-90500000D03*
X99410000Y-90500000D03*
%TD*%
D12*
%TO.C,J5*%
X93100000Y-107128571D03*
X93100000Y-108128571D03*
X93100000Y-109128571D03*
X93100000Y-110128571D03*
D13*
X89225000Y-111428571D03*
X89225000Y-105828571D03*
%TD*%
D33*
%TO.C,R15*%
X96000000Y-67290000D03*
X96000000Y-68310000D03*
%TD*%
D12*
%TO.C,J7*%
X93100000Y-98185714D03*
X93100000Y-99185714D03*
X93100000Y-100185714D03*
X93100000Y-101185714D03*
D13*
X89225000Y-102485714D03*
X89225000Y-96885714D03*
%TD*%
G36*
X125899267Y-90833301D02*
G01*
X125950946Y-90876489D01*
X126019661Y-90885120D01*
X126082291Y-90855156D01*
X126100348Y-90834318D01*
X126102238Y-90833664D01*
X126103749Y-90834974D01*
X126103821Y-90836018D01*
X126101000Y-90850199D01*
X126101000Y-92349801D01*
X126103978Y-92364774D01*
X126103335Y-92366668D01*
X126101373Y-92367058D01*
X126100733Y-92366699D01*
X126049054Y-92323511D01*
X125980339Y-92314880D01*
X125917709Y-92344844D01*
X125899652Y-92365682D01*
X125897762Y-92366336D01*
X125896251Y-92365026D01*
X125896179Y-92363982D01*
X125899000Y-92349801D01*
X125899000Y-90850199D01*
X125896022Y-90835226D01*
X125896665Y-90833332D01*
X125898627Y-90832942D01*
X125899267Y-90833301D01*
G37*
G36*
X121034267Y-88663301D02*
G01*
X121085946Y-88706489D01*
X121154661Y-88715120D01*
X121217291Y-88685156D01*
X121235348Y-88664318D01*
X121237238Y-88663664D01*
X121238749Y-88664974D01*
X121238821Y-88666018D01*
X121236000Y-88680199D01*
X121236000Y-89739801D01*
X121238978Y-89754774D01*
X121238335Y-89756668D01*
X121236373Y-89757058D01*
X121235733Y-89756699D01*
X121184054Y-89713511D01*
X121115339Y-89704880D01*
X121052709Y-89734844D01*
X121034652Y-89755682D01*
X121032762Y-89756336D01*
X121031251Y-89755026D01*
X121031179Y-89753982D01*
X121034000Y-89739801D01*
X121034000Y-88680199D01*
X121031022Y-88665226D01*
X121031665Y-88663332D01*
X121033627Y-88662942D01*
X121034267Y-88663301D01*
G37*
G36*
X121984267Y-88663301D02*
G01*
X122035946Y-88706489D01*
X122104661Y-88715120D01*
X122167291Y-88685156D01*
X122185348Y-88664318D01*
X122187238Y-88663664D01*
X122188749Y-88664974D01*
X122188821Y-88666018D01*
X122186000Y-88680199D01*
X122186000Y-89739801D01*
X122188978Y-89754774D01*
X122188335Y-89756668D01*
X122186373Y-89757058D01*
X122185733Y-89756699D01*
X122134054Y-89713511D01*
X122065339Y-89704880D01*
X122002709Y-89734844D01*
X121984652Y-89755682D01*
X121982762Y-89756336D01*
X121981251Y-89755026D01*
X121981179Y-89753982D01*
X121984000Y-89739801D01*
X121984000Y-88680199D01*
X121981022Y-88665226D01*
X121981665Y-88663332D01*
X121983627Y-88662942D01*
X121984267Y-88663301D01*
G37*
G36*
X108977587Y-82552477D02*
G01*
X108977126Y-82553891D01*
X108937803Y-82600944D01*
X108929170Y-82669660D01*
X108959133Y-82732289D01*
X108967803Y-82739800D01*
X108968457Y-82741690D01*
X108967147Y-82743202D01*
X108965382Y-82742975D01*
X108957006Y-82737379D01*
X108899801Y-82726000D01*
X107625199Y-82726000D01*
X107567994Y-82737379D01*
X107550520Y-82749055D01*
X107548524Y-82749186D01*
X107547413Y-82747523D01*
X107547874Y-82746109D01*
X107587197Y-82699056D01*
X107595830Y-82630340D01*
X107565867Y-82567711D01*
X107557197Y-82560200D01*
X107556543Y-82558310D01*
X107557853Y-82556798D01*
X107559618Y-82557025D01*
X107567994Y-82562621D01*
X107625199Y-82574000D01*
X108899801Y-82574000D01*
X108957006Y-82562621D01*
X108974480Y-82550945D01*
X108976476Y-82550814D01*
X108977587Y-82552477D01*
G37*
G36*
X103252587Y-82552477D02*
G01*
X103252126Y-82553891D01*
X103212803Y-82600944D01*
X103204170Y-82669660D01*
X103234133Y-82732289D01*
X103242803Y-82739800D01*
X103243457Y-82741690D01*
X103242147Y-82743202D01*
X103240382Y-82742975D01*
X103232006Y-82737379D01*
X103174801Y-82726000D01*
X101900199Y-82726000D01*
X101842994Y-82737379D01*
X101825520Y-82749055D01*
X101823524Y-82749186D01*
X101822413Y-82747523D01*
X101822874Y-82746109D01*
X101862197Y-82699056D01*
X101870830Y-82630340D01*
X101840867Y-82567711D01*
X101832197Y-82560200D01*
X101831543Y-82558310D01*
X101832853Y-82556798D01*
X101834618Y-82557025D01*
X101842994Y-82562621D01*
X101900199Y-82574000D01*
X103174801Y-82574000D01*
X103232006Y-82562621D01*
X103249480Y-82550945D01*
X103251476Y-82550814D01*
X103252587Y-82552477D01*
G37*
G36*
X103252587Y-81902477D02*
G01*
X103252126Y-81903891D01*
X103212803Y-81950944D01*
X103204170Y-82019660D01*
X103234133Y-82082289D01*
X103242803Y-82089800D01*
X103243457Y-82091690D01*
X103242147Y-82093202D01*
X103240382Y-82092975D01*
X103232006Y-82087379D01*
X103174801Y-82076000D01*
X101900199Y-82076000D01*
X101842994Y-82087379D01*
X101825520Y-82099055D01*
X101823524Y-82099186D01*
X101822413Y-82097523D01*
X101822874Y-82096109D01*
X101862197Y-82049056D01*
X101870830Y-81980340D01*
X101840867Y-81917711D01*
X101832197Y-81910200D01*
X101831543Y-81908310D01*
X101832853Y-81906798D01*
X101834618Y-81907025D01*
X101842994Y-81912621D01*
X101900199Y-81924000D01*
X103174801Y-81924000D01*
X103232006Y-81912621D01*
X103249480Y-81900945D01*
X103251476Y-81900814D01*
X103252587Y-81902477D01*
G37*
G36*
X108977587Y-81902477D02*
G01*
X108977126Y-81903891D01*
X108937803Y-81950944D01*
X108929170Y-82019660D01*
X108959133Y-82082289D01*
X108967803Y-82089800D01*
X108968457Y-82091690D01*
X108967147Y-82093202D01*
X108965382Y-82092975D01*
X108957006Y-82087379D01*
X108899801Y-82076000D01*
X107625199Y-82076000D01*
X107567994Y-82087379D01*
X107550520Y-82099055D01*
X107548524Y-82099186D01*
X107547413Y-82097523D01*
X107547874Y-82096109D01*
X107587197Y-82049056D01*
X107595830Y-81980340D01*
X107565867Y-81917711D01*
X107557197Y-81910200D01*
X107556543Y-81908310D01*
X107557853Y-81906798D01*
X107559618Y-81907025D01*
X107567994Y-81912621D01*
X107625199Y-81924000D01*
X108899801Y-81924000D01*
X108957006Y-81912621D01*
X108974480Y-81900945D01*
X108976476Y-81900814D01*
X108977587Y-81902477D01*
G37*
G36*
X103252587Y-81252477D02*
G01*
X103252126Y-81253891D01*
X103212803Y-81300944D01*
X103204170Y-81369660D01*
X103234133Y-81432289D01*
X103242803Y-81439800D01*
X103243457Y-81441690D01*
X103242147Y-81443202D01*
X103240382Y-81442975D01*
X103232006Y-81437379D01*
X103174801Y-81426000D01*
X101900199Y-81426000D01*
X101842994Y-81437379D01*
X101825520Y-81449055D01*
X101823524Y-81449186D01*
X101822413Y-81447523D01*
X101822874Y-81446109D01*
X101862197Y-81399056D01*
X101870830Y-81330340D01*
X101840867Y-81267711D01*
X101832197Y-81260200D01*
X101831543Y-81258310D01*
X101832853Y-81256798D01*
X101834618Y-81257025D01*
X101842994Y-81262621D01*
X101900199Y-81274000D01*
X103174801Y-81274000D01*
X103232006Y-81262621D01*
X103249480Y-81250945D01*
X103251476Y-81250814D01*
X103252587Y-81252477D01*
G37*
G36*
X108977587Y-81252477D02*
G01*
X108977126Y-81253891D01*
X108937803Y-81300944D01*
X108929170Y-81369660D01*
X108959133Y-81432289D01*
X108967803Y-81439800D01*
X108968457Y-81441690D01*
X108967147Y-81443202D01*
X108965382Y-81442975D01*
X108957006Y-81437379D01*
X108899801Y-81426000D01*
X107625199Y-81426000D01*
X107567994Y-81437379D01*
X107550520Y-81449055D01*
X107548524Y-81449186D01*
X107547413Y-81447523D01*
X107547874Y-81446109D01*
X107587197Y-81399056D01*
X107595830Y-81330340D01*
X107565867Y-81267711D01*
X107557197Y-81260200D01*
X107556543Y-81258310D01*
X107557853Y-81256798D01*
X107559618Y-81257025D01*
X107567994Y-81262621D01*
X107625199Y-81274000D01*
X108899801Y-81274000D01*
X108957006Y-81262621D01*
X108974480Y-81250945D01*
X108976476Y-81250814D01*
X108977587Y-81252477D01*
G37*
G36*
X108977587Y-80602477D02*
G01*
X108977126Y-80603891D01*
X108937803Y-80650944D01*
X108929170Y-80719660D01*
X108959133Y-80782289D01*
X108967803Y-80789800D01*
X108968457Y-80791690D01*
X108967147Y-80793202D01*
X108965382Y-80792975D01*
X108957006Y-80787379D01*
X108899801Y-80776000D01*
X107625199Y-80776000D01*
X107567994Y-80787379D01*
X107550520Y-80799055D01*
X107548524Y-80799186D01*
X107547413Y-80797523D01*
X107547874Y-80796109D01*
X107587197Y-80749056D01*
X107595830Y-80680340D01*
X107565867Y-80617711D01*
X107557197Y-80610200D01*
X107556543Y-80608310D01*
X107557853Y-80606798D01*
X107559618Y-80607025D01*
X107567994Y-80612621D01*
X107625199Y-80624000D01*
X108899801Y-80624000D01*
X108957006Y-80612621D01*
X108974480Y-80600945D01*
X108976476Y-80600814D01*
X108977587Y-80602477D01*
G37*
G36*
X103252587Y-80602477D02*
G01*
X103252126Y-80603891D01*
X103212803Y-80650944D01*
X103204170Y-80719660D01*
X103234133Y-80782289D01*
X103242803Y-80789800D01*
X103243457Y-80791690D01*
X103242147Y-80793202D01*
X103240382Y-80792975D01*
X103232006Y-80787379D01*
X103174801Y-80776000D01*
X101900199Y-80776000D01*
X101842994Y-80787379D01*
X101825520Y-80799055D01*
X101823524Y-80799186D01*
X101822413Y-80797523D01*
X101822874Y-80796109D01*
X101862197Y-80749056D01*
X101870830Y-80680340D01*
X101840867Y-80617711D01*
X101832197Y-80610200D01*
X101831543Y-80608310D01*
X101832853Y-80606798D01*
X101834618Y-80607025D01*
X101842994Y-80612621D01*
X101900199Y-80624000D01*
X103174801Y-80624000D01*
X103232006Y-80612621D01*
X103249480Y-80600945D01*
X103251476Y-80600814D01*
X103252587Y-80602477D01*
G37*
G36*
X103252587Y-79952477D02*
G01*
X103252126Y-79953891D01*
X103212803Y-80000944D01*
X103204170Y-80069660D01*
X103234133Y-80132289D01*
X103242803Y-80139800D01*
X103243457Y-80141690D01*
X103242147Y-80143202D01*
X103240382Y-80142975D01*
X103232006Y-80137379D01*
X103174801Y-80126000D01*
X101900199Y-80126000D01*
X101842994Y-80137379D01*
X101825520Y-80149055D01*
X101823524Y-80149186D01*
X101822413Y-80147523D01*
X101822874Y-80146109D01*
X101862197Y-80099056D01*
X101870830Y-80030340D01*
X101840867Y-79967711D01*
X101832197Y-79960200D01*
X101831543Y-79958310D01*
X101832853Y-79956798D01*
X101834618Y-79957025D01*
X101842994Y-79962621D01*
X101900199Y-79974000D01*
X103174801Y-79974000D01*
X103232006Y-79962621D01*
X103249480Y-79950945D01*
X103251476Y-79950814D01*
X103252587Y-79952477D01*
G37*
G36*
X108977587Y-79952477D02*
G01*
X108977126Y-79953891D01*
X108937803Y-80000944D01*
X108929170Y-80069660D01*
X108959133Y-80132289D01*
X108967803Y-80139800D01*
X108968457Y-80141690D01*
X108967147Y-80143202D01*
X108965382Y-80142975D01*
X108957006Y-80137379D01*
X108899801Y-80126000D01*
X107625199Y-80126000D01*
X107567994Y-80137379D01*
X107550520Y-80149055D01*
X107548524Y-80149186D01*
X107547413Y-80147523D01*
X107547874Y-80146109D01*
X107587197Y-80099056D01*
X107595830Y-80030340D01*
X107565867Y-79967711D01*
X107557197Y-79960200D01*
X107556543Y-79958310D01*
X107557853Y-79956798D01*
X107559618Y-79957025D01*
X107567994Y-79962621D01*
X107625199Y-79974000D01*
X108899801Y-79974000D01*
X108957006Y-79962621D01*
X108974480Y-79950945D01*
X108976476Y-79950814D01*
X108977587Y-79952477D01*
G37*
G36*
X103252587Y-79302477D02*
G01*
X103252126Y-79303891D01*
X103212803Y-79350944D01*
X103204170Y-79419660D01*
X103234133Y-79482289D01*
X103242803Y-79489800D01*
X103243457Y-79491690D01*
X103242147Y-79493202D01*
X103240382Y-79492975D01*
X103232006Y-79487379D01*
X103174801Y-79476000D01*
X101900199Y-79476000D01*
X101842994Y-79487379D01*
X101825520Y-79499055D01*
X101823524Y-79499186D01*
X101822413Y-79497523D01*
X101822874Y-79496109D01*
X101862197Y-79449056D01*
X101870830Y-79380340D01*
X101840867Y-79317711D01*
X101832197Y-79310200D01*
X101831543Y-79308310D01*
X101832853Y-79306798D01*
X101834618Y-79307025D01*
X101842994Y-79312621D01*
X101900199Y-79324000D01*
X103174801Y-79324000D01*
X103232006Y-79312621D01*
X103249480Y-79300945D01*
X103251476Y-79300814D01*
X103252587Y-79302477D01*
G37*
G36*
X108977587Y-79302477D02*
G01*
X108977126Y-79303891D01*
X108937803Y-79350944D01*
X108929170Y-79419660D01*
X108959133Y-79482289D01*
X108967803Y-79489800D01*
X108968457Y-79491690D01*
X108967147Y-79493202D01*
X108965382Y-79492975D01*
X108957006Y-79487379D01*
X108899801Y-79476000D01*
X107625199Y-79476000D01*
X107567994Y-79487379D01*
X107550520Y-79499055D01*
X107548524Y-79499186D01*
X107547413Y-79497523D01*
X107547874Y-79496109D01*
X107587197Y-79449056D01*
X107595830Y-79380340D01*
X107565867Y-79317711D01*
X107557197Y-79310200D01*
X107556543Y-79308310D01*
X107557853Y-79306798D01*
X107559618Y-79307025D01*
X107567994Y-79312621D01*
X107625199Y-79324000D01*
X108899801Y-79324000D01*
X108957006Y-79312621D01*
X108974480Y-79300945D01*
X108976476Y-79300814D01*
X108977587Y-79302477D01*
G37*
G36*
X108977587Y-78652477D02*
G01*
X108977126Y-78653891D01*
X108937803Y-78700944D01*
X108929170Y-78769660D01*
X108959133Y-78832289D01*
X108967803Y-78839800D01*
X108968457Y-78841690D01*
X108967147Y-78843202D01*
X108965382Y-78842975D01*
X108957006Y-78837379D01*
X108899801Y-78826000D01*
X107625199Y-78826000D01*
X107567994Y-78837379D01*
X107550520Y-78849055D01*
X107548524Y-78849186D01*
X107547413Y-78847523D01*
X107547874Y-78846109D01*
X107587197Y-78799056D01*
X107595830Y-78730340D01*
X107565867Y-78667711D01*
X107557197Y-78660200D01*
X107556543Y-78658310D01*
X107557853Y-78656798D01*
X107559618Y-78657025D01*
X107567994Y-78662621D01*
X107625199Y-78674000D01*
X108899801Y-78674000D01*
X108957006Y-78662621D01*
X108974480Y-78650945D01*
X108976476Y-78650814D01*
X108977587Y-78652477D01*
G37*
G36*
X103252587Y-78652477D02*
G01*
X103252126Y-78653891D01*
X103212803Y-78700944D01*
X103204170Y-78769660D01*
X103234133Y-78832289D01*
X103242803Y-78839800D01*
X103243457Y-78841690D01*
X103242147Y-78843202D01*
X103240382Y-78842975D01*
X103232006Y-78837379D01*
X103174801Y-78826000D01*
X101900199Y-78826000D01*
X101842994Y-78837379D01*
X101825520Y-78849055D01*
X101823524Y-78849186D01*
X101822413Y-78847523D01*
X101822874Y-78846109D01*
X101862197Y-78799056D01*
X101870830Y-78730340D01*
X101840867Y-78667711D01*
X101832197Y-78660200D01*
X101831543Y-78658310D01*
X101832853Y-78656798D01*
X101834618Y-78657025D01*
X101842994Y-78662621D01*
X101900199Y-78674000D01*
X103174801Y-78674000D01*
X103232006Y-78662621D01*
X103249480Y-78650945D01*
X103251476Y-78650814D01*
X103252587Y-78652477D01*
G37*
G36*
X108977587Y-78002477D02*
G01*
X108977126Y-78003891D01*
X108937803Y-78050944D01*
X108929170Y-78119660D01*
X108959133Y-78182289D01*
X108967803Y-78189800D01*
X108968457Y-78191690D01*
X108967147Y-78193202D01*
X108965382Y-78192975D01*
X108957006Y-78187379D01*
X108899801Y-78176000D01*
X107625199Y-78176000D01*
X107567994Y-78187379D01*
X107550520Y-78199055D01*
X107548524Y-78199186D01*
X107547413Y-78197523D01*
X107547874Y-78196109D01*
X107587197Y-78149056D01*
X107595830Y-78080340D01*
X107565867Y-78017711D01*
X107557197Y-78010200D01*
X107556543Y-78008310D01*
X107557853Y-78006798D01*
X107559618Y-78007025D01*
X107567994Y-78012621D01*
X107625199Y-78024000D01*
X108899801Y-78024000D01*
X108957006Y-78012621D01*
X108974480Y-78000945D01*
X108976476Y-78000814D01*
X108977587Y-78002477D01*
G37*
G36*
X103252587Y-78002477D02*
G01*
X103252126Y-78003891D01*
X103212803Y-78050944D01*
X103204170Y-78119660D01*
X103234133Y-78182289D01*
X103242803Y-78189800D01*
X103243457Y-78191690D01*
X103242147Y-78193202D01*
X103240382Y-78192975D01*
X103232006Y-78187379D01*
X103174801Y-78176000D01*
X101900199Y-78176000D01*
X101842994Y-78187379D01*
X101825520Y-78199055D01*
X101823524Y-78199186D01*
X101822413Y-78197523D01*
X101822874Y-78196109D01*
X101862197Y-78149056D01*
X101870830Y-78080340D01*
X101840867Y-78017711D01*
X101832197Y-78010200D01*
X101831543Y-78008310D01*
X101832853Y-78006798D01*
X101834618Y-78007025D01*
X101842994Y-78012621D01*
X101900199Y-78024000D01*
X103174801Y-78024000D01*
X103232006Y-78012621D01*
X103249480Y-78000945D01*
X103251476Y-78000814D01*
X103252587Y-78002477D01*
G37*
G36*
X108977587Y-77352477D02*
G01*
X108977126Y-77353891D01*
X108937803Y-77400944D01*
X108929170Y-77469660D01*
X108959133Y-77532289D01*
X108967803Y-77539800D01*
X108968457Y-77541690D01*
X108967147Y-77543202D01*
X108965382Y-77542975D01*
X108957006Y-77537379D01*
X108899801Y-77526000D01*
X107625199Y-77526000D01*
X107567994Y-77537379D01*
X107550520Y-77549055D01*
X107548524Y-77549186D01*
X107547413Y-77547523D01*
X107547874Y-77546109D01*
X107587197Y-77499056D01*
X107595830Y-77430340D01*
X107565867Y-77367711D01*
X107557197Y-77360200D01*
X107556543Y-77358310D01*
X107557853Y-77356798D01*
X107559618Y-77357025D01*
X107567994Y-77362621D01*
X107625199Y-77374000D01*
X108899801Y-77374000D01*
X108957006Y-77362621D01*
X108974480Y-77350945D01*
X108976476Y-77350814D01*
X108977587Y-77352477D01*
G37*
G36*
X103252587Y-77352477D02*
G01*
X103252126Y-77353891D01*
X103212803Y-77400944D01*
X103204170Y-77469660D01*
X103234133Y-77532289D01*
X103242803Y-77539800D01*
X103243457Y-77541690D01*
X103242147Y-77543202D01*
X103240382Y-77542975D01*
X103232006Y-77537379D01*
X103174801Y-77526000D01*
X101900199Y-77526000D01*
X101842994Y-77537379D01*
X101825520Y-77549055D01*
X101823524Y-77549186D01*
X101822413Y-77547523D01*
X101822874Y-77546109D01*
X101862197Y-77499056D01*
X101870830Y-77430340D01*
X101840867Y-77367711D01*
X101832197Y-77360200D01*
X101831543Y-77358310D01*
X101832853Y-77356798D01*
X101834618Y-77357025D01*
X101842994Y-77362621D01*
X101900199Y-77374000D01*
X103174801Y-77374000D01*
X103232006Y-77362621D01*
X103249480Y-77350945D01*
X103251476Y-77350814D01*
X103252587Y-77352477D01*
G37*
G36*
X108977587Y-76702477D02*
G01*
X108977126Y-76703891D01*
X108937803Y-76750944D01*
X108929170Y-76819660D01*
X108959133Y-76882289D01*
X108967803Y-76889800D01*
X108968457Y-76891690D01*
X108967147Y-76893202D01*
X108965382Y-76892975D01*
X108957006Y-76887379D01*
X108899801Y-76876000D01*
X107625199Y-76876000D01*
X107567994Y-76887379D01*
X107550520Y-76899055D01*
X107548524Y-76899186D01*
X107547413Y-76897523D01*
X107547874Y-76896109D01*
X107587197Y-76849056D01*
X107595830Y-76780340D01*
X107565867Y-76717711D01*
X107557197Y-76710200D01*
X107556543Y-76708310D01*
X107557853Y-76706798D01*
X107559618Y-76707025D01*
X107567994Y-76712621D01*
X107625199Y-76724000D01*
X108899801Y-76724000D01*
X108957006Y-76712621D01*
X108974480Y-76700945D01*
X108976476Y-76700814D01*
X108977587Y-76702477D01*
G37*
G36*
X103252587Y-76702477D02*
G01*
X103252126Y-76703891D01*
X103212803Y-76750944D01*
X103204170Y-76819660D01*
X103234133Y-76882289D01*
X103242803Y-76889800D01*
X103243457Y-76891690D01*
X103242147Y-76893202D01*
X103240382Y-76892975D01*
X103232006Y-76887379D01*
X103174801Y-76876000D01*
X101900199Y-76876000D01*
X101842994Y-76887379D01*
X101825520Y-76899055D01*
X101823524Y-76899186D01*
X101822413Y-76897523D01*
X101822874Y-76896109D01*
X101862197Y-76849056D01*
X101870830Y-76780340D01*
X101840867Y-76717711D01*
X101832197Y-76710200D01*
X101831543Y-76708310D01*
X101832853Y-76706798D01*
X101834618Y-76707025D01*
X101842994Y-76712621D01*
X101900199Y-76724000D01*
X103174801Y-76724000D01*
X103232006Y-76712621D01*
X103249480Y-76700945D01*
X103251476Y-76700814D01*
X103252587Y-76702477D01*
G37*
G36*
X103252587Y-76052477D02*
G01*
X103252126Y-76053891D01*
X103212803Y-76100944D01*
X103204170Y-76169660D01*
X103234133Y-76232289D01*
X103242803Y-76239800D01*
X103243457Y-76241690D01*
X103242147Y-76243202D01*
X103240382Y-76242975D01*
X103232006Y-76237379D01*
X103174801Y-76226000D01*
X101900199Y-76226000D01*
X101842994Y-76237379D01*
X101825520Y-76249055D01*
X101823524Y-76249186D01*
X101822413Y-76247523D01*
X101822874Y-76246109D01*
X101862197Y-76199056D01*
X101870830Y-76130340D01*
X101840867Y-76067711D01*
X101832197Y-76060200D01*
X101831543Y-76058310D01*
X101832853Y-76056798D01*
X101834618Y-76057025D01*
X101842994Y-76062621D01*
X101900199Y-76074000D01*
X103174801Y-76074000D01*
X103232006Y-76062621D01*
X103249480Y-76050945D01*
X103251476Y-76050814D01*
X103252587Y-76052477D01*
G37*
G36*
X108977587Y-76052477D02*
G01*
X108977126Y-76053891D01*
X108937803Y-76100944D01*
X108929170Y-76169660D01*
X108959133Y-76232289D01*
X108967803Y-76239800D01*
X108968457Y-76241690D01*
X108967147Y-76243202D01*
X108965382Y-76242975D01*
X108957006Y-76237379D01*
X108899801Y-76226000D01*
X107625199Y-76226000D01*
X107567994Y-76237379D01*
X107550520Y-76249055D01*
X107548524Y-76249186D01*
X107547413Y-76247523D01*
X107547874Y-76246109D01*
X107587197Y-76199056D01*
X107595830Y-76130340D01*
X107565867Y-76067711D01*
X107557197Y-76060200D01*
X107556543Y-76058310D01*
X107557853Y-76056798D01*
X107559618Y-76057025D01*
X107567994Y-76062621D01*
X107625199Y-76074000D01*
X108899801Y-76074000D01*
X108957006Y-76062621D01*
X108974480Y-76050945D01*
X108976476Y-76050814D01*
X108977587Y-76052477D01*
G37*
M02*
