%TF.GenerationSoftware,KiCad,Pcbnew,(6.0.4-0)*%
%TF.CreationDate,2022-09-10T09:10:34-06:00*%
%TF.ProjectId,TPS61165-heater-v7,54505336-3131-4363-952d-686561746572,rev?*%
%TF.SameCoordinates,Original*%
%TF.FileFunction,Copper,L2,Bot*%
%TF.FilePolarity,Positive*%
%FSLAX46Y46*%
G04 Gerber Fmt 4.6, Leading zero omitted, Abs format (unit mm)*
G04 Created by KiCad (PCBNEW (6.0.4-0)) date 2022-09-10 09:10:34*
%MOMM*%
%LPD*%
G01*
G04 APERTURE LIST*
G04 Aperture macros list*
%AMRoundRect*
0 Rectangle with rounded corners*
0 $1 Rounding radius*
0 $2 $3 $4 $5 $6 $7 $8 $9 X,Y pos of 4 corners*
0 Add a 4 corners polygon primitive as box body*
4,1,4,$2,$3,$4,$5,$6,$7,$8,$9,$2,$3,0*
0 Add four circle primitives for the rounded corners*
1,1,$1+$1,$2,$3*
1,1,$1+$1,$4,$5*
1,1,$1+$1,$6,$7*
1,1,$1+$1,$8,$9*
0 Add four rect primitives between the rounded corners*
20,1,$1+$1,$2,$3,$4,$5,0*
20,1,$1+$1,$4,$5,$6,$7,0*
20,1,$1+$1,$6,$7,$8,$9,0*
20,1,$1+$1,$8,$9,$2,$3,0*%
G04 Aperture macros list end*
%TA.AperFunction,ComponentPad*%
%ADD10RoundRect,0.250000X-0.625000X0.350000X-0.625000X-0.350000X0.625000X-0.350000X0.625000X0.350000X0*%
%TD*%
%TA.AperFunction,ComponentPad*%
%ADD11O,1.750000X1.200000*%
%TD*%
%TA.AperFunction,ConnectorPad*%
%ADD12C,6.400000*%
%TD*%
%TA.AperFunction,ComponentPad*%
%ADD13C,3.600000*%
%TD*%
%TA.AperFunction,ComponentPad*%
%ADD14R,1.700000X1.700000*%
%TD*%
%TA.AperFunction,ComponentPad*%
%ADD15O,1.700000X1.700000*%
%TD*%
%TA.AperFunction,ComponentPad*%
%ADD16RoundRect,0.250000X0.625000X-0.350000X0.625000X0.350000X-0.625000X0.350000X-0.625000X-0.350000X0*%
%TD*%
%TA.AperFunction,ComponentPad*%
%ADD17O,1.700000X1.000000*%
%TD*%
%TA.AperFunction,ViaPad*%
%ADD18C,0.800000*%
%TD*%
%TA.AperFunction,Conductor*%
%ADD19C,0.250000*%
%TD*%
%TA.AperFunction,Conductor*%
%ADD20C,1.000000*%
%TD*%
%TA.AperFunction,Conductor*%
%ADD21C,0.800000*%
%TD*%
G04 APERTURE END LIST*
D10*
%TO.P,J3,1,+*%
%TO.N,Net-(FL1-Pad2)*%
X121800000Y-65200000D03*
D11*
%TO.P,J3,2,-*%
%TO.N,Net-(FL1-Pad1)*%
X121800000Y-67200000D03*
%TD*%
D10*
%TO.P,J2,1,+*%
%TO.N,Net-(FL1-Pad2)*%
X121800000Y-73400000D03*
D11*
%TO.P,J2,2,-*%
%TO.N,Net-(FL1-Pad1)*%
X121800000Y-75400000D03*
%TD*%
D12*
%TO.P,H4,1*%
%TO.N,N/C*%
X119000000Y-94000000D03*
D13*
X119000000Y-94000000D03*
%TD*%
D12*
%TO.P,H3,1*%
%TO.N,N/C*%
X156000000Y-94000000D03*
D13*
X156000000Y-94000000D03*
%TD*%
D12*
%TO.P,H2,1*%
%TO.N,N/C*%
X156000000Y-51000000D03*
D13*
X156000000Y-51000000D03*
%TD*%
D12*
%TO.P,H1,1*%
%TO.N,N/C*%
X119000000Y-51000000D03*
D13*
X119000000Y-51000000D03*
%TD*%
D14*
%TO.P,J4,1,Pin_1*%
%TO.N,Net-(J4-Pad1)*%
X147400000Y-57200000D03*
D15*
%TO.P,J4,2,Pin_2*%
%TO.N,Net-(J4-Pad2)*%
X144860000Y-57200000D03*
%TO.P,J4,3,Pin_3*%
%TO.N,GND*%
X142320000Y-57200000D03*
%TD*%
D16*
%TO.P,J5,1,+*%
%TO.N,Net-(J5-Pad1)*%
X153150000Y-66200000D03*
D11*
%TO.P,J5,2,-*%
%TO.N,Net-(D3-Pad2)*%
X153150000Y-64200000D03*
%TD*%
D17*
%TO.P,J1,0,SHIELD*%
%TO.N,unconnected-(J1-Pad0)*%
X122320000Y-88120000D03*
X122320000Y-79480000D03*
X118520000Y-79480000D03*
X118520000Y-88120000D03*
%TD*%
D18*
%TO.N,Net-(C4-Pad1)*%
X134700000Y-60200000D03*
X134700000Y-53600000D03*
X126200000Y-53600000D03*
%TO.N,GND*%
X133700000Y-52800000D03*
%TO.N,/sda*%
X130900000Y-59600000D03*
%TO.N,/scl*%
X133700000Y-58600000D03*
X130900000Y-58600000D03*
%TO.N,/sda*%
X133700000Y-59600000D03*
%TO.N,Net-(J4-Pad1)*%
X135500000Y-77800000D03*
%TO.N,GND*%
X147900000Y-83800000D03*
X152700000Y-83600000D03*
X147900000Y-87300000D03*
X147900000Y-83000000D03*
X149500000Y-88800000D03*
X147900000Y-82200000D03*
X147900000Y-84600000D03*
X141700000Y-79300000D03*
X138300000Y-67025000D03*
X138400000Y-79300000D03*
X141700000Y-78000000D03*
X138350000Y-80650000D03*
X138000000Y-71400000D03*
X141700000Y-71500000D03*
%TO.N,Net-(FL1-Pad2)*%
X124200000Y-82300000D03*
X124180000Y-85320000D03*
%TO.N,Net-(C4-Pad1)*%
X147700000Y-77600000D03*
X139900000Y-72800000D03*
X138300000Y-75500000D03*
%TD*%
D19*
%TO.N,Net-(C4-Pad1)*%
X134700000Y-60200000D02*
X134700000Y-53600000D01*
X134700000Y-53600000D02*
X126200000Y-53600000D01*
%TO.N,/sda*%
X130900000Y-59600000D02*
X133700000Y-59600000D01*
%TO.N,/scl*%
X130900000Y-58600000D02*
X133700000Y-58600000D01*
D20*
%TO.N,Net-(FL1-Pad2)*%
X124600000Y-73400000D02*
X124800000Y-73600000D01*
X124800000Y-73600000D02*
X124800000Y-81700000D01*
X121800000Y-73400000D02*
X124600000Y-73400000D01*
X124800000Y-81700000D02*
X124200000Y-82300000D01*
X119500000Y-65300000D02*
X119500000Y-73500000D01*
X119500000Y-73500000D02*
X121700000Y-73500000D01*
X119600000Y-65200000D02*
X119500000Y-65300000D01*
X121800000Y-65200000D02*
X119600000Y-65200000D01*
D19*
%TO.N,Net-(J4-Pad1)*%
X135500000Y-72875386D02*
X147400000Y-60975386D01*
X135500000Y-77800000D02*
X135500000Y-72875386D01*
X147400000Y-60975386D02*
X147400000Y-57200000D01*
D21*
%TO.N,Net-(FL1-Pad2)*%
X124200000Y-82300000D02*
X124200000Y-85300000D01*
X124200000Y-85300000D02*
X124180000Y-85320000D01*
D19*
%TO.N,unconnected-(J1-Pad0)*%
X122325000Y-88120000D02*
X118525000Y-88120000D01*
X122325000Y-79480000D02*
X118525000Y-79480000D01*
X118525000Y-88120000D02*
X118525000Y-79480000D01*
%TO.N,Net-(C4-Pad1)*%
X142626998Y-75500000D02*
X138300000Y-75500000D01*
X144726998Y-77600000D02*
X142626998Y-75500000D01*
X147700000Y-77600000D02*
X144726998Y-77600000D01*
X138300000Y-75500000D02*
X138300000Y-74400000D01*
X138300000Y-74400000D02*
X139900000Y-72800000D01*
%TD*%
%TA.AperFunction,Conductor*%
%TO.N,GND*%
G36*
X154227076Y-47528502D02*
G01*
X154273569Y-47582158D01*
X154283673Y-47652432D01*
X154254179Y-47717012D01*
X154216158Y-47746767D01*
X154146147Y-47782439D01*
X154146140Y-47782443D01*
X154143206Y-47783938D01*
X153817207Y-47995643D01*
X153515124Y-48240266D01*
X153240266Y-48515124D01*
X152995643Y-48817207D01*
X152783938Y-49143206D01*
X152782443Y-49146140D01*
X152782439Y-49146147D01*
X152712366Y-49283673D01*
X152607468Y-49489547D01*
X152468167Y-49852438D01*
X152367562Y-50227901D01*
X152306754Y-50611824D01*
X152286411Y-51000000D01*
X152306754Y-51388176D01*
X152367562Y-51772099D01*
X152468167Y-52147562D01*
X152607468Y-52510453D01*
X152608966Y-52513393D01*
X152759526Y-52808882D01*
X152783938Y-52856794D01*
X152785734Y-52859560D01*
X152785736Y-52859563D01*
X152993848Y-53180029D01*
X152995643Y-53182793D01*
X152997718Y-53185355D01*
X153179691Y-53410072D01*
X153240266Y-53484876D01*
X153515124Y-53759734D01*
X153517682Y-53761806D01*
X153517686Y-53761809D01*
X153552410Y-53789928D01*
X153817207Y-54004357D01*
X153819970Y-54006152D01*
X153819971Y-54006152D01*
X154108763Y-54193695D01*
X154143205Y-54216062D01*
X154146139Y-54217557D01*
X154146146Y-54217561D01*
X154312896Y-54302524D01*
X154489547Y-54392532D01*
X154852438Y-54531833D01*
X155227901Y-54632438D01*
X155431793Y-54664732D01*
X155608576Y-54692732D01*
X155608584Y-54692733D01*
X155611824Y-54693246D01*
X156000000Y-54713589D01*
X156388176Y-54693246D01*
X156391416Y-54692733D01*
X156391424Y-54692732D01*
X156568207Y-54664732D01*
X156772099Y-54632438D01*
X157147562Y-54531833D01*
X157510453Y-54392532D01*
X157687104Y-54302524D01*
X157853854Y-54217561D01*
X157853861Y-54217557D01*
X157856795Y-54216062D01*
X157891238Y-54193695D01*
X158180029Y-54006152D01*
X158180030Y-54006152D01*
X158182793Y-54004357D01*
X158447590Y-53789928D01*
X158482314Y-53761809D01*
X158482318Y-53761806D01*
X158484876Y-53759734D01*
X158759734Y-53484876D01*
X158820310Y-53410072D01*
X159002282Y-53185355D01*
X159004357Y-53182793D01*
X159006152Y-53180029D01*
X159214264Y-52859563D01*
X159214266Y-52859560D01*
X159216062Y-52856794D01*
X159240475Y-52808882D01*
X159253233Y-52783842D01*
X159301981Y-52732227D01*
X159370896Y-52715161D01*
X159438098Y-52738062D01*
X159482250Y-52793659D01*
X159491500Y-52841045D01*
X159491500Y-92158955D01*
X159471498Y-92227076D01*
X159417842Y-92273569D01*
X159347568Y-92283673D01*
X159282988Y-92254179D01*
X159253233Y-92216158D01*
X159217561Y-92146147D01*
X159217557Y-92146140D01*
X159216062Y-92143206D01*
X159004357Y-91817207D01*
X158759734Y-91515124D01*
X158484876Y-91240266D01*
X158182793Y-90995643D01*
X157856795Y-90783938D01*
X157853861Y-90782443D01*
X157853854Y-90782439D01*
X157513393Y-90608966D01*
X157510453Y-90607468D01*
X157147562Y-90468167D01*
X156772099Y-90367562D01*
X156568207Y-90335268D01*
X156391424Y-90307268D01*
X156391416Y-90307267D01*
X156388176Y-90306754D01*
X156000000Y-90286411D01*
X155611824Y-90306754D01*
X155608584Y-90307267D01*
X155608576Y-90307268D01*
X155431793Y-90335268D01*
X155227901Y-90367562D01*
X154852438Y-90468167D01*
X154489547Y-90607468D01*
X154486607Y-90608966D01*
X154146147Y-90782439D01*
X154146140Y-90782443D01*
X154143206Y-90783938D01*
X153817207Y-90995643D01*
X153515124Y-91240266D01*
X153240266Y-91515124D01*
X152995643Y-91817207D01*
X152783938Y-92143206D01*
X152782443Y-92146140D01*
X152782439Y-92146147D01*
X152712366Y-92283673D01*
X152607468Y-92489547D01*
X152468167Y-92852438D01*
X152367562Y-93227901D01*
X152306754Y-93611824D01*
X152286411Y-94000000D01*
X152306754Y-94388176D01*
X152367562Y-94772099D01*
X152468167Y-95147562D01*
X152607468Y-95510453D01*
X152608966Y-95513393D01*
X152720468Y-95732227D01*
X152783938Y-95856794D01*
X152995643Y-96182793D01*
X153240266Y-96484876D01*
X153515124Y-96759734D01*
X153817207Y-97004357D01*
X154143205Y-97216062D01*
X154146139Y-97217557D01*
X154146146Y-97217561D01*
X154216157Y-97253233D01*
X154267772Y-97301981D01*
X154284838Y-97370896D01*
X154261937Y-97438098D01*
X154206340Y-97482250D01*
X154158954Y-97491500D01*
X129905712Y-97491500D01*
X129837591Y-97471498D01*
X129791098Y-97417842D01*
X129779712Y-97365470D01*
X129779717Y-97347568D01*
X129784410Y-77800000D01*
X134586496Y-77800000D01*
X134587186Y-77806565D01*
X134605129Y-77977279D01*
X134606458Y-77989928D01*
X134665473Y-78171556D01*
X134760960Y-78336944D01*
X134765378Y-78341851D01*
X134765379Y-78341852D01*
X134879678Y-78468794D01*
X134888747Y-78478866D01*
X135043248Y-78591118D01*
X135049276Y-78593802D01*
X135049278Y-78593803D01*
X135211681Y-78666109D01*
X135217712Y-78668794D01*
X135311112Y-78688647D01*
X135398056Y-78707128D01*
X135398061Y-78707128D01*
X135404513Y-78708500D01*
X135595487Y-78708500D01*
X135601939Y-78707128D01*
X135601944Y-78707128D01*
X135688888Y-78688647D01*
X135782288Y-78668794D01*
X135788319Y-78666109D01*
X135950722Y-78593803D01*
X135950724Y-78593802D01*
X135956752Y-78591118D01*
X136111253Y-78478866D01*
X136120322Y-78468794D01*
X136234621Y-78341852D01*
X136234622Y-78341851D01*
X136239040Y-78336944D01*
X136334527Y-78171556D01*
X136393542Y-77989928D01*
X136394872Y-77977279D01*
X136412814Y-77806565D01*
X136413504Y-77800000D01*
X136393542Y-77610072D01*
X136334527Y-77428444D01*
X136239040Y-77263056D01*
X136165863Y-77181785D01*
X136135147Y-77117779D01*
X136133500Y-77097476D01*
X136133500Y-75500000D01*
X137386496Y-75500000D01*
X137406458Y-75689928D01*
X137465473Y-75871556D01*
X137560960Y-76036944D01*
X137688747Y-76178866D01*
X137843248Y-76291118D01*
X137849276Y-76293802D01*
X137849278Y-76293803D01*
X138011681Y-76366109D01*
X138017712Y-76368794D01*
X138111113Y-76388647D01*
X138198056Y-76407128D01*
X138198061Y-76407128D01*
X138204513Y-76408500D01*
X138395487Y-76408500D01*
X138401939Y-76407128D01*
X138401944Y-76407128D01*
X138488887Y-76388647D01*
X138582288Y-76368794D01*
X138588319Y-76366109D01*
X138750722Y-76293803D01*
X138750724Y-76293802D01*
X138756752Y-76291118D01*
X138911253Y-76178866D01*
X138915668Y-76173963D01*
X138920580Y-76169540D01*
X138921705Y-76170789D01*
X138975014Y-76137949D01*
X139008200Y-76133500D01*
X142312404Y-76133500D01*
X142380525Y-76153502D01*
X142401499Y-76170405D01*
X144223341Y-77992247D01*
X144230885Y-78000537D01*
X144234998Y-78007018D01*
X144240775Y-78012443D01*
X144284665Y-78053658D01*
X144287507Y-78056413D01*
X144307228Y-78076134D01*
X144310423Y-78078612D01*
X144319445Y-78086318D01*
X144351677Y-78116586D01*
X144358626Y-78120406D01*
X144369430Y-78126346D01*
X144385954Y-78137199D01*
X144401957Y-78149613D01*
X144442541Y-78167176D01*
X144453171Y-78172383D01*
X144491938Y-78193695D01*
X144499615Y-78195666D01*
X144499620Y-78195668D01*
X144511556Y-78198732D01*
X144530264Y-78205137D01*
X144548853Y-78213181D01*
X144556678Y-78214420D01*
X144556680Y-78214421D01*
X144592517Y-78220097D01*
X144604138Y-78222504D01*
X144639287Y-78231528D01*
X144646968Y-78233500D01*
X144667229Y-78233500D01*
X144686938Y-78235051D01*
X144706941Y-78238219D01*
X144714833Y-78237473D01*
X144720060Y-78236979D01*
X144750952Y-78234059D01*
X144762809Y-78233500D01*
X146991800Y-78233500D01*
X147059921Y-78253502D01*
X147079147Y-78269843D01*
X147079420Y-78269540D01*
X147084332Y-78273963D01*
X147088747Y-78278866D01*
X147243248Y-78391118D01*
X147249276Y-78393802D01*
X147249278Y-78393803D01*
X147411681Y-78466109D01*
X147417712Y-78468794D01*
X147483365Y-78482749D01*
X147598056Y-78507128D01*
X147598061Y-78507128D01*
X147604513Y-78508500D01*
X147795487Y-78508500D01*
X147801939Y-78507128D01*
X147801944Y-78507128D01*
X147916635Y-78482749D01*
X147982288Y-78468794D01*
X147988319Y-78466109D01*
X148150722Y-78393803D01*
X148150724Y-78393802D01*
X148156752Y-78391118D01*
X148311253Y-78278866D01*
X148347852Y-78238219D01*
X148434621Y-78141852D01*
X148434622Y-78141851D01*
X148439040Y-78136944D01*
X148514053Y-78007018D01*
X148531223Y-77977279D01*
X148531224Y-77977278D01*
X148534527Y-77971556D01*
X148593542Y-77789928D01*
X148613504Y-77600000D01*
X148595473Y-77428444D01*
X148594232Y-77416635D01*
X148594232Y-77416633D01*
X148593542Y-77410072D01*
X148534527Y-77228444D01*
X148439040Y-77063056D01*
X148311253Y-76921134D01*
X148156752Y-76808882D01*
X148150724Y-76806198D01*
X148150722Y-76806197D01*
X147988319Y-76733891D01*
X147988318Y-76733891D01*
X147982288Y-76731206D01*
X147888887Y-76711353D01*
X147801944Y-76692872D01*
X147801939Y-76692872D01*
X147795487Y-76691500D01*
X147604513Y-76691500D01*
X147598061Y-76692872D01*
X147598056Y-76692872D01*
X147511113Y-76711353D01*
X147417712Y-76731206D01*
X147411682Y-76733891D01*
X147411681Y-76733891D01*
X147249278Y-76806197D01*
X147249276Y-76806198D01*
X147243248Y-76808882D01*
X147088747Y-76921134D01*
X147084332Y-76926037D01*
X147079420Y-76930460D01*
X147078295Y-76929211D01*
X147024986Y-76962051D01*
X146991800Y-76966500D01*
X145041593Y-76966500D01*
X144973472Y-76946498D01*
X144952498Y-76929595D01*
X143130650Y-75107747D01*
X143123110Y-75099461D01*
X143118998Y-75092982D01*
X143069346Y-75046356D01*
X143066505Y-75043602D01*
X143046768Y-75023865D01*
X143043571Y-75021385D01*
X143034549Y-75013680D01*
X143008098Y-74988841D01*
X143002319Y-74983414D01*
X142995373Y-74979595D01*
X142995370Y-74979593D01*
X142984564Y-74973652D01*
X142968045Y-74962801D01*
X142967581Y-74962441D01*
X142952039Y-74950386D01*
X142944770Y-74947241D01*
X142944766Y-74947238D01*
X142911461Y-74932826D01*
X142900811Y-74927609D01*
X142862058Y-74906305D01*
X142842435Y-74901267D01*
X142823732Y-74894863D01*
X142812418Y-74889967D01*
X142812417Y-74889967D01*
X142805143Y-74886819D01*
X142797320Y-74885580D01*
X142797310Y-74885577D01*
X142761474Y-74879901D01*
X142749854Y-74877495D01*
X142714709Y-74868472D01*
X142714708Y-74868472D01*
X142707028Y-74866500D01*
X142686774Y-74866500D01*
X142667063Y-74864949D01*
X142654884Y-74863020D01*
X142647055Y-74861780D01*
X142639163Y-74862526D01*
X142603037Y-74865941D01*
X142591179Y-74866500D01*
X139059500Y-74866500D01*
X138991379Y-74846498D01*
X138944886Y-74792842D01*
X138933500Y-74740500D01*
X138933500Y-74714594D01*
X138953502Y-74646473D01*
X138970405Y-74625499D01*
X139850499Y-73745405D01*
X139912811Y-73711379D01*
X139939594Y-73708500D01*
X139995487Y-73708500D01*
X140001939Y-73707128D01*
X140001944Y-73707128D01*
X140088888Y-73688647D01*
X140182288Y-73668794D01*
X140188319Y-73666109D01*
X140350722Y-73593803D01*
X140350724Y-73593802D01*
X140356752Y-73591118D01*
X140511253Y-73478866D01*
X140639040Y-73336944D01*
X140734527Y-73171556D01*
X140793542Y-72989928D01*
X140813504Y-72800000D01*
X140807910Y-72746775D01*
X140794232Y-72616635D01*
X140794232Y-72616633D01*
X140793542Y-72610072D01*
X140734527Y-72428444D01*
X140639040Y-72263056D01*
X140511253Y-72121134D01*
X140356752Y-72008882D01*
X140350724Y-72006198D01*
X140350722Y-72006197D01*
X140188319Y-71933891D01*
X140188318Y-71933891D01*
X140182288Y-71931206D01*
X140088887Y-71911353D01*
X140001944Y-71892872D01*
X140001939Y-71892872D01*
X139995487Y-71891500D01*
X139804513Y-71891500D01*
X139798061Y-71892872D01*
X139798056Y-71892872D01*
X139711113Y-71911353D01*
X139617712Y-71931206D01*
X139611682Y-71933891D01*
X139611681Y-71933891D01*
X139449278Y-72006197D01*
X139449276Y-72006198D01*
X139443248Y-72008882D01*
X139288747Y-72121134D01*
X139160960Y-72263056D01*
X139065473Y-72428444D01*
X139006458Y-72610072D01*
X139005768Y-72616633D01*
X139005768Y-72616635D01*
X138989093Y-72775293D01*
X138962080Y-72840950D01*
X138952878Y-72851218D01*
X137907747Y-73896348D01*
X137899461Y-73903888D01*
X137892982Y-73908000D01*
X137887557Y-73913777D01*
X137846357Y-73957651D01*
X137843602Y-73960493D01*
X137823865Y-73980230D01*
X137821385Y-73983427D01*
X137813682Y-73992447D01*
X137783414Y-74024679D01*
X137779595Y-74031625D01*
X137779593Y-74031628D01*
X137773652Y-74042434D01*
X137762801Y-74058953D01*
X137750386Y-74074959D01*
X137747241Y-74082228D01*
X137747238Y-74082232D01*
X137732826Y-74115537D01*
X137727609Y-74126187D01*
X137706305Y-74164940D01*
X137704334Y-74172615D01*
X137704334Y-74172616D01*
X137701267Y-74184562D01*
X137694863Y-74203266D01*
X137686819Y-74221855D01*
X137685580Y-74229678D01*
X137685577Y-74229688D01*
X137679901Y-74265524D01*
X137677495Y-74277144D01*
X137666500Y-74319970D01*
X137666500Y-74340224D01*
X137664949Y-74359934D01*
X137661780Y-74379943D01*
X137662526Y-74387835D01*
X137665941Y-74423961D01*
X137666500Y-74435819D01*
X137666500Y-74797476D01*
X137646498Y-74865597D01*
X137634142Y-74881779D01*
X137560960Y-74963056D01*
X137465473Y-75128444D01*
X137406458Y-75310072D01*
X137386496Y-75500000D01*
X136133500Y-75500000D01*
X136133500Y-73189980D01*
X136153502Y-73121859D01*
X136170405Y-73100885D01*
X145125686Y-64145604D01*
X151762787Y-64145604D01*
X151772567Y-64356899D01*
X151822125Y-64562534D01*
X151824607Y-64567992D01*
X151824608Y-64567996D01*
X151868053Y-64663546D01*
X151909674Y-64755087D01*
X152032054Y-64927611D01*
X152036381Y-64931753D01*
X152036386Y-64931759D01*
X152127317Y-65018806D01*
X152162694Y-65080361D01*
X152159175Y-65151270D01*
X152117879Y-65209021D01*
X152106496Y-65216965D01*
X152050652Y-65251522D01*
X151925695Y-65376697D01*
X151832885Y-65527262D01*
X151777203Y-65695139D01*
X151766500Y-65799600D01*
X151766500Y-66600400D01*
X151777474Y-66706166D01*
X151833450Y-66873946D01*
X151926522Y-67024348D01*
X152051697Y-67149305D01*
X152057927Y-67153145D01*
X152057928Y-67153146D01*
X152195090Y-67237694D01*
X152202262Y-67242115D01*
X152282005Y-67268564D01*
X152363611Y-67295632D01*
X152363613Y-67295632D01*
X152370139Y-67297797D01*
X152376975Y-67298497D01*
X152376978Y-67298498D01*
X152420031Y-67302909D01*
X152474600Y-67308500D01*
X153825400Y-67308500D01*
X153828646Y-67308163D01*
X153828650Y-67308163D01*
X153924308Y-67298238D01*
X153924312Y-67298237D01*
X153931166Y-67297526D01*
X153937702Y-67295345D01*
X153937704Y-67295345D01*
X154069806Y-67251272D01*
X154098946Y-67241550D01*
X154249348Y-67148478D01*
X154374305Y-67023303D01*
X154467115Y-66872738D01*
X154522797Y-66704861D01*
X154533500Y-66600400D01*
X154533500Y-65799600D01*
X154522526Y-65693834D01*
X154466550Y-65526054D01*
X154373478Y-65375652D01*
X154248303Y-65250695D01*
X154196764Y-65218925D01*
X154149271Y-65166154D01*
X154137847Y-65096082D01*
X154166121Y-65030958D01*
X154185045Y-65012582D01*
X154192920Y-65006396D01*
X154196852Y-65001865D01*
X154196855Y-65001862D01*
X154327621Y-64851167D01*
X154331552Y-64846637D01*
X154334552Y-64841451D01*
X154334555Y-64841447D01*
X154434467Y-64668742D01*
X154437473Y-64663546D01*
X154506861Y-64463729D01*
X154537213Y-64254396D01*
X154527433Y-64043101D01*
X154477875Y-63837466D01*
X154434525Y-63742122D01*
X154392806Y-63650368D01*
X154390326Y-63644913D01*
X154267946Y-63472389D01*
X154115150Y-63326119D01*
X153937452Y-63211380D01*
X153877354Y-63187160D01*
X153746832Y-63134558D01*
X153746829Y-63134557D01*
X153741263Y-63132314D01*
X153533663Y-63091772D01*
X153528101Y-63091500D01*
X152822154Y-63091500D01*
X152664434Y-63106548D01*
X152461466Y-63166092D01*
X152456139Y-63168836D01*
X152456138Y-63168836D01*
X152278751Y-63260196D01*
X152278748Y-63260198D01*
X152273420Y-63262942D01*
X152107080Y-63393604D01*
X152103148Y-63398135D01*
X152103145Y-63398138D01*
X152034474Y-63477275D01*
X151968448Y-63553363D01*
X151965448Y-63558549D01*
X151965445Y-63558553D01*
X151918312Y-63640026D01*
X151862527Y-63736454D01*
X151793139Y-63936271D01*
X151762787Y-64145604D01*
X145125686Y-64145604D01*
X147792247Y-61479043D01*
X147800537Y-61471499D01*
X147807018Y-61467386D01*
X147853659Y-61417718D01*
X147856413Y-61414877D01*
X147876134Y-61395156D01*
X147878612Y-61391961D01*
X147886318Y-61382939D01*
X147911158Y-61356487D01*
X147916586Y-61350707D01*
X147926346Y-61332954D01*
X147937199Y-61316431D01*
X147944753Y-61306692D01*
X147949613Y-61300427D01*
X147967176Y-61259843D01*
X147972383Y-61249213D01*
X147993695Y-61210446D01*
X147995666Y-61202769D01*
X147995668Y-61202764D01*
X147998732Y-61190828D01*
X148005138Y-61172116D01*
X148010034Y-61160803D01*
X148013181Y-61153531D01*
X148020097Y-61109867D01*
X148022504Y-61098246D01*
X148031528Y-61063097D01*
X148031528Y-61063096D01*
X148033500Y-61055416D01*
X148033500Y-61035155D01*
X148035051Y-61015444D01*
X148036979Y-61003271D01*
X148038219Y-60995443D01*
X148034059Y-60951432D01*
X148033500Y-60939575D01*
X148033500Y-58684500D01*
X148053502Y-58616379D01*
X148107158Y-58569886D01*
X148159500Y-58558500D01*
X148298134Y-58558500D01*
X148360316Y-58551745D01*
X148496705Y-58500615D01*
X148613261Y-58413261D01*
X148700615Y-58296705D01*
X148751745Y-58160316D01*
X148758500Y-58098134D01*
X148758500Y-56301866D01*
X148751745Y-56239684D01*
X148700615Y-56103295D01*
X148613261Y-55986739D01*
X148496705Y-55899385D01*
X148360316Y-55848255D01*
X148298134Y-55841500D01*
X146501866Y-55841500D01*
X146439684Y-55848255D01*
X146303295Y-55899385D01*
X146186739Y-55986739D01*
X146099385Y-56103295D01*
X146096233Y-56111703D01*
X146054919Y-56221907D01*
X146012277Y-56278671D01*
X145945716Y-56303371D01*
X145876367Y-56288163D01*
X145843743Y-56262476D01*
X145793151Y-56206875D01*
X145793142Y-56206866D01*
X145789670Y-56203051D01*
X145785619Y-56199852D01*
X145785615Y-56199848D01*
X145618414Y-56067800D01*
X145618410Y-56067798D01*
X145614359Y-56064598D01*
X145578028Y-56044542D01*
X145562136Y-56035769D01*
X145418789Y-55956638D01*
X145413920Y-55954914D01*
X145413916Y-55954912D01*
X145213087Y-55883795D01*
X145213083Y-55883794D01*
X145208212Y-55882069D01*
X145203119Y-55881162D01*
X145203116Y-55881161D01*
X144993373Y-55843800D01*
X144993367Y-55843799D01*
X144988284Y-55842894D01*
X144914452Y-55841992D01*
X144770081Y-55840228D01*
X144770079Y-55840228D01*
X144764911Y-55840165D01*
X144544091Y-55873955D01*
X144331756Y-55943357D01*
X144133607Y-56046507D01*
X144129474Y-56049610D01*
X144129471Y-56049612D01*
X143959100Y-56177530D01*
X143954965Y-56180635D01*
X143929541Y-56207240D01*
X143861280Y-56278671D01*
X143800629Y-56342138D01*
X143797715Y-56346410D01*
X143797714Y-56346411D01*
X143692898Y-56500066D01*
X143637987Y-56545069D01*
X143567462Y-56553240D01*
X143503715Y-56521986D01*
X143483018Y-56497502D01*
X143402426Y-56372926D01*
X143396136Y-56364757D01*
X143252806Y-56207240D01*
X143245273Y-56200215D01*
X143078139Y-56068222D01*
X143069552Y-56062517D01*
X142883117Y-55959599D01*
X142873705Y-55955369D01*
X142672959Y-55884280D01*
X142662988Y-55881646D01*
X142591837Y-55868972D01*
X142578540Y-55870432D01*
X142574000Y-55884989D01*
X142574000Y-58518517D01*
X142578064Y-58532359D01*
X142591478Y-58534393D01*
X142598184Y-58533534D01*
X142608262Y-58531392D01*
X142812255Y-58470191D01*
X142821842Y-58466433D01*
X143013095Y-58372739D01*
X143021945Y-58367464D01*
X143195328Y-58243792D01*
X143203200Y-58237139D01*
X143354052Y-58086812D01*
X143360730Y-58078965D01*
X143488022Y-57901819D01*
X143489279Y-57902722D01*
X143536373Y-57859362D01*
X143606311Y-57847145D01*
X143671751Y-57874678D01*
X143699579Y-57906511D01*
X143759987Y-58005088D01*
X143906250Y-58173938D01*
X144078126Y-58316632D01*
X144271000Y-58429338D01*
X144479692Y-58509030D01*
X144484760Y-58510061D01*
X144484763Y-58510062D01*
X144579862Y-58529410D01*
X144698597Y-58553567D01*
X144703772Y-58553757D01*
X144703774Y-58553757D01*
X144916673Y-58561564D01*
X144916677Y-58561564D01*
X144921837Y-58561753D01*
X144926957Y-58561097D01*
X144926959Y-58561097D01*
X145138288Y-58534025D01*
X145138289Y-58534025D01*
X145143416Y-58533368D01*
X145148366Y-58531883D01*
X145352429Y-58470661D01*
X145352434Y-58470659D01*
X145357384Y-58469174D01*
X145557994Y-58370896D01*
X145739860Y-58241173D01*
X145848091Y-58133319D01*
X145910462Y-58099404D01*
X145981268Y-58104592D01*
X146038030Y-58147238D01*
X146055012Y-58178341D01*
X146073795Y-58228444D01*
X146099385Y-58296705D01*
X146186739Y-58413261D01*
X146303295Y-58500615D01*
X146439684Y-58551745D01*
X146501866Y-58558500D01*
X146640500Y-58558500D01*
X146708621Y-58578502D01*
X146755114Y-58632158D01*
X146766500Y-58684500D01*
X146766500Y-60660791D01*
X146746498Y-60728912D01*
X146729595Y-60749886D01*
X135107747Y-72371734D01*
X135099461Y-72379274D01*
X135092982Y-72383386D01*
X135087557Y-72389163D01*
X135046357Y-72433037D01*
X135043602Y-72435879D01*
X135023865Y-72455616D01*
X135021385Y-72458813D01*
X135013682Y-72467833D01*
X134983414Y-72500065D01*
X134979595Y-72507011D01*
X134979593Y-72507014D01*
X134973652Y-72517820D01*
X134962801Y-72534339D01*
X134950386Y-72550345D01*
X134947241Y-72557614D01*
X134947238Y-72557618D01*
X134932826Y-72590923D01*
X134927609Y-72601573D01*
X134906305Y-72640326D01*
X134904334Y-72648001D01*
X134904334Y-72648002D01*
X134901267Y-72659948D01*
X134894863Y-72678652D01*
X134886819Y-72697241D01*
X134885580Y-72705064D01*
X134885577Y-72705074D01*
X134879901Y-72740910D01*
X134877495Y-72752530D01*
X134866500Y-72795356D01*
X134866500Y-72815610D01*
X134864949Y-72835320D01*
X134861780Y-72855329D01*
X134862526Y-72863221D01*
X134865941Y-72899347D01*
X134866500Y-72911205D01*
X134866500Y-77097476D01*
X134846498Y-77165597D01*
X134834142Y-77181779D01*
X134760960Y-77263056D01*
X134665473Y-77428444D01*
X134606458Y-77610072D01*
X134586496Y-77800000D01*
X129784410Y-77800000D01*
X129788703Y-59915247D01*
X129808721Y-59847132D01*
X129862388Y-59800652D01*
X129932665Y-59790565D01*
X129997238Y-59820073D01*
X130034536Y-59876342D01*
X130065473Y-59971556D01*
X130160960Y-60136944D01*
X130288747Y-60278866D01*
X130443248Y-60391118D01*
X130449276Y-60393802D01*
X130449278Y-60393803D01*
X130611681Y-60466109D01*
X130617712Y-60468794D01*
X130711112Y-60488647D01*
X130798056Y-60507128D01*
X130798061Y-60507128D01*
X130804513Y-60508500D01*
X130995487Y-60508500D01*
X131001939Y-60507128D01*
X131001944Y-60507128D01*
X131088888Y-60488647D01*
X131182288Y-60468794D01*
X131188319Y-60466109D01*
X131350722Y-60393803D01*
X131350724Y-60393802D01*
X131356752Y-60391118D01*
X131511253Y-60278866D01*
X131515668Y-60273963D01*
X131520580Y-60269540D01*
X131521705Y-60270789D01*
X131575014Y-60237949D01*
X131608200Y-60233500D01*
X132991800Y-60233500D01*
X133059921Y-60253502D01*
X133079147Y-60269843D01*
X133079420Y-60269540D01*
X133084332Y-60273963D01*
X133088747Y-60278866D01*
X133243248Y-60391118D01*
X133249276Y-60393802D01*
X133249278Y-60393803D01*
X133411681Y-60466109D01*
X133417712Y-60468794D01*
X133511112Y-60488647D01*
X133598056Y-60507128D01*
X133598061Y-60507128D01*
X133604513Y-60508500D01*
X133756329Y-60508500D01*
X133824450Y-60528502D01*
X133862774Y-60573114D01*
X133865473Y-60571556D01*
X133960960Y-60736944D01*
X134088747Y-60878866D01*
X134243248Y-60991118D01*
X134249276Y-60993802D01*
X134249278Y-60993803D01*
X134252962Y-60995443D01*
X134417712Y-61068794D01*
X134511112Y-61088647D01*
X134598056Y-61107128D01*
X134598061Y-61107128D01*
X134604513Y-61108500D01*
X134795487Y-61108500D01*
X134801939Y-61107128D01*
X134801944Y-61107128D01*
X134888888Y-61088647D01*
X134982288Y-61068794D01*
X135147038Y-60995443D01*
X135150722Y-60993803D01*
X135150724Y-60993802D01*
X135156752Y-60991118D01*
X135311253Y-60878866D01*
X135439040Y-60736944D01*
X135534527Y-60571556D01*
X135593542Y-60389928D01*
X135613504Y-60200000D01*
X135612814Y-60193435D01*
X135594232Y-60016635D01*
X135594232Y-60016633D01*
X135593542Y-60010072D01*
X135534527Y-59828444D01*
X135439040Y-59663056D01*
X135365863Y-59581785D01*
X135335147Y-59517779D01*
X135333500Y-59497476D01*
X135333500Y-57467966D01*
X140988257Y-57467966D01*
X141018565Y-57602446D01*
X141021645Y-57612275D01*
X141101770Y-57809603D01*
X141106413Y-57818794D01*
X141217694Y-58000388D01*
X141223777Y-58008699D01*
X141363213Y-58169667D01*
X141370580Y-58176883D01*
X141534434Y-58312916D01*
X141542881Y-58318831D01*
X141726756Y-58426279D01*
X141736042Y-58430729D01*
X141935001Y-58506703D01*
X141944899Y-58509579D01*
X142048250Y-58530606D01*
X142062299Y-58529410D01*
X142066000Y-58519065D01*
X142066000Y-57472115D01*
X142061525Y-57456876D01*
X142060135Y-57455671D01*
X142052452Y-57454000D01*
X141003225Y-57454000D01*
X140989694Y-57457973D01*
X140988257Y-57467966D01*
X135333500Y-57467966D01*
X135333500Y-56934183D01*
X140984389Y-56934183D01*
X140985912Y-56942607D01*
X140998292Y-56946000D01*
X142047885Y-56946000D01*
X142063124Y-56941525D01*
X142064329Y-56940135D01*
X142066000Y-56932452D01*
X142066000Y-55883102D01*
X142062082Y-55869758D01*
X142047806Y-55867771D01*
X142009324Y-55873660D01*
X141999288Y-55876051D01*
X141796868Y-55942212D01*
X141787359Y-55946209D01*
X141598463Y-56044542D01*
X141589738Y-56050036D01*
X141419433Y-56177905D01*
X141411726Y-56184748D01*
X141264590Y-56338717D01*
X141258104Y-56346727D01*
X141138098Y-56522649D01*
X141133000Y-56531623D01*
X141043338Y-56724783D01*
X141039775Y-56734470D01*
X140984389Y-56934183D01*
X135333500Y-56934183D01*
X135333500Y-54302524D01*
X135353502Y-54234403D01*
X135365858Y-54218221D01*
X135439040Y-54136944D01*
X135534527Y-53971556D01*
X135593542Y-53789928D01*
X135596498Y-53761809D01*
X135612814Y-53606565D01*
X135613504Y-53600000D01*
X135593542Y-53410072D01*
X135534527Y-53228444D01*
X135439040Y-53063056D01*
X135311253Y-52921134D01*
X135156752Y-52808882D01*
X135150724Y-52806198D01*
X135150722Y-52806197D01*
X134988319Y-52733891D01*
X134988318Y-52733891D01*
X134982288Y-52731206D01*
X134888887Y-52711353D01*
X134801944Y-52692872D01*
X134801939Y-52692872D01*
X134795487Y-52691500D01*
X134604513Y-52691500D01*
X134598061Y-52692872D01*
X134598056Y-52692872D01*
X134511113Y-52711353D01*
X134417712Y-52731206D01*
X134411682Y-52733891D01*
X134411681Y-52733891D01*
X134249278Y-52806197D01*
X134249276Y-52806198D01*
X134243248Y-52808882D01*
X134237907Y-52812762D01*
X134237906Y-52812763D01*
X134181351Y-52853853D01*
X134088747Y-52921134D01*
X134084332Y-52926037D01*
X134079420Y-52930460D01*
X134078295Y-52929211D01*
X134024986Y-52962051D01*
X133991800Y-52966500D01*
X129916402Y-52966500D01*
X129848281Y-52946498D01*
X129801788Y-52892842D01*
X129790402Y-52840470D01*
X129791652Y-47634470D01*
X129811670Y-47566354D01*
X129865337Y-47519874D01*
X129917652Y-47508500D01*
X154158955Y-47508500D01*
X154227076Y-47528502D01*
G37*
%TD.AperFunction*%
%TD*%
M02*
