%TF.GenerationSoftware,KiCad,Pcbnew,(6.0.4-0)*%
%TF.CreationDate,2022-09-10T09:10:34-06:00*%
%TF.ProjectId,TPS61165-heater-v7,54505336-3131-4363-952d-686561746572,rev?*%
%TF.SameCoordinates,Original*%
%TF.FileFunction,Soldermask,Top*%
%TF.FilePolarity,Negative*%
%FSLAX46Y46*%
G04 Gerber Fmt 4.6, Leading zero omitted, Abs format (unit mm)*
G04 Created by KiCad (PCBNEW (6.0.4-0)) date 2022-09-10 09:10:34*
%MOMM*%
%LPD*%
G01*
G04 APERTURE LIST*
G04 Aperture macros list*
%AMRoundRect*
0 Rectangle with rounded corners*
0 $1 Rounding radius*
0 $2 $3 $4 $5 $6 $7 $8 $9 X,Y pos of 4 corners*
0 Add a 4 corners polygon primitive as box body*
4,1,4,$2,$3,$4,$5,$6,$7,$8,$9,$2,$3,0*
0 Add four circle primitives for the rounded corners*
1,1,$1+$1,$2,$3*
1,1,$1+$1,$4,$5*
1,1,$1+$1,$6,$7*
1,1,$1+$1,$8,$9*
0 Add four rect primitives between the rounded corners*
20,1,$1+$1,$2,$3,$4,$5,0*
20,1,$1+$1,$4,$5,$6,$7,0*
20,1,$1+$1,$6,$7,$8,$9,0*
20,1,$1+$1,$8,$9,$2,$3,0*%
%AMFreePoly0*
4,1,37,0.536062,0.786062,0.551000,0.750000,0.551000,-0.750000,0.536062,-0.786062,0.500000,-0.801000,0.000000,-0.801000,-0.012525,-0.795812,-0.080875,-0.794559,-0.095149,-0.792248,-0.230464,-0.749973,-0.243516,-0.743747,-0.361526,-0.665192,-0.372306,-0.655554,-0.463526,-0.547035,-0.471167,-0.534759,-0.528262,-0.405000,-0.532150,-0.391073,-0.549733,-0.256613,-0.548336,-0.256430,-0.551000,-0.250000,
-0.551000,0.250000,-0.550512,0.251179,-0.550356,0.263956,-0.528545,0.404033,-0.524317,0.417860,-0.464069,0.546185,-0.456130,0.558271,-0.362286,0.664529,-0.351274,0.673901,-0.231379,0.749549,-0.218180,0.755454,-0.081873,0.794411,-0.067546,0.796373,-0.011990,0.796033,0.000000,0.801000,0.500000,0.801000,0.536062,0.786062,0.536062,0.786062,$1*%
%AMFreePoly1*
4,1,37,0.012349,0.795885,0.074216,0.795507,0.088518,0.793370,0.224339,0.752751,0.237465,0.746685,0.356427,0.669578,0.367324,0.660073,0.459862,0.552676,0.467652,0.540494,0.526329,0.411442,0.530388,0.397563,0.550485,0.257230,0.551000,0.250000,0.551000,-0.250000,0.550996,-0.250622,0.550847,-0.262838,0.550144,-0.270677,0.526624,-0.410478,0.522228,-0.424254,0.460416,-0.551833,
0.452330,-0.563821,0.357195,-0.668925,0.346069,-0.678161,0.225259,-0.752338,0.211989,-0.758081,0.075216,-0.795370,0.060866,-0.797157,0.011464,-0.796251,0.000000,-0.801000,-0.500000,-0.801000,-0.536062,-0.786062,-0.551000,-0.750000,-0.551000,0.750000,-0.536062,0.786062,-0.500000,0.801000,0.000000,0.801000,0.012349,0.795885,0.012349,0.795885,$1*%
G04 Aperture macros list end*
%ADD10RoundRect,0.201000X-0.150000X-0.625000X0.150000X-0.625000X0.150000X0.625000X-0.150000X0.625000X0*%
%ADD11RoundRect,0.301000X-0.350000X-0.650000X0.350000X-0.650000X0.350000X0.650000X-0.350000X0.650000X0*%
%ADD12RoundRect,0.301000X-0.625000X0.350000X-0.625000X-0.350000X0.625000X-0.350000X0.625000X0.350000X0*%
%ADD13O,1.852000X1.302000*%
%ADD14C,3.702000*%
%ADD15C,6.502000*%
%ADD16RoundRect,0.051000X-0.850000X0.850000X-0.850000X-0.850000X0.850000X-0.850000X0.850000X0.850000X0*%
%ADD17O,1.802000X1.802000*%
%ADD18RoundRect,0.301000X0.625000X-0.350000X0.625000X0.350000X-0.625000X0.350000X-0.625000X-0.350000X0*%
%ADD19O,1.802000X1.102000*%
%ADD20RoundRect,0.051000X-0.800000X0.400000X-0.800000X-0.400000X0.800000X-0.400000X0.800000X0.400000X0*%
%ADD21RoundRect,0.051000X-0.800000X0.450000X-0.800000X-0.450000X0.800000X-0.450000X0.800000X0.450000X0*%
%ADD22RoundRect,0.144750X0.093750X0.106250X-0.093750X0.106250X-0.093750X-0.106250X0.093750X-0.106250X0*%
%ADD23RoundRect,0.051000X0.500000X0.800000X-0.500000X0.800000X-0.500000X-0.800000X0.500000X-0.800000X0*%
%ADD24RoundRect,0.051000X2.650000X-1.000000X2.650000X1.000000X-2.650000X1.000000X-2.650000X-1.000000X0*%
%ADD25RoundRect,0.288500X-0.237500X0.287500X-0.237500X-0.287500X0.237500X-0.287500X0.237500X0.287500X0*%
%ADD26RoundRect,0.051000X-1.412500X-0.700000X1.412500X-0.700000X1.412500X0.700000X-1.412500X0.700000X0*%
%ADD27RoundRect,0.301000X0.450000X-0.325000X0.450000X0.325000X-0.450000X0.325000X-0.450000X-0.325000X0*%
%ADD28RoundRect,0.051000X0.450000X0.600000X-0.450000X0.600000X-0.450000X-0.600000X0.450000X-0.600000X0*%
%ADD29RoundRect,0.288500X0.237500X-0.287500X0.237500X0.287500X-0.237500X0.287500X-0.237500X-0.287500X0*%
%ADD30RoundRect,0.301000X-0.450000X0.325000X-0.450000X-0.325000X0.450000X-0.325000X0.450000X0.325000X0*%
%ADD31RoundRect,0.288500X0.287500X0.237500X-0.287500X0.237500X-0.287500X-0.237500X0.287500X-0.237500X0*%
%ADD32RoundRect,0.051000X0.900000X0.800000X-0.900000X0.800000X-0.900000X-0.800000X0.900000X-0.800000X0*%
%ADD33RoundRect,0.288500X-0.287500X-0.237500X0.287500X-0.237500X0.287500X0.237500X-0.287500X0.237500X0*%
%ADD34RoundRect,0.051000X0.750000X-0.500000X0.750000X0.500000X-0.750000X0.500000X-0.750000X-0.500000X0*%
%ADD35FreePoly0,90.000000*%
%ADD36FreePoly1,90.000000*%
%ADD37RoundRect,0.201000X-0.825000X-0.150000X0.825000X-0.150000X0.825000X0.150000X-0.825000X0.150000X0*%
%ADD38RoundRect,0.051000X-0.505000X0.950000X-0.505000X-0.950000X0.505000X-0.950000X0.505000X0.950000X0*%
%ADD39RoundRect,0.051000X-0.505000X0.590000X-0.505000X-0.590000X0.505000X-0.590000X0.505000X0.590000X0*%
G04 APERTURE END LIST*
D10*
%TO.C,J7*%
X125300000Y-51025000D03*
X126300000Y-51025000D03*
X127300000Y-51025000D03*
X128300000Y-51025000D03*
D11*
X124000000Y-48500000D03*
X129600000Y-48500000D03*
%TD*%
D10*
%TO.C,J6*%
X133700000Y-51025000D03*
X134700000Y-51025000D03*
X135700000Y-51025000D03*
X136700000Y-51025000D03*
D11*
X132400000Y-48500000D03*
X138000000Y-48500000D03*
%TD*%
D12*
%TO.C,J3*%
X121800000Y-65200000D03*
D13*
X121800000Y-67200000D03*
%TD*%
D12*
%TO.C,J2*%
X121800000Y-73400000D03*
D13*
X121800000Y-75400000D03*
%TD*%
D14*
%TO.C,H4*%
X119000000Y-94000000D03*
D15*
X119000000Y-94000000D03*
%TD*%
D14*
%TO.C,H3*%
X156000000Y-94000000D03*
D15*
X156000000Y-94000000D03*
%TD*%
D14*
%TO.C,H2*%
X156000000Y-51000000D03*
D15*
X156000000Y-51000000D03*
%TD*%
D14*
%TO.C,H1*%
X119000000Y-51000000D03*
D15*
X119000000Y-51000000D03*
%TD*%
D16*
%TO.C,J4*%
X147400000Y-57200000D03*
D17*
X144860000Y-57200000D03*
X142320000Y-57200000D03*
%TD*%
D18*
%TO.C,J5*%
X153150000Y-66200000D03*
D13*
X153150000Y-64200000D03*
%TD*%
D19*
%TO.C,J1*%
X122320000Y-88120000D03*
X122320000Y-79480000D03*
X118520000Y-79480000D03*
X118520000Y-88120000D03*
D20*
X122800000Y-83300000D03*
X122800000Y-85320000D03*
D21*
X122800000Y-86550000D03*
D20*
X122800000Y-84300000D03*
X122800000Y-82280000D03*
D21*
X122800000Y-81050000D03*
%TD*%
D22*
%TO.C,U1*%
X148817500Y-84080000D03*
X148817500Y-83430000D03*
X148817500Y-82780000D03*
X147042500Y-82780000D03*
X147042500Y-83430000D03*
X147042500Y-84080000D03*
D23*
X147930000Y-83430000D03*
%TD*%
D24*
%TO.C,L1*%
X143400000Y-85000000D03*
X143400000Y-81600000D03*
%TD*%
D25*
%TO.C,R1*%
X149500000Y-85525000D03*
X149500000Y-87275000D03*
%TD*%
D26*
%TO.C,FL1*%
X126763000Y-82230000D03*
X126763000Y-84770000D03*
X135237000Y-84770000D03*
X135237000Y-82230000D03*
%TD*%
D27*
%TO.C,C3*%
X138600000Y-84725000D03*
X138600000Y-82675000D03*
%TD*%
D28*
%TO.C,D1*%
X150550000Y-80000000D03*
X147250000Y-80000000D03*
%TD*%
D29*
%TO.C,C1*%
X150600000Y-83875000D03*
X150600000Y-82125000D03*
%TD*%
D30*
%TO.C,C2*%
X152700000Y-80050000D03*
X152700000Y-82100000D03*
%TD*%
D31*
%TO.C,R3*%
X141875000Y-61700000D03*
X140125000Y-61700000D03*
%TD*%
D32*
%TO.C,U2*%
X139924000Y-64230000D03*
X139924000Y-66770000D03*
X149676000Y-66770000D03*
X149676000Y-64230000D03*
%TD*%
D33*
%TO.C,C4*%
X149225000Y-77500000D03*
X150975000Y-77500000D03*
%TD*%
D25*
%TO.C,R2*%
X153100000Y-70025000D03*
X153100000Y-71775000D03*
%TD*%
D33*
%TO.C,R4*%
X132025000Y-70300000D03*
X133775000Y-70300000D03*
%TD*%
%TO.C,R5*%
X132025000Y-68300000D03*
X133775000Y-68300000D03*
%TD*%
D34*
%TO.C,JP2*%
X138000000Y-74000000D03*
X138000000Y-72700000D03*
X138000000Y-71400000D03*
%TD*%
%TO.C,JP3*%
X141700000Y-74100000D03*
X141700000Y-72800000D03*
X141700000Y-71500000D03*
%TD*%
D28*
%TO.C,D2*%
X154750000Y-86100000D03*
X151450000Y-86100000D03*
%TD*%
D35*
%TO.C,JP1*%
X156200000Y-82050000D03*
D36*
X156200000Y-80750000D03*
%TD*%
D37*
%TO.C,U3*%
X145625000Y-71895000D03*
X145625000Y-73165000D03*
X145625000Y-74435000D03*
X145625000Y-75705000D03*
X150575000Y-75705000D03*
X150575000Y-74435000D03*
X150575000Y-73165000D03*
X150575000Y-71895000D03*
%TD*%
D38*
%TO.C,D3*%
X158700000Y-82545000D03*
D39*
X158700000Y-80655000D03*
%TD*%
G36*
X121970267Y-84737886D02*
G01*
X121981262Y-84745233D01*
X122000199Y-84749000D01*
X123599801Y-84749000D01*
X123618738Y-84745233D01*
X123629733Y-84737886D01*
X123631729Y-84737755D01*
X123632840Y-84739418D01*
X123632507Y-84740660D01*
X123631997Y-84741424D01*
X123611216Y-84807788D01*
X123632006Y-84878590D01*
X123632507Y-84879340D01*
X123632638Y-84881335D01*
X123630975Y-84882447D01*
X123629733Y-84882114D01*
X123618738Y-84874767D01*
X123599801Y-84871000D01*
X122000199Y-84871000D01*
X121981262Y-84874767D01*
X121970267Y-84882114D01*
X121968271Y-84882245D01*
X121967160Y-84880582D01*
X121967493Y-84879340D01*
X121968003Y-84878576D01*
X121988784Y-84812212D01*
X121967994Y-84741410D01*
X121967493Y-84740660D01*
X121967362Y-84738665D01*
X121969025Y-84737553D01*
X121970267Y-84737886D01*
G37*
G36*
X148619905Y-82576484D02*
G01*
X148619572Y-82577726D01*
X148591903Y-82619136D01*
X148581000Y-82673949D01*
X148581000Y-82886051D01*
X148591903Y-82940864D01*
X148622838Y-82987162D01*
X148669136Y-83018097D01*
X148723949Y-83029000D01*
X148911051Y-83029000D01*
X148965864Y-83018097D01*
X148984048Y-83005947D01*
X148986044Y-83005816D01*
X148987155Y-83007479D01*
X148986694Y-83008893D01*
X148947372Y-83055946D01*
X148938741Y-83124661D01*
X148968706Y-83187291D01*
X148977371Y-83194800D01*
X148978025Y-83196690D01*
X148976715Y-83198201D01*
X148974950Y-83197974D01*
X148965864Y-83191903D01*
X148911051Y-83181000D01*
X148723949Y-83181000D01*
X148669136Y-83191903D01*
X148622838Y-83222838D01*
X148591903Y-83269136D01*
X148581000Y-83323949D01*
X148581000Y-83536051D01*
X148591903Y-83590864D01*
X148622838Y-83637162D01*
X148669136Y-83668097D01*
X148723949Y-83679000D01*
X148911051Y-83679000D01*
X148965864Y-83668097D01*
X148984048Y-83655947D01*
X148986044Y-83655816D01*
X148987155Y-83657479D01*
X148986694Y-83658893D01*
X148947372Y-83705946D01*
X148938741Y-83774661D01*
X148968706Y-83837291D01*
X148977371Y-83844800D01*
X148978025Y-83846690D01*
X148976715Y-83848201D01*
X148974950Y-83847974D01*
X148965864Y-83841903D01*
X148911051Y-83831000D01*
X148723949Y-83831000D01*
X148669136Y-83841903D01*
X148622838Y-83872838D01*
X148591903Y-83919136D01*
X148581000Y-83973949D01*
X148581000Y-84186051D01*
X148591903Y-84240864D01*
X148619572Y-84282274D01*
X148619703Y-84284270D01*
X148618040Y-84285381D01*
X148616798Y-84285048D01*
X148603007Y-84275833D01*
X148602764Y-84276196D01*
X148600970Y-84277081D01*
X148599819Y-84276620D01*
X148578265Y-84258609D01*
X148509471Y-84249972D01*
X148467845Y-84266351D01*
X148465867Y-84266055D01*
X148465135Y-84264194D01*
X148465450Y-84263379D01*
X148475233Y-84248738D01*
X148479000Y-84229801D01*
X148479000Y-82630199D01*
X148475233Y-82611262D01*
X148464951Y-82595875D01*
X148464820Y-82593879D01*
X148466483Y-82592768D01*
X148467212Y-82592855D01*
X148527020Y-82611583D01*
X148593884Y-82593240D01*
X148603790Y-82583682D01*
X148604068Y-82583458D01*
X148616798Y-82574952D01*
X148618794Y-82574821D01*
X148619905Y-82576484D01*
G37*
G36*
X147243202Y-82574952D02*
G01*
X147256993Y-82584167D01*
X147257236Y-82583804D01*
X147259030Y-82582919D01*
X147260181Y-82583380D01*
X147281735Y-82601391D01*
X147350529Y-82610028D01*
X147392155Y-82593649D01*
X147394133Y-82593945D01*
X147394865Y-82595806D01*
X147394550Y-82596621D01*
X147384767Y-82611262D01*
X147381000Y-82630199D01*
X147381000Y-84229801D01*
X147384767Y-84248738D01*
X147395049Y-84264125D01*
X147395180Y-84266121D01*
X147393517Y-84267232D01*
X147392788Y-84267145D01*
X147332980Y-84248417D01*
X147266116Y-84266760D01*
X147256210Y-84276318D01*
X147255932Y-84276542D01*
X147243202Y-84285048D01*
X147241206Y-84285179D01*
X147240095Y-84283516D01*
X147240428Y-84282274D01*
X147268097Y-84240864D01*
X147279000Y-84186051D01*
X147279000Y-83973949D01*
X147268097Y-83919136D01*
X147237162Y-83872838D01*
X147190864Y-83841903D01*
X147136051Y-83831000D01*
X146948949Y-83831000D01*
X146894136Y-83841903D01*
X146875952Y-83854053D01*
X146873956Y-83854184D01*
X146872845Y-83852521D01*
X146873306Y-83851107D01*
X146912628Y-83804054D01*
X146921259Y-83735339D01*
X146891294Y-83672709D01*
X146882629Y-83665200D01*
X146881975Y-83663310D01*
X146883285Y-83661799D01*
X146885050Y-83662026D01*
X146894136Y-83668097D01*
X146948949Y-83679000D01*
X147136051Y-83679000D01*
X147190864Y-83668097D01*
X147237162Y-83637162D01*
X147268097Y-83590864D01*
X147279000Y-83536051D01*
X147279000Y-83323949D01*
X147268097Y-83269136D01*
X147237162Y-83222838D01*
X147190864Y-83191903D01*
X147136051Y-83181000D01*
X146948949Y-83181000D01*
X146894136Y-83191903D01*
X146875952Y-83204053D01*
X146873956Y-83204184D01*
X146872845Y-83202521D01*
X146873306Y-83201107D01*
X146912628Y-83154054D01*
X146921259Y-83085339D01*
X146891294Y-83022709D01*
X146882629Y-83015200D01*
X146881975Y-83013310D01*
X146883285Y-83011799D01*
X146885050Y-83012026D01*
X146894136Y-83018097D01*
X146948949Y-83029000D01*
X147136051Y-83029000D01*
X147190864Y-83018097D01*
X147237162Y-82987162D01*
X147268097Y-82940864D01*
X147279000Y-82886051D01*
X147279000Y-82673949D01*
X147268097Y-82619136D01*
X147240428Y-82577726D01*
X147240297Y-82575730D01*
X147241960Y-82574619D01*
X147243202Y-82574952D01*
G37*
G36*
X121966075Y-83735084D02*
G01*
X121981263Y-83745233D01*
X122000199Y-83749000D01*
X123599801Y-83749000D01*
X123618738Y-83745233D01*
X123633773Y-83735186D01*
X123635768Y-83735055D01*
X123636880Y-83736718D01*
X123636793Y-83737447D01*
X123617898Y-83797788D01*
X123636955Y-83862690D01*
X123636483Y-83864633D01*
X123634564Y-83865197D01*
X123633925Y-83864916D01*
X123618737Y-83854767D01*
X123599801Y-83851000D01*
X122000199Y-83851000D01*
X121981262Y-83854767D01*
X121966227Y-83864814D01*
X121964232Y-83864945D01*
X121963120Y-83863282D01*
X121963207Y-83862553D01*
X121982102Y-83802212D01*
X121963045Y-83737310D01*
X121963517Y-83735367D01*
X121965436Y-83734803D01*
X121966075Y-83735084D01*
G37*
G36*
X121970267Y-82717886D02*
G01*
X121981262Y-82725233D01*
X122000199Y-82729000D01*
X123599801Y-82729000D01*
X123618738Y-82725233D01*
X123629733Y-82717886D01*
X123631729Y-82717755D01*
X123632840Y-82719418D01*
X123632507Y-82720660D01*
X123631997Y-82721424D01*
X123611216Y-82787788D01*
X123632006Y-82858590D01*
X123632507Y-82859340D01*
X123632638Y-82861335D01*
X123630975Y-82862447D01*
X123629733Y-82862114D01*
X123618738Y-82854767D01*
X123599801Y-82851000D01*
X122000199Y-82851000D01*
X121981262Y-82854767D01*
X121970267Y-82862114D01*
X121968271Y-82862245D01*
X121967160Y-82860582D01*
X121967493Y-82859340D01*
X121968003Y-82858576D01*
X121988784Y-82792212D01*
X121967994Y-82721410D01*
X121967493Y-82720660D01*
X121967362Y-82718665D01*
X121969025Y-82717553D01*
X121970267Y-82717886D01*
G37*
G36*
X159194414Y-81295000D02*
G01*
X159194414Y-81297000D01*
X159193072Y-81297962D01*
X159186307Y-81299307D01*
X159124674Y-81331546D01*
X159090400Y-81391730D01*
X159094106Y-81460887D01*
X159134647Y-81517112D01*
X159186250Y-81540679D01*
X159193081Y-81542038D01*
X159194585Y-81543357D01*
X159194195Y-81545319D01*
X159192691Y-81546000D01*
X158207318Y-81546000D01*
X158205586Y-81545000D01*
X158205586Y-81543000D01*
X158206928Y-81542038D01*
X158213693Y-81540693D01*
X158275326Y-81508454D01*
X158309600Y-81448270D01*
X158305894Y-81379113D01*
X158265353Y-81322888D01*
X158213750Y-81299321D01*
X158206919Y-81297962D01*
X158205415Y-81296643D01*
X158205805Y-81294681D01*
X158207309Y-81294000D01*
X159192682Y-81294000D01*
X159194414Y-81295000D01*
G37*
G36*
X156966668Y-81296665D02*
G01*
X156967058Y-81298627D01*
X156966699Y-81299267D01*
X156923511Y-81350946D01*
X156914880Y-81419661D01*
X156944844Y-81482291D01*
X156965682Y-81500348D01*
X156966336Y-81502238D01*
X156965026Y-81503749D01*
X156963982Y-81503821D01*
X156949801Y-81501000D01*
X155450199Y-81501000D01*
X155435226Y-81503978D01*
X155433332Y-81503335D01*
X155432942Y-81501373D01*
X155433301Y-81500733D01*
X155476489Y-81449054D01*
X155485120Y-81380339D01*
X155455156Y-81317709D01*
X155434318Y-81299652D01*
X155433664Y-81297762D01*
X155434974Y-81296251D01*
X155436018Y-81296179D01*
X155450199Y-81299000D01*
X156949801Y-81299000D01*
X156964774Y-81296022D01*
X156966668Y-81296665D01*
G37*
G36*
X142466668Y-73346665D02*
G01*
X142467058Y-73348627D01*
X142466699Y-73349267D01*
X142423511Y-73400946D01*
X142414880Y-73469661D01*
X142444844Y-73532291D01*
X142465682Y-73550348D01*
X142466336Y-73552238D01*
X142465026Y-73553749D01*
X142463982Y-73553821D01*
X142449801Y-73551000D01*
X140950199Y-73551000D01*
X140935226Y-73553978D01*
X140933332Y-73553335D01*
X140932942Y-73551373D01*
X140933301Y-73550733D01*
X140976489Y-73499054D01*
X140985120Y-73430339D01*
X140955156Y-73367709D01*
X140934318Y-73349652D01*
X140933664Y-73347762D01*
X140934974Y-73346251D01*
X140936018Y-73346179D01*
X140950199Y-73349000D01*
X142449801Y-73349000D01*
X142464774Y-73346022D01*
X142466668Y-73346665D01*
G37*
G36*
X138766668Y-73246665D02*
G01*
X138767058Y-73248627D01*
X138766699Y-73249267D01*
X138723511Y-73300946D01*
X138714880Y-73369661D01*
X138744844Y-73432291D01*
X138765682Y-73450348D01*
X138766336Y-73452238D01*
X138765026Y-73453749D01*
X138763982Y-73453821D01*
X138749801Y-73451000D01*
X137250199Y-73451000D01*
X137235226Y-73453978D01*
X137233332Y-73453335D01*
X137232942Y-73451373D01*
X137233301Y-73450733D01*
X137276489Y-73399054D01*
X137285120Y-73330339D01*
X137255156Y-73267709D01*
X137234318Y-73249652D01*
X137233664Y-73247762D01*
X137234974Y-73246251D01*
X137236018Y-73246179D01*
X137250199Y-73249000D01*
X138749801Y-73249000D01*
X138764774Y-73246022D01*
X138766668Y-73246665D01*
G37*
G36*
X142466668Y-72046665D02*
G01*
X142467058Y-72048627D01*
X142466699Y-72049267D01*
X142423511Y-72100946D01*
X142414880Y-72169661D01*
X142444844Y-72232291D01*
X142465682Y-72250348D01*
X142466336Y-72252238D01*
X142465026Y-72253749D01*
X142463982Y-72253821D01*
X142449801Y-72251000D01*
X140950199Y-72251000D01*
X140935226Y-72253978D01*
X140933332Y-72253335D01*
X140932942Y-72251373D01*
X140933301Y-72250733D01*
X140976489Y-72199054D01*
X140985120Y-72130339D01*
X140955156Y-72067709D01*
X140934318Y-72049652D01*
X140933664Y-72047762D01*
X140934974Y-72046251D01*
X140936018Y-72046179D01*
X140950199Y-72049000D01*
X142449801Y-72049000D01*
X142464774Y-72046022D01*
X142466668Y-72046665D01*
G37*
G36*
X138766668Y-71946665D02*
G01*
X138767058Y-71948627D01*
X138766699Y-71949267D01*
X138723511Y-72000946D01*
X138714880Y-72069661D01*
X138744844Y-72132291D01*
X138765682Y-72150348D01*
X138766336Y-72152238D01*
X138765026Y-72153749D01*
X138763982Y-72153821D01*
X138749801Y-72151000D01*
X137250199Y-72151000D01*
X137235226Y-72153978D01*
X137233332Y-72153335D01*
X137232942Y-72151373D01*
X137233301Y-72150733D01*
X137276489Y-72099054D01*
X137285120Y-72030339D01*
X137255156Y-71967709D01*
X137234318Y-71949652D01*
X137233664Y-71947762D01*
X137234974Y-71946251D01*
X137236018Y-71946179D01*
X137250199Y-71949000D01*
X138749801Y-71949000D01*
X138764774Y-71946022D01*
X138766668Y-71946665D01*
G37*
M02*
