%TF.GenerationSoftware,KiCad,Pcbnew,(6.0.4-0)*%
%TF.CreationDate,2022-09-10T09:10:34-06:00*%
%TF.ProjectId,TPS61165-heater-v7,54505336-3131-4363-952d-686561746572,rev?*%
%TF.SameCoordinates,Original*%
%TF.FileFunction,Copper,L1,Top*%
%TF.FilePolarity,Positive*%
%FSLAX46Y46*%
G04 Gerber Fmt 4.6, Leading zero omitted, Abs format (unit mm)*
G04 Created by KiCad (PCBNEW (6.0.4-0)) date 2022-09-10 09:10:34*
%MOMM*%
%LPD*%
G01*
G04 APERTURE LIST*
G04 Aperture macros list*
%AMRoundRect*
0 Rectangle with rounded corners*
0 $1 Rounding radius*
0 $2 $3 $4 $5 $6 $7 $8 $9 X,Y pos of 4 corners*
0 Add a 4 corners polygon primitive as box body*
4,1,4,$2,$3,$4,$5,$6,$7,$8,$9,$2,$3,0*
0 Add four circle primitives for the rounded corners*
1,1,$1+$1,$2,$3*
1,1,$1+$1,$4,$5*
1,1,$1+$1,$6,$7*
1,1,$1+$1,$8,$9*
0 Add four rect primitives between the rounded corners*
20,1,$1+$1,$2,$3,$4,$5,0*
20,1,$1+$1,$4,$5,$6,$7,0*
20,1,$1+$1,$6,$7,$8,$9,0*
20,1,$1+$1,$8,$9,$2,$3,0*%
%AMFreePoly0*
4,1,22,0.500000,-0.750000,0.000000,-0.750000,0.000000,-0.745033,-0.079941,-0.743568,-0.215256,-0.701293,-0.333266,-0.622738,-0.424486,-0.514219,-0.481581,-0.384460,-0.499164,-0.250000,-0.500000,-0.250000,-0.500000,0.250000,-0.499164,0.250000,-0.499963,0.256109,-0.478152,0.396186,-0.417904,0.524511,-0.324060,0.630769,-0.204165,0.706417,-0.067858,0.745374,0.000000,0.744959,0.000000,0.750000,
0.500000,0.750000,0.500000,-0.750000,0.500000,-0.750000,$1*%
%AMFreePoly1*
4,1,20,0.000000,0.744959,0.073905,0.744508,0.209726,0.703889,0.328688,0.626782,0.421226,0.519385,0.479903,0.390333,0.500000,0.250000,0.500000,-0.250000,0.499851,-0.262216,0.476331,-0.402017,0.414519,-0.529596,0.319384,-0.634700,0.198574,-0.708877,0.061801,-0.746166,0.000000,-0.745033,0.000000,-0.750000,-0.500000,-0.750000,-0.500000,0.750000,0.000000,0.750000,0.000000,0.744959,
0.000000,0.744959,$1*%
G04 Aperture macros list end*
%TA.AperFunction,SMDPad,CuDef*%
%ADD10RoundRect,0.150000X-0.150000X-0.625000X0.150000X-0.625000X0.150000X0.625000X-0.150000X0.625000X0*%
%TD*%
%TA.AperFunction,SMDPad,CuDef*%
%ADD11RoundRect,0.250000X-0.350000X-0.650000X0.350000X-0.650000X0.350000X0.650000X-0.350000X0.650000X0*%
%TD*%
%TA.AperFunction,ComponentPad*%
%ADD12RoundRect,0.250000X-0.625000X0.350000X-0.625000X-0.350000X0.625000X-0.350000X0.625000X0.350000X0*%
%TD*%
%TA.AperFunction,ComponentPad*%
%ADD13O,1.750000X1.200000*%
%TD*%
%TA.AperFunction,ComponentPad*%
%ADD14C,3.600000*%
%TD*%
%TA.AperFunction,ConnectorPad*%
%ADD15C,6.400000*%
%TD*%
%TA.AperFunction,ComponentPad*%
%ADD16R,1.700000X1.700000*%
%TD*%
%TA.AperFunction,ComponentPad*%
%ADD17O,1.700000X1.700000*%
%TD*%
%TA.AperFunction,ComponentPad*%
%ADD18RoundRect,0.250000X0.625000X-0.350000X0.625000X0.350000X-0.625000X0.350000X-0.625000X-0.350000X0*%
%TD*%
%TA.AperFunction,ComponentPad*%
%ADD19O,1.700000X1.000000*%
%TD*%
%TA.AperFunction,SMDPad,CuDef*%
%ADD20R,1.600000X0.800000*%
%TD*%
%TA.AperFunction,SMDPad,CuDef*%
%ADD21R,1.600000X0.900000*%
%TD*%
%TA.AperFunction,SMDPad,CuDef*%
%ADD22RoundRect,0.093750X0.093750X0.106250X-0.093750X0.106250X-0.093750X-0.106250X0.093750X-0.106250X0*%
%TD*%
%TA.AperFunction,SMDPad,CuDef*%
%ADD23R,1.000000X1.600000*%
%TD*%
%TA.AperFunction,SMDPad,CuDef*%
%ADD24R,5.300000X2.000000*%
%TD*%
%TA.AperFunction,SMDPad,CuDef*%
%ADD25RoundRect,0.237500X-0.237500X0.287500X-0.237500X-0.287500X0.237500X-0.287500X0.237500X0.287500X0*%
%TD*%
%TA.AperFunction,SMDPad,CuDef*%
%ADD26R,2.825000X1.400000*%
%TD*%
%TA.AperFunction,SMDPad,CuDef*%
%ADD27RoundRect,0.250000X0.450000X-0.325000X0.450000X0.325000X-0.450000X0.325000X-0.450000X-0.325000X0*%
%TD*%
%TA.AperFunction,SMDPad,CuDef*%
%ADD28R,0.900000X1.200000*%
%TD*%
%TA.AperFunction,SMDPad,CuDef*%
%ADD29RoundRect,0.237500X0.237500X-0.287500X0.237500X0.287500X-0.237500X0.287500X-0.237500X-0.287500X0*%
%TD*%
%TA.AperFunction,SMDPad,CuDef*%
%ADD30RoundRect,0.250000X-0.450000X0.325000X-0.450000X-0.325000X0.450000X-0.325000X0.450000X0.325000X0*%
%TD*%
%TA.AperFunction,SMDPad,CuDef*%
%ADD31RoundRect,0.237500X0.287500X0.237500X-0.287500X0.237500X-0.287500X-0.237500X0.287500X-0.237500X0*%
%TD*%
%TA.AperFunction,SMDPad,CuDef*%
%ADD32R,1.800000X1.600000*%
%TD*%
%TA.AperFunction,SMDPad,CuDef*%
%ADD33RoundRect,0.237500X-0.287500X-0.237500X0.287500X-0.237500X0.287500X0.237500X-0.287500X0.237500X0*%
%TD*%
%TA.AperFunction,SMDPad,CuDef*%
%ADD34R,1.500000X1.000000*%
%TD*%
%TA.AperFunction,SMDPad,CuDef*%
%ADD35FreePoly0,90.000000*%
%TD*%
%TA.AperFunction,SMDPad,CuDef*%
%ADD36FreePoly1,90.000000*%
%TD*%
%TA.AperFunction,SMDPad,CuDef*%
%ADD37RoundRect,0.150000X-0.825000X-0.150000X0.825000X-0.150000X0.825000X0.150000X-0.825000X0.150000X0*%
%TD*%
%TA.AperFunction,SMDPad,CuDef*%
%ADD38R,1.010000X1.900000*%
%TD*%
%TA.AperFunction,SMDPad,CuDef*%
%ADD39R,1.010000X1.180000*%
%TD*%
%TA.AperFunction,ViaPad*%
%ADD40C,0.800000*%
%TD*%
%TA.AperFunction,Conductor*%
%ADD41C,0.250000*%
%TD*%
%TA.AperFunction,Conductor*%
%ADD42C,1.000000*%
%TD*%
%TA.AperFunction,Conductor*%
%ADD43C,0.800000*%
%TD*%
G04 APERTURE END LIST*
D10*
%TO.P,J7,1,gnd*%
%TO.N,GND*%
X125300000Y-51025000D03*
%TO.P,J7,2,VCC*%
%TO.N,Net-(C4-Pad1)*%
X126300000Y-51025000D03*
%TO.P,J7,3,SDA*%
%TO.N,/sda*%
X127300000Y-51025000D03*
%TO.P,J7,4,SCL*%
%TO.N,/scl*%
X128300000Y-51025000D03*
D11*
%TO.P,J7,MP*%
%TO.N,N/C*%
X124000000Y-48500000D03*
X129600000Y-48500000D03*
%TD*%
D10*
%TO.P,J6,1,gnd*%
%TO.N,GND*%
X133700000Y-51025000D03*
%TO.P,J6,2,VCC*%
%TO.N,Net-(C4-Pad1)*%
X134700000Y-51025000D03*
%TO.P,J6,3,SDA*%
%TO.N,/sda*%
X135700000Y-51025000D03*
%TO.P,J6,4,SCL*%
%TO.N,/scl*%
X136700000Y-51025000D03*
D11*
%TO.P,J6,MP*%
%TO.N,N/C*%
X132400000Y-48500000D03*
X138000000Y-48500000D03*
%TD*%
D12*
%TO.P,J3,1,+*%
%TO.N,Net-(FL1-Pad2)*%
X121800000Y-65200000D03*
D13*
%TO.P,J3,2,-*%
%TO.N,Net-(FL1-Pad1)*%
X121800000Y-67200000D03*
%TD*%
D12*
%TO.P,J2,1,+*%
%TO.N,Net-(FL1-Pad2)*%
X121800000Y-73400000D03*
D13*
%TO.P,J2,2,-*%
%TO.N,Net-(FL1-Pad1)*%
X121800000Y-75400000D03*
%TD*%
D14*
%TO.P,H4,1*%
%TO.N,N/C*%
X119000000Y-94000000D03*
D15*
X119000000Y-94000000D03*
%TD*%
D14*
%TO.P,H3,1*%
%TO.N,N/C*%
X156000000Y-94000000D03*
D15*
X156000000Y-94000000D03*
%TD*%
D14*
%TO.P,H2,1*%
%TO.N,N/C*%
X156000000Y-51000000D03*
D15*
X156000000Y-51000000D03*
%TD*%
D14*
%TO.P,H1,1*%
%TO.N,N/C*%
X119000000Y-51000000D03*
D15*
X119000000Y-51000000D03*
%TD*%
D16*
%TO.P,J4,1,Pin_1*%
%TO.N,Net-(J4-Pad1)*%
X147400000Y-57200000D03*
D17*
%TO.P,J4,2,Pin_2*%
%TO.N,Net-(J4-Pad2)*%
X144860000Y-57200000D03*
%TO.P,J4,3,Pin_3*%
%TO.N,GND*%
X142320000Y-57200000D03*
%TD*%
D18*
%TO.P,J5,1,+*%
%TO.N,Net-(J5-Pad1)*%
X153150000Y-66200000D03*
D13*
%TO.P,J5,2,-*%
%TO.N,Net-(D3-Pad2)*%
X153150000Y-64200000D03*
%TD*%
D19*
%TO.P,J1,0,SHIELD*%
%TO.N,unconnected-(J1-Pad0)*%
X122320000Y-88120000D03*
X122320000Y-79480000D03*
X118520000Y-79480000D03*
X118520000Y-88120000D03*
D20*
%TO.P,J1,A5,CC1*%
%TO.N,unconnected-(J1-PadA5)*%
X122800000Y-83300000D03*
%TO.P,J1,A9,VBUS*%
%TO.N,Net-(FL1-Pad2)*%
X122800000Y-85320000D03*
D21*
%TO.P,J1,A12,GND*%
%TO.N,Net-(FL1-Pad1)*%
X122800000Y-86550000D03*
D20*
%TO.P,J1,B5,CC2*%
%TO.N,unconnected-(J1-PadB5)*%
X122800000Y-84300000D03*
%TO.P,J1,B9,VBUS*%
%TO.N,Net-(FL1-Pad2)*%
X122800000Y-82280000D03*
D21*
%TO.P,J1,B12,GND*%
%TO.N,Net-(FL1-Pad1)*%
X122800000Y-81050000D03*
%TD*%
D22*
%TO.P,U1,1,FB*%
%TO.N,Net-(D2-Pad2)*%
X148817500Y-84080000D03*
%TO.P,U1,2,COMP*%
%TO.N,Net-(C1-Pad1)*%
X148817500Y-83430000D03*
%TO.P,U1,3,GND*%
%TO.N,GND*%
X148817500Y-82780000D03*
%TO.P,U1,4,SW*%
%TO.N,Net-(D1-Pad2)*%
X147042500Y-82780000D03*
%TO.P,U1,5,CTRL*%
%TO.N,Net-(J4-Pad1)*%
X147042500Y-83430000D03*
%TO.P,U1,6,VIN*%
%TO.N,+5VD*%
X147042500Y-84080000D03*
D23*
%TO.P,U1,7,EP*%
%TO.N,GND*%
X147930000Y-83430000D03*
%TD*%
D24*
%TO.P,L1,1,1*%
%TO.N,+5VD*%
X143400000Y-85000000D03*
%TO.P,L1,2,2*%
%TO.N,Net-(D1-Pad2)*%
X143400000Y-81600000D03*
%TD*%
D25*
%TO.P,R1,1*%
%TO.N,Net-(D2-Pad2)*%
X149500000Y-85525000D03*
%TO.P,R1,2*%
%TO.N,GND*%
X149500000Y-87275000D03*
%TD*%
D26*
%TO.P,FL1,1,1*%
%TO.N,Net-(FL1-Pad1)*%
X126763000Y-82230000D03*
%TO.P,FL1,2,2*%
%TO.N,Net-(FL1-Pad2)*%
X126763000Y-84770000D03*
%TO.P,FL1,3,3*%
%TO.N,+5VD*%
X135237000Y-84770000D03*
%TO.P,FL1,4,4*%
%TO.N,GND*%
X135237000Y-82230000D03*
%TD*%
D27*
%TO.P,C3,1*%
%TO.N,+5VD*%
X138600000Y-84725000D03*
%TO.P,C3,2*%
%TO.N,GND*%
X138600000Y-82675000D03*
%TD*%
D28*
%TO.P,D1,1,K*%
%TO.N,Net-(C2-Pad1)*%
X150550000Y-80000000D03*
%TO.P,D1,2,A*%
%TO.N,Net-(D1-Pad2)*%
X147250000Y-80000000D03*
%TD*%
D29*
%TO.P,C1,1*%
%TO.N,Net-(C1-Pad1)*%
X150600000Y-83875000D03*
%TO.P,C1,2*%
%TO.N,GND*%
X150600000Y-82125000D03*
%TD*%
D30*
%TO.P,C2,1*%
%TO.N,Net-(C2-Pad1)*%
X152700000Y-80050000D03*
%TO.P,C2,2*%
%TO.N,GND*%
X152700000Y-82100000D03*
%TD*%
D31*
%TO.P,R3,1*%
%TO.N,Net-(J4-Pad2)*%
X141875000Y-61700000D03*
%TO.P,R3,2*%
%TO.N,Net-(R3-Pad2)*%
X140125000Y-61700000D03*
%TD*%
D32*
%TO.P,U2,1*%
%TO.N,Net-(R3-Pad2)*%
X139924000Y-64230000D03*
%TO.P,U2,2*%
%TO.N,GND*%
X139924000Y-66770000D03*
%TO.P,U2,3*%
%TO.N,Net-(J5-Pad1)*%
X149676000Y-66770000D03*
%TO.P,U2,4*%
%TO.N,Net-(D3-Pad2)*%
X149676000Y-64230000D03*
%TD*%
D33*
%TO.P,C4,1*%
%TO.N,Net-(C4-Pad1)*%
X149225000Y-77500000D03*
%TO.P,C4,2*%
%TO.N,GND*%
X150975000Y-77500000D03*
%TD*%
D25*
%TO.P,R2,1*%
%TO.N,Net-(J5-Pad1)*%
X153100000Y-70025000D03*
%TO.P,R2,2*%
%TO.N,Net-(C2-Pad1)*%
X153100000Y-71775000D03*
%TD*%
D33*
%TO.P,R4,1*%
%TO.N,/sda*%
X132025000Y-70300000D03*
%TO.P,R4,2*%
%TO.N,Net-(C4-Pad1)*%
X133775000Y-70300000D03*
%TD*%
%TO.P,R5,1*%
%TO.N,/scl*%
X132025000Y-68300000D03*
%TO.P,R5,2*%
%TO.N,Net-(C4-Pad1)*%
X133775000Y-68300000D03*
%TD*%
D34*
%TO.P,JP2,1,A*%
%TO.N,Net-(C4-Pad1)*%
X138000000Y-74000000D03*
%TO.P,JP2,2,C*%
%TO.N,Net-(JP2-Pad2)*%
X138000000Y-72700000D03*
%TO.P,JP2,3,B*%
%TO.N,GND*%
X138000000Y-71400000D03*
%TD*%
%TO.P,JP3,1,A*%
%TO.N,Net-(C4-Pad1)*%
X141700000Y-74100000D03*
%TO.P,JP3,2,C*%
%TO.N,Net-(JP3-Pad2)*%
X141700000Y-72800000D03*
%TO.P,JP3,3,B*%
%TO.N,GND*%
X141700000Y-71500000D03*
%TD*%
D28*
%TO.P,D2,1,K*%
%TO.N,Net-(D2-Pad1)*%
X154750000Y-86100000D03*
%TO.P,D2,2,A*%
%TO.N,Net-(D2-Pad2)*%
X151450000Y-86100000D03*
%TD*%
D35*
%TO.P,JP1,1,A*%
%TO.N,Net-(D2-Pad1)*%
X156200000Y-82050000D03*
D36*
%TO.P,JP1,2,B*%
%TO.N,Net-(D3-Pad2)*%
X156200000Y-80750000D03*
%TD*%
D37*
%TO.P,U3,1,A1*%
%TO.N,Net-(JP3-Pad2)*%
X145625000Y-71895000D03*
%TO.P,U3,2,A0*%
%TO.N,Net-(JP2-Pad2)*%
X145625000Y-73165000D03*
%TO.P,U3,3,SDA*%
%TO.N,/sda*%
X145625000Y-74435000D03*
%TO.P,U3,4,SCL*%
%TO.N,/scl*%
X145625000Y-75705000D03*
%TO.P,U3,5,VS*%
%TO.N,Net-(C4-Pad1)*%
X150575000Y-75705000D03*
%TO.P,U3,6,GND*%
%TO.N,GND*%
X150575000Y-74435000D03*
%TO.P,U3,7,IN-*%
%TO.N,Net-(J5-Pad1)*%
X150575000Y-73165000D03*
%TO.P,U3,8,IN+*%
%TO.N,Net-(C2-Pad1)*%
X150575000Y-71895000D03*
%TD*%
D38*
%TO.P,D3,1,K*%
%TO.N,Net-(D2-Pad1)*%
X158700000Y-82545000D03*
D39*
%TO.P,D3,2,A*%
%TO.N,Net-(D3-Pad2)*%
X158700000Y-80655000D03*
%TD*%
D40*
%TO.N,Net-(C4-Pad1)*%
X134700000Y-60200000D03*
X134700000Y-53600000D03*
X126200000Y-53600000D03*
%TO.N,GND*%
X133700000Y-52800000D03*
%TO.N,/sda*%
X130900000Y-59600000D03*
%TO.N,/scl*%
X133700000Y-58600000D03*
X130900000Y-58600000D03*
%TO.N,/sda*%
X133700000Y-59600000D03*
%TO.N,Net-(J4-Pad1)*%
X135500000Y-77800000D03*
%TO.N,GND*%
X147900000Y-83800000D03*
X152700000Y-83600000D03*
X147900000Y-87300000D03*
X147900000Y-83000000D03*
X149500000Y-88800000D03*
X147900000Y-82200000D03*
X147900000Y-84600000D03*
X141700000Y-79300000D03*
X138300000Y-67025000D03*
X138400000Y-79300000D03*
X141700000Y-78000000D03*
X138350000Y-80650000D03*
X138000000Y-71400000D03*
X141700000Y-71500000D03*
%TO.N,Net-(FL1-Pad2)*%
X124200000Y-82300000D03*
X124180000Y-85320000D03*
%TO.N,Net-(C4-Pad1)*%
X147700000Y-77600000D03*
X139900000Y-72800000D03*
X138300000Y-75500000D03*
%TD*%
D41*
%TO.N,Net-(C4-Pad1)*%
X133775000Y-61125000D02*
X134700000Y-60200000D01*
X133775000Y-68300000D02*
X133775000Y-61125000D01*
X134700000Y-51025000D02*
X134700000Y-53600000D01*
X126200000Y-53600000D02*
X126200000Y-51125000D01*
X126200000Y-51125000D02*
X126300000Y-51025000D01*
%TO.N,GND*%
X133700000Y-51025000D02*
X133700000Y-52800000D01*
X133700000Y-51025000D02*
X131825000Y-51025000D01*
X131825000Y-51025000D02*
X130700000Y-49900000D01*
X125400000Y-49900000D02*
X130700000Y-49900000D01*
X125300000Y-51025000D02*
X125300000Y-50000000D01*
X125300000Y-50000000D02*
X125400000Y-49900000D01*
%TO.N,/sda*%
X130875386Y-59600000D02*
X130900000Y-59600000D01*
X127300000Y-56024614D02*
X130875386Y-59600000D01*
X127300000Y-51025000D02*
X127300000Y-56024614D01*
%TO.N,/scl*%
X133700000Y-58600000D02*
X136700000Y-55600000D01*
X132025000Y-58625000D02*
X130925000Y-58625000D01*
X130925000Y-58625000D02*
X130900000Y-58600000D01*
X136700000Y-55600000D02*
X136700000Y-51025000D01*
%TO.N,/sda*%
X132900000Y-59600000D02*
X133700000Y-59600000D01*
X132900000Y-66400000D02*
X132900000Y-59600000D01*
X132900000Y-59600000D02*
X132900000Y-58300000D01*
X132025000Y-70300000D02*
X132925480Y-69399520D01*
X132925480Y-69399520D02*
X132925480Y-66425480D01*
X132925480Y-66425480D02*
X132900000Y-66400000D01*
X135700000Y-55500000D02*
X135700000Y-51025000D01*
X132900000Y-58300000D02*
X135700000Y-55500000D01*
%TO.N,/scl*%
X132025000Y-58625000D02*
X128300000Y-54900000D01*
X128300000Y-54900000D02*
X128300000Y-51025000D01*
X132025000Y-68300000D02*
X132025000Y-58625000D01*
%TO.N,Net-(C4-Pad1)*%
X133775000Y-70300000D02*
X133775000Y-68300000D01*
X138000000Y-74000000D02*
X137475000Y-74000000D01*
X137475000Y-74000000D02*
X133775000Y-70300000D01*
%TO.N,/scl*%
X145625000Y-75705000D02*
X144595000Y-75705000D01*
X144595000Y-75705000D02*
X143625969Y-76674031D01*
X143625969Y-76674031D02*
X136374031Y-76674031D01*
X130400000Y-69100000D02*
X131200000Y-68300000D01*
X136374031Y-76674031D02*
X130400000Y-70700000D01*
X130400000Y-70700000D02*
X130400000Y-69100000D01*
X131200000Y-68300000D02*
X132025000Y-68300000D01*
%TO.N,/sda*%
X145625000Y-74435000D02*
X144365000Y-74435000D01*
X132000000Y-70325000D02*
X132025000Y-70300000D01*
X144365000Y-74435000D02*
X142575489Y-76224511D01*
X137024511Y-76224511D02*
X132000000Y-71200000D01*
X142575489Y-76224511D02*
X137024511Y-76224511D01*
X132000000Y-71200000D02*
X132000000Y-70325000D01*
D42*
%TO.N,Net-(FL1-Pad1)*%
X126950000Y-75400000D02*
X126950000Y-67350000D01*
X126800000Y-67200000D02*
X121800000Y-67200000D01*
X126950000Y-67350000D02*
X126800000Y-67200000D01*
%TO.N,Net-(J5-Pad1)*%
X153150000Y-66200000D02*
X150246000Y-66200000D01*
X150246000Y-66200000D02*
X149676000Y-66770000D01*
%TO.N,Net-(D3-Pad2)*%
X153150000Y-64200000D02*
X149706000Y-64200000D01*
D41*
%TO.N,Net-(J4-Pad1)*%
X140000000Y-77800000D02*
X135500000Y-77800000D01*
X147042500Y-83430000D02*
X140930978Y-83430000D01*
X140930978Y-83430000D02*
X140000000Y-82499022D01*
X140000000Y-82499022D02*
X140000000Y-77800000D01*
%TO.N,Net-(J4-Pad2)*%
X141875000Y-61700000D02*
X144860000Y-58715000D01*
X144860000Y-58715000D02*
X144860000Y-57200000D01*
%TO.N,Net-(R3-Pad2)*%
X139924000Y-61901000D02*
X139924000Y-64230000D01*
%TO.N,GND*%
X138600000Y-82675000D02*
X135682000Y-82675000D01*
X138600000Y-82675000D02*
X138600000Y-80900000D01*
D42*
X152700000Y-82100000D02*
X150800000Y-82100000D01*
D41*
X148817500Y-82780000D02*
X150120000Y-82780000D01*
X150600000Y-81775000D02*
X150025000Y-81200000D01*
X138600000Y-80900000D02*
X138350000Y-80650000D01*
X150025000Y-81200000D02*
X149900000Y-81200000D01*
X149900000Y-81200000D02*
X150800000Y-82100000D01*
X150120000Y-82780000D02*
X150600000Y-82300000D01*
%TO.N,Net-(C1-Pad1)*%
X150600000Y-84050000D02*
X149980000Y-83430000D01*
X149980000Y-83430000D02*
X148817500Y-83430000D01*
D42*
%TO.N,Net-(C2-Pad1)*%
X150550000Y-80000000D02*
X152650000Y-80000000D01*
D41*
X153100000Y-71775000D02*
X150695000Y-71775000D01*
D42*
X152700000Y-80050000D02*
X152700000Y-72175000D01*
X152700000Y-72175000D02*
X153100000Y-71775000D01*
%TO.N,+5VD*%
X135237000Y-84770000D02*
X143170000Y-84770000D01*
X145500000Y-85000000D02*
X146169990Y-84330010D01*
X146169990Y-84330010D02*
X146619962Y-84330010D01*
D41*
%TO.N,Net-(D1-Pad2)*%
X147042500Y-82780000D02*
X146855000Y-82780000D01*
X146855000Y-82780000D02*
X146700000Y-82625000D01*
X146700000Y-82625000D02*
X146700000Y-82400000D01*
D42*
X146600000Y-81600000D02*
X146700000Y-82400000D01*
X147250000Y-80000000D02*
X147250000Y-80950000D01*
X145900000Y-81600000D02*
X146600000Y-81600000D01*
X147250000Y-80950000D02*
X146600000Y-81600000D01*
X143400000Y-81600000D02*
X145900000Y-81600000D01*
%TO.N,Net-(FL1-Pad1)*%
X126763000Y-82230000D02*
X125583000Y-81050000D01*
X128875501Y-83630001D02*
X128875501Y-86030001D01*
X128875501Y-86030001D02*
X128355491Y-86550011D01*
X127475500Y-82230000D02*
X128875501Y-83630001D01*
X128355491Y-86550011D02*
X124600000Y-86600000D01*
X124600000Y-86600000D02*
X122475000Y-86550011D01*
X120450000Y-75400000D02*
X126950000Y-75400000D01*
X125583000Y-81050000D02*
X126950000Y-79683000D01*
X125583000Y-81050000D02*
X123900000Y-81000000D01*
X126950000Y-79683000D02*
X126950000Y-75400000D01*
X123900000Y-81000000D02*
X122475000Y-81050000D01*
D43*
%TO.N,Net-(FL1-Pad2)*%
X124180000Y-82280000D02*
X124200000Y-82300000D01*
X126213000Y-85320000D02*
X126763000Y-84770000D01*
X124180000Y-85320000D02*
X126213000Y-85320000D01*
X122475000Y-85320000D02*
X124180000Y-85320000D01*
X122475000Y-82280000D02*
X124180000Y-82280000D01*
D41*
%TO.N,Net-(J5-Pad1)*%
X149274990Y-73004990D02*
X149274990Y-72974990D01*
X149975000Y-70025000D02*
X153100000Y-70025000D01*
D42*
X153150000Y-69975000D02*
X153100000Y-70025000D01*
D41*
X149435000Y-73165000D02*
X149274990Y-73004990D01*
X149000000Y-71000000D02*
X149975000Y-70025000D01*
X149000000Y-72700000D02*
X149000000Y-71000000D01*
X150575000Y-73165000D02*
X149435000Y-73165000D01*
D42*
X153150000Y-66200000D02*
X153150000Y-69975000D01*
D41*
X149274990Y-72974990D02*
X149000000Y-72700000D01*
%TO.N,Net-(C4-Pad1)*%
X139900000Y-72800000D02*
X141200000Y-74100000D01*
X149225000Y-77500000D02*
X147800000Y-77500000D01*
X149225000Y-77500000D02*
X149225000Y-77055000D01*
X147800000Y-77500000D02*
X147700000Y-77600000D01*
X149225000Y-77055000D02*
X150575000Y-75705000D01*
X138300000Y-75500000D02*
X138300000Y-74300000D01*
%TO.N,Net-(JP2-Pad2)*%
X145325000Y-73465000D02*
X144170002Y-73465000D01*
X142710001Y-74925001D02*
X140689999Y-74925001D01*
X140689999Y-74925001D02*
X138464998Y-72700000D01*
X144170002Y-73465000D02*
X142710001Y-74925001D01*
X145625000Y-73165000D02*
X145325000Y-73465000D01*
D42*
%TO.N,Net-(D3-Pad2)*%
X155400000Y-64200000D02*
X156200000Y-65000000D01*
X153150000Y-64200000D02*
X155400000Y-64200000D01*
D43*
X158700000Y-80655000D02*
X156295000Y-80655000D01*
D42*
X156200000Y-65000000D02*
X156200000Y-80750000D01*
D41*
%TO.N,Net-(D2-Pad2)*%
X149500000Y-85525000D02*
X149500000Y-84762500D01*
X149500000Y-84762500D02*
X148817500Y-84080000D01*
D42*
X149500000Y-85525000D02*
X150875000Y-85525000D01*
X150875000Y-85525000D02*
X151450000Y-86100000D01*
D43*
%TO.N,Net-(D2-Pad1)*%
X156695000Y-82545000D02*
X156200000Y-82050000D01*
X156200000Y-82050000D02*
X156200000Y-84650000D01*
X156200000Y-84650000D02*
X154750000Y-86100000D01*
X158700000Y-82545000D02*
X156695000Y-82545000D01*
D41*
%TO.N,Net-(JP3-Pad2)*%
X142700000Y-72800000D02*
X143605000Y-71895000D01*
X143605000Y-71895000D02*
X144650000Y-71895000D01*
X144650000Y-71895000D02*
X145625000Y-71895000D01*
X141700000Y-72800000D02*
X142700000Y-72800000D01*
%TD*%
%TA.AperFunction,Conductor*%
%TO.N,GND*%
G36*
X154227076Y-47528502D02*
G01*
X154273569Y-47582158D01*
X154283673Y-47652432D01*
X154254179Y-47717012D01*
X154216158Y-47746767D01*
X154146147Y-47782439D01*
X154146140Y-47782443D01*
X154143206Y-47783938D01*
X154140440Y-47785734D01*
X154140437Y-47785736D01*
X154114059Y-47802866D01*
X153817207Y-47995643D01*
X153515124Y-48240266D01*
X153240266Y-48515124D01*
X152995643Y-48817207D01*
X152783938Y-49143206D01*
X152782443Y-49146140D01*
X152782439Y-49146147D01*
X152698244Y-49311389D01*
X152607468Y-49489547D01*
X152579055Y-49563565D01*
X152472130Y-49842115D01*
X152468167Y-49852438D01*
X152367562Y-50227901D01*
X152306754Y-50611824D01*
X152286411Y-51000000D01*
X152306754Y-51388176D01*
X152367562Y-51772099D01*
X152468167Y-52147562D01*
X152469352Y-52150650D01*
X152469353Y-52150652D01*
X152511671Y-52260893D01*
X152607468Y-52510453D01*
X152608966Y-52513393D01*
X152720468Y-52732227D01*
X152783938Y-52856794D01*
X152995643Y-53182793D01*
X152997718Y-53185355D01*
X153179691Y-53410072D01*
X153240266Y-53484876D01*
X153515124Y-53759734D01*
X153517682Y-53761806D01*
X153517686Y-53761809D01*
X153552410Y-53789928D01*
X153817207Y-54004357D01*
X153819970Y-54006152D01*
X153819971Y-54006152D01*
X154021374Y-54136944D01*
X154143205Y-54216062D01*
X154146139Y-54217557D01*
X154146146Y-54217561D01*
X154282073Y-54286819D01*
X154489547Y-54392532D01*
X154590544Y-54431301D01*
X154791654Y-54508500D01*
X154852438Y-54531833D01*
X155227901Y-54632438D01*
X155431793Y-54664732D01*
X155608576Y-54692732D01*
X155608584Y-54692733D01*
X155611824Y-54693246D01*
X156000000Y-54713589D01*
X156388176Y-54693246D01*
X156391416Y-54692733D01*
X156391424Y-54692732D01*
X156568207Y-54664732D01*
X156772099Y-54632438D01*
X157147562Y-54531833D01*
X157208347Y-54508500D01*
X157409456Y-54431301D01*
X157510453Y-54392532D01*
X157717927Y-54286819D01*
X157853854Y-54217561D01*
X157853861Y-54217557D01*
X157856795Y-54216062D01*
X157978627Y-54136944D01*
X158180029Y-54006152D01*
X158180030Y-54006152D01*
X158182793Y-54004357D01*
X158447590Y-53789928D01*
X158482314Y-53761809D01*
X158482318Y-53761806D01*
X158484876Y-53759734D01*
X158759734Y-53484876D01*
X158820310Y-53410072D01*
X159002282Y-53185355D01*
X159004357Y-53182793D01*
X159216062Y-52856794D01*
X159253233Y-52783842D01*
X159301981Y-52732227D01*
X159370896Y-52715161D01*
X159438098Y-52738062D01*
X159482250Y-52793659D01*
X159491500Y-52841045D01*
X159491500Y-79447505D01*
X159471498Y-79515626D01*
X159417842Y-79562119D01*
X159347568Y-79572223D01*
X159330407Y-79567827D01*
X159330400Y-79567856D01*
X159322716Y-79566029D01*
X159315316Y-79563255D01*
X159253134Y-79556500D01*
X158146866Y-79556500D01*
X158084684Y-79563255D01*
X157948295Y-79614385D01*
X157831739Y-79701739D01*
X157826357Y-79708920D01*
X157825679Y-79709598D01*
X157763366Y-79743621D01*
X157736586Y-79746500D01*
X157334500Y-79746500D01*
X157266379Y-79726498D01*
X157219886Y-79672842D01*
X157208500Y-79620500D01*
X157208500Y-65061843D01*
X157209237Y-65048236D01*
X157212659Y-65016738D01*
X157212659Y-65016733D01*
X157213324Y-65010612D01*
X157208950Y-64960612D01*
X157208621Y-64955786D01*
X157208500Y-64953314D01*
X157208500Y-64950231D01*
X157207326Y-64938262D01*
X157204310Y-64907494D01*
X157204188Y-64906181D01*
X157196623Y-64819718D01*
X157196087Y-64813587D01*
X157194600Y-64808468D01*
X157194080Y-64803167D01*
X157167209Y-64714166D01*
X157166874Y-64713033D01*
X157142630Y-64629586D01*
X157142628Y-64629582D01*
X157140909Y-64623664D01*
X157138456Y-64618932D01*
X157136916Y-64613831D01*
X157093269Y-64531740D01*
X157092657Y-64530574D01*
X157052729Y-64453547D01*
X157049892Y-64448074D01*
X157046569Y-64443911D01*
X157044066Y-64439204D01*
X156985245Y-64367082D01*
X156984554Y-64366226D01*
X156953262Y-64327027D01*
X156950758Y-64324523D01*
X156950116Y-64323805D01*
X156946415Y-64319472D01*
X156919065Y-64285938D01*
X156883733Y-64256709D01*
X156874963Y-64248728D01*
X156156851Y-63530617D01*
X156147749Y-63520473D01*
X156127897Y-63495782D01*
X156124032Y-63490975D01*
X156085578Y-63458708D01*
X156081931Y-63455528D01*
X156080119Y-63453885D01*
X156077925Y-63451691D01*
X156044651Y-63424358D01*
X156043853Y-63423696D01*
X155972526Y-63363846D01*
X155967856Y-63361278D01*
X155963739Y-63357897D01*
X155905855Y-63326860D01*
X155881914Y-63314023D01*
X155880755Y-63313394D01*
X155804619Y-63271538D01*
X155804611Y-63271535D01*
X155799213Y-63268567D01*
X155794131Y-63266955D01*
X155789437Y-63264438D01*
X155700469Y-63237238D01*
X155699441Y-63236918D01*
X155610694Y-63208765D01*
X155605398Y-63208171D01*
X155600302Y-63206613D01*
X155507743Y-63197210D01*
X155506607Y-63197089D01*
X155472992Y-63193319D01*
X155460270Y-63191892D01*
X155460266Y-63191892D01*
X155456773Y-63191500D01*
X155453246Y-63191500D01*
X155452261Y-63191445D01*
X155446581Y-63190998D01*
X155417175Y-63188011D01*
X155409663Y-63187248D01*
X155409661Y-63187248D01*
X155403538Y-63186626D01*
X155361259Y-63190623D01*
X155357891Y-63190941D01*
X155346033Y-63191500D01*
X153912557Y-63191500D01*
X153865459Y-63182366D01*
X153746832Y-63134558D01*
X153746829Y-63134557D01*
X153741263Y-63132314D01*
X153533663Y-63091772D01*
X153528101Y-63091500D01*
X152822154Y-63091500D01*
X152664434Y-63106548D01*
X152461466Y-63166092D01*
X152450970Y-63171498D01*
X152439285Y-63177516D01*
X152381593Y-63191500D01*
X151095791Y-63191500D01*
X151027670Y-63171498D01*
X150994965Y-63141065D01*
X150990089Y-63134558D01*
X150939261Y-63066739D01*
X150822705Y-62979385D01*
X150686316Y-62928255D01*
X150624134Y-62921500D01*
X148727866Y-62921500D01*
X148665684Y-62928255D01*
X148529295Y-62979385D01*
X148412739Y-63066739D01*
X148325385Y-63183295D01*
X148274255Y-63319684D01*
X148267500Y-63381866D01*
X148267500Y-65078134D01*
X148274255Y-65140316D01*
X148325385Y-65276705D01*
X148412739Y-65393261D01*
X148420628Y-65399174D01*
X148421155Y-65399878D01*
X148426269Y-65404992D01*
X148425531Y-65405730D01*
X148463143Y-65456031D01*
X148468170Y-65526849D01*
X148434112Y-65589143D01*
X148420633Y-65600823D01*
X148412739Y-65606739D01*
X148325385Y-65723295D01*
X148274255Y-65859684D01*
X148267500Y-65921866D01*
X148267500Y-67618134D01*
X148274255Y-67680316D01*
X148325385Y-67816705D01*
X148412739Y-67933261D01*
X148529295Y-68020615D01*
X148665684Y-68071745D01*
X148727866Y-68078500D01*
X150624134Y-68078500D01*
X150686316Y-68071745D01*
X150822705Y-68020615D01*
X150939261Y-67933261D01*
X151026615Y-67816705D01*
X151077745Y-67680316D01*
X151084500Y-67618134D01*
X151084500Y-67334500D01*
X151104502Y-67266379D01*
X151158158Y-67219886D01*
X151210500Y-67208500D01*
X152015500Y-67208500D01*
X152083621Y-67228502D01*
X152130114Y-67282158D01*
X152141500Y-67334500D01*
X152141500Y-69265500D01*
X152121498Y-69333621D01*
X152067842Y-69380114D01*
X152015500Y-69391500D01*
X150053767Y-69391500D01*
X150042584Y-69390973D01*
X150035091Y-69389298D01*
X150027165Y-69389547D01*
X150027164Y-69389547D01*
X149967014Y-69391438D01*
X149963055Y-69391500D01*
X149935144Y-69391500D01*
X149931210Y-69391997D01*
X149931209Y-69391997D01*
X149931144Y-69392005D01*
X149919307Y-69392938D01*
X149887490Y-69393938D01*
X149883029Y-69394078D01*
X149875110Y-69394327D01*
X149857620Y-69399408D01*
X149855658Y-69399978D01*
X149836306Y-69403986D01*
X149829235Y-69404880D01*
X149816203Y-69406526D01*
X149808834Y-69409443D01*
X149808832Y-69409444D01*
X149775097Y-69422800D01*
X149763869Y-69426645D01*
X149721407Y-69438982D01*
X149714585Y-69443016D01*
X149714579Y-69443019D01*
X149703968Y-69449294D01*
X149686218Y-69457990D01*
X149674756Y-69462528D01*
X149674751Y-69462531D01*
X149667383Y-69465448D01*
X149660968Y-69470109D01*
X149631625Y-69491427D01*
X149621707Y-69497943D01*
X149603019Y-69508995D01*
X149583637Y-69520458D01*
X149569313Y-69534782D01*
X149554281Y-69547621D01*
X149537893Y-69559528D01*
X149512026Y-69590796D01*
X149509712Y-69593593D01*
X149501722Y-69602373D01*
X148607747Y-70496348D01*
X148599461Y-70503888D01*
X148592982Y-70508000D01*
X148587557Y-70513777D01*
X148546357Y-70557651D01*
X148543602Y-70560493D01*
X148523865Y-70580230D01*
X148521385Y-70583427D01*
X148513682Y-70592447D01*
X148483414Y-70624679D01*
X148479595Y-70631625D01*
X148479593Y-70631628D01*
X148473652Y-70642434D01*
X148462801Y-70658953D01*
X148450386Y-70674959D01*
X148447241Y-70682228D01*
X148447238Y-70682232D01*
X148432826Y-70715537D01*
X148427609Y-70726187D01*
X148406305Y-70764940D01*
X148404334Y-70772615D01*
X148404334Y-70772616D01*
X148401267Y-70784562D01*
X148394863Y-70803266D01*
X148386819Y-70821855D01*
X148385580Y-70829678D01*
X148385577Y-70829688D01*
X148379901Y-70865524D01*
X148377495Y-70877144D01*
X148376147Y-70882396D01*
X148366500Y-70919970D01*
X148366500Y-70940224D01*
X148364949Y-70959934D01*
X148361780Y-70979943D01*
X148362526Y-70987835D01*
X148365941Y-71023961D01*
X148366500Y-71035819D01*
X148366500Y-72621233D01*
X148365973Y-72632416D01*
X148364298Y-72639909D01*
X148364547Y-72647835D01*
X148364547Y-72647836D01*
X148366438Y-72707986D01*
X148366500Y-72711945D01*
X148366500Y-72739856D01*
X148366997Y-72743790D01*
X148366997Y-72743791D01*
X148367005Y-72743856D01*
X148367938Y-72755693D01*
X148369327Y-72799889D01*
X148374978Y-72819339D01*
X148378987Y-72838700D01*
X148381526Y-72858797D01*
X148384445Y-72866168D01*
X148384445Y-72866170D01*
X148397804Y-72899912D01*
X148401649Y-72911142D01*
X148409435Y-72937942D01*
X148413982Y-72953593D01*
X148418015Y-72960412D01*
X148418017Y-72960417D01*
X148424293Y-72971028D01*
X148432988Y-72988776D01*
X148440448Y-73007617D01*
X148445110Y-73014033D01*
X148445110Y-73014034D01*
X148466436Y-73043387D01*
X148472952Y-73053307D01*
X148495458Y-73091362D01*
X148509779Y-73105683D01*
X148522619Y-73120716D01*
X148534528Y-73137107D01*
X148540634Y-73142158D01*
X148568605Y-73165298D01*
X148577384Y-73173288D01*
X148705061Y-73300965D01*
X148717903Y-73316000D01*
X148741426Y-73348377D01*
X148747942Y-73358297D01*
X148764041Y-73385518D01*
X148770448Y-73396352D01*
X148784769Y-73410673D01*
X148797609Y-73425706D01*
X148809518Y-73442097D01*
X148815624Y-73447148D01*
X148843595Y-73470288D01*
X148852374Y-73478278D01*
X148931343Y-73557247D01*
X148938887Y-73565537D01*
X148943000Y-73572018D01*
X148948777Y-73577443D01*
X148992667Y-73618658D01*
X148995509Y-73621413D01*
X149015230Y-73641134D01*
X149018425Y-73643612D01*
X149027447Y-73651318D01*
X149059679Y-73681586D01*
X149066628Y-73685406D01*
X149077432Y-73691346D01*
X149093956Y-73702199D01*
X149109959Y-73714613D01*
X149126583Y-73721807D01*
X149148320Y-73731214D01*
X149202894Y-73776626D01*
X149224253Y-73844333D01*
X149206732Y-73910988D01*
X149145354Y-74014775D01*
X149139107Y-74029210D01*
X149100061Y-74163605D01*
X149100101Y-74177706D01*
X149107370Y-74181000D01*
X150703000Y-74181000D01*
X150771121Y-74201002D01*
X150817614Y-74254658D01*
X150829000Y-74307000D01*
X150829000Y-74563000D01*
X150808998Y-74631121D01*
X150755342Y-74677614D01*
X150703000Y-74689000D01*
X149113122Y-74689000D01*
X149099591Y-74692973D01*
X149098456Y-74700871D01*
X149139107Y-74840790D01*
X149145352Y-74855221D01*
X149221911Y-74984677D01*
X149227871Y-74992360D01*
X149253820Y-75058444D01*
X149239922Y-75128067D01*
X149229579Y-75144161D01*
X149225547Y-75148193D01*
X149140855Y-75291399D01*
X149138644Y-75299010D01*
X149138643Y-75299012D01*
X149133523Y-75316635D01*
X149094438Y-75451169D01*
X149093934Y-75457574D01*
X149093933Y-75457579D01*
X149092530Y-75475405D01*
X149091500Y-75488498D01*
X149091500Y-75921502D01*
X149094438Y-75958831D01*
X149140855Y-76118601D01*
X149144892Y-76125426D01*
X149145248Y-76126250D01*
X149153946Y-76196712D01*
X149118707Y-76265388D01*
X148896859Y-76487236D01*
X148834547Y-76521262D01*
X148820769Y-76523468D01*
X148790765Y-76526581D01*
X148790761Y-76526582D01*
X148783907Y-76527293D01*
X148777371Y-76529474D01*
X148777369Y-76529474D01*
X148644605Y-76573768D01*
X148618893Y-76582346D01*
X148470969Y-76673884D01*
X148348071Y-76796997D01*
X148346566Y-76799438D01*
X148290142Y-76839443D01*
X148219219Y-76842675D01*
X148175117Y-76822225D01*
X148174300Y-76821632D01*
X148156752Y-76808882D01*
X148150724Y-76806198D01*
X148150722Y-76806197D01*
X147988319Y-76733891D01*
X147988318Y-76733891D01*
X147982288Y-76731206D01*
X147888887Y-76711353D01*
X147801944Y-76692872D01*
X147801939Y-76692872D01*
X147795487Y-76691500D01*
X147604513Y-76691500D01*
X147598061Y-76692872D01*
X147598056Y-76692872D01*
X147511113Y-76711353D01*
X147417712Y-76731206D01*
X147411682Y-76733891D01*
X147411681Y-76733891D01*
X147249278Y-76806197D01*
X147249276Y-76806198D01*
X147243248Y-76808882D01*
X147237907Y-76812762D01*
X147237906Y-76812763D01*
X147196736Y-76842675D01*
X147088747Y-76921134D01*
X147084326Y-76926044D01*
X147084325Y-76926045D01*
X147077261Y-76933891D01*
X146960960Y-77063056D01*
X146865473Y-77228444D01*
X146806458Y-77410072D01*
X146805768Y-77416633D01*
X146805768Y-77416635D01*
X146804900Y-77424898D01*
X146786496Y-77600000D01*
X146787186Y-77606565D01*
X146805009Y-77776138D01*
X146806458Y-77789928D01*
X146865473Y-77971556D01*
X146960960Y-78136944D01*
X146965378Y-78141851D01*
X146965379Y-78141852D01*
X147071562Y-78259780D01*
X147088747Y-78278866D01*
X147243248Y-78391118D01*
X147249276Y-78393802D01*
X147249278Y-78393803D01*
X147383365Y-78453502D01*
X147417712Y-78468794D01*
X147511112Y-78488647D01*
X147598056Y-78507128D01*
X147598061Y-78507128D01*
X147604513Y-78508500D01*
X147795487Y-78508500D01*
X147801939Y-78507128D01*
X147801944Y-78507128D01*
X147888888Y-78488647D01*
X147982288Y-78468794D01*
X148016635Y-78453502D01*
X148150722Y-78393803D01*
X148150724Y-78393802D01*
X148156752Y-78391118D01*
X148289436Y-78294717D01*
X148356304Y-78270859D01*
X148425455Y-78286939D01*
X148452510Y-78307477D01*
X148471997Y-78326929D01*
X148620080Y-78418209D01*
X148785191Y-78472974D01*
X148792027Y-78473674D01*
X148792030Y-78473675D01*
X148839370Y-78478525D01*
X148887928Y-78483500D01*
X149562072Y-78483500D01*
X149565318Y-78483163D01*
X149565322Y-78483163D01*
X149659235Y-78473419D01*
X149659239Y-78473418D01*
X149666093Y-78472707D01*
X149672629Y-78470526D01*
X149672631Y-78470526D01*
X149805395Y-78426232D01*
X149831107Y-78417654D01*
X149979031Y-78326116D01*
X150011231Y-78293859D01*
X150073512Y-78259780D01*
X150144332Y-78264782D01*
X150189422Y-78293704D01*
X150217129Y-78321363D01*
X150228540Y-78330375D01*
X150364063Y-78413912D01*
X150377241Y-78420056D01*
X150528766Y-78470315D01*
X150542132Y-78473181D01*
X150634770Y-78482672D01*
X150641185Y-78483000D01*
X150702885Y-78483000D01*
X150718124Y-78478525D01*
X150719329Y-78477135D01*
X150721000Y-78469452D01*
X150721000Y-77372000D01*
X150741002Y-77303879D01*
X150794658Y-77257386D01*
X150847000Y-77246000D01*
X151103000Y-77246000D01*
X151171121Y-77266002D01*
X151217614Y-77319658D01*
X151229000Y-77372000D01*
X151229000Y-78464885D01*
X151233475Y-78480124D01*
X151234865Y-78481329D01*
X151242548Y-78483000D01*
X151308766Y-78483000D01*
X151315282Y-78482663D01*
X151409132Y-78472925D01*
X151422528Y-78470032D01*
X151525624Y-78435636D01*
X151596573Y-78433052D01*
X151657657Y-78469235D01*
X151689482Y-78532699D01*
X151691500Y-78555160D01*
X151691500Y-78865500D01*
X151671498Y-78933621D01*
X151617842Y-78980114D01*
X151565500Y-78991500D01*
X151344874Y-78991500D01*
X151276753Y-78971498D01*
X151269327Y-78966339D01*
X151246705Y-78949385D01*
X151110316Y-78898255D01*
X151048134Y-78891500D01*
X150051866Y-78891500D01*
X149989684Y-78898255D01*
X149853295Y-78949385D01*
X149736739Y-79036739D01*
X149649385Y-79153295D01*
X149598255Y-79289684D01*
X149591500Y-79351866D01*
X149591500Y-79666752D01*
X149585865Y-79704011D01*
X149557318Y-79796232D01*
X149536645Y-79992925D01*
X149540453Y-80034766D01*
X149549588Y-80135140D01*
X149554570Y-80189888D01*
X149556308Y-80195794D01*
X149556309Y-80195798D01*
X149586374Y-80297950D01*
X149591500Y-80333525D01*
X149591500Y-80648134D01*
X149598255Y-80710316D01*
X149649385Y-80846705D01*
X149736739Y-80963261D01*
X149853295Y-81050615D01*
X149861696Y-81053764D01*
X149862930Y-81054440D01*
X149913076Y-81104699D01*
X149928089Y-81174090D01*
X149903203Y-81240582D01*
X149891593Y-81253977D01*
X149778637Y-81367129D01*
X149769625Y-81378540D01*
X149686088Y-81514063D01*
X149679944Y-81527241D01*
X149629685Y-81678766D01*
X149626819Y-81692132D01*
X149617328Y-81784770D01*
X149617000Y-81791185D01*
X149617000Y-81852885D01*
X149621475Y-81868124D01*
X149622865Y-81869329D01*
X149630548Y-81871000D01*
X151433885Y-81871000D01*
X151478280Y-81857965D01*
X151488957Y-81851103D01*
X151524452Y-81846000D01*
X153889884Y-81846000D01*
X153905123Y-81841525D01*
X153906328Y-81840135D01*
X153907999Y-81832452D01*
X153907999Y-81727905D01*
X153907662Y-81721386D01*
X153897743Y-81625794D01*
X153894851Y-81612400D01*
X153843412Y-81458216D01*
X153837239Y-81445038D01*
X153751937Y-81307193D01*
X153742901Y-81295792D01*
X153628172Y-81181262D01*
X153619238Y-81174206D01*
X153578177Y-81116288D01*
X153574947Y-81045365D01*
X153610574Y-80983954D01*
X153618407Y-80977154D01*
X153624348Y-80973478D01*
X153749305Y-80848303D01*
X153842115Y-80697738D01*
X153897797Y-80529861D01*
X153908500Y-80425400D01*
X153908500Y-79674600D01*
X153902811Y-79619771D01*
X153898238Y-79575692D01*
X153898237Y-79575688D01*
X153897526Y-79568834D01*
X153879775Y-79515626D01*
X153843868Y-79408002D01*
X153841550Y-79401054D01*
X153748478Y-79250652D01*
X153743296Y-79245479D01*
X153738751Y-79239745D01*
X153740424Y-79238419D01*
X153711402Y-79185375D01*
X153708500Y-79158489D01*
X153708500Y-72780436D01*
X153728502Y-72712315D01*
X153768197Y-72673292D01*
X153797805Y-72654970D01*
X153797812Y-72654964D01*
X153804031Y-72651116D01*
X153809200Y-72645938D01*
X153921758Y-72533184D01*
X153921762Y-72533179D01*
X153926929Y-72528003D01*
X153961748Y-72471516D01*
X154014369Y-72386150D01*
X154014370Y-72386148D01*
X154018209Y-72379920D01*
X154072974Y-72214809D01*
X154074704Y-72197929D01*
X154079734Y-72148831D01*
X154083500Y-72112072D01*
X154083500Y-72026471D01*
X154089004Y-71989637D01*
X154093387Y-71975302D01*
X154101760Y-71892872D01*
X154112752Y-71784666D01*
X154112752Y-71784661D01*
X154113374Y-71778538D01*
X154100994Y-71647579D01*
X154095341Y-71587771D01*
X154095341Y-71587769D01*
X154094761Y-71581638D01*
X154088751Y-71561476D01*
X154083500Y-71525481D01*
X154083500Y-71437928D01*
X154083163Y-71434678D01*
X154073419Y-71340765D01*
X154073418Y-71340761D01*
X154072707Y-71333907D01*
X154068203Y-71320405D01*
X154019972Y-71175841D01*
X154017654Y-71168893D01*
X153966668Y-71086500D01*
X153929969Y-71027195D01*
X153929968Y-71027194D01*
X153926116Y-71020969D01*
X153894213Y-70989121D01*
X153860134Y-70926841D01*
X153865137Y-70856021D01*
X153894057Y-70810933D01*
X153921757Y-70783184D01*
X153926929Y-70778003D01*
X153968873Y-70709958D01*
X154014369Y-70636150D01*
X154014370Y-70636148D01*
X154018209Y-70629920D01*
X154072974Y-70464809D01*
X154075763Y-70437595D01*
X154080843Y-70388009D01*
X154085692Y-70364014D01*
X154112788Y-70275389D01*
X154113136Y-70274272D01*
X154139371Y-70191570D01*
X154141235Y-70185694D01*
X154141828Y-70180403D01*
X154143388Y-70175302D01*
X154152795Y-70082689D01*
X154152915Y-70081569D01*
X154158500Y-70031773D01*
X154158500Y-70028244D01*
X154158555Y-70027261D01*
X154159004Y-70021556D01*
X154162752Y-69984664D01*
X154162752Y-69984661D01*
X154163374Y-69978537D01*
X154159059Y-69932888D01*
X154158500Y-69921031D01*
X154158500Y-67274899D01*
X154178502Y-67206778D01*
X154218197Y-67167755D01*
X154243120Y-67152332D01*
X154249348Y-67148478D01*
X154374305Y-67023303D01*
X154467115Y-66872738D01*
X154522797Y-66704861D01*
X154533500Y-66600400D01*
X154533500Y-65799600D01*
X154533163Y-65796350D01*
X154523238Y-65700692D01*
X154523237Y-65700688D01*
X154522526Y-65693834D01*
X154466550Y-65526054D01*
X154389042Y-65400803D01*
X154370204Y-65332351D01*
X154391365Y-65264581D01*
X154445806Y-65219010D01*
X154496186Y-65208500D01*
X154930074Y-65208500D01*
X154998195Y-65228502D01*
X155019169Y-65245404D01*
X155154595Y-65380829D01*
X155188620Y-65443141D01*
X155191500Y-65469925D01*
X155191500Y-80030235D01*
X155171498Y-80098356D01*
X155160456Y-80113055D01*
X155138250Y-80138511D01*
X155060350Y-80258696D01*
X154999252Y-80390924D01*
X154958216Y-80528142D01*
X154957554Y-80532574D01*
X154957553Y-80532577D01*
X154940284Y-80648134D01*
X154936688Y-80672196D01*
X154935813Y-80815417D01*
X154936148Y-80817861D01*
X154936271Y-80821656D01*
X154936271Y-81250000D01*
X154938156Y-81276351D01*
X154940362Y-81307193D01*
X154941500Y-81323111D01*
X154950750Y-81354611D01*
X154952167Y-81359438D01*
X154955988Y-81412868D01*
X154936271Y-81550000D01*
X154936271Y-82040008D01*
X154936269Y-82040778D01*
X154936007Y-82083726D01*
X154935813Y-82115417D01*
X154939860Y-82144963D01*
X154950055Y-82219388D01*
X154955580Y-82259727D01*
X154994937Y-82397436D01*
X155054414Y-82530398D01*
X155056800Y-82534180D01*
X155056804Y-82534187D01*
X155089679Y-82586290D01*
X155130840Y-82651526D01*
X155225246Y-82762452D01*
X155248907Y-82783348D01*
X155286725Y-82843433D01*
X155291500Y-82877790D01*
X155291500Y-84221497D01*
X155271498Y-84289618D01*
X155254595Y-84310592D01*
X154610592Y-84954595D01*
X154548280Y-84988621D01*
X154521497Y-84991500D01*
X154251866Y-84991500D01*
X154189684Y-84998255D01*
X154053295Y-85049385D01*
X153936739Y-85136739D01*
X153849385Y-85253295D01*
X153798255Y-85389684D01*
X153791500Y-85451866D01*
X153791500Y-86748134D01*
X153798255Y-86810316D01*
X153849385Y-86946705D01*
X153936739Y-87063261D01*
X154053295Y-87150615D01*
X154189684Y-87201745D01*
X154251866Y-87208500D01*
X155248134Y-87208500D01*
X155310316Y-87201745D01*
X155446705Y-87150615D01*
X155563261Y-87063261D01*
X155650615Y-86946705D01*
X155701745Y-86810316D01*
X155708500Y-86748134D01*
X155708500Y-86478503D01*
X155728502Y-86410382D01*
X155745405Y-86389408D01*
X156784832Y-85349981D01*
X156799865Y-85337140D01*
X156805913Y-85332746D01*
X156805914Y-85332745D01*
X156811253Y-85328866D01*
X156857016Y-85278041D01*
X156861557Y-85273256D01*
X156876072Y-85258741D01*
X156888994Y-85242784D01*
X156893278Y-85237769D01*
X156934619Y-85191855D01*
X156934623Y-85191850D01*
X156939040Y-85186944D01*
X156942340Y-85181228D01*
X156942343Y-85181224D01*
X156946073Y-85174763D01*
X156957273Y-85158466D01*
X156961975Y-85152660D01*
X156961976Y-85152658D01*
X156966129Y-85147530D01*
X156971628Y-85136739D01*
X156997188Y-85086574D01*
X157000336Y-85080777D01*
X157031224Y-85027277D01*
X157034527Y-85021556D01*
X157038875Y-85008174D01*
X157046438Y-84989915D01*
X157052830Y-84977370D01*
X157070537Y-84911288D01*
X157072409Y-84904969D01*
X157091501Y-84846210D01*
X157091501Y-84846209D01*
X157093542Y-84839928D01*
X157095014Y-84825925D01*
X157098615Y-84806496D01*
X157102257Y-84792903D01*
X157103300Y-84772999D01*
X157105836Y-84724616D01*
X157106353Y-84718042D01*
X157108156Y-84700884D01*
X157108156Y-84700882D01*
X157108500Y-84697610D01*
X157108500Y-84677074D01*
X157108673Y-84670480D01*
X157111907Y-84608782D01*
X157111907Y-84608777D01*
X157112252Y-84602190D01*
X157110051Y-84588293D01*
X157108500Y-84568583D01*
X157108500Y-83579500D01*
X157128502Y-83511379D01*
X157182158Y-83464886D01*
X157234500Y-83453500D01*
X157563709Y-83453500D01*
X157631830Y-83473502D01*
X157678323Y-83527158D01*
X157688972Y-83565892D01*
X157693255Y-83605316D01*
X157744385Y-83741705D01*
X157831739Y-83858261D01*
X157948295Y-83945615D01*
X158084684Y-83996745D01*
X158146866Y-84003500D01*
X159253134Y-84003500D01*
X159315316Y-83996745D01*
X159322716Y-83993971D01*
X159330400Y-83992144D01*
X159330797Y-83993816D01*
X159392079Y-83989330D01*
X159454447Y-84023252D01*
X159488576Y-84085507D01*
X159491500Y-84112495D01*
X159491500Y-92158955D01*
X159471498Y-92227076D01*
X159417842Y-92273569D01*
X159347568Y-92283673D01*
X159282988Y-92254179D01*
X159253233Y-92216158D01*
X159217561Y-92146147D01*
X159217557Y-92146140D01*
X159216062Y-92143206D01*
X159004357Y-91817207D01*
X158759734Y-91515124D01*
X158484876Y-91240266D01*
X158182793Y-90995643D01*
X157856795Y-90783938D01*
X157853861Y-90782443D01*
X157853854Y-90782439D01*
X157513393Y-90608966D01*
X157510453Y-90607468D01*
X157147562Y-90468167D01*
X156772099Y-90367562D01*
X156568207Y-90335268D01*
X156391424Y-90307268D01*
X156391416Y-90307267D01*
X156388176Y-90306754D01*
X156000000Y-90286411D01*
X155611824Y-90306754D01*
X155608584Y-90307267D01*
X155608576Y-90307268D01*
X155431793Y-90335268D01*
X155227901Y-90367562D01*
X154852438Y-90468167D01*
X154489547Y-90607468D01*
X154486607Y-90608966D01*
X154146147Y-90782439D01*
X154146140Y-90782443D01*
X154143206Y-90783938D01*
X153817207Y-90995643D01*
X153515124Y-91240266D01*
X153240266Y-91515124D01*
X152995643Y-91817207D01*
X152783938Y-92143206D01*
X152782443Y-92146140D01*
X152782439Y-92146147D01*
X152712366Y-92283673D01*
X152607468Y-92489547D01*
X152468167Y-92852438D01*
X152367562Y-93227901D01*
X152306754Y-93611824D01*
X152286411Y-94000000D01*
X152306754Y-94388176D01*
X152367562Y-94772099D01*
X152468167Y-95147562D01*
X152607468Y-95510453D01*
X152608966Y-95513393D01*
X152720468Y-95732227D01*
X152783938Y-95856794D01*
X152995643Y-96182793D01*
X153240266Y-96484876D01*
X153515124Y-96759734D01*
X153817207Y-97004357D01*
X154143205Y-97216062D01*
X154146139Y-97217557D01*
X154146146Y-97217561D01*
X154216157Y-97253233D01*
X154267772Y-97301981D01*
X154284838Y-97370896D01*
X154261937Y-97438098D01*
X154206340Y-97482250D01*
X154158954Y-97491500D01*
X129905712Y-97491500D01*
X129837591Y-97471498D01*
X129791098Y-97417842D01*
X129779712Y-97365470D01*
X129782054Y-87608766D01*
X148517000Y-87608766D01*
X148517337Y-87615282D01*
X148527075Y-87709132D01*
X148529968Y-87722528D01*
X148580488Y-87873953D01*
X148586653Y-87887115D01*
X148670426Y-88022492D01*
X148679460Y-88033890D01*
X148792129Y-88146363D01*
X148803540Y-88155375D01*
X148939063Y-88238912D01*
X148952241Y-88245056D01*
X149103766Y-88295315D01*
X149117132Y-88298181D01*
X149209770Y-88307672D01*
X149216185Y-88308000D01*
X149227885Y-88308000D01*
X149243124Y-88303525D01*
X149244329Y-88302135D01*
X149246000Y-88294452D01*
X149246000Y-88289885D01*
X149754000Y-88289885D01*
X149758475Y-88305124D01*
X149759865Y-88306329D01*
X149767548Y-88308000D01*
X149783766Y-88308000D01*
X149790282Y-88307663D01*
X149884132Y-88297925D01*
X149897528Y-88295032D01*
X150048953Y-88244512D01*
X150062115Y-88238347D01*
X150197492Y-88154574D01*
X150208890Y-88145540D01*
X150321363Y-88032871D01*
X150330375Y-88021460D01*
X150413912Y-87885937D01*
X150420056Y-87872759D01*
X150470315Y-87721234D01*
X150473181Y-87707868D01*
X150482672Y-87615230D01*
X150483000Y-87608815D01*
X150483000Y-87547115D01*
X150478525Y-87531876D01*
X150477135Y-87530671D01*
X150469452Y-87529000D01*
X149772115Y-87529000D01*
X149756876Y-87533475D01*
X149755671Y-87534865D01*
X149754000Y-87542548D01*
X149754000Y-88289885D01*
X149246000Y-88289885D01*
X149246000Y-87547115D01*
X149241525Y-87531876D01*
X149240135Y-87530671D01*
X149232452Y-87529000D01*
X148535115Y-87529000D01*
X148519876Y-87533475D01*
X148518671Y-87534865D01*
X148517000Y-87542548D01*
X148517000Y-87608766D01*
X129782054Y-87608766D01*
X129782319Y-86506308D01*
X129797905Y-86445638D01*
X129803964Y-86434618D01*
X129803967Y-86434611D01*
X129806934Y-86429214D01*
X129808546Y-86424132D01*
X129811063Y-86419438D01*
X129838263Y-86330470D01*
X129838609Y-86329359D01*
X129845629Y-86307232D01*
X129866736Y-86240695D01*
X129867330Y-86235399D01*
X129868888Y-86230303D01*
X129878291Y-86137744D01*
X129878412Y-86136608D01*
X129884001Y-86086774D01*
X129884001Y-86083247D01*
X129884056Y-86082262D01*
X129884503Y-86076582D01*
X129888875Y-86033539D01*
X129884560Y-85987892D01*
X129884001Y-85976034D01*
X129884001Y-83691841D01*
X129884738Y-83678233D01*
X129888160Y-83646737D01*
X129888160Y-83646733D01*
X129888825Y-83640612D01*
X129886809Y-83617568D01*
X129884451Y-83590610D01*
X129884122Y-83585785D01*
X129884001Y-83583314D01*
X129884001Y-83580232D01*
X129881329Y-83552988D01*
X129879810Y-83537490D01*
X129879688Y-83536175D01*
X129874205Y-83473502D01*
X129871588Y-83443588D01*
X129870101Y-83438469D01*
X129869581Y-83433168D01*
X129842719Y-83344195D01*
X129842363Y-83342995D01*
X129816410Y-83253664D01*
X129813956Y-83248930D01*
X129812417Y-83243832D01*
X129797872Y-83216476D01*
X129783124Y-83157294D01*
X129783412Y-81957885D01*
X133316500Y-81957885D01*
X133320975Y-81973124D01*
X133322365Y-81974329D01*
X133330048Y-81976000D01*
X134964885Y-81976000D01*
X134980124Y-81971525D01*
X134981329Y-81970135D01*
X134983000Y-81962452D01*
X134983000Y-81957885D01*
X135491000Y-81957885D01*
X135495475Y-81973124D01*
X135496865Y-81974329D01*
X135504548Y-81976000D01*
X137139384Y-81976000D01*
X137154623Y-81971525D01*
X137155828Y-81970135D01*
X137157499Y-81962452D01*
X137157499Y-81485331D01*
X137157129Y-81478510D01*
X137151605Y-81427648D01*
X137147979Y-81412396D01*
X137102824Y-81291946D01*
X137094286Y-81276351D01*
X137017785Y-81174276D01*
X137005224Y-81161715D01*
X136903149Y-81085214D01*
X136887554Y-81076676D01*
X136767106Y-81031522D01*
X136751851Y-81027895D01*
X136700986Y-81022369D01*
X136694172Y-81022000D01*
X135509115Y-81022000D01*
X135493876Y-81026475D01*
X135492671Y-81027865D01*
X135491000Y-81035548D01*
X135491000Y-81957885D01*
X134983000Y-81957885D01*
X134983000Y-81040116D01*
X134978525Y-81024877D01*
X134977135Y-81023672D01*
X134969452Y-81022001D01*
X133779831Y-81022001D01*
X133773010Y-81022371D01*
X133722148Y-81027895D01*
X133706896Y-81031521D01*
X133586446Y-81076676D01*
X133570851Y-81085214D01*
X133468776Y-81161715D01*
X133456215Y-81174276D01*
X133379714Y-81276351D01*
X133371176Y-81291946D01*
X133326022Y-81412394D01*
X133322395Y-81427649D01*
X133316869Y-81478514D01*
X133316500Y-81485328D01*
X133316500Y-81957885D01*
X129783412Y-81957885D01*
X129784778Y-76265388D01*
X129785973Y-71286035D01*
X129805991Y-71217921D01*
X129859658Y-71171441D01*
X129929935Y-71161354D01*
X129994508Y-71190862D01*
X130001068Y-71196972D01*
X135481747Y-76677651D01*
X135515773Y-76739963D01*
X135510708Y-76810778D01*
X135468161Y-76867614D01*
X135407243Y-76891500D01*
X135404513Y-76891500D01*
X135217712Y-76931206D01*
X135211682Y-76933891D01*
X135211681Y-76933891D01*
X135049278Y-77006197D01*
X135049276Y-77006198D01*
X135043248Y-77008882D01*
X134888747Y-77121134D01*
X134884326Y-77126044D01*
X134884325Y-77126045D01*
X134767301Y-77256014D01*
X134760960Y-77263056D01*
X134665473Y-77428444D01*
X134606458Y-77610072D01*
X134605768Y-77616633D01*
X134605768Y-77616635D01*
X134590685Y-77760144D01*
X134586496Y-77800000D01*
X134587186Y-77806565D01*
X134605129Y-77977279D01*
X134606458Y-77989928D01*
X134665473Y-78171556D01*
X134760960Y-78336944D01*
X134765378Y-78341851D01*
X134765379Y-78341852D01*
X134884073Y-78473675D01*
X134888747Y-78478866D01*
X135043248Y-78591118D01*
X135049276Y-78593802D01*
X135049278Y-78593803D01*
X135211681Y-78666109D01*
X135217712Y-78668794D01*
X135311112Y-78688647D01*
X135398056Y-78707128D01*
X135398061Y-78707128D01*
X135404513Y-78708500D01*
X135595487Y-78708500D01*
X135601939Y-78707128D01*
X135601944Y-78707128D01*
X135688888Y-78688647D01*
X135782288Y-78668794D01*
X135788319Y-78666109D01*
X135950722Y-78593803D01*
X135950724Y-78593802D01*
X135956752Y-78591118D01*
X136070466Y-78508500D01*
X136105563Y-78483000D01*
X136111253Y-78478866D01*
X136115668Y-78473963D01*
X136120580Y-78469540D01*
X136121705Y-78470789D01*
X136175014Y-78437949D01*
X136208200Y-78433500D01*
X139240500Y-78433500D01*
X139308621Y-78453502D01*
X139355114Y-78507158D01*
X139366500Y-78559500D01*
X139366500Y-81482261D01*
X139346498Y-81550382D01*
X139292842Y-81596875D01*
X139222568Y-81606979D01*
X139214089Y-81605462D01*
X139197916Y-81601995D01*
X139103562Y-81592328D01*
X139097145Y-81592000D01*
X138872115Y-81592000D01*
X138856876Y-81596475D01*
X138855671Y-81597865D01*
X138854000Y-81605548D01*
X138854000Y-82803000D01*
X138833998Y-82871121D01*
X138780342Y-82917614D01*
X138728000Y-82929000D01*
X138472000Y-82929000D01*
X138403879Y-82908998D01*
X138357386Y-82855342D01*
X138346000Y-82803000D01*
X138346000Y-81610116D01*
X138341525Y-81594877D01*
X138340135Y-81593672D01*
X138332452Y-81592001D01*
X138102905Y-81592001D01*
X138096386Y-81592338D01*
X138000794Y-81602257D01*
X137987400Y-81605149D01*
X137833216Y-81656588D01*
X137820038Y-81662761D01*
X137682193Y-81748063D01*
X137670792Y-81757099D01*
X137556261Y-81871829D01*
X137547249Y-81883240D01*
X137462184Y-82021243D01*
X137456037Y-82034424D01*
X137404862Y-82188710D01*
X137401995Y-82202086D01*
X137392328Y-82296438D01*
X137392000Y-82302855D01*
X137392000Y-82424401D01*
X137371998Y-82492522D01*
X137318342Y-82539015D01*
X137248068Y-82549119D01*
X137183488Y-82519625D01*
X137174275Y-82505289D01*
X137151635Y-82485671D01*
X137143952Y-82484000D01*
X133334616Y-82484000D01*
X133319377Y-82488475D01*
X133318172Y-82489865D01*
X133316501Y-82497548D01*
X133316501Y-82974669D01*
X133316871Y-82981490D01*
X133322395Y-83032352D01*
X133326021Y-83047604D01*
X133371176Y-83168054D01*
X133379714Y-83183649D01*
X133456215Y-83285724D01*
X133468776Y-83298285D01*
X133570851Y-83374786D01*
X133594318Y-83387634D01*
X133593083Y-83389889D01*
X133639014Y-83424392D01*
X133663714Y-83490954D01*
X133648507Y-83560303D01*
X133598221Y-83610421D01*
X133589766Y-83614282D01*
X133586202Y-83616233D01*
X133577795Y-83619385D01*
X133461239Y-83706739D01*
X133373885Y-83823295D01*
X133322755Y-83959684D01*
X133316000Y-84021866D01*
X133316000Y-85518134D01*
X133322755Y-85580316D01*
X133373885Y-85716705D01*
X133461239Y-85833261D01*
X133577795Y-85920615D01*
X133714184Y-85971745D01*
X133776366Y-85978500D01*
X136697634Y-85978500D01*
X136759816Y-85971745D01*
X136896205Y-85920615D01*
X137012761Y-85833261D01*
X137018142Y-85826081D01*
X137024492Y-85819731D01*
X137026127Y-85821366D01*
X137072859Y-85786421D01*
X137116829Y-85778500D01*
X137916610Y-85778500D01*
X137956276Y-85784907D01*
X137995139Y-85797797D01*
X138001975Y-85798497D01*
X138001978Y-85798498D01*
X138045031Y-85802909D01*
X138099600Y-85808500D01*
X139100400Y-85808500D01*
X139103646Y-85808163D01*
X139103650Y-85808163D01*
X139199308Y-85798238D01*
X139199312Y-85798237D01*
X139206166Y-85797526D01*
X139212702Y-85795345D01*
X139212704Y-85795345D01*
X139243783Y-85784976D01*
X139283659Y-85778500D01*
X140115500Y-85778500D01*
X140183621Y-85798502D01*
X140230114Y-85852158D01*
X140241500Y-85904500D01*
X140241500Y-86048134D01*
X140248255Y-86110316D01*
X140299385Y-86246705D01*
X140386739Y-86363261D01*
X140503295Y-86450615D01*
X140639684Y-86501745D01*
X140701866Y-86508500D01*
X146098134Y-86508500D01*
X146160316Y-86501745D01*
X146296705Y-86450615D01*
X146413261Y-86363261D01*
X146500615Y-86246705D01*
X146551745Y-86110316D01*
X146558500Y-86048134D01*
X146558500Y-85463667D01*
X146578502Y-85395546D01*
X146632158Y-85349053D01*
X146672204Y-85338268D01*
X146743618Y-85331265D01*
X146816795Y-85324090D01*
X146822696Y-85322308D01*
X146822698Y-85322308D01*
X146896015Y-85300172D01*
X147006131Y-85266926D01*
X147180758Y-85174076D01*
X147295154Y-85080777D01*
X147329249Y-85052970D01*
X147329252Y-85052967D01*
X147334024Y-85049075D01*
X147381349Y-84991869D01*
X147456163Y-84901435D01*
X147456165Y-84901431D01*
X147460092Y-84896685D01*
X147463022Y-84891265D01*
X147463026Y-84891260D01*
X147510168Y-84804072D01*
X147560163Y-84753663D01*
X147621004Y-84738000D01*
X147657885Y-84738000D01*
X147673124Y-84733525D01*
X147674329Y-84732135D01*
X147676000Y-84724452D01*
X147676000Y-84481998D01*
X147685591Y-84433780D01*
X147719839Y-84351098D01*
X147722999Y-84343469D01*
X147727327Y-84310592D01*
X147737962Y-84229813D01*
X147737962Y-84229812D01*
X147738500Y-84225726D01*
X148121500Y-84225726D01*
X148122038Y-84229812D01*
X148122038Y-84229813D01*
X148132673Y-84310592D01*
X148137001Y-84343469D01*
X148140161Y-84351098D01*
X148174409Y-84433780D01*
X148184000Y-84481998D01*
X148184000Y-84719884D01*
X148188475Y-84735123D01*
X148189865Y-84736328D01*
X148197548Y-84737999D01*
X148456970Y-84737999D01*
X148505189Y-84747591D01*
X148515985Y-84752063D01*
X148571266Y-84796612D01*
X148593686Y-84863975D01*
X148582543Y-84918860D01*
X148581791Y-84920080D01*
X148527026Y-85085191D01*
X148516500Y-85187928D01*
X148516500Y-85272515D01*
X148510867Y-85309767D01*
X148507318Y-85321232D01*
X148486645Y-85517925D01*
X148504570Y-85714888D01*
X148506308Y-85720794D01*
X148506309Y-85720798D01*
X148511374Y-85738006D01*
X148516500Y-85773581D01*
X148516500Y-85862072D01*
X148516837Y-85865318D01*
X148516837Y-85865322D01*
X148521231Y-85907665D01*
X148527293Y-85966093D01*
X148529474Y-85972629D01*
X148529474Y-85972631D01*
X148547749Y-86027408D01*
X148582346Y-86131107D01*
X148673884Y-86279031D01*
X148706141Y-86311231D01*
X148740220Y-86373512D01*
X148735218Y-86444332D01*
X148706296Y-86489422D01*
X148678637Y-86517129D01*
X148669625Y-86528540D01*
X148586088Y-86664063D01*
X148579944Y-86677241D01*
X148529685Y-86828766D01*
X148526819Y-86842132D01*
X148517328Y-86934770D01*
X148517000Y-86941185D01*
X148517000Y-87002885D01*
X148521475Y-87018124D01*
X148522865Y-87019329D01*
X148530548Y-87021000D01*
X150464883Y-87021000D01*
X150495891Y-87011895D01*
X150566887Y-87011895D01*
X150626614Y-87050278D01*
X150631022Y-87055745D01*
X150631358Y-87056081D01*
X150636739Y-87063261D01*
X150753295Y-87150615D01*
X150889684Y-87201745D01*
X150951866Y-87208500D01*
X151948134Y-87208500D01*
X152010316Y-87201745D01*
X152146705Y-87150615D01*
X152263261Y-87063261D01*
X152350615Y-86946705D01*
X152401745Y-86810316D01*
X152408500Y-86748134D01*
X152408500Y-86433299D01*
X152414266Y-86395620D01*
X152440122Y-86313113D01*
X152441965Y-86307232D01*
X152445029Y-86279031D01*
X152462659Y-86116737D01*
X152462659Y-86116733D01*
X152463324Y-86110612D01*
X152446087Y-85913587D01*
X152415461Y-85808172D01*
X152413503Y-85801432D01*
X152408500Y-85766279D01*
X152408500Y-85451866D01*
X152401745Y-85389684D01*
X152350615Y-85253295D01*
X152263261Y-85136739D01*
X152146705Y-85049385D01*
X152010316Y-84998255D01*
X151948134Y-84991500D01*
X151819924Y-84991500D01*
X151751803Y-84971498D01*
X151730829Y-84954595D01*
X151631855Y-84855621D01*
X151622753Y-84845478D01*
X151602897Y-84820782D01*
X151599032Y-84815975D01*
X151560578Y-84783708D01*
X151556931Y-84780528D01*
X151555119Y-84778885D01*
X151552925Y-84776691D01*
X151519654Y-84749361D01*
X151518799Y-84748651D01*
X151492620Y-84726684D01*
X151453294Y-84667574D01*
X151452168Y-84596587D01*
X151466352Y-84564047D01*
X151514369Y-84486150D01*
X151514370Y-84486148D01*
X151518209Y-84479920D01*
X151572974Y-84314809D01*
X151583500Y-84212072D01*
X151583500Y-83537928D01*
X151582383Y-83527158D01*
X151573419Y-83440765D01*
X151573418Y-83440761D01*
X151572707Y-83433907D01*
X151558022Y-83389889D01*
X151523269Y-83285724D01*
X151517654Y-83268893D01*
X151426116Y-83120969D01*
X151393859Y-83088769D01*
X151359780Y-83026488D01*
X151364782Y-82955668D01*
X151393704Y-82910578D01*
X151421363Y-82882871D01*
X151433597Y-82867380D01*
X151491514Y-82826317D01*
X151562437Y-82823085D01*
X151623849Y-82858710D01*
X151639622Y-82879167D01*
X151648063Y-82892807D01*
X151657099Y-82904208D01*
X151771829Y-83018739D01*
X151783240Y-83027751D01*
X151921243Y-83112816D01*
X151934424Y-83118963D01*
X152088710Y-83170138D01*
X152102086Y-83173005D01*
X152196438Y-83182672D01*
X152202854Y-83183000D01*
X152427885Y-83183000D01*
X152443124Y-83178525D01*
X152444329Y-83177135D01*
X152446000Y-83169452D01*
X152446000Y-83164884D01*
X152954000Y-83164884D01*
X152958475Y-83180123D01*
X152959865Y-83181328D01*
X152967548Y-83182999D01*
X153197095Y-83182999D01*
X153203614Y-83182662D01*
X153299206Y-83172743D01*
X153312600Y-83169851D01*
X153466784Y-83118412D01*
X153479962Y-83112239D01*
X153617807Y-83026937D01*
X153629208Y-83017901D01*
X153743739Y-82903171D01*
X153752751Y-82891760D01*
X153837816Y-82753757D01*
X153843963Y-82740576D01*
X153895138Y-82586290D01*
X153898005Y-82572914D01*
X153907672Y-82478562D01*
X153908000Y-82472146D01*
X153908000Y-82372115D01*
X153903525Y-82356876D01*
X153902135Y-82355671D01*
X153894452Y-82354000D01*
X152972115Y-82354000D01*
X152956876Y-82358475D01*
X152955671Y-82359865D01*
X152954000Y-82367548D01*
X152954000Y-83164884D01*
X152446000Y-83164884D01*
X152446000Y-82372115D01*
X152441525Y-82356876D01*
X152440135Y-82355671D01*
X152432452Y-82354000D01*
X151641115Y-82354000D01*
X151596720Y-82367035D01*
X151586043Y-82373897D01*
X151550548Y-82379000D01*
X149635115Y-82379000D01*
X149606001Y-82387549D01*
X149569622Y-82410929D01*
X149498626Y-82410930D01*
X149438899Y-82372547D01*
X149434159Y-82366737D01*
X149345446Y-82251123D01*
X149333877Y-82239554D01*
X149221272Y-82153150D01*
X149207091Y-82144963D01*
X149075969Y-82090650D01*
X149060149Y-82086411D01*
X149022960Y-82081515D01*
X149008778Y-82083726D01*
X149005000Y-82096883D01*
X149005000Y-82595500D01*
X148984998Y-82663621D01*
X148931342Y-82710114D01*
X148879000Y-82721500D01*
X148755347Y-82721500D01*
X148687226Y-82701498D01*
X148640733Y-82647842D01*
X148632776Y-82592500D01*
X148630000Y-82592500D01*
X148630000Y-82097266D01*
X148625956Y-82083495D01*
X148612417Y-82081466D01*
X148574849Y-82086411D01*
X148559034Y-82090649D01*
X148506499Y-82112409D01*
X148458281Y-82122000D01*
X148202115Y-82122000D01*
X148186876Y-82126475D01*
X148185671Y-82127865D01*
X148184000Y-82135548D01*
X148184000Y-82574385D01*
X148188475Y-82589624D01*
X148189865Y-82590829D01*
X148197548Y-82592500D01*
X148316245Y-82592500D01*
X148384366Y-82612502D01*
X148430859Y-82666158D01*
X148440963Y-82736432D01*
X148411469Y-82801012D01*
X148392949Y-82818462D01*
X148294220Y-82894220D01*
X148281668Y-82910578D01*
X148273446Y-82921293D01*
X148216108Y-82963159D01*
X148208984Y-82965483D01*
X148186876Y-82971975D01*
X148185671Y-82973365D01*
X148184000Y-82981048D01*
X148184000Y-83028002D01*
X148174409Y-83076220D01*
X148158016Y-83115797D01*
X148137001Y-83166531D01*
X148135923Y-83174719D01*
X148124752Y-83259576D01*
X148121500Y-83284274D01*
X148121500Y-83575726D01*
X148122038Y-83579812D01*
X148122038Y-83579813D01*
X148130042Y-83640612D01*
X148137001Y-83693469D01*
X148140161Y-83701097D01*
X148140162Y-83701102D01*
X148142516Y-83706785D01*
X148150103Y-83777375D01*
X148142516Y-83803215D01*
X148140162Y-83808898D01*
X148140161Y-83808903D01*
X148137001Y-83816531D01*
X148121500Y-83934274D01*
X148121500Y-84225726D01*
X147738500Y-84225726D01*
X147738500Y-83934274D01*
X147722999Y-83816531D01*
X147719839Y-83808903D01*
X147719838Y-83808898D01*
X147717484Y-83803215D01*
X147709897Y-83732625D01*
X147717484Y-83706785D01*
X147719838Y-83701102D01*
X147719839Y-83701097D01*
X147722999Y-83693469D01*
X147729958Y-83640612D01*
X147737962Y-83579813D01*
X147737962Y-83579812D01*
X147738500Y-83575726D01*
X147738500Y-83284274D01*
X147735249Y-83259576D01*
X147724077Y-83174719D01*
X147722999Y-83166531D01*
X147719839Y-83158902D01*
X147719838Y-83158898D01*
X147717484Y-83153215D01*
X147709897Y-83082625D01*
X147717484Y-83056785D01*
X147719838Y-83051102D01*
X147719839Y-83051097D01*
X147722999Y-83043469D01*
X147738500Y-82925726D01*
X147738500Y-82634274D01*
X147722999Y-82516531D01*
X147718967Y-82506797D01*
X147717955Y-82501873D01*
X147717701Y-82500925D01*
X147717757Y-82500910D01*
X147709385Y-82460173D01*
X147707754Y-82331246D01*
X147669534Y-82025490D01*
X147680932Y-81955416D01*
X147705466Y-81920768D01*
X147919379Y-81706855D01*
X147929522Y-81697753D01*
X147954218Y-81677897D01*
X147959025Y-81674032D01*
X147991292Y-81635578D01*
X147994472Y-81631931D01*
X147996115Y-81630119D01*
X147998309Y-81627925D01*
X148025642Y-81594651D01*
X148026348Y-81593800D01*
X148026456Y-81593672D01*
X148086154Y-81522526D01*
X148088722Y-81517856D01*
X148092103Y-81513739D01*
X148136015Y-81431842D01*
X148136624Y-81430720D01*
X148138313Y-81427649D01*
X148156877Y-81393881D01*
X148178466Y-81354611D01*
X148178468Y-81354606D01*
X148181433Y-81349213D01*
X148183044Y-81344135D01*
X148185563Y-81339437D01*
X148212753Y-81250502D01*
X148213136Y-81249272D01*
X148236986Y-81174090D01*
X148241235Y-81160694D01*
X148241828Y-81155403D01*
X148243388Y-81150302D01*
X148252795Y-81057691D01*
X148252928Y-81056444D01*
X148258108Y-81010270D01*
X148258108Y-81010265D01*
X148258500Y-81006773D01*
X148258500Y-81003248D01*
X148258555Y-81002263D01*
X148259004Y-80996559D01*
X148262752Y-80959666D01*
X148262752Y-80959661D01*
X148263374Y-80953538D01*
X148259059Y-80907891D01*
X148258500Y-80896033D01*
X148258500Y-79950231D01*
X148257814Y-79943227D01*
X148244681Y-79809301D01*
X148244080Y-79803167D01*
X148240210Y-79790347D01*
X148213878Y-79703134D01*
X148208500Y-79666716D01*
X148208500Y-79351866D01*
X148201745Y-79289684D01*
X148150615Y-79153295D01*
X148063261Y-79036739D01*
X147946705Y-78949385D01*
X147810316Y-78898255D01*
X147748134Y-78891500D01*
X146751866Y-78891500D01*
X146689684Y-78898255D01*
X146553295Y-78949385D01*
X146436739Y-79036739D01*
X146349385Y-79153295D01*
X146298255Y-79289684D01*
X146291500Y-79351866D01*
X146291500Y-79666607D01*
X146285602Y-79704705D01*
X146258765Y-79789306D01*
X146241500Y-79943227D01*
X146241500Y-79966645D01*
X146221498Y-80034766D01*
X146167842Y-80081259D01*
X146104963Y-80091414D01*
X146104928Y-80092053D01*
X146101993Y-80091894D01*
X146101900Y-80091909D01*
X146101533Y-80091869D01*
X146101529Y-80091869D01*
X146098134Y-80091500D01*
X140759500Y-80091500D01*
X140691379Y-80071498D01*
X140644886Y-80017842D01*
X140633500Y-79965500D01*
X140633500Y-77871793D01*
X140635732Y-77848184D01*
X140635790Y-77847881D01*
X140635790Y-77847877D01*
X140637275Y-77840094D01*
X140633749Y-77784049D01*
X140633500Y-77776138D01*
X140633500Y-77760144D01*
X140631494Y-77744270D01*
X140630751Y-77736402D01*
X140627723Y-77688263D01*
X140627723Y-77688262D01*
X140627225Y-77680350D01*
X140624679Y-77672513D01*
X140619506Y-77649369D01*
X140619468Y-77649065D01*
X140619467Y-77649060D01*
X140618474Y-77641203D01*
X140615558Y-77633838D01*
X140615557Y-77633834D01*
X140597801Y-77588989D01*
X140595129Y-77581570D01*
X140577764Y-77528125D01*
X140573514Y-77521428D01*
X140573350Y-77521169D01*
X140562585Y-77500042D01*
X140562470Y-77499752D01*
X140562468Y-77499748D01*
X140559552Y-77492383D01*
X140558798Y-77491345D01*
X140544146Y-77424898D01*
X140568769Y-77358308D01*
X140625484Y-77315600D01*
X140669850Y-77307531D01*
X143547202Y-77307531D01*
X143558385Y-77308058D01*
X143565878Y-77309733D01*
X143573804Y-77309484D01*
X143573805Y-77309484D01*
X143633955Y-77307593D01*
X143637914Y-77307531D01*
X143665825Y-77307531D01*
X143669760Y-77307034D01*
X143669825Y-77307026D01*
X143681662Y-77306093D01*
X143713920Y-77305079D01*
X143717939Y-77304953D01*
X143725858Y-77304704D01*
X143745312Y-77299052D01*
X143764669Y-77295044D01*
X143776899Y-77293499D01*
X143776900Y-77293499D01*
X143784766Y-77292505D01*
X143792137Y-77289586D01*
X143792139Y-77289586D01*
X143825881Y-77276227D01*
X143837111Y-77272382D01*
X143871952Y-77262260D01*
X143871953Y-77262260D01*
X143879562Y-77260049D01*
X143886381Y-77256016D01*
X143886386Y-77256014D01*
X143896997Y-77249738D01*
X143914745Y-77241043D01*
X143933586Y-77233583D01*
X143940660Y-77228444D01*
X143969356Y-77207595D01*
X143979276Y-77201079D01*
X144010504Y-77182611D01*
X144010507Y-77182609D01*
X144017331Y-77178573D01*
X144031652Y-77164252D01*
X144046686Y-77151411D01*
X144056663Y-77144162D01*
X144063076Y-77139503D01*
X144068126Y-77133399D01*
X144068131Y-77133394D01*
X144091262Y-77105433D01*
X144099252Y-77096652D01*
X144645501Y-76550404D01*
X144707813Y-76516379D01*
X144734596Y-76513500D01*
X146516502Y-76513500D01*
X146518950Y-76513307D01*
X146518958Y-76513307D01*
X146547421Y-76511067D01*
X146547426Y-76511066D01*
X146553831Y-76510562D01*
X146653769Y-76481528D01*
X146705988Y-76466357D01*
X146705990Y-76466356D01*
X146713601Y-76464145D01*
X146742411Y-76447107D01*
X146849980Y-76383491D01*
X146849983Y-76383489D01*
X146856807Y-76379453D01*
X146974453Y-76261807D01*
X146978489Y-76254983D01*
X146978491Y-76254980D01*
X147055108Y-76125427D01*
X147059145Y-76118601D01*
X147105562Y-75958831D01*
X147108500Y-75921502D01*
X147108500Y-75488498D01*
X147107470Y-75475405D01*
X147106067Y-75457579D01*
X147106066Y-75457574D01*
X147105562Y-75451169D01*
X147066477Y-75316635D01*
X147061357Y-75299012D01*
X147061356Y-75299010D01*
X147059145Y-75291399D01*
X146974453Y-75148193D01*
X146971771Y-75145511D01*
X146946498Y-75081139D01*
X146960400Y-75011516D01*
X146970572Y-74995688D01*
X146974453Y-74991807D01*
X147059145Y-74848601D01*
X147061415Y-74840790D01*
X147086205Y-74755459D01*
X147105562Y-74688831D01*
X147108500Y-74651502D01*
X147108500Y-74218498D01*
X147105562Y-74181169D01*
X147076528Y-74081231D01*
X147061357Y-74029012D01*
X147061356Y-74029010D01*
X147059145Y-74021399D01*
X146974453Y-73878193D01*
X146971771Y-73875511D01*
X146946498Y-73811139D01*
X146960400Y-73741516D01*
X146970572Y-73725688D01*
X146974453Y-73721807D01*
X147059145Y-73578601D01*
X147062799Y-73566026D01*
X147080462Y-73505225D01*
X147105562Y-73418831D01*
X147106205Y-73410673D01*
X147108307Y-73383958D01*
X147108307Y-73383950D01*
X147108500Y-73381502D01*
X147108500Y-72948498D01*
X147108179Y-72944416D01*
X147106067Y-72917579D01*
X147106066Y-72917574D01*
X147105562Y-72911169D01*
X147059145Y-72751399D01*
X146974453Y-72608193D01*
X146971771Y-72605511D01*
X146946498Y-72541139D01*
X146960400Y-72471516D01*
X146970572Y-72455688D01*
X146974453Y-72451807D01*
X147059145Y-72308601D01*
X147105562Y-72148831D01*
X147108204Y-72115271D01*
X147108307Y-72113958D01*
X147108307Y-72113950D01*
X147108500Y-72111502D01*
X147108500Y-71678498D01*
X147107998Y-71672115D01*
X147106067Y-71647579D01*
X147106066Y-71647574D01*
X147105562Y-71641169D01*
X147059145Y-71481399D01*
X147028469Y-71429528D01*
X146978491Y-71345020D01*
X146978489Y-71345017D01*
X146974453Y-71338193D01*
X146856807Y-71220547D01*
X146849983Y-71216511D01*
X146849980Y-71216509D01*
X146720427Y-71139892D01*
X146720428Y-71139892D01*
X146713601Y-71135855D01*
X146705990Y-71133644D01*
X146705988Y-71133643D01*
X146606026Y-71104602D01*
X146553831Y-71089438D01*
X146547426Y-71088934D01*
X146547421Y-71088933D01*
X146518958Y-71086693D01*
X146518950Y-71086693D01*
X146516502Y-71086500D01*
X144733498Y-71086500D01*
X144731050Y-71086693D01*
X144731042Y-71086693D01*
X144702579Y-71088933D01*
X144702574Y-71088934D01*
X144696169Y-71089438D01*
X144643974Y-71104602D01*
X144544012Y-71133643D01*
X144544010Y-71133644D01*
X144536399Y-71135855D01*
X144529572Y-71139892D01*
X144529573Y-71139892D01*
X144400020Y-71216509D01*
X144400017Y-71216511D01*
X144393193Y-71220547D01*
X144387585Y-71226155D01*
X144381325Y-71231011D01*
X144380156Y-71229504D01*
X144326833Y-71258621D01*
X144300050Y-71261500D01*
X143683767Y-71261500D01*
X143672584Y-71260973D01*
X143665091Y-71259298D01*
X143657165Y-71259547D01*
X143657164Y-71259547D01*
X143597014Y-71261438D01*
X143593055Y-71261500D01*
X143565144Y-71261500D01*
X143561210Y-71261997D01*
X143561209Y-71261997D01*
X143561144Y-71262005D01*
X143549307Y-71262938D01*
X143517490Y-71263938D01*
X143513029Y-71264078D01*
X143505110Y-71264327D01*
X143487454Y-71269456D01*
X143485658Y-71269978D01*
X143466306Y-71273986D01*
X143459235Y-71274880D01*
X143446203Y-71276526D01*
X143438834Y-71279443D01*
X143438832Y-71279444D01*
X143405097Y-71292800D01*
X143393869Y-71296645D01*
X143351407Y-71308982D01*
X143344585Y-71313016D01*
X143344579Y-71313019D01*
X143333968Y-71319294D01*
X143316218Y-71327990D01*
X143304756Y-71332528D01*
X143304751Y-71332531D01*
X143297383Y-71335448D01*
X143290968Y-71340109D01*
X143261625Y-71361427D01*
X143251707Y-71367943D01*
X143233019Y-71378995D01*
X143213637Y-71390458D01*
X143199313Y-71404782D01*
X143184281Y-71417621D01*
X143179335Y-71421215D01*
X143174305Y-71424869D01*
X143174303Y-71424871D01*
X143167893Y-71429528D01*
X143167408Y-71430114D01*
X143106904Y-71460726D01*
X143036282Y-71453440D01*
X142980810Y-71409129D01*
X142958000Y-71336825D01*
X142957999Y-70955332D01*
X142957629Y-70948510D01*
X142952105Y-70897648D01*
X142948479Y-70882396D01*
X142903324Y-70761946D01*
X142894786Y-70746351D01*
X142818285Y-70644276D01*
X142805724Y-70631715D01*
X142703649Y-70555214D01*
X142688054Y-70546676D01*
X142567606Y-70501522D01*
X142552351Y-70497895D01*
X142501486Y-70492369D01*
X142494672Y-70492000D01*
X141972115Y-70492000D01*
X141956876Y-70496475D01*
X141955671Y-70497865D01*
X141954000Y-70505548D01*
X141954000Y-71628000D01*
X141933998Y-71696121D01*
X141880342Y-71742614D01*
X141828000Y-71754000D01*
X140460116Y-71754000D01*
X140444877Y-71758475D01*
X140443672Y-71759865D01*
X140442001Y-71767548D01*
X140442001Y-71852814D01*
X140421999Y-71920935D01*
X140368343Y-71967428D01*
X140298069Y-71977532D01*
X140264753Y-71967921D01*
X140188323Y-71933892D01*
X140188315Y-71933889D01*
X140182288Y-71931206D01*
X140088887Y-71911353D01*
X140001944Y-71892872D01*
X140001939Y-71892872D01*
X139995487Y-71891500D01*
X139804513Y-71891500D01*
X139798061Y-71892872D01*
X139798056Y-71892872D01*
X139711113Y-71911353D01*
X139617712Y-71931206D01*
X139611682Y-71933891D01*
X139611681Y-71933891D01*
X139587473Y-71944669D01*
X139443248Y-72008882D01*
X139443064Y-72008468D01*
X139378002Y-72024250D01*
X139310911Y-72001028D01*
X139267025Y-71945220D01*
X139258000Y-71898393D01*
X139258000Y-71672115D01*
X139253525Y-71656876D01*
X139252135Y-71655671D01*
X139244452Y-71654000D01*
X136760116Y-71654000D01*
X136744877Y-71658475D01*
X136743672Y-71659865D01*
X136742001Y-71667548D01*
X136742001Y-71944669D01*
X136742371Y-71951490D01*
X136747895Y-72002349D01*
X136752035Y-72019764D01*
X136752035Y-72078055D01*
X136751030Y-72082282D01*
X136748255Y-72089684D01*
X136747401Y-72097544D01*
X136745994Y-72103462D01*
X136710776Y-72165109D01*
X136647821Y-72197929D01*
X136577116Y-72191503D01*
X136534316Y-72163411D01*
X135598790Y-71227885D01*
X140442000Y-71227885D01*
X140446475Y-71243124D01*
X140447865Y-71244329D01*
X140455548Y-71246000D01*
X141427885Y-71246000D01*
X141443124Y-71241525D01*
X141444329Y-71240135D01*
X141446000Y-71232452D01*
X141446000Y-70510116D01*
X141441525Y-70494877D01*
X141440135Y-70493672D01*
X141432452Y-70492001D01*
X140905331Y-70492001D01*
X140898510Y-70492371D01*
X140847648Y-70497895D01*
X140832396Y-70501521D01*
X140711946Y-70546676D01*
X140696351Y-70555214D01*
X140594276Y-70631715D01*
X140581715Y-70644276D01*
X140505214Y-70746351D01*
X140496676Y-70761946D01*
X140451522Y-70882394D01*
X140447895Y-70897649D01*
X140442369Y-70948514D01*
X140442000Y-70955328D01*
X140442000Y-71227885D01*
X135598790Y-71227885D01*
X135498790Y-71127885D01*
X136742000Y-71127885D01*
X136746475Y-71143124D01*
X136747865Y-71144329D01*
X136755548Y-71146000D01*
X137727885Y-71146000D01*
X137743124Y-71141525D01*
X137744329Y-71140135D01*
X137746000Y-71132452D01*
X137746000Y-71127885D01*
X138254000Y-71127885D01*
X138258475Y-71143124D01*
X138259865Y-71144329D01*
X138267548Y-71146000D01*
X139239884Y-71146000D01*
X139255123Y-71141525D01*
X139256328Y-71140135D01*
X139257999Y-71132452D01*
X139257999Y-70855331D01*
X139257629Y-70848510D01*
X139252105Y-70797648D01*
X139248479Y-70782396D01*
X139203324Y-70661946D01*
X139194786Y-70646351D01*
X139118285Y-70544276D01*
X139105724Y-70531715D01*
X139003649Y-70455214D01*
X138988054Y-70446676D01*
X138867606Y-70401522D01*
X138852351Y-70397895D01*
X138801486Y-70392369D01*
X138794672Y-70392000D01*
X138272115Y-70392000D01*
X138256876Y-70396475D01*
X138255671Y-70397865D01*
X138254000Y-70405548D01*
X138254000Y-71127885D01*
X137746000Y-71127885D01*
X137746000Y-70410116D01*
X137741525Y-70394877D01*
X137740135Y-70393672D01*
X137732452Y-70392001D01*
X137205331Y-70392001D01*
X137198510Y-70392371D01*
X137147648Y-70397895D01*
X137132396Y-70401521D01*
X137011946Y-70446676D01*
X136996351Y-70455214D01*
X136894276Y-70531715D01*
X136881715Y-70544276D01*
X136805214Y-70646351D01*
X136796676Y-70661946D01*
X136751522Y-70782394D01*
X136747895Y-70797649D01*
X136742369Y-70848514D01*
X136742000Y-70855328D01*
X136742000Y-71127885D01*
X135498790Y-71127885D01*
X134845405Y-70474500D01*
X134811379Y-70412188D01*
X134808500Y-70385405D01*
X134808500Y-70012928D01*
X134808163Y-70009678D01*
X134798419Y-69915765D01*
X134798418Y-69915761D01*
X134797707Y-69908907D01*
X134742654Y-69743893D01*
X134651116Y-69595969D01*
X134620731Y-69565637D01*
X134533184Y-69478242D01*
X134533179Y-69478238D01*
X134528003Y-69473071D01*
X134521772Y-69469230D01*
X134468384Y-69436321D01*
X134420890Y-69383548D01*
X134408500Y-69329061D01*
X134408500Y-69270905D01*
X134428502Y-69202784D01*
X134468193Y-69163764D01*
X134529031Y-69126116D01*
X134534204Y-69120934D01*
X134646758Y-69008184D01*
X134646762Y-69008179D01*
X134651929Y-69003003D01*
X134701950Y-68921855D01*
X134739369Y-68861150D01*
X134739370Y-68861148D01*
X134743209Y-68854920D01*
X134797974Y-68689809D01*
X134798956Y-68680230D01*
X134806910Y-68602593D01*
X134808500Y-68587072D01*
X134808500Y-68012928D01*
X134808163Y-68009678D01*
X134798419Y-67915765D01*
X134798418Y-67915761D01*
X134797707Y-67908907D01*
X134787190Y-67877382D01*
X134744972Y-67750841D01*
X134742654Y-67743893D01*
X134662688Y-67614669D01*
X138516001Y-67614669D01*
X138516371Y-67621490D01*
X138521895Y-67672352D01*
X138525521Y-67687604D01*
X138570676Y-67808054D01*
X138579214Y-67823649D01*
X138655715Y-67925724D01*
X138668276Y-67938285D01*
X138770351Y-68014786D01*
X138785946Y-68023324D01*
X138906394Y-68068478D01*
X138921649Y-68072105D01*
X138972514Y-68077631D01*
X138979328Y-68078000D01*
X139651885Y-68078000D01*
X139667124Y-68073525D01*
X139668329Y-68072135D01*
X139670000Y-68064452D01*
X139670000Y-68059884D01*
X140178000Y-68059884D01*
X140182475Y-68075123D01*
X140183865Y-68076328D01*
X140191548Y-68077999D01*
X140868669Y-68077999D01*
X140875490Y-68077629D01*
X140926352Y-68072105D01*
X140941604Y-68068479D01*
X141062054Y-68023324D01*
X141077649Y-68014786D01*
X141179724Y-67938285D01*
X141192285Y-67925724D01*
X141268786Y-67823649D01*
X141277324Y-67808054D01*
X141322478Y-67687606D01*
X141326105Y-67672351D01*
X141331631Y-67621486D01*
X141332000Y-67614672D01*
X141332000Y-67042115D01*
X141327525Y-67026876D01*
X141326135Y-67025671D01*
X141318452Y-67024000D01*
X140196115Y-67024000D01*
X140180876Y-67028475D01*
X140179671Y-67029865D01*
X140178000Y-67037548D01*
X140178000Y-68059884D01*
X139670000Y-68059884D01*
X139670000Y-67042115D01*
X139665525Y-67026876D01*
X139664135Y-67025671D01*
X139656452Y-67024000D01*
X138534116Y-67024000D01*
X138518877Y-67028475D01*
X138517672Y-67029865D01*
X138516001Y-67037548D01*
X138516001Y-67614669D01*
X134662688Y-67614669D01*
X134651116Y-67595969D01*
X134645934Y-67590796D01*
X134533184Y-67478242D01*
X134533179Y-67478238D01*
X134528003Y-67473071D01*
X134468384Y-67436321D01*
X134420890Y-67383548D01*
X134408500Y-67329061D01*
X134408500Y-65078134D01*
X138515500Y-65078134D01*
X138522255Y-65140316D01*
X138573385Y-65276705D01*
X138660739Y-65393261D01*
X138667919Y-65398642D01*
X138669045Y-65399486D01*
X138669881Y-65400604D01*
X138674269Y-65404992D01*
X138673636Y-65405625D01*
X138711560Y-65456345D01*
X138716586Y-65527164D01*
X138682526Y-65589457D01*
X138669050Y-65601135D01*
X138668275Y-65601716D01*
X138655715Y-65614276D01*
X138579214Y-65716351D01*
X138570676Y-65731946D01*
X138525522Y-65852394D01*
X138521895Y-65867649D01*
X138516369Y-65918514D01*
X138516000Y-65925328D01*
X138516000Y-66497885D01*
X138520475Y-66513124D01*
X138521865Y-66514329D01*
X138529548Y-66516000D01*
X141313884Y-66516000D01*
X141329123Y-66511525D01*
X141330328Y-66510135D01*
X141331999Y-66502452D01*
X141331999Y-65925331D01*
X141331629Y-65918510D01*
X141326105Y-65867648D01*
X141322479Y-65852396D01*
X141277324Y-65731946D01*
X141268786Y-65716351D01*
X141192285Y-65614276D01*
X141179725Y-65601716D01*
X141178950Y-65601135D01*
X141178375Y-65600366D01*
X141173374Y-65595365D01*
X141174096Y-65594643D01*
X141136438Y-65544274D01*
X141131416Y-65473455D01*
X141165478Y-65411163D01*
X141178955Y-65399486D01*
X141180081Y-65398642D01*
X141187261Y-65393261D01*
X141274615Y-65276705D01*
X141325745Y-65140316D01*
X141332500Y-65078134D01*
X141332500Y-63381866D01*
X141325745Y-63319684D01*
X141274615Y-63183295D01*
X141187261Y-63066739D01*
X141070705Y-62979385D01*
X140934316Y-62928255D01*
X140872134Y-62921500D01*
X140683500Y-62921500D01*
X140615379Y-62901498D01*
X140568886Y-62847842D01*
X140557500Y-62795500D01*
X140557500Y-62766365D01*
X140577502Y-62698244D01*
X140631158Y-62651751D01*
X140643623Y-62646842D01*
X140724154Y-62619974D01*
X140724156Y-62619973D01*
X140731107Y-62617654D01*
X140788605Y-62582073D01*
X140872805Y-62529969D01*
X140872806Y-62529968D01*
X140879031Y-62526116D01*
X140910879Y-62494213D01*
X140973159Y-62460134D01*
X141043979Y-62465137D01*
X141089067Y-62494057D01*
X141092847Y-62497830D01*
X141121997Y-62526929D01*
X141270080Y-62618209D01*
X141435191Y-62672974D01*
X141442027Y-62673674D01*
X141442030Y-62673675D01*
X141493526Y-62678951D01*
X141537928Y-62683500D01*
X142212072Y-62683500D01*
X142215318Y-62683163D01*
X142215322Y-62683163D01*
X142309235Y-62673419D01*
X142309239Y-62673418D01*
X142316093Y-62672707D01*
X142322629Y-62670526D01*
X142322631Y-62670526D01*
X142455395Y-62626232D01*
X142481107Y-62617654D01*
X142629031Y-62526116D01*
X142657268Y-62497830D01*
X142746758Y-62408184D01*
X142746762Y-62408179D01*
X142751929Y-62403003D01*
X142755770Y-62396772D01*
X142839369Y-62261150D01*
X142839370Y-62261148D01*
X142843209Y-62254920D01*
X142897974Y-62089809D01*
X142908500Y-61987072D01*
X142908500Y-61614594D01*
X142928502Y-61546473D01*
X142945405Y-61525499D01*
X145252247Y-59218657D01*
X145260537Y-59211113D01*
X145267018Y-59207000D01*
X145313659Y-59157332D01*
X145316413Y-59154491D01*
X145336134Y-59134770D01*
X145338612Y-59131575D01*
X145346318Y-59122553D01*
X145371158Y-59096101D01*
X145376586Y-59090321D01*
X145386346Y-59072568D01*
X145397199Y-59056045D01*
X145404753Y-59046306D01*
X145409613Y-59040041D01*
X145427176Y-58999457D01*
X145432383Y-58988827D01*
X145453695Y-58950060D01*
X145455666Y-58942383D01*
X145455668Y-58942378D01*
X145458732Y-58930442D01*
X145465138Y-58911730D01*
X145470034Y-58900417D01*
X145473181Y-58893145D01*
X145480097Y-58849481D01*
X145482504Y-58837860D01*
X145491528Y-58802711D01*
X145491528Y-58802710D01*
X145493500Y-58795030D01*
X145493500Y-58774769D01*
X145495051Y-58755058D01*
X145496979Y-58742885D01*
X145498219Y-58735057D01*
X145494059Y-58691046D01*
X145493500Y-58679189D01*
X145493500Y-58480427D01*
X145513502Y-58412306D01*
X145554618Y-58372550D01*
X145557994Y-58370896D01*
X145739860Y-58241173D01*
X145848091Y-58133319D01*
X145910462Y-58099404D01*
X145981268Y-58104592D01*
X146038030Y-58147238D01*
X146055012Y-58178341D01*
X146099385Y-58296705D01*
X146186739Y-58413261D01*
X146303295Y-58500615D01*
X146439684Y-58551745D01*
X146501866Y-58558500D01*
X148298134Y-58558500D01*
X148360316Y-58551745D01*
X148496705Y-58500615D01*
X148613261Y-58413261D01*
X148700615Y-58296705D01*
X148751745Y-58160316D01*
X148758500Y-58098134D01*
X148758500Y-56301866D01*
X148751745Y-56239684D01*
X148700615Y-56103295D01*
X148613261Y-55986739D01*
X148496705Y-55899385D01*
X148360316Y-55848255D01*
X148298134Y-55841500D01*
X146501866Y-55841500D01*
X146439684Y-55848255D01*
X146303295Y-55899385D01*
X146186739Y-55986739D01*
X146099385Y-56103295D01*
X146096233Y-56111703D01*
X146054919Y-56221907D01*
X146012277Y-56278671D01*
X145945716Y-56303371D01*
X145876367Y-56288163D01*
X145843743Y-56262476D01*
X145793151Y-56206875D01*
X145793142Y-56206866D01*
X145789670Y-56203051D01*
X145785619Y-56199852D01*
X145785615Y-56199848D01*
X145618414Y-56067800D01*
X145618410Y-56067798D01*
X145614359Y-56064598D01*
X145578028Y-56044542D01*
X145527459Y-56016627D01*
X145418789Y-55956638D01*
X145413920Y-55954914D01*
X145413916Y-55954912D01*
X145213087Y-55883795D01*
X145213083Y-55883794D01*
X145208212Y-55882069D01*
X145203119Y-55881162D01*
X145203116Y-55881161D01*
X144993373Y-55843800D01*
X144993367Y-55843799D01*
X144988284Y-55842894D01*
X144914452Y-55841992D01*
X144770081Y-55840228D01*
X144770079Y-55840228D01*
X144764911Y-55840165D01*
X144544091Y-55873955D01*
X144331756Y-55943357D01*
X144291097Y-55964523D01*
X144147085Y-56039491D01*
X144133607Y-56046507D01*
X144129474Y-56049610D01*
X144129471Y-56049612D01*
X143959100Y-56177530D01*
X143954965Y-56180635D01*
X143929541Y-56207240D01*
X143861280Y-56278671D01*
X143800629Y-56342138D01*
X143797715Y-56346410D01*
X143797714Y-56346411D01*
X143692898Y-56500066D01*
X143637987Y-56545069D01*
X143567462Y-56553240D01*
X143503715Y-56521986D01*
X143483018Y-56497502D01*
X143402426Y-56372926D01*
X143396136Y-56364757D01*
X143252806Y-56207240D01*
X143245273Y-56200215D01*
X143078139Y-56068222D01*
X143069552Y-56062517D01*
X142883117Y-55959599D01*
X142873705Y-55955369D01*
X142672959Y-55884280D01*
X142662988Y-55881646D01*
X142591837Y-55868972D01*
X142578540Y-55870432D01*
X142574000Y-55884989D01*
X142574000Y-58518517D01*
X142578064Y-58532359D01*
X142591478Y-58534393D01*
X142598184Y-58533534D01*
X142608262Y-58531392D01*
X142812255Y-58470191D01*
X142821842Y-58466433D01*
X143013095Y-58372739D01*
X143021945Y-58367464D01*
X143195328Y-58243792D01*
X143203200Y-58237139D01*
X143354052Y-58086812D01*
X143360730Y-58078965D01*
X143488022Y-57901819D01*
X143489279Y-57902722D01*
X143536373Y-57859362D01*
X143606311Y-57847145D01*
X143671751Y-57874678D01*
X143699579Y-57906511D01*
X143708540Y-57921134D01*
X143759987Y-58005088D01*
X143906250Y-58173938D01*
X144078126Y-58316632D01*
X144082589Y-58319240D01*
X144082592Y-58319242D01*
X144116583Y-58339104D01*
X144165307Y-58390742D01*
X144178378Y-58460525D01*
X144151647Y-58526297D01*
X144142108Y-58536987D01*
X141999500Y-60679595D01*
X141937188Y-60713621D01*
X141910405Y-60716500D01*
X141537928Y-60716500D01*
X141534682Y-60716837D01*
X141534678Y-60716837D01*
X141440765Y-60726581D01*
X141440761Y-60726582D01*
X141433907Y-60727293D01*
X141427371Y-60729474D01*
X141427369Y-60729474D01*
X141422118Y-60731226D01*
X141268893Y-60782346D01*
X141262661Y-60786202D01*
X141262662Y-60786202D01*
X141128490Y-60869230D01*
X141120969Y-60873884D01*
X141089121Y-60905787D01*
X141026841Y-60939866D01*
X140956021Y-60934863D01*
X140910933Y-60905943D01*
X140883184Y-60878243D01*
X140878003Y-60873071D01*
X140729920Y-60781791D01*
X140564809Y-60727026D01*
X140557973Y-60726326D01*
X140557970Y-60726325D01*
X140506474Y-60721049D01*
X140462072Y-60716500D01*
X139787928Y-60716500D01*
X139784682Y-60716837D01*
X139784678Y-60716837D01*
X139690765Y-60726581D01*
X139690761Y-60726582D01*
X139683907Y-60727293D01*
X139677371Y-60729474D01*
X139677369Y-60729474D01*
X139672118Y-60731226D01*
X139518893Y-60782346D01*
X139370969Y-60873884D01*
X139365796Y-60879066D01*
X139253242Y-60991816D01*
X139253238Y-60991821D01*
X139248071Y-60996997D01*
X139244231Y-61003227D01*
X139244230Y-61003228D01*
X139177565Y-61111379D01*
X139156791Y-61145080D01*
X139102026Y-61310191D01*
X139091500Y-61412928D01*
X139091500Y-61987072D01*
X139102293Y-62091093D01*
X139157346Y-62256107D01*
X139248884Y-62404031D01*
X139254066Y-62409204D01*
X139258613Y-62414941D01*
X139257457Y-62415857D01*
X139287597Y-62470940D01*
X139290500Y-62497830D01*
X139290500Y-62795500D01*
X139270498Y-62863621D01*
X139216842Y-62910114D01*
X139164500Y-62921500D01*
X138975866Y-62921500D01*
X138913684Y-62928255D01*
X138777295Y-62979385D01*
X138660739Y-63066739D01*
X138573385Y-63183295D01*
X138522255Y-63319684D01*
X138515500Y-63381866D01*
X138515500Y-65078134D01*
X134408500Y-65078134D01*
X134408500Y-61439594D01*
X134428502Y-61371473D01*
X134445405Y-61350499D01*
X134650499Y-61145405D01*
X134712811Y-61111379D01*
X134739594Y-61108500D01*
X134795487Y-61108500D01*
X134801939Y-61107128D01*
X134801944Y-61107128D01*
X134888888Y-61088647D01*
X134982288Y-61068794D01*
X134988319Y-61066109D01*
X135150722Y-60993803D01*
X135150724Y-60993802D01*
X135156752Y-60991118D01*
X135311253Y-60878866D01*
X135439040Y-60736944D01*
X135534527Y-60571556D01*
X135593542Y-60389928D01*
X135596071Y-60365872D01*
X135612814Y-60206565D01*
X135613504Y-60200000D01*
X135612814Y-60193435D01*
X135594232Y-60016635D01*
X135594232Y-60016633D01*
X135593542Y-60010072D01*
X135534527Y-59828444D01*
X135518483Y-59800654D01*
X135442341Y-59668774D01*
X135439040Y-59663056D01*
X135311253Y-59521134D01*
X135156752Y-59408882D01*
X135150724Y-59406198D01*
X135150722Y-59406197D01*
X134988319Y-59333891D01*
X134988318Y-59333891D01*
X134982288Y-59331206D01*
X134888887Y-59311353D01*
X134801944Y-59292872D01*
X134801939Y-59292872D01*
X134795487Y-59291500D01*
X134643671Y-59291500D01*
X134575550Y-59271498D01*
X134537226Y-59226886D01*
X134534527Y-59228444D01*
X134496743Y-59163000D01*
X134480005Y-59094005D01*
X134496743Y-59037000D01*
X134531223Y-58977279D01*
X134531224Y-58977278D01*
X134534527Y-58971556D01*
X134593542Y-58789928D01*
X134610907Y-58624706D01*
X134637920Y-58559050D01*
X134647122Y-58548782D01*
X135727938Y-57467966D01*
X140988257Y-57467966D01*
X141018565Y-57602446D01*
X141021645Y-57612275D01*
X141101770Y-57809603D01*
X141106413Y-57818794D01*
X141217694Y-58000388D01*
X141223777Y-58008699D01*
X141363213Y-58169667D01*
X141370580Y-58176883D01*
X141534434Y-58312916D01*
X141542881Y-58318831D01*
X141726756Y-58426279D01*
X141736042Y-58430729D01*
X141935001Y-58506703D01*
X141944899Y-58509579D01*
X142048250Y-58530606D01*
X142062299Y-58529410D01*
X142066000Y-58519065D01*
X142066000Y-57472115D01*
X142061525Y-57456876D01*
X142060135Y-57455671D01*
X142052452Y-57454000D01*
X141003225Y-57454000D01*
X140989694Y-57457973D01*
X140988257Y-57467966D01*
X135727938Y-57467966D01*
X136261721Y-56934183D01*
X140984389Y-56934183D01*
X140985912Y-56942607D01*
X140998292Y-56946000D01*
X142047885Y-56946000D01*
X142063124Y-56941525D01*
X142064329Y-56940135D01*
X142066000Y-56932452D01*
X142066000Y-55883102D01*
X142062082Y-55869758D01*
X142047806Y-55867771D01*
X142009324Y-55873660D01*
X141999288Y-55876051D01*
X141796868Y-55942212D01*
X141787359Y-55946209D01*
X141598463Y-56044542D01*
X141589738Y-56050036D01*
X141419433Y-56177905D01*
X141411726Y-56184748D01*
X141264590Y-56338717D01*
X141258104Y-56346727D01*
X141138098Y-56522649D01*
X141133000Y-56531623D01*
X141043338Y-56724783D01*
X141039775Y-56734470D01*
X140984389Y-56934183D01*
X136261721Y-56934183D01*
X137092247Y-56103657D01*
X137100537Y-56096113D01*
X137107018Y-56092000D01*
X137153659Y-56042332D01*
X137156413Y-56039491D01*
X137176135Y-56019769D01*
X137178619Y-56016567D01*
X137186317Y-56007555D01*
X137211161Y-55981098D01*
X137216586Y-55975321D01*
X137226347Y-55957566D01*
X137237198Y-55941047D01*
X137249614Y-55925041D01*
X137258386Y-55904771D01*
X137267174Y-55884463D01*
X137272391Y-55873813D01*
X137293695Y-55835060D01*
X137298733Y-55815437D01*
X137305137Y-55796734D01*
X137310033Y-55785420D01*
X137310033Y-55785419D01*
X137313181Y-55778145D01*
X137314420Y-55770322D01*
X137314423Y-55770312D01*
X137320099Y-55734476D01*
X137322505Y-55722856D01*
X137331528Y-55687711D01*
X137331528Y-55687710D01*
X137333500Y-55680030D01*
X137333500Y-55659776D01*
X137335051Y-55640065D01*
X137336980Y-55627886D01*
X137338220Y-55620057D01*
X137334059Y-55576038D01*
X137333500Y-55564181D01*
X137333500Y-52149950D01*
X137353502Y-52081829D01*
X137364059Y-52068729D01*
X137363989Y-52068675D01*
X137368845Y-52062415D01*
X137374453Y-52056807D01*
X137378489Y-52049983D01*
X137378491Y-52049980D01*
X137455108Y-51920427D01*
X137459145Y-51913601D01*
X137461356Y-51905990D01*
X137461357Y-51905988D01*
X137499328Y-51775288D01*
X137505562Y-51753831D01*
X137506074Y-51747336D01*
X137508307Y-51718958D01*
X137508307Y-51718950D01*
X137508500Y-51716502D01*
X137508500Y-50333498D01*
X137508307Y-50331042D01*
X137506067Y-50302579D01*
X137506066Y-50302574D01*
X137505562Y-50296169D01*
X137476528Y-50196231D01*
X137461357Y-50144012D01*
X137461356Y-50144010D01*
X137459145Y-50136399D01*
X137433724Y-50093414D01*
X137416265Y-50024598D01*
X137438783Y-49957266D01*
X137494128Y-49912798D01*
X137555020Y-49903932D01*
X137599600Y-49908500D01*
X138400400Y-49908500D01*
X138403646Y-49908163D01*
X138403650Y-49908163D01*
X138499308Y-49898238D01*
X138499312Y-49898237D01*
X138506166Y-49897526D01*
X138512702Y-49895345D01*
X138512704Y-49895345D01*
X138650573Y-49849348D01*
X138673946Y-49841550D01*
X138824348Y-49748478D01*
X138949305Y-49623303D01*
X139042115Y-49472738D01*
X139097797Y-49304861D01*
X139108500Y-49200400D01*
X139108500Y-47799600D01*
X139106875Y-47783938D01*
X139098238Y-47700692D01*
X139098237Y-47700688D01*
X139097526Y-47693834D01*
X139091035Y-47674378D01*
X139088449Y-47603428D01*
X139124632Y-47542344D01*
X139188096Y-47510518D01*
X139210558Y-47508500D01*
X154158955Y-47508500D01*
X154227076Y-47528502D01*
G37*
%TD.AperFunction*%
%TA.AperFunction,Conductor*%
G36*
X131257687Y-47528502D02*
G01*
X131304180Y-47582158D01*
X131314284Y-47652432D01*
X131309159Y-47674167D01*
X131302203Y-47695139D01*
X131291500Y-47799600D01*
X131291500Y-49200400D01*
X131291837Y-49203646D01*
X131291837Y-49203650D01*
X131299092Y-49273569D01*
X131302474Y-49306166D01*
X131358450Y-49473946D01*
X131451522Y-49624348D01*
X131576697Y-49749305D01*
X131582927Y-49753145D01*
X131582928Y-49753146D01*
X131720090Y-49837694D01*
X131727262Y-49842115D01*
X131749069Y-49849348D01*
X131888611Y-49895632D01*
X131888613Y-49895632D01*
X131895139Y-49897797D01*
X131901975Y-49898497D01*
X131901978Y-49898498D01*
X131945031Y-49902909D01*
X131999600Y-49908500D01*
X132800400Y-49908500D01*
X132803646Y-49908163D01*
X132803650Y-49908163D01*
X132823187Y-49906136D01*
X132845475Y-49903823D01*
X132915295Y-49916687D01*
X132967077Y-49965258D01*
X132984380Y-50034114D01*
X132966932Y-50093289D01*
X132945352Y-50129779D01*
X132939107Y-50144210D01*
X132896731Y-50290065D01*
X132894430Y-50302667D01*
X132892193Y-50331084D01*
X132892000Y-50336014D01*
X132892000Y-50752885D01*
X132896475Y-50768124D01*
X132897865Y-50769329D01*
X132905548Y-50771000D01*
X133427885Y-50771000D01*
X133443124Y-50766525D01*
X133444329Y-50765135D01*
X133446000Y-50757452D01*
X133446000Y-49763122D01*
X133441525Y-49747883D01*
X133419616Y-49728898D01*
X133410881Y-49724910D01*
X133372494Y-49665186D01*
X133372490Y-49594189D01*
X133386128Y-49563565D01*
X133438275Y-49478968D01*
X133438276Y-49478966D01*
X133442115Y-49472738D01*
X133497797Y-49304861D01*
X133508500Y-49200400D01*
X133508500Y-47799600D01*
X133506875Y-47783938D01*
X133498238Y-47700692D01*
X133498237Y-47700688D01*
X133497526Y-47693834D01*
X133491035Y-47674378D01*
X133488449Y-47603428D01*
X133524632Y-47542344D01*
X133588096Y-47510518D01*
X133610558Y-47508500D01*
X136789566Y-47508500D01*
X136857687Y-47528502D01*
X136904180Y-47582158D01*
X136914284Y-47652432D01*
X136909159Y-47674167D01*
X136902203Y-47695139D01*
X136891500Y-47799600D01*
X136891500Y-49200400D01*
X136891837Y-49203646D01*
X136891837Y-49203650D01*
X136899092Y-49273569D01*
X136902474Y-49306166D01*
X136958450Y-49473946D01*
X137005017Y-49549197D01*
X137023855Y-49617649D01*
X137002694Y-49685418D01*
X136948253Y-49730990D01*
X136897873Y-49741500D01*
X136483498Y-49741500D01*
X136481050Y-49741693D01*
X136481042Y-49741693D01*
X136452579Y-49743933D01*
X136452574Y-49743934D01*
X136446169Y-49744438D01*
X136381858Y-49763122D01*
X136294012Y-49788643D01*
X136294010Y-49788644D01*
X136286399Y-49790855D01*
X136279576Y-49794890D01*
X136279574Y-49794891D01*
X136264137Y-49804020D01*
X136195321Y-49821478D01*
X136135863Y-49804020D01*
X136120426Y-49794891D01*
X136120424Y-49794890D01*
X136113601Y-49790855D01*
X136105990Y-49788644D01*
X136105988Y-49788643D01*
X136018142Y-49763122D01*
X135953831Y-49744438D01*
X135947426Y-49743934D01*
X135947421Y-49743933D01*
X135918958Y-49741693D01*
X135918950Y-49741693D01*
X135916502Y-49741500D01*
X135483498Y-49741500D01*
X135481050Y-49741693D01*
X135481042Y-49741693D01*
X135452579Y-49743933D01*
X135452574Y-49743934D01*
X135446169Y-49744438D01*
X135381858Y-49763122D01*
X135294012Y-49788643D01*
X135294010Y-49788644D01*
X135286399Y-49790855D01*
X135279576Y-49794890D01*
X135279574Y-49794891D01*
X135264137Y-49804020D01*
X135195321Y-49821478D01*
X135135863Y-49804020D01*
X135120426Y-49794891D01*
X135120424Y-49794890D01*
X135113601Y-49790855D01*
X135105990Y-49788644D01*
X135105988Y-49788643D01*
X135018142Y-49763122D01*
X134953831Y-49744438D01*
X134947426Y-49743934D01*
X134947421Y-49743933D01*
X134918958Y-49741693D01*
X134918950Y-49741693D01*
X134916502Y-49741500D01*
X134483498Y-49741500D01*
X134481050Y-49741693D01*
X134481042Y-49741693D01*
X134452579Y-49743933D01*
X134452574Y-49743934D01*
X134446169Y-49744438D01*
X134381858Y-49763122D01*
X134294012Y-49788643D01*
X134294010Y-49788644D01*
X134286399Y-49790855D01*
X134263649Y-49804310D01*
X134194835Y-49821770D01*
X134135370Y-49804311D01*
X134120221Y-49795352D01*
X134105790Y-49789107D01*
X133971395Y-49750061D01*
X133957294Y-49750101D01*
X133954000Y-49757370D01*
X133954000Y-50082430D01*
X133943885Y-50131275D01*
X133940855Y-50136399D01*
X133938645Y-50144007D01*
X133938643Y-50144011D01*
X133915282Y-50224422D01*
X133894438Y-50296169D01*
X133893934Y-50302574D01*
X133893933Y-50302579D01*
X133891693Y-50331042D01*
X133891500Y-50333498D01*
X133891500Y-51716502D01*
X133891693Y-51718950D01*
X133891693Y-51718958D01*
X133893927Y-51747336D01*
X133894438Y-51753831D01*
X133900672Y-51775288D01*
X133938643Y-51905989D01*
X133938645Y-51905993D01*
X133940855Y-51913601D01*
X133943885Y-51918725D01*
X133954000Y-51967570D01*
X133954000Y-52286878D01*
X133957973Y-52300409D01*
X133958433Y-52300475D01*
X134023013Y-52329968D01*
X134061396Y-52389695D01*
X134066500Y-52425192D01*
X134066500Y-52897476D01*
X134046498Y-52965597D01*
X134034142Y-52981779D01*
X133960960Y-53063056D01*
X133865473Y-53228444D01*
X133806458Y-53410072D01*
X133786496Y-53600000D01*
X133787186Y-53606565D01*
X133803503Y-53761809D01*
X133806458Y-53789928D01*
X133865473Y-53971556D01*
X133960960Y-54136944D01*
X134088747Y-54278866D01*
X134243248Y-54391118D01*
X134249276Y-54393802D01*
X134249278Y-54393803D01*
X134411681Y-54466109D01*
X134417712Y-54468794D01*
X134511112Y-54488647D01*
X134598056Y-54507128D01*
X134598061Y-54507128D01*
X134604513Y-54508500D01*
X134795487Y-54508500D01*
X134801939Y-54507128D01*
X134801944Y-54507128D01*
X134914303Y-54483245D01*
X134985094Y-54488647D01*
X135041727Y-54531464D01*
X135066220Y-54598102D01*
X135066500Y-54606492D01*
X135066500Y-55185406D01*
X135046498Y-55253527D01*
X135029595Y-55274501D01*
X133759026Y-56545069D01*
X132507747Y-57796348D01*
X132499461Y-57803888D01*
X132492982Y-57808000D01*
X132487557Y-57813777D01*
X132446357Y-57857651D01*
X132443602Y-57860493D01*
X132423865Y-57880230D01*
X132421385Y-57883427D01*
X132413683Y-57892445D01*
X132393563Y-57913872D01*
X132332352Y-57949837D01*
X132261412Y-57947000D01*
X132212618Y-57916714D01*
X129826683Y-55530778D01*
X129792657Y-55468466D01*
X129789778Y-55441653D01*
X129790673Y-51713984D01*
X132892001Y-51713984D01*
X132892195Y-51718920D01*
X132894430Y-51747336D01*
X132896730Y-51759931D01*
X132939107Y-51905790D01*
X132945352Y-51920221D01*
X133021911Y-52049678D01*
X133031551Y-52062104D01*
X133137896Y-52168449D01*
X133150322Y-52178089D01*
X133279779Y-52254648D01*
X133294210Y-52260893D01*
X133428605Y-52299939D01*
X133442706Y-52299899D01*
X133446000Y-52292630D01*
X133446000Y-51297115D01*
X133441525Y-51281876D01*
X133440135Y-51280671D01*
X133432452Y-51279000D01*
X132910116Y-51279000D01*
X132894877Y-51283475D01*
X132893672Y-51284865D01*
X132892001Y-51292548D01*
X132892001Y-51713984D01*
X129790673Y-51713984D01*
X129791076Y-50034470D01*
X129811094Y-49966354D01*
X129864761Y-49919874D01*
X129917076Y-49908500D01*
X130000400Y-49908500D01*
X130003646Y-49908163D01*
X130003650Y-49908163D01*
X130099308Y-49898238D01*
X130099312Y-49898237D01*
X130106166Y-49897526D01*
X130112702Y-49895345D01*
X130112704Y-49895345D01*
X130250573Y-49849348D01*
X130273946Y-49841550D01*
X130424348Y-49748478D01*
X130549305Y-49623303D01*
X130642115Y-49472738D01*
X130697797Y-49304861D01*
X130708500Y-49200400D01*
X130708500Y-47799600D01*
X130706875Y-47783938D01*
X130698238Y-47700692D01*
X130698237Y-47700688D01*
X130697526Y-47693834D01*
X130691035Y-47674378D01*
X130688449Y-47603428D01*
X130724632Y-47542344D01*
X130788096Y-47510518D01*
X130810558Y-47508500D01*
X131189566Y-47508500D01*
X131257687Y-47528502D01*
G37*
%TD.AperFunction*%
%TD*%
M02*
