M48
; DRILL file {KiCad (6.0.4-0)} date Saturday, September 10, 2022 at 09:10:34 AM
; FORMAT={-:-/ absolute / inch / decimal}
; #@! TF.CreationDate,2022-09-10T09:10:34-06:00
; #@! TF.GenerationSoftware,Kicad,Pcbnew,(6.0.4-0)
; #@! TF.FileFunction,Plated,1,2,PTH
FMAT,2
INCH
; #@! TA.AperFunction,Plated,PTH,ViaDrill
T1C0.0157
; #@! TA.AperFunction,Plated,PTH,ComponentDrill
T2C0.0197
; #@! TA.AperFunction,Plated,PTH,ComponentDrill
T3C0.0295
; #@! TA.AperFunction,Plated,PTH,ComponentDrill
T4C0.0394
; #@! TA.AperFunction,Plated,PTH,ComponentDrill
T5C0.1260
%
G90
G05
T1
X4.889Y-3.3591
X4.8898Y-3.2402
X4.9685Y-2.1102
X5.1535Y-2.3071
X5.1535Y-2.3465
X5.2638Y-2.0787
X5.2638Y-2.3071
X5.2638Y-2.3465
X5.3031Y-2.1102
X5.3031Y-2.3701
X5.3346Y-3.063
X5.4331Y-2.811
X5.4449Y-2.6388
X5.4449Y-2.9724
X5.4469Y-3.1752
X5.4488Y-3.122
X5.5079Y-2.8661
X5.5787Y-2.815
X5.5787Y-3.0709
X5.5787Y-3.122
X5.815Y-3.0551
X5.8228Y-3.2362
X5.8228Y-3.2677
X5.8228Y-3.2992
X5.8228Y-3.3307
X5.8228Y-3.437
X5.8858Y-3.4961
X6.0118Y-3.2913
T3
X4.7953Y-2.5669
X4.7953Y-2.6457
X4.7953Y-2.8898
X4.7953Y-2.9685
X6.0295Y-2.5276
X6.0295Y-2.6063
T4
X5.6031Y-2.252
X5.7031Y-2.252
X5.8031Y-2.252
T5
X4.685Y-2.0079
X4.685Y-3.7008
X6.1417Y-2.0079
X6.1417Y-3.7008
T2
G00X4.6799Y-3.1291
M15
G01X4.6524Y-3.1291
M16
G05
G00X4.6799Y-3.4693
M15
G01X4.6524Y-3.4693
M16
G05
G00X4.8295Y-3.1291
M15
G01X4.802Y-3.1291
M16
G05
G00X4.8295Y-3.4693
M15
G01X4.802Y-3.4693
M16
G05
T0
M30
