%TF.GenerationSoftware,KiCad,Pcbnew,(6.0.4-0)*%
%TF.CreationDate,2022-10-18T14:28:54-06:00*%
%TF.ProjectId,HX711_710_711_720,48583731-315f-4373-9130-5f3731315f37,rev?*%
%TF.SameCoordinates,Original*%
%TF.FileFunction,Soldermask,Top*%
%TF.FilePolarity,Negative*%
%FSLAX46Y46*%
G04 Gerber Fmt 4.6, Leading zero omitted, Abs format (unit mm)*
G04 Created by KiCad (PCBNEW (6.0.4-0)) date 2022-10-18 14:28:54*
%MOMM*%
%LPD*%
G01*
G04 APERTURE LIST*
G04 Aperture macros list*
%AMRoundRect*
0 Rectangle with rounded corners*
0 $1 Rounding radius*
0 $2 $3 $4 $5 $6 $7 $8 $9 X,Y pos of 4 corners*
0 Add a 4 corners polygon primitive as box body*
4,1,4,$2,$3,$4,$5,$6,$7,$8,$9,$2,$3,0*
0 Add four circle primitives for the rounded corners*
1,1,$1+$1,$2,$3*
1,1,$1+$1,$4,$5*
1,1,$1+$1,$6,$7*
1,1,$1+$1,$8,$9*
0 Add four rect primitives between the rounded corners*
20,1,$1+$1,$2,$3,$4,$5,0*
20,1,$1+$1,$4,$5,$6,$7,0*
20,1,$1+$1,$6,$7,$8,$9,0*
20,1,$1+$1,$8,$9,$2,$3,0*%
G04 Aperture macros list end*
%ADD10RoundRect,0.201000X-0.625000X0.150000X-0.625000X-0.150000X0.625000X-0.150000X0.625000X0.150000X0*%
%ADD11RoundRect,0.301000X-0.650000X0.350000X-0.650000X-0.350000X0.650000X-0.350000X0.650000X0.350000X0*%
%ADD12RoundRect,0.051000X-0.850000X0.850000X-0.850000X-0.850000X0.850000X-0.850000X0.850000X0.850000X0*%
%ADD13O,1.802000X1.802000*%
%ADD14RoundRect,0.288500X-0.237500X0.300000X-0.237500X-0.300000X0.237500X-0.300000X0.237500X0.300000X0*%
%ADD15RoundRect,0.201000X-0.825000X-0.150000X0.825000X-0.150000X0.825000X0.150000X-0.825000X0.150000X0*%
%ADD16RoundRect,0.051000X-0.850000X-0.850000X0.850000X-0.850000X0.850000X0.850000X-0.850000X0.850000X0*%
%ADD17RoundRect,0.288500X-0.300000X-0.237500X0.300000X-0.237500X0.300000X0.237500X-0.300000X0.237500X0*%
%ADD18RoundRect,0.201000X-0.512500X-0.150000X0.512500X-0.150000X0.512500X0.150000X-0.512500X0.150000X0*%
%ADD19RoundRect,0.201000X0.825000X0.150000X-0.825000X0.150000X-0.825000X-0.150000X0.825000X-0.150000X0*%
%ADD20O,1.802000X1.102000*%
%ADD21RoundRect,0.051000X-0.800000X0.400000X-0.800000X-0.400000X0.800000X-0.400000X0.800000X0.400000X0*%
%ADD22RoundRect,0.051000X-0.800000X0.450000X-0.800000X-0.450000X0.800000X-0.450000X0.800000X0.450000X0*%
%ADD23RoundRect,0.051000X-0.225000X0.300000X-0.225000X-0.300000X0.225000X-0.300000X0.225000X0.300000X0*%
%ADD24RoundRect,0.288500X0.300000X0.237500X-0.300000X0.237500X-0.300000X-0.237500X0.300000X-0.237500X0*%
%ADD25RoundRect,0.288500X0.237500X-0.300000X0.237500X0.300000X-0.237500X0.300000X-0.237500X-0.300000X0*%
%ADD26RoundRect,0.051000X0.850000X-0.850000X0.850000X0.850000X-0.850000X0.850000X-0.850000X-0.850000X0*%
%ADD27RoundRect,0.288500X0.287500X0.237500X-0.287500X0.237500X-0.287500X-0.237500X0.287500X-0.237500X0*%
%ADD28RoundRect,0.201000X-0.675000X-0.150000X0.675000X-0.150000X0.675000X0.150000X-0.675000X0.150000X0*%
%ADD29C,1.102000*%
%ADD30RoundRect,0.051000X-0.500000X-0.500000X0.500000X-0.500000X0.500000X0.500000X-0.500000X0.500000X0*%
G04 APERTURE END LIST*
D10*
%TO.C,J7*%
X115300000Y-77400000D03*
X115300000Y-78400000D03*
X115300000Y-79400000D03*
X115300000Y-80400000D03*
D11*
X111425000Y-81700000D03*
X111425000Y-76100000D03*
%TD*%
D12*
%TO.C,J4*%
X116300000Y-85200000D03*
D13*
X113760000Y-85200000D03*
%TD*%
D14*
%TO.C,C9*%
X171000000Y-87737500D03*
X171000000Y-89462500D03*
%TD*%
%TO.C,C8*%
X171000000Y-72337500D03*
X171000000Y-74062500D03*
%TD*%
D15*
%TO.C,U5*%
X163425000Y-89795000D03*
X163425000Y-91065000D03*
X163425000Y-92335000D03*
X163425000Y-93605000D03*
X168375000Y-93605000D03*
X168375000Y-92335000D03*
X168375000Y-91065000D03*
X168375000Y-89795000D03*
%TD*%
%TO.C,U4*%
X163625000Y-74295000D03*
X163625000Y-75565000D03*
X163625000Y-76835000D03*
X163625000Y-78105000D03*
X168575000Y-78105000D03*
X168575000Y-76835000D03*
X168575000Y-75565000D03*
X168575000Y-74295000D03*
%TD*%
D16*
%TO.C,J11*%
X175625000Y-87200000D03*
D13*
X175625000Y-89740000D03*
X175625000Y-92280000D03*
X175625000Y-94820000D03*
%TD*%
D16*
%TO.C,J10*%
X176225000Y-70900000D03*
D13*
X176225000Y-73440000D03*
X176225000Y-75980000D03*
X176225000Y-78520000D03*
%TD*%
D17*
%TO.C,C7*%
X161437500Y-86700000D03*
X163162500Y-86700000D03*
%TD*%
%TO.C,C6*%
X161837500Y-71600000D03*
X163562500Y-71600000D03*
%TD*%
D18*
%TO.C,U6*%
X125262500Y-63750000D03*
X125262500Y-64700000D03*
X125262500Y-65650000D03*
X127537500Y-65650000D03*
X127537500Y-63750000D03*
%TD*%
D19*
%TO.C,U1*%
X125275000Y-83405000D03*
X125275000Y-82135000D03*
X125275000Y-80865000D03*
X125275000Y-79595000D03*
X120325000Y-79595000D03*
X120325000Y-80865000D03*
X120325000Y-82135000D03*
X120325000Y-83405000D03*
%TD*%
D20*
%TO.C,J12*%
X112790000Y-58680000D03*
X112790000Y-67320000D03*
X116590000Y-67320000D03*
X116590000Y-58680000D03*
D21*
X117070000Y-62500000D03*
X117070000Y-64520000D03*
D22*
X117070000Y-65750000D03*
D21*
X117070000Y-63500000D03*
X117070000Y-61480000D03*
D22*
X117070000Y-60250000D03*
%TD*%
D23*
%TO.C,D1*%
X121100000Y-62350000D03*
X121100000Y-64450000D03*
%TD*%
D14*
%TO.C,C11*%
X130300000Y-63837500D03*
X130300000Y-65562500D03*
%TD*%
%TO.C,C5*%
X154674999Y-84497499D03*
X154674999Y-86222499D03*
%TD*%
%TO.C,C10*%
X123200000Y-63837500D03*
X123200000Y-65562500D03*
%TD*%
%TO.C,C4*%
X155074999Y-71147499D03*
X155074999Y-72872499D03*
%TD*%
D24*
%TO.C,C3*%
X122462500Y-85900000D03*
X120737500Y-85900000D03*
%TD*%
D25*
%TO.C,C2*%
X143224999Y-89597499D03*
X143224999Y-87872499D03*
%TD*%
%TO.C,C1*%
X143324999Y-76422499D03*
X143324999Y-74697499D03*
%TD*%
D26*
%TO.C,J1*%
X150875000Y-54975000D03*
D13*
X153415000Y-54975000D03*
X155955000Y-54975000D03*
%TD*%
D16*
%TO.C,J8*%
X156600000Y-89860000D03*
D13*
X156600000Y-92400000D03*
X156600000Y-94940000D03*
%TD*%
D16*
%TO.C,J9*%
X158124999Y-74534999D03*
D13*
X158124999Y-77074999D03*
X158124999Y-79614999D03*
%TD*%
D27*
%TO.C,R2*%
X141174999Y-76734999D03*
X139424999Y-76734999D03*
%TD*%
%TO.C,R3*%
X141399999Y-87734999D03*
X139649999Y-87734999D03*
%TD*%
%TO.C,R4*%
X141424999Y-89534999D03*
X139674999Y-89534999D03*
%TD*%
D28*
%TO.C,U2*%
X146974999Y-71994999D03*
X146974999Y-73264999D03*
X146974999Y-74534999D03*
X146974999Y-75804999D03*
X152224999Y-75804999D03*
X152224999Y-74534999D03*
X152224999Y-73264999D03*
X152224999Y-71994999D03*
%TD*%
%TO.C,U3*%
X145799999Y-85029999D03*
X145799999Y-86299999D03*
X145799999Y-87569999D03*
X145799999Y-88839999D03*
X151049999Y-88839999D03*
X151049999Y-87569999D03*
X151049999Y-86299999D03*
X151049999Y-85029999D03*
%TD*%
D27*
%TO.C,R1*%
X141174999Y-74734999D03*
X139424999Y-74734999D03*
%TD*%
D29*
%TO.C,J3*%
X133124999Y-72724999D03*
D30*
X131724999Y-74124999D03*
X134524999Y-71324999D03*
X131724999Y-71324999D03*
X134524999Y-74124999D03*
%TD*%
D29*
%TO.C,J5*%
X133124999Y-78534999D03*
D30*
X131724999Y-77134999D03*
X134524999Y-77134999D03*
X134524999Y-79934999D03*
X131724999Y-79934999D03*
%TD*%
D29*
%TO.C,J6*%
X134124999Y-91534999D03*
D30*
X132724999Y-92934999D03*
X132724999Y-90134999D03*
X135524999Y-92934999D03*
X135524999Y-90134999D03*
%TD*%
D29*
%TO.C,J2*%
X134124999Y-85534999D03*
D30*
X135524999Y-84134999D03*
X132724999Y-86934999D03*
X135524999Y-86934999D03*
X132724999Y-84134999D03*
%TD*%
G36*
X125768527Y-65050000D02*
G01*
X125768527Y-65052000D01*
X125767056Y-65052983D01*
X125766817Y-65053015D01*
X125703204Y-65081154D01*
X125665070Y-65138965D01*
X125664244Y-65208220D01*
X125700983Y-65266914D01*
X125766825Y-65296985D01*
X125767068Y-65297017D01*
X125768655Y-65298235D01*
X125768394Y-65300218D01*
X125766807Y-65301000D01*
X124758205Y-65301000D01*
X124756473Y-65300000D01*
X124756473Y-65298000D01*
X124757944Y-65297017D01*
X124758183Y-65296985D01*
X124821796Y-65268846D01*
X124859930Y-65211035D01*
X124860756Y-65141780D01*
X124824017Y-65083086D01*
X124758175Y-65053015D01*
X124757932Y-65052983D01*
X124756345Y-65051765D01*
X124756606Y-65049782D01*
X124758193Y-65049000D01*
X125766795Y-65049000D01*
X125768527Y-65050000D01*
G37*
G36*
X125768527Y-64100000D02*
G01*
X125768527Y-64102000D01*
X125767056Y-64102983D01*
X125766817Y-64103015D01*
X125703204Y-64131154D01*
X125665070Y-64188965D01*
X125664244Y-64258220D01*
X125700983Y-64316914D01*
X125766825Y-64346985D01*
X125767068Y-64347017D01*
X125768655Y-64348235D01*
X125768394Y-64350218D01*
X125766807Y-64351000D01*
X124758205Y-64351000D01*
X124756473Y-64350000D01*
X124756473Y-64348000D01*
X124757944Y-64347017D01*
X124758183Y-64346985D01*
X124821796Y-64318846D01*
X124859930Y-64261035D01*
X124860756Y-64191780D01*
X124824017Y-64133086D01*
X124758175Y-64103015D01*
X124757932Y-64102983D01*
X124756345Y-64101765D01*
X124756606Y-64099782D01*
X124758193Y-64099000D01*
X125766795Y-64099000D01*
X125768527Y-64100000D01*
G37*
G36*
X116240267Y-63937886D02*
G01*
X116251262Y-63945233D01*
X116270199Y-63949000D01*
X117869801Y-63949000D01*
X117888738Y-63945233D01*
X117899733Y-63937886D01*
X117901729Y-63937755D01*
X117902840Y-63939418D01*
X117902507Y-63940660D01*
X117901997Y-63941424D01*
X117881216Y-64007788D01*
X117902006Y-64078590D01*
X117902507Y-64079340D01*
X117902638Y-64081335D01*
X117900975Y-64082447D01*
X117899733Y-64082114D01*
X117888738Y-64074767D01*
X117869801Y-64071000D01*
X116270199Y-64071000D01*
X116251262Y-64074767D01*
X116240267Y-64082114D01*
X116238271Y-64082245D01*
X116237160Y-64080582D01*
X116237493Y-64079340D01*
X116238003Y-64078576D01*
X116258784Y-64012212D01*
X116237994Y-63941410D01*
X116237493Y-63940660D01*
X116237362Y-63938665D01*
X116239025Y-63937553D01*
X116240267Y-63937886D01*
G37*
G36*
X116236075Y-62935084D02*
G01*
X116251263Y-62945233D01*
X116270199Y-62949000D01*
X117869801Y-62949000D01*
X117888738Y-62945233D01*
X117903773Y-62935186D01*
X117905768Y-62935055D01*
X117906880Y-62936718D01*
X117906793Y-62937447D01*
X117887898Y-62997788D01*
X117906955Y-63062690D01*
X117906483Y-63064633D01*
X117904564Y-63065197D01*
X117903925Y-63064916D01*
X117888737Y-63054767D01*
X117869801Y-63051000D01*
X116270199Y-63051000D01*
X116251262Y-63054767D01*
X116236227Y-63064814D01*
X116234232Y-63064945D01*
X116233120Y-63063282D01*
X116233207Y-63062553D01*
X116252102Y-63002212D01*
X116233045Y-62937310D01*
X116233517Y-62935367D01*
X116235436Y-62934803D01*
X116236075Y-62935084D01*
G37*
G36*
X116240267Y-61917886D02*
G01*
X116251262Y-61925233D01*
X116270199Y-61929000D01*
X117869801Y-61929000D01*
X117888738Y-61925233D01*
X117899733Y-61917886D01*
X117901729Y-61917755D01*
X117902840Y-61919418D01*
X117902507Y-61920660D01*
X117901997Y-61921424D01*
X117881216Y-61987788D01*
X117902006Y-62058590D01*
X117902507Y-62059340D01*
X117902638Y-62061335D01*
X117900975Y-62062447D01*
X117899733Y-62062114D01*
X117888738Y-62054767D01*
X117869801Y-62051000D01*
X116270199Y-62051000D01*
X116251262Y-62054767D01*
X116240267Y-62062114D01*
X116238271Y-62062245D01*
X116237160Y-62060582D01*
X116237493Y-62059340D01*
X116238003Y-62058576D01*
X116258784Y-61992212D01*
X116237994Y-61921410D01*
X116237493Y-61920660D01*
X116237362Y-61918665D01*
X116239025Y-61917553D01*
X116240267Y-61917886D01*
G37*
M02*
