M48
; DRILL file {KiCad (6.0.4-0)} date Tuesday, October 18, 2022 at 02:28:54 PM
; FORMAT={-:-/ absolute / inch / decimal}
; #@! TF.CreationDate,2022-10-18T14:28:54-06:00
; #@! TF.GenerationSoftware,Kicad,Pcbnew,(6.0.4-0)
; #@! TF.FileFunction,Plated,1,2,PTH
FMAT,2
INCH
; #@! TA.AperFunction,Plated,PTH,ViaDrill
T1C0.0157
; #@! TA.AperFunction,Plated,PTH,ComponentDrill
T2C0.0197
; #@! TA.AperFunction,Plated,PTH,ComponentDrill
T3C0.0394
%
G90
G05
T1
X4.6646Y-2.5402
X4.7677Y-2.5906
X5.6663Y-3.3478
X5.7136Y-2.84
X5.9813Y-2.6628
X6.0561Y-2.7533
X6.1585Y-2.84
X6.1663Y-3.399
X6.6811Y-2.8465
X6.689Y-3.4134
T3
X4.4787Y-3.3543
X4.5787Y-3.3543
X5.94Y-2.1644
X6.04Y-2.1644
X6.14Y-2.1644
X6.1654Y-3.5378
X6.1654Y-3.6378
X6.1654Y-3.7378
X6.2254Y-2.9344
X6.2254Y-3.0344
X6.2254Y-3.1344
X6.9144Y-3.4331
X6.9144Y-3.5331
X6.9144Y-3.6331
X6.9144Y-3.7331
X6.938Y-2.7913
X6.938Y-2.8913
X6.938Y-2.9913
X6.938Y-3.0913
T2
G00X4.4543Y-2.3102
M15
G01X4.4268Y-2.3102
M16
G05
G00X4.4543Y-2.6504
M15
G01X4.4268Y-2.6504
M16
G05
G00X4.6039Y-2.3102
M15
G01X4.5764Y-2.3102
M16
G05
G00X4.6039Y-2.6504
M15
G01X4.5764Y-2.6504
M16
G05
T0
M30
