%TF.GenerationSoftware,KiCad,Pcbnew,(6.0.4-0)*%
%TF.CreationDate,2022-10-18T14:28:54-06:00*%
%TF.ProjectId,HX711_710_711_720,48583731-315f-4373-9130-5f3731315f37,rev?*%
%TF.SameCoordinates,Original*%
%TF.FileFunction,Paste,Top*%
%TF.FilePolarity,Positive*%
%FSLAX46Y46*%
G04 Gerber Fmt 4.6, Leading zero omitted, Abs format (unit mm)*
G04 Created by KiCad (PCBNEW (6.0.4-0)) date 2022-10-18 14:28:54*
%MOMM*%
%LPD*%
G01*
G04 APERTURE LIST*
G04 Aperture macros list*
%AMRoundRect*
0 Rectangle with rounded corners*
0 $1 Rounding radius*
0 $2 $3 $4 $5 $6 $7 $8 $9 X,Y pos of 4 corners*
0 Add a 4 corners polygon primitive as box body*
4,1,4,$2,$3,$4,$5,$6,$7,$8,$9,$2,$3,0*
0 Add four circle primitives for the rounded corners*
1,1,$1+$1,$2,$3*
1,1,$1+$1,$4,$5*
1,1,$1+$1,$6,$7*
1,1,$1+$1,$8,$9*
0 Add four rect primitives between the rounded corners*
20,1,$1+$1,$2,$3,$4,$5,0*
20,1,$1+$1,$4,$5,$6,$7,0*
20,1,$1+$1,$6,$7,$8,$9,0*
20,1,$1+$1,$8,$9,$2,$3,0*%
G04 Aperture macros list end*
%ADD10RoundRect,0.150000X-0.625000X0.150000X-0.625000X-0.150000X0.625000X-0.150000X0.625000X0.150000X0*%
%ADD11RoundRect,0.250000X-0.650000X0.350000X-0.650000X-0.350000X0.650000X-0.350000X0.650000X0.350000X0*%
%ADD12RoundRect,0.237500X-0.237500X0.300000X-0.237500X-0.300000X0.237500X-0.300000X0.237500X0.300000X0*%
%ADD13RoundRect,0.150000X-0.825000X-0.150000X0.825000X-0.150000X0.825000X0.150000X-0.825000X0.150000X0*%
%ADD14RoundRect,0.237500X-0.300000X-0.237500X0.300000X-0.237500X0.300000X0.237500X-0.300000X0.237500X0*%
%ADD15RoundRect,0.150000X-0.512500X-0.150000X0.512500X-0.150000X0.512500X0.150000X-0.512500X0.150000X0*%
%ADD16RoundRect,0.150000X0.825000X0.150000X-0.825000X0.150000X-0.825000X-0.150000X0.825000X-0.150000X0*%
%ADD17R,1.600000X0.800000*%
%ADD18R,1.600000X0.900000*%
%ADD19R,0.450000X0.600000*%
%ADD20RoundRect,0.237500X0.300000X0.237500X-0.300000X0.237500X-0.300000X-0.237500X0.300000X-0.237500X0*%
%ADD21RoundRect,0.237500X0.237500X-0.300000X0.237500X0.300000X-0.237500X0.300000X-0.237500X-0.300000X0*%
%ADD22RoundRect,0.237500X0.287500X0.237500X-0.287500X0.237500X-0.287500X-0.237500X0.287500X-0.237500X0*%
%ADD23RoundRect,0.150000X-0.675000X-0.150000X0.675000X-0.150000X0.675000X0.150000X-0.675000X0.150000X0*%
%ADD24C,1.000000*%
%ADD25R,1.000000X1.000000*%
G04 APERTURE END LIST*
D10*
%TO.C,J7*%
X115300000Y-77400000D03*
X115300000Y-78400000D03*
X115300000Y-79400000D03*
X115300000Y-80400000D03*
D11*
X111425000Y-81700000D03*
X111425000Y-76100000D03*
%TD*%
D12*
%TO.C,C9*%
X171000000Y-87737500D03*
X171000000Y-89462500D03*
%TD*%
%TO.C,C8*%
X171000000Y-72337500D03*
X171000000Y-74062500D03*
%TD*%
D13*
%TO.C,U5*%
X163425000Y-89795000D03*
X163425000Y-91065000D03*
X163425000Y-92335000D03*
X163425000Y-93605000D03*
X168375000Y-93605000D03*
X168375000Y-92335000D03*
X168375000Y-91065000D03*
X168375000Y-89795000D03*
%TD*%
%TO.C,U4*%
X163625000Y-74295000D03*
X163625000Y-75565000D03*
X163625000Y-76835000D03*
X163625000Y-78105000D03*
X168575000Y-78105000D03*
X168575000Y-76835000D03*
X168575000Y-75565000D03*
X168575000Y-74295000D03*
%TD*%
D14*
%TO.C,C7*%
X161437500Y-86700000D03*
X163162500Y-86700000D03*
%TD*%
%TO.C,C6*%
X161837500Y-71600000D03*
X163562500Y-71600000D03*
%TD*%
D15*
%TO.C,U6*%
X125262500Y-63750000D03*
X125262500Y-64700000D03*
X125262500Y-65650000D03*
X127537500Y-65650000D03*
X127537500Y-63750000D03*
%TD*%
D16*
%TO.C,U1*%
X125275000Y-83405000D03*
X125275000Y-82135000D03*
X125275000Y-80865000D03*
X125275000Y-79595000D03*
X120325000Y-79595000D03*
X120325000Y-80865000D03*
X120325000Y-82135000D03*
X120325000Y-83405000D03*
%TD*%
D17*
%TO.C,J12*%
X117070000Y-62500000D03*
X117070000Y-64520000D03*
D18*
X117070000Y-65750000D03*
D17*
X117070000Y-63500000D03*
X117070000Y-61480000D03*
D18*
X117070000Y-60250000D03*
%TD*%
D19*
%TO.C,D1*%
X121100000Y-62350000D03*
X121100000Y-64450000D03*
%TD*%
D12*
%TO.C,C11*%
X130300000Y-63837500D03*
X130300000Y-65562500D03*
%TD*%
%TO.C,C5*%
X154674999Y-84497499D03*
X154674999Y-86222499D03*
%TD*%
%TO.C,C10*%
X123200000Y-63837500D03*
X123200000Y-65562500D03*
%TD*%
%TO.C,C4*%
X155074999Y-71147499D03*
X155074999Y-72872499D03*
%TD*%
D20*
%TO.C,C3*%
X122462500Y-85900000D03*
X120737500Y-85900000D03*
%TD*%
D21*
%TO.C,C2*%
X143224999Y-89597499D03*
X143224999Y-87872499D03*
%TD*%
%TO.C,C1*%
X143324999Y-76422499D03*
X143324999Y-74697499D03*
%TD*%
D22*
%TO.C,R2*%
X141174999Y-76734999D03*
X139424999Y-76734999D03*
%TD*%
%TO.C,R3*%
X141399999Y-87734999D03*
X139649999Y-87734999D03*
%TD*%
%TO.C,R4*%
X141424999Y-89534999D03*
X139674999Y-89534999D03*
%TD*%
D23*
%TO.C,U2*%
X146974999Y-71994999D03*
X146974999Y-73264999D03*
X146974999Y-74534999D03*
X146974999Y-75804999D03*
X152224999Y-75804999D03*
X152224999Y-74534999D03*
X152224999Y-73264999D03*
X152224999Y-71994999D03*
%TD*%
%TO.C,U3*%
X145799999Y-85029999D03*
X145799999Y-86299999D03*
X145799999Y-87569999D03*
X145799999Y-88839999D03*
X151049999Y-88839999D03*
X151049999Y-87569999D03*
X151049999Y-86299999D03*
X151049999Y-85029999D03*
%TD*%
D22*
%TO.C,R1*%
X141174999Y-74734999D03*
X139424999Y-74734999D03*
%TD*%
D24*
%TO.C,J3*%
X133124999Y-72724999D03*
D25*
X131724999Y-74124999D03*
X134524999Y-71324999D03*
X131724999Y-71324999D03*
X134524999Y-74124999D03*
%TD*%
D24*
%TO.C,J5*%
X133124999Y-78534999D03*
D25*
X131724999Y-77134999D03*
X134524999Y-77134999D03*
X134524999Y-79934999D03*
X131724999Y-79934999D03*
%TD*%
D24*
%TO.C,J6*%
X134124999Y-91534999D03*
D25*
X132724999Y-92934999D03*
X132724999Y-90134999D03*
X135524999Y-92934999D03*
X135524999Y-90134999D03*
%TD*%
D24*
%TO.C,J2*%
X134124999Y-85534999D03*
D25*
X135524999Y-84134999D03*
X132724999Y-86934999D03*
X135524999Y-86934999D03*
X132724999Y-84134999D03*
%TD*%
M02*
